G04 #@! TF.FileFunction,Legend,Top*
%FSLAX46Y46*%
G04 Gerber Fmt 4.6, Leading zero omitted, Abs format (unit mm)*
G04 Created by KiCad (PCBNEW 4.0.7) date 09/04/18 15:15:37*
%MOMM*%
%LPD*%
G01*
G04 APERTURE LIST*
%ADD10C,0.100000*%
%ADD11C,0.200000*%
%ADD12C,0.250000*%
%ADD13C,0.150000*%
%ADD14C,0.120000*%
%ADD15C,0.010000*%
G04 APERTURE END LIST*
D10*
X181616868Y-84147867D02*
X181616868Y-84714533D01*
X181650201Y-84781200D01*
X181683534Y-84814533D01*
X181750201Y-84847867D01*
X181883534Y-84847867D01*
X181950201Y-84814533D01*
X181983534Y-84781200D01*
X182016868Y-84714533D01*
X182016868Y-84147867D01*
X182316867Y-84647867D02*
X182650201Y-84647867D01*
X182250201Y-84847867D02*
X182483534Y-84147867D01*
X182716867Y-84847867D01*
X183350201Y-84847867D02*
X183116867Y-84514533D01*
X182950201Y-84847867D02*
X182950201Y-84147867D01*
X183216867Y-84147867D01*
X183283534Y-84181200D01*
X183316867Y-84214533D01*
X183350201Y-84281200D01*
X183350201Y-84381200D01*
X183316867Y-84447867D01*
X183283534Y-84481200D01*
X183216867Y-84514533D01*
X182950201Y-84514533D01*
X183550201Y-84147867D02*
X183950201Y-84147867D01*
X183750201Y-84847867D02*
X183750201Y-84147867D01*
X187250199Y-84847867D02*
X187016865Y-84514533D01*
X186850199Y-84847867D02*
X186850199Y-84147867D01*
X187116865Y-84147867D01*
X187183532Y-84181200D01*
X187216865Y-84214533D01*
X187250199Y-84281200D01*
X187250199Y-84381200D01*
X187216865Y-84447867D01*
X187183532Y-84481200D01*
X187116865Y-84514533D01*
X186850199Y-84514533D01*
X187516865Y-84814533D02*
X187616865Y-84847867D01*
X187783532Y-84847867D01*
X187850199Y-84814533D01*
X187883532Y-84781200D01*
X187916865Y-84714533D01*
X187916865Y-84647867D01*
X187883532Y-84581200D01*
X187850199Y-84547867D01*
X187783532Y-84514533D01*
X187650199Y-84481200D01*
X187583532Y-84447867D01*
X187550199Y-84414533D01*
X187516865Y-84347867D01*
X187516865Y-84281200D01*
X187550199Y-84214533D01*
X187583532Y-84181200D01*
X187650199Y-84147867D01*
X187816865Y-84147867D01*
X187916865Y-84181200D01*
X188183532Y-84214533D02*
X188216866Y-84181200D01*
X188283532Y-84147867D01*
X188450199Y-84147867D01*
X188516866Y-84181200D01*
X188550199Y-84214533D01*
X188583532Y-84281200D01*
X188583532Y-84347867D01*
X188550199Y-84447867D01*
X188150199Y-84847867D01*
X188583532Y-84847867D01*
X188816866Y-84147867D02*
X189250199Y-84147867D01*
X189016866Y-84414533D01*
X189116866Y-84414533D01*
X189183533Y-84447867D01*
X189216866Y-84481200D01*
X189250199Y-84547867D01*
X189250199Y-84714533D01*
X189216866Y-84781200D01*
X189183533Y-84814533D01*
X189116866Y-84847867D01*
X188916866Y-84847867D01*
X188850199Y-84814533D01*
X188816866Y-84781200D01*
X189516866Y-84214533D02*
X189550200Y-84181200D01*
X189616866Y-84147867D01*
X189783533Y-84147867D01*
X189850200Y-84181200D01*
X189883533Y-84214533D01*
X189916866Y-84281200D01*
X189916866Y-84347867D01*
X189883533Y-84447867D01*
X189483533Y-84847867D01*
X189916866Y-84847867D01*
X196469124Y-81107505D02*
X196964362Y-81107505D01*
X196697695Y-81412267D01*
X196811981Y-81412267D01*
X196888171Y-81450362D01*
X196926267Y-81488457D01*
X196964362Y-81564648D01*
X196964362Y-81755124D01*
X196926267Y-81831314D01*
X196888171Y-81869410D01*
X196811981Y-81907505D01*
X196583409Y-81907505D01*
X196507219Y-81869410D01*
X196469124Y-81831314D01*
X197192933Y-81107505D02*
X197459600Y-81907505D01*
X197726267Y-81107505D01*
X197916743Y-81107505D02*
X198411981Y-81107505D01*
X198145314Y-81412267D01*
X198259600Y-81412267D01*
X198335790Y-81450362D01*
X198373886Y-81488457D01*
X198411981Y-81564648D01*
X198411981Y-81755124D01*
X198373886Y-81831314D01*
X198335790Y-81869410D01*
X198259600Y-81907505D01*
X198031028Y-81907505D01*
X197954838Y-81869410D01*
X197916743Y-81831314D01*
X196507219Y-84469410D02*
X196621505Y-84507505D01*
X196811981Y-84507505D01*
X196888171Y-84469410D01*
X196926267Y-84431314D01*
X196964362Y-84355124D01*
X196964362Y-84278933D01*
X196926267Y-84202743D01*
X196888171Y-84164648D01*
X196811981Y-84126552D01*
X196659600Y-84088457D01*
X196583409Y-84050362D01*
X196545314Y-84012267D01*
X196507219Y-83936076D01*
X196507219Y-83859886D01*
X196545314Y-83783695D01*
X196583409Y-83745600D01*
X196659600Y-83707505D01*
X196850076Y-83707505D01*
X196964362Y-83745600D01*
X197764362Y-84431314D02*
X197726267Y-84469410D01*
X197611981Y-84507505D01*
X197535791Y-84507505D01*
X197421505Y-84469410D01*
X197345314Y-84393219D01*
X197307219Y-84317029D01*
X197269124Y-84164648D01*
X197269124Y-84050362D01*
X197307219Y-83897981D01*
X197345314Y-83821790D01*
X197421505Y-83745600D01*
X197535791Y-83707505D01*
X197611981Y-83707505D01*
X197726267Y-83745600D01*
X197764362Y-83783695D01*
X198488172Y-84507505D02*
X198107219Y-84507505D01*
X198107219Y-83707505D01*
X196488172Y-87069410D02*
X196602458Y-87107505D01*
X196792934Y-87107505D01*
X196869124Y-87069410D01*
X196907220Y-87031314D01*
X196945315Y-86955124D01*
X196945315Y-86878933D01*
X196907220Y-86802743D01*
X196869124Y-86764648D01*
X196792934Y-86726552D01*
X196640553Y-86688457D01*
X196564362Y-86650362D01*
X196526267Y-86612267D01*
X196488172Y-86536076D01*
X196488172Y-86459886D01*
X196526267Y-86383695D01*
X196564362Y-86345600D01*
X196640553Y-86307505D01*
X196831029Y-86307505D01*
X196945315Y-86345600D01*
X197288172Y-87107505D02*
X197288172Y-86307505D01*
X197478648Y-86307505D01*
X197592934Y-86345600D01*
X197669125Y-86421790D01*
X197707220Y-86497981D01*
X197745315Y-86650362D01*
X197745315Y-86764648D01*
X197707220Y-86917029D01*
X197669125Y-86993219D01*
X197592934Y-87069410D01*
X197478648Y-87107505D01*
X197288172Y-87107505D01*
X198050077Y-86878933D02*
X198431029Y-86878933D01*
X197973886Y-87107505D02*
X198240553Y-86307505D01*
X198507220Y-87107505D01*
X196850077Y-88945600D02*
X196773886Y-88907505D01*
X196659601Y-88907505D01*
X196545315Y-88945600D01*
X196469124Y-89021790D01*
X196431029Y-89097981D01*
X196392934Y-89250362D01*
X196392934Y-89364648D01*
X196431029Y-89517029D01*
X196469124Y-89593219D01*
X196545315Y-89669410D01*
X196659601Y-89707505D01*
X196735791Y-89707505D01*
X196850077Y-89669410D01*
X196888172Y-89631314D01*
X196888172Y-89364648D01*
X196735791Y-89364648D01*
X197231029Y-89707505D02*
X197231029Y-88907505D01*
X197688172Y-89707505D01*
X197688172Y-88907505D01*
X198069124Y-89707505D02*
X198069124Y-88907505D01*
X198259600Y-88907505D01*
X198373886Y-88945600D01*
X198450077Y-89021790D01*
X198488172Y-89097981D01*
X198526267Y-89250362D01*
X198526267Y-89364648D01*
X198488172Y-89517029D01*
X198450077Y-89593219D01*
X198373886Y-89669410D01*
X198259600Y-89707505D01*
X198069124Y-89707505D01*
D11*
X173914228Y-83922000D02*
X173771371Y-83850571D01*
X173557085Y-83850571D01*
X173342800Y-83922000D01*
X173199942Y-84064857D01*
X173128514Y-84207714D01*
X173057085Y-84493429D01*
X173057085Y-84707714D01*
X173128514Y-84993429D01*
X173199942Y-85136286D01*
X173342800Y-85279143D01*
X173557085Y-85350571D01*
X173699942Y-85350571D01*
X173914228Y-85279143D01*
X173985657Y-85207714D01*
X173985657Y-84707714D01*
X173699942Y-84707714D01*
X174628514Y-85350571D02*
X174628514Y-83850571D01*
X175485657Y-85350571D01*
X175485657Y-83850571D01*
X176199943Y-85350571D02*
X176199943Y-83850571D01*
X176557086Y-83850571D01*
X176771371Y-83922000D01*
X176914229Y-84064857D01*
X176985657Y-84207714D01*
X177057086Y-84493429D01*
X177057086Y-84707714D01*
X176985657Y-84993429D01*
X176914229Y-85136286D01*
X176771371Y-85279143D01*
X176557086Y-85350571D01*
X176199943Y-85350571D01*
X175628515Y-87800571D02*
X175128515Y-87086286D01*
X174771372Y-87800571D02*
X174771372Y-86300571D01*
X175342800Y-86300571D01*
X175485658Y-86372000D01*
X175557086Y-86443429D01*
X175628515Y-86586286D01*
X175628515Y-86800571D01*
X175557086Y-86943429D01*
X175485658Y-87014857D01*
X175342800Y-87086286D01*
X174771372Y-87086286D01*
X176128515Y-86300571D02*
X177128515Y-87800571D01*
X177128515Y-86300571D02*
X176128515Y-87800571D01*
X174914229Y-88750571D02*
X175771372Y-88750571D01*
X175342801Y-90250571D02*
X175342801Y-88750571D01*
X176128515Y-88750571D02*
X177128515Y-90250571D01*
X177128515Y-88750571D02*
X176128515Y-90250571D01*
D10*
X202620762Y-91784021D02*
X202620762Y-92593545D01*
X202668381Y-92688783D01*
X202716000Y-92736402D01*
X202811238Y-92784021D01*
X203001715Y-92784021D01*
X203096953Y-92736402D01*
X203144572Y-92688783D01*
X203192191Y-92593545D01*
X203192191Y-91784021D01*
X203620762Y-92498307D02*
X204096953Y-92498307D01*
X203525524Y-92784021D02*
X203858857Y-91784021D01*
X204192191Y-92784021D01*
X205096953Y-92784021D02*
X204763619Y-92307830D01*
X204525524Y-92784021D02*
X204525524Y-91784021D01*
X204906477Y-91784021D01*
X205001715Y-91831640D01*
X205049334Y-91879259D01*
X205096953Y-91974497D01*
X205096953Y-92117354D01*
X205049334Y-92212592D01*
X205001715Y-92260211D01*
X204906477Y-92307830D01*
X204525524Y-92307830D01*
X205382667Y-91784021D02*
X205954096Y-91784021D01*
X205668381Y-92784021D02*
X205668381Y-91784021D01*
X201692190Y-93860211D02*
X202025524Y-93860211D01*
X202168381Y-94384021D02*
X201692190Y-94384021D01*
X201692190Y-93384021D01*
X202168381Y-93384021D01*
X202596952Y-94384021D02*
X202596952Y-93384021D01*
X203168381Y-94384021D01*
X203168381Y-93384021D01*
X203596952Y-94098307D02*
X204073143Y-94098307D01*
X203501714Y-94384021D02*
X203835047Y-93384021D01*
X204168381Y-94384021D01*
X204835048Y-93860211D02*
X204977905Y-93907830D01*
X205025524Y-93955450D01*
X205073143Y-94050688D01*
X205073143Y-94193545D01*
X205025524Y-94288783D01*
X204977905Y-94336402D01*
X204882667Y-94384021D01*
X204501714Y-94384021D01*
X204501714Y-93384021D01*
X204835048Y-93384021D01*
X204930286Y-93431640D01*
X204977905Y-93479259D01*
X205025524Y-93574497D01*
X205025524Y-93669735D01*
X204977905Y-93764973D01*
X204930286Y-93812592D01*
X204835048Y-93860211D01*
X204501714Y-93860211D01*
X205977905Y-94384021D02*
X205501714Y-94384021D01*
X205501714Y-93384021D01*
X206311238Y-93860211D02*
X206644572Y-93860211D01*
X206787429Y-94384021D02*
X206311238Y-94384021D01*
X206311238Y-93384021D01*
X206787429Y-93384021D01*
X143933619Y-113918905D02*
X143933619Y-113347476D01*
X143933619Y-113633190D02*
X144933619Y-113633190D01*
X144790762Y-113537952D01*
X144695524Y-113442714D01*
X144647905Y-113347476D01*
X144028857Y-114347476D02*
X143981238Y-114395095D01*
X143933619Y-114347476D01*
X143981238Y-114299857D01*
X144028857Y-114347476D01*
X143933619Y-114347476D01*
X143933619Y-115585571D02*
X144933619Y-115585571D01*
X143933619Y-116157000D01*
X144933619Y-116157000D01*
X144028857Y-117204619D02*
X143981238Y-117157000D01*
X143933619Y-117014143D01*
X143933619Y-116918905D01*
X143981238Y-116776047D01*
X144076476Y-116680809D01*
X144171714Y-116633190D01*
X144362190Y-116585571D01*
X144505048Y-116585571D01*
X144695524Y-116633190D01*
X144790762Y-116680809D01*
X144886000Y-116776047D01*
X144933619Y-116918905D01*
X144933619Y-117014143D01*
X144886000Y-117157000D01*
X144838381Y-117204619D01*
X144838381Y-119871286D02*
X144886000Y-119918905D01*
X144933619Y-120014143D01*
X144933619Y-120252239D01*
X144886000Y-120347477D01*
X144838381Y-120395096D01*
X144743143Y-120442715D01*
X144647905Y-120442715D01*
X144505048Y-120395096D01*
X143933619Y-119823667D01*
X143933619Y-120442715D01*
X144028857Y-120871286D02*
X143981238Y-120918905D01*
X143933619Y-120871286D01*
X143981238Y-120823667D01*
X144028857Y-120871286D01*
X143933619Y-120871286D01*
X144886000Y-122633191D02*
X144933619Y-122537953D01*
X144933619Y-122395096D01*
X144886000Y-122252238D01*
X144790762Y-122157000D01*
X144695524Y-122109381D01*
X144505048Y-122061762D01*
X144362190Y-122061762D01*
X144171714Y-122109381D01*
X144076476Y-122157000D01*
X143981238Y-122252238D01*
X143933619Y-122395096D01*
X143933619Y-122490334D01*
X143981238Y-122633191D01*
X144028857Y-122680810D01*
X144362190Y-122680810D01*
X144362190Y-122490334D01*
X143933619Y-123109381D02*
X144933619Y-123109381D01*
X143933619Y-123680810D01*
X144933619Y-123680810D01*
X143933619Y-124157000D02*
X144933619Y-124157000D01*
X144933619Y-124395095D01*
X144886000Y-124537953D01*
X144790762Y-124633191D01*
X144695524Y-124680810D01*
X144505048Y-124728429D01*
X144362190Y-124728429D01*
X144171714Y-124680810D01*
X144076476Y-124633191D01*
X143981238Y-124537953D01*
X143933619Y-124395095D01*
X143933619Y-124157000D01*
X143333619Y-113299857D02*
X143333619Y-113918905D01*
X142952667Y-113585571D01*
X142952667Y-113728429D01*
X142905048Y-113823667D01*
X142857429Y-113871286D01*
X142762190Y-113918905D01*
X142524095Y-113918905D01*
X142428857Y-113871286D01*
X142381238Y-113823667D01*
X142333619Y-113728429D01*
X142333619Y-113442714D01*
X142381238Y-113347476D01*
X142428857Y-113299857D01*
X142428857Y-114347476D02*
X142381238Y-114395095D01*
X142333619Y-114347476D01*
X142381238Y-114299857D01*
X142428857Y-114347476D01*
X142333619Y-114347476D01*
X142428857Y-116157000D02*
X142381238Y-116109381D01*
X142333619Y-115966524D01*
X142333619Y-115871286D01*
X142381238Y-115728428D01*
X142476476Y-115633190D01*
X142571714Y-115585571D01*
X142762190Y-115537952D01*
X142905048Y-115537952D01*
X143095524Y-115585571D01*
X143190762Y-115633190D01*
X143286000Y-115728428D01*
X143333619Y-115871286D01*
X143333619Y-115966524D01*
X143286000Y-116109381D01*
X143238381Y-116157000D01*
X142381238Y-116537952D02*
X142333619Y-116680809D01*
X142333619Y-116918905D01*
X142381238Y-117014143D01*
X142428857Y-117061762D01*
X142524095Y-117109381D01*
X142619333Y-117109381D01*
X142714571Y-117061762D01*
X142762190Y-117014143D01*
X142809810Y-116918905D01*
X142857429Y-116728428D01*
X142905048Y-116633190D01*
X142952667Y-116585571D01*
X143047905Y-116537952D01*
X143143143Y-116537952D01*
X143238381Y-116585571D01*
X143286000Y-116633190D01*
X143333619Y-116728428D01*
X143333619Y-116966524D01*
X143286000Y-117109381D01*
X143000286Y-120252239D02*
X142333619Y-120252239D01*
X143381238Y-120014143D02*
X142666952Y-119776048D01*
X142666952Y-120395096D01*
X142428857Y-120776048D02*
X142381238Y-120823667D01*
X142333619Y-120776048D01*
X142381238Y-120728429D01*
X142428857Y-120776048D01*
X142333619Y-120776048D01*
X142381238Y-121966524D02*
X142333619Y-122109381D01*
X142333619Y-122347477D01*
X142381238Y-122442715D01*
X142428857Y-122490334D01*
X142524095Y-122537953D01*
X142619333Y-122537953D01*
X142714571Y-122490334D01*
X142762190Y-122442715D01*
X142809810Y-122347477D01*
X142857429Y-122157000D01*
X142905048Y-122061762D01*
X142952667Y-122014143D01*
X143047905Y-121966524D01*
X143143143Y-121966524D01*
X143238381Y-122014143D01*
X143286000Y-122061762D01*
X143333619Y-122157000D01*
X143333619Y-122395096D01*
X143286000Y-122537953D01*
X142428857Y-123537953D02*
X142381238Y-123490334D01*
X142333619Y-123347477D01*
X142333619Y-123252239D01*
X142381238Y-123109381D01*
X142476476Y-123014143D01*
X142571714Y-122966524D01*
X142762190Y-122918905D01*
X142905048Y-122918905D01*
X143095524Y-122966524D01*
X143190762Y-123014143D01*
X143286000Y-123109381D01*
X143333619Y-123252239D01*
X143333619Y-123347477D01*
X143286000Y-123490334D01*
X143238381Y-123537953D01*
X142333619Y-123966524D02*
X143333619Y-123966524D01*
X142333619Y-124537953D02*
X142905048Y-124109381D01*
X143333619Y-124537953D02*
X142762190Y-123966524D01*
X141733619Y-113871286D02*
X141733619Y-113395095D01*
X141257429Y-113347476D01*
X141305048Y-113395095D01*
X141352667Y-113490333D01*
X141352667Y-113728429D01*
X141305048Y-113823667D01*
X141257429Y-113871286D01*
X141162190Y-113918905D01*
X140924095Y-113918905D01*
X140828857Y-113871286D01*
X140781238Y-113823667D01*
X140733619Y-113728429D01*
X140733619Y-113490333D01*
X140781238Y-113395095D01*
X140828857Y-113347476D01*
X140828857Y-114347476D02*
X140781238Y-114395095D01*
X140733619Y-114347476D01*
X140781238Y-114299857D01*
X140828857Y-114347476D01*
X140733619Y-114347476D01*
X140733619Y-115585571D02*
X141733619Y-115585571D01*
X141019333Y-115918905D01*
X141733619Y-116252238D01*
X140733619Y-116252238D01*
X140733619Y-116728428D02*
X141733619Y-116728428D01*
X140781238Y-117156999D02*
X140733619Y-117299856D01*
X140733619Y-117537952D01*
X140781238Y-117633190D01*
X140828857Y-117680809D01*
X140924095Y-117728428D01*
X141019333Y-117728428D01*
X141114571Y-117680809D01*
X141162190Y-117633190D01*
X141209810Y-117537952D01*
X141257429Y-117347475D01*
X141305048Y-117252237D01*
X141352667Y-117204618D01*
X141447905Y-117156999D01*
X141543143Y-117156999D01*
X141638381Y-117204618D01*
X141686000Y-117252237D01*
X141733619Y-117347475D01*
X141733619Y-117585571D01*
X141686000Y-117728428D01*
X141733619Y-118347475D02*
X141733619Y-118537952D01*
X141686000Y-118633190D01*
X141590762Y-118728428D01*
X141400286Y-118776047D01*
X141066952Y-118776047D01*
X140876476Y-118728428D01*
X140781238Y-118633190D01*
X140733619Y-118537952D01*
X140733619Y-118347475D01*
X140781238Y-118252237D01*
X140876476Y-118156999D01*
X141066952Y-118109380D01*
X141400286Y-118109380D01*
X141590762Y-118156999D01*
X141686000Y-118252237D01*
X141733619Y-118347475D01*
X141733619Y-120395095D02*
X141733619Y-120204618D01*
X141686000Y-120109380D01*
X141638381Y-120061761D01*
X141495524Y-119966523D01*
X141305048Y-119918904D01*
X140924095Y-119918904D01*
X140828857Y-119966523D01*
X140781238Y-120014142D01*
X140733619Y-120109380D01*
X140733619Y-120299857D01*
X140781238Y-120395095D01*
X140828857Y-120442714D01*
X140924095Y-120490333D01*
X141162190Y-120490333D01*
X141257429Y-120442714D01*
X141305048Y-120395095D01*
X141352667Y-120299857D01*
X141352667Y-120109380D01*
X141305048Y-120014142D01*
X141257429Y-119966523D01*
X141162190Y-119918904D01*
X140828857Y-120918904D02*
X140781238Y-120966523D01*
X140733619Y-120918904D01*
X140781238Y-120871285D01*
X140828857Y-120918904D01*
X140733619Y-120918904D01*
X140733619Y-122156999D02*
X141733619Y-122156999D01*
X141019333Y-122490333D01*
X141733619Y-122823666D01*
X140733619Y-122823666D01*
X141733619Y-123490332D02*
X141733619Y-123680809D01*
X141686000Y-123776047D01*
X141590762Y-123871285D01*
X141400286Y-123918904D01*
X141066952Y-123918904D01*
X140876476Y-123871285D01*
X140781238Y-123776047D01*
X140733619Y-123680809D01*
X140733619Y-123490332D01*
X140781238Y-123395094D01*
X140876476Y-123299856D01*
X141066952Y-123252237D01*
X141400286Y-123252237D01*
X141590762Y-123299856D01*
X141686000Y-123395094D01*
X141733619Y-123490332D01*
X140781238Y-124299856D02*
X140733619Y-124442713D01*
X140733619Y-124680809D01*
X140781238Y-124776047D01*
X140828857Y-124823666D01*
X140924095Y-124871285D01*
X141019333Y-124871285D01*
X141114571Y-124823666D01*
X141162190Y-124776047D01*
X141209810Y-124680809D01*
X141257429Y-124490332D01*
X141305048Y-124395094D01*
X141352667Y-124347475D01*
X141447905Y-124299856D01*
X141543143Y-124299856D01*
X141638381Y-124347475D01*
X141686000Y-124395094D01*
X141733619Y-124490332D01*
X141733619Y-124728428D01*
X141686000Y-124871285D01*
X140733619Y-125299856D02*
X141733619Y-125299856D01*
X140133619Y-113299857D02*
X140133619Y-113966524D01*
X139133619Y-113537952D01*
X139228857Y-114347476D02*
X139181238Y-114395095D01*
X139133619Y-114347476D01*
X139181238Y-114299857D01*
X139228857Y-114347476D01*
X139133619Y-114347476D01*
X139133619Y-115585571D02*
X140133619Y-115585571D01*
X139133619Y-116157000D01*
X140133619Y-116157000D01*
X139228857Y-117204619D02*
X139181238Y-117157000D01*
X139133619Y-117014143D01*
X139133619Y-116918905D01*
X139181238Y-116776047D01*
X139276476Y-116680809D01*
X139371714Y-116633190D01*
X139562190Y-116585571D01*
X139705048Y-116585571D01*
X139895524Y-116633190D01*
X139990762Y-116680809D01*
X140086000Y-116776047D01*
X140133619Y-116918905D01*
X140133619Y-117014143D01*
X140086000Y-117157000D01*
X140038381Y-117204619D01*
X139705048Y-120061762D02*
X139752667Y-119966524D01*
X139800286Y-119918905D01*
X139895524Y-119871286D01*
X139943143Y-119871286D01*
X140038381Y-119918905D01*
X140086000Y-119966524D01*
X140133619Y-120061762D01*
X140133619Y-120252239D01*
X140086000Y-120347477D01*
X140038381Y-120395096D01*
X139943143Y-120442715D01*
X139895524Y-120442715D01*
X139800286Y-120395096D01*
X139752667Y-120347477D01*
X139705048Y-120252239D01*
X139705048Y-120061762D01*
X139657429Y-119966524D01*
X139609810Y-119918905D01*
X139514571Y-119871286D01*
X139324095Y-119871286D01*
X139228857Y-119918905D01*
X139181238Y-119966524D01*
X139133619Y-120061762D01*
X139133619Y-120252239D01*
X139181238Y-120347477D01*
X139228857Y-120395096D01*
X139324095Y-120442715D01*
X139514571Y-120442715D01*
X139609810Y-120395096D01*
X139657429Y-120347477D01*
X139705048Y-120252239D01*
X139228857Y-120871286D02*
X139181238Y-120918905D01*
X139133619Y-120871286D01*
X139181238Y-120823667D01*
X139228857Y-120871286D01*
X139133619Y-120871286D01*
X139133619Y-122109381D02*
X140133619Y-122109381D01*
X139133619Y-122680810D01*
X140133619Y-122680810D01*
X139228857Y-123728429D02*
X139181238Y-123680810D01*
X139133619Y-123537953D01*
X139133619Y-123442715D01*
X139181238Y-123299857D01*
X139276476Y-123204619D01*
X139371714Y-123157000D01*
X139562190Y-123109381D01*
X139705048Y-123109381D01*
X139895524Y-123157000D01*
X139990762Y-123204619D01*
X140086000Y-123299857D01*
X140133619Y-123442715D01*
X140133619Y-123537953D01*
X140086000Y-123680810D01*
X140038381Y-123728429D01*
D12*
X209369638Y-109215181D02*
X209036304Y-108738990D01*
X208798209Y-109215181D02*
X208798209Y-108215181D01*
X209179162Y-108215181D01*
X209274400Y-108262800D01*
X209322019Y-108310419D01*
X209369638Y-108405657D01*
X209369638Y-108548514D01*
X209322019Y-108643752D01*
X209274400Y-108691371D01*
X209179162Y-108738990D01*
X208798209Y-108738990D01*
X209655352Y-108215181D02*
X210226781Y-108215181D01*
X209941066Y-109215181D02*
X209941066Y-108215181D01*
X210560114Y-108691371D02*
X210893448Y-108691371D01*
X211036305Y-109215181D02*
X210560114Y-109215181D01*
X210560114Y-108215181D01*
X211036305Y-108215181D01*
X212226781Y-109215181D02*
X212226781Y-108215181D01*
X212226781Y-108691371D02*
X212798210Y-108691371D01*
X212798210Y-109215181D02*
X212798210Y-108215181D01*
X213226781Y-108929467D02*
X213702972Y-108929467D01*
X213131543Y-109215181D02*
X213464876Y-108215181D01*
X213798210Y-109215181D01*
X213988686Y-108215181D02*
X214560115Y-108215181D01*
X214274400Y-109215181D02*
X214274400Y-108215181D01*
X215560115Y-108548514D02*
X215798210Y-109215181D01*
X216036306Y-108548514D01*
X216941068Y-109215181D02*
X216369639Y-109215181D01*
X216655353Y-109215181D02*
X216655353Y-108215181D01*
X216560115Y-108358038D01*
X216464877Y-108453276D01*
X216369639Y-108500895D01*
X217369639Y-109119943D02*
X217417258Y-109167562D01*
X217369639Y-109215181D01*
X217322020Y-109167562D01*
X217369639Y-109119943D01*
X217369639Y-109215181D01*
X218036305Y-108215181D02*
X218131544Y-108215181D01*
X218226782Y-108262800D01*
X218274401Y-108310419D01*
X218322020Y-108405657D01*
X218369639Y-108596133D01*
X218369639Y-108834229D01*
X218322020Y-109024705D01*
X218274401Y-109119943D01*
X218226782Y-109167562D01*
X218131544Y-109215181D01*
X218036305Y-109215181D01*
X217941067Y-109167562D01*
X217893448Y-109119943D01*
X217845829Y-109024705D01*
X217798210Y-108834229D01*
X217798210Y-108596133D01*
X217845829Y-108405657D01*
X217893448Y-108310419D01*
X217941067Y-108262800D01*
X218036305Y-108215181D01*
X218798210Y-109119943D02*
X218845829Y-109167562D01*
X218798210Y-109215181D01*
X218750591Y-109167562D01*
X218798210Y-109119943D01*
X218798210Y-109215181D01*
X219464876Y-108215181D02*
X219560115Y-108215181D01*
X219655353Y-108262800D01*
X219702972Y-108310419D01*
X219750591Y-108405657D01*
X219798210Y-108596133D01*
X219798210Y-108834229D01*
X219750591Y-109024705D01*
X219702972Y-109119943D01*
X219655353Y-109167562D01*
X219560115Y-109215181D01*
X219464876Y-109215181D01*
X219369638Y-109167562D01*
X219322019Y-109119943D01*
X219274400Y-109024705D01*
X219226781Y-108834229D01*
X219226781Y-108596133D01*
X219274400Y-108405657D01*
X219322019Y-108310419D01*
X219369638Y-108262800D01*
X219464876Y-108215181D01*
D13*
X184708800Y-99644200D02*
X185470800Y-99644200D01*
X185470800Y-99644200D02*
X185470800Y-101168200D01*
X185470800Y-101168200D02*
X184708800Y-101168200D01*
X195884800Y-98120200D02*
X195884800Y-102692200D01*
X195884800Y-102692200D02*
X184708800Y-102692200D01*
X184708800Y-102692200D02*
X184708800Y-98120200D01*
X184708800Y-98120200D02*
X195884800Y-98120200D01*
X168275000Y-77851000D02*
X168275000Y-71247000D01*
X168275000Y-71247000D02*
X138303000Y-71247000D01*
X138303000Y-71247000D02*
X138303000Y-77851000D01*
X138303000Y-77851000D02*
X168275000Y-77851000D01*
X217151000Y-80821300D02*
X216901000Y-80821300D01*
X217151000Y-88571300D02*
X216806000Y-88571300D01*
X198901000Y-88571300D02*
X199246000Y-88571300D01*
X198901000Y-80821300D02*
X199246000Y-80821300D01*
X217151000Y-80821300D02*
X217151000Y-88571300D01*
X198901000Y-80821300D02*
X198901000Y-88571300D01*
X216901000Y-80821300D02*
X216901000Y-78996300D01*
D14*
X158820000Y-88643000D02*
X152220000Y-88643000D01*
X167820000Y-88643000D02*
X161220000Y-88643000D01*
X167820000Y-88643000D02*
X167820000Y-108443000D01*
X167820000Y-108443000D02*
X152220000Y-108443000D01*
X152220000Y-108443000D02*
X152220000Y-88643000D01*
X155820000Y-104193000D02*
X158270000Y-104193000D01*
X164220000Y-104193000D02*
X161720000Y-104193000D01*
X153970000Y-93593000D02*
X153970000Y-96093000D01*
X159970000Y-92693000D02*
X159970000Y-91893000D01*
X165970000Y-96093000D02*
X165970000Y-93593000D01*
X159970000Y-99493000D02*
X159970000Y-100993000D01*
X159970000Y-100993000D02*
X162470000Y-105593000D01*
X156370000Y-99493000D02*
X156370000Y-92693000D01*
X159970000Y-99493000D02*
X156370000Y-99493000D01*
X159970000Y-92693000D02*
X156370000Y-92693000D01*
X165970000Y-96093000D02*
X161770000Y-96093000D01*
X158170000Y-96093000D02*
X153970000Y-96093000D01*
X158170000Y-98093000D02*
X161770000Y-94093000D01*
X158170000Y-94093000D02*
X161770000Y-94093000D01*
X161770000Y-94093000D02*
X161770000Y-98093000D01*
X161770000Y-98093000D02*
X158170000Y-98093000D01*
X158170000Y-98093000D02*
X158170000Y-94093000D01*
X161192000Y-83440000D02*
X161192000Y-86740000D01*
X161192000Y-86740000D02*
X166592000Y-86740000D01*
X161192000Y-83440000D02*
X166592000Y-83440000D01*
X160375600Y-112115600D02*
X159105600Y-112115600D01*
X160375600Y-113385600D02*
X160375600Y-112115600D01*
X164455600Y-126865600D02*
X146135600Y-126865600D01*
X164455600Y-117515600D02*
X164455600Y-126865600D01*
X157545600Y-117515600D02*
X157545600Y-126865600D01*
X146135600Y-117515600D02*
X146135600Y-126865600D01*
X146135600Y-117515600D02*
X164455600Y-117515600D01*
X153045600Y-117515600D02*
X153045600Y-126865600D01*
X141151600Y-108714600D02*
X132351600Y-108714600D01*
X132351600Y-108714600D02*
X132351600Y-99514600D01*
X147051600Y-106014600D02*
X147051600Y-108714600D01*
X147051600Y-108714600D02*
X145151600Y-108714600D01*
X132351600Y-99514600D02*
X147051600Y-99514600D01*
X147051600Y-99514600D02*
X147051600Y-102114600D01*
X185531000Y-105075800D02*
X183531000Y-105075800D01*
X183531000Y-107115800D02*
X185531000Y-107115800D01*
X182012400Y-99203000D02*
X182012400Y-101203000D01*
X184052400Y-101203000D02*
X184052400Y-99203000D01*
X190712600Y-105101200D02*
X188712600Y-105101200D01*
X188712600Y-107141200D02*
X190712600Y-107141200D01*
X227562600Y-95691200D02*
X227562600Y-93691200D01*
X225522600Y-93691200D02*
X225522600Y-95691200D01*
X193538800Y-90412880D02*
X196198800Y-90412880D01*
X193538800Y-82732880D02*
X193538800Y-90412880D01*
X196198800Y-82732880D02*
X196198800Y-90412880D01*
X193538800Y-82732880D02*
X196198800Y-82732880D01*
X193538800Y-81462880D02*
X193538800Y-80132880D01*
X193538800Y-80132880D02*
X194868800Y-80132880D01*
X141202400Y-96649600D02*
X132402400Y-96649600D01*
X132402400Y-96649600D02*
X132402400Y-87449600D01*
X147102400Y-93949600D02*
X147102400Y-96649600D01*
X147102400Y-96649600D02*
X145202400Y-96649600D01*
X132402400Y-87449600D02*
X147102400Y-87449600D01*
X147102400Y-87449600D02*
X147102400Y-90049600D01*
X195630800Y-111404400D02*
X194360800Y-111404400D01*
X195630800Y-112674400D02*
X195630800Y-111404400D01*
X199710800Y-126154400D02*
X178850800Y-126154400D01*
X199710800Y-116804400D02*
X199710800Y-126154400D01*
X178850800Y-116804400D02*
X178850800Y-126154400D01*
X178850800Y-116804400D02*
X199710800Y-116804400D01*
X191530800Y-116804400D02*
X191530800Y-126154400D01*
X187030800Y-116804400D02*
X187030800Y-126154400D01*
X222300800Y-111861600D02*
X221030800Y-111861600D01*
X222300800Y-113131600D02*
X222300800Y-111861600D01*
X226380800Y-126611600D02*
X205520800Y-126611600D01*
X226380800Y-117261600D02*
X226380800Y-126611600D01*
X205520800Y-117261600D02*
X205520800Y-126611600D01*
X205520800Y-117261600D02*
X226380800Y-117261600D01*
X218200800Y-117261600D02*
X218200800Y-126611600D01*
X213700800Y-117261600D02*
X213700800Y-126611600D01*
X169801000Y-80868400D02*
X169801000Y-81798400D01*
X169801000Y-84028400D02*
X169801000Y-83098400D01*
X169801000Y-84028400D02*
X171961000Y-84028400D01*
X169801000Y-80868400D02*
X171261000Y-80868400D01*
X151514300Y-83016700D02*
X153514300Y-83016700D01*
X153514300Y-85156700D02*
X151514300Y-85156700D01*
X151438100Y-78825700D02*
X153438100Y-78825700D01*
X153438100Y-80965700D02*
X151438100Y-80965700D01*
X169465600Y-88884000D02*
X169465600Y-86884000D01*
X171605600Y-86884000D02*
X171605600Y-88884000D01*
D13*
X222978800Y-101693900D02*
X222978800Y-101668900D01*
X218828800Y-101693900D02*
X218828800Y-101578900D01*
X218828800Y-92793900D02*
X218828800Y-92908900D01*
X222978800Y-92793900D02*
X222978800Y-92908900D01*
X222978800Y-101693900D02*
X218828800Y-101693900D01*
X222978800Y-92793900D02*
X218828800Y-92793900D01*
X222978800Y-101668900D02*
X224353800Y-101668900D01*
D14*
X142859400Y-83052100D02*
X142859400Y-85172100D01*
X146059400Y-83052100D02*
X142859400Y-83052100D01*
X142859400Y-85172100D02*
X146059400Y-85172100D01*
X142846700Y-78886500D02*
X142846700Y-81006500D01*
X146046700Y-78886500D02*
X142846700Y-78886500D01*
X142846700Y-81006500D02*
X146046700Y-81006500D01*
X200847000Y-94573400D02*
X200847000Y-91913400D01*
X198247000Y-94573400D02*
X200847000Y-94573400D01*
X198247000Y-91913400D02*
X200847000Y-91913400D01*
X198247000Y-94573400D02*
X198247000Y-91913400D01*
X196977000Y-94573400D02*
X195647000Y-94573400D01*
X195647000Y-94573400D02*
X195647000Y-93243400D01*
D15*
G36*
X209926541Y-106022837D02*
X209957947Y-106042125D01*
X209985587Y-106068186D01*
X210006277Y-106098017D01*
X210013043Y-106112256D01*
X210017118Y-106125589D01*
X210019151Y-106141436D01*
X210019789Y-106163215D01*
X210019806Y-106169460D01*
X210019403Y-106193064D01*
X210017764Y-106209920D01*
X210014245Y-106223425D01*
X210008203Y-106236973D01*
X210006322Y-106240580D01*
X209982715Y-106274439D01*
X209951764Y-106301691D01*
X209925920Y-106316431D01*
X209916008Y-106320838D01*
X209906847Y-106324113D01*
X209896751Y-106326425D01*
X209884033Y-106327942D01*
X209867004Y-106328834D01*
X209843979Y-106329268D01*
X209813270Y-106329413D01*
X209795803Y-106329430D01*
X209762595Y-106329700D01*
X209731048Y-106330423D01*
X209703257Y-106331515D01*
X209681316Y-106332892D01*
X209667320Y-106334472D01*
X209666807Y-106334566D01*
X209627166Y-106346662D01*
X209593629Y-106366846D01*
X209565954Y-106395297D01*
X209549010Y-106421961D01*
X209542845Y-106435716D01*
X209539260Y-106450413D01*
X209537646Y-106469462D01*
X209537360Y-106486960D01*
X209537736Y-106509577D01*
X209539458Y-106525702D01*
X209543300Y-106538986D01*
X209550038Y-106553080D01*
X209552267Y-106557159D01*
X209573133Y-106587151D01*
X209599712Y-106610821D01*
X209631048Y-106628686D01*
X209659220Y-106641900D01*
X210027520Y-106644440D01*
X210097975Y-106644940D01*
X210158993Y-106645416D01*
X210211295Y-106645889D01*
X210255603Y-106646380D01*
X210292641Y-106646911D01*
X210323129Y-106647502D01*
X210347790Y-106648177D01*
X210367346Y-106648956D01*
X210382520Y-106649860D01*
X210394032Y-106650911D01*
X210402607Y-106652131D01*
X210408965Y-106653541D01*
X210413829Y-106655162D01*
X210415748Y-106655977D01*
X210449932Y-106676839D01*
X210477948Y-106705258D01*
X210494496Y-106731637D01*
X210502730Y-106749525D01*
X210507448Y-106764829D01*
X210509567Y-106781828D01*
X210510008Y-106804001D01*
X210508827Y-106831614D01*
X210505077Y-106852757D01*
X210499578Y-106867960D01*
X210483499Y-106894262D01*
X210460497Y-106919646D01*
X210433577Y-106941028D01*
X210421220Y-106948397D01*
X210395820Y-106961940D01*
X209161380Y-106967020D01*
X209132620Y-106981145D01*
X209099406Y-107002342D01*
X209073763Y-107029777D01*
X209055429Y-107063863D01*
X209044143Y-107105017D01*
X209041336Y-107125530D01*
X209033676Y-107168097D01*
X209019744Y-107203181D01*
X208998928Y-107231732D01*
X208970619Y-107254702D01*
X208951757Y-107265240D01*
X208917756Y-107281980D01*
X207993088Y-107282852D01*
X207873763Y-107282950D01*
X207764229Y-107283009D01*
X207664116Y-107283027D01*
X207573054Y-107283002D01*
X207490674Y-107282931D01*
X207416606Y-107282813D01*
X207350481Y-107282645D01*
X207291930Y-107282425D01*
X207240582Y-107282151D01*
X207196069Y-107281821D01*
X207158020Y-107281433D01*
X207126067Y-107280984D01*
X207099839Y-107280474D01*
X207078968Y-107279898D01*
X207063084Y-107279256D01*
X207051816Y-107278546D01*
X207044797Y-107277764D01*
X207043020Y-107277413D01*
X207011196Y-107266928D01*
X206985083Y-107251850D01*
X206964220Y-107233660D01*
X206944847Y-107212016D01*
X206932046Y-107191165D01*
X206924650Y-107168080D01*
X206921493Y-107139734D01*
X206921138Y-107121960D01*
X206921487Y-107097905D01*
X206922915Y-107080789D01*
X206926010Y-107067401D01*
X206931360Y-107054529D01*
X206934699Y-107047977D01*
X206955436Y-107018113D01*
X206983113Y-106992038D01*
X207014458Y-106972797D01*
X207037940Y-106961940D01*
X208597500Y-106956860D01*
X208621117Y-106945942D01*
X208654115Y-106925448D01*
X208679871Y-106897845D01*
X208698354Y-106863180D01*
X208709534Y-106821503D01*
X208711739Y-106805049D01*
X208715074Y-106781685D01*
X208719844Y-106759168D01*
X208725123Y-106741734D01*
X208726132Y-106739288D01*
X208743898Y-106709713D01*
X208768696Y-106682927D01*
X208797410Y-106662229D01*
X208800377Y-106660621D01*
X208808575Y-106656450D01*
X208816267Y-106653211D01*
X208824870Y-106650753D01*
X208835798Y-106648928D01*
X208850468Y-106647585D01*
X208870296Y-106646577D01*
X208896698Y-106645752D01*
X208931090Y-106644962D01*
X208953100Y-106644506D01*
X208992400Y-106643666D01*
X209022989Y-106642858D01*
X209046313Y-106641935D01*
X209063818Y-106640749D01*
X209076951Y-106639151D01*
X209087157Y-106636992D01*
X209095885Y-106634126D01*
X209104579Y-106630403D01*
X209108479Y-106628591D01*
X209143304Y-106607646D01*
X209169510Y-106581373D01*
X209187307Y-106549461D01*
X209196907Y-106511597D01*
X209198439Y-106495768D01*
X209199304Y-106474634D01*
X209198319Y-106459368D01*
X209194673Y-106445732D01*
X209187558Y-106429490D01*
X209184644Y-106423511D01*
X209162973Y-106389914D01*
X209134332Y-106363453D01*
X209098124Y-106343578D01*
X209096891Y-106343069D01*
X209091588Y-106340968D01*
X209086156Y-106339145D01*
X209079855Y-106337576D01*
X209071944Y-106336235D01*
X209061684Y-106335096D01*
X209048334Y-106334135D01*
X209031155Y-106333324D01*
X209009405Y-106332640D01*
X208982346Y-106332056D01*
X208949236Y-106331547D01*
X208909335Y-106331089D01*
X208861904Y-106330654D01*
X208806202Y-106330218D01*
X208741489Y-106329755D01*
X208701640Y-106329480D01*
X208333340Y-106326940D01*
X208306320Y-106311972D01*
X208274829Y-106289795D01*
X208249892Y-106261175D01*
X208238135Y-106241708D01*
X208232458Y-106229331D01*
X208228986Y-106216217D01*
X208227224Y-106199366D01*
X208226681Y-106175775D01*
X208226674Y-106172000D01*
X208226956Y-106148428D01*
X208228244Y-106131804D01*
X208231173Y-106118923D01*
X208236382Y-106106580D01*
X208241627Y-106096720D01*
X208262493Y-106066728D01*
X208289072Y-106043058D01*
X208320408Y-106025193D01*
X208348580Y-106011980D01*
X209903060Y-106011980D01*
X209926541Y-106022837D01*
X209926541Y-106022837D01*
G37*
X209926541Y-106022837D02*
X209957947Y-106042125D01*
X209985587Y-106068186D01*
X210006277Y-106098017D01*
X210013043Y-106112256D01*
X210017118Y-106125589D01*
X210019151Y-106141436D01*
X210019789Y-106163215D01*
X210019806Y-106169460D01*
X210019403Y-106193064D01*
X210017764Y-106209920D01*
X210014245Y-106223425D01*
X210008203Y-106236973D01*
X210006322Y-106240580D01*
X209982715Y-106274439D01*
X209951764Y-106301691D01*
X209925920Y-106316431D01*
X209916008Y-106320838D01*
X209906847Y-106324113D01*
X209896751Y-106326425D01*
X209884033Y-106327942D01*
X209867004Y-106328834D01*
X209843979Y-106329268D01*
X209813270Y-106329413D01*
X209795803Y-106329430D01*
X209762595Y-106329700D01*
X209731048Y-106330423D01*
X209703257Y-106331515D01*
X209681316Y-106332892D01*
X209667320Y-106334472D01*
X209666807Y-106334566D01*
X209627166Y-106346662D01*
X209593629Y-106366846D01*
X209565954Y-106395297D01*
X209549010Y-106421961D01*
X209542845Y-106435716D01*
X209539260Y-106450413D01*
X209537646Y-106469462D01*
X209537360Y-106486960D01*
X209537736Y-106509577D01*
X209539458Y-106525702D01*
X209543300Y-106538986D01*
X209550038Y-106553080D01*
X209552267Y-106557159D01*
X209573133Y-106587151D01*
X209599712Y-106610821D01*
X209631048Y-106628686D01*
X209659220Y-106641900D01*
X210027520Y-106644440D01*
X210097975Y-106644940D01*
X210158993Y-106645416D01*
X210211295Y-106645889D01*
X210255603Y-106646380D01*
X210292641Y-106646911D01*
X210323129Y-106647502D01*
X210347790Y-106648177D01*
X210367346Y-106648956D01*
X210382520Y-106649860D01*
X210394032Y-106650911D01*
X210402607Y-106652131D01*
X210408965Y-106653541D01*
X210413829Y-106655162D01*
X210415748Y-106655977D01*
X210449932Y-106676839D01*
X210477948Y-106705258D01*
X210494496Y-106731637D01*
X210502730Y-106749525D01*
X210507448Y-106764829D01*
X210509567Y-106781828D01*
X210510008Y-106804001D01*
X210508827Y-106831614D01*
X210505077Y-106852757D01*
X210499578Y-106867960D01*
X210483499Y-106894262D01*
X210460497Y-106919646D01*
X210433577Y-106941028D01*
X210421220Y-106948397D01*
X210395820Y-106961940D01*
X209161380Y-106967020D01*
X209132620Y-106981145D01*
X209099406Y-107002342D01*
X209073763Y-107029777D01*
X209055429Y-107063863D01*
X209044143Y-107105017D01*
X209041336Y-107125530D01*
X209033676Y-107168097D01*
X209019744Y-107203181D01*
X208998928Y-107231732D01*
X208970619Y-107254702D01*
X208951757Y-107265240D01*
X208917756Y-107281980D01*
X207993088Y-107282852D01*
X207873763Y-107282950D01*
X207764229Y-107283009D01*
X207664116Y-107283027D01*
X207573054Y-107283002D01*
X207490674Y-107282931D01*
X207416606Y-107282813D01*
X207350481Y-107282645D01*
X207291930Y-107282425D01*
X207240582Y-107282151D01*
X207196069Y-107281821D01*
X207158020Y-107281433D01*
X207126067Y-107280984D01*
X207099839Y-107280474D01*
X207078968Y-107279898D01*
X207063084Y-107279256D01*
X207051816Y-107278546D01*
X207044797Y-107277764D01*
X207043020Y-107277413D01*
X207011196Y-107266928D01*
X206985083Y-107251850D01*
X206964220Y-107233660D01*
X206944847Y-107212016D01*
X206932046Y-107191165D01*
X206924650Y-107168080D01*
X206921493Y-107139734D01*
X206921138Y-107121960D01*
X206921487Y-107097905D01*
X206922915Y-107080789D01*
X206926010Y-107067401D01*
X206931360Y-107054529D01*
X206934699Y-107047977D01*
X206955436Y-107018113D01*
X206983113Y-106992038D01*
X207014458Y-106972797D01*
X207037940Y-106961940D01*
X208597500Y-106956860D01*
X208621117Y-106945942D01*
X208654115Y-106925448D01*
X208679871Y-106897845D01*
X208698354Y-106863180D01*
X208709534Y-106821503D01*
X208711739Y-106805049D01*
X208715074Y-106781685D01*
X208719844Y-106759168D01*
X208725123Y-106741734D01*
X208726132Y-106739288D01*
X208743898Y-106709713D01*
X208768696Y-106682927D01*
X208797410Y-106662229D01*
X208800377Y-106660621D01*
X208808575Y-106656450D01*
X208816267Y-106653211D01*
X208824870Y-106650753D01*
X208835798Y-106648928D01*
X208850468Y-106647585D01*
X208870296Y-106646577D01*
X208896698Y-106645752D01*
X208931090Y-106644962D01*
X208953100Y-106644506D01*
X208992400Y-106643666D01*
X209022989Y-106642858D01*
X209046313Y-106641935D01*
X209063818Y-106640749D01*
X209076951Y-106639151D01*
X209087157Y-106636992D01*
X209095885Y-106634126D01*
X209104579Y-106630403D01*
X209108479Y-106628591D01*
X209143304Y-106607646D01*
X209169510Y-106581373D01*
X209187307Y-106549461D01*
X209196907Y-106511597D01*
X209198439Y-106495768D01*
X209199304Y-106474634D01*
X209198319Y-106459368D01*
X209194673Y-106445732D01*
X209187558Y-106429490D01*
X209184644Y-106423511D01*
X209162973Y-106389914D01*
X209134332Y-106363453D01*
X209098124Y-106343578D01*
X209096891Y-106343069D01*
X209091588Y-106340968D01*
X209086156Y-106339145D01*
X209079855Y-106337576D01*
X209071944Y-106336235D01*
X209061684Y-106335096D01*
X209048334Y-106334135D01*
X209031155Y-106333324D01*
X209009405Y-106332640D01*
X208982346Y-106332056D01*
X208949236Y-106331547D01*
X208909335Y-106331089D01*
X208861904Y-106330654D01*
X208806202Y-106330218D01*
X208741489Y-106329755D01*
X208701640Y-106329480D01*
X208333340Y-106326940D01*
X208306320Y-106311972D01*
X208274829Y-106289795D01*
X208249892Y-106261175D01*
X208238135Y-106241708D01*
X208232458Y-106229331D01*
X208228986Y-106216217D01*
X208227224Y-106199366D01*
X208226681Y-106175775D01*
X208226674Y-106172000D01*
X208226956Y-106148428D01*
X208228244Y-106131804D01*
X208231173Y-106118923D01*
X208236382Y-106106580D01*
X208241627Y-106096720D01*
X208262493Y-106066728D01*
X208289072Y-106043058D01*
X208320408Y-106025193D01*
X208348580Y-106011980D01*
X209903060Y-106011980D01*
X209926541Y-106022837D01*
G36*
X212324331Y-105532576D02*
X212414436Y-105534357D01*
X212495431Y-105537516D01*
X212567815Y-105542206D01*
X212632083Y-105548583D01*
X212688733Y-105556802D01*
X212738263Y-105567018D01*
X212781170Y-105579385D01*
X212817950Y-105594059D01*
X212849101Y-105611195D01*
X212875120Y-105630948D01*
X212896504Y-105653472D01*
X212913751Y-105678923D01*
X212927358Y-105707455D01*
X212937822Y-105739224D01*
X212941850Y-105755560D01*
X212945668Y-105779162D01*
X212948473Y-105809820D01*
X212950266Y-105845254D01*
X212951045Y-105883186D01*
X212950811Y-105921334D01*
X212949563Y-105957421D01*
X212947302Y-105989166D01*
X212944026Y-106014290D01*
X212941878Y-106024145D01*
X212929101Y-106062421D01*
X212912789Y-106092966D01*
X212891430Y-106117359D01*
X212863513Y-106137181D01*
X212827528Y-106154010D01*
X212812253Y-106159659D01*
X212780126Y-106170920D01*
X212813614Y-106182065D01*
X212850129Y-106197125D01*
X212880522Y-106216370D01*
X212905122Y-106240515D01*
X212924256Y-106270275D01*
X212938250Y-106306365D01*
X212947431Y-106349499D01*
X212952126Y-106400394D01*
X212952662Y-106459764D01*
X212951855Y-106484420D01*
X212947348Y-106542323D01*
X212938653Y-106592614D01*
X212925145Y-106635892D01*
X212906200Y-106672756D01*
X212881192Y-106703807D01*
X212849498Y-106729644D01*
X212810491Y-106750868D01*
X212763547Y-106768077D01*
X212708041Y-106781873D01*
X212643349Y-106792854D01*
X212628480Y-106794866D01*
X212612693Y-106796693D01*
X212594860Y-106798266D01*
X212574102Y-106799609D01*
X212549537Y-106800746D01*
X212520283Y-106801698D01*
X212485461Y-106802489D01*
X212444190Y-106803143D01*
X212395588Y-106803682D01*
X212338774Y-106804129D01*
X212272868Y-106804507D01*
X212257640Y-106804581D01*
X212200756Y-106804770D01*
X212145400Y-106804806D01*
X212092670Y-106804698D01*
X212043665Y-106804453D01*
X211999485Y-106804082D01*
X211961230Y-106803593D01*
X211929997Y-106802994D01*
X211906888Y-106802296D01*
X211894420Y-106801628D01*
X211832280Y-106795940D01*
X211778902Y-106789230D01*
X211732917Y-106781216D01*
X211692954Y-106771614D01*
X211657642Y-106760144D01*
X211625612Y-106746522D01*
X211624442Y-106745958D01*
X211582657Y-106721904D01*
X211548578Y-106693515D01*
X211521776Y-106660018D01*
X211501820Y-106620640D01*
X211488280Y-106574608D01*
X211480726Y-106521150D01*
X211478870Y-106484420D01*
X211479327Y-106455038D01*
X211482840Y-106433091D01*
X211490368Y-106416071D01*
X211502871Y-106401470D01*
X211514276Y-106391972D01*
X211532923Y-106377740D01*
X211654836Y-106376207D01*
X211699712Y-106375857D01*
X211735070Y-106376074D01*
X211761538Y-106376879D01*
X211779743Y-106378291D01*
X211790314Y-106380332D01*
X211791266Y-106380688D01*
X211809602Y-106393693D01*
X211823394Y-106415282D01*
X211830867Y-106438465D01*
X211840448Y-106468960D01*
X211854766Y-106492336D01*
X211875502Y-106510470D01*
X211904335Y-106525239D01*
X211910850Y-106527813D01*
X211920917Y-106531325D01*
X211931519Y-106534114D01*
X211944111Y-106536319D01*
X211960148Y-106538076D01*
X211981082Y-106539523D01*
X212008368Y-106540798D01*
X212043461Y-106542038D01*
X212069680Y-106542848D01*
X212117810Y-106543913D01*
X212168100Y-106544352D01*
X212219203Y-106544206D01*
X212269774Y-106543517D01*
X212318467Y-106542327D01*
X212363938Y-106540677D01*
X212404840Y-106538610D01*
X212439829Y-106536167D01*
X212467559Y-106533390D01*
X212486684Y-106530320D01*
X212488780Y-106529824D01*
X212523167Y-106517985D01*
X212548788Y-106501570D01*
X212566349Y-106479680D01*
X212576555Y-106451413D01*
X212580114Y-106415870D01*
X212580132Y-106413300D01*
X212579621Y-106390587D01*
X212577495Y-106374386D01*
X212573036Y-106361086D01*
X212567713Y-106350819D01*
X212550659Y-106328745D01*
X212527889Y-106313352D01*
X212498275Y-106303584D01*
X212487262Y-106302158D01*
X212467503Y-106300662D01*
X212440413Y-106299161D01*
X212407404Y-106297720D01*
X212369890Y-106296402D01*
X212329286Y-106295273D01*
X212303360Y-106294700D01*
X212254527Y-106293697D01*
X212214753Y-106292696D01*
X212182938Y-106291494D01*
X212157983Y-106289890D01*
X212138789Y-106287682D01*
X212124255Y-106284671D01*
X212113284Y-106280653D01*
X212104774Y-106275428D01*
X212097628Y-106268794D01*
X212090745Y-106260550D01*
X212086452Y-106254966D01*
X212079798Y-106245404D01*
X212075476Y-106235968D01*
X212072867Y-106223987D01*
X212071353Y-106206795D01*
X212070461Y-106185973D01*
X212070028Y-106162176D01*
X212070329Y-106140252D01*
X212071290Y-106123490D01*
X212072018Y-106117948D01*
X212079195Y-106100149D01*
X212092597Y-106081664D01*
X212109218Y-106065878D01*
X212126056Y-106056177D01*
X212127165Y-106055813D01*
X212136218Y-106054481D01*
X212154022Y-106053123D01*
X212179168Y-106051801D01*
X212210248Y-106050575D01*
X212245853Y-106049506D01*
X212284573Y-106048654D01*
X212298280Y-106048424D01*
X212353524Y-106047379D01*
X212399619Y-106045995D01*
X212437571Y-106044110D01*
X212468388Y-106041558D01*
X212493080Y-106038178D01*
X212512652Y-106033804D01*
X212528114Y-106028273D01*
X212540474Y-106021423D01*
X212550740Y-106013088D01*
X212557106Y-106006412D01*
X212572407Y-105981737D01*
X212581029Y-105951460D01*
X212582583Y-105917959D01*
X212577066Y-105884996D01*
X212565994Y-105861989D01*
X212547277Y-105840754D01*
X212523414Y-105823632D01*
X212501440Y-105814205D01*
X212483182Y-105810348D01*
X212455778Y-105806850D01*
X212420235Y-105803765D01*
X212377563Y-105801146D01*
X212328771Y-105799048D01*
X212274866Y-105797524D01*
X212216858Y-105796629D01*
X212168740Y-105796402D01*
X212105737Y-105796766D01*
X212052173Y-105797907D01*
X212007349Y-105799878D01*
X211970570Y-105802732D01*
X211941139Y-105806520D01*
X211918359Y-105811297D01*
X211902804Y-105816555D01*
X211876029Y-105832389D01*
X211854141Y-105853803D01*
X211839342Y-105878427D01*
X211835945Y-105888474D01*
X211824319Y-105921733D01*
X211809307Y-105945811D01*
X211798791Y-105955688D01*
X211793797Y-105959003D01*
X211788066Y-105961542D01*
X211780261Y-105963410D01*
X211769045Y-105964708D01*
X211753081Y-105965539D01*
X211731033Y-105966006D01*
X211701562Y-105966212D01*
X211663333Y-105966259D01*
X211661254Y-105966260D01*
X211622771Y-105966238D01*
X211593075Y-105966092D01*
X211570791Y-105965699D01*
X211554547Y-105964936D01*
X211542968Y-105963680D01*
X211534682Y-105961808D01*
X211528314Y-105959197D01*
X211522492Y-105955725D01*
X211519256Y-105953560D01*
X211502908Y-105938208D01*
X211488667Y-105916894D01*
X211487275Y-105914166D01*
X211481617Y-105902316D01*
X211478079Y-105892594D01*
X211476441Y-105882446D01*
X211476485Y-105869317D01*
X211477989Y-105850654D01*
X211480063Y-105830346D01*
X211485693Y-105785383D01*
X211492672Y-105748735D01*
X211501692Y-105718579D01*
X211513446Y-105693089D01*
X211528626Y-105670444D01*
X211547924Y-105648819D01*
X211549627Y-105647117D01*
X211571797Y-105627488D01*
X211596875Y-105610034D01*
X211625470Y-105594652D01*
X211658187Y-105581239D01*
X211695636Y-105569692D01*
X211738422Y-105559906D01*
X211787155Y-105551778D01*
X211842441Y-105545204D01*
X211904888Y-105540081D01*
X211975103Y-105536305D01*
X212053695Y-105533773D01*
X212141269Y-105532381D01*
X212224620Y-105532017D01*
X212324331Y-105532576D01*
X212324331Y-105532576D01*
G37*
X212324331Y-105532576D02*
X212414436Y-105534357D01*
X212495431Y-105537516D01*
X212567815Y-105542206D01*
X212632083Y-105548583D01*
X212688733Y-105556802D01*
X212738263Y-105567018D01*
X212781170Y-105579385D01*
X212817950Y-105594059D01*
X212849101Y-105611195D01*
X212875120Y-105630948D01*
X212896504Y-105653472D01*
X212913751Y-105678923D01*
X212927358Y-105707455D01*
X212937822Y-105739224D01*
X212941850Y-105755560D01*
X212945668Y-105779162D01*
X212948473Y-105809820D01*
X212950266Y-105845254D01*
X212951045Y-105883186D01*
X212950811Y-105921334D01*
X212949563Y-105957421D01*
X212947302Y-105989166D01*
X212944026Y-106014290D01*
X212941878Y-106024145D01*
X212929101Y-106062421D01*
X212912789Y-106092966D01*
X212891430Y-106117359D01*
X212863513Y-106137181D01*
X212827528Y-106154010D01*
X212812253Y-106159659D01*
X212780126Y-106170920D01*
X212813614Y-106182065D01*
X212850129Y-106197125D01*
X212880522Y-106216370D01*
X212905122Y-106240515D01*
X212924256Y-106270275D01*
X212938250Y-106306365D01*
X212947431Y-106349499D01*
X212952126Y-106400394D01*
X212952662Y-106459764D01*
X212951855Y-106484420D01*
X212947348Y-106542323D01*
X212938653Y-106592614D01*
X212925145Y-106635892D01*
X212906200Y-106672756D01*
X212881192Y-106703807D01*
X212849498Y-106729644D01*
X212810491Y-106750868D01*
X212763547Y-106768077D01*
X212708041Y-106781873D01*
X212643349Y-106792854D01*
X212628480Y-106794866D01*
X212612693Y-106796693D01*
X212594860Y-106798266D01*
X212574102Y-106799609D01*
X212549537Y-106800746D01*
X212520283Y-106801698D01*
X212485461Y-106802489D01*
X212444190Y-106803143D01*
X212395588Y-106803682D01*
X212338774Y-106804129D01*
X212272868Y-106804507D01*
X212257640Y-106804581D01*
X212200756Y-106804770D01*
X212145400Y-106804806D01*
X212092670Y-106804698D01*
X212043665Y-106804453D01*
X211999485Y-106804082D01*
X211961230Y-106803593D01*
X211929997Y-106802994D01*
X211906888Y-106802296D01*
X211894420Y-106801628D01*
X211832280Y-106795940D01*
X211778902Y-106789230D01*
X211732917Y-106781216D01*
X211692954Y-106771614D01*
X211657642Y-106760144D01*
X211625612Y-106746522D01*
X211624442Y-106745958D01*
X211582657Y-106721904D01*
X211548578Y-106693515D01*
X211521776Y-106660018D01*
X211501820Y-106620640D01*
X211488280Y-106574608D01*
X211480726Y-106521150D01*
X211478870Y-106484420D01*
X211479327Y-106455038D01*
X211482840Y-106433091D01*
X211490368Y-106416071D01*
X211502871Y-106401470D01*
X211514276Y-106391972D01*
X211532923Y-106377740D01*
X211654836Y-106376207D01*
X211699712Y-106375857D01*
X211735070Y-106376074D01*
X211761538Y-106376879D01*
X211779743Y-106378291D01*
X211790314Y-106380332D01*
X211791266Y-106380688D01*
X211809602Y-106393693D01*
X211823394Y-106415282D01*
X211830867Y-106438465D01*
X211840448Y-106468960D01*
X211854766Y-106492336D01*
X211875502Y-106510470D01*
X211904335Y-106525239D01*
X211910850Y-106527813D01*
X211920917Y-106531325D01*
X211931519Y-106534114D01*
X211944111Y-106536319D01*
X211960148Y-106538076D01*
X211981082Y-106539523D01*
X212008368Y-106540798D01*
X212043461Y-106542038D01*
X212069680Y-106542848D01*
X212117810Y-106543913D01*
X212168100Y-106544352D01*
X212219203Y-106544206D01*
X212269774Y-106543517D01*
X212318467Y-106542327D01*
X212363938Y-106540677D01*
X212404840Y-106538610D01*
X212439829Y-106536167D01*
X212467559Y-106533390D01*
X212486684Y-106530320D01*
X212488780Y-106529824D01*
X212523167Y-106517985D01*
X212548788Y-106501570D01*
X212566349Y-106479680D01*
X212576555Y-106451413D01*
X212580114Y-106415870D01*
X212580132Y-106413300D01*
X212579621Y-106390587D01*
X212577495Y-106374386D01*
X212573036Y-106361086D01*
X212567713Y-106350819D01*
X212550659Y-106328745D01*
X212527889Y-106313352D01*
X212498275Y-106303584D01*
X212487262Y-106302158D01*
X212467503Y-106300662D01*
X212440413Y-106299161D01*
X212407404Y-106297720D01*
X212369890Y-106296402D01*
X212329286Y-106295273D01*
X212303360Y-106294700D01*
X212254527Y-106293697D01*
X212214753Y-106292696D01*
X212182938Y-106291494D01*
X212157983Y-106289890D01*
X212138789Y-106287682D01*
X212124255Y-106284671D01*
X212113284Y-106280653D01*
X212104774Y-106275428D01*
X212097628Y-106268794D01*
X212090745Y-106260550D01*
X212086452Y-106254966D01*
X212079798Y-106245404D01*
X212075476Y-106235968D01*
X212072867Y-106223987D01*
X212071353Y-106206795D01*
X212070461Y-106185973D01*
X212070028Y-106162176D01*
X212070329Y-106140252D01*
X212071290Y-106123490D01*
X212072018Y-106117948D01*
X212079195Y-106100149D01*
X212092597Y-106081664D01*
X212109218Y-106065878D01*
X212126056Y-106056177D01*
X212127165Y-106055813D01*
X212136218Y-106054481D01*
X212154022Y-106053123D01*
X212179168Y-106051801D01*
X212210248Y-106050575D01*
X212245853Y-106049506D01*
X212284573Y-106048654D01*
X212298280Y-106048424D01*
X212353524Y-106047379D01*
X212399619Y-106045995D01*
X212437571Y-106044110D01*
X212468388Y-106041558D01*
X212493080Y-106038178D01*
X212512652Y-106033804D01*
X212528114Y-106028273D01*
X212540474Y-106021423D01*
X212550740Y-106013088D01*
X212557106Y-106006412D01*
X212572407Y-105981737D01*
X212581029Y-105951460D01*
X212582583Y-105917959D01*
X212577066Y-105884996D01*
X212565994Y-105861989D01*
X212547277Y-105840754D01*
X212523414Y-105823632D01*
X212501440Y-105814205D01*
X212483182Y-105810348D01*
X212455778Y-105806850D01*
X212420235Y-105803765D01*
X212377563Y-105801146D01*
X212328771Y-105799048D01*
X212274866Y-105797524D01*
X212216858Y-105796629D01*
X212168740Y-105796402D01*
X212105737Y-105796766D01*
X212052173Y-105797907D01*
X212007349Y-105799878D01*
X211970570Y-105802732D01*
X211941139Y-105806520D01*
X211918359Y-105811297D01*
X211902804Y-105816555D01*
X211876029Y-105832389D01*
X211854141Y-105853803D01*
X211839342Y-105878427D01*
X211835945Y-105888474D01*
X211824319Y-105921733D01*
X211809307Y-105945811D01*
X211798791Y-105955688D01*
X211793797Y-105959003D01*
X211788066Y-105961542D01*
X211780261Y-105963410D01*
X211769045Y-105964708D01*
X211753081Y-105965539D01*
X211731033Y-105966006D01*
X211701562Y-105966212D01*
X211663333Y-105966259D01*
X211661254Y-105966260D01*
X211622771Y-105966238D01*
X211593075Y-105966092D01*
X211570791Y-105965699D01*
X211554547Y-105964936D01*
X211542968Y-105963680D01*
X211534682Y-105961808D01*
X211528314Y-105959197D01*
X211522492Y-105955725D01*
X211519256Y-105953560D01*
X211502908Y-105938208D01*
X211488667Y-105916894D01*
X211487275Y-105914166D01*
X211481617Y-105902316D01*
X211478079Y-105892594D01*
X211476441Y-105882446D01*
X211476485Y-105869317D01*
X211477989Y-105850654D01*
X211480063Y-105830346D01*
X211485693Y-105785383D01*
X211492672Y-105748735D01*
X211501692Y-105718579D01*
X211513446Y-105693089D01*
X211528626Y-105670444D01*
X211547924Y-105648819D01*
X211549627Y-105647117D01*
X211571797Y-105627488D01*
X211596875Y-105610034D01*
X211625470Y-105594652D01*
X211658187Y-105581239D01*
X211695636Y-105569692D01*
X211738422Y-105559906D01*
X211787155Y-105551778D01*
X211842441Y-105545204D01*
X211904888Y-105540081D01*
X211975103Y-105536305D01*
X212053695Y-105533773D01*
X212141269Y-105532381D01*
X212224620Y-105532017D01*
X212324331Y-105532576D01*
G36*
X215374968Y-105537039D02*
X215417568Y-105537258D01*
X215452598Y-105537760D01*
X215480923Y-105538658D01*
X215503405Y-105540064D01*
X215520909Y-105542093D01*
X215534298Y-105544855D01*
X215544435Y-105548464D01*
X215552185Y-105553034D01*
X215558409Y-105558676D01*
X215563973Y-105565504D01*
X215569739Y-105573630D01*
X215572340Y-105577331D01*
X215587580Y-105598831D01*
X215588958Y-106157519D01*
X215589162Y-106257029D01*
X215589257Y-106346574D01*
X215589241Y-106426348D01*
X215589113Y-106496545D01*
X215588872Y-106557360D01*
X215588517Y-106608987D01*
X215588045Y-106651619D01*
X215587456Y-106685452D01*
X215586748Y-106710680D01*
X215585920Y-106727496D01*
X215584971Y-106736095D01*
X215584875Y-106736491D01*
X215575518Y-106757468D01*
X215560332Y-106777414D01*
X215542098Y-106793305D01*
X215524849Y-106801790D01*
X215514345Y-106803310D01*
X215495470Y-106804645D01*
X215470013Y-106805724D01*
X215439762Y-106806479D01*
X215406506Y-106806839D01*
X215394540Y-106806860D01*
X215352505Y-106806610D01*
X215319275Y-106805749D01*
X215293503Y-106804007D01*
X215273838Y-106801115D01*
X215258933Y-106796800D01*
X215247439Y-106790793D01*
X215238007Y-106782823D01*
X215230308Y-106773930D01*
X215226248Y-106768640D01*
X215222721Y-106763329D01*
X215219705Y-106757301D01*
X215217177Y-106749859D01*
X215215116Y-106740309D01*
X215213499Y-106727955D01*
X215212303Y-106712101D01*
X215211507Y-106692052D01*
X215211088Y-106667112D01*
X215211024Y-106636586D01*
X215211292Y-106599777D01*
X215211870Y-106555992D01*
X215212735Y-106504533D01*
X215213867Y-106444705D01*
X215215241Y-106375814D01*
X215216128Y-106332039D01*
X215217594Y-106259037D01*
X215218823Y-106195519D01*
X215219818Y-106140814D01*
X215220579Y-106094248D01*
X215221106Y-106055148D01*
X215221401Y-106022844D01*
X215221462Y-105996661D01*
X215221292Y-105975927D01*
X215220891Y-105959969D01*
X215220258Y-105948116D01*
X215219396Y-105939694D01*
X215218304Y-105934031D01*
X215216983Y-105930454D01*
X215216475Y-105929583D01*
X215205281Y-105919609D01*
X215192020Y-105918915D01*
X215178325Y-105927320D01*
X215172096Y-105934510D01*
X215167834Y-105941266D01*
X215158908Y-105956195D01*
X215145693Y-105978648D01*
X215128566Y-106007975D01*
X215107902Y-106043529D01*
X215084077Y-106084659D01*
X215057467Y-106130717D01*
X215028448Y-106181054D01*
X214997395Y-106235020D01*
X214964686Y-106291968D01*
X214930694Y-106351248D01*
X214927159Y-106357420D01*
X214893111Y-106416790D01*
X214860334Y-106473811D01*
X214829202Y-106527842D01*
X214800085Y-106578244D01*
X214773356Y-106624375D01*
X214749388Y-106665597D01*
X214728553Y-106701269D01*
X214711223Y-106730751D01*
X214697770Y-106753403D01*
X214688566Y-106768585D01*
X214683984Y-106775656D01*
X214683771Y-106775920D01*
X214674953Y-106785068D01*
X214665512Y-106792224D01*
X214654121Y-106797628D01*
X214639450Y-106801520D01*
X214620172Y-106804140D01*
X214594958Y-106805728D01*
X214562478Y-106806525D01*
X214521406Y-106806772D01*
X214513160Y-106806776D01*
X214470490Y-106806605D01*
X214436642Y-106805929D01*
X214410281Y-106804507D01*
X214390070Y-106802099D01*
X214374675Y-106798463D01*
X214362761Y-106793358D01*
X214352992Y-106786543D01*
X214344033Y-106777776D01*
X214342357Y-106775920D01*
X214338345Y-106769819D01*
X214329721Y-106755497D01*
X214316848Y-106733587D01*
X214300090Y-106704726D01*
X214279812Y-106669548D01*
X214256379Y-106628689D01*
X214230153Y-106582784D01*
X214201499Y-106532468D01*
X214170782Y-106478377D01*
X214138365Y-106421146D01*
X214104613Y-106361410D01*
X214096630Y-106347260D01*
X214062741Y-106287201D01*
X214030210Y-106229604D01*
X213999392Y-106175093D01*
X213970640Y-106124289D01*
X213944307Y-106077818D01*
X213920749Y-106036302D01*
X213900318Y-106000364D01*
X213883369Y-105970629D01*
X213870255Y-105947718D01*
X213861329Y-105932256D01*
X213856947Y-105924865D01*
X213856601Y-105924350D01*
X213846388Y-105918740D01*
X213832820Y-105919291D01*
X213820402Y-105925731D01*
X213819481Y-105926604D01*
X213817902Y-105928710D01*
X213816543Y-105932094D01*
X213815397Y-105937428D01*
X213814455Y-105945387D01*
X213813709Y-105956643D01*
X213813151Y-105971868D01*
X213812774Y-105991737D01*
X213812569Y-106016923D01*
X213812528Y-106048099D01*
X213812643Y-106085937D01*
X213812906Y-106131111D01*
X213813310Y-106184295D01*
X213813845Y-106246161D01*
X213814505Y-106317382D01*
X213814647Y-106332353D01*
X213815355Y-106411574D01*
X213815878Y-106481107D01*
X213816214Y-106541419D01*
X213816361Y-106592982D01*
X213816316Y-106636265D01*
X213816078Y-106671737D01*
X213815643Y-106699867D01*
X213815009Y-106721126D01*
X213814175Y-106735982D01*
X213813138Y-106744906D01*
X213812611Y-106747091D01*
X213800282Y-106769323D01*
X213780089Y-106788158D01*
X213760213Y-106799110D01*
X213748300Y-106801850D01*
X213728246Y-106804048D01*
X213701966Y-106805699D01*
X213671378Y-106806797D01*
X213638399Y-106807336D01*
X213604947Y-106807310D01*
X213572938Y-106806712D01*
X213544290Y-106805537D01*
X213520921Y-106803778D01*
X213504747Y-106801431D01*
X213499700Y-106799925D01*
X213478456Y-106786110D01*
X213460169Y-106766090D01*
X213448051Y-106743541D01*
X213446714Y-106739284D01*
X213445730Y-106732576D01*
X213444867Y-106719819D01*
X213444123Y-106700646D01*
X213443495Y-106674690D01*
X213442980Y-106641584D01*
X213442575Y-106600960D01*
X213442278Y-106552452D01*
X213442085Y-106495692D01*
X213441995Y-106430313D01*
X213442003Y-106355949D01*
X213442109Y-106272231D01*
X213442308Y-106178792D01*
X213442357Y-106159300D01*
X213442573Y-106070340D01*
X213442754Y-105990970D01*
X213442935Y-105920623D01*
X213443151Y-105858727D01*
X213443439Y-105804716D01*
X213443833Y-105758018D01*
X213444370Y-105718066D01*
X213445085Y-105684289D01*
X213446014Y-105656120D01*
X213447192Y-105632989D01*
X213448655Y-105614326D01*
X213450439Y-105599564D01*
X213452579Y-105588132D01*
X213455110Y-105579461D01*
X213458069Y-105572983D01*
X213461491Y-105568128D01*
X213465411Y-105564328D01*
X213469865Y-105561013D01*
X213474890Y-105557614D01*
X213480244Y-105553772D01*
X213498900Y-105539540D01*
X213760920Y-105538087D01*
X213811895Y-105537859D01*
X213860032Y-105537748D01*
X213904329Y-105537749D01*
X213943783Y-105537857D01*
X213977392Y-105538068D01*
X214004154Y-105538376D01*
X214023065Y-105538777D01*
X214033124Y-105539265D01*
X214034276Y-105539431D01*
X214039990Y-105541158D01*
X214045637Y-105543816D01*
X214051554Y-105547955D01*
X214058081Y-105554125D01*
X214065555Y-105562877D01*
X214074315Y-105574760D01*
X214084700Y-105590324D01*
X214097047Y-105610119D01*
X214111695Y-105634697D01*
X214128983Y-105664606D01*
X214149248Y-105700396D01*
X214172830Y-105742619D01*
X214200066Y-105791824D01*
X214231295Y-105848561D01*
X214266855Y-105913380D01*
X214287815Y-105951640D01*
X214322722Y-106015224D01*
X214355512Y-106074645D01*
X214385891Y-106129385D01*
X214413566Y-106178923D01*
X214438241Y-106222741D01*
X214459621Y-106260317D01*
X214477414Y-106291134D01*
X214491325Y-106314671D01*
X214501059Y-106330408D01*
X214506321Y-106337827D01*
X214506810Y-106338266D01*
X214516459Y-106343172D01*
X214524699Y-106341331D01*
X214529670Y-106338249D01*
X214534038Y-106332512D01*
X214542915Y-106318343D01*
X214556006Y-106296265D01*
X214573016Y-106266800D01*
X214593650Y-106230468D01*
X214617614Y-106187793D01*
X214644614Y-106139295D01*
X214674355Y-106085497D01*
X214706543Y-106026921D01*
X214740882Y-105964088D01*
X214741467Y-105963015D01*
X214772530Y-105906057D01*
X214802401Y-105851345D01*
X214830693Y-105799581D01*
X214857021Y-105751471D01*
X214880998Y-105707718D01*
X214902237Y-105669026D01*
X214920353Y-105636101D01*
X214934959Y-105609645D01*
X214945668Y-105590363D01*
X214952095Y-105578959D01*
X214953555Y-105576474D01*
X214966051Y-105561663D01*
X214982031Y-105549146D01*
X214985395Y-105547264D01*
X214990240Y-105544961D01*
X214995569Y-105543031D01*
X215002271Y-105541441D01*
X215011234Y-105540158D01*
X215023349Y-105539148D01*
X215039504Y-105538380D01*
X215060589Y-105537820D01*
X215087493Y-105537436D01*
X215121105Y-105537195D01*
X215162313Y-105537063D01*
X215212008Y-105537009D01*
X215263606Y-105537000D01*
X215323935Y-105536991D01*
X215374968Y-105537039D01*
X215374968Y-105537039D01*
G37*
X215374968Y-105537039D02*
X215417568Y-105537258D01*
X215452598Y-105537760D01*
X215480923Y-105538658D01*
X215503405Y-105540064D01*
X215520909Y-105542093D01*
X215534298Y-105544855D01*
X215544435Y-105548464D01*
X215552185Y-105553034D01*
X215558409Y-105558676D01*
X215563973Y-105565504D01*
X215569739Y-105573630D01*
X215572340Y-105577331D01*
X215587580Y-105598831D01*
X215588958Y-106157519D01*
X215589162Y-106257029D01*
X215589257Y-106346574D01*
X215589241Y-106426348D01*
X215589113Y-106496545D01*
X215588872Y-106557360D01*
X215588517Y-106608987D01*
X215588045Y-106651619D01*
X215587456Y-106685452D01*
X215586748Y-106710680D01*
X215585920Y-106727496D01*
X215584971Y-106736095D01*
X215584875Y-106736491D01*
X215575518Y-106757468D01*
X215560332Y-106777414D01*
X215542098Y-106793305D01*
X215524849Y-106801790D01*
X215514345Y-106803310D01*
X215495470Y-106804645D01*
X215470013Y-106805724D01*
X215439762Y-106806479D01*
X215406506Y-106806839D01*
X215394540Y-106806860D01*
X215352505Y-106806610D01*
X215319275Y-106805749D01*
X215293503Y-106804007D01*
X215273838Y-106801115D01*
X215258933Y-106796800D01*
X215247439Y-106790793D01*
X215238007Y-106782823D01*
X215230308Y-106773930D01*
X215226248Y-106768640D01*
X215222721Y-106763329D01*
X215219705Y-106757301D01*
X215217177Y-106749859D01*
X215215116Y-106740309D01*
X215213499Y-106727955D01*
X215212303Y-106712101D01*
X215211507Y-106692052D01*
X215211088Y-106667112D01*
X215211024Y-106636586D01*
X215211292Y-106599777D01*
X215211870Y-106555992D01*
X215212735Y-106504533D01*
X215213867Y-106444705D01*
X215215241Y-106375814D01*
X215216128Y-106332039D01*
X215217594Y-106259037D01*
X215218823Y-106195519D01*
X215219818Y-106140814D01*
X215220579Y-106094248D01*
X215221106Y-106055148D01*
X215221401Y-106022844D01*
X215221462Y-105996661D01*
X215221292Y-105975927D01*
X215220891Y-105959969D01*
X215220258Y-105948116D01*
X215219396Y-105939694D01*
X215218304Y-105934031D01*
X215216983Y-105930454D01*
X215216475Y-105929583D01*
X215205281Y-105919609D01*
X215192020Y-105918915D01*
X215178325Y-105927320D01*
X215172096Y-105934510D01*
X215167834Y-105941266D01*
X215158908Y-105956195D01*
X215145693Y-105978648D01*
X215128566Y-106007975D01*
X215107902Y-106043529D01*
X215084077Y-106084659D01*
X215057467Y-106130717D01*
X215028448Y-106181054D01*
X214997395Y-106235020D01*
X214964686Y-106291968D01*
X214930694Y-106351248D01*
X214927159Y-106357420D01*
X214893111Y-106416790D01*
X214860334Y-106473811D01*
X214829202Y-106527842D01*
X214800085Y-106578244D01*
X214773356Y-106624375D01*
X214749388Y-106665597D01*
X214728553Y-106701269D01*
X214711223Y-106730751D01*
X214697770Y-106753403D01*
X214688566Y-106768585D01*
X214683984Y-106775656D01*
X214683771Y-106775920D01*
X214674953Y-106785068D01*
X214665512Y-106792224D01*
X214654121Y-106797628D01*
X214639450Y-106801520D01*
X214620172Y-106804140D01*
X214594958Y-106805728D01*
X214562478Y-106806525D01*
X214521406Y-106806772D01*
X214513160Y-106806776D01*
X214470490Y-106806605D01*
X214436642Y-106805929D01*
X214410281Y-106804507D01*
X214390070Y-106802099D01*
X214374675Y-106798463D01*
X214362761Y-106793358D01*
X214352992Y-106786543D01*
X214344033Y-106777776D01*
X214342357Y-106775920D01*
X214338345Y-106769819D01*
X214329721Y-106755497D01*
X214316848Y-106733587D01*
X214300090Y-106704726D01*
X214279812Y-106669548D01*
X214256379Y-106628689D01*
X214230153Y-106582784D01*
X214201499Y-106532468D01*
X214170782Y-106478377D01*
X214138365Y-106421146D01*
X214104613Y-106361410D01*
X214096630Y-106347260D01*
X214062741Y-106287201D01*
X214030210Y-106229604D01*
X213999392Y-106175093D01*
X213970640Y-106124289D01*
X213944307Y-106077818D01*
X213920749Y-106036302D01*
X213900318Y-106000364D01*
X213883369Y-105970629D01*
X213870255Y-105947718D01*
X213861329Y-105932256D01*
X213856947Y-105924865D01*
X213856601Y-105924350D01*
X213846388Y-105918740D01*
X213832820Y-105919291D01*
X213820402Y-105925731D01*
X213819481Y-105926604D01*
X213817902Y-105928710D01*
X213816543Y-105932094D01*
X213815397Y-105937428D01*
X213814455Y-105945387D01*
X213813709Y-105956643D01*
X213813151Y-105971868D01*
X213812774Y-105991737D01*
X213812569Y-106016923D01*
X213812528Y-106048099D01*
X213812643Y-106085937D01*
X213812906Y-106131111D01*
X213813310Y-106184295D01*
X213813845Y-106246161D01*
X213814505Y-106317382D01*
X213814647Y-106332353D01*
X213815355Y-106411574D01*
X213815878Y-106481107D01*
X213816214Y-106541419D01*
X213816361Y-106592982D01*
X213816316Y-106636265D01*
X213816078Y-106671737D01*
X213815643Y-106699867D01*
X213815009Y-106721126D01*
X213814175Y-106735982D01*
X213813138Y-106744906D01*
X213812611Y-106747091D01*
X213800282Y-106769323D01*
X213780089Y-106788158D01*
X213760213Y-106799110D01*
X213748300Y-106801850D01*
X213728246Y-106804048D01*
X213701966Y-106805699D01*
X213671378Y-106806797D01*
X213638399Y-106807336D01*
X213604947Y-106807310D01*
X213572938Y-106806712D01*
X213544290Y-106805537D01*
X213520921Y-106803778D01*
X213504747Y-106801431D01*
X213499700Y-106799925D01*
X213478456Y-106786110D01*
X213460169Y-106766090D01*
X213448051Y-106743541D01*
X213446714Y-106739284D01*
X213445730Y-106732576D01*
X213444867Y-106719819D01*
X213444123Y-106700646D01*
X213443495Y-106674690D01*
X213442980Y-106641584D01*
X213442575Y-106600960D01*
X213442278Y-106552452D01*
X213442085Y-106495692D01*
X213441995Y-106430313D01*
X213442003Y-106355949D01*
X213442109Y-106272231D01*
X213442308Y-106178792D01*
X213442357Y-106159300D01*
X213442573Y-106070340D01*
X213442754Y-105990970D01*
X213442935Y-105920623D01*
X213443151Y-105858727D01*
X213443439Y-105804716D01*
X213443833Y-105758018D01*
X213444370Y-105718066D01*
X213445085Y-105684289D01*
X213446014Y-105656120D01*
X213447192Y-105632989D01*
X213448655Y-105614326D01*
X213450439Y-105599564D01*
X213452579Y-105588132D01*
X213455110Y-105579461D01*
X213458069Y-105572983D01*
X213461491Y-105568128D01*
X213465411Y-105564328D01*
X213469865Y-105561013D01*
X213474890Y-105557614D01*
X213480244Y-105553772D01*
X213498900Y-105539540D01*
X213760920Y-105538087D01*
X213811895Y-105537859D01*
X213860032Y-105537748D01*
X213904329Y-105537749D01*
X213943783Y-105537857D01*
X213977392Y-105538068D01*
X214004154Y-105538376D01*
X214023065Y-105538777D01*
X214033124Y-105539265D01*
X214034276Y-105539431D01*
X214039990Y-105541158D01*
X214045637Y-105543816D01*
X214051554Y-105547955D01*
X214058081Y-105554125D01*
X214065555Y-105562877D01*
X214074315Y-105574760D01*
X214084700Y-105590324D01*
X214097047Y-105610119D01*
X214111695Y-105634697D01*
X214128983Y-105664606D01*
X214149248Y-105700396D01*
X214172830Y-105742619D01*
X214200066Y-105791824D01*
X214231295Y-105848561D01*
X214266855Y-105913380D01*
X214287815Y-105951640D01*
X214322722Y-106015224D01*
X214355512Y-106074645D01*
X214385891Y-106129385D01*
X214413566Y-106178923D01*
X214438241Y-106222741D01*
X214459621Y-106260317D01*
X214477414Y-106291134D01*
X214491325Y-106314671D01*
X214501059Y-106330408D01*
X214506321Y-106337827D01*
X214506810Y-106338266D01*
X214516459Y-106343172D01*
X214524699Y-106341331D01*
X214529670Y-106338249D01*
X214534038Y-106332512D01*
X214542915Y-106318343D01*
X214556006Y-106296265D01*
X214573016Y-106266800D01*
X214593650Y-106230468D01*
X214617614Y-106187793D01*
X214644614Y-106139295D01*
X214674355Y-106085497D01*
X214706543Y-106026921D01*
X214740882Y-105964088D01*
X214741467Y-105963015D01*
X214772530Y-105906057D01*
X214802401Y-105851345D01*
X214830693Y-105799581D01*
X214857021Y-105751471D01*
X214880998Y-105707718D01*
X214902237Y-105669026D01*
X214920353Y-105636101D01*
X214934959Y-105609645D01*
X214945668Y-105590363D01*
X214952095Y-105578959D01*
X214953555Y-105576474D01*
X214966051Y-105561663D01*
X214982031Y-105549146D01*
X214985395Y-105547264D01*
X214990240Y-105544961D01*
X214995569Y-105543031D01*
X215002271Y-105541441D01*
X215011234Y-105540158D01*
X215023349Y-105539148D01*
X215039504Y-105538380D01*
X215060589Y-105537820D01*
X215087493Y-105537436D01*
X215121105Y-105537195D01*
X215162313Y-105537063D01*
X215212008Y-105537009D01*
X215263606Y-105537000D01*
X215323935Y-105536991D01*
X215374968Y-105537039D01*
G36*
X216771220Y-105538592D02*
X216863524Y-105538842D01*
X216946249Y-105539080D01*
X217019975Y-105539314D01*
X217085281Y-105539558D01*
X217142747Y-105539820D01*
X217192954Y-105540112D01*
X217236482Y-105540445D01*
X217273912Y-105540829D01*
X217305822Y-105541275D01*
X217332794Y-105541794D01*
X217355407Y-105542396D01*
X217374242Y-105543093D01*
X217389878Y-105543894D01*
X217402897Y-105544811D01*
X217413878Y-105545855D01*
X217423401Y-105547035D01*
X217432046Y-105548364D01*
X217440394Y-105549851D01*
X217446860Y-105551086D01*
X217500391Y-105563175D01*
X217545781Y-105577449D01*
X217584963Y-105594802D01*
X217619873Y-105616124D01*
X217652447Y-105642310D01*
X217660196Y-105649478D01*
X217687154Y-105677824D01*
X217709900Y-105708286D01*
X217728816Y-105741991D01*
X217744283Y-105780064D01*
X217756681Y-105823629D01*
X217766392Y-105873812D01*
X217773797Y-105931737D01*
X217779275Y-105998531D01*
X217779486Y-106001820D01*
X217782659Y-106067913D01*
X217784195Y-106138234D01*
X217784146Y-106210395D01*
X217782566Y-106282009D01*
X217779505Y-106350688D01*
X217775017Y-106414045D01*
X217769219Y-106469180D01*
X217756795Y-106532899D01*
X217736735Y-106590807D01*
X217709419Y-106642458D01*
X217675225Y-106687403D01*
X217634531Y-106725196D01*
X217587715Y-106755388D01*
X217535155Y-106777532D01*
X217500812Y-106786815D01*
X217486738Y-106789755D01*
X217472481Y-106792396D01*
X217457449Y-106794753D01*
X217441052Y-106796842D01*
X217422697Y-106798680D01*
X217401792Y-106800282D01*
X217377746Y-106801663D01*
X217349967Y-106802840D01*
X217317863Y-106803829D01*
X217280842Y-106804644D01*
X217238313Y-106805303D01*
X217189684Y-106805820D01*
X217134363Y-106806212D01*
X217071758Y-106806494D01*
X217001277Y-106806682D01*
X216922330Y-106806793D01*
X216834323Y-106806841D01*
X216750900Y-106806844D01*
X216660925Y-106806829D01*
X216580548Y-106806797D01*
X216509206Y-106806741D01*
X216446335Y-106806651D01*
X216391373Y-106806520D01*
X216343757Y-106806338D01*
X216302925Y-106806096D01*
X216268313Y-106805787D01*
X216239358Y-106805400D01*
X216215499Y-106804929D01*
X216196172Y-106804362D01*
X216180814Y-106803693D01*
X216168863Y-106802912D01*
X216159756Y-106802011D01*
X216152930Y-106800981D01*
X216147822Y-106799813D01*
X216143870Y-106798498D01*
X216141300Y-106797398D01*
X216115569Y-106780910D01*
X216097914Y-106759271D01*
X216093378Y-106749519D01*
X216092419Y-106742616D01*
X216091560Y-106727127D01*
X216090798Y-106702896D01*
X216090132Y-106669766D01*
X216089561Y-106627581D01*
X216089083Y-106576185D01*
X216088697Y-106515421D01*
X216088401Y-106445134D01*
X216088195Y-106365168D01*
X216088075Y-106275365D01*
X216088043Y-106177080D01*
X216479120Y-106177080D01*
X216479170Y-106244816D01*
X216479328Y-106302962D01*
X216479606Y-106352088D01*
X216480013Y-106392763D01*
X216480562Y-106425556D01*
X216481263Y-106451037D01*
X216482127Y-106469775D01*
X216483166Y-106482341D01*
X216484390Y-106489302D01*
X216485216Y-106491024D01*
X216488896Y-106492247D01*
X216497675Y-106493311D01*
X216512079Y-106494224D01*
X216532632Y-106494995D01*
X216559859Y-106495632D01*
X216594286Y-106496143D01*
X216636438Y-106496538D01*
X216686839Y-106496824D01*
X216746016Y-106497009D01*
X216814494Y-106497103D01*
X216863140Y-106497120D01*
X216933634Y-106497111D01*
X216994716Y-106497073D01*
X217047137Y-106496987D01*
X217091647Y-106496834D01*
X217128993Y-106496593D01*
X217159927Y-106496248D01*
X217185196Y-106495777D01*
X217205550Y-106495163D01*
X217221740Y-106494387D01*
X217234513Y-106493428D01*
X217244620Y-106492269D01*
X217252809Y-106490890D01*
X217259831Y-106489272D01*
X217266433Y-106487396D01*
X217268310Y-106486821D01*
X217305515Y-106471260D01*
X217334857Y-106449632D01*
X217357052Y-106421185D01*
X217372820Y-106385165D01*
X217376172Y-106373654D01*
X217381584Y-106346981D01*
X217386085Y-106312394D01*
X217389530Y-106272113D01*
X217391775Y-106228355D01*
X217392672Y-106183340D01*
X217392078Y-106139284D01*
X217391890Y-106133900D01*
X217388498Y-106075133D01*
X217382802Y-106025517D01*
X217374331Y-105984211D01*
X217362619Y-105950375D01*
X217347196Y-105923166D01*
X217327594Y-105901743D01*
X217303344Y-105885266D01*
X217273978Y-105872892D01*
X217241785Y-105864356D01*
X217230346Y-105862980D01*
X217210258Y-105861732D01*
X217182500Y-105860613D01*
X217148050Y-105859624D01*
X217107889Y-105858767D01*
X217062994Y-105858044D01*
X217014345Y-105857456D01*
X216962922Y-105857005D01*
X216909702Y-105856692D01*
X216855665Y-105856519D01*
X216801790Y-105856488D01*
X216749056Y-105856600D01*
X216698443Y-105856857D01*
X216650928Y-105857259D01*
X216607491Y-105857810D01*
X216569111Y-105858511D01*
X216536767Y-105859362D01*
X216511438Y-105860366D01*
X216494103Y-105861524D01*
X216485741Y-105862838D01*
X216485216Y-105863136D01*
X216483875Y-105867017D01*
X216482727Y-105876162D01*
X216481760Y-105891139D01*
X216480962Y-105912518D01*
X216480324Y-105940869D01*
X216479833Y-105976761D01*
X216479479Y-106020763D01*
X216479251Y-106073445D01*
X216479137Y-106135377D01*
X216479120Y-106177080D01*
X216088043Y-106177080D01*
X216088042Y-106175571D01*
X216088043Y-106167859D01*
X216088127Y-105600500D01*
X216099577Y-105580283D01*
X216111998Y-105564213D01*
X216128029Y-105550493D01*
X216131243Y-105548499D01*
X216151460Y-105536932D01*
X216771220Y-105538592D01*
X216771220Y-105538592D01*
G37*
X216771220Y-105538592D02*
X216863524Y-105538842D01*
X216946249Y-105539080D01*
X217019975Y-105539314D01*
X217085281Y-105539558D01*
X217142747Y-105539820D01*
X217192954Y-105540112D01*
X217236482Y-105540445D01*
X217273912Y-105540829D01*
X217305822Y-105541275D01*
X217332794Y-105541794D01*
X217355407Y-105542396D01*
X217374242Y-105543093D01*
X217389878Y-105543894D01*
X217402897Y-105544811D01*
X217413878Y-105545855D01*
X217423401Y-105547035D01*
X217432046Y-105548364D01*
X217440394Y-105549851D01*
X217446860Y-105551086D01*
X217500391Y-105563175D01*
X217545781Y-105577449D01*
X217584963Y-105594802D01*
X217619873Y-105616124D01*
X217652447Y-105642310D01*
X217660196Y-105649478D01*
X217687154Y-105677824D01*
X217709900Y-105708286D01*
X217728816Y-105741991D01*
X217744283Y-105780064D01*
X217756681Y-105823629D01*
X217766392Y-105873812D01*
X217773797Y-105931737D01*
X217779275Y-105998531D01*
X217779486Y-106001820D01*
X217782659Y-106067913D01*
X217784195Y-106138234D01*
X217784146Y-106210395D01*
X217782566Y-106282009D01*
X217779505Y-106350688D01*
X217775017Y-106414045D01*
X217769219Y-106469180D01*
X217756795Y-106532899D01*
X217736735Y-106590807D01*
X217709419Y-106642458D01*
X217675225Y-106687403D01*
X217634531Y-106725196D01*
X217587715Y-106755388D01*
X217535155Y-106777532D01*
X217500812Y-106786815D01*
X217486738Y-106789755D01*
X217472481Y-106792396D01*
X217457449Y-106794753D01*
X217441052Y-106796842D01*
X217422697Y-106798680D01*
X217401792Y-106800282D01*
X217377746Y-106801663D01*
X217349967Y-106802840D01*
X217317863Y-106803829D01*
X217280842Y-106804644D01*
X217238313Y-106805303D01*
X217189684Y-106805820D01*
X217134363Y-106806212D01*
X217071758Y-106806494D01*
X217001277Y-106806682D01*
X216922330Y-106806793D01*
X216834323Y-106806841D01*
X216750900Y-106806844D01*
X216660925Y-106806829D01*
X216580548Y-106806797D01*
X216509206Y-106806741D01*
X216446335Y-106806651D01*
X216391373Y-106806520D01*
X216343757Y-106806338D01*
X216302925Y-106806096D01*
X216268313Y-106805787D01*
X216239358Y-106805400D01*
X216215499Y-106804929D01*
X216196172Y-106804362D01*
X216180814Y-106803693D01*
X216168863Y-106802912D01*
X216159756Y-106802011D01*
X216152930Y-106800981D01*
X216147822Y-106799813D01*
X216143870Y-106798498D01*
X216141300Y-106797398D01*
X216115569Y-106780910D01*
X216097914Y-106759271D01*
X216093378Y-106749519D01*
X216092419Y-106742616D01*
X216091560Y-106727127D01*
X216090798Y-106702896D01*
X216090132Y-106669766D01*
X216089561Y-106627581D01*
X216089083Y-106576185D01*
X216088697Y-106515421D01*
X216088401Y-106445134D01*
X216088195Y-106365168D01*
X216088075Y-106275365D01*
X216088043Y-106177080D01*
X216479120Y-106177080D01*
X216479170Y-106244816D01*
X216479328Y-106302962D01*
X216479606Y-106352088D01*
X216480013Y-106392763D01*
X216480562Y-106425556D01*
X216481263Y-106451037D01*
X216482127Y-106469775D01*
X216483166Y-106482341D01*
X216484390Y-106489302D01*
X216485216Y-106491024D01*
X216488896Y-106492247D01*
X216497675Y-106493311D01*
X216512079Y-106494224D01*
X216532632Y-106494995D01*
X216559859Y-106495632D01*
X216594286Y-106496143D01*
X216636438Y-106496538D01*
X216686839Y-106496824D01*
X216746016Y-106497009D01*
X216814494Y-106497103D01*
X216863140Y-106497120D01*
X216933634Y-106497111D01*
X216994716Y-106497073D01*
X217047137Y-106496987D01*
X217091647Y-106496834D01*
X217128993Y-106496593D01*
X217159927Y-106496248D01*
X217185196Y-106495777D01*
X217205550Y-106495163D01*
X217221740Y-106494387D01*
X217234513Y-106493428D01*
X217244620Y-106492269D01*
X217252809Y-106490890D01*
X217259831Y-106489272D01*
X217266433Y-106487396D01*
X217268310Y-106486821D01*
X217305515Y-106471260D01*
X217334857Y-106449632D01*
X217357052Y-106421185D01*
X217372820Y-106385165D01*
X217376172Y-106373654D01*
X217381584Y-106346981D01*
X217386085Y-106312394D01*
X217389530Y-106272113D01*
X217391775Y-106228355D01*
X217392672Y-106183340D01*
X217392078Y-106139284D01*
X217391890Y-106133900D01*
X217388498Y-106075133D01*
X217382802Y-106025517D01*
X217374331Y-105984211D01*
X217362619Y-105950375D01*
X217347196Y-105923166D01*
X217327594Y-105901743D01*
X217303344Y-105885266D01*
X217273978Y-105872892D01*
X217241785Y-105864356D01*
X217230346Y-105862980D01*
X217210258Y-105861732D01*
X217182500Y-105860613D01*
X217148050Y-105859624D01*
X217107889Y-105858767D01*
X217062994Y-105858044D01*
X217014345Y-105857456D01*
X216962922Y-105857005D01*
X216909702Y-105856692D01*
X216855665Y-105856519D01*
X216801790Y-105856488D01*
X216749056Y-105856600D01*
X216698443Y-105856857D01*
X216650928Y-105857259D01*
X216607491Y-105857810D01*
X216569111Y-105858511D01*
X216536767Y-105859362D01*
X216511438Y-105860366D01*
X216494103Y-105861524D01*
X216485741Y-105862838D01*
X216485216Y-105863136D01*
X216483875Y-105867017D01*
X216482727Y-105876162D01*
X216481760Y-105891139D01*
X216480962Y-105912518D01*
X216480324Y-105940869D01*
X216479833Y-105976761D01*
X216479479Y-106020763D01*
X216479251Y-106073445D01*
X216479137Y-106135377D01*
X216479120Y-106177080D01*
X216088043Y-106177080D01*
X216088042Y-106175571D01*
X216088043Y-106167859D01*
X216088127Y-105600500D01*
X216099577Y-105580283D01*
X216111998Y-105564213D01*
X216128029Y-105550493D01*
X216131243Y-105548499D01*
X216151460Y-105536932D01*
X216771220Y-105538592D01*
G36*
X219049863Y-105537004D02*
X219135827Y-105537022D01*
X219212685Y-105537062D01*
X219280965Y-105537129D01*
X219341192Y-105537233D01*
X219393895Y-105537379D01*
X219439600Y-105537576D01*
X219478834Y-105537830D01*
X219512124Y-105538149D01*
X219539997Y-105538540D01*
X219562981Y-105539011D01*
X219581602Y-105539569D01*
X219596388Y-105540220D01*
X219607865Y-105540974D01*
X219616560Y-105541835D01*
X219623001Y-105542813D01*
X219627715Y-105543914D01*
X219631227Y-105545146D01*
X219633879Y-105546415D01*
X219647601Y-105556422D01*
X219661693Y-105570754D01*
X219666820Y-105577327D01*
X219682060Y-105598824D01*
X219682060Y-105678402D01*
X219681957Y-105708960D01*
X219681502Y-105731263D01*
X219680470Y-105747217D01*
X219678639Y-105758727D01*
X219675787Y-105767696D01*
X219671689Y-105776030D01*
X219670359Y-105778387D01*
X219658537Y-105794437D01*
X219643837Y-105808740D01*
X219640253Y-105811407D01*
X219621849Y-105824020D01*
X219121953Y-105826560D01*
X219039605Y-105826982D01*
X218966818Y-105827374D01*
X218902991Y-105827748D01*
X218847525Y-105828120D01*
X218799821Y-105828504D01*
X218759279Y-105828915D01*
X218725299Y-105829367D01*
X218697282Y-105829876D01*
X218674629Y-105830456D01*
X218656739Y-105831121D01*
X218643013Y-105831887D01*
X218632852Y-105832767D01*
X218625656Y-105833777D01*
X218620825Y-105834931D01*
X218617760Y-105836244D01*
X218615862Y-105837731D01*
X218614849Y-105838960D01*
X218612010Y-105845324D01*
X218609972Y-105856358D01*
X218608632Y-105873403D01*
X218607889Y-105897801D01*
X218607641Y-105930894D01*
X218607640Y-105934210D01*
X218607726Y-105965811D01*
X218608098Y-105988860D01*
X218608927Y-106004965D01*
X218610385Y-106015733D01*
X218612642Y-106022773D01*
X218615868Y-106027692D01*
X218617800Y-106029760D01*
X218619718Y-106031498D01*
X218622198Y-106033025D01*
X218625868Y-106034357D01*
X218631358Y-106035505D01*
X218639297Y-106036485D01*
X218650315Y-106037309D01*
X218665041Y-106037992D01*
X218684105Y-106038546D01*
X218708136Y-106038987D01*
X218737764Y-106039327D01*
X218773617Y-106039580D01*
X218816326Y-106039760D01*
X218866520Y-106039881D01*
X218924827Y-106039957D01*
X218991879Y-106040000D01*
X219068303Y-106040026D01*
X219088970Y-106040031D01*
X219168041Y-106040058D01*
X219237595Y-106040107D01*
X219298275Y-106040191D01*
X219350724Y-106040321D01*
X219395584Y-106040512D01*
X219433499Y-106040776D01*
X219465112Y-106041125D01*
X219491066Y-106041572D01*
X219512002Y-106042130D01*
X219528566Y-106042812D01*
X219541398Y-106043629D01*
X219551143Y-106044596D01*
X219558444Y-106045725D01*
X219563942Y-106047027D01*
X219568281Y-106048517D01*
X219570699Y-106049553D01*
X219590727Y-106061214D01*
X219605438Y-106076338D01*
X219615378Y-106096298D01*
X219621097Y-106122469D01*
X219623142Y-106156222D01*
X219622848Y-106180216D01*
X219621896Y-106205240D01*
X219620545Y-106222531D01*
X219618274Y-106234517D01*
X219614562Y-106243625D01*
X219608888Y-106252282D01*
X219606791Y-106255068D01*
X219602436Y-106261125D01*
X219598769Y-106266469D01*
X219595167Y-106271149D01*
X219591002Y-106275211D01*
X219585652Y-106278703D01*
X219578489Y-106281673D01*
X219568890Y-106284166D01*
X219556229Y-106286232D01*
X219539881Y-106287917D01*
X219519221Y-106289269D01*
X219493623Y-106290334D01*
X219462464Y-106291161D01*
X219425116Y-106291797D01*
X219380956Y-106292289D01*
X219329359Y-106292683D01*
X219269698Y-106293029D01*
X219201349Y-106293373D01*
X219123688Y-106293762D01*
X219093865Y-106293920D01*
X219013999Y-106294354D01*
X218943676Y-106294756D01*
X218882277Y-106295141D01*
X218829184Y-106295526D01*
X218783781Y-106295925D01*
X218745450Y-106296355D01*
X218713572Y-106296832D01*
X218687531Y-106297372D01*
X218666708Y-106297991D01*
X218650486Y-106298705D01*
X218638247Y-106299530D01*
X218629373Y-106300482D01*
X218623248Y-106301577D01*
X218619252Y-106302831D01*
X218616769Y-106304260D01*
X218615181Y-106305879D01*
X218614848Y-106306320D01*
X218612081Y-106312495D01*
X218610073Y-106323199D01*
X218608730Y-106339752D01*
X218607954Y-106363471D01*
X218607652Y-106395674D01*
X218607640Y-106405863D01*
X218607736Y-106438521D01*
X218608119Y-106462533D01*
X218608931Y-106479414D01*
X218610313Y-106490675D01*
X218612406Y-106497832D01*
X218615352Y-106502396D01*
X218616796Y-106503831D01*
X218618984Y-106505206D01*
X218622728Y-106506426D01*
X218628621Y-106507504D01*
X218637256Y-106508449D01*
X218649226Y-106509275D01*
X218665124Y-106509991D01*
X218685543Y-106510609D01*
X218711077Y-106511141D01*
X218742318Y-106511598D01*
X218779860Y-106511990D01*
X218824295Y-106512330D01*
X218876218Y-106512628D01*
X218936220Y-106512896D01*
X219004896Y-106513144D01*
X219082838Y-106513386D01*
X219126066Y-106513509D01*
X219626180Y-106514900D01*
X219649822Y-106528798D01*
X219670776Y-106545081D01*
X219684464Y-106565420D01*
X219688636Y-106574818D01*
X219691541Y-106584208D01*
X219693355Y-106595528D01*
X219694252Y-106610717D01*
X219694410Y-106631714D01*
X219694005Y-106660458D01*
X219693842Y-106668776D01*
X219693181Y-106699091D01*
X219692410Y-106721075D01*
X219691233Y-106736556D01*
X219689350Y-106747362D01*
X219686465Y-106755321D01*
X219682278Y-106762260D01*
X219677569Y-106768597D01*
X219663530Y-106782913D01*
X219646618Y-106794920D01*
X219642009Y-106797281D01*
X219638686Y-106798651D01*
X219634713Y-106799883D01*
X219629562Y-106800985D01*
X219622703Y-106801963D01*
X219613606Y-106802825D01*
X219601743Y-106803578D01*
X219586584Y-106804231D01*
X219567600Y-106804790D01*
X219544262Y-106805262D01*
X219516040Y-106805656D01*
X219482404Y-106805979D01*
X219442826Y-106806238D01*
X219396777Y-106806440D01*
X219343726Y-106806593D01*
X219283145Y-106806705D01*
X219214505Y-106806783D01*
X219137275Y-106806833D01*
X219050927Y-106806865D01*
X218958160Y-106806884D01*
X218295220Y-106806991D01*
X218273580Y-106796280D01*
X218250976Y-106780871D01*
X218235030Y-106759493D01*
X218227416Y-106741471D01*
X218226516Y-106733769D01*
X218225686Y-106716715D01*
X218224926Y-106691118D01*
X218224236Y-106657786D01*
X218223618Y-106617526D01*
X218223071Y-106571148D01*
X218222596Y-106519459D01*
X218222194Y-106463267D01*
X218221864Y-106403381D01*
X218221607Y-106340609D01*
X218221423Y-106275759D01*
X218221314Y-106209639D01*
X218221278Y-106143057D01*
X218221317Y-106076822D01*
X218221431Y-106011741D01*
X218221621Y-105948624D01*
X218221886Y-105888277D01*
X218222228Y-105831510D01*
X218222646Y-105779130D01*
X218223141Y-105731945D01*
X218223714Y-105690764D01*
X218224364Y-105656395D01*
X218225093Y-105629647D01*
X218225900Y-105611326D01*
X218226786Y-105602242D01*
X218226863Y-105601927D01*
X218237432Y-105578720D01*
X218254120Y-105558494D01*
X218274026Y-105544693D01*
X218275769Y-105543929D01*
X218279653Y-105542903D01*
X218286466Y-105541979D01*
X218296690Y-105541152D01*
X218310810Y-105540418D01*
X218329311Y-105539771D01*
X218352675Y-105539206D01*
X218381387Y-105538718D01*
X218415932Y-105538303D01*
X218456792Y-105537956D01*
X218504453Y-105537671D01*
X218559398Y-105537444D01*
X218622111Y-105537269D01*
X218693077Y-105537143D01*
X218772779Y-105537059D01*
X218861701Y-105537013D01*
X218954266Y-105537000D01*
X219049863Y-105537004D01*
X219049863Y-105537004D01*
G37*
X219049863Y-105537004D02*
X219135827Y-105537022D01*
X219212685Y-105537062D01*
X219280965Y-105537129D01*
X219341192Y-105537233D01*
X219393895Y-105537379D01*
X219439600Y-105537576D01*
X219478834Y-105537830D01*
X219512124Y-105538149D01*
X219539997Y-105538540D01*
X219562981Y-105539011D01*
X219581602Y-105539569D01*
X219596388Y-105540220D01*
X219607865Y-105540974D01*
X219616560Y-105541835D01*
X219623001Y-105542813D01*
X219627715Y-105543914D01*
X219631227Y-105545146D01*
X219633879Y-105546415D01*
X219647601Y-105556422D01*
X219661693Y-105570754D01*
X219666820Y-105577327D01*
X219682060Y-105598824D01*
X219682060Y-105678402D01*
X219681957Y-105708960D01*
X219681502Y-105731263D01*
X219680470Y-105747217D01*
X219678639Y-105758727D01*
X219675787Y-105767696D01*
X219671689Y-105776030D01*
X219670359Y-105778387D01*
X219658537Y-105794437D01*
X219643837Y-105808740D01*
X219640253Y-105811407D01*
X219621849Y-105824020D01*
X219121953Y-105826560D01*
X219039605Y-105826982D01*
X218966818Y-105827374D01*
X218902991Y-105827748D01*
X218847525Y-105828120D01*
X218799821Y-105828504D01*
X218759279Y-105828915D01*
X218725299Y-105829367D01*
X218697282Y-105829876D01*
X218674629Y-105830456D01*
X218656739Y-105831121D01*
X218643013Y-105831887D01*
X218632852Y-105832767D01*
X218625656Y-105833777D01*
X218620825Y-105834931D01*
X218617760Y-105836244D01*
X218615862Y-105837731D01*
X218614849Y-105838960D01*
X218612010Y-105845324D01*
X218609972Y-105856358D01*
X218608632Y-105873403D01*
X218607889Y-105897801D01*
X218607641Y-105930894D01*
X218607640Y-105934210D01*
X218607726Y-105965811D01*
X218608098Y-105988860D01*
X218608927Y-106004965D01*
X218610385Y-106015733D01*
X218612642Y-106022773D01*
X218615868Y-106027692D01*
X218617800Y-106029760D01*
X218619718Y-106031498D01*
X218622198Y-106033025D01*
X218625868Y-106034357D01*
X218631358Y-106035505D01*
X218639297Y-106036485D01*
X218650315Y-106037309D01*
X218665041Y-106037992D01*
X218684105Y-106038546D01*
X218708136Y-106038987D01*
X218737764Y-106039327D01*
X218773617Y-106039580D01*
X218816326Y-106039760D01*
X218866520Y-106039881D01*
X218924827Y-106039957D01*
X218991879Y-106040000D01*
X219068303Y-106040026D01*
X219088970Y-106040031D01*
X219168041Y-106040058D01*
X219237595Y-106040107D01*
X219298275Y-106040191D01*
X219350724Y-106040321D01*
X219395584Y-106040512D01*
X219433499Y-106040776D01*
X219465112Y-106041125D01*
X219491066Y-106041572D01*
X219512002Y-106042130D01*
X219528566Y-106042812D01*
X219541398Y-106043629D01*
X219551143Y-106044596D01*
X219558444Y-106045725D01*
X219563942Y-106047027D01*
X219568281Y-106048517D01*
X219570699Y-106049553D01*
X219590727Y-106061214D01*
X219605438Y-106076338D01*
X219615378Y-106096298D01*
X219621097Y-106122469D01*
X219623142Y-106156222D01*
X219622848Y-106180216D01*
X219621896Y-106205240D01*
X219620545Y-106222531D01*
X219618274Y-106234517D01*
X219614562Y-106243625D01*
X219608888Y-106252282D01*
X219606791Y-106255068D01*
X219602436Y-106261125D01*
X219598769Y-106266469D01*
X219595167Y-106271149D01*
X219591002Y-106275211D01*
X219585652Y-106278703D01*
X219578489Y-106281673D01*
X219568890Y-106284166D01*
X219556229Y-106286232D01*
X219539881Y-106287917D01*
X219519221Y-106289269D01*
X219493623Y-106290334D01*
X219462464Y-106291161D01*
X219425116Y-106291797D01*
X219380956Y-106292289D01*
X219329359Y-106292683D01*
X219269698Y-106293029D01*
X219201349Y-106293373D01*
X219123688Y-106293762D01*
X219093865Y-106293920D01*
X219013999Y-106294354D01*
X218943676Y-106294756D01*
X218882277Y-106295141D01*
X218829184Y-106295526D01*
X218783781Y-106295925D01*
X218745450Y-106296355D01*
X218713572Y-106296832D01*
X218687531Y-106297372D01*
X218666708Y-106297991D01*
X218650486Y-106298705D01*
X218638247Y-106299530D01*
X218629373Y-106300482D01*
X218623248Y-106301577D01*
X218619252Y-106302831D01*
X218616769Y-106304260D01*
X218615181Y-106305879D01*
X218614848Y-106306320D01*
X218612081Y-106312495D01*
X218610073Y-106323199D01*
X218608730Y-106339752D01*
X218607954Y-106363471D01*
X218607652Y-106395674D01*
X218607640Y-106405863D01*
X218607736Y-106438521D01*
X218608119Y-106462533D01*
X218608931Y-106479414D01*
X218610313Y-106490675D01*
X218612406Y-106497832D01*
X218615352Y-106502396D01*
X218616796Y-106503831D01*
X218618984Y-106505206D01*
X218622728Y-106506426D01*
X218628621Y-106507504D01*
X218637256Y-106508449D01*
X218649226Y-106509275D01*
X218665124Y-106509991D01*
X218685543Y-106510609D01*
X218711077Y-106511141D01*
X218742318Y-106511598D01*
X218779860Y-106511990D01*
X218824295Y-106512330D01*
X218876218Y-106512628D01*
X218936220Y-106512896D01*
X219004896Y-106513144D01*
X219082838Y-106513386D01*
X219126066Y-106513509D01*
X219626180Y-106514900D01*
X219649822Y-106528798D01*
X219670776Y-106545081D01*
X219684464Y-106565420D01*
X219688636Y-106574818D01*
X219691541Y-106584208D01*
X219693355Y-106595528D01*
X219694252Y-106610717D01*
X219694410Y-106631714D01*
X219694005Y-106660458D01*
X219693842Y-106668776D01*
X219693181Y-106699091D01*
X219692410Y-106721075D01*
X219691233Y-106736556D01*
X219689350Y-106747362D01*
X219686465Y-106755321D01*
X219682278Y-106762260D01*
X219677569Y-106768597D01*
X219663530Y-106782913D01*
X219646618Y-106794920D01*
X219642009Y-106797281D01*
X219638686Y-106798651D01*
X219634713Y-106799883D01*
X219629562Y-106800985D01*
X219622703Y-106801963D01*
X219613606Y-106802825D01*
X219601743Y-106803578D01*
X219586584Y-106804231D01*
X219567600Y-106804790D01*
X219544262Y-106805262D01*
X219516040Y-106805656D01*
X219482404Y-106805979D01*
X219442826Y-106806238D01*
X219396777Y-106806440D01*
X219343726Y-106806593D01*
X219283145Y-106806705D01*
X219214505Y-106806783D01*
X219137275Y-106806833D01*
X219050927Y-106806865D01*
X218958160Y-106806884D01*
X218295220Y-106806991D01*
X218273580Y-106796280D01*
X218250976Y-106780871D01*
X218235030Y-106759493D01*
X218227416Y-106741471D01*
X218226516Y-106733769D01*
X218225686Y-106716715D01*
X218224926Y-106691118D01*
X218224236Y-106657786D01*
X218223618Y-106617526D01*
X218223071Y-106571148D01*
X218222596Y-106519459D01*
X218222194Y-106463267D01*
X218221864Y-106403381D01*
X218221607Y-106340609D01*
X218221423Y-106275759D01*
X218221314Y-106209639D01*
X218221278Y-106143057D01*
X218221317Y-106076822D01*
X218221431Y-106011741D01*
X218221621Y-105948624D01*
X218221886Y-105888277D01*
X218222228Y-105831510D01*
X218222646Y-105779130D01*
X218223141Y-105731945D01*
X218223714Y-105690764D01*
X218224364Y-105656395D01*
X218225093Y-105629647D01*
X218225900Y-105611326D01*
X218226786Y-105602242D01*
X218226863Y-105601927D01*
X218237432Y-105578720D01*
X218254120Y-105558494D01*
X218274026Y-105544693D01*
X218275769Y-105543929D01*
X218279653Y-105542903D01*
X218286466Y-105541979D01*
X218296690Y-105541152D01*
X218310810Y-105540418D01*
X218329311Y-105539771D01*
X218352675Y-105539206D01*
X218381387Y-105538718D01*
X218415932Y-105538303D01*
X218456792Y-105537956D01*
X218504453Y-105537671D01*
X218559398Y-105537444D01*
X218622111Y-105537269D01*
X218693077Y-105537143D01*
X218772779Y-105537059D01*
X218861701Y-105537013D01*
X218954266Y-105537000D01*
X219049863Y-105537004D01*
G36*
X220940463Y-105537060D02*
X221025964Y-105537102D01*
X221102459Y-105537194D01*
X221170524Y-105537355D01*
X221230736Y-105537602D01*
X221283673Y-105537956D01*
X221329910Y-105538433D01*
X221370026Y-105539054D01*
X221404596Y-105539836D01*
X221434198Y-105540799D01*
X221459408Y-105541961D01*
X221480803Y-105543340D01*
X221498960Y-105544955D01*
X221514456Y-105546826D01*
X221527868Y-105548969D01*
X221539773Y-105551405D01*
X221550746Y-105554152D01*
X221561366Y-105557228D01*
X221571820Y-105560526D01*
X221622684Y-105581438D01*
X221665749Y-105608844D01*
X221701115Y-105642851D01*
X221728883Y-105683563D01*
X221749153Y-105731087D01*
X221755641Y-105753856D01*
X221759701Y-105776971D01*
X221762609Y-105807201D01*
X221764362Y-105842065D01*
X221764957Y-105879079D01*
X221764390Y-105915763D01*
X221762658Y-105949636D01*
X221759757Y-105978216D01*
X221755989Y-105997932D01*
X221741197Y-106039985D01*
X221721666Y-106076756D01*
X221703815Y-106100304D01*
X221690381Y-106112560D01*
X221672518Y-106125454D01*
X221653037Y-106137324D01*
X221634746Y-106146503D01*
X221620459Y-106151327D01*
X221617082Y-106151680D01*
X221610864Y-106152922D01*
X221613072Y-106156120D01*
X221622351Y-106160478D01*
X221637348Y-106165201D01*
X221642248Y-106166448D01*
X221660564Y-106172172D01*
X221682190Y-106180734D01*
X221697284Y-106187747D01*
X221732256Y-106209163D01*
X221760771Y-106235220D01*
X221783128Y-106266633D01*
X221799628Y-106304116D01*
X221810573Y-106348386D01*
X221816261Y-106400157D01*
X221816995Y-106460144D01*
X221816630Y-106471720D01*
X221812686Y-106528723D01*
X221805130Y-106577498D01*
X221793461Y-106619486D01*
X221777180Y-106656130D01*
X221755787Y-106688872D01*
X221731932Y-106716010D01*
X221704367Y-106740724D01*
X221674821Y-106760463D01*
X221641676Y-106775848D01*
X221603311Y-106787500D01*
X221558108Y-106796037D01*
X221507974Y-106801773D01*
X221494373Y-106802529D01*
X221471902Y-106803223D01*
X221441319Y-106803853D01*
X221403383Y-106804419D01*
X221358853Y-106804923D01*
X221308486Y-106805364D01*
X221253042Y-106805743D01*
X221193280Y-106806059D01*
X221129956Y-106806314D01*
X221063831Y-106806506D01*
X220995663Y-106806638D01*
X220926210Y-106806708D01*
X220856231Y-106806718D01*
X220786484Y-106806667D01*
X220717729Y-106806555D01*
X220650722Y-106806384D01*
X220586224Y-106806152D01*
X220524992Y-106805861D01*
X220467786Y-106805510D01*
X220415363Y-106805101D01*
X220368483Y-106804632D01*
X220327903Y-106804105D01*
X220294383Y-106803520D01*
X220268680Y-106802877D01*
X220251554Y-106802175D01*
X220243763Y-106801417D01*
X220243551Y-106801348D01*
X220219082Y-106787151D01*
X220199817Y-106767227D01*
X220190382Y-106749937D01*
X220189100Y-106745836D01*
X220187963Y-106740323D01*
X220186963Y-106732827D01*
X220186093Y-106722782D01*
X220185349Y-106709616D01*
X220184722Y-106692763D01*
X220184207Y-106671654D01*
X220183796Y-106645718D01*
X220183484Y-106614389D01*
X220183263Y-106577097D01*
X220183127Y-106533273D01*
X220183070Y-106482348D01*
X220183085Y-106423755D01*
X220183105Y-106406950D01*
X220563517Y-106406950D01*
X220563738Y-106436849D01*
X220564305Y-106463352D01*
X220565152Y-106484738D01*
X220566210Y-106499286D01*
X220567327Y-106505174D01*
X220569751Y-106508409D01*
X220572798Y-106511214D01*
X220577161Y-106513615D01*
X220583531Y-106515640D01*
X220592600Y-106517315D01*
X220605060Y-106518669D01*
X220621602Y-106519728D01*
X220642917Y-106520519D01*
X220669698Y-106521071D01*
X220702636Y-106521409D01*
X220742423Y-106521562D01*
X220789750Y-106521557D01*
X220845309Y-106521420D01*
X220909792Y-106521180D01*
X220967300Y-106520935D01*
X221041078Y-106520581D01*
X221105333Y-106520197D01*
X221160702Y-106519767D01*
X221207821Y-106519279D01*
X221247328Y-106518718D01*
X221279859Y-106518070D01*
X221306051Y-106517323D01*
X221326541Y-106516462D01*
X221341965Y-106515473D01*
X221352961Y-106514342D01*
X221360166Y-106513056D01*
X221362517Y-106512361D01*
X221387074Y-106498635D01*
X221405642Y-106478436D01*
X221418171Y-106453533D01*
X221424612Y-106425697D01*
X221424915Y-106396697D01*
X221419030Y-106368303D01*
X221406908Y-106342286D01*
X221388500Y-106320415D01*
X221368293Y-106306620D01*
X221364279Y-106304719D01*
X221359757Y-106303067D01*
X221354016Y-106301644D01*
X221346343Y-106300429D01*
X221336026Y-106299401D01*
X221322351Y-106298539D01*
X221304607Y-106297824D01*
X221282081Y-106297234D01*
X221254061Y-106296750D01*
X221219834Y-106296351D01*
X221178688Y-106296015D01*
X221129911Y-106295723D01*
X221072789Y-106295455D01*
X221006611Y-106295188D01*
X220966183Y-106295036D01*
X220894821Y-106294775D01*
X220832924Y-106294570D01*
X220779798Y-106294437D01*
X220734747Y-106294392D01*
X220697077Y-106294451D01*
X220666093Y-106294630D01*
X220641100Y-106294943D01*
X220621404Y-106295408D01*
X220606310Y-106296039D01*
X220595122Y-106296853D01*
X220587147Y-106297864D01*
X220581689Y-106299090D01*
X220578054Y-106300545D01*
X220575547Y-106302245D01*
X220573753Y-106303926D01*
X220570087Y-106308222D01*
X220567410Y-106313710D01*
X220565569Y-106321922D01*
X220564412Y-106334390D01*
X220563787Y-106352648D01*
X220563541Y-106378227D01*
X220563517Y-106406950D01*
X220183105Y-106406950D01*
X220183165Y-106356923D01*
X220183303Y-106281285D01*
X220183494Y-106196272D01*
X220183579Y-106161443D01*
X220184153Y-105928947D01*
X220563440Y-105928947D01*
X220563513Y-105961566D01*
X220563838Y-105985579D01*
X220564575Y-106002541D01*
X220565882Y-106014007D01*
X220567920Y-106021530D01*
X220570848Y-106026664D01*
X220573792Y-106029952D01*
X220575950Y-106031941D01*
X220578635Y-106033654D01*
X220582566Y-106035108D01*
X220588461Y-106036321D01*
X220597037Y-106037309D01*
X220609012Y-106038091D01*
X220625105Y-106038683D01*
X220646032Y-106039102D01*
X220672513Y-106039366D01*
X220705264Y-106039492D01*
X220745004Y-106039498D01*
X220792451Y-106039400D01*
X220848322Y-106039217D01*
X220913335Y-106038964D01*
X220943362Y-106038842D01*
X221302580Y-106037380D01*
X221326781Y-106025462D01*
X221350450Y-106008691D01*
X221367207Y-105986309D01*
X221377080Y-105960127D01*
X221380098Y-105931954D01*
X221376287Y-105903600D01*
X221365675Y-105876875D01*
X221348291Y-105853591D01*
X221324161Y-105835556D01*
X221323875Y-105835403D01*
X221302580Y-105824020D01*
X220942480Y-105822586D01*
X220873003Y-105822324D01*
X220812977Y-105822138D01*
X220761693Y-105822042D01*
X220718442Y-105822051D01*
X220682515Y-105822177D01*
X220653204Y-105822435D01*
X220629799Y-105822838D01*
X220611591Y-105823400D01*
X220597872Y-105824135D01*
X220587932Y-105825056D01*
X220581064Y-105826176D01*
X220576557Y-105827511D01*
X220573703Y-105829072D01*
X220572910Y-105829723D01*
X220569496Y-105833650D01*
X220567010Y-105839332D01*
X220565309Y-105848286D01*
X220564247Y-105862026D01*
X220563680Y-105882069D01*
X220563462Y-105909929D01*
X220563440Y-105928947D01*
X220184153Y-105928947D01*
X220184980Y-105594626D01*
X220199538Y-105575540D01*
X220212239Y-105561384D01*
X220226174Y-105549339D01*
X220230018Y-105546746D01*
X220232681Y-105545277D01*
X220235957Y-105543965D01*
X220240401Y-105542800D01*
X220246566Y-105541773D01*
X220255007Y-105540876D01*
X220266278Y-105540100D01*
X220280933Y-105539436D01*
X220299527Y-105538876D01*
X220322614Y-105538410D01*
X220350747Y-105538031D01*
X220384482Y-105537729D01*
X220424371Y-105537496D01*
X220470971Y-105537322D01*
X220524834Y-105537200D01*
X220586514Y-105537120D01*
X220656567Y-105537074D01*
X220735546Y-105537053D01*
X220824006Y-105537048D01*
X220845380Y-105537048D01*
X220940463Y-105537060D01*
X220940463Y-105537060D01*
G37*
X220940463Y-105537060D02*
X221025964Y-105537102D01*
X221102459Y-105537194D01*
X221170524Y-105537355D01*
X221230736Y-105537602D01*
X221283673Y-105537956D01*
X221329910Y-105538433D01*
X221370026Y-105539054D01*
X221404596Y-105539836D01*
X221434198Y-105540799D01*
X221459408Y-105541961D01*
X221480803Y-105543340D01*
X221498960Y-105544955D01*
X221514456Y-105546826D01*
X221527868Y-105548969D01*
X221539773Y-105551405D01*
X221550746Y-105554152D01*
X221561366Y-105557228D01*
X221571820Y-105560526D01*
X221622684Y-105581438D01*
X221665749Y-105608844D01*
X221701115Y-105642851D01*
X221728883Y-105683563D01*
X221749153Y-105731087D01*
X221755641Y-105753856D01*
X221759701Y-105776971D01*
X221762609Y-105807201D01*
X221764362Y-105842065D01*
X221764957Y-105879079D01*
X221764390Y-105915763D01*
X221762658Y-105949636D01*
X221759757Y-105978216D01*
X221755989Y-105997932D01*
X221741197Y-106039985D01*
X221721666Y-106076756D01*
X221703815Y-106100304D01*
X221690381Y-106112560D01*
X221672518Y-106125454D01*
X221653037Y-106137324D01*
X221634746Y-106146503D01*
X221620459Y-106151327D01*
X221617082Y-106151680D01*
X221610864Y-106152922D01*
X221613072Y-106156120D01*
X221622351Y-106160478D01*
X221637348Y-106165201D01*
X221642248Y-106166448D01*
X221660564Y-106172172D01*
X221682190Y-106180734D01*
X221697284Y-106187747D01*
X221732256Y-106209163D01*
X221760771Y-106235220D01*
X221783128Y-106266633D01*
X221799628Y-106304116D01*
X221810573Y-106348386D01*
X221816261Y-106400157D01*
X221816995Y-106460144D01*
X221816630Y-106471720D01*
X221812686Y-106528723D01*
X221805130Y-106577498D01*
X221793461Y-106619486D01*
X221777180Y-106656130D01*
X221755787Y-106688872D01*
X221731932Y-106716010D01*
X221704367Y-106740724D01*
X221674821Y-106760463D01*
X221641676Y-106775848D01*
X221603311Y-106787500D01*
X221558108Y-106796037D01*
X221507974Y-106801773D01*
X221494373Y-106802529D01*
X221471902Y-106803223D01*
X221441319Y-106803853D01*
X221403383Y-106804419D01*
X221358853Y-106804923D01*
X221308486Y-106805364D01*
X221253042Y-106805743D01*
X221193280Y-106806059D01*
X221129956Y-106806314D01*
X221063831Y-106806506D01*
X220995663Y-106806638D01*
X220926210Y-106806708D01*
X220856231Y-106806718D01*
X220786484Y-106806667D01*
X220717729Y-106806555D01*
X220650722Y-106806384D01*
X220586224Y-106806152D01*
X220524992Y-106805861D01*
X220467786Y-106805510D01*
X220415363Y-106805101D01*
X220368483Y-106804632D01*
X220327903Y-106804105D01*
X220294383Y-106803520D01*
X220268680Y-106802877D01*
X220251554Y-106802175D01*
X220243763Y-106801417D01*
X220243551Y-106801348D01*
X220219082Y-106787151D01*
X220199817Y-106767227D01*
X220190382Y-106749937D01*
X220189100Y-106745836D01*
X220187963Y-106740323D01*
X220186963Y-106732827D01*
X220186093Y-106722782D01*
X220185349Y-106709616D01*
X220184722Y-106692763D01*
X220184207Y-106671654D01*
X220183796Y-106645718D01*
X220183484Y-106614389D01*
X220183263Y-106577097D01*
X220183127Y-106533273D01*
X220183070Y-106482348D01*
X220183085Y-106423755D01*
X220183105Y-106406950D01*
X220563517Y-106406950D01*
X220563738Y-106436849D01*
X220564305Y-106463352D01*
X220565152Y-106484738D01*
X220566210Y-106499286D01*
X220567327Y-106505174D01*
X220569751Y-106508409D01*
X220572798Y-106511214D01*
X220577161Y-106513615D01*
X220583531Y-106515640D01*
X220592600Y-106517315D01*
X220605060Y-106518669D01*
X220621602Y-106519728D01*
X220642917Y-106520519D01*
X220669698Y-106521071D01*
X220702636Y-106521409D01*
X220742423Y-106521562D01*
X220789750Y-106521557D01*
X220845309Y-106521420D01*
X220909792Y-106521180D01*
X220967300Y-106520935D01*
X221041078Y-106520581D01*
X221105333Y-106520197D01*
X221160702Y-106519767D01*
X221207821Y-106519279D01*
X221247328Y-106518718D01*
X221279859Y-106518070D01*
X221306051Y-106517323D01*
X221326541Y-106516462D01*
X221341965Y-106515473D01*
X221352961Y-106514342D01*
X221360166Y-106513056D01*
X221362517Y-106512361D01*
X221387074Y-106498635D01*
X221405642Y-106478436D01*
X221418171Y-106453533D01*
X221424612Y-106425697D01*
X221424915Y-106396697D01*
X221419030Y-106368303D01*
X221406908Y-106342286D01*
X221388500Y-106320415D01*
X221368293Y-106306620D01*
X221364279Y-106304719D01*
X221359757Y-106303067D01*
X221354016Y-106301644D01*
X221346343Y-106300429D01*
X221336026Y-106299401D01*
X221322351Y-106298539D01*
X221304607Y-106297824D01*
X221282081Y-106297234D01*
X221254061Y-106296750D01*
X221219834Y-106296351D01*
X221178688Y-106296015D01*
X221129911Y-106295723D01*
X221072789Y-106295455D01*
X221006611Y-106295188D01*
X220966183Y-106295036D01*
X220894821Y-106294775D01*
X220832924Y-106294570D01*
X220779798Y-106294437D01*
X220734747Y-106294392D01*
X220697077Y-106294451D01*
X220666093Y-106294630D01*
X220641100Y-106294943D01*
X220621404Y-106295408D01*
X220606310Y-106296039D01*
X220595122Y-106296853D01*
X220587147Y-106297864D01*
X220581689Y-106299090D01*
X220578054Y-106300545D01*
X220575547Y-106302245D01*
X220573753Y-106303926D01*
X220570087Y-106308222D01*
X220567410Y-106313710D01*
X220565569Y-106321922D01*
X220564412Y-106334390D01*
X220563787Y-106352648D01*
X220563541Y-106378227D01*
X220563517Y-106406950D01*
X220183105Y-106406950D01*
X220183165Y-106356923D01*
X220183303Y-106281285D01*
X220183494Y-106196272D01*
X220183579Y-106161443D01*
X220184153Y-105928947D01*
X220563440Y-105928947D01*
X220563513Y-105961566D01*
X220563838Y-105985579D01*
X220564575Y-106002541D01*
X220565882Y-106014007D01*
X220567920Y-106021530D01*
X220570848Y-106026664D01*
X220573792Y-106029952D01*
X220575950Y-106031941D01*
X220578635Y-106033654D01*
X220582566Y-106035108D01*
X220588461Y-106036321D01*
X220597037Y-106037309D01*
X220609012Y-106038091D01*
X220625105Y-106038683D01*
X220646032Y-106039102D01*
X220672513Y-106039366D01*
X220705264Y-106039492D01*
X220745004Y-106039498D01*
X220792451Y-106039400D01*
X220848322Y-106039217D01*
X220913335Y-106038964D01*
X220943362Y-106038842D01*
X221302580Y-106037380D01*
X221326781Y-106025462D01*
X221350450Y-106008691D01*
X221367207Y-105986309D01*
X221377080Y-105960127D01*
X221380098Y-105931954D01*
X221376287Y-105903600D01*
X221365675Y-105876875D01*
X221348291Y-105853591D01*
X221324161Y-105835556D01*
X221323875Y-105835403D01*
X221302580Y-105824020D01*
X220942480Y-105822586D01*
X220873003Y-105822324D01*
X220812977Y-105822138D01*
X220761693Y-105822042D01*
X220718442Y-105822051D01*
X220682515Y-105822177D01*
X220653204Y-105822435D01*
X220629799Y-105822838D01*
X220611591Y-105823400D01*
X220597872Y-105824135D01*
X220587932Y-105825056D01*
X220581064Y-105826176D01*
X220576557Y-105827511D01*
X220573703Y-105829072D01*
X220572910Y-105829723D01*
X220569496Y-105833650D01*
X220567010Y-105839332D01*
X220565309Y-105848286D01*
X220564247Y-105862026D01*
X220563680Y-105882069D01*
X220563462Y-105909929D01*
X220563440Y-105928947D01*
X220184153Y-105928947D01*
X220184980Y-105594626D01*
X220199538Y-105575540D01*
X220212239Y-105561384D01*
X220226174Y-105549339D01*
X220230018Y-105546746D01*
X220232681Y-105545277D01*
X220235957Y-105543965D01*
X220240401Y-105542800D01*
X220246566Y-105541773D01*
X220255007Y-105540876D01*
X220266278Y-105540100D01*
X220280933Y-105539436D01*
X220299527Y-105538876D01*
X220322614Y-105538410D01*
X220350747Y-105538031D01*
X220384482Y-105537729D01*
X220424371Y-105537496D01*
X220470971Y-105537322D01*
X220524834Y-105537200D01*
X220586514Y-105537120D01*
X220656567Y-105537074D01*
X220735546Y-105537053D01*
X220824006Y-105537048D01*
X220845380Y-105537048D01*
X220940463Y-105537060D01*
G36*
X208547864Y-105059484D02*
X208615736Y-105059508D01*
X208674783Y-105059566D01*
X208725674Y-105059674D01*
X208769075Y-105059844D01*
X208805656Y-105060094D01*
X208836082Y-105060437D01*
X208861023Y-105060888D01*
X208881145Y-105061462D01*
X208897117Y-105062173D01*
X208909606Y-105063038D01*
X208919280Y-105064069D01*
X208926807Y-105065283D01*
X208932854Y-105066694D01*
X208938089Y-105068317D01*
X208942602Y-105069949D01*
X208970827Y-105084903D01*
X208997441Y-105106873D01*
X209019112Y-105132861D01*
X209026620Y-105145566D01*
X209032894Y-105162247D01*
X209038460Y-105184866D01*
X209042131Y-105207952D01*
X209045474Y-105231287D01*
X209049884Y-105254212D01*
X209054457Y-105272078D01*
X209054848Y-105273288D01*
X209068903Y-105301454D01*
X209090704Y-105327709D01*
X209117859Y-105349450D01*
X209132350Y-105357644D01*
X209161380Y-105371900D01*
X210395820Y-105376980D01*
X210422172Y-105390874D01*
X210453415Y-105411864D01*
X210479818Y-105438471D01*
X210496274Y-105463340D01*
X210504025Y-105485530D01*
X210508556Y-105513703D01*
X210509681Y-105544143D01*
X210507213Y-105573136D01*
X210502747Y-105592134D01*
X210489046Y-105619926D01*
X210467826Y-105646644D01*
X210441592Y-105669550D01*
X210419709Y-105682794D01*
X210390740Y-105697020D01*
X209623660Y-105697996D01*
X209515249Y-105698116D01*
X209416593Y-105698188D01*
X209327286Y-105698207D01*
X209246924Y-105698172D01*
X209175101Y-105698079D01*
X209111413Y-105697926D01*
X209055453Y-105697710D01*
X209006817Y-105697428D01*
X208965100Y-105697078D01*
X208929897Y-105696657D01*
X208900802Y-105696162D01*
X208877410Y-105695590D01*
X208859317Y-105694939D01*
X208846116Y-105694206D01*
X208837403Y-105693388D01*
X208833361Y-105692662D01*
X208795384Y-105677408D01*
X208763125Y-105654256D01*
X208737638Y-105624114D01*
X208723938Y-105598273D01*
X208719992Y-105585028D01*
X208716018Y-105565326D01*
X208712724Y-105542845D01*
X208712025Y-105536596D01*
X208703576Y-105492881D01*
X208687866Y-105456156D01*
X208664663Y-105426073D01*
X208633734Y-105402283D01*
X208615901Y-105392917D01*
X208610668Y-105390616D01*
X208605151Y-105388655D01*
X208598513Y-105387000D01*
X208589916Y-105385613D01*
X208578523Y-105384461D01*
X208563497Y-105383507D01*
X208543999Y-105382716D01*
X208519193Y-105382052D01*
X208488241Y-105381480D01*
X208450305Y-105380964D01*
X208404548Y-105380468D01*
X208350132Y-105379958D01*
X208300320Y-105379520D01*
X208238533Y-105378977D01*
X208186075Y-105378483D01*
X208142115Y-105378003D01*
X208105824Y-105377499D01*
X208076369Y-105376933D01*
X208052921Y-105376268D01*
X208034649Y-105375468D01*
X208020722Y-105374495D01*
X208010309Y-105373313D01*
X208002580Y-105371883D01*
X207996705Y-105370170D01*
X207991852Y-105368136D01*
X207987192Y-105365743D01*
X207986771Y-105365518D01*
X207954420Y-105343989D01*
X207929676Y-105317359D01*
X207914477Y-105292031D01*
X207906344Y-105274327D01*
X207901653Y-105259047D01*
X207899505Y-105241976D01*
X207899000Y-105219500D01*
X207899528Y-105196622D01*
X207901718Y-105179651D01*
X207906474Y-105164358D01*
X207914587Y-105146750D01*
X207936620Y-105113158D01*
X207965215Y-105087271D01*
X207999117Y-105069680D01*
X208004116Y-105067903D01*
X208009444Y-105066345D01*
X208015767Y-105064991D01*
X208023753Y-105063829D01*
X208034068Y-105062842D01*
X208047379Y-105062017D01*
X208064354Y-105061339D01*
X208085658Y-105060794D01*
X208111959Y-105060367D01*
X208143923Y-105060044D01*
X208182217Y-105059810D01*
X208227509Y-105059652D01*
X208280464Y-105059554D01*
X208341751Y-105059502D01*
X208412034Y-105059482D01*
X208470500Y-105059480D01*
X208547864Y-105059484D01*
X208547864Y-105059484D01*
G37*
X208547864Y-105059484D02*
X208615736Y-105059508D01*
X208674783Y-105059566D01*
X208725674Y-105059674D01*
X208769075Y-105059844D01*
X208805656Y-105060094D01*
X208836082Y-105060437D01*
X208861023Y-105060888D01*
X208881145Y-105061462D01*
X208897117Y-105062173D01*
X208909606Y-105063038D01*
X208919280Y-105064069D01*
X208926807Y-105065283D01*
X208932854Y-105066694D01*
X208938089Y-105068317D01*
X208942602Y-105069949D01*
X208970827Y-105084903D01*
X208997441Y-105106873D01*
X209019112Y-105132861D01*
X209026620Y-105145566D01*
X209032894Y-105162247D01*
X209038460Y-105184866D01*
X209042131Y-105207952D01*
X209045474Y-105231287D01*
X209049884Y-105254212D01*
X209054457Y-105272078D01*
X209054848Y-105273288D01*
X209068903Y-105301454D01*
X209090704Y-105327709D01*
X209117859Y-105349450D01*
X209132350Y-105357644D01*
X209161380Y-105371900D01*
X210395820Y-105376980D01*
X210422172Y-105390874D01*
X210453415Y-105411864D01*
X210479818Y-105438471D01*
X210496274Y-105463340D01*
X210504025Y-105485530D01*
X210508556Y-105513703D01*
X210509681Y-105544143D01*
X210507213Y-105573136D01*
X210502747Y-105592134D01*
X210489046Y-105619926D01*
X210467826Y-105646644D01*
X210441592Y-105669550D01*
X210419709Y-105682794D01*
X210390740Y-105697020D01*
X209623660Y-105697996D01*
X209515249Y-105698116D01*
X209416593Y-105698188D01*
X209327286Y-105698207D01*
X209246924Y-105698172D01*
X209175101Y-105698079D01*
X209111413Y-105697926D01*
X209055453Y-105697710D01*
X209006817Y-105697428D01*
X208965100Y-105697078D01*
X208929897Y-105696657D01*
X208900802Y-105696162D01*
X208877410Y-105695590D01*
X208859317Y-105694939D01*
X208846116Y-105694206D01*
X208837403Y-105693388D01*
X208833361Y-105692662D01*
X208795384Y-105677408D01*
X208763125Y-105654256D01*
X208737638Y-105624114D01*
X208723938Y-105598273D01*
X208719992Y-105585028D01*
X208716018Y-105565326D01*
X208712724Y-105542845D01*
X208712025Y-105536596D01*
X208703576Y-105492881D01*
X208687866Y-105456156D01*
X208664663Y-105426073D01*
X208633734Y-105402283D01*
X208615901Y-105392917D01*
X208610668Y-105390616D01*
X208605151Y-105388655D01*
X208598513Y-105387000D01*
X208589916Y-105385613D01*
X208578523Y-105384461D01*
X208563497Y-105383507D01*
X208543999Y-105382716D01*
X208519193Y-105382052D01*
X208488241Y-105381480D01*
X208450305Y-105380964D01*
X208404548Y-105380468D01*
X208350132Y-105379958D01*
X208300320Y-105379520D01*
X208238533Y-105378977D01*
X208186075Y-105378483D01*
X208142115Y-105378003D01*
X208105824Y-105377499D01*
X208076369Y-105376933D01*
X208052921Y-105376268D01*
X208034649Y-105375468D01*
X208020722Y-105374495D01*
X208010309Y-105373313D01*
X208002580Y-105371883D01*
X207996705Y-105370170D01*
X207991852Y-105368136D01*
X207987192Y-105365743D01*
X207986771Y-105365518D01*
X207954420Y-105343989D01*
X207929676Y-105317359D01*
X207914477Y-105292031D01*
X207906344Y-105274327D01*
X207901653Y-105259047D01*
X207899505Y-105241976D01*
X207899000Y-105219500D01*
X207899528Y-105196622D01*
X207901718Y-105179651D01*
X207906474Y-105164358D01*
X207914587Y-105146750D01*
X207936620Y-105113158D01*
X207965215Y-105087271D01*
X207999117Y-105069680D01*
X208004116Y-105067903D01*
X208009444Y-105066345D01*
X208015767Y-105064991D01*
X208023753Y-105063829D01*
X208034068Y-105062842D01*
X208047379Y-105062017D01*
X208064354Y-105061339D01*
X208085658Y-105060794D01*
X208111959Y-105060367D01*
X208143923Y-105060044D01*
X208182217Y-105059810D01*
X208227509Y-105059652D01*
X208280464Y-105059554D01*
X208341751Y-105059502D01*
X208412034Y-105059482D01*
X208470500Y-105059480D01*
X208547864Y-105059484D01*
G36*
X207432529Y-105057406D02*
X207449771Y-105059084D01*
X207464140Y-105062765D01*
X207479271Y-105069135D01*
X207483529Y-105071195D01*
X207515613Y-105092365D01*
X207542359Y-105120927D01*
X207561780Y-105154682D01*
X207564043Y-105160332D01*
X207572368Y-105194548D01*
X207573543Y-105231386D01*
X207567773Y-105267326D01*
X207555975Y-105297568D01*
X207532761Y-105330160D01*
X207503248Y-105355691D01*
X207468967Y-105373574D01*
X207431449Y-105383221D01*
X207392225Y-105384045D01*
X207352860Y-105375471D01*
X207318214Y-105358561D01*
X207289806Y-105334851D01*
X207267964Y-105305802D01*
X207253015Y-105272876D01*
X207245286Y-105237535D01*
X207245103Y-105201241D01*
X207252794Y-105165457D01*
X207268686Y-105131644D01*
X207291818Y-105102538D01*
X207317071Y-105080994D01*
X207343368Y-105066942D01*
X207373454Y-105059313D01*
X207408780Y-105057040D01*
X207432529Y-105057406D01*
X207432529Y-105057406D01*
G37*
X207432529Y-105057406D02*
X207449771Y-105059084D01*
X207464140Y-105062765D01*
X207479271Y-105069135D01*
X207483529Y-105071195D01*
X207515613Y-105092365D01*
X207542359Y-105120927D01*
X207561780Y-105154682D01*
X207564043Y-105160332D01*
X207572368Y-105194548D01*
X207573543Y-105231386D01*
X207567773Y-105267326D01*
X207555975Y-105297568D01*
X207532761Y-105330160D01*
X207503248Y-105355691D01*
X207468967Y-105373574D01*
X207431449Y-105383221D01*
X207392225Y-105384045D01*
X207352860Y-105375471D01*
X207318214Y-105358561D01*
X207289806Y-105334851D01*
X207267964Y-105305802D01*
X207253015Y-105272876D01*
X207245286Y-105237535D01*
X207245103Y-105201241D01*
X207252794Y-105165457D01*
X207268686Y-105131644D01*
X207291818Y-105102538D01*
X207317071Y-105080994D01*
X207343368Y-105066942D01*
X207373454Y-105059313D01*
X207408780Y-105057040D01*
X207432529Y-105057406D01*
D14*
X168716200Y-116335200D02*
X166716200Y-116335200D01*
X166716200Y-114195200D02*
X168716200Y-114195200D01*
X177968600Y-90814200D02*
X180628600Y-90814200D01*
X177968600Y-85674200D02*
X177968600Y-90814200D01*
X180628600Y-85674200D02*
X180628600Y-90814200D01*
X177968600Y-85674200D02*
X180628600Y-85674200D01*
X177968600Y-84404200D02*
X177968600Y-83074200D01*
X177968600Y-83074200D02*
X179298600Y-83074200D01*
X189315400Y-90788800D02*
X189315400Y-85588800D01*
X184175400Y-90788800D02*
X189315400Y-90788800D01*
X181575400Y-85588800D02*
X189315400Y-85588800D01*
X184175400Y-90788800D02*
X184175400Y-88188800D01*
X184175400Y-88188800D02*
X181575400Y-88188800D01*
X181575400Y-88188800D02*
X181575400Y-85588800D01*
X182905400Y-90788800D02*
X181575400Y-90788800D01*
X181575400Y-90788800D02*
X181575400Y-89458800D01*
D13*
X183388095Y-96708981D02*
X183388095Y-97518505D01*
X183435714Y-97613743D01*
X183483333Y-97661362D01*
X183578571Y-97708981D01*
X183769048Y-97708981D01*
X183864286Y-97661362D01*
X183911905Y-97613743D01*
X183959524Y-97518505D01*
X183959524Y-96708981D01*
X184388095Y-96804219D02*
X184435714Y-96756600D01*
X184530952Y-96708981D01*
X184769048Y-96708981D01*
X184864286Y-96756600D01*
X184911905Y-96804219D01*
X184959524Y-96899457D01*
X184959524Y-96994695D01*
X184911905Y-97137552D01*
X184340476Y-97708981D01*
X184959524Y-97708981D01*
X138401467Y-78116181D02*
X138401467Y-78830467D01*
X138353847Y-78973324D01*
X138258609Y-79068562D01*
X138115752Y-79116181D01*
X138020514Y-79116181D01*
X139306229Y-78449514D02*
X139306229Y-79116181D01*
X139068133Y-78068562D02*
X138830038Y-78782848D01*
X139449086Y-78782848D01*
X217528381Y-85458205D02*
X218337905Y-85458205D01*
X218433143Y-85410586D01*
X218480762Y-85362967D01*
X218528381Y-85267729D01*
X218528381Y-85077252D01*
X218480762Y-84982014D01*
X218433143Y-84934395D01*
X218337905Y-84886776D01*
X217528381Y-84886776D01*
X218528381Y-83886776D02*
X218528381Y-84458205D01*
X218528381Y-84172491D02*
X217528381Y-84172491D01*
X217671238Y-84267729D01*
X217766476Y-84362967D01*
X217814095Y-84458205D01*
X151272381Y-98881095D02*
X150272381Y-98881095D01*
X151272381Y-98309666D02*
X150700952Y-98738238D01*
X150272381Y-98309666D02*
X150843810Y-98881095D01*
X151272381Y-97357285D02*
X151272381Y-97928714D01*
X151272381Y-97643000D02*
X150272381Y-97643000D01*
X150415238Y-97738238D01*
X150510476Y-97833476D01*
X150558095Y-97928714D01*
X163853905Y-83042381D02*
X163853905Y-82042381D01*
X164092000Y-82042381D01*
X164234858Y-82090000D01*
X164330096Y-82185238D01*
X164377715Y-82280476D01*
X164425334Y-82470952D01*
X164425334Y-82613810D01*
X164377715Y-82804286D01*
X164330096Y-82899524D01*
X164234858Y-82994762D01*
X164092000Y-83042381D01*
X163853905Y-83042381D01*
X165377715Y-83042381D02*
X164806286Y-83042381D01*
X165092000Y-83042381D02*
X165092000Y-82042381D01*
X164996762Y-82185238D01*
X164901524Y-82280476D01*
X164806286Y-82328095D01*
X163141067Y-116216181D02*
X163141067Y-116930467D01*
X163093447Y-117073324D01*
X162998209Y-117168562D01*
X162855352Y-117216181D01*
X162760114Y-117216181D01*
X163522019Y-116216181D02*
X164141067Y-116216181D01*
X163807733Y-116597133D01*
X163950591Y-116597133D01*
X164045829Y-116644752D01*
X164093448Y-116692371D01*
X164141067Y-116787610D01*
X164141067Y-117025705D01*
X164093448Y-117120943D01*
X164045829Y-117168562D01*
X163950591Y-117216181D01*
X163664876Y-117216181D01*
X163569638Y-117168562D01*
X163522019Y-117120943D01*
X137368267Y-109316981D02*
X137368267Y-110031267D01*
X137320647Y-110174124D01*
X137225409Y-110269362D01*
X137082552Y-110316981D01*
X136987314Y-110316981D01*
X137749219Y-109316981D02*
X138415886Y-109316981D01*
X137987314Y-110316981D01*
X181138534Y-106275143D02*
X181090915Y-106322762D01*
X180948058Y-106370381D01*
X180852820Y-106370381D01*
X180709962Y-106322762D01*
X180614724Y-106227524D01*
X180567105Y-106132286D01*
X180519486Y-105941810D01*
X180519486Y-105798952D01*
X180567105Y-105608476D01*
X180614724Y-105513238D01*
X180709962Y-105418000D01*
X180852820Y-105370381D01*
X180948058Y-105370381D01*
X181090915Y-105418000D01*
X181138534Y-105465619D01*
X182090915Y-106370381D02*
X181519486Y-106370381D01*
X181805200Y-106370381D02*
X181805200Y-105370381D01*
X181709962Y-105513238D01*
X181614724Y-105608476D01*
X181519486Y-105656095D01*
X181639543Y-100369666D02*
X181687162Y-100417285D01*
X181734781Y-100560142D01*
X181734781Y-100655380D01*
X181687162Y-100798238D01*
X181591924Y-100893476D01*
X181496686Y-100941095D01*
X181306210Y-100988714D01*
X181163352Y-100988714D01*
X180972876Y-100941095D01*
X180877638Y-100893476D01*
X180782400Y-100798238D01*
X180734781Y-100655380D01*
X180734781Y-100560142D01*
X180782400Y-100417285D01*
X180830019Y-100369666D01*
X180830019Y-99988714D02*
X180782400Y-99941095D01*
X180734781Y-99845857D01*
X180734781Y-99607761D01*
X180782400Y-99512523D01*
X180830019Y-99464904D01*
X180925257Y-99417285D01*
X181020495Y-99417285D01*
X181163352Y-99464904D01*
X181734781Y-100036333D01*
X181734781Y-99417285D01*
X192797134Y-106402143D02*
X192749515Y-106449762D01*
X192606658Y-106497381D01*
X192511420Y-106497381D01*
X192368562Y-106449762D01*
X192273324Y-106354524D01*
X192225705Y-106259286D01*
X192178086Y-106068810D01*
X192178086Y-105925952D01*
X192225705Y-105735476D01*
X192273324Y-105640238D01*
X192368562Y-105545000D01*
X192511420Y-105497381D01*
X192606658Y-105497381D01*
X192749515Y-105545000D01*
X192797134Y-105592619D01*
X193130467Y-105497381D02*
X193749515Y-105497381D01*
X193416181Y-105878333D01*
X193559039Y-105878333D01*
X193654277Y-105925952D01*
X193701896Y-105973571D01*
X193749515Y-106068810D01*
X193749515Y-106306905D01*
X193701896Y-106402143D01*
X193654277Y-106449762D01*
X193559039Y-106497381D01*
X193273324Y-106497381D01*
X193178086Y-106449762D01*
X193130467Y-106402143D01*
X228649743Y-94857866D02*
X228697362Y-94905485D01*
X228744981Y-95048342D01*
X228744981Y-95143580D01*
X228697362Y-95286438D01*
X228602124Y-95381676D01*
X228506886Y-95429295D01*
X228316410Y-95476914D01*
X228173552Y-95476914D01*
X227983076Y-95429295D01*
X227887838Y-95381676D01*
X227792600Y-95286438D01*
X227744981Y-95143580D01*
X227744981Y-95048342D01*
X227792600Y-94905485D01*
X227840219Y-94857866D01*
X227744981Y-94000723D02*
X227744981Y-94191200D01*
X227792600Y-94286438D01*
X227840219Y-94334057D01*
X227983076Y-94429295D01*
X228173552Y-94476914D01*
X228554505Y-94476914D01*
X228649743Y-94429295D01*
X228697362Y-94381676D01*
X228744981Y-94286438D01*
X228744981Y-94095961D01*
X228697362Y-94000723D01*
X228649743Y-93953104D01*
X228554505Y-93905485D01*
X228316410Y-93905485D01*
X228221171Y-93953104D01*
X228173552Y-94000723D01*
X228125933Y-94095961D01*
X228125933Y-94286438D01*
X228173552Y-94381676D01*
X228221171Y-94429295D01*
X228316410Y-94476914D01*
X193290867Y-90993981D02*
X193290867Y-91708267D01*
X193243247Y-91851124D01*
X193148009Y-91946362D01*
X193005152Y-91993981D01*
X192909914Y-91993981D01*
X193719438Y-91089219D02*
X193767057Y-91041600D01*
X193862295Y-90993981D01*
X194100391Y-90993981D01*
X194195629Y-91041600D01*
X194243248Y-91089219D01*
X194290867Y-91184457D01*
X194290867Y-91279695D01*
X194243248Y-91422552D01*
X193671819Y-91993981D01*
X194290867Y-91993981D01*
X137419067Y-97251981D02*
X137419067Y-97966267D01*
X137371447Y-98109124D01*
X137276209Y-98204362D01*
X137133352Y-98251981D01*
X137038114Y-98251981D01*
X138323829Y-97251981D02*
X138133352Y-97251981D01*
X138038114Y-97299600D01*
X137990495Y-97347219D01*
X137895257Y-97490076D01*
X137847638Y-97680552D01*
X137847638Y-98061505D01*
X137895257Y-98156743D01*
X137942876Y-98204362D01*
X138038114Y-98251981D01*
X138228591Y-98251981D01*
X138323829Y-98204362D01*
X138371448Y-98156743D01*
X138419067Y-98061505D01*
X138419067Y-97823410D01*
X138371448Y-97728171D01*
X138323829Y-97680552D01*
X138228591Y-97632933D01*
X138038114Y-97632933D01*
X137942876Y-97680552D01*
X137895257Y-97728171D01*
X137847638Y-97823410D01*
X197716877Y-114488981D02*
X197716877Y-115203267D01*
X197669257Y-115346124D01*
X197574019Y-115441362D01*
X197431162Y-115488981D01*
X197335924Y-115488981D01*
X198716877Y-115488981D02*
X198145448Y-115488981D01*
X198431162Y-115488981D02*
X198431162Y-114488981D01*
X198335924Y-114631838D01*
X198240686Y-114727076D01*
X198145448Y-114774695D01*
X199335924Y-114488981D02*
X199431163Y-114488981D01*
X199526401Y-114536600D01*
X199574020Y-114584219D01*
X199621639Y-114679457D01*
X199669258Y-114869933D01*
X199669258Y-115108029D01*
X199621639Y-115298505D01*
X199574020Y-115393743D01*
X199526401Y-115441362D01*
X199431163Y-115488981D01*
X199335924Y-115488981D01*
X199240686Y-115441362D01*
X199193067Y-115393743D01*
X199145448Y-115298505D01*
X199097829Y-115108029D01*
X199097829Y-114869933D01*
X199145448Y-114679457D01*
X199193067Y-114584219D01*
X199240686Y-114536600D01*
X199335924Y-114488981D01*
X224285277Y-115200181D02*
X224285277Y-115914467D01*
X224237657Y-116057324D01*
X224142419Y-116152562D01*
X223999562Y-116200181D01*
X223904324Y-116200181D01*
X225285277Y-116200181D02*
X224713848Y-116200181D01*
X224999562Y-116200181D02*
X224999562Y-115200181D01*
X224904324Y-115343038D01*
X224809086Y-115438276D01*
X224713848Y-115485895D01*
X226237658Y-116200181D02*
X225666229Y-116200181D01*
X225951943Y-116200181D02*
X225951943Y-115200181D01*
X225856705Y-115343038D01*
X225761467Y-115438276D01*
X225666229Y-115485895D01*
X170643562Y-80570319D02*
X170548324Y-80522700D01*
X170453086Y-80427462D01*
X170310229Y-80284605D01*
X170214990Y-80236986D01*
X170119752Y-80236986D01*
X170167371Y-80475081D02*
X170072133Y-80427462D01*
X169976895Y-80332224D01*
X169929276Y-80141748D01*
X169929276Y-79808414D01*
X169976895Y-79617938D01*
X170072133Y-79522700D01*
X170167371Y-79475081D01*
X170357848Y-79475081D01*
X170453086Y-79522700D01*
X170548324Y-79617938D01*
X170595943Y-79808414D01*
X170595943Y-80141748D01*
X170548324Y-80332224D01*
X170453086Y-80427462D01*
X170357848Y-80475081D01*
X170167371Y-80475081D01*
X171548324Y-80475081D02*
X170976895Y-80475081D01*
X171262609Y-80475081D02*
X171262609Y-79475081D01*
X171167371Y-79617938D01*
X171072133Y-79713176D01*
X170976895Y-79760795D01*
X156779934Y-84450181D02*
X156446600Y-83973990D01*
X156208505Y-84450181D02*
X156208505Y-83450181D01*
X156589458Y-83450181D01*
X156684696Y-83497800D01*
X156732315Y-83545419D01*
X156779934Y-83640657D01*
X156779934Y-83783514D01*
X156732315Y-83878752D01*
X156684696Y-83926371D01*
X156589458Y-83973990D01*
X156208505Y-83973990D01*
X157732315Y-84450181D02*
X157160886Y-84450181D01*
X157446600Y-84450181D02*
X157446600Y-83450181D01*
X157351362Y-83593038D01*
X157256124Y-83688276D01*
X157160886Y-83735895D01*
X156652934Y-80335381D02*
X156319600Y-79859190D01*
X156081505Y-80335381D02*
X156081505Y-79335381D01*
X156462458Y-79335381D01*
X156557696Y-79383000D01*
X156605315Y-79430619D01*
X156652934Y-79525857D01*
X156652934Y-79668714D01*
X156605315Y-79763952D01*
X156557696Y-79811571D01*
X156462458Y-79859190D01*
X156081505Y-79859190D01*
X157033886Y-79430619D02*
X157081505Y-79383000D01*
X157176743Y-79335381D01*
X157414839Y-79335381D01*
X157510077Y-79383000D01*
X157557696Y-79430619D01*
X157605315Y-79525857D01*
X157605315Y-79621095D01*
X157557696Y-79763952D01*
X156986267Y-80335381D01*
X157605315Y-80335381D01*
X171191181Y-92470266D02*
X170714990Y-92803600D01*
X171191181Y-93041695D02*
X170191181Y-93041695D01*
X170191181Y-92660742D01*
X170238800Y-92565504D01*
X170286419Y-92517885D01*
X170381657Y-92470266D01*
X170524514Y-92470266D01*
X170619752Y-92517885D01*
X170667371Y-92565504D01*
X170714990Y-92660742D01*
X170714990Y-93041695D01*
X170191181Y-92136933D02*
X170191181Y-91517885D01*
X170572133Y-91851219D01*
X170572133Y-91708361D01*
X170619752Y-91613123D01*
X170667371Y-91565504D01*
X170762610Y-91517885D01*
X171000705Y-91517885D01*
X171095943Y-91565504D01*
X171143562Y-91613123D01*
X171191181Y-91708361D01*
X171191181Y-91994076D01*
X171143562Y-92089314D01*
X171095943Y-92136933D01*
X220141895Y-102071281D02*
X220141895Y-102880805D01*
X220189514Y-102976043D01*
X220237133Y-103023662D01*
X220332371Y-103071281D01*
X220522848Y-103071281D01*
X220618086Y-103023662D01*
X220665705Y-102976043D01*
X220713324Y-102880805D01*
X220713324Y-102071281D01*
X221094276Y-102071281D02*
X221713324Y-102071281D01*
X221379990Y-102452233D01*
X221522848Y-102452233D01*
X221618086Y-102499852D01*
X221665705Y-102547471D01*
X221713324Y-102642710D01*
X221713324Y-102880805D01*
X221665705Y-102976043D01*
X221618086Y-103023662D01*
X221522848Y-103071281D01*
X221237133Y-103071281D01*
X221141895Y-103023662D01*
X221094276Y-102976043D01*
X140866905Y-84526381D02*
X140866905Y-83526381D01*
X141105000Y-83526381D01*
X141247858Y-83574000D01*
X141343096Y-83669238D01*
X141390715Y-83764476D01*
X141438334Y-83954952D01*
X141438334Y-84097810D01*
X141390715Y-84288286D01*
X141343096Y-84383524D01*
X141247858Y-84478762D01*
X141105000Y-84526381D01*
X140866905Y-84526381D01*
X141819286Y-83621619D02*
X141866905Y-83574000D01*
X141962143Y-83526381D01*
X142200239Y-83526381D01*
X142295477Y-83574000D01*
X142343096Y-83621619D01*
X142390715Y-83716857D01*
X142390715Y-83812095D01*
X142343096Y-83954952D01*
X141771667Y-84526381D01*
X142390715Y-84526381D01*
X140790705Y-80436981D02*
X140790705Y-79436981D01*
X141028800Y-79436981D01*
X141171658Y-79484600D01*
X141266896Y-79579838D01*
X141314515Y-79675076D01*
X141362134Y-79865552D01*
X141362134Y-80008410D01*
X141314515Y-80198886D01*
X141266896Y-80294124D01*
X141171658Y-80389362D01*
X141028800Y-80436981D01*
X140790705Y-80436981D01*
X141695467Y-79436981D02*
X142314515Y-79436981D01*
X141981181Y-79817933D01*
X142124039Y-79817933D01*
X142219277Y-79865552D01*
X142266896Y-79913171D01*
X142314515Y-80008410D01*
X142314515Y-80246505D01*
X142266896Y-80341743D01*
X142219277Y-80389362D01*
X142124039Y-80436981D01*
X141838324Y-80436981D01*
X141743086Y-80389362D01*
X141695467Y-80341743D01*
X199569747Y-95235781D02*
X199569747Y-95950067D01*
X199522127Y-96092924D01*
X199426889Y-96188162D01*
X199284032Y-96235781D01*
X199188794Y-96235781D01*
X200522128Y-95235781D02*
X200045937Y-95235781D01*
X199998318Y-95711971D01*
X200045937Y-95664352D01*
X200141175Y-95616733D01*
X200379271Y-95616733D01*
X200474509Y-95664352D01*
X200522128Y-95711971D01*
X200569747Y-95807210D01*
X200569747Y-96045305D01*
X200522128Y-96140543D01*
X200474509Y-96188162D01*
X200379271Y-96235781D01*
X200141175Y-96235781D01*
X200045937Y-96188162D01*
X199998318Y-96140543D01*
X167549534Y-113867581D02*
X167216200Y-113391390D01*
X166978105Y-113867581D02*
X166978105Y-112867581D01*
X167359058Y-112867581D01*
X167454296Y-112915200D01*
X167501915Y-112962819D01*
X167549534Y-113058057D01*
X167549534Y-113200914D01*
X167501915Y-113296152D01*
X167454296Y-113343771D01*
X167359058Y-113391390D01*
X166978105Y-113391390D01*
X168406677Y-113200914D02*
X168406677Y-113867581D01*
X168168581Y-112819962D02*
X167930486Y-113534248D01*
X168549534Y-113534248D01*
X178965267Y-81526581D02*
X178965267Y-82240867D01*
X178917647Y-82383724D01*
X178822409Y-82478962D01*
X178679552Y-82526581D01*
X178584314Y-82526581D01*
X179584314Y-81955152D02*
X179489076Y-81907533D01*
X179441457Y-81859914D01*
X179393838Y-81764676D01*
X179393838Y-81717057D01*
X179441457Y-81621819D01*
X179489076Y-81574200D01*
X179584314Y-81526581D01*
X179774791Y-81526581D01*
X179870029Y-81574200D01*
X179917648Y-81621819D01*
X179965267Y-81717057D01*
X179965267Y-81764676D01*
X179917648Y-81859914D01*
X179870029Y-81907533D01*
X179774791Y-81955152D01*
X179584314Y-81955152D01*
X179489076Y-82002771D01*
X179441457Y-82050390D01*
X179393838Y-82145629D01*
X179393838Y-82336105D01*
X179441457Y-82431343D01*
X179489076Y-82478962D01*
X179584314Y-82526581D01*
X179774791Y-82526581D01*
X179870029Y-82478962D01*
X179917648Y-82431343D01*
X179965267Y-82336105D01*
X179965267Y-82145629D01*
X179917648Y-82050390D01*
X179870029Y-82002771D01*
X179774791Y-81955152D01*
X188464867Y-91400381D02*
X188464867Y-92114667D01*
X188417247Y-92257524D01*
X188322009Y-92352762D01*
X188179152Y-92400381D01*
X188083914Y-92400381D01*
X188988676Y-92400381D02*
X189179152Y-92400381D01*
X189274391Y-92352762D01*
X189322010Y-92305143D01*
X189417248Y-92162286D01*
X189464867Y-91971810D01*
X189464867Y-91590857D01*
X189417248Y-91495619D01*
X189369629Y-91448000D01*
X189274391Y-91400381D01*
X189083914Y-91400381D01*
X188988676Y-91448000D01*
X188941057Y-91495619D01*
X188893438Y-91590857D01*
X188893438Y-91828952D01*
X188941057Y-91924190D01*
X188988676Y-91971810D01*
X189083914Y-92019429D01*
X189274391Y-92019429D01*
X189369629Y-91971810D01*
X189417248Y-91924190D01*
X189464867Y-91828952D01*
M02*
