%TF.GenerationSoftware,KiCad,Pcbnew,4.0.7*%
%TF.CreationDate,2018-07-23T15:38:25+02:00*%
%TF.ProjectId,rte_rpi,7274655F7270692E6B696361645F7063,rev?*%
%TF.FileFunction,Legend,Bot*%
%FSLAX46Y46*%
G04 Gerber Fmt 4.6, Leading zero omitted, Abs format (unit mm)*
G04 Created by KiCad (PCBNEW 4.0.7) date 07/23/18 15:38:25*
%MOMM*%
%LPD*%
G01*
G04 APERTURE LIST*
%ADD10C,0.100000*%
%ADD11C,0.150000*%
%ADD12C,0.120000*%
G04 APERTURE END LIST*
D10*
D11*
X205973600Y-102900300D02*
X205948600Y-102900300D01*
X205973600Y-98750300D02*
X205858600Y-98750300D01*
X197073600Y-98750300D02*
X197188600Y-98750300D01*
X197073600Y-102900300D02*
X197188600Y-102900300D01*
X205973600Y-102900300D02*
X205973600Y-98750300D01*
X197073600Y-102900300D02*
X197073600Y-98750300D01*
X205948600Y-102900300D02*
X205948600Y-104275300D01*
D12*
X175040100Y-100441000D02*
X175040100Y-98441000D01*
X177080100Y-98441000D02*
X177080100Y-100441000D01*
X185461400Y-98179700D02*
X187461400Y-98179700D01*
X187461400Y-100219700D02*
X185461400Y-100219700D01*
X225395600Y-95754700D02*
X225395600Y-93754700D01*
X227435600Y-93754700D02*
X227435600Y-95754700D01*
X208639600Y-99533200D02*
X208639600Y-101533200D01*
X206599600Y-101533200D02*
X206599600Y-99533200D01*
D11*
X206350981Y-100063395D02*
X207160505Y-100063395D01*
X207255743Y-100111014D01*
X207303362Y-100158633D01*
X207350981Y-100253871D01*
X207350981Y-100444348D01*
X207303362Y-100539586D01*
X207255743Y-100587205D01*
X207160505Y-100634824D01*
X206350981Y-100634824D01*
X206684314Y-101539586D02*
X207350981Y-101539586D01*
X206303362Y-101301490D02*
X207017648Y-101063395D01*
X207017648Y-101682443D01*
X174667243Y-99274334D02*
X174714862Y-99226715D01*
X174762481Y-99083858D01*
X174762481Y-98988620D01*
X174714862Y-98845762D01*
X174619624Y-98750524D01*
X174524386Y-98702905D01*
X174333910Y-98655286D01*
X174191052Y-98655286D01*
X174000576Y-98702905D01*
X173905338Y-98750524D01*
X173810100Y-98845762D01*
X173762481Y-98988620D01*
X173762481Y-99083858D01*
X173810100Y-99226715D01*
X173857719Y-99274334D01*
X174095814Y-100131477D02*
X174762481Y-100131477D01*
X173714862Y-99893381D02*
X174429148Y-99655286D01*
X174429148Y-100274334D01*
X186628066Y-97806843D02*
X186675685Y-97854462D01*
X186818542Y-97902081D01*
X186913780Y-97902081D01*
X187056638Y-97854462D01*
X187151876Y-97759224D01*
X187199495Y-97663986D01*
X187247114Y-97473510D01*
X187247114Y-97330652D01*
X187199495Y-97140176D01*
X187151876Y-97044938D01*
X187056638Y-96949700D01*
X186913780Y-96902081D01*
X186818542Y-96902081D01*
X186675685Y-96949700D01*
X186628066Y-96997319D01*
X185723304Y-96902081D02*
X186199495Y-96902081D01*
X186247114Y-97378271D01*
X186199495Y-97330652D01*
X186104257Y-97283033D01*
X185866161Y-97283033D01*
X185770923Y-97330652D01*
X185723304Y-97378271D01*
X185675685Y-97473510D01*
X185675685Y-97711605D01*
X185723304Y-97806843D01*
X185770923Y-97854462D01*
X185866161Y-97902081D01*
X186104257Y-97902081D01*
X186199495Y-97854462D01*
X186247114Y-97806843D01*
X225022743Y-94588034D02*
X225070362Y-94540415D01*
X225117981Y-94397558D01*
X225117981Y-94302320D01*
X225070362Y-94159462D01*
X224975124Y-94064224D01*
X224879886Y-94016605D01*
X224689410Y-93968986D01*
X224546552Y-93968986D01*
X224356076Y-94016605D01*
X224260838Y-94064224D01*
X224165600Y-94159462D01*
X224117981Y-94302320D01*
X224117981Y-94397558D01*
X224165600Y-94540415D01*
X224213219Y-94588034D01*
X224117981Y-95445177D02*
X224117981Y-95254700D01*
X224165600Y-95159462D01*
X224213219Y-95111843D01*
X224356076Y-95016605D01*
X224546552Y-94968986D01*
X224927505Y-94968986D01*
X225022743Y-95016605D01*
X225070362Y-95064224D01*
X225117981Y-95159462D01*
X225117981Y-95349939D01*
X225070362Y-95445177D01*
X225022743Y-95492796D01*
X224927505Y-95540415D01*
X224689410Y-95540415D01*
X224594171Y-95492796D01*
X224546552Y-95445177D01*
X224498933Y-95349939D01*
X224498933Y-95159462D01*
X224546552Y-95064224D01*
X224594171Y-95016605D01*
X224689410Y-94968986D01*
X209726743Y-100366534D02*
X209774362Y-100318915D01*
X209821981Y-100176058D01*
X209821981Y-100080820D01*
X209774362Y-99937962D01*
X209679124Y-99842724D01*
X209583886Y-99795105D01*
X209393410Y-99747486D01*
X209250552Y-99747486D01*
X209060076Y-99795105D01*
X208964838Y-99842724D01*
X208869600Y-99937962D01*
X208821981Y-100080820D01*
X208821981Y-100176058D01*
X208869600Y-100318915D01*
X208917219Y-100366534D01*
X208821981Y-100699867D02*
X208821981Y-101366534D01*
X209821981Y-100937962D01*
M02*
