%TF.GenerationSoftware,KiCad,Pcbnew,4.0.7*%
%TF.CreationDate,2018-07-23T15:38:26+02:00*%
%TF.ProjectId,rte_rpi,7274655F7270692E6B696361645F7063,rev?*%
%TF.FileFunction,Soldermask,Top*%
%FSLAX46Y46*%
G04 Gerber Fmt 4.6, Leading zero omitted, Abs format (unit mm)*
G04 Created by KiCad (PCBNEW 4.0.7) date 07/23/18 15:38:26*
%MOMM*%
%LPD*%
G01*
G04 APERTURE LIST*
%ADD10C,0.100000*%
%ADD11R,0.908000X1.543000*%
%ADD12R,1.000000X2.400000*%
%ADD13C,2.900000*%
%ADD14C,3.400000*%
%ADD15R,2.100000X2.100000*%
%ADD16O,2.100000X2.100000*%
%ADD17R,2.200000X2.900000*%
%ADD18R,2.127200X2.127200*%
%ADD19O,2.127200X2.127200*%
%ADD20R,3.900000X3.900000*%
%ADD21R,1.400000X2.000000*%
%ADD22R,2.000000X1.400000*%
%ADD23C,5.800000*%
%ADD24R,1.300000X1.200000*%
%ADD25R,2.400000X2.100000*%
%ADD26R,1.900000X1.000000*%
%ADD27C,4.210000*%
%ADD28R,1.924000X1.924000*%
%ADD29C,1.924000*%
%ADD30C,2.540000*%
G04 APERTURE END LIST*
D10*
D11*
X178816000Y-96189800D03*
X181356000Y-96189800D03*
X182626000Y-96189800D03*
X183896000Y-96189800D03*
X185166000Y-96189800D03*
X186436000Y-96189800D03*
X187706000Y-96189800D03*
X187706000Y-102539800D03*
X186436000Y-102539800D03*
X185166000Y-102539800D03*
X183896000Y-102539800D03*
X182626000Y-102539800D03*
X181356000Y-102539800D03*
X180086000Y-102539800D03*
X178816000Y-102539800D03*
X180086000Y-96189800D03*
D12*
X216281000Y-79996300D03*
X215011000Y-79996300D03*
X213741000Y-79996300D03*
X212471000Y-79996300D03*
X211201000Y-79996300D03*
X209931000Y-79996300D03*
X208661000Y-79996300D03*
X207391000Y-79996300D03*
X206121000Y-79996300D03*
X204851000Y-79996300D03*
X203581000Y-79996300D03*
X202311000Y-79996300D03*
X201041000Y-79996300D03*
X199771000Y-79996300D03*
X199771000Y-89396300D03*
X201041000Y-89396300D03*
X202311000Y-89396300D03*
X203581000Y-89396300D03*
X204851000Y-89396300D03*
X206121000Y-89396300D03*
X207391000Y-89396300D03*
X208661000Y-89396300D03*
X209931000Y-89396300D03*
X211201000Y-89396300D03*
X212471000Y-89396300D03*
X213741000Y-89396300D03*
X215011000Y-89396300D03*
X216281000Y-89396300D03*
D13*
X153970000Y-91993000D03*
D14*
X153970000Y-104193000D03*
X166020000Y-104243000D03*
D13*
X165970000Y-91993000D03*
D14*
X160020000Y-90043000D03*
D15*
X177825400Y-76022200D03*
D16*
X177825400Y-73482200D03*
X180365400Y-76022200D03*
X180365400Y-73482200D03*
X182905400Y-76022200D03*
X182905400Y-73482200D03*
X185445400Y-76022200D03*
X185445400Y-73482200D03*
X187985400Y-76022200D03*
X187985400Y-73482200D03*
X190525400Y-76022200D03*
X190525400Y-73482200D03*
X193065400Y-76022200D03*
X193065400Y-73482200D03*
X195605400Y-76022200D03*
X195605400Y-73482200D03*
X198145400Y-76022200D03*
X198145400Y-73482200D03*
X200685400Y-76022200D03*
X200685400Y-73482200D03*
X203225400Y-76022200D03*
X203225400Y-73482200D03*
X205765400Y-76022200D03*
X205765400Y-73482200D03*
X208305400Y-76022200D03*
X208305400Y-73482200D03*
X210845400Y-76022200D03*
X210845400Y-73482200D03*
X213385400Y-76022200D03*
X213385400Y-73482200D03*
X215925400Y-76022200D03*
X215925400Y-73482200D03*
X218465400Y-76022200D03*
X218465400Y-73482200D03*
X221005400Y-76022200D03*
X221005400Y-73482200D03*
X223545400Y-76022200D03*
X223545400Y-73482200D03*
X226085400Y-76022200D03*
X226085400Y-73482200D03*
D17*
X170205400Y-84893400D03*
X170205400Y-88893400D03*
D15*
X185191400Y-90970100D03*
D16*
X185191400Y-88430100D03*
X187731400Y-90970100D03*
X187731400Y-88430100D03*
X190271400Y-90970100D03*
X190271400Y-88430100D03*
D18*
X159105600Y-113385600D03*
D19*
X159105600Y-115925600D03*
X156565600Y-113385600D03*
X156565600Y-115925600D03*
X154025600Y-113385600D03*
X154025600Y-115925600D03*
X151485600Y-113385600D03*
X151485600Y-115925600D03*
D20*
X146151600Y-104114600D03*
X140151600Y-104114600D03*
X143151600Y-108814600D03*
D21*
X178598700Y-105168700D03*
X181598700Y-105168700D03*
D22*
X191084200Y-101106100D03*
X191084200Y-98106100D03*
D21*
X183615200Y-105181400D03*
X186615200Y-105181400D03*
D15*
X195122800Y-90906600D03*
D16*
X195122800Y-88366600D03*
X195122800Y-85826600D03*
X195122800Y-83286600D03*
D20*
X146202400Y-92049600D03*
X140202400Y-92049600D03*
X143202400Y-96749600D03*
D18*
X194360800Y-112674400D03*
D19*
X194360800Y-115214400D03*
X191820800Y-112674400D03*
X191820800Y-115214400D03*
X189280800Y-112674400D03*
X189280800Y-115214400D03*
X186740800Y-112674400D03*
X186740800Y-115214400D03*
X184200800Y-112674400D03*
X184200800Y-115214400D03*
D18*
X221030800Y-113131600D03*
D19*
X221030800Y-115671600D03*
X218490800Y-113131600D03*
X218490800Y-115671600D03*
X215950800Y-113131600D03*
X215950800Y-115671600D03*
X213410800Y-113131600D03*
X213410800Y-115671600D03*
X210870800Y-113131600D03*
X210870800Y-115671600D03*
D23*
X172923200Y-123799600D03*
X230911400Y-123799600D03*
X134429500Y-123825000D03*
X230911400Y-74803000D03*
X134594600Y-74803000D03*
X172923200Y-74803000D03*
D24*
X175244000Y-84719200D03*
X175244000Y-82819200D03*
X173244000Y-83769200D03*
D25*
X154514300Y-84086700D03*
X150514300Y-84086700D03*
X154438100Y-79895700D03*
X150438100Y-79895700D03*
X181337200Y-84709000D03*
X185337200Y-84709000D03*
D26*
X223603800Y-101053900D03*
X223603800Y-99783900D03*
X223603800Y-98513900D03*
X223603800Y-97243900D03*
X223603800Y-95973900D03*
X223603800Y-94703900D03*
X223603800Y-93433900D03*
X218203800Y-93433900D03*
X218203800Y-94703900D03*
X218203800Y-95973900D03*
X218203800Y-97243900D03*
X218203800Y-98513900D03*
X218203800Y-99783900D03*
X218203800Y-101053900D03*
D21*
X143559400Y-84112100D03*
X146559400Y-84112100D03*
X143546700Y-79946500D03*
X146546700Y-79946500D03*
D15*
X191058800Y-95504000D03*
D16*
X193598800Y-95504000D03*
D27*
X165735000Y-74676000D03*
X140716000Y-74676000D03*
D28*
X158750000Y-76073000D03*
D29*
X155956000Y-76073000D03*
X153289000Y-76073000D03*
X150495000Y-76073000D03*
X147828000Y-76073000D03*
X157353000Y-73279000D03*
X154559000Y-73279000D03*
X151892000Y-73279000D03*
X149098000Y-73279000D03*
D30*
X141528800Y-124815600D03*
X226085400Y-86525100D03*
M02*
