G04 #@! TF.FileFunction,Copper,L2,Bot,Signal*
%FSLAX46Y46*%
G04 Gerber Fmt 4.6, Leading zero omitted, Abs format (unit mm)*
G04 Created by KiCad (PCBNEW 4.0.7) date 09/04/18 15:15:37*
%MOMM*%
%LPD*%
G01*
G04 APERTURE LIST*
%ADD10C,0.100000*%
%ADD11C,3.810000*%
%ADD12R,1.524000X1.524000*%
%ADD13C,1.524000*%
%ADD14C,2.500000*%
%ADD15C,3.000000*%
%ADD16R,0.600000X1.500000*%
%ADD17R,1.700000X1.700000*%
%ADD18O,1.700000X1.700000*%
%ADD19R,1.727200X1.727200*%
%ADD20O,1.727200X1.727200*%
%ADD21R,3.500000X3.500000*%
%ADD22R,1.600000X1.000000*%
%ADD23C,5.400000*%
%ADD24C,0.600000*%
%ADD25C,1.150000*%
%ADD26C,0.304800*%
%ADD27C,0.254000*%
G04 APERTURE END LIST*
D10*
D11*
X165735000Y-74676000D03*
X140716000Y-74676000D03*
D12*
X158750000Y-76073000D03*
D13*
X155956000Y-76073000D03*
X153289000Y-76073000D03*
X150495000Y-76073000D03*
X147828000Y-76073000D03*
X157353000Y-73279000D03*
X154559000Y-73279000D03*
X151892000Y-73279000D03*
X149098000Y-73279000D03*
D14*
X153970000Y-91993000D03*
D15*
X153970000Y-104193000D03*
X166020000Y-104243000D03*
D14*
X165970000Y-91993000D03*
D15*
X160020000Y-90043000D03*
D16*
X205333600Y-103525300D03*
X204063600Y-103525300D03*
X202793600Y-103525300D03*
X201523600Y-103525300D03*
X200253600Y-103525300D03*
X198983600Y-103525300D03*
X197713600Y-103525300D03*
X197713600Y-98125300D03*
X198983600Y-98125300D03*
X200253600Y-98125300D03*
X201523600Y-98125300D03*
X202793600Y-98125300D03*
X204063600Y-98125300D03*
X205333600Y-98125300D03*
D17*
X177825400Y-73482200D03*
D18*
X177825400Y-76022200D03*
X180365400Y-73482200D03*
X180365400Y-76022200D03*
X182905400Y-73482200D03*
X182905400Y-76022200D03*
X185445400Y-73482200D03*
X185445400Y-76022200D03*
X187985400Y-73482200D03*
X187985400Y-76022200D03*
X190525400Y-73482200D03*
X190525400Y-76022200D03*
X193065400Y-73482200D03*
X193065400Y-76022200D03*
X195605400Y-73482200D03*
X195605400Y-76022200D03*
X198145400Y-73482200D03*
X198145400Y-76022200D03*
X200685400Y-73482200D03*
X200685400Y-76022200D03*
X203225400Y-73482200D03*
X203225400Y-76022200D03*
X205765400Y-73482200D03*
X205765400Y-76022200D03*
X208305400Y-73482200D03*
X208305400Y-76022200D03*
X210845400Y-73482200D03*
X210845400Y-76022200D03*
X213385400Y-73482200D03*
X213385400Y-76022200D03*
X215925400Y-73482200D03*
X215925400Y-76022200D03*
X218465400Y-73482200D03*
X218465400Y-76022200D03*
X221005400Y-73482200D03*
X221005400Y-76022200D03*
X223545400Y-73482200D03*
X223545400Y-76022200D03*
X226085400Y-73482200D03*
X226085400Y-76022200D03*
D19*
X159105600Y-113385600D03*
D20*
X159105600Y-115925600D03*
X156565600Y-113385600D03*
X156565600Y-115925600D03*
X154025600Y-113385600D03*
X154025600Y-115925600D03*
X151485600Y-113385600D03*
X151485600Y-115925600D03*
D21*
X146151600Y-104114600D03*
X140151600Y-104114600D03*
X143151600Y-108814600D03*
D22*
X188798200Y-98855400D03*
X188798200Y-101855400D03*
X193675000Y-98842700D03*
X193675000Y-101842700D03*
X207645000Y-101322000D03*
X207645000Y-98322000D03*
D17*
X194868800Y-81462880D03*
D18*
X194868800Y-84002880D03*
X194868800Y-86542880D03*
X194868800Y-89082880D03*
D21*
X146202400Y-92049600D03*
X140202400Y-92049600D03*
X143202400Y-96749600D03*
D19*
X194360800Y-112674400D03*
D20*
X194360800Y-115214400D03*
X191820800Y-112674400D03*
X191820800Y-115214400D03*
X189280800Y-112674400D03*
X189280800Y-115214400D03*
X186740800Y-112674400D03*
X186740800Y-115214400D03*
X184200800Y-112674400D03*
X184200800Y-115214400D03*
D19*
X221030800Y-113131600D03*
D20*
X221030800Y-115671600D03*
X218490800Y-113131600D03*
X218490800Y-115671600D03*
X215950800Y-113131600D03*
X215950800Y-115671600D03*
X213410800Y-113131600D03*
X213410800Y-115671600D03*
X210870800Y-113131600D03*
X210870800Y-115671600D03*
D23*
X172923200Y-123799600D03*
X230911400Y-123799600D03*
X134429500Y-123825000D03*
X230911400Y-74803000D03*
X134594600Y-74803000D03*
X172923200Y-74803000D03*
D17*
X196977000Y-93243400D03*
D18*
X199517000Y-93243400D03*
D17*
X179298600Y-84404200D03*
D18*
X179298600Y-86944200D03*
X179298600Y-89484200D03*
D17*
X182905400Y-89458800D03*
D18*
X182905400Y-86918800D03*
X185445400Y-89458800D03*
X185445400Y-86918800D03*
X187985400Y-89458800D03*
X187985400Y-86918800D03*
D24*
X204851000Y-82105500D03*
X197688200Y-105130600D03*
X207645000Y-101322000D03*
X220853000Y-80645000D03*
X187109100Y-101866700D03*
X192062100Y-101841300D03*
X203593700Y-91325700D03*
X216890600Y-101041200D03*
X168148000Y-80568800D03*
X169189400Y-77241400D03*
X201472800Y-84277200D03*
X206123540Y-85369400D03*
X204851000Y-85979000D03*
X217220800Y-119786400D03*
D25*
X161493200Y-113639600D03*
D24*
X231546400Y-81838800D03*
X173228000Y-90017600D03*
X172440600Y-90627200D03*
X207543400Y-87376000D03*
X208661000Y-87553800D03*
X209956400Y-87274400D03*
X220573600Y-118948200D03*
X211099400Y-86106000D03*
X229946200Y-83108800D03*
X210794600Y-92100400D03*
X218160600Y-90982800D03*
X198983600Y-99745800D03*
X201599800Y-96380300D03*
X206222600Y-95465900D03*
X207492600Y-83604100D03*
X212471000Y-100025200D03*
X202780900Y-105232200D03*
X209727800Y-102781100D03*
X214503000Y-92710000D03*
X210769200Y-93116400D03*
X216281000Y-87439500D03*
X206375000Y-96316800D03*
X204063600Y-96316800D03*
X222123000Y-97142300D03*
X218592400Y-103873300D03*
X221945200Y-99783900D03*
X216484200Y-93421200D03*
X216433400Y-95986600D03*
D26*
X197713600Y-103525300D02*
X197713600Y-105105200D01*
D27*
X207645000Y-101322000D02*
X207338800Y-101322000D01*
D26*
X204851000Y-80645000D02*
X206311500Y-80645000D01*
D27*
X206311500Y-80645000D02*
X220853000Y-80645000D01*
D26*
X204851000Y-82105500D02*
X204851000Y-80645000D01*
X204851000Y-80645000D02*
X204851000Y-77292200D01*
X204851000Y-77292200D02*
X204495400Y-76936600D01*
X204495400Y-76936600D02*
X204495400Y-75336400D01*
X204495400Y-75336400D02*
X205079600Y-74752200D01*
X205079600Y-74752200D02*
X207035400Y-74752200D01*
D27*
X197713600Y-103525300D02*
X197713600Y-102971600D01*
D26*
X207035400Y-74752200D02*
X208305400Y-76022200D01*
X188798200Y-101855400D02*
X187120400Y-101855400D01*
X187120400Y-101855400D02*
X187109100Y-101866700D01*
X193675000Y-101842700D02*
X192063500Y-101842700D01*
X192063500Y-101842700D02*
X192062100Y-101841300D01*
X203593700Y-91325700D02*
X205320900Y-93052900D01*
D27*
X214325200Y-98475800D02*
X207798800Y-98475800D01*
X207798800Y-98475800D02*
X207645000Y-98322000D01*
X214323800Y-98474400D02*
X214325200Y-98475800D01*
X214325200Y-98475800D02*
X216890600Y-101041200D01*
X207073500Y-98234500D02*
X205442800Y-98234500D01*
X205442800Y-98234500D02*
X205333600Y-98125300D01*
D26*
X205320900Y-93052900D02*
X205320900Y-98112600D01*
D27*
X205320900Y-98112600D02*
X205333600Y-98125300D01*
X207619600Y-98234500D02*
X207073500Y-98234500D01*
D26*
X169189400Y-79171800D02*
X169189400Y-79527400D01*
X169189400Y-79527400D02*
X168148000Y-80568800D01*
X169189400Y-77241400D02*
X169189400Y-79171800D01*
X169189400Y-79171800D02*
X169189400Y-79197200D01*
X201198480Y-84002880D02*
X194868800Y-84002880D01*
X201472800Y-84277200D02*
X201198480Y-84002880D01*
X206123540Y-85369400D02*
X198706740Y-77952600D01*
X194995800Y-77952600D02*
X193065400Y-76022200D01*
X198706740Y-77952600D02*
X194995800Y-77952600D01*
X185445400Y-73482200D02*
X184175400Y-74752200D01*
X184175400Y-85648800D02*
X185445400Y-86918800D01*
X184175400Y-74752200D02*
X184175400Y-85648800D01*
X187985400Y-73482200D02*
X186715400Y-74752200D01*
X186715400Y-88188800D02*
X185445400Y-89458800D01*
X186715400Y-74752200D02*
X186715400Y-88188800D01*
X190525400Y-76022200D02*
X193090800Y-78587600D01*
X204851000Y-85140800D02*
X204851000Y-85979000D01*
X198297800Y-78587600D02*
X204851000Y-85140800D01*
X193090800Y-78587600D02*
X198297800Y-78587600D01*
X190525400Y-76022200D02*
X190525400Y-76047600D01*
D27*
X213385400Y-76022200D02*
X216357204Y-78994004D01*
X221513404Y-78994004D02*
X216357204Y-78994004D01*
X231270614Y-80572414D02*
X232241286Y-81543086D01*
X221513404Y-78994004D02*
X223091814Y-80572414D01*
X223091814Y-80572414D02*
X231270614Y-80572414D01*
X226627886Y-120904000D02*
X218338400Y-120904000D01*
X232241286Y-115290600D02*
X226627886Y-120904000D01*
X232241286Y-81543086D02*
X232241286Y-115290600D01*
X232241286Y-115290600D02*
X232241286Y-115292466D01*
X218338400Y-120904000D02*
X217220800Y-119786400D01*
X218389202Y-78486002D02*
X215925400Y-76022200D01*
X219075002Y-78486002D02*
X218389202Y-78486002D01*
X219075002Y-78486002D02*
X219202000Y-78486002D01*
X219202000Y-78486002D02*
X221785578Y-78486002D01*
X223363988Y-80064412D02*
X231626210Y-80064412D01*
X221785578Y-78486002D02*
X223363988Y-80064412D01*
X231626210Y-80064412D02*
X232749288Y-81187490D01*
X226742188Y-121509988D02*
X217928388Y-121509988D01*
X215950800Y-119532400D02*
X215950800Y-115671600D01*
X217928388Y-121509988D02*
X215950800Y-119532400D01*
X232736588Y-115515588D02*
X232749288Y-115502888D01*
X226738576Y-121513600D02*
X226742188Y-121509988D01*
X226742188Y-121509988D02*
X226763976Y-121488200D01*
X232736588Y-115515588D02*
X226763976Y-121488200D01*
X232749288Y-115502888D02*
X232749288Y-81187490D01*
X156083000Y-117983000D02*
X154025600Y-115925600D01*
X159613600Y-117983000D02*
X156083000Y-117983000D01*
X161493200Y-116103400D02*
X159613600Y-117983000D01*
X161493200Y-113639600D02*
X161493200Y-116103400D01*
X221284800Y-79552800D02*
X222859600Y-81127600D01*
X214426800Y-78206600D02*
X215773000Y-79552800D01*
X215773000Y-79552800D02*
X221284800Y-79552800D01*
X207949800Y-78206600D02*
X214426800Y-78206600D01*
X207949800Y-78206600D02*
X205765400Y-76022200D01*
X230835200Y-81127600D02*
X231546400Y-81838800D01*
X222859600Y-81127600D02*
X230835200Y-81127600D01*
X223570800Y-79552800D02*
X231902000Y-79552800D01*
X221996000Y-77978000D02*
X223570800Y-79552800D01*
X219727780Y-77711300D02*
X219994480Y-77978000D01*
X215930480Y-73482200D02*
X217203020Y-74754740D01*
X217203020Y-74754740D02*
X219316300Y-74754740D01*
X219316300Y-74754740D02*
X219727780Y-75166220D01*
X219727780Y-75166220D02*
X219727780Y-77711300D01*
X219994480Y-77978000D02*
X221996000Y-77978000D01*
X231902000Y-79552800D02*
X233257290Y-80908090D01*
X215925400Y-73482200D02*
X215930480Y-73482200D01*
X233257290Y-80908090D02*
X233257290Y-115713310D01*
X226847400Y-122123200D02*
X216357200Y-122123200D01*
X233257290Y-115713310D02*
X226847400Y-122123200D01*
X214680800Y-114401600D02*
X213410800Y-113131600D01*
X214680800Y-120446800D02*
X214680800Y-114401600D01*
X216357200Y-122123200D02*
X214680800Y-120446800D01*
X233781600Y-115925600D02*
X233763424Y-115925600D01*
X233781600Y-115925600D02*
X233781600Y-80695800D01*
X223380300Y-78549500D02*
X223875598Y-79044798D01*
X232130598Y-79044798D02*
X231902000Y-79044798D01*
X233781600Y-80695800D02*
X232130598Y-79044798D01*
X223875598Y-79044798D02*
X231902000Y-79044798D01*
X213410800Y-120319800D02*
X213410800Y-115671600D01*
X215798400Y-122707400D02*
X213410800Y-120319800D01*
X226981624Y-122707400D02*
X215798400Y-122707400D01*
X233763424Y-115925600D02*
X226981624Y-122707400D01*
X222275400Y-74731880D02*
X222275400Y-77444600D01*
X222275400Y-77444600D02*
X223380300Y-78549500D01*
X223380300Y-78549500D02*
X223393000Y-78562200D01*
X221025720Y-73482200D02*
X222275400Y-74731880D01*
X221005400Y-73482200D02*
X221025720Y-73482200D01*
D26*
X155956000Y-76073000D02*
X165709600Y-85826600D01*
X169037000Y-85826600D02*
X173228000Y-90017600D01*
X165709600Y-85826600D02*
X169037000Y-85826600D01*
X163906200Y-86690200D02*
X153289000Y-76073000D01*
X168503600Y-86690200D02*
X163906200Y-86690200D01*
X172440600Y-90627200D02*
X168503600Y-86690200D01*
D27*
X196443600Y-110591600D02*
X194360800Y-112674400D01*
X198424800Y-110591600D02*
X196443600Y-110591600D01*
X204063600Y-104952800D02*
X198424800Y-110591600D01*
X204063600Y-103525300D02*
X204063600Y-104952800D01*
X193090800Y-111506000D02*
X194614800Y-109982000D01*
X194360800Y-115214400D02*
X193090800Y-113944400D01*
X193090800Y-111506000D02*
X193090800Y-113944400D01*
X201523600Y-105943400D02*
X201523600Y-104724200D01*
X197485000Y-109982000D02*
X201523600Y-105943400D01*
X194614800Y-109982000D02*
X197485000Y-109982000D01*
X201523600Y-103525300D02*
X201523600Y-104724200D01*
X191820800Y-110464600D02*
X192811402Y-109473998D01*
X198983600Y-103525300D02*
X198983600Y-104495600D01*
X191820800Y-112674400D02*
X191820800Y-110464600D01*
X192811402Y-109473998D02*
X196469002Y-109473998D01*
X196469002Y-109473998D02*
X198983600Y-106959400D01*
X198983600Y-106959400D02*
X198983600Y-104495600D01*
X190550800Y-110667800D02*
X196469000Y-104749600D01*
X197713600Y-98125300D02*
X197713600Y-101612700D01*
X197713600Y-101612700D02*
X196469000Y-102857300D01*
X190550800Y-113944400D02*
X191820800Y-115214400D01*
X190550800Y-113944400D02*
X190550800Y-110667800D01*
X196469000Y-104749600D02*
X196469000Y-102857300D01*
X189280800Y-112674400D02*
X189280800Y-111201200D01*
X189280800Y-111201200D02*
X195834000Y-104648000D01*
X195834000Y-104648000D02*
X195834000Y-102450900D01*
X195834000Y-102450900D02*
X196697600Y-101587300D01*
X196697600Y-101587300D02*
X196697600Y-97142300D01*
X200253600Y-96761300D02*
X200253600Y-98125300D01*
X199771000Y-96278700D02*
X200253600Y-96761300D01*
X197561200Y-96278700D02*
X199771000Y-96278700D01*
X196697600Y-97142300D02*
X197561200Y-96278700D01*
X195262500Y-104432100D02*
X195262500Y-102196900D01*
X202793600Y-98125300D02*
X202793600Y-96278700D01*
X202031600Y-95516700D02*
X202793600Y-96278700D01*
X197485000Y-95516700D02*
X202031600Y-95516700D01*
X195262500Y-104432100D02*
X194710050Y-104984550D01*
X196164200Y-96837500D02*
X197485000Y-95516700D01*
X196164200Y-101295200D02*
X196164200Y-96837500D01*
X195262500Y-102196900D02*
X196164200Y-101295200D01*
X188010800Y-113944400D02*
X188010800Y-111683800D01*
X189280800Y-115214400D02*
X188010800Y-113944400D01*
X188010800Y-111683800D02*
X194710050Y-104984550D01*
X194710050Y-104984550D02*
X194741800Y-104952800D01*
X218109800Y-110998000D02*
X218897200Y-110998000D01*
X218922600Y-120269000D02*
X217220800Y-118567200D01*
X217220800Y-118567200D02*
X217220800Y-111887000D01*
X217220800Y-111887000D02*
X218109800Y-110998000D01*
X219633800Y-120269000D02*
X218922600Y-120269000D01*
X218897200Y-110998000D02*
X221030800Y-113131600D01*
X226517200Y-120269000D02*
X219633800Y-120269000D01*
X219633800Y-120269000D02*
X219608400Y-120269000D01*
X231546400Y-115239800D02*
X226517200Y-120269000D01*
X231546400Y-82829400D02*
X231546400Y-115239800D01*
X230378000Y-81661000D02*
X231546400Y-82829400D01*
X213258400Y-81661000D02*
X230378000Y-81661000D01*
X207543400Y-87376000D02*
X213258400Y-81661000D01*
X219633800Y-117068600D02*
X221030800Y-115671600D01*
X219633800Y-119075200D02*
X219633800Y-117068600D01*
X220243400Y-119684800D02*
X219633800Y-119075200D01*
X226161600Y-119684800D02*
X220243400Y-119684800D01*
X230911400Y-114935000D02*
X226161600Y-119684800D01*
X230911400Y-83007202D02*
X230911400Y-114935000D01*
X230174798Y-82270600D02*
X230911400Y-83007202D01*
X213944200Y-82270600D02*
X230174798Y-82270600D01*
X208661000Y-87553800D02*
X213944200Y-82270600D01*
X211455000Y-87274400D02*
X209956400Y-87274400D01*
X215315800Y-83413600D02*
X211455000Y-87274400D01*
X228879400Y-83413600D02*
X215315800Y-83413600D01*
X230378000Y-84912200D02*
X228879400Y-83413600D01*
X230378000Y-114681000D02*
X230378000Y-84912200D01*
X226110800Y-118948200D02*
X230378000Y-114681000D01*
X220573600Y-118948200D02*
X226110800Y-118948200D01*
X214376000Y-82829400D02*
X211099400Y-86106000D01*
X229666800Y-82829400D02*
X214376000Y-82829400D01*
X229946200Y-83108800D02*
X229666800Y-82829400D01*
X198983600Y-98125300D02*
X198983600Y-99745800D01*
X210794600Y-92100400D02*
X213995000Y-92100400D01*
X213995000Y-92100400D02*
X214604600Y-91490800D01*
X214604600Y-91490800D02*
X217652600Y-91490800D01*
X217652600Y-91490800D02*
X218160600Y-90982800D01*
D26*
X206654400Y-95034100D02*
X206679800Y-95008700D01*
D27*
X201523600Y-96456500D02*
X201599800Y-96380300D01*
X206222600Y-95465900D02*
X206654400Y-95034100D01*
X201523600Y-96456500D02*
X201523600Y-98125300D01*
D26*
X206679800Y-95008700D02*
X206679800Y-87020400D01*
X206679800Y-87020400D02*
X207492600Y-86207600D01*
X207492600Y-86207600D02*
X207492600Y-83604100D01*
D27*
X200253600Y-103525300D02*
X200253600Y-102285800D01*
X202133200Y-100406200D02*
X212090000Y-100406200D01*
X200253600Y-102285800D02*
X202133200Y-100406200D01*
X212090000Y-100406200D02*
X212471000Y-100025200D01*
X212090000Y-100406200D02*
X212471000Y-100025200D01*
X202793600Y-103525300D02*
X202793600Y-105219500D01*
X202793600Y-105219500D02*
X202780900Y-105232200D01*
X208983600Y-103525300D02*
X205333600Y-103525300D01*
X208983600Y-103525300D02*
X209727800Y-102781100D01*
X214096600Y-93116400D02*
X214503000Y-92710000D01*
X210769200Y-93116400D02*
X214096600Y-93116400D01*
X204063600Y-98125300D02*
X204063600Y-96316800D01*
X216281000Y-87439500D02*
X217119200Y-87439500D01*
X217119200Y-87439500D02*
X218935300Y-89255600D01*
X218935300Y-89255600D02*
X218935300Y-91871800D01*
X218935300Y-91871800D02*
X218541600Y-92265500D01*
X218541600Y-92265500D02*
X216458800Y-92265500D01*
X216458800Y-92265500D02*
X215557100Y-93167200D01*
X215557100Y-93167200D02*
X215557100Y-95300800D01*
X214541100Y-96316800D02*
X215557100Y-95300800D01*
X206375000Y-96316800D02*
X214541100Y-96316800D01*
X212305900Y-109080300D02*
X219506800Y-101879400D01*
X220700600Y-97142300D02*
X222123000Y-97142300D01*
X219506800Y-98336100D02*
X220700600Y-97142300D01*
X219506800Y-101879400D02*
X219506800Y-98336100D01*
X186740800Y-115214400D02*
X188264800Y-116738400D01*
X204647800Y-116738400D02*
X212305900Y-109080300D01*
X212305900Y-109080300D02*
X212324950Y-109061250D01*
X188264800Y-116738400D02*
X204647800Y-116738400D01*
X218592400Y-103873300D02*
X218744800Y-103873300D01*
X218744800Y-103873300D02*
X221056200Y-101561900D01*
X221056200Y-101561900D02*
X221056200Y-100672900D01*
X221056200Y-100672900D02*
X221945200Y-99783900D01*
X210870800Y-113131600D02*
X217982800Y-106019600D01*
X216484200Y-93421200D02*
X222123000Y-93421200D01*
X222123000Y-93421200D02*
X223621600Y-94919800D01*
X223621600Y-94919800D02*
X223621600Y-100558600D01*
X223621600Y-101828600D02*
X223621600Y-100558600D01*
X219430600Y-106019600D02*
X223621600Y-101828600D01*
X217982800Y-106019600D02*
X219430600Y-106019600D01*
X210870800Y-115671600D02*
X210362800Y-115671600D01*
X210362800Y-115671600D02*
X209092800Y-114401600D01*
X209092800Y-114401600D02*
X209092800Y-113080800D01*
X209092800Y-113080800D02*
X217601800Y-104571800D01*
X217601800Y-104571800D02*
X218871800Y-104571800D01*
X218871800Y-104571800D02*
X223088200Y-100355400D01*
X223088200Y-100355400D02*
X223088200Y-97028000D01*
X223088200Y-97028000D02*
X222046800Y-95986600D01*
X222046800Y-95986600D02*
X216433400Y-95986600D01*
G36*
X234088000Y-73757782D02*
X233740324Y-72916342D01*
X232802993Y-71977373D01*
X231577683Y-71468580D01*
X230250938Y-71467422D01*
X229024742Y-71974076D01*
X228085773Y-72911407D01*
X227576980Y-74136717D01*
X227575822Y-75463462D01*
X228082476Y-76689658D01*
X229019807Y-77628627D01*
X230245117Y-78137420D01*
X231571862Y-78138578D01*
X232798058Y-77631924D01*
X233737027Y-76694593D01*
X234088000Y-75849356D01*
X234088000Y-79924569D01*
X232669413Y-78505983D01*
X232639509Y-78486002D01*
X232422203Y-78340802D01*
X232130598Y-78282798D01*
X224191228Y-78282798D01*
X223931818Y-78023388D01*
X223931816Y-78023385D01*
X223919118Y-78010688D01*
X223919116Y-78010685D01*
X223419725Y-77511295D01*
X223545400Y-77536293D01*
X224113685Y-77423254D01*
X224595454Y-77101347D01*
X224823102Y-76760647D01*
X224890217Y-76903558D01*
X225318476Y-77293845D01*
X225728510Y-77463676D01*
X225958400Y-77342355D01*
X225958400Y-76149200D01*
X226212400Y-76149200D01*
X226212400Y-77342355D01*
X226442290Y-77463676D01*
X226852324Y-77293845D01*
X227280583Y-76903558D01*
X227526886Y-76379092D01*
X227406219Y-76149200D01*
X226212400Y-76149200D01*
X225958400Y-76149200D01*
X225938400Y-76149200D01*
X225938400Y-75895200D01*
X225958400Y-75895200D01*
X225958400Y-75875200D01*
X226212400Y-75875200D01*
X226212400Y-75895200D01*
X227406219Y-75895200D01*
X227526886Y-75665308D01*
X227280583Y-75140842D01*
X226852324Y-74750555D01*
X226852299Y-74750545D01*
X227135454Y-74561347D01*
X227457361Y-74079578D01*
X227570400Y-73511293D01*
X227570400Y-73453107D01*
X227457361Y-72884822D01*
X227135454Y-72403053D01*
X226653685Y-72081146D01*
X226085400Y-71968107D01*
X225517115Y-72081146D01*
X225035346Y-72403053D01*
X224815400Y-72732226D01*
X224595454Y-72403053D01*
X224113685Y-72081146D01*
X223545400Y-71968107D01*
X222977115Y-72081146D01*
X222495346Y-72403053D01*
X222275400Y-72732226D01*
X222055454Y-72403053D01*
X221573685Y-72081146D01*
X221005400Y-71968107D01*
X220437115Y-72081146D01*
X219955346Y-72403053D01*
X219727698Y-72743753D01*
X219660583Y-72600842D01*
X219232324Y-72210555D01*
X218822290Y-72040724D01*
X218592400Y-72162045D01*
X218592400Y-73355200D01*
X218612400Y-73355200D01*
X218612400Y-73609200D01*
X218592400Y-73609200D01*
X218592400Y-73629200D01*
X218338400Y-73629200D01*
X218338400Y-73609200D01*
X218318400Y-73609200D01*
X218318400Y-73355200D01*
X218338400Y-73355200D01*
X218338400Y-72162045D01*
X218108510Y-72040724D01*
X217698476Y-72210555D01*
X217270217Y-72600842D01*
X217203102Y-72743753D01*
X216975454Y-72403053D01*
X216493685Y-72081146D01*
X215925400Y-71968107D01*
X215357115Y-72081146D01*
X214875346Y-72403053D01*
X214647698Y-72743753D01*
X214580583Y-72600842D01*
X214152324Y-72210555D01*
X213742290Y-72040724D01*
X213512400Y-72162045D01*
X213512400Y-73355200D01*
X213532400Y-73355200D01*
X213532400Y-73609200D01*
X213512400Y-73609200D01*
X213512400Y-73629200D01*
X213258400Y-73629200D01*
X213258400Y-73609200D01*
X213238400Y-73609200D01*
X213238400Y-73355200D01*
X213258400Y-73355200D01*
X213258400Y-72162045D01*
X213028510Y-72040724D01*
X212618476Y-72210555D01*
X212190217Y-72600842D01*
X212123102Y-72743753D01*
X211895454Y-72403053D01*
X211413685Y-72081146D01*
X210845400Y-71968107D01*
X210277115Y-72081146D01*
X209795346Y-72403053D01*
X209575400Y-72732226D01*
X209355454Y-72403053D01*
X208873685Y-72081146D01*
X208305400Y-71968107D01*
X207737115Y-72081146D01*
X207255346Y-72403053D01*
X207035400Y-72732226D01*
X206815454Y-72403053D01*
X206333685Y-72081146D01*
X205765400Y-71968107D01*
X205197115Y-72081146D01*
X204715346Y-72403053D01*
X204495400Y-72732226D01*
X204275454Y-72403053D01*
X203793685Y-72081146D01*
X203225400Y-71968107D01*
X202657115Y-72081146D01*
X202175346Y-72403053D01*
X201947698Y-72743753D01*
X201880583Y-72600842D01*
X201452324Y-72210555D01*
X201042290Y-72040724D01*
X200812400Y-72162045D01*
X200812400Y-73355200D01*
X200832400Y-73355200D01*
X200832400Y-73609200D01*
X200812400Y-73609200D01*
X200812400Y-73629200D01*
X200558400Y-73629200D01*
X200558400Y-73609200D01*
X200538400Y-73609200D01*
X200538400Y-73355200D01*
X200558400Y-73355200D01*
X200558400Y-72162045D01*
X200328510Y-72040724D01*
X199918476Y-72210555D01*
X199490217Y-72600842D01*
X199423102Y-72743753D01*
X199195454Y-72403053D01*
X198713685Y-72081146D01*
X198145400Y-71968107D01*
X197577115Y-72081146D01*
X197095346Y-72403053D01*
X196875400Y-72732226D01*
X196655454Y-72403053D01*
X196173685Y-72081146D01*
X195605400Y-71968107D01*
X195037115Y-72081146D01*
X194555346Y-72403053D01*
X194327698Y-72743753D01*
X194260583Y-72600842D01*
X193832324Y-72210555D01*
X193422290Y-72040724D01*
X193192400Y-72162045D01*
X193192400Y-73355200D01*
X193212400Y-73355200D01*
X193212400Y-73609200D01*
X193192400Y-73609200D01*
X193192400Y-73629200D01*
X192938400Y-73629200D01*
X192938400Y-73609200D01*
X192918400Y-73609200D01*
X192918400Y-73355200D01*
X192938400Y-73355200D01*
X192938400Y-72162045D01*
X192708510Y-72040724D01*
X192298476Y-72210555D01*
X191870217Y-72600842D01*
X191803102Y-72743753D01*
X191575454Y-72403053D01*
X191093685Y-72081146D01*
X190525400Y-71968107D01*
X189957115Y-72081146D01*
X189475346Y-72403053D01*
X189255400Y-72732226D01*
X189035454Y-72403053D01*
X188553685Y-72081146D01*
X187985400Y-71968107D01*
X187417115Y-72081146D01*
X186935346Y-72403053D01*
X186715400Y-72732226D01*
X186495454Y-72403053D01*
X186013685Y-72081146D01*
X185445400Y-71968107D01*
X184877115Y-72081146D01*
X184395346Y-72403053D01*
X184167698Y-72743753D01*
X184100583Y-72600842D01*
X183672324Y-72210555D01*
X183262290Y-72040724D01*
X183032400Y-72162045D01*
X183032400Y-73355200D01*
X183052400Y-73355200D01*
X183052400Y-73609200D01*
X183032400Y-73609200D01*
X183032400Y-73629200D01*
X182778400Y-73629200D01*
X182778400Y-73609200D01*
X182758400Y-73609200D01*
X182758400Y-73355200D01*
X182778400Y-73355200D01*
X182778400Y-72162045D01*
X182548510Y-72040724D01*
X182138476Y-72210555D01*
X181710217Y-72600842D01*
X181643102Y-72743753D01*
X181415454Y-72403053D01*
X180933685Y-72081146D01*
X180365400Y-71968107D01*
X179797115Y-72081146D01*
X179315346Y-72403053D01*
X179287550Y-72444652D01*
X179278562Y-72396883D01*
X179139490Y-72180759D01*
X178927290Y-72035769D01*
X178675400Y-71984760D01*
X176975400Y-71984760D01*
X176740083Y-72029038D01*
X176523959Y-72168110D01*
X176378969Y-72380310D01*
X176327960Y-72632200D01*
X176327960Y-74332200D01*
X176372238Y-74567517D01*
X176511310Y-74783641D01*
X176723510Y-74928631D01*
X176779854Y-74940041D01*
X176775346Y-74943053D01*
X176453439Y-75424822D01*
X176340400Y-75993107D01*
X176340400Y-76051293D01*
X176453439Y-76619578D01*
X176775346Y-77101347D01*
X177257115Y-77423254D01*
X177825400Y-77536293D01*
X178393685Y-77423254D01*
X178875454Y-77101347D01*
X179095400Y-76772174D01*
X179315346Y-77101347D01*
X179797115Y-77423254D01*
X180365400Y-77536293D01*
X180933685Y-77423254D01*
X181415454Y-77101347D01*
X181635400Y-76772174D01*
X181855346Y-77101347D01*
X182337115Y-77423254D01*
X182905400Y-77536293D01*
X183388000Y-77440298D01*
X183388000Y-85500702D01*
X182905400Y-85404707D01*
X182337115Y-85517746D01*
X181855346Y-85839653D01*
X181533439Y-86321422D01*
X181420400Y-86889707D01*
X181420400Y-86947893D01*
X181533439Y-87516178D01*
X181855346Y-87997947D01*
X181856579Y-87998771D01*
X181820083Y-88005638D01*
X181603959Y-88144710D01*
X181458969Y-88356910D01*
X181407960Y-88608800D01*
X181407960Y-90308800D01*
X181452238Y-90544117D01*
X181591310Y-90760241D01*
X181803510Y-90905231D01*
X182055400Y-90956240D01*
X183755400Y-90956240D01*
X183990717Y-90911962D01*
X184206841Y-90772890D01*
X184351831Y-90560690D01*
X184365486Y-90493259D01*
X184395346Y-90537947D01*
X184877115Y-90859854D01*
X185445400Y-90972893D01*
X186013685Y-90859854D01*
X186495454Y-90537947D01*
X186715400Y-90208774D01*
X186935346Y-90537947D01*
X187417115Y-90859854D01*
X187985400Y-90972893D01*
X188553685Y-90859854D01*
X189035454Y-90537947D01*
X189357361Y-90056178D01*
X189470400Y-89487893D01*
X189470400Y-89439770D01*
X193427324Y-89439770D01*
X193597155Y-89849804D01*
X193987442Y-90278063D01*
X194511908Y-90524366D01*
X194741800Y-90403699D01*
X194741800Y-89209880D01*
X194995800Y-89209880D01*
X194995800Y-90403699D01*
X195225692Y-90524366D01*
X195750158Y-90278063D01*
X196140445Y-89849804D01*
X196310276Y-89439770D01*
X196188955Y-89209880D01*
X194995800Y-89209880D01*
X194741800Y-89209880D01*
X193548645Y-89209880D01*
X193427324Y-89439770D01*
X189470400Y-89439770D01*
X189470400Y-89429707D01*
X189357361Y-88861422D01*
X189035454Y-88379653D01*
X188749822Y-88188800D01*
X189035454Y-87997947D01*
X189357361Y-87516178D01*
X189470400Y-86947893D01*
X189470400Y-86889707D01*
X189357361Y-86321422D01*
X189035454Y-85839653D01*
X188553685Y-85517746D01*
X187985400Y-85404707D01*
X187502800Y-85500702D01*
X187502800Y-84002880D01*
X193354707Y-84002880D01*
X193467746Y-84571165D01*
X193789653Y-85052934D01*
X194118826Y-85272880D01*
X193789653Y-85492826D01*
X193467746Y-85974595D01*
X193354707Y-86542880D01*
X193467746Y-87111165D01*
X193789653Y-87592934D01*
X194130353Y-87820582D01*
X193987442Y-87887697D01*
X193597155Y-88315956D01*
X193427324Y-88725990D01*
X193548645Y-88955880D01*
X194741800Y-88955880D01*
X194741800Y-88935880D01*
X194995800Y-88935880D01*
X194995800Y-88955880D01*
X196188955Y-88955880D01*
X196310276Y-88725990D01*
X196140445Y-88315956D01*
X195750158Y-87887697D01*
X195607247Y-87820582D01*
X195947947Y-87592934D01*
X196269854Y-87111165D01*
X196382893Y-86542880D01*
X196269854Y-85974595D01*
X195947947Y-85492826D01*
X195618774Y-85272880D01*
X195947947Y-85052934D01*
X196123446Y-84790280D01*
X200673129Y-84790280D01*
X200679683Y-84806143D01*
X200942473Y-85069392D01*
X201286001Y-85212038D01*
X201657967Y-85212362D01*
X202001743Y-85070317D01*
X202264992Y-84807527D01*
X202407638Y-84463999D01*
X202407962Y-84092033D01*
X202265917Y-83748257D01*
X202003127Y-83485008D01*
X201659599Y-83342362D01*
X201599917Y-83342310D01*
X201499805Y-83275417D01*
X201198480Y-83215480D01*
X196123446Y-83215480D01*
X195947947Y-82952826D01*
X195906348Y-82925030D01*
X195954117Y-82916042D01*
X196170241Y-82776970D01*
X196315231Y-82564770D01*
X196366240Y-82312880D01*
X196366240Y-80612880D01*
X196321962Y-80377563D01*
X196182890Y-80161439D01*
X195970690Y-80016449D01*
X195718800Y-79965440D01*
X194018800Y-79965440D01*
X193783483Y-80009718D01*
X193567359Y-80148790D01*
X193422369Y-80360990D01*
X193371360Y-80612880D01*
X193371360Y-82312880D01*
X193415638Y-82548197D01*
X193554710Y-82764321D01*
X193766910Y-82909311D01*
X193834341Y-82922966D01*
X193789653Y-82952826D01*
X193467746Y-83434595D01*
X193354707Y-84002880D01*
X187502800Y-84002880D01*
X187502800Y-77411608D01*
X187628510Y-77463676D01*
X187858400Y-77342355D01*
X187858400Y-76149200D01*
X187838400Y-76149200D01*
X187838400Y-75895200D01*
X187858400Y-75895200D01*
X187858400Y-75875200D01*
X188112400Y-75875200D01*
X188112400Y-75895200D01*
X188132400Y-75895200D01*
X188132400Y-76149200D01*
X188112400Y-76149200D01*
X188112400Y-77342355D01*
X188342290Y-77463676D01*
X188752324Y-77293845D01*
X189180583Y-76903558D01*
X189247698Y-76760647D01*
X189475346Y-77101347D01*
X189957115Y-77423254D01*
X190525400Y-77536293D01*
X190859487Y-77469839D01*
X192534024Y-79144376D01*
X192789475Y-79315063D01*
X193090800Y-79375000D01*
X197971648Y-79375000D01*
X204054851Y-85458203D01*
X203916162Y-85792201D01*
X203915838Y-86164167D01*
X204057883Y-86507943D01*
X204320673Y-86771192D01*
X204664201Y-86913838D01*
X205036167Y-86914162D01*
X205379943Y-86772117D01*
X205643192Y-86509327D01*
X205759000Y-86230433D01*
X205936741Y-86304238D01*
X206282109Y-86304539D01*
X206123024Y-86463624D01*
X205952337Y-86719075D01*
X205892400Y-87020400D01*
X205892400Y-92518160D01*
X205877676Y-92496124D01*
X204528856Y-91147304D01*
X204528862Y-91140533D01*
X204386817Y-90796757D01*
X204124027Y-90533508D01*
X203780499Y-90390862D01*
X203408533Y-90390538D01*
X203064757Y-90532583D01*
X202801508Y-90795373D01*
X202658862Y-91138901D01*
X202658538Y-91510867D01*
X202800583Y-91854643D01*
X203063373Y-92117892D01*
X203406901Y-92260538D01*
X203414993Y-92260545D01*
X204533500Y-93379052D01*
X204533500Y-95499516D01*
X204250399Y-95381962D01*
X203878433Y-95381638D01*
X203534657Y-95523683D01*
X203325253Y-95732722D01*
X202570415Y-94977885D01*
X202507091Y-94935573D01*
X202323205Y-94812704D01*
X202031600Y-94754700D01*
X199531041Y-94754700D01*
X200085285Y-94644454D01*
X200567054Y-94322547D01*
X200888961Y-93840778D01*
X201002000Y-93272493D01*
X201002000Y-93214307D01*
X200888961Y-92646022D01*
X200567054Y-92164253D01*
X200085285Y-91842346D01*
X199517000Y-91729307D01*
X198948715Y-91842346D01*
X198466946Y-92164253D01*
X198439150Y-92205852D01*
X198430162Y-92158083D01*
X198291090Y-91941959D01*
X198078890Y-91796969D01*
X197827000Y-91745960D01*
X196127000Y-91745960D01*
X195891683Y-91790238D01*
X195675559Y-91929310D01*
X195530569Y-92141510D01*
X195479560Y-92393400D01*
X195479560Y-94093400D01*
X195523838Y-94328717D01*
X195662910Y-94544841D01*
X195875110Y-94689831D01*
X196127000Y-94740840D01*
X197827000Y-94740840D01*
X198062317Y-94696562D01*
X198278441Y-94557490D01*
X198423431Y-94345290D01*
X198437086Y-94277859D01*
X198466946Y-94322547D01*
X198948715Y-94644454D01*
X199502959Y-94754700D01*
X197485000Y-94754700D01*
X197193395Y-94812704D01*
X196946184Y-94977885D01*
X195625385Y-96298685D01*
X195460204Y-96545895D01*
X195402200Y-96837500D01*
X195402200Y-100979569D01*
X195109237Y-101272533D01*
X195078162Y-101107383D01*
X194939090Y-100891259D01*
X194726890Y-100746269D01*
X194475000Y-100695260D01*
X192875000Y-100695260D01*
X192639683Y-100739538D01*
X192423559Y-100878610D01*
X192370132Y-100956803D01*
X192248899Y-100906462D01*
X191876933Y-100906138D01*
X191533157Y-101048183D01*
X191269908Y-101310973D01*
X191127262Y-101654501D01*
X191126938Y-102026467D01*
X191268983Y-102370243D01*
X191531773Y-102633492D01*
X191875301Y-102776138D01*
X192247267Y-102776462D01*
X192367552Y-102726761D01*
X192410910Y-102794141D01*
X192623110Y-102939131D01*
X192875000Y-102990140D01*
X194475000Y-102990140D01*
X194500500Y-102985342D01*
X194500500Y-104116469D01*
X194202987Y-104413983D01*
X194202984Y-104413985D01*
X194184870Y-104432100D01*
X194171237Y-104445733D01*
X194171234Y-104445735D01*
X187471985Y-111144985D01*
X187369943Y-111297702D01*
X187314289Y-111260515D01*
X186740800Y-111146441D01*
X186167311Y-111260515D01*
X185681130Y-111585371D01*
X185470800Y-111900152D01*
X185260470Y-111585371D01*
X184774289Y-111260515D01*
X184200800Y-111146441D01*
X183627311Y-111260515D01*
X183141130Y-111585371D01*
X182816274Y-112071552D01*
X182702200Y-112645041D01*
X182702200Y-112703759D01*
X182816274Y-113277248D01*
X183141130Y-113763429D01*
X183411972Y-113944400D01*
X183141130Y-114125371D01*
X182816274Y-114611552D01*
X182702200Y-115185041D01*
X182702200Y-115243759D01*
X182816274Y-115817248D01*
X183141130Y-116303429D01*
X183627311Y-116628285D01*
X184200800Y-116742359D01*
X184774289Y-116628285D01*
X185260470Y-116303429D01*
X185470800Y-115988648D01*
X185681130Y-116303429D01*
X186167311Y-116628285D01*
X186740800Y-116742359D01*
X187116414Y-116667645D01*
X187725984Y-117277215D01*
X187819178Y-117339485D01*
X187973195Y-117442396D01*
X188264800Y-117500400D01*
X204647800Y-117500400D01*
X204939405Y-117442396D01*
X205186615Y-117277215D01*
X208330800Y-114133030D01*
X208330800Y-114401600D01*
X208388804Y-114693205D01*
X208490652Y-114845631D01*
X208553985Y-114940415D01*
X209386520Y-115772951D01*
X209486274Y-116274448D01*
X209811130Y-116760629D01*
X210297311Y-117085485D01*
X210870800Y-117199559D01*
X211444289Y-117085485D01*
X211930470Y-116760629D01*
X212140800Y-116445848D01*
X212351130Y-116760629D01*
X212648800Y-116959526D01*
X212648800Y-120319800D01*
X212706804Y-120611405D01*
X212838042Y-120807816D01*
X212871985Y-120858615D01*
X215259584Y-123246215D01*
X215506795Y-123411396D01*
X215798400Y-123469400D01*
X226981624Y-123469400D01*
X227273229Y-123411396D01*
X227520439Y-123246215D01*
X227576931Y-123189723D01*
X227575822Y-124460062D01*
X228082476Y-125686258D01*
X229019807Y-126625227D01*
X229375684Y-126773000D01*
X174460199Y-126773000D01*
X174809858Y-126628524D01*
X175748827Y-125691193D01*
X176257620Y-124465883D01*
X176258778Y-123139138D01*
X175752124Y-121912942D01*
X174814793Y-120973973D01*
X173589483Y-120465180D01*
X172262738Y-120464022D01*
X171036542Y-120970676D01*
X170097573Y-121908007D01*
X169588780Y-123133317D01*
X169587622Y-124460062D01*
X170094276Y-125686258D01*
X171031607Y-126625227D01*
X171387484Y-126773000D01*
X136027972Y-126773000D01*
X136316158Y-126653924D01*
X137255127Y-125716593D01*
X137763920Y-124491283D01*
X137765078Y-123164538D01*
X137258424Y-121938342D01*
X136321093Y-120999373D01*
X135095783Y-120490580D01*
X133769038Y-120489422D01*
X132542842Y-120996076D01*
X131603873Y-121933407D01*
X131545000Y-122075189D01*
X131545000Y-113356241D01*
X149987000Y-113356241D01*
X149987000Y-113414959D01*
X150101074Y-113988448D01*
X150425930Y-114474629D01*
X150696772Y-114655600D01*
X150425930Y-114836571D01*
X150101074Y-115322752D01*
X149987000Y-115896241D01*
X149987000Y-115954959D01*
X150101074Y-116528448D01*
X150425930Y-117014629D01*
X150912111Y-117339485D01*
X151485600Y-117453559D01*
X152059089Y-117339485D01*
X152545270Y-117014629D01*
X152755600Y-116699848D01*
X152965930Y-117014629D01*
X153452111Y-117339485D01*
X154025600Y-117453559D01*
X154401215Y-117378845D01*
X155544185Y-118521815D01*
X155791395Y-118686996D01*
X156083000Y-118745000D01*
X159613600Y-118745000D01*
X159905205Y-118686996D01*
X160152415Y-118521815D01*
X162032016Y-116642215D01*
X162143538Y-116475310D01*
X162197196Y-116395005D01*
X162255200Y-116103400D01*
X162255200Y-114588635D01*
X162518390Y-114325905D01*
X162702989Y-113881340D01*
X162703409Y-113399972D01*
X162519586Y-112955086D01*
X162179505Y-112614410D01*
X161734940Y-112429811D01*
X161253572Y-112429391D01*
X160808686Y-112613214D01*
X160616640Y-112804925D01*
X160616640Y-112522000D01*
X160572362Y-112286683D01*
X160433290Y-112070559D01*
X160221090Y-111925569D01*
X159969200Y-111874560D01*
X158242000Y-111874560D01*
X158006683Y-111918838D01*
X157790559Y-112057910D01*
X157645569Y-112270110D01*
X157636736Y-112313731D01*
X157625270Y-112296571D01*
X157139089Y-111971715D01*
X156565600Y-111857641D01*
X155992111Y-111971715D01*
X155505930Y-112296571D01*
X155295600Y-112611352D01*
X155085270Y-112296571D01*
X154599089Y-111971715D01*
X154025600Y-111857641D01*
X153452111Y-111971715D01*
X152965930Y-112296571D01*
X152755600Y-112611352D01*
X152545270Y-112296571D01*
X152059089Y-111971715D01*
X151485600Y-111857641D01*
X150912111Y-111971715D01*
X150425930Y-112296571D01*
X150101074Y-112782752D01*
X149987000Y-113356241D01*
X131545000Y-113356241D01*
X131545000Y-102364600D01*
X137754160Y-102364600D01*
X137754160Y-105864600D01*
X137798438Y-106099917D01*
X137937510Y-106316041D01*
X138149710Y-106461031D01*
X138401600Y-106512040D01*
X141087645Y-106512040D01*
X140950159Y-106600510D01*
X140805169Y-106812710D01*
X140754160Y-107064600D01*
X140754160Y-110564600D01*
X140798438Y-110799917D01*
X140937510Y-111016041D01*
X141149710Y-111161031D01*
X141401600Y-111212040D01*
X144901600Y-111212040D01*
X145136917Y-111167762D01*
X145353041Y-111028690D01*
X145498031Y-110816490D01*
X145549040Y-110564600D01*
X145549040Y-107064600D01*
X145504762Y-106829283D01*
X145365690Y-106613159D01*
X145217697Y-106512040D01*
X147901600Y-106512040D01*
X148136917Y-106467762D01*
X148353041Y-106328690D01*
X148498031Y-106116490D01*
X148549040Y-105864600D01*
X148549040Y-104615815D01*
X151834630Y-104615815D01*
X152158980Y-105400800D01*
X152759041Y-106001909D01*
X153543459Y-106327628D01*
X154392815Y-106328370D01*
X155177800Y-106004020D01*
X155778909Y-105403959D01*
X156085413Y-104665815D01*
X163884630Y-104665815D01*
X164208980Y-105450800D01*
X164809041Y-106051909D01*
X165593459Y-106377628D01*
X166442815Y-106378370D01*
X167227800Y-106054020D01*
X167828909Y-105453959D01*
X168154628Y-104669541D01*
X168155370Y-103820185D01*
X167831020Y-103035200D01*
X167230959Y-102434091D01*
X166446541Y-102108372D01*
X165597185Y-102107630D01*
X164812200Y-102431980D01*
X164211091Y-103032041D01*
X163885372Y-103816459D01*
X163884630Y-104665815D01*
X156085413Y-104665815D01*
X156104628Y-104619541D01*
X156105370Y-103770185D01*
X155781020Y-102985200D01*
X155180959Y-102384091D01*
X154396541Y-102058372D01*
X153547185Y-102057630D01*
X152762200Y-102381980D01*
X152161091Y-102982041D01*
X151835372Y-103766459D01*
X151834630Y-104615815D01*
X148549040Y-104615815D01*
X148549040Y-102364600D01*
X148504762Y-102129283D01*
X148454947Y-102051867D01*
X186173938Y-102051867D01*
X186315983Y-102395643D01*
X186578773Y-102658892D01*
X186922301Y-102801538D01*
X187294267Y-102801862D01*
X187481203Y-102724622D01*
X187534110Y-102806841D01*
X187746310Y-102951831D01*
X187998200Y-103002840D01*
X189598200Y-103002840D01*
X189833517Y-102958562D01*
X190049641Y-102819490D01*
X190194631Y-102607290D01*
X190245640Y-102355400D01*
X190245640Y-101355400D01*
X190201362Y-101120083D01*
X190062290Y-100903959D01*
X189850090Y-100758969D01*
X189598200Y-100707960D01*
X187998200Y-100707960D01*
X187762883Y-100752238D01*
X187546759Y-100891310D01*
X187469731Y-101004044D01*
X187295899Y-100931862D01*
X186923933Y-100931538D01*
X186580157Y-101073583D01*
X186316908Y-101336373D01*
X186174262Y-101679901D01*
X186173938Y-102051867D01*
X148454947Y-102051867D01*
X148365690Y-101913159D01*
X148153490Y-101768169D01*
X147901600Y-101717160D01*
X144401600Y-101717160D01*
X144166283Y-101761438D01*
X143950159Y-101900510D01*
X143805169Y-102112710D01*
X143754160Y-102364600D01*
X143754160Y-105864600D01*
X143798438Y-106099917D01*
X143937510Y-106316041D01*
X144085503Y-106417160D01*
X142215555Y-106417160D01*
X142353041Y-106328690D01*
X142498031Y-106116490D01*
X142549040Y-105864600D01*
X142549040Y-102364600D01*
X142504762Y-102129283D01*
X142365690Y-101913159D01*
X142153490Y-101768169D01*
X141901600Y-101717160D01*
X138401600Y-101717160D01*
X138166283Y-101761438D01*
X137950159Y-101900510D01*
X137805169Y-102112710D01*
X137754160Y-102364600D01*
X131545000Y-102364600D01*
X131545000Y-90299600D01*
X137804960Y-90299600D01*
X137804960Y-93799600D01*
X137849238Y-94034917D01*
X137988310Y-94251041D01*
X138200510Y-94396031D01*
X138452400Y-94447040D01*
X141138445Y-94447040D01*
X141000959Y-94535510D01*
X140855969Y-94747710D01*
X140804960Y-94999600D01*
X140804960Y-98499600D01*
X140849238Y-98734917D01*
X140988310Y-98951041D01*
X141200510Y-99096031D01*
X141452400Y-99147040D01*
X144952400Y-99147040D01*
X144983702Y-99141150D01*
X187363200Y-99141150D01*
X187363200Y-99481709D01*
X187459873Y-99715098D01*
X187638501Y-99893727D01*
X187871890Y-99990400D01*
X188512450Y-99990400D01*
X188671200Y-99831650D01*
X188671200Y-98982400D01*
X188925200Y-98982400D01*
X188925200Y-99831650D01*
X189083950Y-99990400D01*
X189724510Y-99990400D01*
X189957899Y-99893727D01*
X190136527Y-99715098D01*
X190233200Y-99481709D01*
X190233200Y-99141150D01*
X190220500Y-99128450D01*
X192240000Y-99128450D01*
X192240000Y-99469009D01*
X192336673Y-99702398D01*
X192515301Y-99881027D01*
X192748690Y-99977700D01*
X193389250Y-99977700D01*
X193548000Y-99818950D01*
X193548000Y-98969700D01*
X193802000Y-98969700D01*
X193802000Y-99818950D01*
X193960750Y-99977700D01*
X194601310Y-99977700D01*
X194834699Y-99881027D01*
X195013327Y-99702398D01*
X195110000Y-99469009D01*
X195110000Y-99128450D01*
X194951250Y-98969700D01*
X193802000Y-98969700D01*
X193548000Y-98969700D01*
X192398750Y-98969700D01*
X192240000Y-99128450D01*
X190220500Y-99128450D01*
X190074450Y-98982400D01*
X188925200Y-98982400D01*
X188671200Y-98982400D01*
X187521950Y-98982400D01*
X187363200Y-99141150D01*
X144983702Y-99141150D01*
X145187717Y-99102762D01*
X145403841Y-98963690D01*
X145548831Y-98751490D01*
X145599840Y-98499600D01*
X145599840Y-98229091D01*
X187363200Y-98229091D01*
X187363200Y-98569650D01*
X187521950Y-98728400D01*
X188671200Y-98728400D01*
X188671200Y-97879150D01*
X188925200Y-97879150D01*
X188925200Y-98728400D01*
X190074450Y-98728400D01*
X190233200Y-98569650D01*
X190233200Y-98229091D01*
X190227940Y-98216391D01*
X192240000Y-98216391D01*
X192240000Y-98556950D01*
X192398750Y-98715700D01*
X193548000Y-98715700D01*
X193548000Y-97866450D01*
X193802000Y-97866450D01*
X193802000Y-98715700D01*
X194951250Y-98715700D01*
X195110000Y-98556950D01*
X195110000Y-98216391D01*
X195013327Y-97983002D01*
X194834699Y-97804373D01*
X194601310Y-97707700D01*
X193960750Y-97707700D01*
X193802000Y-97866450D01*
X193548000Y-97866450D01*
X193389250Y-97707700D01*
X192748690Y-97707700D01*
X192515301Y-97804373D01*
X192336673Y-97983002D01*
X192240000Y-98216391D01*
X190227940Y-98216391D01*
X190136527Y-97995702D01*
X189957899Y-97817073D01*
X189724510Y-97720400D01*
X189083950Y-97720400D01*
X188925200Y-97879150D01*
X188671200Y-97879150D01*
X188512450Y-97720400D01*
X187871890Y-97720400D01*
X187638501Y-97817073D01*
X187459873Y-97995702D01*
X187363200Y-98229091D01*
X145599840Y-98229091D01*
X145599840Y-94999600D01*
X145555562Y-94764283D01*
X145416490Y-94548159D01*
X145268497Y-94447040D01*
X147952400Y-94447040D01*
X148187717Y-94402762D01*
X148403841Y-94263690D01*
X148548831Y-94051490D01*
X148599840Y-93799600D01*
X148599840Y-92366305D01*
X152084674Y-92366305D01*
X152371043Y-93059372D01*
X152900839Y-93590093D01*
X153593405Y-93877672D01*
X154343305Y-93878326D01*
X155036372Y-93591957D01*
X155567093Y-93062161D01*
X155854672Y-92369595D01*
X155854674Y-92366305D01*
X164084674Y-92366305D01*
X164371043Y-93059372D01*
X164900839Y-93590093D01*
X165593405Y-93877672D01*
X166343305Y-93878326D01*
X167036372Y-93591957D01*
X167567093Y-93062161D01*
X167854672Y-92369595D01*
X167855326Y-91619695D01*
X167568957Y-90926628D01*
X167039161Y-90395907D01*
X166346595Y-90108328D01*
X165596695Y-90107674D01*
X164903628Y-90394043D01*
X164372907Y-90923839D01*
X164085328Y-91616405D01*
X164084674Y-92366305D01*
X155854674Y-92366305D01*
X155855326Y-91619695D01*
X155568957Y-90926628D01*
X155108948Y-90465815D01*
X157884630Y-90465815D01*
X158208980Y-91250800D01*
X158809041Y-91851909D01*
X159593459Y-92177628D01*
X160442815Y-92178370D01*
X161227800Y-91854020D01*
X161828909Y-91253959D01*
X162154628Y-90469541D01*
X162155370Y-89620185D01*
X161831020Y-88835200D01*
X161230959Y-88234091D01*
X160446541Y-87908372D01*
X159597185Y-87907630D01*
X158812200Y-88231980D01*
X158211091Y-88832041D01*
X157885372Y-89616459D01*
X157884630Y-90465815D01*
X155108948Y-90465815D01*
X155039161Y-90395907D01*
X154346595Y-90108328D01*
X153596695Y-90107674D01*
X152903628Y-90394043D01*
X152372907Y-90923839D01*
X152085328Y-91616405D01*
X152084674Y-92366305D01*
X148599840Y-92366305D01*
X148599840Y-90299600D01*
X148555562Y-90064283D01*
X148416490Y-89848159D01*
X148204290Y-89703169D01*
X147952400Y-89652160D01*
X144452400Y-89652160D01*
X144217083Y-89696438D01*
X144000959Y-89835510D01*
X143855969Y-90047710D01*
X143804960Y-90299600D01*
X143804960Y-93799600D01*
X143849238Y-94034917D01*
X143988310Y-94251041D01*
X144136303Y-94352160D01*
X142266355Y-94352160D01*
X142403841Y-94263690D01*
X142548831Y-94051490D01*
X142599840Y-93799600D01*
X142599840Y-90299600D01*
X142555562Y-90064283D01*
X142416490Y-89848159D01*
X142204290Y-89703169D01*
X141952400Y-89652160D01*
X138452400Y-89652160D01*
X138217083Y-89696438D01*
X138000959Y-89835510D01*
X137855969Y-90047710D01*
X137804960Y-90299600D01*
X131545000Y-90299600D01*
X131545000Y-76155581D01*
X131765676Y-76689658D01*
X132703007Y-77628627D01*
X133928317Y-78137420D01*
X135255062Y-78138578D01*
X136481258Y-77631924D01*
X137420227Y-76694593D01*
X137508320Y-76482440D01*
X139089165Y-76482440D01*
X139298353Y-76843289D01*
X140235650Y-77220824D01*
X141246077Y-77210933D01*
X141626846Y-77053213D01*
X147027392Y-77053213D01*
X147096857Y-77295397D01*
X147620302Y-77482144D01*
X148175368Y-77454362D01*
X148559143Y-77295397D01*
X148628608Y-77053213D01*
X147828000Y-76252605D01*
X147027392Y-77053213D01*
X141626846Y-77053213D01*
X142133647Y-76843289D01*
X142342835Y-76482440D01*
X140716000Y-74855605D01*
X139089165Y-76482440D01*
X137508320Y-76482440D01*
X137929020Y-75469283D01*
X137930131Y-74195650D01*
X138171176Y-74195650D01*
X138181067Y-75206077D01*
X138548711Y-76093647D01*
X138909560Y-76302835D01*
X140536395Y-74676000D01*
X140895605Y-74676000D01*
X142522440Y-76302835D01*
X142883289Y-76093647D01*
X142975264Y-75865302D01*
X146418856Y-75865302D01*
X146446638Y-76420368D01*
X146605603Y-76804143D01*
X146847787Y-76873608D01*
X147648395Y-76073000D01*
X148007605Y-76073000D01*
X148808213Y-76873608D01*
X149050397Y-76804143D01*
X149159355Y-76498738D01*
X149309990Y-76863303D01*
X149702630Y-77256629D01*
X150215900Y-77469757D01*
X150771661Y-77470242D01*
X151285303Y-77258010D01*
X151678629Y-76865370D01*
X151891757Y-76352100D01*
X151891759Y-76349664D01*
X152103990Y-76863303D01*
X152496630Y-77256629D01*
X153009900Y-77469757D01*
X153565661Y-77470242D01*
X153570635Y-77468187D01*
X163349424Y-87246976D01*
X163604875Y-87417663D01*
X163906200Y-87477600D01*
X168177448Y-87477600D01*
X171505444Y-90805596D01*
X171505438Y-90812367D01*
X171647483Y-91156143D01*
X171910273Y-91419392D01*
X172253801Y-91562038D01*
X172625767Y-91562362D01*
X172969543Y-91420317D01*
X173232792Y-91157527D01*
X173317853Y-90952679D01*
X173413167Y-90952762D01*
X173756943Y-90810717D01*
X174020192Y-90547927D01*
X174162838Y-90204399D01*
X174163162Y-89832433D01*
X174021117Y-89488657D01*
X173758327Y-89225408D01*
X173414799Y-89082762D01*
X173406707Y-89082755D01*
X171268152Y-86944200D01*
X177784507Y-86944200D01*
X177897546Y-87512485D01*
X178219453Y-87994254D01*
X178548626Y-88214200D01*
X178219453Y-88434146D01*
X177897546Y-88915915D01*
X177784507Y-89484200D01*
X177897546Y-90052485D01*
X178219453Y-90534254D01*
X178701222Y-90856161D01*
X179269507Y-90969200D01*
X179327693Y-90969200D01*
X179895978Y-90856161D01*
X180377747Y-90534254D01*
X180699654Y-90052485D01*
X180812693Y-89484200D01*
X180699654Y-88915915D01*
X180377747Y-88434146D01*
X180048574Y-88214200D01*
X180377747Y-87994254D01*
X180699654Y-87512485D01*
X180812693Y-86944200D01*
X180699654Y-86375915D01*
X180377747Y-85894146D01*
X180333823Y-85864797D01*
X180508298Y-85792527D01*
X180686927Y-85613899D01*
X180783600Y-85380510D01*
X180783600Y-84689950D01*
X180624850Y-84531200D01*
X179425600Y-84531200D01*
X179425600Y-84551200D01*
X179171600Y-84551200D01*
X179171600Y-84531200D01*
X177972350Y-84531200D01*
X177813600Y-84689950D01*
X177813600Y-85380510D01*
X177910273Y-85613899D01*
X178088902Y-85792527D01*
X178263377Y-85864797D01*
X178219453Y-85894146D01*
X177897546Y-86375915D01*
X177784507Y-86944200D01*
X171268152Y-86944200D01*
X169593776Y-85269824D01*
X169338325Y-85099137D01*
X169037000Y-85039200D01*
X166035752Y-85039200D01*
X164424442Y-83427890D01*
X177813600Y-83427890D01*
X177813600Y-84118450D01*
X177972350Y-84277200D01*
X179171600Y-84277200D01*
X179171600Y-83077950D01*
X179425600Y-83077950D01*
X179425600Y-84277200D01*
X180624850Y-84277200D01*
X180783600Y-84118450D01*
X180783600Y-83427890D01*
X180686927Y-83194501D01*
X180508298Y-83015873D01*
X180274909Y-82919200D01*
X179584350Y-82919200D01*
X179425600Y-83077950D01*
X179171600Y-83077950D01*
X179012850Y-82919200D01*
X178322291Y-82919200D01*
X178088902Y-83015873D01*
X177910273Y-83194501D01*
X177813600Y-83427890D01*
X164424442Y-83427890D01*
X161750519Y-80753967D01*
X167212838Y-80753967D01*
X167354883Y-81097743D01*
X167617673Y-81360992D01*
X167961201Y-81503638D01*
X168333167Y-81503962D01*
X168676943Y-81361917D01*
X168940192Y-81099127D01*
X169082838Y-80755599D01*
X169082845Y-80747507D01*
X169746176Y-80084176D01*
X169916863Y-79828725D01*
X169976800Y-79527400D01*
X169976800Y-77776511D01*
X169981592Y-77771727D01*
X170124238Y-77428199D01*
X170124562Y-77056233D01*
X169982517Y-76712457D01*
X169719727Y-76449208D01*
X169376199Y-76306562D01*
X169004233Y-76306238D01*
X168660457Y-76448283D01*
X168397208Y-76711073D01*
X168254562Y-77054601D01*
X168254238Y-77426567D01*
X168396283Y-77770343D01*
X168402000Y-77776070D01*
X168402000Y-79201248D01*
X167969604Y-79633644D01*
X167962833Y-79633638D01*
X167619057Y-79775683D01*
X167355808Y-80038473D01*
X167213162Y-80382001D01*
X167212838Y-80753967D01*
X161750519Y-80753967D01*
X158478992Y-77482440D01*
X159512000Y-77482440D01*
X159747317Y-77438162D01*
X159963441Y-77299090D01*
X160108431Y-77086890D01*
X160159440Y-76835000D01*
X160159440Y-76482440D01*
X164108165Y-76482440D01*
X164317353Y-76843289D01*
X165254650Y-77220824D01*
X166265077Y-77210933D01*
X167152647Y-76843289D01*
X167361835Y-76482440D01*
X165735000Y-74855605D01*
X164108165Y-76482440D01*
X160159440Y-76482440D01*
X160159440Y-75311000D01*
X160115162Y-75075683D01*
X159976090Y-74859559D01*
X159763890Y-74714569D01*
X159512000Y-74663560D01*
X157988000Y-74663560D01*
X157752683Y-74707838D01*
X157536559Y-74846910D01*
X157391569Y-75059110D01*
X157340560Y-75311000D01*
X157340560Y-75765646D01*
X157141010Y-75282697D01*
X156748370Y-74889371D01*
X156235100Y-74676243D01*
X155679339Y-74675758D01*
X155165697Y-74887990D01*
X154772371Y-75280630D01*
X154622394Y-75641815D01*
X154474010Y-75282697D01*
X154081370Y-74889371D01*
X153568100Y-74676243D01*
X153012339Y-74675758D01*
X152498697Y-74887990D01*
X152105371Y-75280630D01*
X151892243Y-75793900D01*
X151892241Y-75796336D01*
X151680010Y-75282697D01*
X151287370Y-74889371D01*
X150774100Y-74676243D01*
X150218339Y-74675758D01*
X149704697Y-74887990D01*
X149311371Y-75280630D01*
X149168027Y-75625841D01*
X149050397Y-75341857D01*
X148808213Y-75272392D01*
X148007605Y-76073000D01*
X147648395Y-76073000D01*
X146847787Y-75272392D01*
X146605603Y-75341857D01*
X146418856Y-75865302D01*
X142975264Y-75865302D01*
X143260824Y-75156350D01*
X143260202Y-75092787D01*
X147027392Y-75092787D01*
X147828000Y-75893395D01*
X148628608Y-75092787D01*
X148559143Y-74850603D01*
X148035698Y-74663856D01*
X147480632Y-74691638D01*
X147096857Y-74850603D01*
X147027392Y-75092787D01*
X143260202Y-75092787D01*
X143250933Y-74145923D01*
X143006439Y-73555661D01*
X147700758Y-73555661D01*
X147912990Y-74069303D01*
X148305630Y-74462629D01*
X148818900Y-74675757D01*
X149374661Y-74676242D01*
X149888303Y-74464010D01*
X150281629Y-74071370D01*
X150494757Y-73558100D01*
X150494759Y-73555664D01*
X150706990Y-74069303D01*
X151099630Y-74462629D01*
X151612900Y-74675757D01*
X152168661Y-74676242D01*
X152682303Y-74464010D01*
X153075629Y-74071370D01*
X153225606Y-73710185D01*
X153373990Y-74069303D01*
X153766630Y-74462629D01*
X154279900Y-74675757D01*
X154835661Y-74676242D01*
X155349303Y-74464010D01*
X155742629Y-74071370D01*
X155955757Y-73558100D01*
X155955759Y-73555664D01*
X156167990Y-74069303D01*
X156560630Y-74462629D01*
X157073900Y-74675757D01*
X157629661Y-74676242D01*
X158143303Y-74464010D01*
X158412131Y-74195650D01*
X163190176Y-74195650D01*
X163200067Y-75206077D01*
X163567711Y-76093647D01*
X163928560Y-76302835D01*
X165555395Y-74676000D01*
X165914605Y-74676000D01*
X167541440Y-76302835D01*
X167902289Y-76093647D01*
X168156121Y-75463462D01*
X169587622Y-75463462D01*
X170094276Y-76689658D01*
X171031607Y-77628627D01*
X172256917Y-78137420D01*
X173583662Y-78138578D01*
X174809858Y-77631924D01*
X175748827Y-76694593D01*
X176257620Y-75469283D01*
X176258778Y-74142538D01*
X175752124Y-72916342D01*
X174814793Y-71977373D01*
X173589483Y-71468580D01*
X172262738Y-71467422D01*
X171036542Y-71974076D01*
X170097573Y-72911407D01*
X169588780Y-74136717D01*
X169587622Y-75463462D01*
X168156121Y-75463462D01*
X168279824Y-75156350D01*
X168269933Y-74145923D01*
X167902289Y-73258353D01*
X167541440Y-73049165D01*
X165914605Y-74676000D01*
X165555395Y-74676000D01*
X163928560Y-73049165D01*
X163567711Y-73258353D01*
X163190176Y-74195650D01*
X158412131Y-74195650D01*
X158536629Y-74071370D01*
X158749757Y-73558100D01*
X158750242Y-73002339D01*
X158695379Y-72869560D01*
X164108165Y-72869560D01*
X165735000Y-74496395D01*
X167361835Y-72869560D01*
X167152647Y-72508711D01*
X166215350Y-72131176D01*
X165204923Y-72141067D01*
X164317353Y-72508711D01*
X164108165Y-72869560D01*
X158695379Y-72869560D01*
X158538010Y-72488697D01*
X158145370Y-72095371D01*
X157632100Y-71882243D01*
X157076339Y-71881758D01*
X156562697Y-72093990D01*
X156169371Y-72486630D01*
X155956243Y-72999900D01*
X155956241Y-73002336D01*
X155744010Y-72488697D01*
X155351370Y-72095371D01*
X154838100Y-71882243D01*
X154282339Y-71881758D01*
X153768697Y-72093990D01*
X153375371Y-72486630D01*
X153225394Y-72847815D01*
X153077010Y-72488697D01*
X152684370Y-72095371D01*
X152171100Y-71882243D01*
X151615339Y-71881758D01*
X151101697Y-72093990D01*
X150708371Y-72486630D01*
X150495243Y-72999900D01*
X150495241Y-73002336D01*
X150283010Y-72488697D01*
X149890370Y-72095371D01*
X149377100Y-71882243D01*
X148821339Y-71881758D01*
X148307697Y-72093990D01*
X147914371Y-72486630D01*
X147701243Y-72999900D01*
X147700758Y-73555661D01*
X143006439Y-73555661D01*
X142883289Y-73258353D01*
X142522440Y-73049165D01*
X140895605Y-74676000D01*
X140536395Y-74676000D01*
X138909560Y-73049165D01*
X138548711Y-73258353D01*
X138171176Y-74195650D01*
X137930131Y-74195650D01*
X137930178Y-74142538D01*
X137423524Y-72916342D01*
X137376824Y-72869560D01*
X139089165Y-72869560D01*
X140716000Y-74496395D01*
X142342835Y-72869560D01*
X142133647Y-72508711D01*
X141196350Y-72131176D01*
X140185923Y-72141067D01*
X139298353Y-72508711D01*
X139089165Y-72869560D01*
X137376824Y-72869560D01*
X136486193Y-71977373D01*
X135260883Y-71468580D01*
X133934138Y-71467422D01*
X132707942Y-71974076D01*
X131768973Y-72911407D01*
X131545000Y-73450794D01*
X131545000Y-70331000D01*
X234088000Y-70331000D01*
X234088000Y-73757782D01*
X234088000Y-73757782D01*
G37*
X234088000Y-73757782D02*
X233740324Y-72916342D01*
X232802993Y-71977373D01*
X231577683Y-71468580D01*
X230250938Y-71467422D01*
X229024742Y-71974076D01*
X228085773Y-72911407D01*
X227576980Y-74136717D01*
X227575822Y-75463462D01*
X228082476Y-76689658D01*
X229019807Y-77628627D01*
X230245117Y-78137420D01*
X231571862Y-78138578D01*
X232798058Y-77631924D01*
X233737027Y-76694593D01*
X234088000Y-75849356D01*
X234088000Y-79924569D01*
X232669413Y-78505983D01*
X232639509Y-78486002D01*
X232422203Y-78340802D01*
X232130598Y-78282798D01*
X224191228Y-78282798D01*
X223931818Y-78023388D01*
X223931816Y-78023385D01*
X223919118Y-78010688D01*
X223919116Y-78010685D01*
X223419725Y-77511295D01*
X223545400Y-77536293D01*
X224113685Y-77423254D01*
X224595454Y-77101347D01*
X224823102Y-76760647D01*
X224890217Y-76903558D01*
X225318476Y-77293845D01*
X225728510Y-77463676D01*
X225958400Y-77342355D01*
X225958400Y-76149200D01*
X226212400Y-76149200D01*
X226212400Y-77342355D01*
X226442290Y-77463676D01*
X226852324Y-77293845D01*
X227280583Y-76903558D01*
X227526886Y-76379092D01*
X227406219Y-76149200D01*
X226212400Y-76149200D01*
X225958400Y-76149200D01*
X225938400Y-76149200D01*
X225938400Y-75895200D01*
X225958400Y-75895200D01*
X225958400Y-75875200D01*
X226212400Y-75875200D01*
X226212400Y-75895200D01*
X227406219Y-75895200D01*
X227526886Y-75665308D01*
X227280583Y-75140842D01*
X226852324Y-74750555D01*
X226852299Y-74750545D01*
X227135454Y-74561347D01*
X227457361Y-74079578D01*
X227570400Y-73511293D01*
X227570400Y-73453107D01*
X227457361Y-72884822D01*
X227135454Y-72403053D01*
X226653685Y-72081146D01*
X226085400Y-71968107D01*
X225517115Y-72081146D01*
X225035346Y-72403053D01*
X224815400Y-72732226D01*
X224595454Y-72403053D01*
X224113685Y-72081146D01*
X223545400Y-71968107D01*
X222977115Y-72081146D01*
X222495346Y-72403053D01*
X222275400Y-72732226D01*
X222055454Y-72403053D01*
X221573685Y-72081146D01*
X221005400Y-71968107D01*
X220437115Y-72081146D01*
X219955346Y-72403053D01*
X219727698Y-72743753D01*
X219660583Y-72600842D01*
X219232324Y-72210555D01*
X218822290Y-72040724D01*
X218592400Y-72162045D01*
X218592400Y-73355200D01*
X218612400Y-73355200D01*
X218612400Y-73609200D01*
X218592400Y-73609200D01*
X218592400Y-73629200D01*
X218338400Y-73629200D01*
X218338400Y-73609200D01*
X218318400Y-73609200D01*
X218318400Y-73355200D01*
X218338400Y-73355200D01*
X218338400Y-72162045D01*
X218108510Y-72040724D01*
X217698476Y-72210555D01*
X217270217Y-72600842D01*
X217203102Y-72743753D01*
X216975454Y-72403053D01*
X216493685Y-72081146D01*
X215925400Y-71968107D01*
X215357115Y-72081146D01*
X214875346Y-72403053D01*
X214647698Y-72743753D01*
X214580583Y-72600842D01*
X214152324Y-72210555D01*
X213742290Y-72040724D01*
X213512400Y-72162045D01*
X213512400Y-73355200D01*
X213532400Y-73355200D01*
X213532400Y-73609200D01*
X213512400Y-73609200D01*
X213512400Y-73629200D01*
X213258400Y-73629200D01*
X213258400Y-73609200D01*
X213238400Y-73609200D01*
X213238400Y-73355200D01*
X213258400Y-73355200D01*
X213258400Y-72162045D01*
X213028510Y-72040724D01*
X212618476Y-72210555D01*
X212190217Y-72600842D01*
X212123102Y-72743753D01*
X211895454Y-72403053D01*
X211413685Y-72081146D01*
X210845400Y-71968107D01*
X210277115Y-72081146D01*
X209795346Y-72403053D01*
X209575400Y-72732226D01*
X209355454Y-72403053D01*
X208873685Y-72081146D01*
X208305400Y-71968107D01*
X207737115Y-72081146D01*
X207255346Y-72403053D01*
X207035400Y-72732226D01*
X206815454Y-72403053D01*
X206333685Y-72081146D01*
X205765400Y-71968107D01*
X205197115Y-72081146D01*
X204715346Y-72403053D01*
X204495400Y-72732226D01*
X204275454Y-72403053D01*
X203793685Y-72081146D01*
X203225400Y-71968107D01*
X202657115Y-72081146D01*
X202175346Y-72403053D01*
X201947698Y-72743753D01*
X201880583Y-72600842D01*
X201452324Y-72210555D01*
X201042290Y-72040724D01*
X200812400Y-72162045D01*
X200812400Y-73355200D01*
X200832400Y-73355200D01*
X200832400Y-73609200D01*
X200812400Y-73609200D01*
X200812400Y-73629200D01*
X200558400Y-73629200D01*
X200558400Y-73609200D01*
X200538400Y-73609200D01*
X200538400Y-73355200D01*
X200558400Y-73355200D01*
X200558400Y-72162045D01*
X200328510Y-72040724D01*
X199918476Y-72210555D01*
X199490217Y-72600842D01*
X199423102Y-72743753D01*
X199195454Y-72403053D01*
X198713685Y-72081146D01*
X198145400Y-71968107D01*
X197577115Y-72081146D01*
X197095346Y-72403053D01*
X196875400Y-72732226D01*
X196655454Y-72403053D01*
X196173685Y-72081146D01*
X195605400Y-71968107D01*
X195037115Y-72081146D01*
X194555346Y-72403053D01*
X194327698Y-72743753D01*
X194260583Y-72600842D01*
X193832324Y-72210555D01*
X193422290Y-72040724D01*
X193192400Y-72162045D01*
X193192400Y-73355200D01*
X193212400Y-73355200D01*
X193212400Y-73609200D01*
X193192400Y-73609200D01*
X193192400Y-73629200D01*
X192938400Y-73629200D01*
X192938400Y-73609200D01*
X192918400Y-73609200D01*
X192918400Y-73355200D01*
X192938400Y-73355200D01*
X192938400Y-72162045D01*
X192708510Y-72040724D01*
X192298476Y-72210555D01*
X191870217Y-72600842D01*
X191803102Y-72743753D01*
X191575454Y-72403053D01*
X191093685Y-72081146D01*
X190525400Y-71968107D01*
X189957115Y-72081146D01*
X189475346Y-72403053D01*
X189255400Y-72732226D01*
X189035454Y-72403053D01*
X188553685Y-72081146D01*
X187985400Y-71968107D01*
X187417115Y-72081146D01*
X186935346Y-72403053D01*
X186715400Y-72732226D01*
X186495454Y-72403053D01*
X186013685Y-72081146D01*
X185445400Y-71968107D01*
X184877115Y-72081146D01*
X184395346Y-72403053D01*
X184167698Y-72743753D01*
X184100583Y-72600842D01*
X183672324Y-72210555D01*
X183262290Y-72040724D01*
X183032400Y-72162045D01*
X183032400Y-73355200D01*
X183052400Y-73355200D01*
X183052400Y-73609200D01*
X183032400Y-73609200D01*
X183032400Y-73629200D01*
X182778400Y-73629200D01*
X182778400Y-73609200D01*
X182758400Y-73609200D01*
X182758400Y-73355200D01*
X182778400Y-73355200D01*
X182778400Y-72162045D01*
X182548510Y-72040724D01*
X182138476Y-72210555D01*
X181710217Y-72600842D01*
X181643102Y-72743753D01*
X181415454Y-72403053D01*
X180933685Y-72081146D01*
X180365400Y-71968107D01*
X179797115Y-72081146D01*
X179315346Y-72403053D01*
X179287550Y-72444652D01*
X179278562Y-72396883D01*
X179139490Y-72180759D01*
X178927290Y-72035769D01*
X178675400Y-71984760D01*
X176975400Y-71984760D01*
X176740083Y-72029038D01*
X176523959Y-72168110D01*
X176378969Y-72380310D01*
X176327960Y-72632200D01*
X176327960Y-74332200D01*
X176372238Y-74567517D01*
X176511310Y-74783641D01*
X176723510Y-74928631D01*
X176779854Y-74940041D01*
X176775346Y-74943053D01*
X176453439Y-75424822D01*
X176340400Y-75993107D01*
X176340400Y-76051293D01*
X176453439Y-76619578D01*
X176775346Y-77101347D01*
X177257115Y-77423254D01*
X177825400Y-77536293D01*
X178393685Y-77423254D01*
X178875454Y-77101347D01*
X179095400Y-76772174D01*
X179315346Y-77101347D01*
X179797115Y-77423254D01*
X180365400Y-77536293D01*
X180933685Y-77423254D01*
X181415454Y-77101347D01*
X181635400Y-76772174D01*
X181855346Y-77101347D01*
X182337115Y-77423254D01*
X182905400Y-77536293D01*
X183388000Y-77440298D01*
X183388000Y-85500702D01*
X182905400Y-85404707D01*
X182337115Y-85517746D01*
X181855346Y-85839653D01*
X181533439Y-86321422D01*
X181420400Y-86889707D01*
X181420400Y-86947893D01*
X181533439Y-87516178D01*
X181855346Y-87997947D01*
X181856579Y-87998771D01*
X181820083Y-88005638D01*
X181603959Y-88144710D01*
X181458969Y-88356910D01*
X181407960Y-88608800D01*
X181407960Y-90308800D01*
X181452238Y-90544117D01*
X181591310Y-90760241D01*
X181803510Y-90905231D01*
X182055400Y-90956240D01*
X183755400Y-90956240D01*
X183990717Y-90911962D01*
X184206841Y-90772890D01*
X184351831Y-90560690D01*
X184365486Y-90493259D01*
X184395346Y-90537947D01*
X184877115Y-90859854D01*
X185445400Y-90972893D01*
X186013685Y-90859854D01*
X186495454Y-90537947D01*
X186715400Y-90208774D01*
X186935346Y-90537947D01*
X187417115Y-90859854D01*
X187985400Y-90972893D01*
X188553685Y-90859854D01*
X189035454Y-90537947D01*
X189357361Y-90056178D01*
X189470400Y-89487893D01*
X189470400Y-89439770D01*
X193427324Y-89439770D01*
X193597155Y-89849804D01*
X193987442Y-90278063D01*
X194511908Y-90524366D01*
X194741800Y-90403699D01*
X194741800Y-89209880D01*
X194995800Y-89209880D01*
X194995800Y-90403699D01*
X195225692Y-90524366D01*
X195750158Y-90278063D01*
X196140445Y-89849804D01*
X196310276Y-89439770D01*
X196188955Y-89209880D01*
X194995800Y-89209880D01*
X194741800Y-89209880D01*
X193548645Y-89209880D01*
X193427324Y-89439770D01*
X189470400Y-89439770D01*
X189470400Y-89429707D01*
X189357361Y-88861422D01*
X189035454Y-88379653D01*
X188749822Y-88188800D01*
X189035454Y-87997947D01*
X189357361Y-87516178D01*
X189470400Y-86947893D01*
X189470400Y-86889707D01*
X189357361Y-86321422D01*
X189035454Y-85839653D01*
X188553685Y-85517746D01*
X187985400Y-85404707D01*
X187502800Y-85500702D01*
X187502800Y-84002880D01*
X193354707Y-84002880D01*
X193467746Y-84571165D01*
X193789653Y-85052934D01*
X194118826Y-85272880D01*
X193789653Y-85492826D01*
X193467746Y-85974595D01*
X193354707Y-86542880D01*
X193467746Y-87111165D01*
X193789653Y-87592934D01*
X194130353Y-87820582D01*
X193987442Y-87887697D01*
X193597155Y-88315956D01*
X193427324Y-88725990D01*
X193548645Y-88955880D01*
X194741800Y-88955880D01*
X194741800Y-88935880D01*
X194995800Y-88935880D01*
X194995800Y-88955880D01*
X196188955Y-88955880D01*
X196310276Y-88725990D01*
X196140445Y-88315956D01*
X195750158Y-87887697D01*
X195607247Y-87820582D01*
X195947947Y-87592934D01*
X196269854Y-87111165D01*
X196382893Y-86542880D01*
X196269854Y-85974595D01*
X195947947Y-85492826D01*
X195618774Y-85272880D01*
X195947947Y-85052934D01*
X196123446Y-84790280D01*
X200673129Y-84790280D01*
X200679683Y-84806143D01*
X200942473Y-85069392D01*
X201286001Y-85212038D01*
X201657967Y-85212362D01*
X202001743Y-85070317D01*
X202264992Y-84807527D01*
X202407638Y-84463999D01*
X202407962Y-84092033D01*
X202265917Y-83748257D01*
X202003127Y-83485008D01*
X201659599Y-83342362D01*
X201599917Y-83342310D01*
X201499805Y-83275417D01*
X201198480Y-83215480D01*
X196123446Y-83215480D01*
X195947947Y-82952826D01*
X195906348Y-82925030D01*
X195954117Y-82916042D01*
X196170241Y-82776970D01*
X196315231Y-82564770D01*
X196366240Y-82312880D01*
X196366240Y-80612880D01*
X196321962Y-80377563D01*
X196182890Y-80161439D01*
X195970690Y-80016449D01*
X195718800Y-79965440D01*
X194018800Y-79965440D01*
X193783483Y-80009718D01*
X193567359Y-80148790D01*
X193422369Y-80360990D01*
X193371360Y-80612880D01*
X193371360Y-82312880D01*
X193415638Y-82548197D01*
X193554710Y-82764321D01*
X193766910Y-82909311D01*
X193834341Y-82922966D01*
X193789653Y-82952826D01*
X193467746Y-83434595D01*
X193354707Y-84002880D01*
X187502800Y-84002880D01*
X187502800Y-77411608D01*
X187628510Y-77463676D01*
X187858400Y-77342355D01*
X187858400Y-76149200D01*
X187838400Y-76149200D01*
X187838400Y-75895200D01*
X187858400Y-75895200D01*
X187858400Y-75875200D01*
X188112400Y-75875200D01*
X188112400Y-75895200D01*
X188132400Y-75895200D01*
X188132400Y-76149200D01*
X188112400Y-76149200D01*
X188112400Y-77342355D01*
X188342290Y-77463676D01*
X188752324Y-77293845D01*
X189180583Y-76903558D01*
X189247698Y-76760647D01*
X189475346Y-77101347D01*
X189957115Y-77423254D01*
X190525400Y-77536293D01*
X190859487Y-77469839D01*
X192534024Y-79144376D01*
X192789475Y-79315063D01*
X193090800Y-79375000D01*
X197971648Y-79375000D01*
X204054851Y-85458203D01*
X203916162Y-85792201D01*
X203915838Y-86164167D01*
X204057883Y-86507943D01*
X204320673Y-86771192D01*
X204664201Y-86913838D01*
X205036167Y-86914162D01*
X205379943Y-86772117D01*
X205643192Y-86509327D01*
X205759000Y-86230433D01*
X205936741Y-86304238D01*
X206282109Y-86304539D01*
X206123024Y-86463624D01*
X205952337Y-86719075D01*
X205892400Y-87020400D01*
X205892400Y-92518160D01*
X205877676Y-92496124D01*
X204528856Y-91147304D01*
X204528862Y-91140533D01*
X204386817Y-90796757D01*
X204124027Y-90533508D01*
X203780499Y-90390862D01*
X203408533Y-90390538D01*
X203064757Y-90532583D01*
X202801508Y-90795373D01*
X202658862Y-91138901D01*
X202658538Y-91510867D01*
X202800583Y-91854643D01*
X203063373Y-92117892D01*
X203406901Y-92260538D01*
X203414993Y-92260545D01*
X204533500Y-93379052D01*
X204533500Y-95499516D01*
X204250399Y-95381962D01*
X203878433Y-95381638D01*
X203534657Y-95523683D01*
X203325253Y-95732722D01*
X202570415Y-94977885D01*
X202507091Y-94935573D01*
X202323205Y-94812704D01*
X202031600Y-94754700D01*
X199531041Y-94754700D01*
X200085285Y-94644454D01*
X200567054Y-94322547D01*
X200888961Y-93840778D01*
X201002000Y-93272493D01*
X201002000Y-93214307D01*
X200888961Y-92646022D01*
X200567054Y-92164253D01*
X200085285Y-91842346D01*
X199517000Y-91729307D01*
X198948715Y-91842346D01*
X198466946Y-92164253D01*
X198439150Y-92205852D01*
X198430162Y-92158083D01*
X198291090Y-91941959D01*
X198078890Y-91796969D01*
X197827000Y-91745960D01*
X196127000Y-91745960D01*
X195891683Y-91790238D01*
X195675559Y-91929310D01*
X195530569Y-92141510D01*
X195479560Y-92393400D01*
X195479560Y-94093400D01*
X195523838Y-94328717D01*
X195662910Y-94544841D01*
X195875110Y-94689831D01*
X196127000Y-94740840D01*
X197827000Y-94740840D01*
X198062317Y-94696562D01*
X198278441Y-94557490D01*
X198423431Y-94345290D01*
X198437086Y-94277859D01*
X198466946Y-94322547D01*
X198948715Y-94644454D01*
X199502959Y-94754700D01*
X197485000Y-94754700D01*
X197193395Y-94812704D01*
X196946184Y-94977885D01*
X195625385Y-96298685D01*
X195460204Y-96545895D01*
X195402200Y-96837500D01*
X195402200Y-100979569D01*
X195109237Y-101272533D01*
X195078162Y-101107383D01*
X194939090Y-100891259D01*
X194726890Y-100746269D01*
X194475000Y-100695260D01*
X192875000Y-100695260D01*
X192639683Y-100739538D01*
X192423559Y-100878610D01*
X192370132Y-100956803D01*
X192248899Y-100906462D01*
X191876933Y-100906138D01*
X191533157Y-101048183D01*
X191269908Y-101310973D01*
X191127262Y-101654501D01*
X191126938Y-102026467D01*
X191268983Y-102370243D01*
X191531773Y-102633492D01*
X191875301Y-102776138D01*
X192247267Y-102776462D01*
X192367552Y-102726761D01*
X192410910Y-102794141D01*
X192623110Y-102939131D01*
X192875000Y-102990140D01*
X194475000Y-102990140D01*
X194500500Y-102985342D01*
X194500500Y-104116469D01*
X194202987Y-104413983D01*
X194202984Y-104413985D01*
X194184870Y-104432100D01*
X194171237Y-104445733D01*
X194171234Y-104445735D01*
X187471985Y-111144985D01*
X187369943Y-111297702D01*
X187314289Y-111260515D01*
X186740800Y-111146441D01*
X186167311Y-111260515D01*
X185681130Y-111585371D01*
X185470800Y-111900152D01*
X185260470Y-111585371D01*
X184774289Y-111260515D01*
X184200800Y-111146441D01*
X183627311Y-111260515D01*
X183141130Y-111585371D01*
X182816274Y-112071552D01*
X182702200Y-112645041D01*
X182702200Y-112703759D01*
X182816274Y-113277248D01*
X183141130Y-113763429D01*
X183411972Y-113944400D01*
X183141130Y-114125371D01*
X182816274Y-114611552D01*
X182702200Y-115185041D01*
X182702200Y-115243759D01*
X182816274Y-115817248D01*
X183141130Y-116303429D01*
X183627311Y-116628285D01*
X184200800Y-116742359D01*
X184774289Y-116628285D01*
X185260470Y-116303429D01*
X185470800Y-115988648D01*
X185681130Y-116303429D01*
X186167311Y-116628285D01*
X186740800Y-116742359D01*
X187116414Y-116667645D01*
X187725984Y-117277215D01*
X187819178Y-117339485D01*
X187973195Y-117442396D01*
X188264800Y-117500400D01*
X204647800Y-117500400D01*
X204939405Y-117442396D01*
X205186615Y-117277215D01*
X208330800Y-114133030D01*
X208330800Y-114401600D01*
X208388804Y-114693205D01*
X208490652Y-114845631D01*
X208553985Y-114940415D01*
X209386520Y-115772951D01*
X209486274Y-116274448D01*
X209811130Y-116760629D01*
X210297311Y-117085485D01*
X210870800Y-117199559D01*
X211444289Y-117085485D01*
X211930470Y-116760629D01*
X212140800Y-116445848D01*
X212351130Y-116760629D01*
X212648800Y-116959526D01*
X212648800Y-120319800D01*
X212706804Y-120611405D01*
X212838042Y-120807816D01*
X212871985Y-120858615D01*
X215259584Y-123246215D01*
X215506795Y-123411396D01*
X215798400Y-123469400D01*
X226981624Y-123469400D01*
X227273229Y-123411396D01*
X227520439Y-123246215D01*
X227576931Y-123189723D01*
X227575822Y-124460062D01*
X228082476Y-125686258D01*
X229019807Y-126625227D01*
X229375684Y-126773000D01*
X174460199Y-126773000D01*
X174809858Y-126628524D01*
X175748827Y-125691193D01*
X176257620Y-124465883D01*
X176258778Y-123139138D01*
X175752124Y-121912942D01*
X174814793Y-120973973D01*
X173589483Y-120465180D01*
X172262738Y-120464022D01*
X171036542Y-120970676D01*
X170097573Y-121908007D01*
X169588780Y-123133317D01*
X169587622Y-124460062D01*
X170094276Y-125686258D01*
X171031607Y-126625227D01*
X171387484Y-126773000D01*
X136027972Y-126773000D01*
X136316158Y-126653924D01*
X137255127Y-125716593D01*
X137763920Y-124491283D01*
X137765078Y-123164538D01*
X137258424Y-121938342D01*
X136321093Y-120999373D01*
X135095783Y-120490580D01*
X133769038Y-120489422D01*
X132542842Y-120996076D01*
X131603873Y-121933407D01*
X131545000Y-122075189D01*
X131545000Y-113356241D01*
X149987000Y-113356241D01*
X149987000Y-113414959D01*
X150101074Y-113988448D01*
X150425930Y-114474629D01*
X150696772Y-114655600D01*
X150425930Y-114836571D01*
X150101074Y-115322752D01*
X149987000Y-115896241D01*
X149987000Y-115954959D01*
X150101074Y-116528448D01*
X150425930Y-117014629D01*
X150912111Y-117339485D01*
X151485600Y-117453559D01*
X152059089Y-117339485D01*
X152545270Y-117014629D01*
X152755600Y-116699848D01*
X152965930Y-117014629D01*
X153452111Y-117339485D01*
X154025600Y-117453559D01*
X154401215Y-117378845D01*
X155544185Y-118521815D01*
X155791395Y-118686996D01*
X156083000Y-118745000D01*
X159613600Y-118745000D01*
X159905205Y-118686996D01*
X160152415Y-118521815D01*
X162032016Y-116642215D01*
X162143538Y-116475310D01*
X162197196Y-116395005D01*
X162255200Y-116103400D01*
X162255200Y-114588635D01*
X162518390Y-114325905D01*
X162702989Y-113881340D01*
X162703409Y-113399972D01*
X162519586Y-112955086D01*
X162179505Y-112614410D01*
X161734940Y-112429811D01*
X161253572Y-112429391D01*
X160808686Y-112613214D01*
X160616640Y-112804925D01*
X160616640Y-112522000D01*
X160572362Y-112286683D01*
X160433290Y-112070559D01*
X160221090Y-111925569D01*
X159969200Y-111874560D01*
X158242000Y-111874560D01*
X158006683Y-111918838D01*
X157790559Y-112057910D01*
X157645569Y-112270110D01*
X157636736Y-112313731D01*
X157625270Y-112296571D01*
X157139089Y-111971715D01*
X156565600Y-111857641D01*
X155992111Y-111971715D01*
X155505930Y-112296571D01*
X155295600Y-112611352D01*
X155085270Y-112296571D01*
X154599089Y-111971715D01*
X154025600Y-111857641D01*
X153452111Y-111971715D01*
X152965930Y-112296571D01*
X152755600Y-112611352D01*
X152545270Y-112296571D01*
X152059089Y-111971715D01*
X151485600Y-111857641D01*
X150912111Y-111971715D01*
X150425930Y-112296571D01*
X150101074Y-112782752D01*
X149987000Y-113356241D01*
X131545000Y-113356241D01*
X131545000Y-102364600D01*
X137754160Y-102364600D01*
X137754160Y-105864600D01*
X137798438Y-106099917D01*
X137937510Y-106316041D01*
X138149710Y-106461031D01*
X138401600Y-106512040D01*
X141087645Y-106512040D01*
X140950159Y-106600510D01*
X140805169Y-106812710D01*
X140754160Y-107064600D01*
X140754160Y-110564600D01*
X140798438Y-110799917D01*
X140937510Y-111016041D01*
X141149710Y-111161031D01*
X141401600Y-111212040D01*
X144901600Y-111212040D01*
X145136917Y-111167762D01*
X145353041Y-111028690D01*
X145498031Y-110816490D01*
X145549040Y-110564600D01*
X145549040Y-107064600D01*
X145504762Y-106829283D01*
X145365690Y-106613159D01*
X145217697Y-106512040D01*
X147901600Y-106512040D01*
X148136917Y-106467762D01*
X148353041Y-106328690D01*
X148498031Y-106116490D01*
X148549040Y-105864600D01*
X148549040Y-104615815D01*
X151834630Y-104615815D01*
X152158980Y-105400800D01*
X152759041Y-106001909D01*
X153543459Y-106327628D01*
X154392815Y-106328370D01*
X155177800Y-106004020D01*
X155778909Y-105403959D01*
X156085413Y-104665815D01*
X163884630Y-104665815D01*
X164208980Y-105450800D01*
X164809041Y-106051909D01*
X165593459Y-106377628D01*
X166442815Y-106378370D01*
X167227800Y-106054020D01*
X167828909Y-105453959D01*
X168154628Y-104669541D01*
X168155370Y-103820185D01*
X167831020Y-103035200D01*
X167230959Y-102434091D01*
X166446541Y-102108372D01*
X165597185Y-102107630D01*
X164812200Y-102431980D01*
X164211091Y-103032041D01*
X163885372Y-103816459D01*
X163884630Y-104665815D01*
X156085413Y-104665815D01*
X156104628Y-104619541D01*
X156105370Y-103770185D01*
X155781020Y-102985200D01*
X155180959Y-102384091D01*
X154396541Y-102058372D01*
X153547185Y-102057630D01*
X152762200Y-102381980D01*
X152161091Y-102982041D01*
X151835372Y-103766459D01*
X151834630Y-104615815D01*
X148549040Y-104615815D01*
X148549040Y-102364600D01*
X148504762Y-102129283D01*
X148454947Y-102051867D01*
X186173938Y-102051867D01*
X186315983Y-102395643D01*
X186578773Y-102658892D01*
X186922301Y-102801538D01*
X187294267Y-102801862D01*
X187481203Y-102724622D01*
X187534110Y-102806841D01*
X187746310Y-102951831D01*
X187998200Y-103002840D01*
X189598200Y-103002840D01*
X189833517Y-102958562D01*
X190049641Y-102819490D01*
X190194631Y-102607290D01*
X190245640Y-102355400D01*
X190245640Y-101355400D01*
X190201362Y-101120083D01*
X190062290Y-100903959D01*
X189850090Y-100758969D01*
X189598200Y-100707960D01*
X187998200Y-100707960D01*
X187762883Y-100752238D01*
X187546759Y-100891310D01*
X187469731Y-101004044D01*
X187295899Y-100931862D01*
X186923933Y-100931538D01*
X186580157Y-101073583D01*
X186316908Y-101336373D01*
X186174262Y-101679901D01*
X186173938Y-102051867D01*
X148454947Y-102051867D01*
X148365690Y-101913159D01*
X148153490Y-101768169D01*
X147901600Y-101717160D01*
X144401600Y-101717160D01*
X144166283Y-101761438D01*
X143950159Y-101900510D01*
X143805169Y-102112710D01*
X143754160Y-102364600D01*
X143754160Y-105864600D01*
X143798438Y-106099917D01*
X143937510Y-106316041D01*
X144085503Y-106417160D01*
X142215555Y-106417160D01*
X142353041Y-106328690D01*
X142498031Y-106116490D01*
X142549040Y-105864600D01*
X142549040Y-102364600D01*
X142504762Y-102129283D01*
X142365690Y-101913159D01*
X142153490Y-101768169D01*
X141901600Y-101717160D01*
X138401600Y-101717160D01*
X138166283Y-101761438D01*
X137950159Y-101900510D01*
X137805169Y-102112710D01*
X137754160Y-102364600D01*
X131545000Y-102364600D01*
X131545000Y-90299600D01*
X137804960Y-90299600D01*
X137804960Y-93799600D01*
X137849238Y-94034917D01*
X137988310Y-94251041D01*
X138200510Y-94396031D01*
X138452400Y-94447040D01*
X141138445Y-94447040D01*
X141000959Y-94535510D01*
X140855969Y-94747710D01*
X140804960Y-94999600D01*
X140804960Y-98499600D01*
X140849238Y-98734917D01*
X140988310Y-98951041D01*
X141200510Y-99096031D01*
X141452400Y-99147040D01*
X144952400Y-99147040D01*
X144983702Y-99141150D01*
X187363200Y-99141150D01*
X187363200Y-99481709D01*
X187459873Y-99715098D01*
X187638501Y-99893727D01*
X187871890Y-99990400D01*
X188512450Y-99990400D01*
X188671200Y-99831650D01*
X188671200Y-98982400D01*
X188925200Y-98982400D01*
X188925200Y-99831650D01*
X189083950Y-99990400D01*
X189724510Y-99990400D01*
X189957899Y-99893727D01*
X190136527Y-99715098D01*
X190233200Y-99481709D01*
X190233200Y-99141150D01*
X190220500Y-99128450D01*
X192240000Y-99128450D01*
X192240000Y-99469009D01*
X192336673Y-99702398D01*
X192515301Y-99881027D01*
X192748690Y-99977700D01*
X193389250Y-99977700D01*
X193548000Y-99818950D01*
X193548000Y-98969700D01*
X193802000Y-98969700D01*
X193802000Y-99818950D01*
X193960750Y-99977700D01*
X194601310Y-99977700D01*
X194834699Y-99881027D01*
X195013327Y-99702398D01*
X195110000Y-99469009D01*
X195110000Y-99128450D01*
X194951250Y-98969700D01*
X193802000Y-98969700D01*
X193548000Y-98969700D01*
X192398750Y-98969700D01*
X192240000Y-99128450D01*
X190220500Y-99128450D01*
X190074450Y-98982400D01*
X188925200Y-98982400D01*
X188671200Y-98982400D01*
X187521950Y-98982400D01*
X187363200Y-99141150D01*
X144983702Y-99141150D01*
X145187717Y-99102762D01*
X145403841Y-98963690D01*
X145548831Y-98751490D01*
X145599840Y-98499600D01*
X145599840Y-98229091D01*
X187363200Y-98229091D01*
X187363200Y-98569650D01*
X187521950Y-98728400D01*
X188671200Y-98728400D01*
X188671200Y-97879150D01*
X188925200Y-97879150D01*
X188925200Y-98728400D01*
X190074450Y-98728400D01*
X190233200Y-98569650D01*
X190233200Y-98229091D01*
X190227940Y-98216391D01*
X192240000Y-98216391D01*
X192240000Y-98556950D01*
X192398750Y-98715700D01*
X193548000Y-98715700D01*
X193548000Y-97866450D01*
X193802000Y-97866450D01*
X193802000Y-98715700D01*
X194951250Y-98715700D01*
X195110000Y-98556950D01*
X195110000Y-98216391D01*
X195013327Y-97983002D01*
X194834699Y-97804373D01*
X194601310Y-97707700D01*
X193960750Y-97707700D01*
X193802000Y-97866450D01*
X193548000Y-97866450D01*
X193389250Y-97707700D01*
X192748690Y-97707700D01*
X192515301Y-97804373D01*
X192336673Y-97983002D01*
X192240000Y-98216391D01*
X190227940Y-98216391D01*
X190136527Y-97995702D01*
X189957899Y-97817073D01*
X189724510Y-97720400D01*
X189083950Y-97720400D01*
X188925200Y-97879150D01*
X188671200Y-97879150D01*
X188512450Y-97720400D01*
X187871890Y-97720400D01*
X187638501Y-97817073D01*
X187459873Y-97995702D01*
X187363200Y-98229091D01*
X145599840Y-98229091D01*
X145599840Y-94999600D01*
X145555562Y-94764283D01*
X145416490Y-94548159D01*
X145268497Y-94447040D01*
X147952400Y-94447040D01*
X148187717Y-94402762D01*
X148403841Y-94263690D01*
X148548831Y-94051490D01*
X148599840Y-93799600D01*
X148599840Y-92366305D01*
X152084674Y-92366305D01*
X152371043Y-93059372D01*
X152900839Y-93590093D01*
X153593405Y-93877672D01*
X154343305Y-93878326D01*
X155036372Y-93591957D01*
X155567093Y-93062161D01*
X155854672Y-92369595D01*
X155854674Y-92366305D01*
X164084674Y-92366305D01*
X164371043Y-93059372D01*
X164900839Y-93590093D01*
X165593405Y-93877672D01*
X166343305Y-93878326D01*
X167036372Y-93591957D01*
X167567093Y-93062161D01*
X167854672Y-92369595D01*
X167855326Y-91619695D01*
X167568957Y-90926628D01*
X167039161Y-90395907D01*
X166346595Y-90108328D01*
X165596695Y-90107674D01*
X164903628Y-90394043D01*
X164372907Y-90923839D01*
X164085328Y-91616405D01*
X164084674Y-92366305D01*
X155854674Y-92366305D01*
X155855326Y-91619695D01*
X155568957Y-90926628D01*
X155108948Y-90465815D01*
X157884630Y-90465815D01*
X158208980Y-91250800D01*
X158809041Y-91851909D01*
X159593459Y-92177628D01*
X160442815Y-92178370D01*
X161227800Y-91854020D01*
X161828909Y-91253959D01*
X162154628Y-90469541D01*
X162155370Y-89620185D01*
X161831020Y-88835200D01*
X161230959Y-88234091D01*
X160446541Y-87908372D01*
X159597185Y-87907630D01*
X158812200Y-88231980D01*
X158211091Y-88832041D01*
X157885372Y-89616459D01*
X157884630Y-90465815D01*
X155108948Y-90465815D01*
X155039161Y-90395907D01*
X154346595Y-90108328D01*
X153596695Y-90107674D01*
X152903628Y-90394043D01*
X152372907Y-90923839D01*
X152085328Y-91616405D01*
X152084674Y-92366305D01*
X148599840Y-92366305D01*
X148599840Y-90299600D01*
X148555562Y-90064283D01*
X148416490Y-89848159D01*
X148204290Y-89703169D01*
X147952400Y-89652160D01*
X144452400Y-89652160D01*
X144217083Y-89696438D01*
X144000959Y-89835510D01*
X143855969Y-90047710D01*
X143804960Y-90299600D01*
X143804960Y-93799600D01*
X143849238Y-94034917D01*
X143988310Y-94251041D01*
X144136303Y-94352160D01*
X142266355Y-94352160D01*
X142403841Y-94263690D01*
X142548831Y-94051490D01*
X142599840Y-93799600D01*
X142599840Y-90299600D01*
X142555562Y-90064283D01*
X142416490Y-89848159D01*
X142204290Y-89703169D01*
X141952400Y-89652160D01*
X138452400Y-89652160D01*
X138217083Y-89696438D01*
X138000959Y-89835510D01*
X137855969Y-90047710D01*
X137804960Y-90299600D01*
X131545000Y-90299600D01*
X131545000Y-76155581D01*
X131765676Y-76689658D01*
X132703007Y-77628627D01*
X133928317Y-78137420D01*
X135255062Y-78138578D01*
X136481258Y-77631924D01*
X137420227Y-76694593D01*
X137508320Y-76482440D01*
X139089165Y-76482440D01*
X139298353Y-76843289D01*
X140235650Y-77220824D01*
X141246077Y-77210933D01*
X141626846Y-77053213D01*
X147027392Y-77053213D01*
X147096857Y-77295397D01*
X147620302Y-77482144D01*
X148175368Y-77454362D01*
X148559143Y-77295397D01*
X148628608Y-77053213D01*
X147828000Y-76252605D01*
X147027392Y-77053213D01*
X141626846Y-77053213D01*
X142133647Y-76843289D01*
X142342835Y-76482440D01*
X140716000Y-74855605D01*
X139089165Y-76482440D01*
X137508320Y-76482440D01*
X137929020Y-75469283D01*
X137930131Y-74195650D01*
X138171176Y-74195650D01*
X138181067Y-75206077D01*
X138548711Y-76093647D01*
X138909560Y-76302835D01*
X140536395Y-74676000D01*
X140895605Y-74676000D01*
X142522440Y-76302835D01*
X142883289Y-76093647D01*
X142975264Y-75865302D01*
X146418856Y-75865302D01*
X146446638Y-76420368D01*
X146605603Y-76804143D01*
X146847787Y-76873608D01*
X147648395Y-76073000D01*
X148007605Y-76073000D01*
X148808213Y-76873608D01*
X149050397Y-76804143D01*
X149159355Y-76498738D01*
X149309990Y-76863303D01*
X149702630Y-77256629D01*
X150215900Y-77469757D01*
X150771661Y-77470242D01*
X151285303Y-77258010D01*
X151678629Y-76865370D01*
X151891757Y-76352100D01*
X151891759Y-76349664D01*
X152103990Y-76863303D01*
X152496630Y-77256629D01*
X153009900Y-77469757D01*
X153565661Y-77470242D01*
X153570635Y-77468187D01*
X163349424Y-87246976D01*
X163604875Y-87417663D01*
X163906200Y-87477600D01*
X168177448Y-87477600D01*
X171505444Y-90805596D01*
X171505438Y-90812367D01*
X171647483Y-91156143D01*
X171910273Y-91419392D01*
X172253801Y-91562038D01*
X172625767Y-91562362D01*
X172969543Y-91420317D01*
X173232792Y-91157527D01*
X173317853Y-90952679D01*
X173413167Y-90952762D01*
X173756943Y-90810717D01*
X174020192Y-90547927D01*
X174162838Y-90204399D01*
X174163162Y-89832433D01*
X174021117Y-89488657D01*
X173758327Y-89225408D01*
X173414799Y-89082762D01*
X173406707Y-89082755D01*
X171268152Y-86944200D01*
X177784507Y-86944200D01*
X177897546Y-87512485D01*
X178219453Y-87994254D01*
X178548626Y-88214200D01*
X178219453Y-88434146D01*
X177897546Y-88915915D01*
X177784507Y-89484200D01*
X177897546Y-90052485D01*
X178219453Y-90534254D01*
X178701222Y-90856161D01*
X179269507Y-90969200D01*
X179327693Y-90969200D01*
X179895978Y-90856161D01*
X180377747Y-90534254D01*
X180699654Y-90052485D01*
X180812693Y-89484200D01*
X180699654Y-88915915D01*
X180377747Y-88434146D01*
X180048574Y-88214200D01*
X180377747Y-87994254D01*
X180699654Y-87512485D01*
X180812693Y-86944200D01*
X180699654Y-86375915D01*
X180377747Y-85894146D01*
X180333823Y-85864797D01*
X180508298Y-85792527D01*
X180686927Y-85613899D01*
X180783600Y-85380510D01*
X180783600Y-84689950D01*
X180624850Y-84531200D01*
X179425600Y-84531200D01*
X179425600Y-84551200D01*
X179171600Y-84551200D01*
X179171600Y-84531200D01*
X177972350Y-84531200D01*
X177813600Y-84689950D01*
X177813600Y-85380510D01*
X177910273Y-85613899D01*
X178088902Y-85792527D01*
X178263377Y-85864797D01*
X178219453Y-85894146D01*
X177897546Y-86375915D01*
X177784507Y-86944200D01*
X171268152Y-86944200D01*
X169593776Y-85269824D01*
X169338325Y-85099137D01*
X169037000Y-85039200D01*
X166035752Y-85039200D01*
X164424442Y-83427890D01*
X177813600Y-83427890D01*
X177813600Y-84118450D01*
X177972350Y-84277200D01*
X179171600Y-84277200D01*
X179171600Y-83077950D01*
X179425600Y-83077950D01*
X179425600Y-84277200D01*
X180624850Y-84277200D01*
X180783600Y-84118450D01*
X180783600Y-83427890D01*
X180686927Y-83194501D01*
X180508298Y-83015873D01*
X180274909Y-82919200D01*
X179584350Y-82919200D01*
X179425600Y-83077950D01*
X179171600Y-83077950D01*
X179012850Y-82919200D01*
X178322291Y-82919200D01*
X178088902Y-83015873D01*
X177910273Y-83194501D01*
X177813600Y-83427890D01*
X164424442Y-83427890D01*
X161750519Y-80753967D01*
X167212838Y-80753967D01*
X167354883Y-81097743D01*
X167617673Y-81360992D01*
X167961201Y-81503638D01*
X168333167Y-81503962D01*
X168676943Y-81361917D01*
X168940192Y-81099127D01*
X169082838Y-80755599D01*
X169082845Y-80747507D01*
X169746176Y-80084176D01*
X169916863Y-79828725D01*
X169976800Y-79527400D01*
X169976800Y-77776511D01*
X169981592Y-77771727D01*
X170124238Y-77428199D01*
X170124562Y-77056233D01*
X169982517Y-76712457D01*
X169719727Y-76449208D01*
X169376199Y-76306562D01*
X169004233Y-76306238D01*
X168660457Y-76448283D01*
X168397208Y-76711073D01*
X168254562Y-77054601D01*
X168254238Y-77426567D01*
X168396283Y-77770343D01*
X168402000Y-77776070D01*
X168402000Y-79201248D01*
X167969604Y-79633644D01*
X167962833Y-79633638D01*
X167619057Y-79775683D01*
X167355808Y-80038473D01*
X167213162Y-80382001D01*
X167212838Y-80753967D01*
X161750519Y-80753967D01*
X158478992Y-77482440D01*
X159512000Y-77482440D01*
X159747317Y-77438162D01*
X159963441Y-77299090D01*
X160108431Y-77086890D01*
X160159440Y-76835000D01*
X160159440Y-76482440D01*
X164108165Y-76482440D01*
X164317353Y-76843289D01*
X165254650Y-77220824D01*
X166265077Y-77210933D01*
X167152647Y-76843289D01*
X167361835Y-76482440D01*
X165735000Y-74855605D01*
X164108165Y-76482440D01*
X160159440Y-76482440D01*
X160159440Y-75311000D01*
X160115162Y-75075683D01*
X159976090Y-74859559D01*
X159763890Y-74714569D01*
X159512000Y-74663560D01*
X157988000Y-74663560D01*
X157752683Y-74707838D01*
X157536559Y-74846910D01*
X157391569Y-75059110D01*
X157340560Y-75311000D01*
X157340560Y-75765646D01*
X157141010Y-75282697D01*
X156748370Y-74889371D01*
X156235100Y-74676243D01*
X155679339Y-74675758D01*
X155165697Y-74887990D01*
X154772371Y-75280630D01*
X154622394Y-75641815D01*
X154474010Y-75282697D01*
X154081370Y-74889371D01*
X153568100Y-74676243D01*
X153012339Y-74675758D01*
X152498697Y-74887990D01*
X152105371Y-75280630D01*
X151892243Y-75793900D01*
X151892241Y-75796336D01*
X151680010Y-75282697D01*
X151287370Y-74889371D01*
X150774100Y-74676243D01*
X150218339Y-74675758D01*
X149704697Y-74887990D01*
X149311371Y-75280630D01*
X149168027Y-75625841D01*
X149050397Y-75341857D01*
X148808213Y-75272392D01*
X148007605Y-76073000D01*
X147648395Y-76073000D01*
X146847787Y-75272392D01*
X146605603Y-75341857D01*
X146418856Y-75865302D01*
X142975264Y-75865302D01*
X143260824Y-75156350D01*
X143260202Y-75092787D01*
X147027392Y-75092787D01*
X147828000Y-75893395D01*
X148628608Y-75092787D01*
X148559143Y-74850603D01*
X148035698Y-74663856D01*
X147480632Y-74691638D01*
X147096857Y-74850603D01*
X147027392Y-75092787D01*
X143260202Y-75092787D01*
X143250933Y-74145923D01*
X143006439Y-73555661D01*
X147700758Y-73555661D01*
X147912990Y-74069303D01*
X148305630Y-74462629D01*
X148818900Y-74675757D01*
X149374661Y-74676242D01*
X149888303Y-74464010D01*
X150281629Y-74071370D01*
X150494757Y-73558100D01*
X150494759Y-73555664D01*
X150706990Y-74069303D01*
X151099630Y-74462629D01*
X151612900Y-74675757D01*
X152168661Y-74676242D01*
X152682303Y-74464010D01*
X153075629Y-74071370D01*
X153225606Y-73710185D01*
X153373990Y-74069303D01*
X153766630Y-74462629D01*
X154279900Y-74675757D01*
X154835661Y-74676242D01*
X155349303Y-74464010D01*
X155742629Y-74071370D01*
X155955757Y-73558100D01*
X155955759Y-73555664D01*
X156167990Y-74069303D01*
X156560630Y-74462629D01*
X157073900Y-74675757D01*
X157629661Y-74676242D01*
X158143303Y-74464010D01*
X158412131Y-74195650D01*
X163190176Y-74195650D01*
X163200067Y-75206077D01*
X163567711Y-76093647D01*
X163928560Y-76302835D01*
X165555395Y-74676000D01*
X165914605Y-74676000D01*
X167541440Y-76302835D01*
X167902289Y-76093647D01*
X168156121Y-75463462D01*
X169587622Y-75463462D01*
X170094276Y-76689658D01*
X171031607Y-77628627D01*
X172256917Y-78137420D01*
X173583662Y-78138578D01*
X174809858Y-77631924D01*
X175748827Y-76694593D01*
X176257620Y-75469283D01*
X176258778Y-74142538D01*
X175752124Y-72916342D01*
X174814793Y-71977373D01*
X173589483Y-71468580D01*
X172262738Y-71467422D01*
X171036542Y-71974076D01*
X170097573Y-72911407D01*
X169588780Y-74136717D01*
X169587622Y-75463462D01*
X168156121Y-75463462D01*
X168279824Y-75156350D01*
X168269933Y-74145923D01*
X167902289Y-73258353D01*
X167541440Y-73049165D01*
X165914605Y-74676000D01*
X165555395Y-74676000D01*
X163928560Y-73049165D01*
X163567711Y-73258353D01*
X163190176Y-74195650D01*
X158412131Y-74195650D01*
X158536629Y-74071370D01*
X158749757Y-73558100D01*
X158750242Y-73002339D01*
X158695379Y-72869560D01*
X164108165Y-72869560D01*
X165735000Y-74496395D01*
X167361835Y-72869560D01*
X167152647Y-72508711D01*
X166215350Y-72131176D01*
X165204923Y-72141067D01*
X164317353Y-72508711D01*
X164108165Y-72869560D01*
X158695379Y-72869560D01*
X158538010Y-72488697D01*
X158145370Y-72095371D01*
X157632100Y-71882243D01*
X157076339Y-71881758D01*
X156562697Y-72093990D01*
X156169371Y-72486630D01*
X155956243Y-72999900D01*
X155956241Y-73002336D01*
X155744010Y-72488697D01*
X155351370Y-72095371D01*
X154838100Y-71882243D01*
X154282339Y-71881758D01*
X153768697Y-72093990D01*
X153375371Y-72486630D01*
X153225394Y-72847815D01*
X153077010Y-72488697D01*
X152684370Y-72095371D01*
X152171100Y-71882243D01*
X151615339Y-71881758D01*
X151101697Y-72093990D01*
X150708371Y-72486630D01*
X150495243Y-72999900D01*
X150495241Y-73002336D01*
X150283010Y-72488697D01*
X149890370Y-72095371D01*
X149377100Y-71882243D01*
X148821339Y-71881758D01*
X148307697Y-72093990D01*
X147914371Y-72486630D01*
X147701243Y-72999900D01*
X147700758Y-73555661D01*
X143006439Y-73555661D01*
X142883289Y-73258353D01*
X142522440Y-73049165D01*
X140895605Y-74676000D01*
X140536395Y-74676000D01*
X138909560Y-73049165D01*
X138548711Y-73258353D01*
X138171176Y-74195650D01*
X137930131Y-74195650D01*
X137930178Y-74142538D01*
X137423524Y-72916342D01*
X137376824Y-72869560D01*
X139089165Y-72869560D01*
X140716000Y-74496395D01*
X142342835Y-72869560D01*
X142133647Y-72508711D01*
X141196350Y-72131176D01*
X140185923Y-72141067D01*
X139298353Y-72508711D01*
X139089165Y-72869560D01*
X137376824Y-72869560D01*
X136486193Y-71977373D01*
X135260883Y-71468580D01*
X133934138Y-71467422D01*
X132707942Y-71974076D01*
X131768973Y-72911407D01*
X131545000Y-73450794D01*
X131545000Y-70331000D01*
X234088000Y-70331000D01*
X234088000Y-73757782D01*
G36*
X159232600Y-115798600D02*
X159252600Y-115798600D01*
X159252600Y-116052600D01*
X159232600Y-116052600D01*
X159232600Y-116072600D01*
X158978600Y-116072600D01*
X158978600Y-116052600D01*
X158958600Y-116052600D01*
X158958600Y-115798600D01*
X158978600Y-115798600D01*
X158978600Y-115778600D01*
X159232600Y-115778600D01*
X159232600Y-115798600D01*
X159232600Y-115798600D01*
G37*
X159232600Y-115798600D02*
X159252600Y-115798600D01*
X159252600Y-116052600D01*
X159232600Y-116052600D01*
X159232600Y-116072600D01*
X158978600Y-116072600D01*
X158978600Y-116052600D01*
X158958600Y-116052600D01*
X158958600Y-115798600D01*
X158978600Y-115798600D01*
X158978600Y-115778600D01*
X159232600Y-115778600D01*
X159232600Y-115798600D01*
G36*
X215640283Y-96515543D02*
X215903073Y-96778792D01*
X216246601Y-96921438D01*
X216618567Y-96921762D01*
X216962343Y-96779717D01*
X216993514Y-96748600D01*
X220016670Y-96748600D01*
X218967985Y-97797285D01*
X218802804Y-98044495D01*
X218744800Y-98336100D01*
X218744800Y-101563769D01*
X211786138Y-108522432D01*
X211786135Y-108522434D01*
X211767085Y-108541485D01*
X204332170Y-115976400D01*
X195638984Y-115976400D01*
X195745326Y-115817248D01*
X195859400Y-115243759D01*
X195859400Y-115185041D01*
X195745326Y-114611552D01*
X195434226Y-114145958D01*
X195459717Y-114141162D01*
X195675841Y-114002090D01*
X195820831Y-113789890D01*
X195871840Y-113538000D01*
X195871840Y-112240990D01*
X196759230Y-111353600D01*
X198424800Y-111353600D01*
X198716405Y-111295596D01*
X198963615Y-111130415D01*
X204602415Y-105491616D01*
X204767596Y-105244405D01*
X204779051Y-105186815D01*
X204825600Y-104952800D01*
X204825600Y-104880619D01*
X205033600Y-104922740D01*
X205633600Y-104922740D01*
X205868917Y-104878462D01*
X206085041Y-104739390D01*
X206230031Y-104527190D01*
X206278610Y-104287300D01*
X208983600Y-104287300D01*
X209275205Y-104229296D01*
X209522415Y-104064115D01*
X209870306Y-103716225D01*
X209912967Y-103716262D01*
X210256743Y-103574217D01*
X210519992Y-103311427D01*
X210662638Y-102967899D01*
X210662962Y-102595933D01*
X210520917Y-102252157D01*
X210258127Y-101988908D01*
X209914599Y-101846262D01*
X209542633Y-101845938D01*
X209198857Y-101987983D01*
X208935608Y-102250773D01*
X208792962Y-102594301D01*
X208792924Y-102638346D01*
X208667970Y-102763300D01*
X206278782Y-102763300D01*
X206236762Y-102539983D01*
X206097690Y-102323859D01*
X205885490Y-102178869D01*
X205633600Y-102127860D01*
X205033600Y-102127860D01*
X204798283Y-102172138D01*
X204699072Y-102235978D01*
X204615490Y-102178869D01*
X204363600Y-102127860D01*
X203763600Y-102127860D01*
X203528283Y-102172138D01*
X203429072Y-102235978D01*
X203345490Y-102178869D01*
X203093600Y-102127860D01*
X202493600Y-102127860D01*
X202258283Y-102172138D01*
X202159072Y-102235978D01*
X202075490Y-102178869D01*
X201823600Y-102127860D01*
X201489170Y-102127860D01*
X202009280Y-101607750D01*
X206210000Y-101607750D01*
X206210000Y-101948309D01*
X206306673Y-102181698D01*
X206485301Y-102360327D01*
X206718690Y-102457000D01*
X207359250Y-102457000D01*
X207518000Y-102298250D01*
X207518000Y-101449000D01*
X207772000Y-101449000D01*
X207772000Y-102298250D01*
X207930750Y-102457000D01*
X208571310Y-102457000D01*
X208804699Y-102360327D01*
X208983327Y-102181698D01*
X209080000Y-101948309D01*
X209080000Y-101607750D01*
X208921250Y-101449000D01*
X207772000Y-101449000D01*
X207518000Y-101449000D01*
X206368750Y-101449000D01*
X206210000Y-101607750D01*
X202009280Y-101607750D01*
X202448831Y-101168200D01*
X206341950Y-101168200D01*
X206368750Y-101195000D01*
X207518000Y-101195000D01*
X207518000Y-101175000D01*
X207772000Y-101175000D01*
X207772000Y-101195000D01*
X208921250Y-101195000D01*
X208948050Y-101168200D01*
X212090000Y-101168200D01*
X212381605Y-101110196D01*
X212605912Y-100960318D01*
X212656167Y-100960362D01*
X212999943Y-100818317D01*
X213263192Y-100555527D01*
X213405838Y-100211999D01*
X213406162Y-99840033D01*
X213264117Y-99496257D01*
X213006111Y-99237800D01*
X214009570Y-99237800D01*
X215955475Y-101183706D01*
X215955438Y-101226367D01*
X216097483Y-101570143D01*
X216360273Y-101833392D01*
X216703801Y-101976038D01*
X217075767Y-101976362D01*
X217419543Y-101834317D01*
X217682792Y-101571527D01*
X217825438Y-101227999D01*
X217825762Y-100856033D01*
X217683717Y-100512257D01*
X217420927Y-100249008D01*
X217077399Y-100106362D01*
X217033354Y-100106324D01*
X214862615Y-97935585D01*
X214615404Y-97770404D01*
X214323800Y-97712401D01*
X214316767Y-97713800D01*
X209072081Y-97713800D01*
X209048162Y-97586683D01*
X208909090Y-97370559D01*
X208696890Y-97225569D01*
X208445000Y-97174560D01*
X206845000Y-97174560D01*
X206665963Y-97208248D01*
X206903943Y-97109917D01*
X206935114Y-97078800D01*
X214541100Y-97078800D01*
X214832705Y-97020796D01*
X215079915Y-96855615D01*
X215575873Y-96359657D01*
X215640283Y-96515543D01*
X215640283Y-96515543D01*
G37*
X215640283Y-96515543D02*
X215903073Y-96778792D01*
X216246601Y-96921438D01*
X216618567Y-96921762D01*
X216962343Y-96779717D01*
X216993514Y-96748600D01*
X220016670Y-96748600D01*
X218967985Y-97797285D01*
X218802804Y-98044495D01*
X218744800Y-98336100D01*
X218744800Y-101563769D01*
X211786138Y-108522432D01*
X211786135Y-108522434D01*
X211767085Y-108541485D01*
X204332170Y-115976400D01*
X195638984Y-115976400D01*
X195745326Y-115817248D01*
X195859400Y-115243759D01*
X195859400Y-115185041D01*
X195745326Y-114611552D01*
X195434226Y-114145958D01*
X195459717Y-114141162D01*
X195675841Y-114002090D01*
X195820831Y-113789890D01*
X195871840Y-113538000D01*
X195871840Y-112240990D01*
X196759230Y-111353600D01*
X198424800Y-111353600D01*
X198716405Y-111295596D01*
X198963615Y-111130415D01*
X204602415Y-105491616D01*
X204767596Y-105244405D01*
X204779051Y-105186815D01*
X204825600Y-104952800D01*
X204825600Y-104880619D01*
X205033600Y-104922740D01*
X205633600Y-104922740D01*
X205868917Y-104878462D01*
X206085041Y-104739390D01*
X206230031Y-104527190D01*
X206278610Y-104287300D01*
X208983600Y-104287300D01*
X209275205Y-104229296D01*
X209522415Y-104064115D01*
X209870306Y-103716225D01*
X209912967Y-103716262D01*
X210256743Y-103574217D01*
X210519992Y-103311427D01*
X210662638Y-102967899D01*
X210662962Y-102595933D01*
X210520917Y-102252157D01*
X210258127Y-101988908D01*
X209914599Y-101846262D01*
X209542633Y-101845938D01*
X209198857Y-101987983D01*
X208935608Y-102250773D01*
X208792962Y-102594301D01*
X208792924Y-102638346D01*
X208667970Y-102763300D01*
X206278782Y-102763300D01*
X206236762Y-102539983D01*
X206097690Y-102323859D01*
X205885490Y-102178869D01*
X205633600Y-102127860D01*
X205033600Y-102127860D01*
X204798283Y-102172138D01*
X204699072Y-102235978D01*
X204615490Y-102178869D01*
X204363600Y-102127860D01*
X203763600Y-102127860D01*
X203528283Y-102172138D01*
X203429072Y-102235978D01*
X203345490Y-102178869D01*
X203093600Y-102127860D01*
X202493600Y-102127860D01*
X202258283Y-102172138D01*
X202159072Y-102235978D01*
X202075490Y-102178869D01*
X201823600Y-102127860D01*
X201489170Y-102127860D01*
X202009280Y-101607750D01*
X206210000Y-101607750D01*
X206210000Y-101948309D01*
X206306673Y-102181698D01*
X206485301Y-102360327D01*
X206718690Y-102457000D01*
X207359250Y-102457000D01*
X207518000Y-102298250D01*
X207518000Y-101449000D01*
X207772000Y-101449000D01*
X207772000Y-102298250D01*
X207930750Y-102457000D01*
X208571310Y-102457000D01*
X208804699Y-102360327D01*
X208983327Y-102181698D01*
X209080000Y-101948309D01*
X209080000Y-101607750D01*
X208921250Y-101449000D01*
X207772000Y-101449000D01*
X207518000Y-101449000D01*
X206368750Y-101449000D01*
X206210000Y-101607750D01*
X202009280Y-101607750D01*
X202448831Y-101168200D01*
X206341950Y-101168200D01*
X206368750Y-101195000D01*
X207518000Y-101195000D01*
X207518000Y-101175000D01*
X207772000Y-101175000D01*
X207772000Y-101195000D01*
X208921250Y-101195000D01*
X208948050Y-101168200D01*
X212090000Y-101168200D01*
X212381605Y-101110196D01*
X212605912Y-100960318D01*
X212656167Y-100960362D01*
X212999943Y-100818317D01*
X213263192Y-100555527D01*
X213405838Y-100211999D01*
X213406162Y-99840033D01*
X213264117Y-99496257D01*
X213006111Y-99237800D01*
X214009570Y-99237800D01*
X215955475Y-101183706D01*
X215955438Y-101226367D01*
X216097483Y-101570143D01*
X216360273Y-101833392D01*
X216703801Y-101976038D01*
X217075767Y-101976362D01*
X217419543Y-101834317D01*
X217682792Y-101571527D01*
X217825438Y-101227999D01*
X217825762Y-100856033D01*
X217683717Y-100512257D01*
X217420927Y-100249008D01*
X217077399Y-100106362D01*
X217033354Y-100106324D01*
X214862615Y-97935585D01*
X214615404Y-97770404D01*
X214323800Y-97712401D01*
X214316767Y-97713800D01*
X209072081Y-97713800D01*
X209048162Y-97586683D01*
X208909090Y-97370559D01*
X208696890Y-97225569D01*
X208445000Y-97174560D01*
X206845000Y-97174560D01*
X206665963Y-97208248D01*
X206903943Y-97109917D01*
X206935114Y-97078800D01*
X214541100Y-97078800D01*
X214832705Y-97020796D01*
X215079915Y-96855615D01*
X215575873Y-96359657D01*
X215640283Y-96515543D01*
G36*
X197840600Y-103398300D02*
X197860600Y-103398300D01*
X197860600Y-103652300D01*
X197840600Y-103652300D01*
X197840600Y-104751550D01*
X197999350Y-104910300D01*
X198139910Y-104910300D01*
X198221600Y-104876463D01*
X198221600Y-106643769D01*
X196153372Y-108711998D01*
X193584232Y-108711998D01*
X197007816Y-105288415D01*
X197126617Y-105110616D01*
X197172996Y-105041205D01*
X197205753Y-104876526D01*
X197287290Y-104910300D01*
X197427850Y-104910300D01*
X197586600Y-104751550D01*
X197586600Y-103652300D01*
X197566600Y-103652300D01*
X197566600Y-103398300D01*
X197586600Y-103398300D01*
X197586600Y-103378300D01*
X197840600Y-103378300D01*
X197840600Y-103398300D01*
X197840600Y-103398300D01*
G37*
X197840600Y-103398300D02*
X197860600Y-103398300D01*
X197860600Y-103652300D01*
X197840600Y-103652300D01*
X197840600Y-104751550D01*
X197999350Y-104910300D01*
X198139910Y-104910300D01*
X198221600Y-104876463D01*
X198221600Y-106643769D01*
X196153372Y-108711998D01*
X193584232Y-108711998D01*
X197007816Y-105288415D01*
X197126617Y-105110616D01*
X197172996Y-105041205D01*
X197205753Y-104876526D01*
X197287290Y-104910300D01*
X197427850Y-104910300D01*
X197586600Y-104751550D01*
X197586600Y-103652300D01*
X197566600Y-103652300D01*
X197566600Y-103398300D01*
X197586600Y-103398300D01*
X197586600Y-103378300D01*
X197840600Y-103378300D01*
X197840600Y-103398300D01*
G36*
X204715346Y-77101347D02*
X205197115Y-77423254D01*
X205765400Y-77536293D01*
X206129449Y-77463879D01*
X207410985Y-78745415D01*
X207658195Y-78910596D01*
X207949800Y-78968600D01*
X214111170Y-78968600D01*
X215234184Y-80091615D01*
X215402521Y-80204094D01*
X215481395Y-80256796D01*
X215773000Y-80314800D01*
X220969170Y-80314800D01*
X221553369Y-80899000D01*
X213258400Y-80899000D01*
X212966796Y-80957003D01*
X212719585Y-81122184D01*
X208280000Y-85561770D01*
X208280000Y-84139211D01*
X208284792Y-84134427D01*
X208427438Y-83790899D01*
X208427762Y-83418933D01*
X208285717Y-83075157D01*
X208022927Y-82811908D01*
X207679399Y-82669262D01*
X207307433Y-82668938D01*
X206963657Y-82810983D01*
X206700408Y-83073773D01*
X206557762Y-83417301D01*
X206557438Y-83789267D01*
X206699483Y-84133043D01*
X206705200Y-84138770D01*
X206705200Y-84628631D01*
X206653867Y-84577208D01*
X206310339Y-84434562D01*
X206302247Y-84434555D01*
X199263516Y-77395824D01*
X199009127Y-77225847D01*
X199195454Y-77101347D01*
X199415400Y-76772174D01*
X199635346Y-77101347D01*
X200117115Y-77423254D01*
X200685400Y-77536293D01*
X201253685Y-77423254D01*
X201735454Y-77101347D01*
X201955400Y-76772174D01*
X202175346Y-77101347D01*
X202657115Y-77423254D01*
X203225400Y-77536293D01*
X203793685Y-77423254D01*
X204275454Y-77101347D01*
X204495400Y-76772174D01*
X204715346Y-77101347D01*
X204715346Y-77101347D01*
G37*
X204715346Y-77101347D02*
X205197115Y-77423254D01*
X205765400Y-77536293D01*
X206129449Y-77463879D01*
X207410985Y-78745415D01*
X207658195Y-78910596D01*
X207949800Y-78968600D01*
X214111170Y-78968600D01*
X215234184Y-80091615D01*
X215402521Y-80204094D01*
X215481395Y-80256796D01*
X215773000Y-80314800D01*
X220969170Y-80314800D01*
X221553369Y-80899000D01*
X213258400Y-80899000D01*
X212966796Y-80957003D01*
X212719585Y-81122184D01*
X208280000Y-85561770D01*
X208280000Y-84139211D01*
X208284792Y-84134427D01*
X208427438Y-83790899D01*
X208427762Y-83418933D01*
X208285717Y-83075157D01*
X208022927Y-82811908D01*
X207679399Y-82669262D01*
X207307433Y-82668938D01*
X206963657Y-82810983D01*
X206700408Y-83073773D01*
X206557762Y-83417301D01*
X206557438Y-83789267D01*
X206699483Y-84133043D01*
X206705200Y-84138770D01*
X206705200Y-84628631D01*
X206653867Y-84577208D01*
X206310339Y-84434562D01*
X206302247Y-84434555D01*
X199263516Y-77395824D01*
X199009127Y-77225847D01*
X199195454Y-77101347D01*
X199415400Y-76772174D01*
X199635346Y-77101347D01*
X200117115Y-77423254D01*
X200685400Y-77536293D01*
X201253685Y-77423254D01*
X201735454Y-77101347D01*
X201955400Y-76772174D01*
X202175346Y-77101347D01*
X202657115Y-77423254D01*
X203225400Y-77536293D01*
X203793685Y-77423254D01*
X204275454Y-77101347D01*
X204495400Y-76772174D01*
X204715346Y-77101347D01*
G36*
X208432400Y-75895200D02*
X208452400Y-75895200D01*
X208452400Y-76149200D01*
X208432400Y-76149200D01*
X208432400Y-76169200D01*
X208178400Y-76169200D01*
X208178400Y-76149200D01*
X208158400Y-76149200D01*
X208158400Y-75895200D01*
X208178400Y-75895200D01*
X208178400Y-75875200D01*
X208432400Y-75875200D01*
X208432400Y-75895200D01*
X208432400Y-75895200D01*
G37*
X208432400Y-75895200D02*
X208452400Y-75895200D01*
X208452400Y-76149200D01*
X208432400Y-76149200D01*
X208432400Y-76169200D01*
X208178400Y-76169200D01*
X208178400Y-76149200D01*
X208158400Y-76149200D01*
X208158400Y-75895200D01*
X208178400Y-75895200D01*
X208178400Y-75875200D01*
X208432400Y-75875200D01*
X208432400Y-75895200D01*
G36*
X207255346Y-74561347D02*
X207538501Y-74750545D01*
X207538476Y-74750555D01*
X207110217Y-75140842D01*
X207043102Y-75283753D01*
X206815454Y-74943053D01*
X206529822Y-74752200D01*
X206815454Y-74561347D01*
X207035400Y-74232174D01*
X207255346Y-74561347D01*
X207255346Y-74561347D01*
G37*
X207255346Y-74561347D02*
X207538501Y-74750545D01*
X207538476Y-74750555D01*
X207110217Y-75140842D01*
X207043102Y-75283753D01*
X206815454Y-74943053D01*
X206529822Y-74752200D01*
X206815454Y-74561347D01*
X207035400Y-74232174D01*
X207255346Y-74561347D01*
M02*
