M48
;DRILL file {KiCad 4.0.7} date 09/04/18 15:16:09
;FORMAT={-:-/ absolute / inch / decimal}
FMAT,2
INCH,TZ
T1C0.016
T2C0.039
T3C0.043
T4C0.044
T5C0.055
T6C0.124
T7C0.126
%
G90
G05
M72
T1
X6.358Y-4.474
X6.62Y-3.172
X6.661Y-3.041
X6.789Y-3.568
X6.82Y-3.544
X7.3665Y-4.0105
X7.5615Y-4.0095
X7.783Y-4.139
X7.834Y-3.927
X7.932Y-3.318
X7.937Y-3.7945
X7.9835Y-4.143
X8.0155Y-3.5955
X8.034Y-3.792
X8.065Y-3.2325
X8.065Y-3.385
X8.1151Y-3.361
X8.119Y-3.7585
X8.125Y-3.792
X8.169Y-3.2915
X8.171Y-3.44
X8.175Y-3.9891
X8.215Y-3.447
X8.257Y-4.0465
X8.266Y-3.436
X8.298Y-3.666
X8.299Y-3.626
X8.311Y-3.39
X8.365Y-3.938
X8.445Y-3.65
X8.515Y-3.4425
X8.521Y-3.779
X8.523Y-3.678
X8.539Y-3.978
X8.552Y-4.716
X8.589Y-3.582
X8.606Y-4.0895
X8.684Y-4.683
X8.695Y-3.175
X8.738Y-3.9285
X8.745Y-3.8245
X9.053Y-3.272
X9.116Y-3.222
T2
X7.059Y-3.323
X7.059Y-3.423
X7.059Y-3.523
X7.201Y-3.422
X7.201Y-3.522
X7.301Y-3.422
X7.301Y-3.522
X7.401Y-3.422
X7.401Y-3.522
X7.901Y-2.993
X8.001Y-2.893
X8.301Y-2.993
X8.401Y-2.893
T3
X6.0618Y-3.6218
X6.5343Y-3.6218
X7.001Y-2.893
X7.001Y-2.993
X7.101Y-2.893
X7.101Y-2.993
X7.201Y-2.893
X7.201Y-2.993
X7.301Y-2.893
X7.301Y-2.993
X7.401Y-2.893
X7.401Y-2.993
X7.501Y-2.893
X7.501Y-2.993
X7.601Y-2.893
X7.601Y-2.993
X7.672Y-3.2072
X7.672Y-3.3072
X7.672Y-3.4072
X7.672Y-3.5072
X7.701Y-2.893
X7.701Y-2.993
X7.755Y-3.671
X7.801Y-2.893
X7.801Y-2.993
X7.855Y-3.671
X7.901Y-2.893
X8.001Y-2.993
X8.101Y-2.893
X8.101Y-2.993
X8.201Y-2.893
X8.201Y-2.993
X8.301Y-2.893
X8.401Y-2.993
X8.501Y-2.893
X8.501Y-2.993
X8.601Y-2.893
X8.601Y-2.993
X8.701Y-2.893
X8.701Y-2.993
X8.801Y-2.893
X8.801Y-2.993
X8.901Y-2.893
X8.901Y-2.993
T4
X5.82Y-2.995
X5.87Y-2.885
X5.925Y-2.995
X5.964Y-4.464
X5.964Y-4.564
X5.98Y-2.885
X6.035Y-2.995
X6.064Y-4.464
X6.064Y-4.564
X6.085Y-2.885
X6.14Y-2.995
X6.164Y-4.464
X6.164Y-4.564
X6.195Y-2.885
X6.25Y-2.995
X6.264Y-4.464
X6.264Y-4.564
X7.252Y-4.436
X7.252Y-4.536
X7.352Y-4.436
X7.352Y-4.536
X7.452Y-4.436
X7.452Y-4.536
X7.552Y-4.436
X7.552Y-4.536
X7.652Y-4.436
X7.652Y-4.536
X8.302Y-4.454
X8.302Y-4.554
X8.402Y-4.454
X8.402Y-4.554
X8.502Y-4.454
X8.502Y-4.554
X8.602Y-4.454
X8.602Y-4.554
X8.702Y-4.454
X8.702Y-4.554
T5
X6.0618Y-4.1021
X6.3Y-3.545
X6.5362Y-4.1041
T6
X5.54Y-2.94
X6.525Y-2.94
T7
X5.2925Y-4.875
X5.299Y-2.945
X6.808Y-2.945
X6.808Y-4.874
X9.091Y-2.945
X9.091Y-4.874
T3
X5.5178Y-4.0596G85X5.5178Y-4.1384
G05
X5.5198Y-3.5846G85X5.5198Y-3.6634
G05
X5.5965Y-4.284G85X5.6753Y-4.284
G05
X5.5985Y-3.809G85X5.6773Y-3.809
G05
X5.754Y-4.0596G85X5.754Y-4.1384
G05
X5.756Y-3.5846G85X5.756Y-3.6634
G05
T0
M30
