%TF.GenerationSoftware,KiCad,Pcbnew,4.0.7*%
%TF.CreationDate,2018-07-23T15:38:25+02:00*%
%TF.ProjectId,rte_rpi,7274655F7270692E6B696361645F7063,rev?*%
%TF.FileFunction,Copper,L1,Top,Signal*%
%FSLAX46Y46*%
G04 Gerber Fmt 4.6, Leading zero omitted, Abs format (unit mm)*
G04 Created by KiCad (PCBNEW 4.0.7) date 07/23/18 15:38:25*
%MOMM*%
%LPD*%
G01*
G04 APERTURE LIST*
%ADD10C,0.100000*%
%ADD11R,0.508000X1.143000*%
%ADD12R,0.600000X2.000000*%
%ADD13C,2.500000*%
%ADD14C,3.000000*%
%ADD15R,1.700000X1.700000*%
%ADD16O,1.700000X1.700000*%
%ADD17R,1.800000X2.500000*%
%ADD18R,1.727200X1.727200*%
%ADD19O,1.727200X1.727200*%
%ADD20R,3.500000X3.500000*%
%ADD21R,1.000000X1.600000*%
%ADD22R,1.600000X1.000000*%
%ADD23C,5.400000*%
%ADD24R,0.900000X0.800000*%
%ADD25R,2.000000X1.700000*%
%ADD26R,1.500000X0.600000*%
%ADD27C,3.810000*%
%ADD28R,1.524000X1.524000*%
%ADD29C,1.524000*%
%ADD30C,1.000000*%
%ADD31C,0.600000*%
%ADD32C,1.150000*%
%ADD33C,0.304800*%
%ADD34C,0.254000*%
%ADD35C,0.635000*%
%ADD36C,1.270000*%
G04 APERTURE END LIST*
D10*
D11*
X178816000Y-96189800D03*
X181356000Y-96189800D03*
X182626000Y-96189800D03*
X183896000Y-96189800D03*
X185166000Y-96189800D03*
X186436000Y-96189800D03*
X187706000Y-96189800D03*
X187706000Y-102539800D03*
X186436000Y-102539800D03*
X185166000Y-102539800D03*
X183896000Y-102539800D03*
X182626000Y-102539800D03*
X181356000Y-102539800D03*
X180086000Y-102539800D03*
X178816000Y-102539800D03*
X180086000Y-96189800D03*
D12*
X216281000Y-79996300D03*
X215011000Y-79996300D03*
X213741000Y-79996300D03*
X212471000Y-79996300D03*
X211201000Y-79996300D03*
X209931000Y-79996300D03*
X208661000Y-79996300D03*
X207391000Y-79996300D03*
X206121000Y-79996300D03*
X204851000Y-79996300D03*
X203581000Y-79996300D03*
X202311000Y-79996300D03*
X201041000Y-79996300D03*
X199771000Y-79996300D03*
X199771000Y-89396300D03*
X201041000Y-89396300D03*
X202311000Y-89396300D03*
X203581000Y-89396300D03*
X204851000Y-89396300D03*
X206121000Y-89396300D03*
X207391000Y-89396300D03*
X208661000Y-89396300D03*
X209931000Y-89396300D03*
X211201000Y-89396300D03*
X212471000Y-89396300D03*
X213741000Y-89396300D03*
X215011000Y-89396300D03*
X216281000Y-89396300D03*
D13*
X153970000Y-91993000D03*
D14*
X153970000Y-104193000D03*
X166020000Y-104243000D03*
D13*
X165970000Y-91993000D03*
D14*
X160020000Y-90043000D03*
D15*
X177825400Y-76022200D03*
D16*
X177825400Y-73482200D03*
X180365400Y-76022200D03*
X180365400Y-73482200D03*
X182905400Y-76022200D03*
X182905400Y-73482200D03*
X185445400Y-76022200D03*
X185445400Y-73482200D03*
X187985400Y-76022200D03*
X187985400Y-73482200D03*
X190525400Y-76022200D03*
X190525400Y-73482200D03*
X193065400Y-76022200D03*
X193065400Y-73482200D03*
X195605400Y-76022200D03*
X195605400Y-73482200D03*
X198145400Y-76022200D03*
X198145400Y-73482200D03*
X200685400Y-76022200D03*
X200685400Y-73482200D03*
X203225400Y-76022200D03*
X203225400Y-73482200D03*
X205765400Y-76022200D03*
X205765400Y-73482200D03*
X208305400Y-76022200D03*
X208305400Y-73482200D03*
X210845400Y-76022200D03*
X210845400Y-73482200D03*
X213385400Y-76022200D03*
X213385400Y-73482200D03*
X215925400Y-76022200D03*
X215925400Y-73482200D03*
X218465400Y-76022200D03*
X218465400Y-73482200D03*
X221005400Y-76022200D03*
X221005400Y-73482200D03*
X223545400Y-76022200D03*
X223545400Y-73482200D03*
X226085400Y-76022200D03*
X226085400Y-73482200D03*
D17*
X170205400Y-84893400D03*
X170205400Y-88893400D03*
D15*
X185191400Y-90970100D03*
D16*
X185191400Y-88430100D03*
X187731400Y-90970100D03*
X187731400Y-88430100D03*
X190271400Y-90970100D03*
X190271400Y-88430100D03*
D18*
X159105600Y-113385600D03*
D19*
X159105600Y-115925600D03*
X156565600Y-113385600D03*
X156565600Y-115925600D03*
X154025600Y-113385600D03*
X154025600Y-115925600D03*
X151485600Y-113385600D03*
X151485600Y-115925600D03*
D20*
X146151600Y-104114600D03*
X140151600Y-104114600D03*
X143151600Y-108814600D03*
D21*
X178598700Y-105168700D03*
X181598700Y-105168700D03*
D22*
X191084200Y-101106100D03*
X191084200Y-98106100D03*
D21*
X183615200Y-105181400D03*
X186615200Y-105181400D03*
D15*
X195122800Y-90906600D03*
D16*
X195122800Y-88366600D03*
X195122800Y-85826600D03*
X195122800Y-83286600D03*
D20*
X146202400Y-92049600D03*
X140202400Y-92049600D03*
X143202400Y-96749600D03*
D18*
X194360800Y-112674400D03*
D19*
X194360800Y-115214400D03*
X191820800Y-112674400D03*
X191820800Y-115214400D03*
X189280800Y-112674400D03*
X189280800Y-115214400D03*
X186740800Y-112674400D03*
X186740800Y-115214400D03*
X184200800Y-112674400D03*
X184200800Y-115214400D03*
D18*
X221030800Y-113131600D03*
D19*
X221030800Y-115671600D03*
X218490800Y-113131600D03*
X218490800Y-115671600D03*
X215950800Y-113131600D03*
X215950800Y-115671600D03*
X213410800Y-113131600D03*
X213410800Y-115671600D03*
X210870800Y-113131600D03*
X210870800Y-115671600D03*
D23*
X172923200Y-123799600D03*
X230911400Y-123799600D03*
X134429500Y-123825000D03*
X230911400Y-74803000D03*
X134594600Y-74803000D03*
X172923200Y-74803000D03*
D24*
X175244000Y-84719200D03*
X175244000Y-82819200D03*
X173244000Y-83769200D03*
D25*
X154514300Y-84086700D03*
X150514300Y-84086700D03*
X154438100Y-79895700D03*
X150438100Y-79895700D03*
X181337200Y-84709000D03*
X185337200Y-84709000D03*
D26*
X223603800Y-101053900D03*
X223603800Y-99783900D03*
X223603800Y-98513900D03*
X223603800Y-97243900D03*
X223603800Y-95973900D03*
X223603800Y-94703900D03*
X223603800Y-93433900D03*
X218203800Y-93433900D03*
X218203800Y-94703900D03*
X218203800Y-95973900D03*
X218203800Y-97243900D03*
X218203800Y-98513900D03*
X218203800Y-99783900D03*
X218203800Y-101053900D03*
D21*
X143559400Y-84112100D03*
X146559400Y-84112100D03*
X143546700Y-79946500D03*
X146546700Y-79946500D03*
D15*
X191058800Y-95504000D03*
D16*
X193598800Y-95504000D03*
D27*
X165735000Y-74676000D03*
X140716000Y-74676000D03*
D28*
X158750000Y-76073000D03*
D29*
X155956000Y-76073000D03*
X153289000Y-76073000D03*
X150495000Y-76073000D03*
X147828000Y-76073000D03*
X157353000Y-73279000D03*
X154559000Y-73279000D03*
X151892000Y-73279000D03*
X149098000Y-73279000D03*
D30*
X141528800Y-124815600D03*
X226085400Y-86525100D03*
D31*
X198932800Y-101752400D03*
X205181200Y-101854000D03*
X204216000Y-82042000D03*
D32*
X180035200Y-100863400D03*
X185280300Y-100736400D03*
D31*
X216877900Y-101041200D03*
X226466400Y-97612200D03*
X203593700Y-91325700D03*
D32*
X169926000Y-71716900D03*
X170205400Y-80213200D03*
X197815200Y-82956400D03*
X206121000Y-85369400D03*
X181737000Y-82575400D03*
X181838600Y-79273400D03*
X187909200Y-79375000D03*
X187960000Y-83058000D03*
X204851000Y-86283800D03*
X179120800Y-79400400D03*
X161493200Y-113639600D03*
D31*
X231546400Y-81838800D03*
D32*
X182524400Y-93700600D03*
X181356000Y-94716600D03*
D31*
X222123000Y-97142300D03*
X221945200Y-99783900D03*
X218592400Y-103873300D03*
X216573100Y-93395800D03*
X216484200Y-96050100D03*
X225526600Y-116484400D03*
X207391000Y-87363300D03*
X208610200Y-87388700D03*
X219710000Y-118287800D03*
X209905600Y-87363300D03*
X211201000Y-87337900D03*
X225780600Y-118262400D03*
D32*
X186664600Y-93573600D03*
D31*
X214718900Y-99733100D03*
X201599800Y-96380300D03*
X206222600Y-95465900D03*
X207492600Y-83604100D03*
X211582000Y-100939600D03*
X202780900Y-105232200D03*
X209727800Y-102781100D03*
X211709000Y-96685100D03*
X215036400Y-87490300D03*
X204546200Y-96177100D03*
X206946500Y-97459800D03*
X216281000Y-87439500D03*
D33*
X106767150Y-122832650D02*
X106660950Y-122726450D01*
D34*
X104167150Y-122772650D02*
X104120950Y-122726450D01*
X178816000Y-102539800D02*
X178816000Y-104951400D01*
X178816000Y-104951400D02*
X178598700Y-105168700D01*
X181356000Y-102539800D02*
X181356000Y-104926000D01*
X181356000Y-104926000D02*
X181598700Y-105168700D01*
X198932800Y-101752400D02*
X199034400Y-101854000D01*
X199034400Y-101854000D02*
X205181200Y-101854000D01*
D33*
X204851000Y-79996300D02*
X204851000Y-81407000D01*
X204851000Y-81407000D02*
X204216000Y-82042000D01*
X185337200Y-84709000D02*
X193700400Y-84709000D01*
X193700400Y-84709000D02*
X195122800Y-83286600D01*
X143546700Y-84099400D02*
X143559400Y-84112100D01*
D34*
X178816000Y-96189800D02*
X178816000Y-96901000D01*
X190476000Y-97497900D02*
X191084200Y-98106100D01*
X179412900Y-97497900D02*
X190476000Y-97497900D01*
X178816000Y-96901000D02*
X179412900Y-97497900D01*
X191058800Y-95504000D02*
X191058800Y-98080700D01*
X191058800Y-98080700D02*
X191084200Y-98106100D01*
X182626000Y-102539800D02*
X182626000Y-103212900D01*
X183615200Y-104202100D02*
X183615200Y-105181400D01*
X182626000Y-103212900D02*
X183615200Y-104202100D01*
X183896000Y-102539800D02*
X183896000Y-103187500D01*
X186031000Y-104597200D02*
X186615200Y-105181400D01*
X185305700Y-104597200D02*
X186031000Y-104597200D01*
X183896000Y-103187500D02*
X185305700Y-104597200D01*
X180086000Y-102539800D02*
X180086000Y-100914200D01*
X180086000Y-100914200D02*
X180035200Y-100863400D01*
X185166000Y-102539800D02*
X185166000Y-100850700D01*
X185166000Y-100850700D02*
X185280300Y-100736400D01*
X193598800Y-95504000D02*
X193598800Y-95300800D01*
X193598800Y-95300800D02*
X195122800Y-93776800D01*
X195122800Y-93776800D02*
X195122800Y-90906600D01*
D33*
X154514300Y-84086700D02*
X156210000Y-84086700D01*
X168783000Y-71805800D02*
X168783000Y-74155300D01*
X167919400Y-70942200D02*
X168783000Y-71805800D01*
X163652200Y-70942200D02*
X167919400Y-70942200D01*
X161328100Y-73266300D02*
X163652200Y-70942200D01*
X161328100Y-77431900D02*
X161328100Y-73266300D01*
X156705300Y-82054700D02*
X161328100Y-77431900D01*
X156705300Y-83591400D02*
X156705300Y-82054700D01*
X156210000Y-84086700D02*
X156705300Y-83591400D01*
X195122800Y-90906600D02*
X203174600Y-90906600D01*
X203174600Y-90906600D02*
X203593700Y-91325700D01*
D35*
X206121000Y-79996300D02*
X206121000Y-81813400D01*
X203581000Y-83489800D02*
X203581000Y-87553800D01*
X204139800Y-82931000D02*
X203581000Y-83489800D01*
X205003400Y-82931000D02*
X204139800Y-82931000D01*
X206121000Y-81813400D02*
X205003400Y-82931000D01*
X206121000Y-79996300D02*
X206121000Y-78638400D01*
X195859400Y-78079600D02*
X196291200Y-78079600D01*
X178917600Y-78079600D02*
X188747400Y-78079600D01*
X177825400Y-76987400D02*
X177825400Y-76022200D01*
X177825400Y-76987400D02*
X178917600Y-78079600D01*
X188747400Y-78079600D02*
X195173600Y-78079600D01*
X195173600Y-78079600D02*
X195859400Y-78079600D01*
X205562200Y-78079600D02*
X196291200Y-78079600D01*
X206121000Y-78638400D02*
X205562200Y-78079600D01*
X203581000Y-87553800D02*
X203581000Y-89396300D01*
D34*
X218203800Y-101053900D02*
X216890600Y-101053900D01*
X216890600Y-101053900D02*
X216877900Y-101041200D01*
D33*
X218203800Y-101053900D02*
X218203800Y-102125800D01*
X226466400Y-101854000D02*
X226466400Y-97612200D01*
X225844100Y-102476300D02*
X226466400Y-101854000D01*
X218554300Y-102476300D02*
X225844100Y-102476300D01*
X218203800Y-102125800D02*
X218554300Y-102476300D01*
D34*
X203581000Y-89396300D02*
X203581000Y-91313000D01*
X203581000Y-91313000D02*
X203593700Y-91325700D01*
D33*
X168783000Y-74155300D02*
X169316400Y-74688700D01*
X169316400Y-74688700D02*
X169316400Y-76441300D01*
X169316400Y-76441300D02*
X171335700Y-78460600D01*
D34*
X171335700Y-78460600D02*
X175387000Y-78460600D01*
X175387000Y-78460600D02*
X177825400Y-76022200D01*
D33*
X177825400Y-73482200D02*
X175615600Y-71272400D01*
X170370500Y-71272400D02*
X169926000Y-71716900D01*
X175615600Y-71272400D02*
X170370500Y-71272400D01*
X166268400Y-70142100D02*
X168351200Y-70142100D01*
X170205400Y-84893400D02*
X170205400Y-80238600D01*
X157924500Y-79895700D02*
X160743900Y-77076300D01*
X160743900Y-77076300D02*
X160743900Y-72999600D01*
X160743900Y-72999600D02*
X163601400Y-70142100D01*
X163601400Y-70142100D02*
X166268400Y-70142100D01*
X157924500Y-79895700D02*
X154438100Y-79895700D01*
X169926000Y-71716900D02*
X169430700Y-71221600D01*
D34*
X170205400Y-80238600D02*
X170205400Y-80213200D01*
D33*
X168351200Y-70142100D02*
X169430700Y-71221600D01*
D34*
X170205400Y-84893400D02*
X167176200Y-84893400D01*
X165970000Y-86099600D02*
X165970000Y-91993000D01*
X167176200Y-84893400D02*
X165970000Y-86099600D01*
X153970000Y-91993000D02*
X157277800Y-95300800D01*
X170205400Y-93624400D02*
X170205400Y-88893400D01*
X168529000Y-95300800D02*
X170205400Y-93624400D01*
X157277800Y-95300800D02*
X168529000Y-95300800D01*
X170205400Y-88893400D02*
X171405800Y-88893400D01*
X173244000Y-87055200D02*
X173244000Y-83769200D01*
X171405800Y-88893400D02*
X173244000Y-87055200D01*
D33*
X197815200Y-83870800D02*
X198577200Y-84632800D01*
X197815200Y-82956400D02*
X197815200Y-83870800D01*
X201041000Y-79996300D02*
X201041000Y-82169000D01*
X201041000Y-82169000D02*
X198577200Y-84632800D01*
X197383400Y-85826600D02*
X195122800Y-85826600D01*
X198577200Y-84632800D02*
X197383400Y-85826600D01*
X195122800Y-88366600D02*
X197002400Y-88366600D01*
X202311000Y-83058000D02*
X202311000Y-79996300D01*
X197002400Y-88366600D02*
X202311000Y-83058000D01*
X206121000Y-85369400D02*
X206121000Y-89396300D01*
X181737000Y-82575400D02*
X181838600Y-82473800D01*
X181838600Y-82473800D02*
X181838600Y-79273400D01*
X187960000Y-79425800D02*
X187909200Y-79375000D01*
X187960000Y-83058000D02*
X187960000Y-79425800D01*
X204851000Y-86995000D02*
X204851000Y-86283800D01*
X204851000Y-89396300D02*
X204851000Y-86995000D01*
X175244000Y-84719200D02*
X181327000Y-84719200D01*
X181327000Y-84719200D02*
X181337200Y-84709000D01*
X179120800Y-79400400D02*
X179120800Y-83972400D01*
X179857400Y-84709000D02*
X181337200Y-84709000D01*
X179120800Y-83972400D02*
X179857400Y-84709000D01*
D34*
X212140800Y-74777600D02*
X201930000Y-74777600D01*
X222072200Y-74777600D02*
X222250000Y-74955400D01*
X222250000Y-74955400D02*
X222250000Y-77063600D01*
X222250000Y-77063600D02*
X223951800Y-78765400D01*
X223951800Y-78765400D02*
X231520998Y-78765400D01*
X231520998Y-78765400D02*
X233095798Y-80340200D01*
X233095798Y-80340200D02*
X233095798Y-115316000D01*
X233095798Y-115316000D02*
X226771198Y-121640600D01*
X226771198Y-121640600D02*
X176580800Y-121640600D01*
X176580800Y-121640600D02*
X168579800Y-113639600D01*
X168579800Y-113639600D02*
X161493200Y-113639600D01*
X212140800Y-74777600D02*
X222072200Y-74777600D01*
X201930000Y-74777600D02*
X200685400Y-76022200D01*
X200685400Y-76022200D02*
X201955400Y-74752200D01*
X154025600Y-113385600D02*
X154025600Y-112445800D01*
X204571600Y-77368400D02*
X203225400Y-76022200D01*
X216763600Y-77368400D02*
X204571600Y-77368400D01*
X216839800Y-77368400D02*
X216763600Y-77368400D01*
X221488000Y-77368400D02*
X216839800Y-77368400D01*
X223418400Y-79298800D02*
X221488000Y-77368400D01*
X231190800Y-79298800D02*
X223418400Y-79298800D01*
X232486200Y-80594200D02*
X231190800Y-79298800D01*
X232486200Y-115207174D02*
X232486200Y-80594200D01*
X226636974Y-121056400D02*
X232486200Y-115207174D01*
X176733200Y-121056400D02*
X226636974Y-121056400D01*
X168757600Y-113080800D02*
X176733200Y-121056400D01*
X163144200Y-113080800D02*
X168757600Y-113080800D01*
X161518600Y-111455200D02*
X163144200Y-113080800D01*
X155016200Y-111455200D02*
X161518600Y-111455200D01*
X154025600Y-112445800D02*
X155016200Y-111455200D01*
X153187400Y-119303800D02*
X156565600Y-115925600D01*
X152120600Y-119303800D02*
X153187400Y-119303800D01*
X149555200Y-116738400D02*
X152120600Y-119303800D01*
X149555200Y-112318800D02*
X149555200Y-116738400D01*
X151028400Y-110845600D02*
X149555200Y-112318800D01*
X161671000Y-110845600D02*
X151028400Y-110845600D01*
X163245800Y-112420400D02*
X161671000Y-110845600D01*
X168859200Y-112420400D02*
X163245800Y-112420400D01*
X176987198Y-120548398D02*
X168859200Y-112420400D01*
X226136202Y-120548398D02*
X176987198Y-120548398D01*
X231856675Y-114827925D02*
X226136202Y-120548398D01*
X231856675Y-82149075D02*
X231856675Y-114827925D01*
X231546400Y-81838800D02*
X231856675Y-82149075D01*
X205765400Y-73482200D02*
X205765400Y-72644000D01*
X205765400Y-72644000D02*
X206908400Y-71501000D01*
X206908400Y-71501000D02*
X223774000Y-71501000D01*
X223774000Y-71501000D02*
X224815400Y-72542400D01*
X224815400Y-72542400D02*
X224815400Y-77038200D01*
X224815400Y-77038200D02*
X225983800Y-78206600D01*
X225983800Y-78206600D02*
X231749600Y-78206600D01*
X231749600Y-78206600D02*
X233603800Y-80060800D01*
X233603800Y-80060800D02*
X233603800Y-115722400D01*
X233603800Y-115722400D02*
X227152200Y-122174000D01*
X227152200Y-122174000D02*
X176174400Y-122174000D01*
X176174400Y-122174000D02*
X168656000Y-114655600D01*
X168656000Y-114655600D02*
X157835600Y-114655600D01*
X157835600Y-114655600D02*
X156565600Y-113385600D01*
X182626000Y-93802200D02*
X182626000Y-96189800D01*
X182524400Y-93700600D02*
X182626000Y-93802200D01*
X181356000Y-96189800D02*
X181356000Y-94716600D01*
D36*
X146202400Y-92049600D02*
X150317200Y-87934800D01*
X157911800Y-87934800D02*
X160020000Y-90043000D01*
X150317200Y-87934800D02*
X157911800Y-87934800D01*
X146202400Y-92049600D02*
X146202400Y-93218000D01*
X143202400Y-96749600D02*
X143202400Y-101063800D01*
X143202400Y-101063800D02*
X140151600Y-104114600D01*
X140202400Y-92049600D02*
X140202400Y-93749600D01*
X140202400Y-93749600D02*
X143202400Y-96749600D01*
X140151600Y-104114600D02*
X140151600Y-105814600D01*
X140151600Y-105814600D02*
X143151600Y-108814600D01*
X146151600Y-104114600D02*
X149707600Y-100558600D01*
X162335600Y-100558600D02*
X166020000Y-104243000D01*
X149707600Y-100558600D02*
X162335600Y-100558600D01*
X146151600Y-104114600D02*
X146862800Y-104114600D01*
D34*
X207441800Y-111963200D02*
X208902300Y-111963200D01*
X223603800Y-94703900D02*
X225348800Y-94703900D01*
X195973700Y-113931700D02*
X197942200Y-111963200D01*
X197942200Y-111963200D02*
X207441800Y-111963200D01*
X214172800Y-106692700D02*
X217754200Y-103111300D01*
X217754200Y-103111300D02*
X226060000Y-103111300D01*
X226060000Y-103111300D02*
X227558600Y-101612700D01*
X227558600Y-101612700D02*
X227558600Y-96913700D01*
X227558600Y-96913700D02*
X225348800Y-94703900D01*
X195973700Y-113931700D02*
X188074300Y-113931700D01*
X208902300Y-111963200D02*
X214172800Y-106692700D01*
X186740800Y-112674400D02*
X186817000Y-112674400D01*
X186817000Y-112674400D02*
X188074300Y-113931700D01*
X188074300Y-113931700D02*
X188087000Y-113944400D01*
X222123000Y-97142300D02*
X222224600Y-97243900D01*
X222224600Y-97243900D02*
X223603800Y-97243900D01*
X214884000Y-106984800D02*
X217995500Y-103873300D01*
X223603800Y-99783900D02*
X221945200Y-99783900D01*
X181914800Y-114960400D02*
X181914800Y-116967000D01*
X181914800Y-116967000D02*
X181991000Y-117043200D01*
X181991000Y-117043200D02*
X204825600Y-117043200D01*
X204825600Y-117043200D02*
X214884000Y-106984800D01*
X181914800Y-114960400D02*
X184200800Y-112674400D01*
X217995500Y-103873300D02*
X218592400Y-103873300D01*
X184200800Y-112674400D02*
X184200800Y-112750600D01*
X213912450Y-105937050D02*
X216166700Y-103682800D01*
X217335100Y-98513900D02*
X218203800Y-98513900D01*
X216166700Y-99682300D02*
X217335100Y-98513900D01*
X216166700Y-103416100D02*
X216166700Y-99682300D01*
X216166700Y-103682800D02*
X216166700Y-103416100D01*
X207187800Y-111201200D02*
X208648300Y-111201200D01*
X208648300Y-111201200D02*
X213912450Y-105937050D01*
X213912450Y-105937050D02*
X213918800Y-105930700D01*
X185470800Y-114122200D02*
X184378600Y-115214400D01*
X185470800Y-114122200D02*
X185470800Y-111772700D01*
X185470800Y-111772700D02*
X186309000Y-111201200D01*
X186309000Y-111201200D02*
X207187800Y-111201200D01*
X184200800Y-115214400D02*
X184378600Y-115214400D01*
D33*
X216611200Y-93433900D02*
X216573100Y-93395800D01*
X218203800Y-93433900D02*
X216611200Y-93433900D01*
D34*
X221030800Y-115671600D02*
X221030800Y-117830600D01*
X216484200Y-96050100D02*
X218127600Y-96050100D01*
X223647000Y-118364000D02*
X225526600Y-116484400D01*
X221564200Y-118364000D02*
X223647000Y-118364000D01*
X221030800Y-117830600D02*
X221564200Y-118364000D01*
X218203800Y-95973900D02*
X218127600Y-96050100D01*
X207391000Y-89396300D02*
X207391000Y-87363300D01*
X208610200Y-87388700D02*
X208661000Y-87439500D01*
X208661000Y-89396300D02*
X208661000Y-87439500D01*
X218490800Y-115671600D02*
X218490800Y-115620800D01*
X217220800Y-114401600D02*
X215950800Y-113131600D01*
X217220800Y-116738400D02*
X217220800Y-114401600D01*
X218033600Y-117551200D02*
X217220800Y-116738400D01*
X218973400Y-117551200D02*
X218033600Y-117551200D01*
X219710000Y-118287800D02*
X218973400Y-117551200D01*
X209905600Y-89370900D02*
X209905600Y-87363300D01*
X209931000Y-89396300D02*
X209905600Y-89370900D01*
X215950800Y-118338600D02*
X215950800Y-118948200D01*
X211201000Y-87337900D02*
X211201000Y-89396300D01*
X224205800Y-119837200D02*
X225780600Y-118262400D01*
X216839800Y-119837200D02*
X224205800Y-119837200D01*
X215950800Y-118948200D02*
X216839800Y-119837200D01*
X215950800Y-118364000D02*
X215950800Y-118338600D01*
X215950800Y-118338600D02*
X215950800Y-115671600D01*
X211074000Y-89269300D02*
X211201000Y-89396300D01*
X185166000Y-96189800D02*
X185166000Y-95300800D01*
X187731400Y-93954600D02*
X187731400Y-90970100D01*
X187096400Y-94589600D02*
X187731400Y-93954600D01*
X185877200Y-94589600D02*
X187096400Y-94589600D01*
X185166000Y-95300800D02*
X185877200Y-94589600D01*
X183896000Y-96189800D02*
X183896000Y-95351600D01*
X185674000Y-93573600D02*
X186664600Y-93573600D01*
X183896000Y-95351600D02*
X185674000Y-93573600D01*
X221996000Y-86398100D02*
X221996000Y-85711300D01*
X221996000Y-86398100D02*
X221996000Y-95643700D01*
X221996000Y-95643700D02*
X222326200Y-95973900D01*
X223603800Y-95973900D02*
X222326200Y-95973900D01*
X221996000Y-85711300D02*
X216281000Y-79996300D01*
D33*
X215011000Y-79996300D02*
X215011000Y-80937100D01*
D34*
X215011000Y-80937100D02*
X216027000Y-81953100D01*
X216027000Y-81953100D02*
X217220800Y-81953100D01*
X217220800Y-81953100D02*
X221411800Y-86144100D01*
X221411800Y-86144100D02*
X221411800Y-86779100D01*
X222427800Y-98513900D02*
X223603800Y-98513900D01*
X221411800Y-97497900D02*
X222427800Y-98513900D01*
X221411800Y-86779100D02*
X221411800Y-97497900D01*
D33*
X213741000Y-79996300D02*
X213741000Y-80886126D01*
D34*
X213741000Y-80886126D02*
X215417574Y-82562700D01*
X215417574Y-82562700D02*
X216712800Y-82562700D01*
X216712800Y-82562700D02*
X220827600Y-86677500D01*
X220827600Y-86677500D02*
X220827600Y-99783900D01*
X220827600Y-99783900D02*
X222097600Y-101053900D01*
X222097600Y-101053900D02*
X223603800Y-101053900D01*
X218203800Y-99783900D02*
X218432400Y-100012500D01*
X218432400Y-100012500D02*
X219862400Y-100012500D01*
X219862400Y-100012500D02*
X220218000Y-99656900D01*
D33*
X212471000Y-79996300D02*
X212471000Y-80835500D01*
D34*
X212471000Y-80835500D02*
X214782400Y-83146900D01*
X220218000Y-87464900D02*
X220218000Y-99656900D01*
X220218000Y-86858166D02*
X220218000Y-87464900D01*
X216506734Y-83146900D02*
X220218000Y-86858166D01*
X214782400Y-83146900D02*
X216506734Y-83146900D01*
D33*
X212471000Y-79996300D02*
X212471000Y-80759300D01*
D34*
X219659198Y-88049100D02*
X219659198Y-87312498D01*
X214122000Y-83731100D02*
X211201000Y-80810100D01*
X216077800Y-83731100D02*
X214122000Y-83731100D01*
X219659198Y-87312498D02*
X216077800Y-83731100D01*
D33*
X211201000Y-80810100D02*
X211201000Y-79996300D01*
X211201000Y-79996300D02*
X211201000Y-80632300D01*
X219659198Y-88049098D02*
X219659198Y-88049100D01*
D34*
X219659198Y-88049100D02*
X219659198Y-97066102D01*
X219659198Y-97066102D02*
X219481400Y-97243900D01*
X219481400Y-97243900D02*
X218203800Y-97243900D01*
X215252300Y-92735400D02*
X215252300Y-93941900D01*
X216027000Y-91960700D02*
X215252300Y-92735400D01*
X219049600Y-88785700D02*
X219049600Y-87566500D01*
D33*
X219049600Y-87566500D02*
X219024200Y-87541100D01*
D34*
X219049600Y-88785700D02*
X219049600Y-91528900D01*
D33*
X209931000Y-79996300D02*
X209931000Y-81013300D01*
D34*
X209931000Y-81013300D02*
X210947000Y-82029300D01*
X210947000Y-82029300D02*
X211531200Y-82029300D01*
X211531200Y-82029300D02*
X213817200Y-84315300D01*
X213817200Y-84315300D02*
X215798400Y-84315300D01*
X215798400Y-84315300D02*
X219024200Y-87541100D01*
X219049600Y-91528900D02*
X218617800Y-91960700D01*
X218617800Y-91960700D02*
X216560400Y-91960700D01*
X216560400Y-91960700D02*
X216027000Y-91960700D01*
X216014300Y-94703900D02*
X218203800Y-94703900D01*
X215252300Y-93941900D02*
X216014300Y-94703900D01*
D33*
X209931000Y-79996300D02*
X209931000Y-80708500D01*
D34*
X214693500Y-99707700D02*
X214693500Y-94424500D01*
X214693500Y-99707700D02*
X214718900Y-99733100D01*
X214693500Y-92087700D02*
X215595200Y-91186000D01*
X214693500Y-92087700D02*
X214693500Y-94424500D01*
X214693500Y-94424500D02*
X214693500Y-94449900D01*
X218198700Y-91186000D02*
X218287600Y-91186000D01*
X215595200Y-91186000D02*
X218198700Y-91186000D01*
D33*
X208661000Y-79996300D02*
X208661000Y-80632300D01*
D34*
X208661000Y-80632300D02*
X212902802Y-84874102D01*
X212902802Y-84874102D02*
X215442802Y-84874102D01*
X215442802Y-84874102D02*
X218287600Y-87718900D01*
X218287600Y-87718900D02*
X218287600Y-91186000D01*
D33*
X218287600Y-91186000D02*
X218287600Y-91097100D01*
D34*
X201599800Y-96380300D02*
X202514200Y-95465900D01*
X202514200Y-95465900D02*
X206222600Y-95465900D01*
X207492600Y-83604100D02*
X207391000Y-83502500D01*
X207391000Y-79996300D02*
X207391000Y-83502500D01*
X212471000Y-89396300D02*
X212471000Y-98920300D01*
X212471000Y-99961700D02*
X212471000Y-98920300D01*
X212471000Y-100050600D02*
X212471000Y-99961700D01*
X211582000Y-100939600D02*
X212471000Y-100050600D01*
X202895200Y-105346500D02*
X213017100Y-105346500D01*
X202780900Y-105232200D02*
X202895200Y-105346500D01*
X213741000Y-104622600D02*
X213741000Y-89396300D01*
X213017100Y-105346500D02*
X213741000Y-104622600D01*
X209600800Y-98793300D02*
X211709000Y-96685100D01*
X209600800Y-102654100D02*
X209600800Y-98793300D01*
D33*
X209727800Y-102781100D02*
X209600800Y-102654100D01*
D34*
X215011000Y-87515700D02*
X215036400Y-87490300D01*
X215011000Y-89396300D02*
X215011000Y-87515700D01*
X205663800Y-96177100D02*
X204546200Y-96177100D01*
X206946500Y-97459800D02*
X205663800Y-96177100D01*
X216281000Y-89396300D02*
X216281000Y-87439500D01*
X146559400Y-84112100D02*
X150781000Y-84112100D01*
X146546700Y-79946500D02*
X150476200Y-79946500D01*
G36*
X160187124Y-72442824D02*
X160016437Y-72698275D01*
X159956500Y-72999600D01*
X159956500Y-74846174D01*
X159763890Y-74714569D01*
X159512000Y-74663560D01*
X157988000Y-74663560D01*
X157752683Y-74707838D01*
X157536559Y-74846910D01*
X157391569Y-75059110D01*
X157340560Y-75311000D01*
X157340560Y-75765646D01*
X157141010Y-75282697D01*
X156748370Y-74889371D01*
X156235100Y-74676243D01*
X155679339Y-74675758D01*
X155165697Y-74887990D01*
X154772371Y-75280630D01*
X154622394Y-75641815D01*
X154474010Y-75282697D01*
X154081370Y-74889371D01*
X153568100Y-74676243D01*
X153012339Y-74675758D01*
X152498697Y-74887990D01*
X152105371Y-75280630D01*
X151892243Y-75793900D01*
X151892241Y-75796336D01*
X151680010Y-75282697D01*
X151287370Y-74889371D01*
X150774100Y-74676243D01*
X150218339Y-74675758D01*
X149704697Y-74887990D01*
X149311371Y-75280630D01*
X149168027Y-75625841D01*
X149050397Y-75341857D01*
X148808213Y-75272392D01*
X148007605Y-76073000D01*
X148808213Y-76873608D01*
X149050397Y-76804143D01*
X149159355Y-76498738D01*
X149309990Y-76863303D01*
X149702630Y-77256629D01*
X150215900Y-77469757D01*
X150771661Y-77470242D01*
X151285303Y-77258010D01*
X151678629Y-76865370D01*
X151891757Y-76352100D01*
X151891759Y-76349664D01*
X152103990Y-76863303D01*
X152496630Y-77256629D01*
X153009900Y-77469757D01*
X153565661Y-77470242D01*
X154079303Y-77258010D01*
X154472629Y-76865370D01*
X154622606Y-76504185D01*
X154770990Y-76863303D01*
X155163630Y-77256629D01*
X155676900Y-77469757D01*
X156232661Y-77470242D01*
X156746303Y-77258010D01*
X157139629Y-76865370D01*
X157340560Y-76381474D01*
X157340560Y-76835000D01*
X157384838Y-77070317D01*
X157523910Y-77286441D01*
X157736110Y-77431431D01*
X157988000Y-77482440D01*
X159224208Y-77482440D01*
X157598348Y-79108300D01*
X156085540Y-79108300D01*
X156085540Y-79045700D01*
X156041262Y-78810383D01*
X155902190Y-78594259D01*
X155689990Y-78449269D01*
X155438100Y-78398260D01*
X153438100Y-78398260D01*
X153202783Y-78442538D01*
X152986659Y-78581610D01*
X152841669Y-78793810D01*
X152790660Y-79045700D01*
X152790660Y-80745700D01*
X152834938Y-80981017D01*
X152974010Y-81197141D01*
X153186210Y-81342131D01*
X153438100Y-81393140D01*
X155438100Y-81393140D01*
X155673417Y-81348862D01*
X155889541Y-81209790D01*
X156034531Y-80997590D01*
X156085540Y-80745700D01*
X156085540Y-80683100D01*
X156963348Y-80683100D01*
X156148524Y-81497924D01*
X155977837Y-81753375D01*
X155917900Y-82054700D01*
X155917900Y-82743928D01*
X155766190Y-82640269D01*
X155514300Y-82589260D01*
X153514300Y-82589260D01*
X153278983Y-82633538D01*
X153062859Y-82772610D01*
X152917869Y-82984810D01*
X152866860Y-83236700D01*
X152866860Y-84936700D01*
X152911138Y-85172017D01*
X153050210Y-85388141D01*
X153262410Y-85533131D01*
X153514300Y-85584140D01*
X155514300Y-85584140D01*
X155749617Y-85539862D01*
X155965741Y-85400790D01*
X156110731Y-85188590D01*
X156161740Y-84936700D01*
X156161740Y-84874100D01*
X156210000Y-84874100D01*
X156511325Y-84814163D01*
X156766776Y-84643476D01*
X157262076Y-84148176D01*
X157432763Y-83892725D01*
X157492700Y-83591400D01*
X157492700Y-82380852D01*
X161884876Y-77988676D01*
X162055563Y-77733225D01*
X162115500Y-77431900D01*
X162115500Y-76482440D01*
X164108165Y-76482440D01*
X164317353Y-76843289D01*
X165254650Y-77220824D01*
X166265077Y-77210933D01*
X167152647Y-76843289D01*
X167361835Y-76482440D01*
X165735000Y-74855605D01*
X164108165Y-76482440D01*
X162115500Y-76482440D01*
X162115500Y-74195650D01*
X163190176Y-74195650D01*
X163200067Y-75206077D01*
X163567711Y-76093647D01*
X163928560Y-76302835D01*
X165555395Y-74676000D01*
X163928560Y-73049165D01*
X163567711Y-73258353D01*
X163190176Y-74195650D01*
X162115500Y-74195650D01*
X162115500Y-73592452D01*
X162838392Y-72869560D01*
X164108165Y-72869560D01*
X165735000Y-74496395D01*
X167361835Y-72869560D01*
X167152647Y-72508711D01*
X166215350Y-72131176D01*
X165204923Y-72141067D01*
X164317353Y-72508711D01*
X164108165Y-72869560D01*
X162838392Y-72869560D01*
X163978352Y-71729600D01*
X167593248Y-71729600D01*
X167995600Y-72131952D01*
X167995600Y-73483625D01*
X167902289Y-73258353D01*
X167541440Y-73049165D01*
X165914605Y-74676000D01*
X167541440Y-76302835D01*
X167902289Y-76093647D01*
X168279824Y-75156350D01*
X168275962Y-74761814D01*
X168529000Y-75014852D01*
X168529000Y-76441300D01*
X168588937Y-76742625D01*
X168759624Y-76998076D01*
X170778924Y-79017376D01*
X171034375Y-79188063D01*
X171335700Y-79248000D01*
X171463395Y-79222600D01*
X175387000Y-79222600D01*
X175678605Y-79164596D01*
X175925815Y-78999415D01*
X177208096Y-77717134D01*
X178150381Y-78659419D01*
X178095610Y-78714095D01*
X177911011Y-79158660D01*
X177910591Y-79640028D01*
X178094414Y-80084914D01*
X178333400Y-80324318D01*
X178333400Y-83931800D01*
X176199299Y-83931800D01*
X176158090Y-83867759D01*
X176018250Y-83772210D01*
X176053698Y-83757527D01*
X176232327Y-83578899D01*
X176329000Y-83345510D01*
X176329000Y-83104950D01*
X176170250Y-82946200D01*
X175371000Y-82946200D01*
X175371000Y-82966200D01*
X175117000Y-82966200D01*
X175117000Y-82946200D01*
X174317750Y-82946200D01*
X174231738Y-83032212D01*
X174158090Y-82917759D01*
X173945890Y-82772769D01*
X173694000Y-82721760D01*
X172794000Y-82721760D01*
X172558683Y-82766038D01*
X172342559Y-82905110D01*
X172197569Y-83117310D01*
X172146560Y-83369200D01*
X172146560Y-84169200D01*
X172190838Y-84404517D01*
X172329910Y-84620641D01*
X172482000Y-84724560D01*
X172482000Y-86739569D01*
X171725178Y-87496391D01*
X171708562Y-87408083D01*
X171569490Y-87191959D01*
X171357290Y-87046969D01*
X171105400Y-86995960D01*
X169305400Y-86995960D01*
X169070083Y-87040238D01*
X168853959Y-87179310D01*
X168708969Y-87391510D01*
X168657960Y-87643400D01*
X168657960Y-90143400D01*
X168702238Y-90378717D01*
X168841310Y-90594841D01*
X169053510Y-90739831D01*
X169305400Y-90790840D01*
X169443400Y-90790840D01*
X169443400Y-93308769D01*
X168213370Y-94538800D01*
X157593431Y-94538800D01*
X155728377Y-92673747D01*
X155854672Y-92369595D01*
X155854674Y-92366305D01*
X164084674Y-92366305D01*
X164371043Y-93059372D01*
X164900839Y-93590093D01*
X165593405Y-93877672D01*
X166343305Y-93878326D01*
X167036372Y-93591957D01*
X167567093Y-93062161D01*
X167854672Y-92369595D01*
X167855326Y-91619695D01*
X167568957Y-90926628D01*
X167039161Y-90395907D01*
X166732000Y-90268362D01*
X166732000Y-86415230D01*
X167491831Y-85655400D01*
X168657960Y-85655400D01*
X168657960Y-86143400D01*
X168702238Y-86378717D01*
X168841310Y-86594841D01*
X169053510Y-86739831D01*
X169305400Y-86790840D01*
X171105400Y-86790840D01*
X171340717Y-86746562D01*
X171556841Y-86607490D01*
X171701831Y-86395290D01*
X171752840Y-86143400D01*
X171752840Y-83643400D01*
X171708562Y-83408083D01*
X171569490Y-83191959D01*
X171357290Y-83046969D01*
X171105400Y-82995960D01*
X170992800Y-82995960D01*
X170992800Y-82292890D01*
X174159000Y-82292890D01*
X174159000Y-82533450D01*
X174317750Y-82692200D01*
X175117000Y-82692200D01*
X175117000Y-81942950D01*
X175371000Y-81942950D01*
X175371000Y-82692200D01*
X176170250Y-82692200D01*
X176329000Y-82533450D01*
X176329000Y-82292890D01*
X176232327Y-82059501D01*
X176053698Y-81880873D01*
X175820309Y-81784200D01*
X175529750Y-81784200D01*
X175371000Y-81942950D01*
X175117000Y-81942950D01*
X174958250Y-81784200D01*
X174667691Y-81784200D01*
X174434302Y-81880873D01*
X174255673Y-82059501D01*
X174159000Y-82292890D01*
X170992800Y-82292890D01*
X170992800Y-81136880D01*
X171230590Y-80899505D01*
X171415189Y-80454940D01*
X171415609Y-79973572D01*
X171231786Y-79528686D01*
X170891705Y-79188010D01*
X170447140Y-79003411D01*
X169965772Y-79002991D01*
X169520886Y-79186814D01*
X169180210Y-79526895D01*
X168995611Y-79971460D01*
X168995191Y-80452828D01*
X169179014Y-80897714D01*
X169418000Y-81137118D01*
X169418000Y-82995960D01*
X169305400Y-82995960D01*
X169070083Y-83040238D01*
X168853959Y-83179310D01*
X168708969Y-83391510D01*
X168657960Y-83643400D01*
X168657960Y-84131400D01*
X167176200Y-84131400D01*
X166884595Y-84189404D01*
X166637384Y-84354585D01*
X165431185Y-85560785D01*
X165266004Y-85807995D01*
X165208000Y-86099600D01*
X165208000Y-90268279D01*
X164903628Y-90394043D01*
X164372907Y-90923839D01*
X164085328Y-91616405D01*
X164084674Y-92366305D01*
X155854674Y-92366305D01*
X155855326Y-91619695D01*
X155568957Y-90926628D01*
X155039161Y-90395907D01*
X154346595Y-90108328D01*
X153596695Y-90107674D01*
X152903628Y-90394043D01*
X152372907Y-90923839D01*
X152085328Y-91616405D01*
X152084674Y-92366305D01*
X152371043Y-93059372D01*
X152900839Y-93590093D01*
X153593405Y-93877672D01*
X154343305Y-93878326D01*
X154650688Y-93751318D01*
X156738985Y-95839616D01*
X156882193Y-95935304D01*
X156986195Y-96004796D01*
X157277800Y-96062800D01*
X168529000Y-96062800D01*
X168820605Y-96004796D01*
X169067815Y-95839615D01*
X170744216Y-94163215D01*
X170862767Y-93985790D01*
X170909396Y-93916005D01*
X170967400Y-93624400D01*
X170967400Y-91255850D01*
X183706400Y-91255850D01*
X183706400Y-91946409D01*
X183803073Y-92179798D01*
X183981701Y-92358427D01*
X184215090Y-92455100D01*
X184905650Y-92455100D01*
X185064400Y-92296350D01*
X185064400Y-91097100D01*
X183865150Y-91097100D01*
X183706400Y-91255850D01*
X170967400Y-91255850D01*
X170967400Y-90790840D01*
X171105400Y-90790840D01*
X171340717Y-90746562D01*
X171556841Y-90607490D01*
X171701831Y-90395290D01*
X171752840Y-90143400D01*
X171752840Y-89993791D01*
X183706400Y-89993791D01*
X183706400Y-90684350D01*
X183865150Y-90843100D01*
X185064400Y-90843100D01*
X185064400Y-88557100D01*
X183870581Y-88557100D01*
X183749914Y-88786992D01*
X183996217Y-89311458D01*
X184195608Y-89493170D01*
X183981701Y-89581773D01*
X183803073Y-89760402D01*
X183706400Y-89993791D01*
X171752840Y-89993791D01*
X171752840Y-89560355D01*
X171944615Y-89432215D01*
X173303622Y-88073208D01*
X183749914Y-88073208D01*
X183870581Y-88303100D01*
X185064400Y-88303100D01*
X185064400Y-87109945D01*
X184834510Y-86988624D01*
X184424476Y-87158455D01*
X183996217Y-87548742D01*
X183749914Y-88073208D01*
X173303622Y-88073208D01*
X173782815Y-87594016D01*
X173947996Y-87346805D01*
X173953003Y-87321635D01*
X174006000Y-87055200D01*
X174006000Y-84723018D01*
X174145441Y-84633290D01*
X174146560Y-84631652D01*
X174146560Y-85119200D01*
X174190838Y-85354517D01*
X174329910Y-85570641D01*
X174542110Y-85715631D01*
X174794000Y-85766640D01*
X175694000Y-85766640D01*
X175929317Y-85722362D01*
X176145441Y-85583290D01*
X176197841Y-85506600D01*
X179689760Y-85506600D01*
X179689760Y-85559000D01*
X179734038Y-85794317D01*
X179873110Y-86010441D01*
X180085310Y-86155431D01*
X180337200Y-86206440D01*
X182337200Y-86206440D01*
X182572517Y-86162162D01*
X182788641Y-86023090D01*
X182933631Y-85810890D01*
X182984640Y-85559000D01*
X182984640Y-84994750D01*
X183702200Y-84994750D01*
X183702200Y-85685310D01*
X183798873Y-85918699D01*
X183977502Y-86097327D01*
X184210891Y-86194000D01*
X185051450Y-86194000D01*
X185210200Y-86035250D01*
X185210200Y-84836000D01*
X185464200Y-84836000D01*
X185464200Y-86035250D01*
X185622950Y-86194000D01*
X186463509Y-86194000D01*
X186696898Y-86097327D01*
X186875527Y-85918699D01*
X186972200Y-85685310D01*
X186972200Y-84994750D01*
X186813450Y-84836000D01*
X185464200Y-84836000D01*
X185210200Y-84836000D01*
X183860950Y-84836000D01*
X183702200Y-84994750D01*
X182984640Y-84994750D01*
X182984640Y-83859000D01*
X182960874Y-83732690D01*
X183702200Y-83732690D01*
X183702200Y-84423250D01*
X183860950Y-84582000D01*
X185210200Y-84582000D01*
X185210200Y-83382750D01*
X185051450Y-83224000D01*
X184210891Y-83224000D01*
X183977502Y-83320673D01*
X183798873Y-83499301D01*
X183702200Y-83732690D01*
X182960874Y-83732690D01*
X182940362Y-83623683D01*
X182801290Y-83407559D01*
X182691339Y-83332433D01*
X182762190Y-83261705D01*
X182946789Y-82817140D01*
X182947209Y-82335772D01*
X182763386Y-81890886D01*
X182626000Y-81753260D01*
X182626000Y-80197080D01*
X182863790Y-79959705D01*
X183048389Y-79515140D01*
X183048809Y-79033772D01*
X183048118Y-79032100D01*
X186741416Y-79032100D01*
X186699411Y-79133260D01*
X186698991Y-79614628D01*
X186882814Y-80059514D01*
X187172600Y-80349807D01*
X187172600Y-82134320D01*
X186934810Y-82371695D01*
X186750211Y-82816260D01*
X186749791Y-83297628D01*
X186803261Y-83427035D01*
X186696898Y-83320673D01*
X186463509Y-83224000D01*
X185622950Y-83224000D01*
X185464200Y-83382750D01*
X185464200Y-84582000D01*
X186813450Y-84582000D01*
X186972200Y-84423250D01*
X186972200Y-83781168D01*
X187273695Y-84083190D01*
X187718260Y-84267789D01*
X188199628Y-84268209D01*
X188644514Y-84084386D01*
X188985190Y-83744305D01*
X189169789Y-83299740D01*
X189170111Y-82929710D01*
X193681324Y-82929710D01*
X193802645Y-83159600D01*
X194995800Y-83159600D01*
X194995800Y-81965781D01*
X195249800Y-81965781D01*
X195249800Y-83159600D01*
X196442955Y-83159600D01*
X196564276Y-82929710D01*
X196394445Y-82519676D01*
X196004158Y-82091417D01*
X195479692Y-81845114D01*
X195249800Y-81965781D01*
X194995800Y-81965781D01*
X194765908Y-81845114D01*
X194241442Y-82091417D01*
X193851155Y-82519676D01*
X193681324Y-82929710D01*
X189170111Y-82929710D01*
X189170209Y-82818372D01*
X188986386Y-82373486D01*
X188747400Y-82134082D01*
X188747400Y-80247968D01*
X188934390Y-80061305D01*
X189118989Y-79616740D01*
X189119409Y-79135372D01*
X189076738Y-79032100D01*
X198823560Y-79032100D01*
X198823560Y-80996300D01*
X198867838Y-81231617D01*
X199006910Y-81447741D01*
X199219110Y-81592731D01*
X199471000Y-81643740D01*
X200071000Y-81643740D01*
X200253600Y-81609381D01*
X200253600Y-81842848D01*
X199025100Y-83071348D01*
X199025409Y-82716772D01*
X198841586Y-82271886D01*
X198501505Y-81931210D01*
X198056940Y-81746611D01*
X197575572Y-81746191D01*
X197130686Y-81930014D01*
X196790010Y-82270095D01*
X196605411Y-82714660D01*
X196604991Y-83196028D01*
X196788814Y-83640914D01*
X197030164Y-83882687D01*
X197087737Y-84172125D01*
X197258424Y-84427576D01*
X197463648Y-84632800D01*
X197057248Y-85039200D01*
X196377446Y-85039200D01*
X196201947Y-84776546D01*
X195861247Y-84548898D01*
X196004158Y-84481783D01*
X196394445Y-84053524D01*
X196564276Y-83643490D01*
X196442955Y-83413600D01*
X195249800Y-83413600D01*
X195249800Y-83433600D01*
X194995800Y-83433600D01*
X194995800Y-83413600D01*
X193802645Y-83413600D01*
X193681324Y-83643490D01*
X193851155Y-84053524D01*
X194241442Y-84481783D01*
X194384353Y-84548898D01*
X194043653Y-84776546D01*
X193721746Y-85258315D01*
X193608707Y-85826600D01*
X193721746Y-86394885D01*
X194043653Y-86876654D01*
X194372826Y-87096600D01*
X194043653Y-87316546D01*
X193721746Y-87798315D01*
X193608707Y-88366600D01*
X193721746Y-88934885D01*
X194043653Y-89416654D01*
X194085252Y-89444450D01*
X194037483Y-89453438D01*
X193821359Y-89592510D01*
X193676369Y-89804710D01*
X193625360Y-90056600D01*
X193625360Y-91756600D01*
X193669638Y-91991917D01*
X193808710Y-92208041D01*
X194020910Y-92353031D01*
X194272800Y-92404040D01*
X194360800Y-92404040D01*
X194360800Y-93461169D01*
X193793362Y-94028608D01*
X193598800Y-93989907D01*
X193030515Y-94102946D01*
X192548746Y-94424853D01*
X192520950Y-94466452D01*
X192511962Y-94418683D01*
X192372890Y-94202559D01*
X192160690Y-94057569D01*
X191908800Y-94006560D01*
X190208800Y-94006560D01*
X189973483Y-94050838D01*
X189757359Y-94189910D01*
X189612369Y-94402110D01*
X189561360Y-94654000D01*
X189561360Y-96354000D01*
X189605638Y-96589317D01*
X189699962Y-96735900D01*
X188607440Y-96735900D01*
X188607440Y-95618300D01*
X188563162Y-95382983D01*
X188424090Y-95166859D01*
X188211890Y-95021869D01*
X187960000Y-94970860D01*
X187792770Y-94970860D01*
X188270216Y-94493415D01*
X188379185Y-94330331D01*
X188435396Y-94246205D01*
X188493400Y-93954600D01*
X188493400Y-92241718D01*
X188781454Y-92049247D01*
X189001400Y-91720074D01*
X189221346Y-92049247D01*
X189703115Y-92371154D01*
X190271400Y-92484193D01*
X190839685Y-92371154D01*
X191321454Y-92049247D01*
X191643361Y-91567478D01*
X191756400Y-90999193D01*
X191756400Y-90941007D01*
X191643361Y-90372722D01*
X191321454Y-89890953D01*
X191035822Y-89700100D01*
X191321454Y-89509247D01*
X191643361Y-89027478D01*
X191756400Y-88459193D01*
X191756400Y-88401007D01*
X191643361Y-87832722D01*
X191321454Y-87350953D01*
X190839685Y-87029046D01*
X190271400Y-86916007D01*
X189703115Y-87029046D01*
X189221346Y-87350953D01*
X189001400Y-87680126D01*
X188781454Y-87350953D01*
X188299685Y-87029046D01*
X187731400Y-86916007D01*
X187163115Y-87029046D01*
X186681346Y-87350953D01*
X186453698Y-87691653D01*
X186386583Y-87548742D01*
X185958324Y-87158455D01*
X185548290Y-86988624D01*
X185318400Y-87109945D01*
X185318400Y-88303100D01*
X185338400Y-88303100D01*
X185338400Y-88557100D01*
X185318400Y-88557100D01*
X185318400Y-90843100D01*
X185338400Y-90843100D01*
X185338400Y-91097100D01*
X185318400Y-91097100D01*
X185318400Y-92296350D01*
X185477150Y-92455100D01*
X186167710Y-92455100D01*
X186401099Y-92358427D01*
X186579727Y-92179798D01*
X186651997Y-92005323D01*
X186681346Y-92049247D01*
X186969400Y-92241718D01*
X186969400Y-92389996D01*
X186906340Y-92363811D01*
X186424972Y-92363391D01*
X185980086Y-92547214D01*
X185715237Y-92811600D01*
X185674000Y-92811600D01*
X185382395Y-92869604D01*
X185306368Y-92920404D01*
X185135185Y-93034784D01*
X183388000Y-94781970D01*
X183388000Y-94548213D01*
X183549590Y-94386905D01*
X183734189Y-93942340D01*
X183734609Y-93460972D01*
X183550786Y-93016086D01*
X183210705Y-92675410D01*
X182766140Y-92490811D01*
X182284772Y-92490391D01*
X181839886Y-92674214D01*
X181499210Y-93014295D01*
X181314611Y-93458860D01*
X181314569Y-93506564D01*
X181116372Y-93506391D01*
X180671486Y-93690214D01*
X180330810Y-94030295D01*
X180146211Y-94474860D01*
X180145791Y-94956228D01*
X180219773Y-95135277D01*
X180213000Y-95142050D01*
X180213000Y-96062800D01*
X180233000Y-96062800D01*
X180233000Y-96316800D01*
X180213000Y-96316800D01*
X180213000Y-96336800D01*
X179959000Y-96336800D01*
X179959000Y-96316800D01*
X179939000Y-96316800D01*
X179939000Y-96062800D01*
X179959000Y-96062800D01*
X179959000Y-95142050D01*
X179800250Y-94983300D01*
X179705691Y-94983300D01*
X179472302Y-95079973D01*
X179445765Y-95106509D01*
X179321890Y-95021869D01*
X179070000Y-94970860D01*
X178562000Y-94970860D01*
X178326683Y-95015138D01*
X178110559Y-95154210D01*
X177965569Y-95366410D01*
X177914560Y-95618300D01*
X177914560Y-96761300D01*
X177958838Y-96996617D01*
X178097910Y-97212741D01*
X178148602Y-97247377D01*
X178248109Y-97396300D01*
X178277185Y-97439815D01*
X178874085Y-98036715D01*
X179121295Y-98201896D01*
X179412900Y-98259900D01*
X189636760Y-98259900D01*
X189636760Y-98606100D01*
X189681038Y-98841417D01*
X189820110Y-99057541D01*
X190032310Y-99202531D01*
X190284200Y-99253540D01*
X191884200Y-99253540D01*
X192119517Y-99209262D01*
X192335641Y-99070190D01*
X192480631Y-98857990D01*
X192531640Y-98606100D01*
X192531640Y-97606100D01*
X192487362Y-97370783D01*
X192348290Y-97154659D01*
X192136090Y-97009669D01*
X192005553Y-96983235D01*
X192144117Y-96957162D01*
X192360241Y-96818090D01*
X192505231Y-96605890D01*
X192518886Y-96538459D01*
X192548746Y-96583147D01*
X193030515Y-96905054D01*
X193598800Y-97018093D01*
X194167085Y-96905054D01*
X194648854Y-96583147D01*
X194660667Y-96565467D01*
X200664638Y-96565467D01*
X200806683Y-96909243D01*
X201069473Y-97172492D01*
X201413001Y-97315138D01*
X201784967Y-97315462D01*
X202128743Y-97173417D01*
X202391992Y-96910627D01*
X202534638Y-96567099D01*
X202534676Y-96523054D01*
X202829830Y-96227900D01*
X203611155Y-96227900D01*
X203611038Y-96362267D01*
X203753083Y-96706043D01*
X204015873Y-96969292D01*
X204359401Y-97111938D01*
X204731367Y-97112262D01*
X205075143Y-96970217D01*
X205106314Y-96939100D01*
X205348170Y-96939100D01*
X206011375Y-97602306D01*
X206011338Y-97644967D01*
X206153383Y-97988743D01*
X206416173Y-98251992D01*
X206759701Y-98394638D01*
X207131667Y-98394962D01*
X207475443Y-98252917D01*
X207738692Y-97990127D01*
X207881338Y-97646599D01*
X207881662Y-97274633D01*
X207739617Y-96930857D01*
X207476827Y-96667608D01*
X207133299Y-96524962D01*
X207089254Y-96524924D01*
X206787477Y-96223146D01*
X207014792Y-95996227D01*
X207157438Y-95652699D01*
X207157762Y-95280733D01*
X207015717Y-94936957D01*
X206752927Y-94673708D01*
X206409399Y-94531062D01*
X206037433Y-94530738D01*
X205693657Y-94672783D01*
X205662486Y-94703900D01*
X202514200Y-94703900D01*
X202222595Y-94761904D01*
X202044051Y-94881204D01*
X201975385Y-94927085D01*
X201457295Y-95445175D01*
X201414633Y-95445138D01*
X201070857Y-95587183D01*
X200807608Y-95849973D01*
X200664962Y-96193501D01*
X200664638Y-96565467D01*
X194660667Y-96565467D01*
X194970761Y-96101378D01*
X195083800Y-95533093D01*
X195083800Y-95474907D01*
X194987327Y-94989904D01*
X195661615Y-94315616D01*
X195826796Y-94068405D01*
X195834020Y-94032086D01*
X195884800Y-93776800D01*
X195884800Y-92404040D01*
X195972800Y-92404040D01*
X196208117Y-92359762D01*
X196424241Y-92220690D01*
X196569231Y-92008490D01*
X196620240Y-91756600D01*
X196620240Y-91694000D01*
X202734207Y-91694000D01*
X202800583Y-91854643D01*
X203063373Y-92117892D01*
X203406901Y-92260538D01*
X203778867Y-92260862D01*
X204122643Y-92118817D01*
X204385892Y-91856027D01*
X204528538Y-91512499D01*
X204528862Y-91140533D01*
X204483195Y-91030009D01*
X204551000Y-91043740D01*
X205151000Y-91043740D01*
X205386317Y-90999462D01*
X205485528Y-90935622D01*
X205569110Y-90992731D01*
X205821000Y-91043740D01*
X206421000Y-91043740D01*
X206656317Y-90999462D01*
X206755528Y-90935622D01*
X206839110Y-90992731D01*
X207091000Y-91043740D01*
X207691000Y-91043740D01*
X207926317Y-90999462D01*
X208025528Y-90935622D01*
X208109110Y-90992731D01*
X208361000Y-91043740D01*
X208961000Y-91043740D01*
X209196317Y-90999462D01*
X209295528Y-90935622D01*
X209379110Y-90992731D01*
X209631000Y-91043740D01*
X210231000Y-91043740D01*
X210466317Y-90999462D01*
X210565528Y-90935622D01*
X210649110Y-90992731D01*
X210901000Y-91043740D01*
X211501000Y-91043740D01*
X211709000Y-91004602D01*
X211709000Y-95750099D01*
X211523833Y-95749938D01*
X211180057Y-95891983D01*
X210916808Y-96154773D01*
X210774162Y-96498301D01*
X210774124Y-96542346D01*
X209061985Y-98254485D01*
X208896804Y-98501695D01*
X208838800Y-98793300D01*
X208838800Y-102483911D01*
X208792962Y-102594301D01*
X208792638Y-102966267D01*
X208934683Y-103310043D01*
X209197473Y-103573292D01*
X209541001Y-103715938D01*
X209912967Y-103716262D01*
X210256743Y-103574217D01*
X210519992Y-103311427D01*
X210662638Y-102967899D01*
X210662962Y-102595933D01*
X210520917Y-102252157D01*
X210362800Y-102093764D01*
X210362800Y-99108930D01*
X211709000Y-97762730D01*
X211709000Y-99734970D01*
X211439495Y-100004475D01*
X211396833Y-100004438D01*
X211053057Y-100146483D01*
X210789808Y-100409273D01*
X210647162Y-100752801D01*
X210646838Y-101124767D01*
X210788883Y-101468543D01*
X211051673Y-101731792D01*
X211395201Y-101874438D01*
X211767167Y-101874762D01*
X212110943Y-101732717D01*
X212374192Y-101469927D01*
X212516838Y-101126399D01*
X212516876Y-101082354D01*
X212979000Y-100620230D01*
X212979000Y-104306969D01*
X212701470Y-104584500D01*
X203455467Y-104584500D01*
X203311227Y-104440008D01*
X202967699Y-104297362D01*
X202595733Y-104297038D01*
X202251957Y-104439083D01*
X201988708Y-104701873D01*
X201846062Y-105045401D01*
X201845738Y-105417367D01*
X201987783Y-105761143D01*
X202250573Y-106024392D01*
X202594101Y-106167038D01*
X202966067Y-106167362D01*
X203108524Y-106108500D01*
X212663369Y-106108500D01*
X208332670Y-110439200D01*
X186309000Y-110439200D01*
X186231927Y-110454531D01*
X186153345Y-110455267D01*
X186087533Y-110483253D01*
X186017395Y-110497204D01*
X185952054Y-110540863D01*
X185879738Y-110571615D01*
X185041537Y-111143115D01*
X184991444Y-111194155D01*
X184931985Y-111233885D01*
X184888327Y-111299224D01*
X184866106Y-111321865D01*
X184774289Y-111260515D01*
X184200800Y-111146441D01*
X183627311Y-111260515D01*
X183141130Y-111585371D01*
X182816274Y-112071552D01*
X182702200Y-112645041D01*
X182702200Y-112703759D01*
X182767172Y-113030397D01*
X181375985Y-114421585D01*
X181210804Y-114668795D01*
X181152800Y-114960400D01*
X181152800Y-116967000D01*
X181210804Y-117258605D01*
X181333610Y-117442396D01*
X181375985Y-117505815D01*
X181452185Y-117582015D01*
X181699395Y-117747196D01*
X181991000Y-117805200D01*
X204825600Y-117805200D01*
X205117205Y-117747196D01*
X205364415Y-117582015D01*
X209440766Y-113505664D01*
X209486274Y-113734448D01*
X209811130Y-114220629D01*
X210081972Y-114401600D01*
X209811130Y-114582571D01*
X209486274Y-115068752D01*
X209372200Y-115642241D01*
X209372200Y-115700959D01*
X209486274Y-116274448D01*
X209811130Y-116760629D01*
X210297311Y-117085485D01*
X210870800Y-117199559D01*
X211444289Y-117085485D01*
X211930470Y-116760629D01*
X212140800Y-116445848D01*
X212351130Y-116760629D01*
X212837311Y-117085485D01*
X213410800Y-117199559D01*
X213984289Y-117085485D01*
X214470470Y-116760629D01*
X214680800Y-116445848D01*
X214891130Y-116760629D01*
X215188800Y-116959526D01*
X215188800Y-118948200D01*
X215246804Y-119239805D01*
X215411985Y-119487015D01*
X215711368Y-119786398D01*
X177302828Y-119786398D01*
X169398015Y-111881585D01*
X169362180Y-111857641D01*
X169150805Y-111716404D01*
X168859200Y-111658400D01*
X163561431Y-111658400D01*
X162209815Y-110306785D01*
X161962605Y-110141604D01*
X161671000Y-110083600D01*
X151028400Y-110083600D01*
X150736795Y-110141604D01*
X150489584Y-110306785D01*
X149016385Y-111779985D01*
X148851204Y-112027195D01*
X148793200Y-112318800D01*
X148793200Y-116738400D01*
X148851204Y-117030005D01*
X149003950Y-117258605D01*
X149016385Y-117277215D01*
X151581784Y-119842615D01*
X151828995Y-120007796D01*
X152120600Y-120065800D01*
X153187400Y-120065800D01*
X153479005Y-120007796D01*
X153726215Y-119842615D01*
X156189986Y-117378845D01*
X156565600Y-117453559D01*
X157139089Y-117339485D01*
X157625270Y-117014629D01*
X157841264Y-116691372D01*
X157898779Y-116814090D01*
X158330653Y-117208288D01*
X158746574Y-117380558D01*
X158978600Y-117259417D01*
X158978600Y-116052600D01*
X159232600Y-116052600D01*
X159232600Y-117259417D01*
X159464626Y-117380558D01*
X159880547Y-117208288D01*
X160312421Y-116814090D01*
X160560568Y-116284627D01*
X160440069Y-116052600D01*
X159232600Y-116052600D01*
X158978600Y-116052600D01*
X158958600Y-116052600D01*
X158958600Y-115798600D01*
X158978600Y-115798600D01*
X158978600Y-115778600D01*
X159232600Y-115778600D01*
X159232600Y-115798600D01*
X160440069Y-115798600D01*
X160560568Y-115566573D01*
X160490748Y-115417600D01*
X168340370Y-115417600D01*
X173387773Y-120465004D01*
X172262738Y-120464022D01*
X171036542Y-120970676D01*
X170097573Y-121908007D01*
X169588780Y-123133317D01*
X169587622Y-124460062D01*
X170094276Y-125686258D01*
X171031607Y-126625227D01*
X171387484Y-126773000D01*
X136277607Y-126773000D01*
X136182222Y-126709265D01*
X136316158Y-126653924D01*
X137255127Y-125716593D01*
X137514372Y-125092261D01*
X140131558Y-125092261D01*
X140343790Y-125605903D01*
X140736430Y-125999229D01*
X141249700Y-126212357D01*
X141805461Y-126212842D01*
X142319103Y-126000610D01*
X142712429Y-125607970D01*
X142925557Y-125094700D01*
X142926042Y-124538939D01*
X142713810Y-124025297D01*
X142321170Y-123631971D01*
X141807900Y-123418843D01*
X141252139Y-123418358D01*
X140738497Y-123630590D01*
X140345171Y-124023230D01*
X140132043Y-124536500D01*
X140131558Y-125092261D01*
X137514372Y-125092261D01*
X137763920Y-124491283D01*
X137765078Y-123164538D01*
X137258424Y-121938342D01*
X136321093Y-120999373D01*
X135095783Y-120490580D01*
X133769038Y-120489422D01*
X132542842Y-120996076D01*
X131603873Y-121933407D01*
X131545000Y-122075189D01*
X131545000Y-102364600D01*
X137754160Y-102364600D01*
X137754160Y-105864600D01*
X137798438Y-106099917D01*
X137937510Y-106316041D01*
X138149710Y-106461031D01*
X138401600Y-106512040D01*
X139119547Y-106512040D01*
X139253574Y-106712626D01*
X140754160Y-108213211D01*
X140754160Y-110564600D01*
X140798438Y-110799917D01*
X140937510Y-111016041D01*
X141149710Y-111161031D01*
X141401600Y-111212040D01*
X144901600Y-111212040D01*
X145136917Y-111167762D01*
X145353041Y-111028690D01*
X145498031Y-110816490D01*
X145549040Y-110564600D01*
X145549040Y-107064600D01*
X145504762Y-106829283D01*
X145365690Y-106613159D01*
X145217697Y-106512040D01*
X147901600Y-106512040D01*
X148136917Y-106467762D01*
X148353041Y-106328690D01*
X148498031Y-106116490D01*
X148549040Y-105864600D01*
X148549040Y-104615815D01*
X151834630Y-104615815D01*
X152158980Y-105400800D01*
X152759041Y-106001909D01*
X153543459Y-106327628D01*
X154392815Y-106328370D01*
X155177800Y-106004020D01*
X155778909Y-105403959D01*
X156104628Y-104619541D01*
X156105370Y-103770185D01*
X155781020Y-102985200D01*
X155180959Y-102384091D01*
X154396541Y-102058372D01*
X153547185Y-102057630D01*
X152762200Y-102381980D01*
X152161091Y-102982041D01*
X151835372Y-103766459D01*
X151834630Y-104615815D01*
X148549040Y-104615815D01*
X148549040Y-103513212D01*
X150233651Y-101828600D01*
X161809548Y-101828600D01*
X163885295Y-103904347D01*
X163884630Y-104665815D01*
X164208980Y-105450800D01*
X164809041Y-106051909D01*
X165593459Y-106377628D01*
X166442815Y-106378370D01*
X167227800Y-106054020D01*
X167828909Y-105453959D01*
X168154628Y-104669541D01*
X168154890Y-104368700D01*
X177451260Y-104368700D01*
X177451260Y-105968700D01*
X177495538Y-106204017D01*
X177634610Y-106420141D01*
X177846810Y-106565131D01*
X178098700Y-106616140D01*
X179098700Y-106616140D01*
X179334017Y-106571862D01*
X179550141Y-106432790D01*
X179695131Y-106220590D01*
X179746140Y-105968700D01*
X179746140Y-104368700D01*
X179701862Y-104133383D01*
X179578000Y-103940896D01*
X179578000Y-103706289D01*
X179580110Y-103707731D01*
X179832000Y-103758740D01*
X180340000Y-103758740D01*
X180575317Y-103714462D01*
X180594000Y-103702440D01*
X180594000Y-103982557D01*
X180502269Y-104116810D01*
X180451260Y-104368700D01*
X180451260Y-105968700D01*
X180495538Y-106204017D01*
X180634610Y-106420141D01*
X180846810Y-106565131D01*
X181098700Y-106616140D01*
X182098700Y-106616140D01*
X182334017Y-106571862D01*
X182550141Y-106432790D01*
X182602123Y-106356712D01*
X182651110Y-106432841D01*
X182863310Y-106577831D01*
X183115200Y-106628840D01*
X184115200Y-106628840D01*
X184350517Y-106584562D01*
X184566641Y-106445490D01*
X184711631Y-106233290D01*
X184762640Y-105981400D01*
X184762640Y-105131770D01*
X184766885Y-105136015D01*
X185014095Y-105301196D01*
X185305700Y-105359200D01*
X185467760Y-105359200D01*
X185467760Y-105981400D01*
X185512038Y-106216717D01*
X185651110Y-106432841D01*
X185863310Y-106577831D01*
X186115200Y-106628840D01*
X187115200Y-106628840D01*
X187350517Y-106584562D01*
X187566641Y-106445490D01*
X187711631Y-106233290D01*
X187762640Y-105981400D01*
X187762640Y-104381400D01*
X187718362Y-104146083D01*
X187579290Y-103929959D01*
X187367090Y-103784969D01*
X187115200Y-103733960D01*
X186821694Y-103733960D01*
X186925317Y-103714462D01*
X187071907Y-103620134D01*
X187200110Y-103707731D01*
X187452000Y-103758740D01*
X187960000Y-103758740D01*
X188195317Y-103714462D01*
X188411441Y-103575390D01*
X188556431Y-103363190D01*
X188607440Y-103111300D01*
X188607440Y-101968300D01*
X188563162Y-101732983D01*
X188424090Y-101516859D01*
X188241134Y-101391850D01*
X189649200Y-101391850D01*
X189649200Y-101732409D01*
X189745873Y-101965798D01*
X189924501Y-102144427D01*
X190157890Y-102241100D01*
X190798450Y-102241100D01*
X190957200Y-102082350D01*
X190957200Y-101233100D01*
X191211200Y-101233100D01*
X191211200Y-102082350D01*
X191369950Y-102241100D01*
X192010510Y-102241100D01*
X192243899Y-102144427D01*
X192422527Y-101965798D01*
X192519200Y-101732409D01*
X192519200Y-101391850D01*
X192360450Y-101233100D01*
X191211200Y-101233100D01*
X190957200Y-101233100D01*
X189807950Y-101233100D01*
X189649200Y-101391850D01*
X188241134Y-101391850D01*
X188211890Y-101371869D01*
X187960000Y-101320860D01*
X187452000Y-101320860D01*
X187216683Y-101365138D01*
X187070093Y-101459466D01*
X186941890Y-101371869D01*
X186690000Y-101320860D01*
X186347780Y-101320860D01*
X186490089Y-100978140D01*
X186490509Y-100496772D01*
X186483493Y-100479791D01*
X189649200Y-100479791D01*
X189649200Y-100820350D01*
X189807950Y-100979100D01*
X190957200Y-100979100D01*
X190957200Y-100129850D01*
X191211200Y-100129850D01*
X191211200Y-100979100D01*
X192360450Y-100979100D01*
X192519200Y-100820350D01*
X192519200Y-100479791D01*
X192422527Y-100246402D01*
X192243899Y-100067773D01*
X192010510Y-99971100D01*
X191369950Y-99971100D01*
X191211200Y-100129850D01*
X190957200Y-100129850D01*
X190798450Y-99971100D01*
X190157890Y-99971100D01*
X189924501Y-100067773D01*
X189745873Y-100246402D01*
X189649200Y-100479791D01*
X186483493Y-100479791D01*
X186306686Y-100051886D01*
X185966605Y-99711210D01*
X185522040Y-99526611D01*
X185040672Y-99526191D01*
X184595786Y-99710014D01*
X184255110Y-100050095D01*
X184070511Y-100494660D01*
X184070091Y-100976028D01*
X184218286Y-101334688D01*
X184150000Y-101320860D01*
X183642000Y-101320860D01*
X183406683Y-101365138D01*
X183260093Y-101459466D01*
X183131890Y-101371869D01*
X182880000Y-101320860D01*
X182372000Y-101320860D01*
X182136683Y-101365138D01*
X181990093Y-101459466D01*
X181861890Y-101371869D01*
X181610000Y-101320860D01*
X181155414Y-101320860D01*
X181244989Y-101105140D01*
X181245409Y-100623772D01*
X181061586Y-100178886D01*
X180721505Y-99838210D01*
X180276940Y-99653611D01*
X179795572Y-99653191D01*
X179350686Y-99837014D01*
X179010010Y-100177095D01*
X178825411Y-100621660D01*
X178824991Y-101103028D01*
X178914997Y-101320860D01*
X178562000Y-101320860D01*
X178326683Y-101365138D01*
X178110559Y-101504210D01*
X177965569Y-101716410D01*
X177914560Y-101968300D01*
X177914560Y-103111300D01*
X177958838Y-103346617D01*
X178054000Y-103494503D01*
X178054000Y-103729671D01*
X177863383Y-103765538D01*
X177647259Y-103904610D01*
X177502269Y-104116810D01*
X177451260Y-104368700D01*
X168154890Y-104368700D01*
X168155370Y-103820185D01*
X167831020Y-103035200D01*
X167230959Y-102434091D01*
X166446541Y-102108372D01*
X165680754Y-102107703D01*
X163233626Y-99660574D01*
X162821608Y-99385273D01*
X162335600Y-99288599D01*
X162335595Y-99288600D01*
X149707600Y-99288600D01*
X149221592Y-99385273D01*
X148809574Y-99660574D01*
X148809572Y-99660577D01*
X146752988Y-101717160D01*
X144401600Y-101717160D01*
X144244105Y-101746795D01*
X144375727Y-101549808D01*
X144394262Y-101456626D01*
X144472401Y-101063800D01*
X144472400Y-101063795D01*
X144472400Y-99147040D01*
X144952400Y-99147040D01*
X145187717Y-99102762D01*
X145403841Y-98963690D01*
X145548831Y-98751490D01*
X145599840Y-98499600D01*
X145599840Y-94999600D01*
X145555562Y-94764283D01*
X145416490Y-94548159D01*
X145268497Y-94447040D01*
X145996480Y-94447040D01*
X146202400Y-94488000D01*
X146408320Y-94447040D01*
X147952400Y-94447040D01*
X148187717Y-94402762D01*
X148403841Y-94263690D01*
X148548831Y-94051490D01*
X148599840Y-93799600D01*
X148599840Y-91448212D01*
X150843252Y-89204800D01*
X157385748Y-89204800D01*
X157885295Y-89704347D01*
X157884630Y-90465815D01*
X158208980Y-91250800D01*
X158809041Y-91851909D01*
X159593459Y-92177628D01*
X160442815Y-92178370D01*
X161227800Y-91854020D01*
X161828909Y-91253959D01*
X162154628Y-90469541D01*
X162155370Y-89620185D01*
X161831020Y-88835200D01*
X161230959Y-88234091D01*
X160446541Y-87908372D01*
X159680755Y-87907703D01*
X158809826Y-87036774D01*
X158397808Y-86761473D01*
X157911800Y-86664799D01*
X157911795Y-86664800D01*
X150317205Y-86664800D01*
X150317200Y-86664799D01*
X149831192Y-86761473D01*
X149419174Y-87036774D01*
X146803788Y-89652160D01*
X144452400Y-89652160D01*
X144217083Y-89696438D01*
X144000959Y-89835510D01*
X143855969Y-90047710D01*
X143804960Y-90299600D01*
X143804960Y-93799600D01*
X143849238Y-94034917D01*
X143988310Y-94251041D01*
X144136303Y-94352160D01*
X142601011Y-94352160D01*
X142447965Y-94199113D01*
X142548831Y-94051490D01*
X142599840Y-93799600D01*
X142599840Y-90299600D01*
X142555562Y-90064283D01*
X142416490Y-89848159D01*
X142204290Y-89703169D01*
X141952400Y-89652160D01*
X138452400Y-89652160D01*
X138217083Y-89696438D01*
X138000959Y-89835510D01*
X137855969Y-90047710D01*
X137804960Y-90299600D01*
X137804960Y-93799600D01*
X137849238Y-94034917D01*
X137988310Y-94251041D01*
X138200510Y-94396031D01*
X138452400Y-94447040D01*
X139170347Y-94447040D01*
X139304374Y-94647626D01*
X140804960Y-96148211D01*
X140804960Y-98499600D01*
X140849238Y-98734917D01*
X140988310Y-98951041D01*
X141200510Y-99096031D01*
X141452400Y-99147040D01*
X141932400Y-99147040D01*
X141932400Y-100537749D01*
X140752988Y-101717160D01*
X138401600Y-101717160D01*
X138166283Y-101761438D01*
X137950159Y-101900510D01*
X137805169Y-102112710D01*
X137754160Y-102364600D01*
X131545000Y-102364600D01*
X131545000Y-84397850D01*
X142424400Y-84397850D01*
X142424400Y-85038410D01*
X142521073Y-85271799D01*
X142699702Y-85450427D01*
X142933091Y-85547100D01*
X143273650Y-85547100D01*
X143432400Y-85388350D01*
X143432400Y-84239100D01*
X143686400Y-84239100D01*
X143686400Y-85388350D01*
X143845150Y-85547100D01*
X144185709Y-85547100D01*
X144419098Y-85450427D01*
X144597727Y-85271799D01*
X144694400Y-85038410D01*
X144694400Y-84397850D01*
X144535650Y-84239100D01*
X143686400Y-84239100D01*
X143432400Y-84239100D01*
X142583150Y-84239100D01*
X142424400Y-84397850D01*
X131545000Y-84397850D01*
X131545000Y-83185790D01*
X142424400Y-83185790D01*
X142424400Y-83826350D01*
X142583150Y-83985100D01*
X143432400Y-83985100D01*
X143432400Y-82835850D01*
X143686400Y-82835850D01*
X143686400Y-83985100D01*
X144535650Y-83985100D01*
X144694400Y-83826350D01*
X144694400Y-83312100D01*
X145411960Y-83312100D01*
X145411960Y-84912100D01*
X145456238Y-85147417D01*
X145595310Y-85363541D01*
X145807510Y-85508531D01*
X146059400Y-85559540D01*
X147059400Y-85559540D01*
X147294717Y-85515262D01*
X147510841Y-85376190D01*
X147655831Y-85163990D01*
X147706840Y-84912100D01*
X147706840Y-84874100D01*
X148866860Y-84874100D01*
X148866860Y-84936700D01*
X148911138Y-85172017D01*
X149050210Y-85388141D01*
X149262410Y-85533131D01*
X149514300Y-85584140D01*
X151514300Y-85584140D01*
X151749617Y-85539862D01*
X151965741Y-85400790D01*
X152110731Y-85188590D01*
X152161740Y-84936700D01*
X152161740Y-83236700D01*
X152117462Y-83001383D01*
X151978390Y-82785259D01*
X151766190Y-82640269D01*
X151514300Y-82589260D01*
X149514300Y-82589260D01*
X149278983Y-82633538D01*
X149062859Y-82772610D01*
X148917869Y-82984810D01*
X148866860Y-83236700D01*
X148866860Y-83350100D01*
X147706840Y-83350100D01*
X147706840Y-83312100D01*
X147662562Y-83076783D01*
X147523490Y-82860659D01*
X147311290Y-82715669D01*
X147059400Y-82664660D01*
X146059400Y-82664660D01*
X145824083Y-82708938D01*
X145607959Y-82848010D01*
X145462969Y-83060210D01*
X145411960Y-83312100D01*
X144694400Y-83312100D01*
X144694400Y-83185790D01*
X144597727Y-82952401D01*
X144419098Y-82773773D01*
X144185709Y-82677100D01*
X143845150Y-82677100D01*
X143686400Y-82835850D01*
X143432400Y-82835850D01*
X143273650Y-82677100D01*
X142933091Y-82677100D01*
X142699702Y-82773773D01*
X142521073Y-82952401D01*
X142424400Y-83185790D01*
X131545000Y-83185790D01*
X131545000Y-80232250D01*
X142411700Y-80232250D01*
X142411700Y-80872810D01*
X142508373Y-81106199D01*
X142687002Y-81284827D01*
X142920391Y-81381500D01*
X143260950Y-81381500D01*
X143419700Y-81222750D01*
X143419700Y-80073500D01*
X143673700Y-80073500D01*
X143673700Y-81222750D01*
X143832450Y-81381500D01*
X144173009Y-81381500D01*
X144406398Y-81284827D01*
X144585027Y-81106199D01*
X144681700Y-80872810D01*
X144681700Y-80232250D01*
X144522950Y-80073500D01*
X143673700Y-80073500D01*
X143419700Y-80073500D01*
X142570450Y-80073500D01*
X142411700Y-80232250D01*
X131545000Y-80232250D01*
X131545000Y-79020190D01*
X142411700Y-79020190D01*
X142411700Y-79660750D01*
X142570450Y-79819500D01*
X143419700Y-79819500D01*
X143419700Y-78670250D01*
X143673700Y-78670250D01*
X143673700Y-79819500D01*
X144522950Y-79819500D01*
X144681700Y-79660750D01*
X144681700Y-79146500D01*
X145399260Y-79146500D01*
X145399260Y-80746500D01*
X145443538Y-80981817D01*
X145582610Y-81197941D01*
X145794810Y-81342931D01*
X146046700Y-81393940D01*
X147046700Y-81393940D01*
X147282017Y-81349662D01*
X147498141Y-81210590D01*
X147643131Y-80998390D01*
X147694140Y-80746500D01*
X147694140Y-80708500D01*
X148790660Y-80708500D01*
X148790660Y-80745700D01*
X148834938Y-80981017D01*
X148974010Y-81197141D01*
X149186210Y-81342131D01*
X149438100Y-81393140D01*
X151438100Y-81393140D01*
X151673417Y-81348862D01*
X151889541Y-81209790D01*
X152034531Y-80997590D01*
X152085540Y-80745700D01*
X152085540Y-79045700D01*
X152041262Y-78810383D01*
X151902190Y-78594259D01*
X151689990Y-78449269D01*
X151438100Y-78398260D01*
X149438100Y-78398260D01*
X149202783Y-78442538D01*
X148986659Y-78581610D01*
X148841669Y-78793810D01*
X148790660Y-79045700D01*
X148790660Y-79184500D01*
X147694140Y-79184500D01*
X147694140Y-79146500D01*
X147649862Y-78911183D01*
X147510790Y-78695059D01*
X147298590Y-78550069D01*
X147046700Y-78499060D01*
X146046700Y-78499060D01*
X145811383Y-78543338D01*
X145595259Y-78682410D01*
X145450269Y-78894610D01*
X145399260Y-79146500D01*
X144681700Y-79146500D01*
X144681700Y-79020190D01*
X144585027Y-78786801D01*
X144406398Y-78608173D01*
X144173009Y-78511500D01*
X143832450Y-78511500D01*
X143673700Y-78670250D01*
X143419700Y-78670250D01*
X143260950Y-78511500D01*
X142920391Y-78511500D01*
X142687002Y-78608173D01*
X142508373Y-78786801D01*
X142411700Y-79020190D01*
X131545000Y-79020190D01*
X131545000Y-76155581D01*
X131765676Y-76689658D01*
X132703007Y-77628627D01*
X133928317Y-78137420D01*
X135255062Y-78138578D01*
X136481258Y-77631924D01*
X137420227Y-76694593D01*
X137508320Y-76482440D01*
X139089165Y-76482440D01*
X139298353Y-76843289D01*
X140235650Y-77220824D01*
X141246077Y-77210933D01*
X141626846Y-77053213D01*
X147027392Y-77053213D01*
X147096857Y-77295397D01*
X147620302Y-77482144D01*
X148175368Y-77454362D01*
X148559143Y-77295397D01*
X148628608Y-77053213D01*
X147828000Y-76252605D01*
X147027392Y-77053213D01*
X141626846Y-77053213D01*
X142133647Y-76843289D01*
X142342835Y-76482440D01*
X140716000Y-74855605D01*
X139089165Y-76482440D01*
X137508320Y-76482440D01*
X137929020Y-75469283D01*
X137930131Y-74195650D01*
X138171176Y-74195650D01*
X138181067Y-75206077D01*
X138548711Y-76093647D01*
X138909560Y-76302835D01*
X140536395Y-74676000D01*
X140895605Y-74676000D01*
X142522440Y-76302835D01*
X142883289Y-76093647D01*
X142975264Y-75865302D01*
X146418856Y-75865302D01*
X146446638Y-76420368D01*
X146605603Y-76804143D01*
X146847787Y-76873608D01*
X147648395Y-76073000D01*
X146847787Y-75272392D01*
X146605603Y-75341857D01*
X146418856Y-75865302D01*
X142975264Y-75865302D01*
X143260824Y-75156350D01*
X143260202Y-75092787D01*
X147027392Y-75092787D01*
X147828000Y-75893395D01*
X148628608Y-75092787D01*
X148559143Y-74850603D01*
X148035698Y-74663856D01*
X147480632Y-74691638D01*
X147096857Y-74850603D01*
X147027392Y-75092787D01*
X143260202Y-75092787D01*
X143250933Y-74145923D01*
X143006439Y-73555661D01*
X147700758Y-73555661D01*
X147912990Y-74069303D01*
X148305630Y-74462629D01*
X148818900Y-74675757D01*
X149374661Y-74676242D01*
X149888303Y-74464010D01*
X150281629Y-74071370D01*
X150494757Y-73558100D01*
X150494759Y-73555664D01*
X150706990Y-74069303D01*
X151099630Y-74462629D01*
X151612900Y-74675757D01*
X152168661Y-74676242D01*
X152682303Y-74464010D01*
X153075629Y-74071370D01*
X153225606Y-73710185D01*
X153373990Y-74069303D01*
X153766630Y-74462629D01*
X154279900Y-74675757D01*
X154835661Y-74676242D01*
X155349303Y-74464010D01*
X155742629Y-74071370D01*
X155955757Y-73558100D01*
X155955759Y-73555664D01*
X156167990Y-74069303D01*
X156560630Y-74462629D01*
X157073900Y-74675757D01*
X157629661Y-74676242D01*
X158143303Y-74464010D01*
X158536629Y-74071370D01*
X158749757Y-73558100D01*
X158750242Y-73002339D01*
X158538010Y-72488697D01*
X158145370Y-72095371D01*
X157632100Y-71882243D01*
X157076339Y-71881758D01*
X156562697Y-72093990D01*
X156169371Y-72486630D01*
X155956243Y-72999900D01*
X155956241Y-73002336D01*
X155744010Y-72488697D01*
X155351370Y-72095371D01*
X154838100Y-71882243D01*
X154282339Y-71881758D01*
X153768697Y-72093990D01*
X153375371Y-72486630D01*
X153225394Y-72847815D01*
X153077010Y-72488697D01*
X152684370Y-72095371D01*
X152171100Y-71882243D01*
X151615339Y-71881758D01*
X151101697Y-72093990D01*
X150708371Y-72486630D01*
X150495243Y-72999900D01*
X150495241Y-73002336D01*
X150283010Y-72488697D01*
X149890370Y-72095371D01*
X149377100Y-71882243D01*
X148821339Y-71881758D01*
X148307697Y-72093990D01*
X147914371Y-72486630D01*
X147701243Y-72999900D01*
X147700758Y-73555661D01*
X143006439Y-73555661D01*
X142883289Y-73258353D01*
X142522440Y-73049165D01*
X140895605Y-74676000D01*
X140536395Y-74676000D01*
X138909560Y-73049165D01*
X138548711Y-73258353D01*
X138171176Y-74195650D01*
X137930131Y-74195650D01*
X137930178Y-74142538D01*
X137423524Y-72916342D01*
X137376824Y-72869560D01*
X139089165Y-72869560D01*
X140716000Y-74496395D01*
X142342835Y-72869560D01*
X142133647Y-72508711D01*
X141196350Y-72131176D01*
X140185923Y-72141067D01*
X139298353Y-72508711D01*
X139089165Y-72869560D01*
X137376824Y-72869560D01*
X136486193Y-71977373D01*
X135260883Y-71468580D01*
X133934138Y-71467422D01*
X132707942Y-71974076D01*
X131768973Y-72911407D01*
X131545000Y-73450794D01*
X131545000Y-70331000D01*
X162298948Y-70331000D01*
X160187124Y-72442824D01*
X160187124Y-72442824D01*
G37*
X160187124Y-72442824D02*
X160016437Y-72698275D01*
X159956500Y-72999600D01*
X159956500Y-74846174D01*
X159763890Y-74714569D01*
X159512000Y-74663560D01*
X157988000Y-74663560D01*
X157752683Y-74707838D01*
X157536559Y-74846910D01*
X157391569Y-75059110D01*
X157340560Y-75311000D01*
X157340560Y-75765646D01*
X157141010Y-75282697D01*
X156748370Y-74889371D01*
X156235100Y-74676243D01*
X155679339Y-74675758D01*
X155165697Y-74887990D01*
X154772371Y-75280630D01*
X154622394Y-75641815D01*
X154474010Y-75282697D01*
X154081370Y-74889371D01*
X153568100Y-74676243D01*
X153012339Y-74675758D01*
X152498697Y-74887990D01*
X152105371Y-75280630D01*
X151892243Y-75793900D01*
X151892241Y-75796336D01*
X151680010Y-75282697D01*
X151287370Y-74889371D01*
X150774100Y-74676243D01*
X150218339Y-74675758D01*
X149704697Y-74887990D01*
X149311371Y-75280630D01*
X149168027Y-75625841D01*
X149050397Y-75341857D01*
X148808213Y-75272392D01*
X148007605Y-76073000D01*
X148808213Y-76873608D01*
X149050397Y-76804143D01*
X149159355Y-76498738D01*
X149309990Y-76863303D01*
X149702630Y-77256629D01*
X150215900Y-77469757D01*
X150771661Y-77470242D01*
X151285303Y-77258010D01*
X151678629Y-76865370D01*
X151891757Y-76352100D01*
X151891759Y-76349664D01*
X152103990Y-76863303D01*
X152496630Y-77256629D01*
X153009900Y-77469757D01*
X153565661Y-77470242D01*
X154079303Y-77258010D01*
X154472629Y-76865370D01*
X154622606Y-76504185D01*
X154770990Y-76863303D01*
X155163630Y-77256629D01*
X155676900Y-77469757D01*
X156232661Y-77470242D01*
X156746303Y-77258010D01*
X157139629Y-76865370D01*
X157340560Y-76381474D01*
X157340560Y-76835000D01*
X157384838Y-77070317D01*
X157523910Y-77286441D01*
X157736110Y-77431431D01*
X157988000Y-77482440D01*
X159224208Y-77482440D01*
X157598348Y-79108300D01*
X156085540Y-79108300D01*
X156085540Y-79045700D01*
X156041262Y-78810383D01*
X155902190Y-78594259D01*
X155689990Y-78449269D01*
X155438100Y-78398260D01*
X153438100Y-78398260D01*
X153202783Y-78442538D01*
X152986659Y-78581610D01*
X152841669Y-78793810D01*
X152790660Y-79045700D01*
X152790660Y-80745700D01*
X152834938Y-80981017D01*
X152974010Y-81197141D01*
X153186210Y-81342131D01*
X153438100Y-81393140D01*
X155438100Y-81393140D01*
X155673417Y-81348862D01*
X155889541Y-81209790D01*
X156034531Y-80997590D01*
X156085540Y-80745700D01*
X156085540Y-80683100D01*
X156963348Y-80683100D01*
X156148524Y-81497924D01*
X155977837Y-81753375D01*
X155917900Y-82054700D01*
X155917900Y-82743928D01*
X155766190Y-82640269D01*
X155514300Y-82589260D01*
X153514300Y-82589260D01*
X153278983Y-82633538D01*
X153062859Y-82772610D01*
X152917869Y-82984810D01*
X152866860Y-83236700D01*
X152866860Y-84936700D01*
X152911138Y-85172017D01*
X153050210Y-85388141D01*
X153262410Y-85533131D01*
X153514300Y-85584140D01*
X155514300Y-85584140D01*
X155749617Y-85539862D01*
X155965741Y-85400790D01*
X156110731Y-85188590D01*
X156161740Y-84936700D01*
X156161740Y-84874100D01*
X156210000Y-84874100D01*
X156511325Y-84814163D01*
X156766776Y-84643476D01*
X157262076Y-84148176D01*
X157432763Y-83892725D01*
X157492700Y-83591400D01*
X157492700Y-82380852D01*
X161884876Y-77988676D01*
X162055563Y-77733225D01*
X162115500Y-77431900D01*
X162115500Y-76482440D01*
X164108165Y-76482440D01*
X164317353Y-76843289D01*
X165254650Y-77220824D01*
X166265077Y-77210933D01*
X167152647Y-76843289D01*
X167361835Y-76482440D01*
X165735000Y-74855605D01*
X164108165Y-76482440D01*
X162115500Y-76482440D01*
X162115500Y-74195650D01*
X163190176Y-74195650D01*
X163200067Y-75206077D01*
X163567711Y-76093647D01*
X163928560Y-76302835D01*
X165555395Y-74676000D01*
X163928560Y-73049165D01*
X163567711Y-73258353D01*
X163190176Y-74195650D01*
X162115500Y-74195650D01*
X162115500Y-73592452D01*
X162838392Y-72869560D01*
X164108165Y-72869560D01*
X165735000Y-74496395D01*
X167361835Y-72869560D01*
X167152647Y-72508711D01*
X166215350Y-72131176D01*
X165204923Y-72141067D01*
X164317353Y-72508711D01*
X164108165Y-72869560D01*
X162838392Y-72869560D01*
X163978352Y-71729600D01*
X167593248Y-71729600D01*
X167995600Y-72131952D01*
X167995600Y-73483625D01*
X167902289Y-73258353D01*
X167541440Y-73049165D01*
X165914605Y-74676000D01*
X167541440Y-76302835D01*
X167902289Y-76093647D01*
X168279824Y-75156350D01*
X168275962Y-74761814D01*
X168529000Y-75014852D01*
X168529000Y-76441300D01*
X168588937Y-76742625D01*
X168759624Y-76998076D01*
X170778924Y-79017376D01*
X171034375Y-79188063D01*
X171335700Y-79248000D01*
X171463395Y-79222600D01*
X175387000Y-79222600D01*
X175678605Y-79164596D01*
X175925815Y-78999415D01*
X177208096Y-77717134D01*
X178150381Y-78659419D01*
X178095610Y-78714095D01*
X177911011Y-79158660D01*
X177910591Y-79640028D01*
X178094414Y-80084914D01*
X178333400Y-80324318D01*
X178333400Y-83931800D01*
X176199299Y-83931800D01*
X176158090Y-83867759D01*
X176018250Y-83772210D01*
X176053698Y-83757527D01*
X176232327Y-83578899D01*
X176329000Y-83345510D01*
X176329000Y-83104950D01*
X176170250Y-82946200D01*
X175371000Y-82946200D01*
X175371000Y-82966200D01*
X175117000Y-82966200D01*
X175117000Y-82946200D01*
X174317750Y-82946200D01*
X174231738Y-83032212D01*
X174158090Y-82917759D01*
X173945890Y-82772769D01*
X173694000Y-82721760D01*
X172794000Y-82721760D01*
X172558683Y-82766038D01*
X172342559Y-82905110D01*
X172197569Y-83117310D01*
X172146560Y-83369200D01*
X172146560Y-84169200D01*
X172190838Y-84404517D01*
X172329910Y-84620641D01*
X172482000Y-84724560D01*
X172482000Y-86739569D01*
X171725178Y-87496391D01*
X171708562Y-87408083D01*
X171569490Y-87191959D01*
X171357290Y-87046969D01*
X171105400Y-86995960D01*
X169305400Y-86995960D01*
X169070083Y-87040238D01*
X168853959Y-87179310D01*
X168708969Y-87391510D01*
X168657960Y-87643400D01*
X168657960Y-90143400D01*
X168702238Y-90378717D01*
X168841310Y-90594841D01*
X169053510Y-90739831D01*
X169305400Y-90790840D01*
X169443400Y-90790840D01*
X169443400Y-93308769D01*
X168213370Y-94538800D01*
X157593431Y-94538800D01*
X155728377Y-92673747D01*
X155854672Y-92369595D01*
X155854674Y-92366305D01*
X164084674Y-92366305D01*
X164371043Y-93059372D01*
X164900839Y-93590093D01*
X165593405Y-93877672D01*
X166343305Y-93878326D01*
X167036372Y-93591957D01*
X167567093Y-93062161D01*
X167854672Y-92369595D01*
X167855326Y-91619695D01*
X167568957Y-90926628D01*
X167039161Y-90395907D01*
X166732000Y-90268362D01*
X166732000Y-86415230D01*
X167491831Y-85655400D01*
X168657960Y-85655400D01*
X168657960Y-86143400D01*
X168702238Y-86378717D01*
X168841310Y-86594841D01*
X169053510Y-86739831D01*
X169305400Y-86790840D01*
X171105400Y-86790840D01*
X171340717Y-86746562D01*
X171556841Y-86607490D01*
X171701831Y-86395290D01*
X171752840Y-86143400D01*
X171752840Y-83643400D01*
X171708562Y-83408083D01*
X171569490Y-83191959D01*
X171357290Y-83046969D01*
X171105400Y-82995960D01*
X170992800Y-82995960D01*
X170992800Y-82292890D01*
X174159000Y-82292890D01*
X174159000Y-82533450D01*
X174317750Y-82692200D01*
X175117000Y-82692200D01*
X175117000Y-81942950D01*
X175371000Y-81942950D01*
X175371000Y-82692200D01*
X176170250Y-82692200D01*
X176329000Y-82533450D01*
X176329000Y-82292890D01*
X176232327Y-82059501D01*
X176053698Y-81880873D01*
X175820309Y-81784200D01*
X175529750Y-81784200D01*
X175371000Y-81942950D01*
X175117000Y-81942950D01*
X174958250Y-81784200D01*
X174667691Y-81784200D01*
X174434302Y-81880873D01*
X174255673Y-82059501D01*
X174159000Y-82292890D01*
X170992800Y-82292890D01*
X170992800Y-81136880D01*
X171230590Y-80899505D01*
X171415189Y-80454940D01*
X171415609Y-79973572D01*
X171231786Y-79528686D01*
X170891705Y-79188010D01*
X170447140Y-79003411D01*
X169965772Y-79002991D01*
X169520886Y-79186814D01*
X169180210Y-79526895D01*
X168995611Y-79971460D01*
X168995191Y-80452828D01*
X169179014Y-80897714D01*
X169418000Y-81137118D01*
X169418000Y-82995960D01*
X169305400Y-82995960D01*
X169070083Y-83040238D01*
X168853959Y-83179310D01*
X168708969Y-83391510D01*
X168657960Y-83643400D01*
X168657960Y-84131400D01*
X167176200Y-84131400D01*
X166884595Y-84189404D01*
X166637384Y-84354585D01*
X165431185Y-85560785D01*
X165266004Y-85807995D01*
X165208000Y-86099600D01*
X165208000Y-90268279D01*
X164903628Y-90394043D01*
X164372907Y-90923839D01*
X164085328Y-91616405D01*
X164084674Y-92366305D01*
X155854674Y-92366305D01*
X155855326Y-91619695D01*
X155568957Y-90926628D01*
X155039161Y-90395907D01*
X154346595Y-90108328D01*
X153596695Y-90107674D01*
X152903628Y-90394043D01*
X152372907Y-90923839D01*
X152085328Y-91616405D01*
X152084674Y-92366305D01*
X152371043Y-93059372D01*
X152900839Y-93590093D01*
X153593405Y-93877672D01*
X154343305Y-93878326D01*
X154650688Y-93751318D01*
X156738985Y-95839616D01*
X156882193Y-95935304D01*
X156986195Y-96004796D01*
X157277800Y-96062800D01*
X168529000Y-96062800D01*
X168820605Y-96004796D01*
X169067815Y-95839615D01*
X170744216Y-94163215D01*
X170862767Y-93985790D01*
X170909396Y-93916005D01*
X170967400Y-93624400D01*
X170967400Y-91255850D01*
X183706400Y-91255850D01*
X183706400Y-91946409D01*
X183803073Y-92179798D01*
X183981701Y-92358427D01*
X184215090Y-92455100D01*
X184905650Y-92455100D01*
X185064400Y-92296350D01*
X185064400Y-91097100D01*
X183865150Y-91097100D01*
X183706400Y-91255850D01*
X170967400Y-91255850D01*
X170967400Y-90790840D01*
X171105400Y-90790840D01*
X171340717Y-90746562D01*
X171556841Y-90607490D01*
X171701831Y-90395290D01*
X171752840Y-90143400D01*
X171752840Y-89993791D01*
X183706400Y-89993791D01*
X183706400Y-90684350D01*
X183865150Y-90843100D01*
X185064400Y-90843100D01*
X185064400Y-88557100D01*
X183870581Y-88557100D01*
X183749914Y-88786992D01*
X183996217Y-89311458D01*
X184195608Y-89493170D01*
X183981701Y-89581773D01*
X183803073Y-89760402D01*
X183706400Y-89993791D01*
X171752840Y-89993791D01*
X171752840Y-89560355D01*
X171944615Y-89432215D01*
X173303622Y-88073208D01*
X183749914Y-88073208D01*
X183870581Y-88303100D01*
X185064400Y-88303100D01*
X185064400Y-87109945D01*
X184834510Y-86988624D01*
X184424476Y-87158455D01*
X183996217Y-87548742D01*
X183749914Y-88073208D01*
X173303622Y-88073208D01*
X173782815Y-87594016D01*
X173947996Y-87346805D01*
X173953003Y-87321635D01*
X174006000Y-87055200D01*
X174006000Y-84723018D01*
X174145441Y-84633290D01*
X174146560Y-84631652D01*
X174146560Y-85119200D01*
X174190838Y-85354517D01*
X174329910Y-85570641D01*
X174542110Y-85715631D01*
X174794000Y-85766640D01*
X175694000Y-85766640D01*
X175929317Y-85722362D01*
X176145441Y-85583290D01*
X176197841Y-85506600D01*
X179689760Y-85506600D01*
X179689760Y-85559000D01*
X179734038Y-85794317D01*
X179873110Y-86010441D01*
X180085310Y-86155431D01*
X180337200Y-86206440D01*
X182337200Y-86206440D01*
X182572517Y-86162162D01*
X182788641Y-86023090D01*
X182933631Y-85810890D01*
X182984640Y-85559000D01*
X182984640Y-84994750D01*
X183702200Y-84994750D01*
X183702200Y-85685310D01*
X183798873Y-85918699D01*
X183977502Y-86097327D01*
X184210891Y-86194000D01*
X185051450Y-86194000D01*
X185210200Y-86035250D01*
X185210200Y-84836000D01*
X185464200Y-84836000D01*
X185464200Y-86035250D01*
X185622950Y-86194000D01*
X186463509Y-86194000D01*
X186696898Y-86097327D01*
X186875527Y-85918699D01*
X186972200Y-85685310D01*
X186972200Y-84994750D01*
X186813450Y-84836000D01*
X185464200Y-84836000D01*
X185210200Y-84836000D01*
X183860950Y-84836000D01*
X183702200Y-84994750D01*
X182984640Y-84994750D01*
X182984640Y-83859000D01*
X182960874Y-83732690D01*
X183702200Y-83732690D01*
X183702200Y-84423250D01*
X183860950Y-84582000D01*
X185210200Y-84582000D01*
X185210200Y-83382750D01*
X185051450Y-83224000D01*
X184210891Y-83224000D01*
X183977502Y-83320673D01*
X183798873Y-83499301D01*
X183702200Y-83732690D01*
X182960874Y-83732690D01*
X182940362Y-83623683D01*
X182801290Y-83407559D01*
X182691339Y-83332433D01*
X182762190Y-83261705D01*
X182946789Y-82817140D01*
X182947209Y-82335772D01*
X182763386Y-81890886D01*
X182626000Y-81753260D01*
X182626000Y-80197080D01*
X182863790Y-79959705D01*
X183048389Y-79515140D01*
X183048809Y-79033772D01*
X183048118Y-79032100D01*
X186741416Y-79032100D01*
X186699411Y-79133260D01*
X186698991Y-79614628D01*
X186882814Y-80059514D01*
X187172600Y-80349807D01*
X187172600Y-82134320D01*
X186934810Y-82371695D01*
X186750211Y-82816260D01*
X186749791Y-83297628D01*
X186803261Y-83427035D01*
X186696898Y-83320673D01*
X186463509Y-83224000D01*
X185622950Y-83224000D01*
X185464200Y-83382750D01*
X185464200Y-84582000D01*
X186813450Y-84582000D01*
X186972200Y-84423250D01*
X186972200Y-83781168D01*
X187273695Y-84083190D01*
X187718260Y-84267789D01*
X188199628Y-84268209D01*
X188644514Y-84084386D01*
X188985190Y-83744305D01*
X189169789Y-83299740D01*
X189170111Y-82929710D01*
X193681324Y-82929710D01*
X193802645Y-83159600D01*
X194995800Y-83159600D01*
X194995800Y-81965781D01*
X195249800Y-81965781D01*
X195249800Y-83159600D01*
X196442955Y-83159600D01*
X196564276Y-82929710D01*
X196394445Y-82519676D01*
X196004158Y-82091417D01*
X195479692Y-81845114D01*
X195249800Y-81965781D01*
X194995800Y-81965781D01*
X194765908Y-81845114D01*
X194241442Y-82091417D01*
X193851155Y-82519676D01*
X193681324Y-82929710D01*
X189170111Y-82929710D01*
X189170209Y-82818372D01*
X188986386Y-82373486D01*
X188747400Y-82134082D01*
X188747400Y-80247968D01*
X188934390Y-80061305D01*
X189118989Y-79616740D01*
X189119409Y-79135372D01*
X189076738Y-79032100D01*
X198823560Y-79032100D01*
X198823560Y-80996300D01*
X198867838Y-81231617D01*
X199006910Y-81447741D01*
X199219110Y-81592731D01*
X199471000Y-81643740D01*
X200071000Y-81643740D01*
X200253600Y-81609381D01*
X200253600Y-81842848D01*
X199025100Y-83071348D01*
X199025409Y-82716772D01*
X198841586Y-82271886D01*
X198501505Y-81931210D01*
X198056940Y-81746611D01*
X197575572Y-81746191D01*
X197130686Y-81930014D01*
X196790010Y-82270095D01*
X196605411Y-82714660D01*
X196604991Y-83196028D01*
X196788814Y-83640914D01*
X197030164Y-83882687D01*
X197087737Y-84172125D01*
X197258424Y-84427576D01*
X197463648Y-84632800D01*
X197057248Y-85039200D01*
X196377446Y-85039200D01*
X196201947Y-84776546D01*
X195861247Y-84548898D01*
X196004158Y-84481783D01*
X196394445Y-84053524D01*
X196564276Y-83643490D01*
X196442955Y-83413600D01*
X195249800Y-83413600D01*
X195249800Y-83433600D01*
X194995800Y-83433600D01*
X194995800Y-83413600D01*
X193802645Y-83413600D01*
X193681324Y-83643490D01*
X193851155Y-84053524D01*
X194241442Y-84481783D01*
X194384353Y-84548898D01*
X194043653Y-84776546D01*
X193721746Y-85258315D01*
X193608707Y-85826600D01*
X193721746Y-86394885D01*
X194043653Y-86876654D01*
X194372826Y-87096600D01*
X194043653Y-87316546D01*
X193721746Y-87798315D01*
X193608707Y-88366600D01*
X193721746Y-88934885D01*
X194043653Y-89416654D01*
X194085252Y-89444450D01*
X194037483Y-89453438D01*
X193821359Y-89592510D01*
X193676369Y-89804710D01*
X193625360Y-90056600D01*
X193625360Y-91756600D01*
X193669638Y-91991917D01*
X193808710Y-92208041D01*
X194020910Y-92353031D01*
X194272800Y-92404040D01*
X194360800Y-92404040D01*
X194360800Y-93461169D01*
X193793362Y-94028608D01*
X193598800Y-93989907D01*
X193030515Y-94102946D01*
X192548746Y-94424853D01*
X192520950Y-94466452D01*
X192511962Y-94418683D01*
X192372890Y-94202559D01*
X192160690Y-94057569D01*
X191908800Y-94006560D01*
X190208800Y-94006560D01*
X189973483Y-94050838D01*
X189757359Y-94189910D01*
X189612369Y-94402110D01*
X189561360Y-94654000D01*
X189561360Y-96354000D01*
X189605638Y-96589317D01*
X189699962Y-96735900D01*
X188607440Y-96735900D01*
X188607440Y-95618300D01*
X188563162Y-95382983D01*
X188424090Y-95166859D01*
X188211890Y-95021869D01*
X187960000Y-94970860D01*
X187792770Y-94970860D01*
X188270216Y-94493415D01*
X188379185Y-94330331D01*
X188435396Y-94246205D01*
X188493400Y-93954600D01*
X188493400Y-92241718D01*
X188781454Y-92049247D01*
X189001400Y-91720074D01*
X189221346Y-92049247D01*
X189703115Y-92371154D01*
X190271400Y-92484193D01*
X190839685Y-92371154D01*
X191321454Y-92049247D01*
X191643361Y-91567478D01*
X191756400Y-90999193D01*
X191756400Y-90941007D01*
X191643361Y-90372722D01*
X191321454Y-89890953D01*
X191035822Y-89700100D01*
X191321454Y-89509247D01*
X191643361Y-89027478D01*
X191756400Y-88459193D01*
X191756400Y-88401007D01*
X191643361Y-87832722D01*
X191321454Y-87350953D01*
X190839685Y-87029046D01*
X190271400Y-86916007D01*
X189703115Y-87029046D01*
X189221346Y-87350953D01*
X189001400Y-87680126D01*
X188781454Y-87350953D01*
X188299685Y-87029046D01*
X187731400Y-86916007D01*
X187163115Y-87029046D01*
X186681346Y-87350953D01*
X186453698Y-87691653D01*
X186386583Y-87548742D01*
X185958324Y-87158455D01*
X185548290Y-86988624D01*
X185318400Y-87109945D01*
X185318400Y-88303100D01*
X185338400Y-88303100D01*
X185338400Y-88557100D01*
X185318400Y-88557100D01*
X185318400Y-90843100D01*
X185338400Y-90843100D01*
X185338400Y-91097100D01*
X185318400Y-91097100D01*
X185318400Y-92296350D01*
X185477150Y-92455100D01*
X186167710Y-92455100D01*
X186401099Y-92358427D01*
X186579727Y-92179798D01*
X186651997Y-92005323D01*
X186681346Y-92049247D01*
X186969400Y-92241718D01*
X186969400Y-92389996D01*
X186906340Y-92363811D01*
X186424972Y-92363391D01*
X185980086Y-92547214D01*
X185715237Y-92811600D01*
X185674000Y-92811600D01*
X185382395Y-92869604D01*
X185306368Y-92920404D01*
X185135185Y-93034784D01*
X183388000Y-94781970D01*
X183388000Y-94548213D01*
X183549590Y-94386905D01*
X183734189Y-93942340D01*
X183734609Y-93460972D01*
X183550786Y-93016086D01*
X183210705Y-92675410D01*
X182766140Y-92490811D01*
X182284772Y-92490391D01*
X181839886Y-92674214D01*
X181499210Y-93014295D01*
X181314611Y-93458860D01*
X181314569Y-93506564D01*
X181116372Y-93506391D01*
X180671486Y-93690214D01*
X180330810Y-94030295D01*
X180146211Y-94474860D01*
X180145791Y-94956228D01*
X180219773Y-95135277D01*
X180213000Y-95142050D01*
X180213000Y-96062800D01*
X180233000Y-96062800D01*
X180233000Y-96316800D01*
X180213000Y-96316800D01*
X180213000Y-96336800D01*
X179959000Y-96336800D01*
X179959000Y-96316800D01*
X179939000Y-96316800D01*
X179939000Y-96062800D01*
X179959000Y-96062800D01*
X179959000Y-95142050D01*
X179800250Y-94983300D01*
X179705691Y-94983300D01*
X179472302Y-95079973D01*
X179445765Y-95106509D01*
X179321890Y-95021869D01*
X179070000Y-94970860D01*
X178562000Y-94970860D01*
X178326683Y-95015138D01*
X178110559Y-95154210D01*
X177965569Y-95366410D01*
X177914560Y-95618300D01*
X177914560Y-96761300D01*
X177958838Y-96996617D01*
X178097910Y-97212741D01*
X178148602Y-97247377D01*
X178248109Y-97396300D01*
X178277185Y-97439815D01*
X178874085Y-98036715D01*
X179121295Y-98201896D01*
X179412900Y-98259900D01*
X189636760Y-98259900D01*
X189636760Y-98606100D01*
X189681038Y-98841417D01*
X189820110Y-99057541D01*
X190032310Y-99202531D01*
X190284200Y-99253540D01*
X191884200Y-99253540D01*
X192119517Y-99209262D01*
X192335641Y-99070190D01*
X192480631Y-98857990D01*
X192531640Y-98606100D01*
X192531640Y-97606100D01*
X192487362Y-97370783D01*
X192348290Y-97154659D01*
X192136090Y-97009669D01*
X192005553Y-96983235D01*
X192144117Y-96957162D01*
X192360241Y-96818090D01*
X192505231Y-96605890D01*
X192518886Y-96538459D01*
X192548746Y-96583147D01*
X193030515Y-96905054D01*
X193598800Y-97018093D01*
X194167085Y-96905054D01*
X194648854Y-96583147D01*
X194660667Y-96565467D01*
X200664638Y-96565467D01*
X200806683Y-96909243D01*
X201069473Y-97172492D01*
X201413001Y-97315138D01*
X201784967Y-97315462D01*
X202128743Y-97173417D01*
X202391992Y-96910627D01*
X202534638Y-96567099D01*
X202534676Y-96523054D01*
X202829830Y-96227900D01*
X203611155Y-96227900D01*
X203611038Y-96362267D01*
X203753083Y-96706043D01*
X204015873Y-96969292D01*
X204359401Y-97111938D01*
X204731367Y-97112262D01*
X205075143Y-96970217D01*
X205106314Y-96939100D01*
X205348170Y-96939100D01*
X206011375Y-97602306D01*
X206011338Y-97644967D01*
X206153383Y-97988743D01*
X206416173Y-98251992D01*
X206759701Y-98394638D01*
X207131667Y-98394962D01*
X207475443Y-98252917D01*
X207738692Y-97990127D01*
X207881338Y-97646599D01*
X207881662Y-97274633D01*
X207739617Y-96930857D01*
X207476827Y-96667608D01*
X207133299Y-96524962D01*
X207089254Y-96524924D01*
X206787477Y-96223146D01*
X207014792Y-95996227D01*
X207157438Y-95652699D01*
X207157762Y-95280733D01*
X207015717Y-94936957D01*
X206752927Y-94673708D01*
X206409399Y-94531062D01*
X206037433Y-94530738D01*
X205693657Y-94672783D01*
X205662486Y-94703900D01*
X202514200Y-94703900D01*
X202222595Y-94761904D01*
X202044051Y-94881204D01*
X201975385Y-94927085D01*
X201457295Y-95445175D01*
X201414633Y-95445138D01*
X201070857Y-95587183D01*
X200807608Y-95849973D01*
X200664962Y-96193501D01*
X200664638Y-96565467D01*
X194660667Y-96565467D01*
X194970761Y-96101378D01*
X195083800Y-95533093D01*
X195083800Y-95474907D01*
X194987327Y-94989904D01*
X195661615Y-94315616D01*
X195826796Y-94068405D01*
X195834020Y-94032086D01*
X195884800Y-93776800D01*
X195884800Y-92404040D01*
X195972800Y-92404040D01*
X196208117Y-92359762D01*
X196424241Y-92220690D01*
X196569231Y-92008490D01*
X196620240Y-91756600D01*
X196620240Y-91694000D01*
X202734207Y-91694000D01*
X202800583Y-91854643D01*
X203063373Y-92117892D01*
X203406901Y-92260538D01*
X203778867Y-92260862D01*
X204122643Y-92118817D01*
X204385892Y-91856027D01*
X204528538Y-91512499D01*
X204528862Y-91140533D01*
X204483195Y-91030009D01*
X204551000Y-91043740D01*
X205151000Y-91043740D01*
X205386317Y-90999462D01*
X205485528Y-90935622D01*
X205569110Y-90992731D01*
X205821000Y-91043740D01*
X206421000Y-91043740D01*
X206656317Y-90999462D01*
X206755528Y-90935622D01*
X206839110Y-90992731D01*
X207091000Y-91043740D01*
X207691000Y-91043740D01*
X207926317Y-90999462D01*
X208025528Y-90935622D01*
X208109110Y-90992731D01*
X208361000Y-91043740D01*
X208961000Y-91043740D01*
X209196317Y-90999462D01*
X209295528Y-90935622D01*
X209379110Y-90992731D01*
X209631000Y-91043740D01*
X210231000Y-91043740D01*
X210466317Y-90999462D01*
X210565528Y-90935622D01*
X210649110Y-90992731D01*
X210901000Y-91043740D01*
X211501000Y-91043740D01*
X211709000Y-91004602D01*
X211709000Y-95750099D01*
X211523833Y-95749938D01*
X211180057Y-95891983D01*
X210916808Y-96154773D01*
X210774162Y-96498301D01*
X210774124Y-96542346D01*
X209061985Y-98254485D01*
X208896804Y-98501695D01*
X208838800Y-98793300D01*
X208838800Y-102483911D01*
X208792962Y-102594301D01*
X208792638Y-102966267D01*
X208934683Y-103310043D01*
X209197473Y-103573292D01*
X209541001Y-103715938D01*
X209912967Y-103716262D01*
X210256743Y-103574217D01*
X210519992Y-103311427D01*
X210662638Y-102967899D01*
X210662962Y-102595933D01*
X210520917Y-102252157D01*
X210362800Y-102093764D01*
X210362800Y-99108930D01*
X211709000Y-97762730D01*
X211709000Y-99734970D01*
X211439495Y-100004475D01*
X211396833Y-100004438D01*
X211053057Y-100146483D01*
X210789808Y-100409273D01*
X210647162Y-100752801D01*
X210646838Y-101124767D01*
X210788883Y-101468543D01*
X211051673Y-101731792D01*
X211395201Y-101874438D01*
X211767167Y-101874762D01*
X212110943Y-101732717D01*
X212374192Y-101469927D01*
X212516838Y-101126399D01*
X212516876Y-101082354D01*
X212979000Y-100620230D01*
X212979000Y-104306969D01*
X212701470Y-104584500D01*
X203455467Y-104584500D01*
X203311227Y-104440008D01*
X202967699Y-104297362D01*
X202595733Y-104297038D01*
X202251957Y-104439083D01*
X201988708Y-104701873D01*
X201846062Y-105045401D01*
X201845738Y-105417367D01*
X201987783Y-105761143D01*
X202250573Y-106024392D01*
X202594101Y-106167038D01*
X202966067Y-106167362D01*
X203108524Y-106108500D01*
X212663369Y-106108500D01*
X208332670Y-110439200D01*
X186309000Y-110439200D01*
X186231927Y-110454531D01*
X186153345Y-110455267D01*
X186087533Y-110483253D01*
X186017395Y-110497204D01*
X185952054Y-110540863D01*
X185879738Y-110571615D01*
X185041537Y-111143115D01*
X184991444Y-111194155D01*
X184931985Y-111233885D01*
X184888327Y-111299224D01*
X184866106Y-111321865D01*
X184774289Y-111260515D01*
X184200800Y-111146441D01*
X183627311Y-111260515D01*
X183141130Y-111585371D01*
X182816274Y-112071552D01*
X182702200Y-112645041D01*
X182702200Y-112703759D01*
X182767172Y-113030397D01*
X181375985Y-114421585D01*
X181210804Y-114668795D01*
X181152800Y-114960400D01*
X181152800Y-116967000D01*
X181210804Y-117258605D01*
X181333610Y-117442396D01*
X181375985Y-117505815D01*
X181452185Y-117582015D01*
X181699395Y-117747196D01*
X181991000Y-117805200D01*
X204825600Y-117805200D01*
X205117205Y-117747196D01*
X205364415Y-117582015D01*
X209440766Y-113505664D01*
X209486274Y-113734448D01*
X209811130Y-114220629D01*
X210081972Y-114401600D01*
X209811130Y-114582571D01*
X209486274Y-115068752D01*
X209372200Y-115642241D01*
X209372200Y-115700959D01*
X209486274Y-116274448D01*
X209811130Y-116760629D01*
X210297311Y-117085485D01*
X210870800Y-117199559D01*
X211444289Y-117085485D01*
X211930470Y-116760629D01*
X212140800Y-116445848D01*
X212351130Y-116760629D01*
X212837311Y-117085485D01*
X213410800Y-117199559D01*
X213984289Y-117085485D01*
X214470470Y-116760629D01*
X214680800Y-116445848D01*
X214891130Y-116760629D01*
X215188800Y-116959526D01*
X215188800Y-118948200D01*
X215246804Y-119239805D01*
X215411985Y-119487015D01*
X215711368Y-119786398D01*
X177302828Y-119786398D01*
X169398015Y-111881585D01*
X169362180Y-111857641D01*
X169150805Y-111716404D01*
X168859200Y-111658400D01*
X163561431Y-111658400D01*
X162209815Y-110306785D01*
X161962605Y-110141604D01*
X161671000Y-110083600D01*
X151028400Y-110083600D01*
X150736795Y-110141604D01*
X150489584Y-110306785D01*
X149016385Y-111779985D01*
X148851204Y-112027195D01*
X148793200Y-112318800D01*
X148793200Y-116738400D01*
X148851204Y-117030005D01*
X149003950Y-117258605D01*
X149016385Y-117277215D01*
X151581784Y-119842615D01*
X151828995Y-120007796D01*
X152120600Y-120065800D01*
X153187400Y-120065800D01*
X153479005Y-120007796D01*
X153726215Y-119842615D01*
X156189986Y-117378845D01*
X156565600Y-117453559D01*
X157139089Y-117339485D01*
X157625270Y-117014629D01*
X157841264Y-116691372D01*
X157898779Y-116814090D01*
X158330653Y-117208288D01*
X158746574Y-117380558D01*
X158978600Y-117259417D01*
X158978600Y-116052600D01*
X159232600Y-116052600D01*
X159232600Y-117259417D01*
X159464626Y-117380558D01*
X159880547Y-117208288D01*
X160312421Y-116814090D01*
X160560568Y-116284627D01*
X160440069Y-116052600D01*
X159232600Y-116052600D01*
X158978600Y-116052600D01*
X158958600Y-116052600D01*
X158958600Y-115798600D01*
X158978600Y-115798600D01*
X158978600Y-115778600D01*
X159232600Y-115778600D01*
X159232600Y-115798600D01*
X160440069Y-115798600D01*
X160560568Y-115566573D01*
X160490748Y-115417600D01*
X168340370Y-115417600D01*
X173387773Y-120465004D01*
X172262738Y-120464022D01*
X171036542Y-120970676D01*
X170097573Y-121908007D01*
X169588780Y-123133317D01*
X169587622Y-124460062D01*
X170094276Y-125686258D01*
X171031607Y-126625227D01*
X171387484Y-126773000D01*
X136277607Y-126773000D01*
X136182222Y-126709265D01*
X136316158Y-126653924D01*
X137255127Y-125716593D01*
X137514372Y-125092261D01*
X140131558Y-125092261D01*
X140343790Y-125605903D01*
X140736430Y-125999229D01*
X141249700Y-126212357D01*
X141805461Y-126212842D01*
X142319103Y-126000610D01*
X142712429Y-125607970D01*
X142925557Y-125094700D01*
X142926042Y-124538939D01*
X142713810Y-124025297D01*
X142321170Y-123631971D01*
X141807900Y-123418843D01*
X141252139Y-123418358D01*
X140738497Y-123630590D01*
X140345171Y-124023230D01*
X140132043Y-124536500D01*
X140131558Y-125092261D01*
X137514372Y-125092261D01*
X137763920Y-124491283D01*
X137765078Y-123164538D01*
X137258424Y-121938342D01*
X136321093Y-120999373D01*
X135095783Y-120490580D01*
X133769038Y-120489422D01*
X132542842Y-120996076D01*
X131603873Y-121933407D01*
X131545000Y-122075189D01*
X131545000Y-102364600D01*
X137754160Y-102364600D01*
X137754160Y-105864600D01*
X137798438Y-106099917D01*
X137937510Y-106316041D01*
X138149710Y-106461031D01*
X138401600Y-106512040D01*
X139119547Y-106512040D01*
X139253574Y-106712626D01*
X140754160Y-108213211D01*
X140754160Y-110564600D01*
X140798438Y-110799917D01*
X140937510Y-111016041D01*
X141149710Y-111161031D01*
X141401600Y-111212040D01*
X144901600Y-111212040D01*
X145136917Y-111167762D01*
X145353041Y-111028690D01*
X145498031Y-110816490D01*
X145549040Y-110564600D01*
X145549040Y-107064600D01*
X145504762Y-106829283D01*
X145365690Y-106613159D01*
X145217697Y-106512040D01*
X147901600Y-106512040D01*
X148136917Y-106467762D01*
X148353041Y-106328690D01*
X148498031Y-106116490D01*
X148549040Y-105864600D01*
X148549040Y-104615815D01*
X151834630Y-104615815D01*
X152158980Y-105400800D01*
X152759041Y-106001909D01*
X153543459Y-106327628D01*
X154392815Y-106328370D01*
X155177800Y-106004020D01*
X155778909Y-105403959D01*
X156104628Y-104619541D01*
X156105370Y-103770185D01*
X155781020Y-102985200D01*
X155180959Y-102384091D01*
X154396541Y-102058372D01*
X153547185Y-102057630D01*
X152762200Y-102381980D01*
X152161091Y-102982041D01*
X151835372Y-103766459D01*
X151834630Y-104615815D01*
X148549040Y-104615815D01*
X148549040Y-103513212D01*
X150233651Y-101828600D01*
X161809548Y-101828600D01*
X163885295Y-103904347D01*
X163884630Y-104665815D01*
X164208980Y-105450800D01*
X164809041Y-106051909D01*
X165593459Y-106377628D01*
X166442815Y-106378370D01*
X167227800Y-106054020D01*
X167828909Y-105453959D01*
X168154628Y-104669541D01*
X168154890Y-104368700D01*
X177451260Y-104368700D01*
X177451260Y-105968700D01*
X177495538Y-106204017D01*
X177634610Y-106420141D01*
X177846810Y-106565131D01*
X178098700Y-106616140D01*
X179098700Y-106616140D01*
X179334017Y-106571862D01*
X179550141Y-106432790D01*
X179695131Y-106220590D01*
X179746140Y-105968700D01*
X179746140Y-104368700D01*
X179701862Y-104133383D01*
X179578000Y-103940896D01*
X179578000Y-103706289D01*
X179580110Y-103707731D01*
X179832000Y-103758740D01*
X180340000Y-103758740D01*
X180575317Y-103714462D01*
X180594000Y-103702440D01*
X180594000Y-103982557D01*
X180502269Y-104116810D01*
X180451260Y-104368700D01*
X180451260Y-105968700D01*
X180495538Y-106204017D01*
X180634610Y-106420141D01*
X180846810Y-106565131D01*
X181098700Y-106616140D01*
X182098700Y-106616140D01*
X182334017Y-106571862D01*
X182550141Y-106432790D01*
X182602123Y-106356712D01*
X182651110Y-106432841D01*
X182863310Y-106577831D01*
X183115200Y-106628840D01*
X184115200Y-106628840D01*
X184350517Y-106584562D01*
X184566641Y-106445490D01*
X184711631Y-106233290D01*
X184762640Y-105981400D01*
X184762640Y-105131770D01*
X184766885Y-105136015D01*
X185014095Y-105301196D01*
X185305700Y-105359200D01*
X185467760Y-105359200D01*
X185467760Y-105981400D01*
X185512038Y-106216717D01*
X185651110Y-106432841D01*
X185863310Y-106577831D01*
X186115200Y-106628840D01*
X187115200Y-106628840D01*
X187350517Y-106584562D01*
X187566641Y-106445490D01*
X187711631Y-106233290D01*
X187762640Y-105981400D01*
X187762640Y-104381400D01*
X187718362Y-104146083D01*
X187579290Y-103929959D01*
X187367090Y-103784969D01*
X187115200Y-103733960D01*
X186821694Y-103733960D01*
X186925317Y-103714462D01*
X187071907Y-103620134D01*
X187200110Y-103707731D01*
X187452000Y-103758740D01*
X187960000Y-103758740D01*
X188195317Y-103714462D01*
X188411441Y-103575390D01*
X188556431Y-103363190D01*
X188607440Y-103111300D01*
X188607440Y-101968300D01*
X188563162Y-101732983D01*
X188424090Y-101516859D01*
X188241134Y-101391850D01*
X189649200Y-101391850D01*
X189649200Y-101732409D01*
X189745873Y-101965798D01*
X189924501Y-102144427D01*
X190157890Y-102241100D01*
X190798450Y-102241100D01*
X190957200Y-102082350D01*
X190957200Y-101233100D01*
X191211200Y-101233100D01*
X191211200Y-102082350D01*
X191369950Y-102241100D01*
X192010510Y-102241100D01*
X192243899Y-102144427D01*
X192422527Y-101965798D01*
X192519200Y-101732409D01*
X192519200Y-101391850D01*
X192360450Y-101233100D01*
X191211200Y-101233100D01*
X190957200Y-101233100D01*
X189807950Y-101233100D01*
X189649200Y-101391850D01*
X188241134Y-101391850D01*
X188211890Y-101371869D01*
X187960000Y-101320860D01*
X187452000Y-101320860D01*
X187216683Y-101365138D01*
X187070093Y-101459466D01*
X186941890Y-101371869D01*
X186690000Y-101320860D01*
X186347780Y-101320860D01*
X186490089Y-100978140D01*
X186490509Y-100496772D01*
X186483493Y-100479791D01*
X189649200Y-100479791D01*
X189649200Y-100820350D01*
X189807950Y-100979100D01*
X190957200Y-100979100D01*
X190957200Y-100129850D01*
X191211200Y-100129850D01*
X191211200Y-100979100D01*
X192360450Y-100979100D01*
X192519200Y-100820350D01*
X192519200Y-100479791D01*
X192422527Y-100246402D01*
X192243899Y-100067773D01*
X192010510Y-99971100D01*
X191369950Y-99971100D01*
X191211200Y-100129850D01*
X190957200Y-100129850D01*
X190798450Y-99971100D01*
X190157890Y-99971100D01*
X189924501Y-100067773D01*
X189745873Y-100246402D01*
X189649200Y-100479791D01*
X186483493Y-100479791D01*
X186306686Y-100051886D01*
X185966605Y-99711210D01*
X185522040Y-99526611D01*
X185040672Y-99526191D01*
X184595786Y-99710014D01*
X184255110Y-100050095D01*
X184070511Y-100494660D01*
X184070091Y-100976028D01*
X184218286Y-101334688D01*
X184150000Y-101320860D01*
X183642000Y-101320860D01*
X183406683Y-101365138D01*
X183260093Y-101459466D01*
X183131890Y-101371869D01*
X182880000Y-101320860D01*
X182372000Y-101320860D01*
X182136683Y-101365138D01*
X181990093Y-101459466D01*
X181861890Y-101371869D01*
X181610000Y-101320860D01*
X181155414Y-101320860D01*
X181244989Y-101105140D01*
X181245409Y-100623772D01*
X181061586Y-100178886D01*
X180721505Y-99838210D01*
X180276940Y-99653611D01*
X179795572Y-99653191D01*
X179350686Y-99837014D01*
X179010010Y-100177095D01*
X178825411Y-100621660D01*
X178824991Y-101103028D01*
X178914997Y-101320860D01*
X178562000Y-101320860D01*
X178326683Y-101365138D01*
X178110559Y-101504210D01*
X177965569Y-101716410D01*
X177914560Y-101968300D01*
X177914560Y-103111300D01*
X177958838Y-103346617D01*
X178054000Y-103494503D01*
X178054000Y-103729671D01*
X177863383Y-103765538D01*
X177647259Y-103904610D01*
X177502269Y-104116810D01*
X177451260Y-104368700D01*
X168154890Y-104368700D01*
X168155370Y-103820185D01*
X167831020Y-103035200D01*
X167230959Y-102434091D01*
X166446541Y-102108372D01*
X165680754Y-102107703D01*
X163233626Y-99660574D01*
X162821608Y-99385273D01*
X162335600Y-99288599D01*
X162335595Y-99288600D01*
X149707600Y-99288600D01*
X149221592Y-99385273D01*
X148809574Y-99660574D01*
X148809572Y-99660577D01*
X146752988Y-101717160D01*
X144401600Y-101717160D01*
X144244105Y-101746795D01*
X144375727Y-101549808D01*
X144394262Y-101456626D01*
X144472401Y-101063800D01*
X144472400Y-101063795D01*
X144472400Y-99147040D01*
X144952400Y-99147040D01*
X145187717Y-99102762D01*
X145403841Y-98963690D01*
X145548831Y-98751490D01*
X145599840Y-98499600D01*
X145599840Y-94999600D01*
X145555562Y-94764283D01*
X145416490Y-94548159D01*
X145268497Y-94447040D01*
X145996480Y-94447040D01*
X146202400Y-94488000D01*
X146408320Y-94447040D01*
X147952400Y-94447040D01*
X148187717Y-94402762D01*
X148403841Y-94263690D01*
X148548831Y-94051490D01*
X148599840Y-93799600D01*
X148599840Y-91448212D01*
X150843252Y-89204800D01*
X157385748Y-89204800D01*
X157885295Y-89704347D01*
X157884630Y-90465815D01*
X158208980Y-91250800D01*
X158809041Y-91851909D01*
X159593459Y-92177628D01*
X160442815Y-92178370D01*
X161227800Y-91854020D01*
X161828909Y-91253959D01*
X162154628Y-90469541D01*
X162155370Y-89620185D01*
X161831020Y-88835200D01*
X161230959Y-88234091D01*
X160446541Y-87908372D01*
X159680755Y-87907703D01*
X158809826Y-87036774D01*
X158397808Y-86761473D01*
X157911800Y-86664799D01*
X157911795Y-86664800D01*
X150317205Y-86664800D01*
X150317200Y-86664799D01*
X149831192Y-86761473D01*
X149419174Y-87036774D01*
X146803788Y-89652160D01*
X144452400Y-89652160D01*
X144217083Y-89696438D01*
X144000959Y-89835510D01*
X143855969Y-90047710D01*
X143804960Y-90299600D01*
X143804960Y-93799600D01*
X143849238Y-94034917D01*
X143988310Y-94251041D01*
X144136303Y-94352160D01*
X142601011Y-94352160D01*
X142447965Y-94199113D01*
X142548831Y-94051490D01*
X142599840Y-93799600D01*
X142599840Y-90299600D01*
X142555562Y-90064283D01*
X142416490Y-89848159D01*
X142204290Y-89703169D01*
X141952400Y-89652160D01*
X138452400Y-89652160D01*
X138217083Y-89696438D01*
X138000959Y-89835510D01*
X137855969Y-90047710D01*
X137804960Y-90299600D01*
X137804960Y-93799600D01*
X137849238Y-94034917D01*
X137988310Y-94251041D01*
X138200510Y-94396031D01*
X138452400Y-94447040D01*
X139170347Y-94447040D01*
X139304374Y-94647626D01*
X140804960Y-96148211D01*
X140804960Y-98499600D01*
X140849238Y-98734917D01*
X140988310Y-98951041D01*
X141200510Y-99096031D01*
X141452400Y-99147040D01*
X141932400Y-99147040D01*
X141932400Y-100537749D01*
X140752988Y-101717160D01*
X138401600Y-101717160D01*
X138166283Y-101761438D01*
X137950159Y-101900510D01*
X137805169Y-102112710D01*
X137754160Y-102364600D01*
X131545000Y-102364600D01*
X131545000Y-84397850D01*
X142424400Y-84397850D01*
X142424400Y-85038410D01*
X142521073Y-85271799D01*
X142699702Y-85450427D01*
X142933091Y-85547100D01*
X143273650Y-85547100D01*
X143432400Y-85388350D01*
X143432400Y-84239100D01*
X143686400Y-84239100D01*
X143686400Y-85388350D01*
X143845150Y-85547100D01*
X144185709Y-85547100D01*
X144419098Y-85450427D01*
X144597727Y-85271799D01*
X144694400Y-85038410D01*
X144694400Y-84397850D01*
X144535650Y-84239100D01*
X143686400Y-84239100D01*
X143432400Y-84239100D01*
X142583150Y-84239100D01*
X142424400Y-84397850D01*
X131545000Y-84397850D01*
X131545000Y-83185790D01*
X142424400Y-83185790D01*
X142424400Y-83826350D01*
X142583150Y-83985100D01*
X143432400Y-83985100D01*
X143432400Y-82835850D01*
X143686400Y-82835850D01*
X143686400Y-83985100D01*
X144535650Y-83985100D01*
X144694400Y-83826350D01*
X144694400Y-83312100D01*
X145411960Y-83312100D01*
X145411960Y-84912100D01*
X145456238Y-85147417D01*
X145595310Y-85363541D01*
X145807510Y-85508531D01*
X146059400Y-85559540D01*
X147059400Y-85559540D01*
X147294717Y-85515262D01*
X147510841Y-85376190D01*
X147655831Y-85163990D01*
X147706840Y-84912100D01*
X147706840Y-84874100D01*
X148866860Y-84874100D01*
X148866860Y-84936700D01*
X148911138Y-85172017D01*
X149050210Y-85388141D01*
X149262410Y-85533131D01*
X149514300Y-85584140D01*
X151514300Y-85584140D01*
X151749617Y-85539862D01*
X151965741Y-85400790D01*
X152110731Y-85188590D01*
X152161740Y-84936700D01*
X152161740Y-83236700D01*
X152117462Y-83001383D01*
X151978390Y-82785259D01*
X151766190Y-82640269D01*
X151514300Y-82589260D01*
X149514300Y-82589260D01*
X149278983Y-82633538D01*
X149062859Y-82772610D01*
X148917869Y-82984810D01*
X148866860Y-83236700D01*
X148866860Y-83350100D01*
X147706840Y-83350100D01*
X147706840Y-83312100D01*
X147662562Y-83076783D01*
X147523490Y-82860659D01*
X147311290Y-82715669D01*
X147059400Y-82664660D01*
X146059400Y-82664660D01*
X145824083Y-82708938D01*
X145607959Y-82848010D01*
X145462969Y-83060210D01*
X145411960Y-83312100D01*
X144694400Y-83312100D01*
X144694400Y-83185790D01*
X144597727Y-82952401D01*
X144419098Y-82773773D01*
X144185709Y-82677100D01*
X143845150Y-82677100D01*
X143686400Y-82835850D01*
X143432400Y-82835850D01*
X143273650Y-82677100D01*
X142933091Y-82677100D01*
X142699702Y-82773773D01*
X142521073Y-82952401D01*
X142424400Y-83185790D01*
X131545000Y-83185790D01*
X131545000Y-80232250D01*
X142411700Y-80232250D01*
X142411700Y-80872810D01*
X142508373Y-81106199D01*
X142687002Y-81284827D01*
X142920391Y-81381500D01*
X143260950Y-81381500D01*
X143419700Y-81222750D01*
X143419700Y-80073500D01*
X143673700Y-80073500D01*
X143673700Y-81222750D01*
X143832450Y-81381500D01*
X144173009Y-81381500D01*
X144406398Y-81284827D01*
X144585027Y-81106199D01*
X144681700Y-80872810D01*
X144681700Y-80232250D01*
X144522950Y-80073500D01*
X143673700Y-80073500D01*
X143419700Y-80073500D01*
X142570450Y-80073500D01*
X142411700Y-80232250D01*
X131545000Y-80232250D01*
X131545000Y-79020190D01*
X142411700Y-79020190D01*
X142411700Y-79660750D01*
X142570450Y-79819500D01*
X143419700Y-79819500D01*
X143419700Y-78670250D01*
X143673700Y-78670250D01*
X143673700Y-79819500D01*
X144522950Y-79819500D01*
X144681700Y-79660750D01*
X144681700Y-79146500D01*
X145399260Y-79146500D01*
X145399260Y-80746500D01*
X145443538Y-80981817D01*
X145582610Y-81197941D01*
X145794810Y-81342931D01*
X146046700Y-81393940D01*
X147046700Y-81393940D01*
X147282017Y-81349662D01*
X147498141Y-81210590D01*
X147643131Y-80998390D01*
X147694140Y-80746500D01*
X147694140Y-80708500D01*
X148790660Y-80708500D01*
X148790660Y-80745700D01*
X148834938Y-80981017D01*
X148974010Y-81197141D01*
X149186210Y-81342131D01*
X149438100Y-81393140D01*
X151438100Y-81393140D01*
X151673417Y-81348862D01*
X151889541Y-81209790D01*
X152034531Y-80997590D01*
X152085540Y-80745700D01*
X152085540Y-79045700D01*
X152041262Y-78810383D01*
X151902190Y-78594259D01*
X151689990Y-78449269D01*
X151438100Y-78398260D01*
X149438100Y-78398260D01*
X149202783Y-78442538D01*
X148986659Y-78581610D01*
X148841669Y-78793810D01*
X148790660Y-79045700D01*
X148790660Y-79184500D01*
X147694140Y-79184500D01*
X147694140Y-79146500D01*
X147649862Y-78911183D01*
X147510790Y-78695059D01*
X147298590Y-78550069D01*
X147046700Y-78499060D01*
X146046700Y-78499060D01*
X145811383Y-78543338D01*
X145595259Y-78682410D01*
X145450269Y-78894610D01*
X145399260Y-79146500D01*
X144681700Y-79146500D01*
X144681700Y-79020190D01*
X144585027Y-78786801D01*
X144406398Y-78608173D01*
X144173009Y-78511500D01*
X143832450Y-78511500D01*
X143673700Y-78670250D01*
X143419700Y-78670250D01*
X143260950Y-78511500D01*
X142920391Y-78511500D01*
X142687002Y-78608173D01*
X142508373Y-78786801D01*
X142411700Y-79020190D01*
X131545000Y-79020190D01*
X131545000Y-76155581D01*
X131765676Y-76689658D01*
X132703007Y-77628627D01*
X133928317Y-78137420D01*
X135255062Y-78138578D01*
X136481258Y-77631924D01*
X137420227Y-76694593D01*
X137508320Y-76482440D01*
X139089165Y-76482440D01*
X139298353Y-76843289D01*
X140235650Y-77220824D01*
X141246077Y-77210933D01*
X141626846Y-77053213D01*
X147027392Y-77053213D01*
X147096857Y-77295397D01*
X147620302Y-77482144D01*
X148175368Y-77454362D01*
X148559143Y-77295397D01*
X148628608Y-77053213D01*
X147828000Y-76252605D01*
X147027392Y-77053213D01*
X141626846Y-77053213D01*
X142133647Y-76843289D01*
X142342835Y-76482440D01*
X140716000Y-74855605D01*
X139089165Y-76482440D01*
X137508320Y-76482440D01*
X137929020Y-75469283D01*
X137930131Y-74195650D01*
X138171176Y-74195650D01*
X138181067Y-75206077D01*
X138548711Y-76093647D01*
X138909560Y-76302835D01*
X140536395Y-74676000D01*
X140895605Y-74676000D01*
X142522440Y-76302835D01*
X142883289Y-76093647D01*
X142975264Y-75865302D01*
X146418856Y-75865302D01*
X146446638Y-76420368D01*
X146605603Y-76804143D01*
X146847787Y-76873608D01*
X147648395Y-76073000D01*
X146847787Y-75272392D01*
X146605603Y-75341857D01*
X146418856Y-75865302D01*
X142975264Y-75865302D01*
X143260824Y-75156350D01*
X143260202Y-75092787D01*
X147027392Y-75092787D01*
X147828000Y-75893395D01*
X148628608Y-75092787D01*
X148559143Y-74850603D01*
X148035698Y-74663856D01*
X147480632Y-74691638D01*
X147096857Y-74850603D01*
X147027392Y-75092787D01*
X143260202Y-75092787D01*
X143250933Y-74145923D01*
X143006439Y-73555661D01*
X147700758Y-73555661D01*
X147912990Y-74069303D01*
X148305630Y-74462629D01*
X148818900Y-74675757D01*
X149374661Y-74676242D01*
X149888303Y-74464010D01*
X150281629Y-74071370D01*
X150494757Y-73558100D01*
X150494759Y-73555664D01*
X150706990Y-74069303D01*
X151099630Y-74462629D01*
X151612900Y-74675757D01*
X152168661Y-74676242D01*
X152682303Y-74464010D01*
X153075629Y-74071370D01*
X153225606Y-73710185D01*
X153373990Y-74069303D01*
X153766630Y-74462629D01*
X154279900Y-74675757D01*
X154835661Y-74676242D01*
X155349303Y-74464010D01*
X155742629Y-74071370D01*
X155955757Y-73558100D01*
X155955759Y-73555664D01*
X156167990Y-74069303D01*
X156560630Y-74462629D01*
X157073900Y-74675757D01*
X157629661Y-74676242D01*
X158143303Y-74464010D01*
X158536629Y-74071370D01*
X158749757Y-73558100D01*
X158750242Y-73002339D01*
X158538010Y-72488697D01*
X158145370Y-72095371D01*
X157632100Y-71882243D01*
X157076339Y-71881758D01*
X156562697Y-72093990D01*
X156169371Y-72486630D01*
X155956243Y-72999900D01*
X155956241Y-73002336D01*
X155744010Y-72488697D01*
X155351370Y-72095371D01*
X154838100Y-71882243D01*
X154282339Y-71881758D01*
X153768697Y-72093990D01*
X153375371Y-72486630D01*
X153225394Y-72847815D01*
X153077010Y-72488697D01*
X152684370Y-72095371D01*
X152171100Y-71882243D01*
X151615339Y-71881758D01*
X151101697Y-72093990D01*
X150708371Y-72486630D01*
X150495243Y-72999900D01*
X150495241Y-73002336D01*
X150283010Y-72488697D01*
X149890370Y-72095371D01*
X149377100Y-71882243D01*
X148821339Y-71881758D01*
X148307697Y-72093990D01*
X147914371Y-72486630D01*
X147701243Y-72999900D01*
X147700758Y-73555661D01*
X143006439Y-73555661D01*
X142883289Y-73258353D01*
X142522440Y-73049165D01*
X140895605Y-74676000D01*
X140536395Y-74676000D01*
X138909560Y-73049165D01*
X138548711Y-73258353D01*
X138171176Y-74195650D01*
X137930131Y-74195650D01*
X137930178Y-74142538D01*
X137423524Y-72916342D01*
X137376824Y-72869560D01*
X139089165Y-72869560D01*
X140716000Y-74496395D01*
X142342835Y-72869560D01*
X142133647Y-72508711D01*
X141196350Y-72131176D01*
X140185923Y-72141067D01*
X139298353Y-72508711D01*
X139089165Y-72869560D01*
X137376824Y-72869560D01*
X136486193Y-71977373D01*
X135260883Y-71468580D01*
X133934138Y-71467422D01*
X132707942Y-71974076D01*
X131768973Y-72911407D01*
X131545000Y-73450794D01*
X131545000Y-70331000D01*
X162298948Y-70331000D01*
X160187124Y-72442824D01*
G36*
X222879585Y-79837615D02*
X223126795Y-80002796D01*
X223418400Y-80060800D01*
X230875170Y-80060800D01*
X231718318Y-80903949D01*
X231361233Y-80903638D01*
X231017457Y-81045683D01*
X230754208Y-81308473D01*
X230611562Y-81652001D01*
X230611238Y-82023967D01*
X230753283Y-82367743D01*
X231016073Y-82630992D01*
X231094675Y-82663631D01*
X231094675Y-114512294D01*
X225820572Y-119786398D01*
X225334232Y-119786398D01*
X225923106Y-119197525D01*
X225965767Y-119197562D01*
X226309543Y-119055517D01*
X226572792Y-118792727D01*
X226715438Y-118449199D01*
X226715762Y-118077233D01*
X226573717Y-117733457D01*
X226310927Y-117470208D01*
X225967399Y-117327562D01*
X225934494Y-117327533D01*
X226055543Y-117277517D01*
X226318792Y-117014727D01*
X226461438Y-116671199D01*
X226461762Y-116299233D01*
X226319717Y-115955457D01*
X226056927Y-115692208D01*
X225713399Y-115549562D01*
X225341433Y-115549238D01*
X224997657Y-115691283D01*
X224734408Y-115954073D01*
X224591762Y-116297601D01*
X224591724Y-116341646D01*
X223331370Y-117602000D01*
X221879831Y-117602000D01*
X221792800Y-117514970D01*
X221792800Y-116959526D01*
X222090470Y-116760629D01*
X222415326Y-116274448D01*
X222529400Y-115700959D01*
X222529400Y-115642241D01*
X222415326Y-115068752D01*
X222104226Y-114603158D01*
X222129717Y-114598362D01*
X222345841Y-114459290D01*
X222490831Y-114247090D01*
X222541840Y-113995200D01*
X222541840Y-112268000D01*
X222497562Y-112032683D01*
X222358490Y-111816559D01*
X222146290Y-111671569D01*
X221894400Y-111620560D01*
X220167200Y-111620560D01*
X219931883Y-111664838D01*
X219715759Y-111803910D01*
X219570769Y-112016110D01*
X219561936Y-112059731D01*
X219550470Y-112042571D01*
X219064289Y-111717715D01*
X218490800Y-111603641D01*
X217917311Y-111717715D01*
X217431130Y-112042571D01*
X217220800Y-112357352D01*
X217010470Y-112042571D01*
X216524289Y-111717715D01*
X215950800Y-111603641D01*
X215377311Y-111717715D01*
X214891130Y-112042571D01*
X214680800Y-112357352D01*
X214470470Y-112042571D01*
X213984289Y-111717715D01*
X213410800Y-111603641D01*
X212837311Y-111717715D01*
X212351130Y-112042571D01*
X212140800Y-112357352D01*
X211930470Y-112042571D01*
X211444289Y-111717715D01*
X211264482Y-111681949D01*
X215422816Y-107523615D01*
X215422818Y-107523612D01*
X218216722Y-104729708D01*
X218405601Y-104808138D01*
X218777567Y-104808462D01*
X219121343Y-104666417D01*
X219384592Y-104403627D01*
X219527238Y-104060099D01*
X219527401Y-103873300D01*
X226060000Y-103873300D01*
X226351605Y-103815296D01*
X226598815Y-103650115D01*
X228097415Y-102151516D01*
X228262596Y-101904305D01*
X228272602Y-101854000D01*
X228320600Y-101612700D01*
X228320600Y-96913700D01*
X228262596Y-96622095D01*
X228097415Y-96374885D01*
X225887615Y-94165085D01*
X225808789Y-94112415D01*
X225640405Y-93999904D01*
X225348800Y-93941900D01*
X224954963Y-93941900D01*
X224988800Y-93860210D01*
X224988800Y-93719650D01*
X224830050Y-93560900D01*
X223730800Y-93560900D01*
X223730800Y-93580900D01*
X223476800Y-93580900D01*
X223476800Y-93560900D01*
X223456800Y-93560900D01*
X223456800Y-93306900D01*
X223476800Y-93306900D01*
X223476800Y-92657650D01*
X223730800Y-92657650D01*
X223730800Y-93306900D01*
X224830050Y-93306900D01*
X224988800Y-93148150D01*
X224988800Y-93007590D01*
X224892127Y-92774201D01*
X224713498Y-92595573D01*
X224480109Y-92498900D01*
X223889550Y-92498900D01*
X223730800Y-92657650D01*
X223476800Y-92657650D01*
X223318050Y-92498900D01*
X222758000Y-92498900D01*
X222758000Y-86801761D01*
X224688158Y-86801761D01*
X224900390Y-87315403D01*
X225293030Y-87708729D01*
X225806300Y-87921857D01*
X226362061Y-87922342D01*
X226875703Y-87710110D01*
X227269029Y-87317470D01*
X227482157Y-86804200D01*
X227482642Y-86248439D01*
X227270410Y-85734797D01*
X226877770Y-85341471D01*
X226364500Y-85128343D01*
X225808739Y-85127858D01*
X225295097Y-85340090D01*
X224901771Y-85732730D01*
X224688643Y-86246000D01*
X224688158Y-86801761D01*
X222758000Y-86801761D01*
X222758000Y-85711300D01*
X222699997Y-85419696D01*
X222534816Y-85172485D01*
X217228440Y-79866110D01*
X217228440Y-78996300D01*
X217184162Y-78760983D01*
X217045090Y-78544859D01*
X216832890Y-78399869D01*
X216581000Y-78348860D01*
X215981000Y-78348860D01*
X215745683Y-78393138D01*
X215646472Y-78456978D01*
X215562890Y-78399869D01*
X215311000Y-78348860D01*
X214711000Y-78348860D01*
X214475683Y-78393138D01*
X214376472Y-78456978D01*
X214292890Y-78399869D01*
X214041000Y-78348860D01*
X213441000Y-78348860D01*
X213205683Y-78393138D01*
X213106472Y-78456978D01*
X213022890Y-78399869D01*
X212771000Y-78348860D01*
X212171000Y-78348860D01*
X211935683Y-78393138D01*
X211836472Y-78456978D01*
X211752890Y-78399869D01*
X211501000Y-78348860D01*
X210901000Y-78348860D01*
X210665683Y-78393138D01*
X210566472Y-78456978D01*
X210482890Y-78399869D01*
X210231000Y-78348860D01*
X209631000Y-78348860D01*
X209395683Y-78393138D01*
X209296472Y-78456978D01*
X209212890Y-78399869D01*
X208961000Y-78348860D01*
X208361000Y-78348860D01*
X208125683Y-78393138D01*
X208026472Y-78456978D01*
X207942890Y-78399869D01*
X207691000Y-78348860D01*
X207091000Y-78348860D01*
X207018616Y-78362480D01*
X207000995Y-78273894D01*
X206905115Y-78130400D01*
X221172370Y-78130400D01*
X222879585Y-79837615D01*
X222879585Y-79837615D01*
G37*
X222879585Y-79837615D02*
X223126795Y-80002796D01*
X223418400Y-80060800D01*
X230875170Y-80060800D01*
X231718318Y-80903949D01*
X231361233Y-80903638D01*
X231017457Y-81045683D01*
X230754208Y-81308473D01*
X230611562Y-81652001D01*
X230611238Y-82023967D01*
X230753283Y-82367743D01*
X231016073Y-82630992D01*
X231094675Y-82663631D01*
X231094675Y-114512294D01*
X225820572Y-119786398D01*
X225334232Y-119786398D01*
X225923106Y-119197525D01*
X225965767Y-119197562D01*
X226309543Y-119055517D01*
X226572792Y-118792727D01*
X226715438Y-118449199D01*
X226715762Y-118077233D01*
X226573717Y-117733457D01*
X226310927Y-117470208D01*
X225967399Y-117327562D01*
X225934494Y-117327533D01*
X226055543Y-117277517D01*
X226318792Y-117014727D01*
X226461438Y-116671199D01*
X226461762Y-116299233D01*
X226319717Y-115955457D01*
X226056927Y-115692208D01*
X225713399Y-115549562D01*
X225341433Y-115549238D01*
X224997657Y-115691283D01*
X224734408Y-115954073D01*
X224591762Y-116297601D01*
X224591724Y-116341646D01*
X223331370Y-117602000D01*
X221879831Y-117602000D01*
X221792800Y-117514970D01*
X221792800Y-116959526D01*
X222090470Y-116760629D01*
X222415326Y-116274448D01*
X222529400Y-115700959D01*
X222529400Y-115642241D01*
X222415326Y-115068752D01*
X222104226Y-114603158D01*
X222129717Y-114598362D01*
X222345841Y-114459290D01*
X222490831Y-114247090D01*
X222541840Y-113995200D01*
X222541840Y-112268000D01*
X222497562Y-112032683D01*
X222358490Y-111816559D01*
X222146290Y-111671569D01*
X221894400Y-111620560D01*
X220167200Y-111620560D01*
X219931883Y-111664838D01*
X219715759Y-111803910D01*
X219570769Y-112016110D01*
X219561936Y-112059731D01*
X219550470Y-112042571D01*
X219064289Y-111717715D01*
X218490800Y-111603641D01*
X217917311Y-111717715D01*
X217431130Y-112042571D01*
X217220800Y-112357352D01*
X217010470Y-112042571D01*
X216524289Y-111717715D01*
X215950800Y-111603641D01*
X215377311Y-111717715D01*
X214891130Y-112042571D01*
X214680800Y-112357352D01*
X214470470Y-112042571D01*
X213984289Y-111717715D01*
X213410800Y-111603641D01*
X212837311Y-111717715D01*
X212351130Y-112042571D01*
X212140800Y-112357352D01*
X211930470Y-112042571D01*
X211444289Y-111717715D01*
X211264482Y-111681949D01*
X215422816Y-107523615D01*
X215422818Y-107523612D01*
X218216722Y-104729708D01*
X218405601Y-104808138D01*
X218777567Y-104808462D01*
X219121343Y-104666417D01*
X219384592Y-104403627D01*
X219527238Y-104060099D01*
X219527401Y-103873300D01*
X226060000Y-103873300D01*
X226351605Y-103815296D01*
X226598815Y-103650115D01*
X228097415Y-102151516D01*
X228262596Y-101904305D01*
X228272602Y-101854000D01*
X228320600Y-101612700D01*
X228320600Y-96913700D01*
X228262596Y-96622095D01*
X228097415Y-96374885D01*
X225887615Y-94165085D01*
X225808789Y-94112415D01*
X225640405Y-93999904D01*
X225348800Y-93941900D01*
X224954963Y-93941900D01*
X224988800Y-93860210D01*
X224988800Y-93719650D01*
X224830050Y-93560900D01*
X223730800Y-93560900D01*
X223730800Y-93580900D01*
X223476800Y-93580900D01*
X223476800Y-93560900D01*
X223456800Y-93560900D01*
X223456800Y-93306900D01*
X223476800Y-93306900D01*
X223476800Y-92657650D01*
X223730800Y-92657650D01*
X223730800Y-93306900D01*
X224830050Y-93306900D01*
X224988800Y-93148150D01*
X224988800Y-93007590D01*
X224892127Y-92774201D01*
X224713498Y-92595573D01*
X224480109Y-92498900D01*
X223889550Y-92498900D01*
X223730800Y-92657650D01*
X223476800Y-92657650D01*
X223318050Y-92498900D01*
X222758000Y-92498900D01*
X222758000Y-86801761D01*
X224688158Y-86801761D01*
X224900390Y-87315403D01*
X225293030Y-87708729D01*
X225806300Y-87921857D01*
X226362061Y-87922342D01*
X226875703Y-87710110D01*
X227269029Y-87317470D01*
X227482157Y-86804200D01*
X227482642Y-86248439D01*
X227270410Y-85734797D01*
X226877770Y-85341471D01*
X226364500Y-85128343D01*
X225808739Y-85127858D01*
X225295097Y-85340090D01*
X224901771Y-85732730D01*
X224688643Y-86246000D01*
X224688158Y-86801761D01*
X222758000Y-86801761D01*
X222758000Y-85711300D01*
X222699997Y-85419696D01*
X222534816Y-85172485D01*
X217228440Y-79866110D01*
X217228440Y-78996300D01*
X217184162Y-78760983D01*
X217045090Y-78544859D01*
X216832890Y-78399869D01*
X216581000Y-78348860D01*
X215981000Y-78348860D01*
X215745683Y-78393138D01*
X215646472Y-78456978D01*
X215562890Y-78399869D01*
X215311000Y-78348860D01*
X214711000Y-78348860D01*
X214475683Y-78393138D01*
X214376472Y-78456978D01*
X214292890Y-78399869D01*
X214041000Y-78348860D01*
X213441000Y-78348860D01*
X213205683Y-78393138D01*
X213106472Y-78456978D01*
X213022890Y-78399869D01*
X212771000Y-78348860D01*
X212171000Y-78348860D01*
X211935683Y-78393138D01*
X211836472Y-78456978D01*
X211752890Y-78399869D01*
X211501000Y-78348860D01*
X210901000Y-78348860D01*
X210665683Y-78393138D01*
X210566472Y-78456978D01*
X210482890Y-78399869D01*
X210231000Y-78348860D01*
X209631000Y-78348860D01*
X209395683Y-78393138D01*
X209296472Y-78456978D01*
X209212890Y-78399869D01*
X208961000Y-78348860D01*
X208361000Y-78348860D01*
X208125683Y-78393138D01*
X208026472Y-78456978D01*
X207942890Y-78399869D01*
X207691000Y-78348860D01*
X207091000Y-78348860D01*
X207018616Y-78362480D01*
X207000995Y-78273894D01*
X206905115Y-78130400D01*
X221172370Y-78130400D01*
X222879585Y-79837615D01*
G36*
X202628500Y-87761300D02*
X202596750Y-87761300D01*
X202438000Y-87920050D01*
X202438000Y-89269300D01*
X202458000Y-89269300D01*
X202458000Y-89523300D01*
X202438000Y-89523300D01*
X202438000Y-89543300D01*
X202184000Y-89543300D01*
X202184000Y-89523300D01*
X201168000Y-89523300D01*
X201168000Y-89543300D01*
X200914000Y-89543300D01*
X200914000Y-89523300D01*
X199898000Y-89523300D01*
X199898000Y-89543300D01*
X199644000Y-89543300D01*
X199644000Y-89523300D01*
X198994750Y-89523300D01*
X198836000Y-89682050D01*
X198836000Y-90119200D01*
X196620240Y-90119200D01*
X196620240Y-90056600D01*
X196575962Y-89821283D01*
X196436890Y-89605159D01*
X196224690Y-89460169D01*
X196157259Y-89446514D01*
X196201947Y-89416654D01*
X196377446Y-89154000D01*
X197002400Y-89154000D01*
X197303725Y-89094063D01*
X197559176Y-88923376D01*
X198212561Y-88269991D01*
X198836000Y-88269991D01*
X198836000Y-89110550D01*
X198994750Y-89269300D01*
X199644000Y-89269300D01*
X199644000Y-87920050D01*
X199898000Y-87920050D01*
X199898000Y-89269300D01*
X200914000Y-89269300D01*
X200914000Y-87920050D01*
X201168000Y-87920050D01*
X201168000Y-89269300D01*
X202184000Y-89269300D01*
X202184000Y-87920050D01*
X202025250Y-87761300D01*
X201884690Y-87761300D01*
X201676000Y-87847742D01*
X201467310Y-87761300D01*
X201326750Y-87761300D01*
X201168000Y-87920050D01*
X200914000Y-87920050D01*
X200755250Y-87761300D01*
X200614690Y-87761300D01*
X200406000Y-87847742D01*
X200197310Y-87761300D01*
X200056750Y-87761300D01*
X199898000Y-87920050D01*
X199644000Y-87920050D01*
X199485250Y-87761300D01*
X199344690Y-87761300D01*
X199111301Y-87857973D01*
X198932673Y-88036602D01*
X198836000Y-88269991D01*
X198212561Y-88269991D01*
X202628500Y-83854052D01*
X202628500Y-87761300D01*
X202628500Y-87761300D01*
G37*
X202628500Y-87761300D02*
X202596750Y-87761300D01*
X202438000Y-87920050D01*
X202438000Y-89269300D01*
X202458000Y-89269300D01*
X202458000Y-89523300D01*
X202438000Y-89523300D01*
X202438000Y-89543300D01*
X202184000Y-89543300D01*
X202184000Y-89523300D01*
X201168000Y-89523300D01*
X201168000Y-89543300D01*
X200914000Y-89543300D01*
X200914000Y-89523300D01*
X199898000Y-89523300D01*
X199898000Y-89543300D01*
X199644000Y-89543300D01*
X199644000Y-89523300D01*
X198994750Y-89523300D01*
X198836000Y-89682050D01*
X198836000Y-90119200D01*
X196620240Y-90119200D01*
X196620240Y-90056600D01*
X196575962Y-89821283D01*
X196436890Y-89605159D01*
X196224690Y-89460169D01*
X196157259Y-89446514D01*
X196201947Y-89416654D01*
X196377446Y-89154000D01*
X197002400Y-89154000D01*
X197303725Y-89094063D01*
X197559176Y-88923376D01*
X198212561Y-88269991D01*
X198836000Y-88269991D01*
X198836000Y-89110550D01*
X198994750Y-89269300D01*
X199644000Y-89269300D01*
X199644000Y-87920050D01*
X199898000Y-87920050D01*
X199898000Y-89269300D01*
X200914000Y-89269300D01*
X200914000Y-87920050D01*
X201168000Y-87920050D01*
X201168000Y-89269300D01*
X202184000Y-89269300D01*
X202184000Y-87920050D01*
X202025250Y-87761300D01*
X201884690Y-87761300D01*
X201676000Y-87847742D01*
X201467310Y-87761300D01*
X201326750Y-87761300D01*
X201168000Y-87920050D01*
X200914000Y-87920050D01*
X200755250Y-87761300D01*
X200614690Y-87761300D01*
X200406000Y-87847742D01*
X200197310Y-87761300D01*
X200056750Y-87761300D01*
X199898000Y-87920050D01*
X199644000Y-87920050D01*
X199485250Y-87761300D01*
X199344690Y-87761300D01*
X199111301Y-87857973D01*
X198932673Y-88036602D01*
X198836000Y-88269991D01*
X198212561Y-88269991D01*
X202628500Y-83854052D01*
X202628500Y-87761300D01*
G36*
X204978000Y-79869300D02*
X204998000Y-79869300D01*
X204998000Y-80123300D01*
X204978000Y-80123300D01*
X204978000Y-81472550D01*
X205046406Y-81540956D01*
X204608862Y-81978500D01*
X204139800Y-81978500D01*
X203775294Y-82051005D01*
X203656465Y-82130404D01*
X203466281Y-82257480D01*
X203098400Y-82625362D01*
X203098400Y-81606763D01*
X203281000Y-81643740D01*
X203881000Y-81643740D01*
X204116317Y-81599462D01*
X204206980Y-81541122D01*
X204424690Y-81631300D01*
X204565250Y-81631300D01*
X204724000Y-81472550D01*
X204724000Y-80123300D01*
X204704000Y-80123300D01*
X204704000Y-79869300D01*
X204724000Y-79869300D01*
X204724000Y-79849300D01*
X204978000Y-79849300D01*
X204978000Y-79869300D01*
X204978000Y-79869300D01*
G37*
X204978000Y-79869300D02*
X204998000Y-79869300D01*
X204998000Y-80123300D01*
X204978000Y-80123300D01*
X204978000Y-81472550D01*
X205046406Y-81540956D01*
X204608862Y-81978500D01*
X204139800Y-81978500D01*
X203775294Y-82051005D01*
X203656465Y-82130404D01*
X203466281Y-82257480D01*
X203098400Y-82625362D01*
X203098400Y-81606763D01*
X203281000Y-81643740D01*
X203881000Y-81643740D01*
X204116317Y-81599462D01*
X204206980Y-81541122D01*
X204424690Y-81631300D01*
X204565250Y-81631300D01*
X204724000Y-81472550D01*
X204724000Y-80123300D01*
X204704000Y-80123300D01*
X204704000Y-79869300D01*
X204724000Y-79869300D01*
X204724000Y-79849300D01*
X204978000Y-79849300D01*
X204978000Y-79869300D01*
G36*
X233707000Y-72882960D02*
X232802993Y-71977373D01*
X231577683Y-71468580D01*
X230250938Y-71467422D01*
X229024742Y-71974076D01*
X228085773Y-72911407D01*
X227576980Y-74136717D01*
X227575822Y-75463462D01*
X228082476Y-76689658D01*
X228836101Y-77444600D01*
X226488346Y-77444600D01*
X226852324Y-77293845D01*
X227280583Y-76903558D01*
X227526886Y-76379092D01*
X227406219Y-76149200D01*
X226212400Y-76149200D01*
X226212400Y-76169200D01*
X225958400Y-76169200D01*
X225958400Y-76149200D01*
X225938400Y-76149200D01*
X225938400Y-75895200D01*
X225958400Y-75895200D01*
X225958400Y-75875200D01*
X226212400Y-75875200D01*
X226212400Y-75895200D01*
X227406219Y-75895200D01*
X227526886Y-75665308D01*
X227280583Y-75140842D01*
X226852324Y-74750555D01*
X226852299Y-74750545D01*
X227135454Y-74561347D01*
X227457361Y-74079578D01*
X227570400Y-73511293D01*
X227570400Y-73453107D01*
X227457361Y-72884822D01*
X227135454Y-72403053D01*
X226653685Y-72081146D01*
X226085400Y-71968107D01*
X225517115Y-72081146D01*
X225440324Y-72132456D01*
X225354215Y-72003585D01*
X224312815Y-70962185D01*
X224282905Y-70942200D01*
X224065605Y-70797004D01*
X223774000Y-70739000D01*
X206908400Y-70739000D01*
X206616795Y-70797004D01*
X206369585Y-70962185D01*
X205263910Y-72067860D01*
X205197115Y-72081146D01*
X204715346Y-72403053D01*
X204495400Y-72732226D01*
X204275454Y-72403053D01*
X203793685Y-72081146D01*
X203225400Y-71968107D01*
X202657115Y-72081146D01*
X202175346Y-72403053D01*
X201947698Y-72743753D01*
X201880583Y-72600842D01*
X201452324Y-72210555D01*
X201042290Y-72040724D01*
X200812400Y-72162045D01*
X200812400Y-73355200D01*
X200832400Y-73355200D01*
X200832400Y-73609200D01*
X200812400Y-73609200D01*
X200812400Y-73629200D01*
X200558400Y-73629200D01*
X200558400Y-73609200D01*
X200538400Y-73609200D01*
X200538400Y-73355200D01*
X200558400Y-73355200D01*
X200558400Y-72162045D01*
X200328510Y-72040724D01*
X199918476Y-72210555D01*
X199490217Y-72600842D01*
X199423102Y-72743753D01*
X199195454Y-72403053D01*
X198713685Y-72081146D01*
X198145400Y-71968107D01*
X197577115Y-72081146D01*
X197095346Y-72403053D01*
X196875400Y-72732226D01*
X196655454Y-72403053D01*
X196173685Y-72081146D01*
X195605400Y-71968107D01*
X195037115Y-72081146D01*
X194555346Y-72403053D01*
X194327698Y-72743753D01*
X194260583Y-72600842D01*
X193832324Y-72210555D01*
X193422290Y-72040724D01*
X193192400Y-72162045D01*
X193192400Y-73355200D01*
X193212400Y-73355200D01*
X193212400Y-73609200D01*
X193192400Y-73609200D01*
X193192400Y-73629200D01*
X192938400Y-73629200D01*
X192938400Y-73609200D01*
X192918400Y-73609200D01*
X192918400Y-73355200D01*
X192938400Y-73355200D01*
X192938400Y-72162045D01*
X192708510Y-72040724D01*
X192298476Y-72210555D01*
X191870217Y-72600842D01*
X191803102Y-72743753D01*
X191575454Y-72403053D01*
X191093685Y-72081146D01*
X190525400Y-71968107D01*
X189957115Y-72081146D01*
X189475346Y-72403053D01*
X189255400Y-72732226D01*
X189035454Y-72403053D01*
X188553685Y-72081146D01*
X187985400Y-71968107D01*
X187417115Y-72081146D01*
X186935346Y-72403053D01*
X186715400Y-72732226D01*
X186495454Y-72403053D01*
X186013685Y-72081146D01*
X185445400Y-71968107D01*
X184877115Y-72081146D01*
X184395346Y-72403053D01*
X184167698Y-72743753D01*
X184100583Y-72600842D01*
X183672324Y-72210555D01*
X183262290Y-72040724D01*
X183032400Y-72162045D01*
X183032400Y-73355200D01*
X183052400Y-73355200D01*
X183052400Y-73609200D01*
X183032400Y-73609200D01*
X183032400Y-73629200D01*
X182778400Y-73629200D01*
X182778400Y-73609200D01*
X182758400Y-73609200D01*
X182758400Y-73355200D01*
X182778400Y-73355200D01*
X182778400Y-72162045D01*
X182548510Y-72040724D01*
X182138476Y-72210555D01*
X181710217Y-72600842D01*
X181643102Y-72743753D01*
X181415454Y-72403053D01*
X180933685Y-72081146D01*
X180365400Y-71968107D01*
X179797115Y-72081146D01*
X179315346Y-72403053D01*
X179095400Y-72732226D01*
X178875454Y-72403053D01*
X178393685Y-72081146D01*
X177825400Y-71968107D01*
X177491313Y-72034561D01*
X176172376Y-70715624D01*
X175916925Y-70544937D01*
X175615600Y-70485000D01*
X170370500Y-70485000D01*
X170197408Y-70519430D01*
X170167740Y-70507111D01*
X169829468Y-70506816D01*
X169653652Y-70331000D01*
X233707000Y-70331000D01*
X233707000Y-72882960D01*
X233707000Y-72882960D01*
G37*
X233707000Y-72882960D02*
X232802993Y-71977373D01*
X231577683Y-71468580D01*
X230250938Y-71467422D01*
X229024742Y-71974076D01*
X228085773Y-72911407D01*
X227576980Y-74136717D01*
X227575822Y-75463462D01*
X228082476Y-76689658D01*
X228836101Y-77444600D01*
X226488346Y-77444600D01*
X226852324Y-77293845D01*
X227280583Y-76903558D01*
X227526886Y-76379092D01*
X227406219Y-76149200D01*
X226212400Y-76149200D01*
X226212400Y-76169200D01*
X225958400Y-76169200D01*
X225958400Y-76149200D01*
X225938400Y-76149200D01*
X225938400Y-75895200D01*
X225958400Y-75895200D01*
X225958400Y-75875200D01*
X226212400Y-75875200D01*
X226212400Y-75895200D01*
X227406219Y-75895200D01*
X227526886Y-75665308D01*
X227280583Y-75140842D01*
X226852324Y-74750555D01*
X226852299Y-74750545D01*
X227135454Y-74561347D01*
X227457361Y-74079578D01*
X227570400Y-73511293D01*
X227570400Y-73453107D01*
X227457361Y-72884822D01*
X227135454Y-72403053D01*
X226653685Y-72081146D01*
X226085400Y-71968107D01*
X225517115Y-72081146D01*
X225440324Y-72132456D01*
X225354215Y-72003585D01*
X224312815Y-70962185D01*
X224282905Y-70942200D01*
X224065605Y-70797004D01*
X223774000Y-70739000D01*
X206908400Y-70739000D01*
X206616795Y-70797004D01*
X206369585Y-70962185D01*
X205263910Y-72067860D01*
X205197115Y-72081146D01*
X204715346Y-72403053D01*
X204495400Y-72732226D01*
X204275454Y-72403053D01*
X203793685Y-72081146D01*
X203225400Y-71968107D01*
X202657115Y-72081146D01*
X202175346Y-72403053D01*
X201947698Y-72743753D01*
X201880583Y-72600842D01*
X201452324Y-72210555D01*
X201042290Y-72040724D01*
X200812400Y-72162045D01*
X200812400Y-73355200D01*
X200832400Y-73355200D01*
X200832400Y-73609200D01*
X200812400Y-73609200D01*
X200812400Y-73629200D01*
X200558400Y-73629200D01*
X200558400Y-73609200D01*
X200538400Y-73609200D01*
X200538400Y-73355200D01*
X200558400Y-73355200D01*
X200558400Y-72162045D01*
X200328510Y-72040724D01*
X199918476Y-72210555D01*
X199490217Y-72600842D01*
X199423102Y-72743753D01*
X199195454Y-72403053D01*
X198713685Y-72081146D01*
X198145400Y-71968107D01*
X197577115Y-72081146D01*
X197095346Y-72403053D01*
X196875400Y-72732226D01*
X196655454Y-72403053D01*
X196173685Y-72081146D01*
X195605400Y-71968107D01*
X195037115Y-72081146D01*
X194555346Y-72403053D01*
X194327698Y-72743753D01*
X194260583Y-72600842D01*
X193832324Y-72210555D01*
X193422290Y-72040724D01*
X193192400Y-72162045D01*
X193192400Y-73355200D01*
X193212400Y-73355200D01*
X193212400Y-73609200D01*
X193192400Y-73609200D01*
X193192400Y-73629200D01*
X192938400Y-73629200D01*
X192938400Y-73609200D01*
X192918400Y-73609200D01*
X192918400Y-73355200D01*
X192938400Y-73355200D01*
X192938400Y-72162045D01*
X192708510Y-72040724D01*
X192298476Y-72210555D01*
X191870217Y-72600842D01*
X191803102Y-72743753D01*
X191575454Y-72403053D01*
X191093685Y-72081146D01*
X190525400Y-71968107D01*
X189957115Y-72081146D01*
X189475346Y-72403053D01*
X189255400Y-72732226D01*
X189035454Y-72403053D01*
X188553685Y-72081146D01*
X187985400Y-71968107D01*
X187417115Y-72081146D01*
X186935346Y-72403053D01*
X186715400Y-72732226D01*
X186495454Y-72403053D01*
X186013685Y-72081146D01*
X185445400Y-71968107D01*
X184877115Y-72081146D01*
X184395346Y-72403053D01*
X184167698Y-72743753D01*
X184100583Y-72600842D01*
X183672324Y-72210555D01*
X183262290Y-72040724D01*
X183032400Y-72162045D01*
X183032400Y-73355200D01*
X183052400Y-73355200D01*
X183052400Y-73609200D01*
X183032400Y-73609200D01*
X183032400Y-73629200D01*
X182778400Y-73629200D01*
X182778400Y-73609200D01*
X182758400Y-73609200D01*
X182758400Y-73355200D01*
X182778400Y-73355200D01*
X182778400Y-72162045D01*
X182548510Y-72040724D01*
X182138476Y-72210555D01*
X181710217Y-72600842D01*
X181643102Y-72743753D01*
X181415454Y-72403053D01*
X180933685Y-72081146D01*
X180365400Y-71968107D01*
X179797115Y-72081146D01*
X179315346Y-72403053D01*
X179095400Y-72732226D01*
X178875454Y-72403053D01*
X178393685Y-72081146D01*
X177825400Y-71968107D01*
X177491313Y-72034561D01*
X176172376Y-70715624D01*
X175916925Y-70544937D01*
X175615600Y-70485000D01*
X170370500Y-70485000D01*
X170197408Y-70519430D01*
X170167740Y-70507111D01*
X169829468Y-70506816D01*
X169653652Y-70331000D01*
X233707000Y-70331000D01*
X233707000Y-72882960D01*
G36*
X188112400Y-75895200D02*
X188132400Y-75895200D01*
X188132400Y-76149200D01*
X188112400Y-76149200D01*
X188112400Y-76169200D01*
X187858400Y-76169200D01*
X187858400Y-76149200D01*
X187838400Y-76149200D01*
X187838400Y-75895200D01*
X187858400Y-75895200D01*
X187858400Y-75875200D01*
X188112400Y-75875200D01*
X188112400Y-75895200D01*
X188112400Y-75895200D01*
G37*
X188112400Y-75895200D02*
X188132400Y-75895200D01*
X188132400Y-76149200D01*
X188112400Y-76149200D01*
X188112400Y-76169200D01*
X187858400Y-76169200D01*
X187858400Y-76149200D01*
X187838400Y-76149200D01*
X187838400Y-75895200D01*
X187858400Y-75895200D01*
X187858400Y-75875200D01*
X188112400Y-75875200D01*
X188112400Y-75895200D01*
G36*
X208432400Y-75895200D02*
X208452400Y-75895200D01*
X208452400Y-76149200D01*
X208432400Y-76149200D01*
X208432400Y-76169200D01*
X208178400Y-76169200D01*
X208178400Y-76149200D01*
X208158400Y-76149200D01*
X208158400Y-75895200D01*
X208178400Y-75895200D01*
X208178400Y-75875200D01*
X208432400Y-75875200D01*
X208432400Y-75895200D01*
X208432400Y-75895200D01*
G37*
X208432400Y-75895200D02*
X208452400Y-75895200D01*
X208452400Y-76149200D01*
X208432400Y-76149200D01*
X208432400Y-76169200D01*
X208178400Y-76169200D01*
X208178400Y-76149200D01*
X208158400Y-76149200D01*
X208158400Y-75895200D01*
X208178400Y-75895200D01*
X208178400Y-75875200D01*
X208432400Y-75875200D01*
X208432400Y-75895200D01*
G36*
X213512400Y-73355200D02*
X213532400Y-73355200D01*
X213532400Y-73609200D01*
X213512400Y-73609200D01*
X213512400Y-73629200D01*
X213258400Y-73629200D01*
X213258400Y-73609200D01*
X213238400Y-73609200D01*
X213238400Y-73355200D01*
X213258400Y-73355200D01*
X213258400Y-73335200D01*
X213512400Y-73335200D01*
X213512400Y-73355200D01*
X213512400Y-73355200D01*
G37*
X213512400Y-73355200D02*
X213532400Y-73355200D01*
X213532400Y-73609200D01*
X213512400Y-73609200D01*
X213512400Y-73629200D01*
X213258400Y-73629200D01*
X213258400Y-73609200D01*
X213238400Y-73609200D01*
X213238400Y-73355200D01*
X213258400Y-73355200D01*
X213258400Y-73335200D01*
X213512400Y-73335200D01*
X213512400Y-73355200D01*
G36*
X218592400Y-73355200D02*
X218612400Y-73355200D01*
X218612400Y-73609200D01*
X218592400Y-73609200D01*
X218592400Y-73629200D01*
X218338400Y-73629200D01*
X218338400Y-73609200D01*
X218318400Y-73609200D01*
X218318400Y-73355200D01*
X218338400Y-73355200D01*
X218338400Y-73335200D01*
X218592400Y-73335200D01*
X218592400Y-73355200D01*
X218592400Y-73355200D01*
G37*
X218592400Y-73355200D02*
X218612400Y-73355200D01*
X218612400Y-73609200D01*
X218592400Y-73609200D01*
X218592400Y-73629200D01*
X218338400Y-73629200D01*
X218338400Y-73609200D01*
X218318400Y-73609200D01*
X218318400Y-73355200D01*
X218338400Y-73355200D01*
X218338400Y-73335200D01*
X218592400Y-73335200D01*
X218592400Y-73355200D01*
M02*
