%TF.GenerationSoftware,KiCad,Pcbnew,4.0.7*%
%TF.CreationDate,2018-07-23T15:38:25+02:00*%
%TF.ProjectId,rte_rpi,7274655F7270692E6B696361645F7063,rev?*%
%TF.FileFunction,Copper,L2,Bot,Signal*%
%FSLAX46Y46*%
G04 Gerber Fmt 4.6, Leading zero omitted, Abs format (unit mm)*
G04 Created by KiCad (PCBNEW 4.0.7) date 07/23/18 15:38:25*
%MOMM*%
%LPD*%
G01*
G04 APERTURE LIST*
%ADD10C,0.100000*%
%ADD11C,2.500000*%
%ADD12C,3.000000*%
%ADD13R,0.600000X1.500000*%
%ADD14R,1.700000X1.700000*%
%ADD15O,1.700000X1.700000*%
%ADD16R,1.727200X1.727200*%
%ADD17O,1.727200X1.727200*%
%ADD18R,3.500000X3.500000*%
%ADD19R,1.600000X1.000000*%
%ADD20R,1.000000X1.600000*%
%ADD21C,5.400000*%
%ADD22C,3.810000*%
%ADD23R,1.524000X1.524000*%
%ADD24C,1.524000*%
%ADD25C,1.000000*%
%ADD26C,0.600000*%
%ADD27C,1.150000*%
%ADD28C,0.254000*%
%ADD29C,0.304800*%
G04 APERTURE END LIST*
D10*
D11*
X153970000Y-91993000D03*
D12*
X153970000Y-104193000D03*
X166020000Y-104243000D03*
D11*
X165970000Y-91993000D03*
D12*
X160020000Y-90043000D03*
D13*
X205333600Y-103525300D03*
X204063600Y-103525300D03*
X202793600Y-103525300D03*
X201523600Y-103525300D03*
X200253600Y-103525300D03*
X198983600Y-103525300D03*
X197713600Y-103525300D03*
X197713600Y-98125300D03*
X198983600Y-98125300D03*
X200253600Y-98125300D03*
X201523600Y-98125300D03*
X202793600Y-98125300D03*
X204063600Y-98125300D03*
X205333600Y-98125300D03*
D14*
X177825400Y-76022200D03*
D15*
X177825400Y-73482200D03*
X180365400Y-76022200D03*
X180365400Y-73482200D03*
X182905400Y-76022200D03*
X182905400Y-73482200D03*
X185445400Y-76022200D03*
X185445400Y-73482200D03*
X187985400Y-76022200D03*
X187985400Y-73482200D03*
X190525400Y-76022200D03*
X190525400Y-73482200D03*
X193065400Y-76022200D03*
X193065400Y-73482200D03*
X195605400Y-76022200D03*
X195605400Y-73482200D03*
X198145400Y-76022200D03*
X198145400Y-73482200D03*
X200685400Y-76022200D03*
X200685400Y-73482200D03*
X203225400Y-76022200D03*
X203225400Y-73482200D03*
X205765400Y-76022200D03*
X205765400Y-73482200D03*
X208305400Y-76022200D03*
X208305400Y-73482200D03*
X210845400Y-76022200D03*
X210845400Y-73482200D03*
X213385400Y-76022200D03*
X213385400Y-73482200D03*
X215925400Y-76022200D03*
X215925400Y-73482200D03*
X218465400Y-76022200D03*
X218465400Y-73482200D03*
X221005400Y-76022200D03*
X221005400Y-73482200D03*
X223545400Y-76022200D03*
X223545400Y-73482200D03*
X226085400Y-76022200D03*
X226085400Y-73482200D03*
D14*
X185191400Y-90970100D03*
D15*
X185191400Y-88430100D03*
X187731400Y-90970100D03*
X187731400Y-88430100D03*
X190271400Y-90970100D03*
X190271400Y-88430100D03*
D16*
X159105600Y-113385600D03*
D17*
X159105600Y-115925600D03*
X156565600Y-113385600D03*
X156565600Y-115925600D03*
X154025600Y-113385600D03*
X154025600Y-115925600D03*
X151485600Y-113385600D03*
X151485600Y-115925600D03*
D18*
X146151600Y-104114600D03*
X140151600Y-104114600D03*
X143151600Y-108814600D03*
D19*
X176060100Y-97941000D03*
X176060100Y-100941000D03*
D20*
X187961400Y-99199700D03*
X184961400Y-99199700D03*
D19*
X226415600Y-93254700D03*
X226415600Y-96254700D03*
X207619600Y-102033200D03*
X207619600Y-99033200D03*
D14*
X195122800Y-90906600D03*
D15*
X195122800Y-88366600D03*
X195122800Y-85826600D03*
X195122800Y-83286600D03*
D18*
X146202400Y-92049600D03*
X140202400Y-92049600D03*
X143202400Y-96749600D03*
D16*
X194360800Y-112674400D03*
D17*
X194360800Y-115214400D03*
X191820800Y-112674400D03*
X191820800Y-115214400D03*
X189280800Y-112674400D03*
X189280800Y-115214400D03*
X186740800Y-112674400D03*
X186740800Y-115214400D03*
X184200800Y-112674400D03*
X184200800Y-115214400D03*
D16*
X221030800Y-113131600D03*
D17*
X221030800Y-115671600D03*
X218490800Y-113131600D03*
X218490800Y-115671600D03*
X215950800Y-113131600D03*
X215950800Y-115671600D03*
X213410800Y-113131600D03*
X213410800Y-115671600D03*
X210870800Y-113131600D03*
X210870800Y-115671600D03*
D21*
X172923200Y-123799600D03*
X230911400Y-123799600D03*
X134429500Y-123825000D03*
X230911400Y-74803000D03*
X134594600Y-74803000D03*
X172923200Y-74803000D03*
D14*
X191058800Y-95504000D03*
D15*
X193598800Y-95504000D03*
D22*
X165735000Y-74676000D03*
X140716000Y-74676000D03*
D23*
X158750000Y-76073000D03*
D24*
X155956000Y-76073000D03*
X153289000Y-76073000D03*
X150495000Y-76073000D03*
X147828000Y-76073000D03*
X157353000Y-73279000D03*
X154559000Y-73279000D03*
X151892000Y-73279000D03*
X149098000Y-73279000D03*
D25*
X133083300Y-116192300D03*
X133921500Y-82105500D03*
D26*
X198932800Y-101752400D03*
X205181200Y-101854000D03*
X204216000Y-82042000D03*
D27*
X180035200Y-100863400D03*
X185280300Y-100736400D03*
D26*
X216877900Y-101041200D03*
X226466400Y-97612200D03*
X203593700Y-91325700D03*
D27*
X169926000Y-71716900D03*
X170205400Y-80213200D03*
X197815200Y-82956400D03*
X206121000Y-85369400D03*
X181737000Y-82575400D03*
X181838600Y-79273400D03*
X187909200Y-79375000D03*
X187960000Y-83058000D03*
X204851000Y-86283800D03*
X179120800Y-79400400D03*
X161493200Y-113639600D03*
D26*
X231546400Y-81838800D03*
D27*
X182524400Y-93700600D03*
X181356000Y-94716600D03*
D26*
X222123000Y-97142300D03*
X221945200Y-99783900D03*
X218592400Y-103873300D03*
X216573100Y-93395800D03*
X216484200Y-96050100D03*
X225526600Y-116484400D03*
X207391000Y-87363300D03*
X208610200Y-87388700D03*
X219710000Y-118287800D03*
X209905600Y-87363300D03*
X211201000Y-87337900D03*
X225780600Y-118262400D03*
D27*
X186664600Y-93573600D03*
D26*
X214718900Y-99733100D03*
X201599800Y-96380300D03*
X206222600Y-95465900D03*
X207492600Y-83604100D03*
X211582000Y-100939600D03*
X202780900Y-105232200D03*
X209727800Y-102781100D03*
X211709000Y-96685100D03*
X215036400Y-87490300D03*
X204546200Y-96177100D03*
X206946500Y-97459800D03*
X216281000Y-87439500D03*
D28*
X197713600Y-103525300D02*
X197713600Y-102971600D01*
X197713600Y-102971600D02*
X198932800Y-101752400D01*
X205181200Y-101854000D02*
X205360400Y-102033200D01*
X205360400Y-102033200D02*
X207619600Y-102033200D01*
X179957600Y-100941000D02*
X176060100Y-100941000D01*
X180035200Y-100863400D02*
X179957600Y-100941000D01*
X184961400Y-100417500D02*
X184961400Y-99199700D01*
X185280300Y-100736400D02*
X184961400Y-100417500D01*
X207619600Y-99033200D02*
X207619600Y-98780600D01*
X207619600Y-98780600D02*
X207073500Y-98234500D01*
D29*
X226415600Y-97561400D02*
X226415600Y-96254700D01*
X226466400Y-97612200D02*
X226415600Y-97561400D01*
X203593700Y-91325700D02*
X205320900Y-93052900D01*
D28*
X215595200Y-98234500D02*
X207619600Y-98234500D01*
X207619600Y-98234500D02*
X207073500Y-98234500D01*
X207073500Y-98234500D02*
X205442800Y-98234500D01*
X215595200Y-99758500D02*
X215595200Y-98234500D01*
X216877900Y-101041200D02*
X215595200Y-99758500D01*
X205442800Y-98234500D02*
X205333600Y-98125300D01*
D29*
X205320900Y-93052900D02*
X205320900Y-98112600D01*
D28*
X205320900Y-98112600D02*
X205333600Y-98125300D01*
X170205400Y-80213200D02*
X169392600Y-79400400D01*
D29*
X169392600Y-79400400D02*
X169392600Y-72250300D01*
X169392600Y-72250300D02*
X169926000Y-71716900D01*
X181851300Y-80835500D02*
X182803800Y-81788000D01*
X196646800Y-81788000D02*
X197815200Y-82956400D01*
X182803800Y-81788000D02*
X196646800Y-81788000D01*
X180365400Y-76022200D02*
X180365400Y-79349600D01*
X180365400Y-79349600D02*
X181851300Y-80835500D01*
X181851300Y-80835500D02*
X181864000Y-80848200D01*
X184111900Y-80149700D02*
X185140600Y-81178400D01*
X198577200Y-81178400D02*
X199313800Y-81915000D01*
X197434200Y-81178400D02*
X198577200Y-81178400D01*
X185140600Y-81178400D02*
X197434200Y-81178400D01*
X182905400Y-76022200D02*
X182905400Y-78943200D01*
X199313800Y-84175600D02*
X195122800Y-88366600D01*
X199313800Y-81915000D02*
X199313800Y-84175600D01*
X182905400Y-78943200D02*
X184111900Y-80149700D01*
X184111900Y-80149700D02*
X184124600Y-80162400D01*
X190525400Y-76022200D02*
X190525400Y-77089000D01*
X199313800Y-78562200D02*
X206121000Y-85369400D01*
X191998600Y-78562200D02*
X199313800Y-78562200D01*
X190525400Y-77089000D02*
X191998600Y-78562200D01*
X190525400Y-76022200D02*
X190525400Y-76047600D01*
X187731400Y-88430100D02*
X187591700Y-88430100D01*
X187591700Y-88430100D02*
X181737000Y-82575400D01*
X181838600Y-79273400D02*
X181635400Y-79070200D01*
X181635400Y-79070200D02*
X181635400Y-75209400D01*
X181635400Y-75209400D02*
X182092600Y-74752200D01*
X182092600Y-74752200D02*
X184175400Y-74752200D01*
X184175400Y-74752200D02*
X185445400Y-73482200D01*
X190271400Y-88430100D02*
X187960000Y-86118700D01*
X186715400Y-74752200D02*
X187985400Y-73482200D01*
X186715400Y-78181200D02*
X186715400Y-74752200D01*
X187909200Y-79375000D02*
X186715400Y-78181200D01*
X187960000Y-86118700D02*
X187960000Y-83058000D01*
X186296301Y-79540099D02*
X187248802Y-80492600D01*
X199059800Y-80492600D02*
X199085200Y-80518000D01*
X187248802Y-80492600D02*
X199059800Y-80492600D01*
X185445400Y-77673200D02*
X185445400Y-78689198D01*
X185445400Y-78689198D02*
X186296301Y-79540099D01*
X186296301Y-79540099D02*
X186309002Y-79552800D01*
X204851000Y-86283800D02*
X199085200Y-80518000D01*
X185445400Y-77698600D02*
X185445400Y-77673200D01*
X185445400Y-77673200D02*
X185445400Y-76022200D01*
X179095400Y-75209400D02*
X179095400Y-72517000D01*
X188747400Y-71704200D02*
X190525400Y-73482200D01*
X179908200Y-71704200D02*
X188747400Y-71704200D01*
X179095400Y-72517000D02*
X179908200Y-71704200D01*
X179095400Y-75184000D02*
X179095400Y-75209400D01*
X179095400Y-75209400D02*
X179095400Y-79019400D01*
X179095400Y-79375000D02*
X179120800Y-79400400D01*
X179095400Y-79019400D02*
X179095400Y-79375000D01*
X190525400Y-73482200D02*
X190525400Y-73507600D01*
D28*
X217297000Y-77571600D02*
X218719404Y-78994004D01*
X214680800Y-120040400D02*
X215392000Y-120751600D01*
X214680800Y-114401600D02*
X213410800Y-113131600D01*
X214680800Y-114401600D02*
X214680800Y-117221000D01*
X214680800Y-117221000D02*
X214680800Y-120040400D01*
X215392000Y-120751600D02*
X216103198Y-120751600D01*
X213385400Y-76022200D02*
X214934800Y-77571600D01*
X217271600Y-77571600D02*
X214934800Y-77571600D01*
X216103198Y-120751600D02*
X225323402Y-120751600D01*
X231270614Y-80572414D02*
X232241286Y-81543086D01*
X232241286Y-81543086D02*
X232241286Y-115292466D01*
X232241286Y-115292466D02*
X226782152Y-120751600D01*
X226782152Y-120751600D02*
X225323402Y-120751600D01*
X217271600Y-77571600D02*
X217297000Y-77571600D01*
X218719404Y-78994004D02*
X221513404Y-78994004D01*
X221513404Y-78994004D02*
X223091814Y-80572414D01*
X223091814Y-80572414D02*
X231270614Y-80572414D01*
X223363988Y-80064412D02*
X231626210Y-80064412D01*
X221785578Y-78486002D02*
X223363988Y-80064412D01*
X213410800Y-117195600D02*
X213410800Y-120624600D01*
X213410800Y-115671600D02*
X213410800Y-117195600D01*
X225882200Y-121513600D02*
X226738576Y-121513600D01*
X215773000Y-121513600D02*
X225882200Y-121513600D01*
X232749288Y-115502888D02*
X226763976Y-121488200D01*
X232749288Y-81187490D02*
X232749288Y-115502888D01*
X231626210Y-80064412D02*
X232749288Y-81187490D01*
X219075002Y-78486002D02*
X221785578Y-78486002D01*
X219075002Y-78486002D02*
X216611200Y-76022200D01*
X226738576Y-121513600D02*
X226763976Y-121488200D01*
X215925400Y-76022200D02*
X216611200Y-76022200D01*
X215773000Y-121488200D02*
X215773000Y-121513600D01*
X214274400Y-121488200D02*
X215773000Y-121488200D01*
X213410800Y-120624600D02*
X214274400Y-121488200D01*
X215620600Y-121513600D02*
X215773000Y-121513600D01*
X161493200Y-113639600D02*
X161493200Y-116103400D01*
X161493200Y-116103400D02*
X159613600Y-117983000D01*
X159613600Y-117983000D02*
X156083000Y-117983000D01*
X154025600Y-115925600D02*
X156083000Y-117983000D01*
X205765400Y-76022200D02*
X207949800Y-78206600D01*
X230835200Y-81127600D02*
X231546400Y-81838800D01*
X222859600Y-81127600D02*
X230835200Y-81127600D01*
X221284800Y-79552800D02*
X222859600Y-81127600D01*
X218490800Y-79552800D02*
X221284800Y-79552800D01*
X217144600Y-78206600D02*
X218490800Y-79552800D01*
X207949800Y-78206600D02*
X217144600Y-78206600D01*
X223570800Y-79552800D02*
X231317800Y-79552800D01*
X221996000Y-77978000D02*
X223570800Y-79552800D01*
X219727780Y-77711300D02*
X219994480Y-77978000D01*
X215930480Y-73482200D02*
X217203020Y-74754740D01*
X217203020Y-74754740D02*
X219316300Y-74754740D01*
X219316300Y-74754740D02*
X219727780Y-75166220D01*
X219727780Y-75166220D02*
X219727780Y-77711300D01*
X226847400Y-122123200D02*
X226415600Y-122123200D01*
X233299000Y-115671600D02*
X226847400Y-122123200D01*
X233299000Y-80949800D02*
X233299000Y-115671600D01*
X231902000Y-79552800D02*
X233299000Y-80949800D01*
X231317800Y-79552800D02*
X231902000Y-79552800D01*
X219994480Y-77978000D02*
X221996000Y-77978000D01*
X212140800Y-121310400D02*
X212953600Y-122123200D01*
X212953600Y-122123200D02*
X214020400Y-122123200D01*
X214020400Y-122123200D02*
X226415600Y-122123200D01*
X215925400Y-73482200D02*
X215930480Y-73482200D01*
X212140800Y-118160800D02*
X212140800Y-121310400D01*
X212140800Y-114401600D02*
X210870800Y-113131600D01*
X212140800Y-114401600D02*
X212140800Y-118160800D01*
X210870800Y-120980200D02*
X210870800Y-115671600D01*
X213385400Y-122834400D02*
X226898200Y-122834400D01*
X226898200Y-122834400D02*
X227279200Y-122453400D01*
X222275400Y-74731880D02*
X222275400Y-77444600D01*
X222275400Y-77444600D02*
X223393000Y-78562200D01*
X223393000Y-78562200D02*
X231851200Y-78562200D01*
X231851200Y-78562200D02*
X233908600Y-80619600D01*
X233908600Y-80619600D02*
X233908600Y-115824000D01*
X233908600Y-115824000D02*
X227279200Y-122453400D01*
X221025720Y-73482200D02*
X222275400Y-74731880D01*
X227279200Y-122453400D02*
X226974400Y-122758200D01*
X213385400Y-122834400D02*
X212725000Y-122834400D01*
X212725000Y-122834400D02*
X210870800Y-120980200D01*
X213309200Y-122834400D02*
X213385400Y-122834400D01*
X221005400Y-73482200D02*
X221025720Y-73482200D01*
X156083000Y-76200000D02*
X156083000Y-78059676D01*
X182219600Y-93395800D02*
X182524400Y-93700600D01*
X171419124Y-93395800D02*
X182219600Y-93395800D01*
X156083000Y-78059676D02*
X171419124Y-93395800D01*
X171907200Y-94602300D02*
X153504900Y-76200000D01*
X181241700Y-94602300D02*
X171907200Y-94602300D01*
X181356000Y-94716600D02*
X181241700Y-94602300D01*
X153504900Y-76200000D02*
X153289000Y-76200000D01*
X204063600Y-103525300D02*
X204063600Y-104952800D01*
X196443600Y-110591600D02*
X194360800Y-112674400D01*
X198424800Y-110591600D02*
X196443600Y-110591600D01*
X204063600Y-104952800D02*
X198424800Y-110591600D01*
X193090800Y-111506000D02*
X194614800Y-109982000D01*
X194360800Y-115214400D02*
X193090800Y-113944400D01*
X193090800Y-111506000D02*
X193090800Y-113944400D01*
X201523600Y-105943400D02*
X201523600Y-104724200D01*
X197485000Y-109982000D02*
X201523600Y-105943400D01*
X194614800Y-109982000D02*
X197485000Y-109982000D01*
X201523600Y-103525300D02*
X201523600Y-104724200D01*
X191820800Y-110464600D02*
X192811402Y-109473998D01*
X191820800Y-112674400D02*
X191820800Y-110464600D01*
X198983600Y-106959400D02*
X198983600Y-104495600D01*
X196469002Y-109473998D02*
X198983600Y-106959400D01*
X192811402Y-109473998D02*
X196469002Y-109473998D01*
X198983600Y-103525300D02*
X198983600Y-104495600D01*
X192252600Y-112242600D02*
X191820800Y-112674400D01*
X190550800Y-113944400D02*
X190550800Y-110667800D01*
X197713600Y-101612700D02*
X196469000Y-102857300D01*
X196469000Y-102857300D02*
X196469000Y-104813100D01*
X197713600Y-98125300D02*
X197713600Y-101612700D01*
X190550800Y-110667800D02*
X196405500Y-104813100D01*
X196405500Y-104813100D02*
X196469000Y-104813100D01*
X191820800Y-115214400D02*
X190550800Y-113944400D01*
X189280800Y-112674400D02*
X189280800Y-111201200D01*
X189280800Y-111201200D02*
X195834000Y-104648000D01*
X200253600Y-96761300D02*
X200253600Y-98125300D01*
X199771000Y-96278700D02*
X200253600Y-96761300D01*
X197561200Y-96278700D02*
X199771000Y-96278700D01*
X196697600Y-97142300D02*
X197561200Y-96278700D01*
X196697600Y-101587300D02*
X196697600Y-97142300D01*
X195834000Y-102450900D02*
X196697600Y-101587300D01*
X195834000Y-104648000D02*
X195834000Y-102450900D01*
X196113400Y-96888300D02*
X197485000Y-95516700D01*
X196113400Y-101003100D02*
X196113400Y-96888300D01*
X194741800Y-102374700D02*
X196113400Y-101003100D01*
X188010800Y-113944400D02*
X188010800Y-111683800D01*
X189280800Y-115214400D02*
X188010800Y-113944400D01*
X188010800Y-111683800D02*
X194741800Y-104952800D01*
X202793600Y-96278700D02*
X202793600Y-98125300D01*
X202031600Y-95516700D02*
X202793600Y-96278700D01*
X197485000Y-95516700D02*
X202031600Y-95516700D01*
X194741800Y-104952800D02*
X194741800Y-102374700D01*
X186740800Y-115214400D02*
X188264800Y-116738400D01*
X212324950Y-109061250D02*
X219665550Y-101720650D01*
X204647800Y-116738400D02*
X212324950Y-109061250D01*
X188264800Y-116738400D02*
X204647800Y-116738400D01*
X219665550Y-101720650D02*
X219716350Y-101669850D01*
X219665550Y-101720650D02*
X219506800Y-101892100D01*
X219506800Y-101892100D02*
X219506800Y-98336100D01*
X219506800Y-98336100D02*
X220700600Y-97142300D01*
X220700600Y-97142300D02*
X222123000Y-97142300D01*
X221056200Y-100672900D02*
X221945200Y-99783900D01*
X221056200Y-101561900D02*
X221056200Y-100672900D01*
X218744800Y-103873300D02*
X221056200Y-101561900D01*
X218592400Y-103873300D02*
X218744800Y-103873300D01*
X227749100Y-106362500D02*
X229133400Y-107746800D01*
X222580200Y-114681000D02*
X221030800Y-113131600D01*
X222580200Y-115646200D02*
X222580200Y-114681000D01*
X224282000Y-117348000D02*
X222580200Y-115646200D01*
X225729800Y-117348000D02*
X224282000Y-117348000D01*
X229133400Y-113944400D02*
X225729800Y-117348000D01*
X229133400Y-107746800D02*
X229133400Y-113944400D01*
X216573100Y-93395800D02*
X223062800Y-93395800D01*
X224967800Y-103581200D02*
X227749100Y-106362500D01*
X227749100Y-106362500D02*
X227761800Y-106375200D01*
X224967800Y-95300800D02*
X224967800Y-103581200D01*
X223062800Y-93395800D02*
X224967800Y-95300800D01*
X224409000Y-104355900D02*
X226491800Y-106438700D01*
X224409000Y-97523300D02*
X224409000Y-104355900D01*
X222935800Y-96050100D02*
X224409000Y-97523300D01*
X216484200Y-96050100D02*
X222935800Y-96050100D01*
X228473000Y-108419900D02*
X226491800Y-106438700D01*
X228473000Y-113538000D02*
X228473000Y-108419900D01*
X225526600Y-116484400D02*
X228473000Y-113538000D01*
X231521000Y-113233200D02*
X231521000Y-115239800D01*
X217220800Y-114401600D02*
X218490800Y-113131600D01*
X217220800Y-116840000D02*
X217220800Y-114401600D01*
X215341200Y-118719600D02*
X217220800Y-116840000D01*
X215341200Y-119761000D02*
X215341200Y-118719600D01*
X215798400Y-120218200D02*
X215341200Y-119761000D01*
X226542600Y-120218200D02*
X215798400Y-120218200D01*
X231521000Y-115239800D02*
X226542600Y-120218200D01*
X231521000Y-103619300D02*
X231521000Y-113233200D01*
X231521000Y-113233200D02*
X231521000Y-113245900D01*
X231521000Y-83299302D02*
X231521000Y-103619300D01*
X207391000Y-87363300D02*
X213080600Y-81673700D01*
X213080600Y-81673700D02*
X229895398Y-81673700D01*
X229895398Y-81673700D02*
X231521000Y-83299302D01*
X230886000Y-113017300D02*
X230886000Y-115112800D01*
X230886000Y-113017300D02*
X230886000Y-83578700D01*
X230886000Y-83578700D02*
X229590600Y-82283300D01*
X229590600Y-82283300D02*
X213360000Y-82283300D01*
X213360000Y-82283300D02*
X208610200Y-87033100D01*
X208610200Y-87033100D02*
X208610200Y-87388700D01*
X219913200Y-119634000D02*
X219557600Y-119278400D01*
X226364800Y-119634000D02*
X219913200Y-119634000D01*
X230886000Y-115112800D02*
X226364800Y-119634000D01*
X218490800Y-115671600D02*
X218490800Y-118211600D01*
X218490800Y-118211600D02*
X219557600Y-119278400D01*
X224790000Y-119049800D02*
X220472000Y-119049800D01*
X220472000Y-119049800D02*
X219710000Y-118287800D01*
X230327200Y-112483900D02*
X230327200Y-114782600D01*
X230327200Y-83781900D02*
X230327200Y-112483900D01*
X229362000Y-82816700D02*
X230327200Y-83781900D01*
X213817200Y-82816700D02*
X229362000Y-82816700D01*
X209905600Y-86728300D02*
X213817200Y-82816700D01*
X209905600Y-87363300D02*
X209905600Y-86728300D01*
X226060000Y-119049800D02*
X224790000Y-119049800D01*
X224790000Y-119049800D02*
X224764600Y-119049800D01*
X230327200Y-114782600D02*
X226060000Y-119049800D01*
X211201000Y-87337900D02*
X211226400Y-87312500D01*
X211226400Y-87312500D02*
X211226400Y-86372700D01*
X211226400Y-86372700D02*
X214071200Y-83527900D01*
X214071200Y-83527900D02*
X228930200Y-83527900D01*
X228930200Y-83527900D02*
X229819198Y-84416898D01*
X229819198Y-84416898D02*
X229819198Y-111772702D01*
X229819198Y-114223802D02*
X229819198Y-111772702D01*
X225780600Y-118262400D02*
X229819198Y-114223802D01*
X190271400Y-92506800D02*
X190271400Y-90970100D01*
X189230000Y-93548200D02*
X190271400Y-92506800D01*
X186690000Y-93548200D02*
X189230000Y-93548200D01*
X186664600Y-93573600D02*
X186690000Y-93548200D01*
X198983600Y-98125300D02*
X198983600Y-98907600D01*
X214249000Y-100203000D02*
X214718900Y-99733100D01*
X200279000Y-100203000D02*
X214249000Y-100203000D01*
X198983600Y-98907600D02*
X200279000Y-100203000D01*
D29*
X206654400Y-95034100D02*
X206679800Y-95008700D01*
D28*
X201523600Y-96456500D02*
X201599800Y-96380300D01*
X206222600Y-95465900D02*
X206654400Y-95034100D01*
X201523600Y-96456500D02*
X201523600Y-98125300D01*
D29*
X207492600Y-86207600D02*
X207492600Y-83604100D01*
X206679800Y-87020400D02*
X207492600Y-86207600D01*
X206679800Y-95008700D02*
X206679800Y-87020400D01*
D28*
X209283300Y-100736400D02*
X211378800Y-100736400D01*
X200253600Y-101803200D02*
X201320400Y-100736400D01*
X201320400Y-100736400D02*
X209283300Y-100736400D01*
X200253600Y-102158800D02*
X200253600Y-103525300D01*
X200253600Y-102158800D02*
X200253600Y-101803200D01*
X211378800Y-100736400D02*
X211582000Y-100939600D01*
X202793600Y-103525300D02*
X202793600Y-105219500D01*
X202793600Y-105219500D02*
X202780900Y-105232200D01*
X205333600Y-103525300D02*
X208983600Y-103525300D01*
X208983600Y-103525300D02*
X209727800Y-102781100D01*
X215036400Y-87490300D02*
X215036400Y-94983300D01*
X213334600Y-96685100D02*
X211709000Y-96685100D01*
X215036400Y-94983300D02*
X213334600Y-96685100D01*
X215557100Y-93167200D02*
X215557100Y-97028000D01*
X216458800Y-92265500D02*
X215557100Y-93167200D01*
X215557100Y-97028000D02*
X215125300Y-97459800D01*
X204063600Y-96659700D02*
X204063600Y-98125300D01*
X204546200Y-96177100D02*
X204063600Y-96659700D01*
X215125300Y-97459800D02*
X206946500Y-97459800D01*
X217119200Y-87439500D02*
X218935300Y-89255600D01*
X218935300Y-89255600D02*
X218935300Y-91871800D01*
X218935300Y-91871800D02*
X218541600Y-92265500D01*
X218541600Y-92265500D02*
X216458800Y-92265500D01*
X216281000Y-87439500D02*
X217119200Y-87439500D01*
G36*
X233707000Y-72882960D02*
X232802993Y-71977373D01*
X231577683Y-71468580D01*
X230250938Y-71467422D01*
X229024742Y-71974076D01*
X228085773Y-72911407D01*
X227576980Y-74136717D01*
X227575822Y-75463462D01*
X228082476Y-76689658D01*
X229019807Y-77628627D01*
X229433001Y-77800200D01*
X223708630Y-77800200D01*
X223419725Y-77511295D01*
X223545400Y-77536293D01*
X224113685Y-77423254D01*
X224595454Y-77101347D01*
X224823102Y-76760647D01*
X224890217Y-76903558D01*
X225318476Y-77293845D01*
X225728510Y-77463676D01*
X225958400Y-77342355D01*
X225958400Y-76149200D01*
X226212400Y-76149200D01*
X226212400Y-77342355D01*
X226442290Y-77463676D01*
X226852324Y-77293845D01*
X227280583Y-76903558D01*
X227526886Y-76379092D01*
X227406219Y-76149200D01*
X226212400Y-76149200D01*
X225958400Y-76149200D01*
X225938400Y-76149200D01*
X225938400Y-75895200D01*
X225958400Y-75895200D01*
X225958400Y-75875200D01*
X226212400Y-75875200D01*
X226212400Y-75895200D01*
X227406219Y-75895200D01*
X227526886Y-75665308D01*
X227280583Y-75140842D01*
X226852324Y-74750555D01*
X226852299Y-74750545D01*
X227135454Y-74561347D01*
X227457361Y-74079578D01*
X227570400Y-73511293D01*
X227570400Y-73453107D01*
X227457361Y-72884822D01*
X227135454Y-72403053D01*
X226653685Y-72081146D01*
X226085400Y-71968107D01*
X225517115Y-72081146D01*
X225035346Y-72403053D01*
X224815400Y-72732226D01*
X224595454Y-72403053D01*
X224113685Y-72081146D01*
X223545400Y-71968107D01*
X222977115Y-72081146D01*
X222495346Y-72403053D01*
X222275400Y-72732226D01*
X222055454Y-72403053D01*
X221573685Y-72081146D01*
X221005400Y-71968107D01*
X220437115Y-72081146D01*
X219955346Y-72403053D01*
X219727698Y-72743753D01*
X219660583Y-72600842D01*
X219232324Y-72210555D01*
X218822290Y-72040724D01*
X218592400Y-72162045D01*
X218592400Y-73355200D01*
X218612400Y-73355200D01*
X218612400Y-73609200D01*
X218592400Y-73609200D01*
X218592400Y-73629200D01*
X218338400Y-73629200D01*
X218338400Y-73609200D01*
X218318400Y-73609200D01*
X218318400Y-73355200D01*
X218338400Y-73355200D01*
X218338400Y-72162045D01*
X218108510Y-72040724D01*
X217698476Y-72210555D01*
X217270217Y-72600842D01*
X217203102Y-72743753D01*
X216975454Y-72403053D01*
X216493685Y-72081146D01*
X215925400Y-71968107D01*
X215357115Y-72081146D01*
X214875346Y-72403053D01*
X214647698Y-72743753D01*
X214580583Y-72600842D01*
X214152324Y-72210555D01*
X213742290Y-72040724D01*
X213512400Y-72162045D01*
X213512400Y-73355200D01*
X213532400Y-73355200D01*
X213532400Y-73609200D01*
X213512400Y-73609200D01*
X213512400Y-73629200D01*
X213258400Y-73629200D01*
X213258400Y-73609200D01*
X213238400Y-73609200D01*
X213238400Y-73355200D01*
X213258400Y-73355200D01*
X213258400Y-72162045D01*
X213028510Y-72040724D01*
X212618476Y-72210555D01*
X212190217Y-72600842D01*
X212123102Y-72743753D01*
X211895454Y-72403053D01*
X211413685Y-72081146D01*
X210845400Y-71968107D01*
X210277115Y-72081146D01*
X209795346Y-72403053D01*
X209575400Y-72732226D01*
X209355454Y-72403053D01*
X208873685Y-72081146D01*
X208305400Y-71968107D01*
X207737115Y-72081146D01*
X207255346Y-72403053D01*
X207035400Y-72732226D01*
X206815454Y-72403053D01*
X206333685Y-72081146D01*
X205765400Y-71968107D01*
X205197115Y-72081146D01*
X204715346Y-72403053D01*
X204495400Y-72732226D01*
X204275454Y-72403053D01*
X203793685Y-72081146D01*
X203225400Y-71968107D01*
X202657115Y-72081146D01*
X202175346Y-72403053D01*
X201947698Y-72743753D01*
X201880583Y-72600842D01*
X201452324Y-72210555D01*
X201042290Y-72040724D01*
X200812400Y-72162045D01*
X200812400Y-73355200D01*
X200832400Y-73355200D01*
X200832400Y-73609200D01*
X200812400Y-73609200D01*
X200812400Y-73629200D01*
X200558400Y-73629200D01*
X200558400Y-73609200D01*
X200538400Y-73609200D01*
X200538400Y-73355200D01*
X200558400Y-73355200D01*
X200558400Y-72162045D01*
X200328510Y-72040724D01*
X199918476Y-72210555D01*
X199490217Y-72600842D01*
X199423102Y-72743753D01*
X199195454Y-72403053D01*
X198713685Y-72081146D01*
X198145400Y-71968107D01*
X197577115Y-72081146D01*
X197095346Y-72403053D01*
X196875400Y-72732226D01*
X196655454Y-72403053D01*
X196173685Y-72081146D01*
X195605400Y-71968107D01*
X195037115Y-72081146D01*
X194555346Y-72403053D01*
X194327698Y-72743753D01*
X194260583Y-72600842D01*
X193832324Y-72210555D01*
X193422290Y-72040724D01*
X193192400Y-72162045D01*
X193192400Y-73355200D01*
X193212400Y-73355200D01*
X193212400Y-73609200D01*
X193192400Y-73609200D01*
X193192400Y-73629200D01*
X192938400Y-73629200D01*
X192938400Y-73609200D01*
X192918400Y-73609200D01*
X192918400Y-73355200D01*
X192938400Y-73355200D01*
X192938400Y-72162045D01*
X192708510Y-72040724D01*
X192298476Y-72210555D01*
X191870217Y-72600842D01*
X191803102Y-72743753D01*
X191575454Y-72403053D01*
X191093685Y-72081146D01*
X190525400Y-71968107D01*
X190191313Y-72034561D01*
X189304176Y-71147424D01*
X189048725Y-70976737D01*
X188747400Y-70916800D01*
X179908200Y-70916800D01*
X179606875Y-70976737D01*
X179351424Y-71147424D01*
X178538624Y-71960224D01*
X178438029Y-72110775D01*
X178393685Y-72081146D01*
X177825400Y-71968107D01*
X177257115Y-72081146D01*
X176775346Y-72403053D01*
X176453439Y-72884822D01*
X176340400Y-73453107D01*
X176340400Y-73511293D01*
X176453439Y-74079578D01*
X176775346Y-74561347D01*
X176776579Y-74562171D01*
X176740083Y-74569038D01*
X176523959Y-74708110D01*
X176378969Y-74920310D01*
X176327960Y-75172200D01*
X176327960Y-76872200D01*
X176372238Y-77107517D01*
X176511310Y-77323641D01*
X176723510Y-77468631D01*
X176975400Y-77519640D01*
X178308000Y-77519640D01*
X178308000Y-78502076D01*
X178095610Y-78714095D01*
X177911011Y-79158660D01*
X177910591Y-79640028D01*
X178094414Y-80084914D01*
X178434495Y-80425590D01*
X178879060Y-80610189D01*
X179360428Y-80610609D01*
X179805314Y-80426786D01*
X180067403Y-80165155D01*
X181334667Y-81432419D01*
X181052486Y-81549014D01*
X180711810Y-81889095D01*
X180527211Y-82333660D01*
X180526791Y-82815028D01*
X180710614Y-83259914D01*
X181050695Y-83600590D01*
X181495260Y-83785189D01*
X181833532Y-83785484D01*
X185064398Y-87016350D01*
X185064398Y-87109944D01*
X184834510Y-86988624D01*
X184424476Y-87158455D01*
X183996217Y-87548742D01*
X183749914Y-88073208D01*
X183870581Y-88303100D01*
X185064400Y-88303100D01*
X185064400Y-88283100D01*
X185318400Y-88283100D01*
X185318400Y-88303100D01*
X185338400Y-88303100D01*
X185338400Y-88557100D01*
X185318400Y-88557100D01*
X185318400Y-90843100D01*
X185338400Y-90843100D01*
X185338400Y-91097100D01*
X185318400Y-91097100D01*
X185318400Y-92296350D01*
X185477150Y-92455100D01*
X186167710Y-92455100D01*
X186401099Y-92358427D01*
X186579727Y-92179798D01*
X186651997Y-92005323D01*
X186681346Y-92049247D01*
X187163115Y-92371154D01*
X187731400Y-92484193D01*
X188299685Y-92371154D01*
X188781454Y-92049247D01*
X189001400Y-91720074D01*
X189221346Y-92049247D01*
X189479099Y-92221471D01*
X188914370Y-92786200D01*
X187588280Y-92786200D01*
X187350905Y-92548410D01*
X186906340Y-92363811D01*
X186424972Y-92363391D01*
X185980086Y-92547214D01*
X185639410Y-92887295D01*
X185454811Y-93331860D01*
X185454391Y-93813228D01*
X185638214Y-94258114D01*
X185978295Y-94598790D01*
X186422860Y-94783389D01*
X186904228Y-94783809D01*
X187218390Y-94654000D01*
X189561360Y-94654000D01*
X189561360Y-96354000D01*
X189605638Y-96589317D01*
X189744710Y-96805441D01*
X189956910Y-96950431D01*
X190208800Y-97001440D01*
X191908800Y-97001440D01*
X192144117Y-96957162D01*
X192360241Y-96818090D01*
X192505231Y-96605890D01*
X192518886Y-96538459D01*
X192548746Y-96583147D01*
X193030515Y-96905054D01*
X193598800Y-97018093D01*
X194167085Y-96905054D01*
X194648854Y-96583147D01*
X194970761Y-96101378D01*
X195083800Y-95533093D01*
X195083800Y-95474907D01*
X194970761Y-94906622D01*
X194648854Y-94424853D01*
X194167085Y-94102946D01*
X193598800Y-93989907D01*
X193030515Y-94102946D01*
X192548746Y-94424853D01*
X192520950Y-94466452D01*
X192511962Y-94418683D01*
X192372890Y-94202559D01*
X192160690Y-94057569D01*
X191908800Y-94006560D01*
X190208800Y-94006560D01*
X189973483Y-94050838D01*
X189757359Y-94189910D01*
X189612369Y-94402110D01*
X189561360Y-94654000D01*
X187218390Y-94654000D01*
X187349114Y-94599986D01*
X187639407Y-94310200D01*
X189230000Y-94310200D01*
X189521605Y-94252196D01*
X189768815Y-94087015D01*
X190810215Y-93045615D01*
X190861441Y-92968950D01*
X190975396Y-92798405D01*
X191033400Y-92506800D01*
X191033400Y-92241718D01*
X191321454Y-92049247D01*
X191643361Y-91567478D01*
X191756400Y-90999193D01*
X191756400Y-90941007D01*
X191643361Y-90372722D01*
X191321454Y-89890953D01*
X191035822Y-89700100D01*
X191321454Y-89509247D01*
X191643361Y-89027478D01*
X191756400Y-88459193D01*
X191756400Y-88401007D01*
X191643361Y-87832722D01*
X191321454Y-87350953D01*
X190839685Y-87029046D01*
X190271400Y-86916007D01*
X189937313Y-86982461D01*
X188747400Y-85792548D01*
X188747400Y-83981680D01*
X188985190Y-83744305D01*
X189169789Y-83299740D01*
X189170209Y-82818372D01*
X189069815Y-82575400D01*
X193828075Y-82575400D01*
X193681324Y-82929710D01*
X193802645Y-83159600D01*
X194995800Y-83159600D01*
X194995800Y-83139600D01*
X195249800Y-83139600D01*
X195249800Y-83159600D01*
X196442955Y-83159600D01*
X196564276Y-82929710D01*
X196486020Y-82740772D01*
X196605284Y-82860036D01*
X196604991Y-83196028D01*
X196788814Y-83640914D01*
X197128895Y-83981590D01*
X197573460Y-84166189D01*
X198054828Y-84166609D01*
X198317965Y-84057883D01*
X196622352Y-85753496D01*
X196523854Y-85258315D01*
X196201947Y-84776546D01*
X195861247Y-84548898D01*
X196004158Y-84481783D01*
X196394445Y-84053524D01*
X196564276Y-83643490D01*
X196442955Y-83413600D01*
X195249800Y-83413600D01*
X195249800Y-83433600D01*
X194995800Y-83433600D01*
X194995800Y-83413600D01*
X193802645Y-83413600D01*
X193681324Y-83643490D01*
X193851155Y-84053524D01*
X194241442Y-84481783D01*
X194384353Y-84548898D01*
X194043653Y-84776546D01*
X193721746Y-85258315D01*
X193608707Y-85826600D01*
X193721746Y-86394885D01*
X194043653Y-86876654D01*
X194372826Y-87096600D01*
X194043653Y-87316546D01*
X193721746Y-87798315D01*
X193608707Y-88366600D01*
X193721746Y-88934885D01*
X194043653Y-89416654D01*
X194085252Y-89444450D01*
X194037483Y-89453438D01*
X193821359Y-89592510D01*
X193676369Y-89804710D01*
X193625360Y-90056600D01*
X193625360Y-91756600D01*
X193669638Y-91991917D01*
X193808710Y-92208041D01*
X194020910Y-92353031D01*
X194272800Y-92404040D01*
X195972800Y-92404040D01*
X196208117Y-92359762D01*
X196424241Y-92220690D01*
X196569231Y-92008490D01*
X196620240Y-91756600D01*
X196620240Y-90056600D01*
X196575962Y-89821283D01*
X196436890Y-89605159D01*
X196224690Y-89460169D01*
X196157259Y-89446514D01*
X196201947Y-89416654D01*
X196523854Y-88934885D01*
X196636893Y-88366600D01*
X196570439Y-88032513D01*
X199870576Y-84732376D01*
X200041263Y-84476925D01*
X200101200Y-84175600D01*
X200101200Y-82647552D01*
X203641084Y-86187436D01*
X203640791Y-86523428D01*
X203824614Y-86968314D01*
X204164695Y-87308990D01*
X204609260Y-87493589D01*
X205090628Y-87494009D01*
X205535514Y-87310186D01*
X205876190Y-86970105D01*
X205926508Y-86848924D01*
X205892400Y-87020400D01*
X205892400Y-92518160D01*
X205877676Y-92496124D01*
X204528856Y-91147304D01*
X204528862Y-91140533D01*
X204386817Y-90796757D01*
X204124027Y-90533508D01*
X203780499Y-90390862D01*
X203408533Y-90390538D01*
X203064757Y-90532583D01*
X202801508Y-90795373D01*
X202658862Y-91138901D01*
X202658538Y-91510867D01*
X202800583Y-91854643D01*
X203063373Y-92117892D01*
X203406901Y-92260538D01*
X203414993Y-92260545D01*
X204533500Y-93379052D01*
X204533500Y-95242088D01*
X204361033Y-95241938D01*
X204017257Y-95383983D01*
X203754008Y-95646773D01*
X203611362Y-95990301D01*
X203611324Y-96034346D01*
X203524785Y-96120885D01*
X203524341Y-96121550D01*
X203497596Y-95987095D01*
X203431434Y-95888077D01*
X203332416Y-95739885D01*
X202570415Y-94977885D01*
X202507091Y-94935573D01*
X202323205Y-94812704D01*
X202031600Y-94754700D01*
X197485000Y-94754700D01*
X197193395Y-94812704D01*
X196946184Y-94977885D01*
X195574585Y-96349485D01*
X195409404Y-96596695D01*
X195351400Y-96888300D01*
X195351400Y-100687469D01*
X194202985Y-101835885D01*
X194037804Y-102083095D01*
X193979800Y-102374700D01*
X193979800Y-104637169D01*
X187471985Y-111144985D01*
X187369943Y-111297702D01*
X187314289Y-111260515D01*
X186740800Y-111146441D01*
X186167311Y-111260515D01*
X185681130Y-111585371D01*
X185470800Y-111900152D01*
X185260470Y-111585371D01*
X184774289Y-111260515D01*
X184200800Y-111146441D01*
X183627311Y-111260515D01*
X183141130Y-111585371D01*
X182816274Y-112071552D01*
X182702200Y-112645041D01*
X182702200Y-112703759D01*
X182816274Y-113277248D01*
X183141130Y-113763429D01*
X183411972Y-113944400D01*
X183141130Y-114125371D01*
X182816274Y-114611552D01*
X182702200Y-115185041D01*
X182702200Y-115243759D01*
X182816274Y-115817248D01*
X183141130Y-116303429D01*
X183627311Y-116628285D01*
X184200800Y-116742359D01*
X184774289Y-116628285D01*
X185260470Y-116303429D01*
X185470800Y-115988648D01*
X185681130Y-116303429D01*
X186167311Y-116628285D01*
X186740800Y-116742359D01*
X187116414Y-116667645D01*
X187725984Y-117277215D01*
X187973195Y-117442396D01*
X188264800Y-117500400D01*
X204647800Y-117500400D01*
X204939405Y-117442396D01*
X205186615Y-117277215D01*
X209374835Y-113088996D01*
X209372200Y-113102241D01*
X209372200Y-113160959D01*
X209486274Y-113734448D01*
X209811130Y-114220629D01*
X210081972Y-114401600D01*
X209811130Y-114582571D01*
X209486274Y-115068752D01*
X209372200Y-115642241D01*
X209372200Y-115700959D01*
X209486274Y-116274448D01*
X209811130Y-116760629D01*
X210108800Y-116959526D01*
X210108800Y-120980200D01*
X210166804Y-121271805D01*
X210204751Y-121328596D01*
X210331985Y-121519015D01*
X212186185Y-123373216D01*
X212319354Y-123462196D01*
X212433395Y-123538396D01*
X212725000Y-123596400D01*
X226898200Y-123596400D01*
X227189805Y-123538396D01*
X227437015Y-123373215D01*
X227576893Y-123233338D01*
X227575822Y-124460062D01*
X228082476Y-125686258D01*
X229019807Y-126625227D01*
X229375684Y-126773000D01*
X174460199Y-126773000D01*
X174809858Y-126628524D01*
X175748827Y-125691193D01*
X176257620Y-124465883D01*
X176258778Y-123139138D01*
X175752124Y-121912942D01*
X174814793Y-120973973D01*
X173589483Y-120465180D01*
X172262738Y-120464022D01*
X171036542Y-120970676D01*
X170097573Y-121908007D01*
X169588780Y-123133317D01*
X169587622Y-124460062D01*
X170094276Y-125686258D01*
X171031607Y-126625227D01*
X171387484Y-126773000D01*
X136277607Y-126773000D01*
X136182222Y-126709265D01*
X136316158Y-126653924D01*
X137255127Y-125716593D01*
X137763920Y-124491283D01*
X137765078Y-123164538D01*
X137258424Y-121938342D01*
X136321093Y-120999373D01*
X135095783Y-120490580D01*
X133769038Y-120489422D01*
X132542842Y-120996076D01*
X131603873Y-121933407D01*
X131545000Y-122075189D01*
X131545000Y-116468961D01*
X131686058Y-116468961D01*
X131898290Y-116982603D01*
X132290930Y-117375929D01*
X132804200Y-117589057D01*
X133359961Y-117589542D01*
X133873603Y-117377310D01*
X134266929Y-116984670D01*
X134480057Y-116471400D01*
X134480542Y-115915639D01*
X134268310Y-115401997D01*
X133875670Y-115008671D01*
X133362400Y-114795543D01*
X132806639Y-114795058D01*
X132292997Y-115007290D01*
X131899671Y-115399930D01*
X131686543Y-115913200D01*
X131686058Y-116468961D01*
X131545000Y-116468961D01*
X131545000Y-113356241D01*
X149987000Y-113356241D01*
X149987000Y-113414959D01*
X150101074Y-113988448D01*
X150425930Y-114474629D01*
X150696772Y-114655600D01*
X150425930Y-114836571D01*
X150101074Y-115322752D01*
X149987000Y-115896241D01*
X149987000Y-115954959D01*
X150101074Y-116528448D01*
X150425930Y-117014629D01*
X150912111Y-117339485D01*
X151485600Y-117453559D01*
X152059089Y-117339485D01*
X152545270Y-117014629D01*
X152755600Y-116699848D01*
X152965930Y-117014629D01*
X153452111Y-117339485D01*
X154025600Y-117453559D01*
X154401215Y-117378845D01*
X155544185Y-118521815D01*
X155791395Y-118686996D01*
X156083000Y-118745000D01*
X159613600Y-118745000D01*
X159905205Y-118686996D01*
X160152415Y-118521815D01*
X162032016Y-116642215D01*
X162147780Y-116468961D01*
X162197196Y-116395005D01*
X162255200Y-116103400D01*
X162255200Y-114588635D01*
X162518390Y-114325905D01*
X162702989Y-113881340D01*
X162703409Y-113399972D01*
X162519586Y-112955086D01*
X162179505Y-112614410D01*
X161734940Y-112429811D01*
X161253572Y-112429391D01*
X160808686Y-112613214D01*
X160616640Y-112804925D01*
X160616640Y-112522000D01*
X160572362Y-112286683D01*
X160433290Y-112070559D01*
X160221090Y-111925569D01*
X159969200Y-111874560D01*
X158242000Y-111874560D01*
X158006683Y-111918838D01*
X157790559Y-112057910D01*
X157645569Y-112270110D01*
X157636736Y-112313731D01*
X157625270Y-112296571D01*
X157139089Y-111971715D01*
X156565600Y-111857641D01*
X155992111Y-111971715D01*
X155505930Y-112296571D01*
X155295600Y-112611352D01*
X155085270Y-112296571D01*
X154599089Y-111971715D01*
X154025600Y-111857641D01*
X153452111Y-111971715D01*
X152965930Y-112296571D01*
X152755600Y-112611352D01*
X152545270Y-112296571D01*
X152059089Y-111971715D01*
X151485600Y-111857641D01*
X150912111Y-111971715D01*
X150425930Y-112296571D01*
X150101074Y-112782752D01*
X149987000Y-113356241D01*
X131545000Y-113356241D01*
X131545000Y-102364600D01*
X137754160Y-102364600D01*
X137754160Y-105864600D01*
X137798438Y-106099917D01*
X137937510Y-106316041D01*
X138149710Y-106461031D01*
X138401600Y-106512040D01*
X141087645Y-106512040D01*
X140950159Y-106600510D01*
X140805169Y-106812710D01*
X140754160Y-107064600D01*
X140754160Y-110564600D01*
X140798438Y-110799917D01*
X140937510Y-111016041D01*
X141149710Y-111161031D01*
X141401600Y-111212040D01*
X144901600Y-111212040D01*
X145136917Y-111167762D01*
X145353041Y-111028690D01*
X145498031Y-110816490D01*
X145549040Y-110564600D01*
X145549040Y-107064600D01*
X145504762Y-106829283D01*
X145365690Y-106613159D01*
X145217697Y-106512040D01*
X147901600Y-106512040D01*
X148136917Y-106467762D01*
X148353041Y-106328690D01*
X148498031Y-106116490D01*
X148549040Y-105864600D01*
X148549040Y-104615815D01*
X151834630Y-104615815D01*
X152158980Y-105400800D01*
X152759041Y-106001909D01*
X153543459Y-106327628D01*
X154392815Y-106328370D01*
X155177800Y-106004020D01*
X155778909Y-105403959D01*
X156085413Y-104665815D01*
X163884630Y-104665815D01*
X164208980Y-105450800D01*
X164809041Y-106051909D01*
X165593459Y-106377628D01*
X166442815Y-106378370D01*
X167227800Y-106054020D01*
X167828909Y-105453959D01*
X168154628Y-104669541D01*
X168155370Y-103820185D01*
X167831020Y-103035200D01*
X167230959Y-102434091D01*
X166446541Y-102108372D01*
X165597185Y-102107630D01*
X164812200Y-102431980D01*
X164211091Y-103032041D01*
X163885372Y-103816459D01*
X163884630Y-104665815D01*
X156085413Y-104665815D01*
X156104628Y-104619541D01*
X156105370Y-103770185D01*
X155781020Y-102985200D01*
X155180959Y-102384091D01*
X154396541Y-102058372D01*
X153547185Y-102057630D01*
X152762200Y-102381980D01*
X152161091Y-102982041D01*
X151835372Y-103766459D01*
X151834630Y-104615815D01*
X148549040Y-104615815D01*
X148549040Y-102364600D01*
X148504762Y-102129283D01*
X148365690Y-101913159D01*
X148153490Y-101768169D01*
X147901600Y-101717160D01*
X144401600Y-101717160D01*
X144166283Y-101761438D01*
X143950159Y-101900510D01*
X143805169Y-102112710D01*
X143754160Y-102364600D01*
X143754160Y-105864600D01*
X143798438Y-106099917D01*
X143937510Y-106316041D01*
X144085503Y-106417160D01*
X142215555Y-106417160D01*
X142353041Y-106328690D01*
X142498031Y-106116490D01*
X142549040Y-105864600D01*
X142549040Y-102364600D01*
X142504762Y-102129283D01*
X142365690Y-101913159D01*
X142153490Y-101768169D01*
X141901600Y-101717160D01*
X138401600Y-101717160D01*
X138166283Y-101761438D01*
X137950159Y-101900510D01*
X137805169Y-102112710D01*
X137754160Y-102364600D01*
X131545000Y-102364600D01*
X131545000Y-100441000D01*
X174612660Y-100441000D01*
X174612660Y-101441000D01*
X174656938Y-101676317D01*
X174796010Y-101892441D01*
X175008210Y-102037431D01*
X175260100Y-102088440D01*
X176860100Y-102088440D01*
X177095417Y-102044162D01*
X177311541Y-101905090D01*
X177449623Y-101703000D01*
X179163629Y-101703000D01*
X179348895Y-101888590D01*
X179793460Y-102073189D01*
X180274828Y-102073609D01*
X180719714Y-101889786D01*
X181060390Y-101549705D01*
X181244989Y-101105140D01*
X181245409Y-100623772D01*
X181061586Y-100178886D01*
X180721505Y-99838210D01*
X180276940Y-99653611D01*
X179795572Y-99653191D01*
X179350686Y-99837014D01*
X179010010Y-100177095D01*
X179009219Y-100179000D01*
X177446092Y-100179000D01*
X177324190Y-99989559D01*
X177111990Y-99844569D01*
X176860100Y-99793560D01*
X175260100Y-99793560D01*
X175024783Y-99837838D01*
X174808659Y-99976910D01*
X174663669Y-100189110D01*
X174612660Y-100441000D01*
X131545000Y-100441000D01*
X131545000Y-90299600D01*
X137804960Y-90299600D01*
X137804960Y-93799600D01*
X137849238Y-94034917D01*
X137988310Y-94251041D01*
X138200510Y-94396031D01*
X138452400Y-94447040D01*
X141138445Y-94447040D01*
X141000959Y-94535510D01*
X140855969Y-94747710D01*
X140804960Y-94999600D01*
X140804960Y-98499600D01*
X140849238Y-98734917D01*
X140988310Y-98951041D01*
X141200510Y-99096031D01*
X141452400Y-99147040D01*
X144952400Y-99147040D01*
X145187717Y-99102762D01*
X145403841Y-98963690D01*
X145548831Y-98751490D01*
X145599840Y-98499600D01*
X145599840Y-98226750D01*
X174625100Y-98226750D01*
X174625100Y-98567309D01*
X174721773Y-98800698D01*
X174900401Y-98979327D01*
X175133790Y-99076000D01*
X175774350Y-99076000D01*
X175933100Y-98917250D01*
X175933100Y-98068000D01*
X176187100Y-98068000D01*
X176187100Y-98917250D01*
X176345850Y-99076000D01*
X176986410Y-99076000D01*
X177219799Y-98979327D01*
X177398427Y-98800698D01*
X177495100Y-98567309D01*
X177495100Y-98399700D01*
X183813960Y-98399700D01*
X183813960Y-99999700D01*
X183858238Y-100235017D01*
X183997310Y-100451141D01*
X184070505Y-100501153D01*
X184070091Y-100976028D01*
X184253914Y-101420914D01*
X184593995Y-101761590D01*
X185038560Y-101946189D01*
X185519928Y-101946609D01*
X185964814Y-101762786D01*
X186305490Y-101422705D01*
X186490089Y-100978140D01*
X186490509Y-100496772D01*
X186306686Y-100051886D01*
X186108840Y-99853694D01*
X186108840Y-99485450D01*
X186826400Y-99485450D01*
X186826400Y-100126010D01*
X186923073Y-100359399D01*
X187101702Y-100538027D01*
X187335091Y-100634700D01*
X187675650Y-100634700D01*
X187834400Y-100475950D01*
X187834400Y-99326700D01*
X188088400Y-99326700D01*
X188088400Y-100475950D01*
X188247150Y-100634700D01*
X188587709Y-100634700D01*
X188821098Y-100538027D01*
X188999727Y-100359399D01*
X189096400Y-100126010D01*
X189096400Y-99485450D01*
X188937650Y-99326700D01*
X188088400Y-99326700D01*
X187834400Y-99326700D01*
X186985150Y-99326700D01*
X186826400Y-99485450D01*
X186108840Y-99485450D01*
X186108840Y-98399700D01*
X186085074Y-98273390D01*
X186826400Y-98273390D01*
X186826400Y-98913950D01*
X186985150Y-99072700D01*
X187834400Y-99072700D01*
X187834400Y-97923450D01*
X188088400Y-97923450D01*
X188088400Y-99072700D01*
X188937650Y-99072700D01*
X189096400Y-98913950D01*
X189096400Y-98273390D01*
X188999727Y-98040001D01*
X188821098Y-97861373D01*
X188587709Y-97764700D01*
X188247150Y-97764700D01*
X188088400Y-97923450D01*
X187834400Y-97923450D01*
X187675650Y-97764700D01*
X187335091Y-97764700D01*
X187101702Y-97861373D01*
X186923073Y-98040001D01*
X186826400Y-98273390D01*
X186085074Y-98273390D01*
X186064562Y-98164383D01*
X185925490Y-97948259D01*
X185713290Y-97803269D01*
X185461400Y-97752260D01*
X184461400Y-97752260D01*
X184226083Y-97796538D01*
X184009959Y-97935610D01*
X183864969Y-98147810D01*
X183813960Y-98399700D01*
X177495100Y-98399700D01*
X177495100Y-98226750D01*
X177336350Y-98068000D01*
X176187100Y-98068000D01*
X175933100Y-98068000D01*
X174783850Y-98068000D01*
X174625100Y-98226750D01*
X145599840Y-98226750D01*
X145599840Y-97314691D01*
X174625100Y-97314691D01*
X174625100Y-97655250D01*
X174783850Y-97814000D01*
X175933100Y-97814000D01*
X175933100Y-96964750D01*
X176187100Y-96964750D01*
X176187100Y-97814000D01*
X177336350Y-97814000D01*
X177495100Y-97655250D01*
X177495100Y-97314691D01*
X177398427Y-97081302D01*
X177219799Y-96902673D01*
X176986410Y-96806000D01*
X176345850Y-96806000D01*
X176187100Y-96964750D01*
X175933100Y-96964750D01*
X175774350Y-96806000D01*
X175133790Y-96806000D01*
X174900401Y-96902673D01*
X174721773Y-97081302D01*
X174625100Y-97314691D01*
X145599840Y-97314691D01*
X145599840Y-94999600D01*
X145555562Y-94764283D01*
X145416490Y-94548159D01*
X145268497Y-94447040D01*
X147952400Y-94447040D01*
X148187717Y-94402762D01*
X148403841Y-94263690D01*
X148548831Y-94051490D01*
X148599840Y-93799600D01*
X148599840Y-92366305D01*
X152084674Y-92366305D01*
X152371043Y-93059372D01*
X152900839Y-93590093D01*
X153593405Y-93877672D01*
X154343305Y-93878326D01*
X155036372Y-93591957D01*
X155567093Y-93062161D01*
X155854672Y-92369595D01*
X155855326Y-91619695D01*
X155568957Y-90926628D01*
X155108948Y-90465815D01*
X157884630Y-90465815D01*
X158208980Y-91250800D01*
X158809041Y-91851909D01*
X159593459Y-92177628D01*
X160442815Y-92178370D01*
X161227800Y-91854020D01*
X161828909Y-91253959D01*
X162154628Y-90469541D01*
X162155370Y-89620185D01*
X161831020Y-88835200D01*
X161230959Y-88234091D01*
X160446541Y-87908372D01*
X159597185Y-87907630D01*
X158812200Y-88231980D01*
X158211091Y-88832041D01*
X157885372Y-89616459D01*
X157884630Y-90465815D01*
X155108948Y-90465815D01*
X155039161Y-90395907D01*
X154346595Y-90108328D01*
X153596695Y-90107674D01*
X152903628Y-90394043D01*
X152372907Y-90923839D01*
X152085328Y-91616405D01*
X152084674Y-92366305D01*
X148599840Y-92366305D01*
X148599840Y-90299600D01*
X148555562Y-90064283D01*
X148416490Y-89848159D01*
X148204290Y-89703169D01*
X147952400Y-89652160D01*
X144452400Y-89652160D01*
X144217083Y-89696438D01*
X144000959Y-89835510D01*
X143855969Y-90047710D01*
X143804960Y-90299600D01*
X143804960Y-93799600D01*
X143849238Y-94034917D01*
X143988310Y-94251041D01*
X144136303Y-94352160D01*
X142266355Y-94352160D01*
X142403841Y-94263690D01*
X142548831Y-94051490D01*
X142599840Y-93799600D01*
X142599840Y-90299600D01*
X142555562Y-90064283D01*
X142416490Y-89848159D01*
X142204290Y-89703169D01*
X141952400Y-89652160D01*
X138452400Y-89652160D01*
X138217083Y-89696438D01*
X138000959Y-89835510D01*
X137855969Y-90047710D01*
X137804960Y-90299600D01*
X131545000Y-90299600D01*
X131545000Y-82382161D01*
X132524258Y-82382161D01*
X132736490Y-82895803D01*
X133129130Y-83289129D01*
X133642400Y-83502257D01*
X134198161Y-83502742D01*
X134711803Y-83290510D01*
X135105129Y-82897870D01*
X135318257Y-82384600D01*
X135318742Y-81828839D01*
X135106510Y-81315197D01*
X134713870Y-80921871D01*
X134200600Y-80708743D01*
X133644839Y-80708258D01*
X133131197Y-80920490D01*
X132737871Y-81313130D01*
X132524743Y-81826400D01*
X132524258Y-82382161D01*
X131545000Y-82382161D01*
X131545000Y-76155581D01*
X131765676Y-76689658D01*
X132703007Y-77628627D01*
X133928317Y-78137420D01*
X135255062Y-78138578D01*
X136481258Y-77631924D01*
X137420227Y-76694593D01*
X137508320Y-76482440D01*
X139089165Y-76482440D01*
X139298353Y-76843289D01*
X140235650Y-77220824D01*
X141246077Y-77210933D01*
X141626846Y-77053213D01*
X147027392Y-77053213D01*
X147096857Y-77295397D01*
X147620302Y-77482144D01*
X148175368Y-77454362D01*
X148559143Y-77295397D01*
X148628608Y-77053213D01*
X147828000Y-76252605D01*
X147027392Y-77053213D01*
X141626846Y-77053213D01*
X142133647Y-76843289D01*
X142342835Y-76482440D01*
X140716000Y-74855605D01*
X139089165Y-76482440D01*
X137508320Y-76482440D01*
X137929020Y-75469283D01*
X137930131Y-74195650D01*
X138171176Y-74195650D01*
X138181067Y-75206077D01*
X138548711Y-76093647D01*
X138909560Y-76302835D01*
X140536395Y-74676000D01*
X140895605Y-74676000D01*
X142522440Y-76302835D01*
X142883289Y-76093647D01*
X142975264Y-75865302D01*
X146418856Y-75865302D01*
X146446638Y-76420368D01*
X146605603Y-76804143D01*
X146847787Y-76873608D01*
X147648395Y-76073000D01*
X148007605Y-76073000D01*
X148808213Y-76873608D01*
X149050397Y-76804143D01*
X149159355Y-76498738D01*
X149309990Y-76863303D01*
X149702630Y-77256629D01*
X150215900Y-77469757D01*
X150771661Y-77470242D01*
X151285303Y-77258010D01*
X151678629Y-76865370D01*
X151891757Y-76352100D01*
X151891759Y-76349664D01*
X152103990Y-76863303D01*
X152496630Y-77256629D01*
X153009900Y-77469757D01*
X153565661Y-77470242D01*
X153658961Y-77431691D01*
X166335588Y-90108318D01*
X165596695Y-90107674D01*
X164903628Y-90394043D01*
X164372907Y-90923839D01*
X164085328Y-91616405D01*
X164084674Y-92366305D01*
X164371043Y-93059372D01*
X164900839Y-93590093D01*
X165593405Y-93877672D01*
X166343305Y-93878326D01*
X167036372Y-93591957D01*
X167567093Y-93062161D01*
X167854672Y-92369595D01*
X167855319Y-91628050D01*
X171368384Y-95141115D01*
X171539448Y-95255416D01*
X171615595Y-95306296D01*
X171907200Y-95364300D01*
X180314403Y-95364300D01*
X180329614Y-95401114D01*
X180669695Y-95741790D01*
X181114260Y-95926389D01*
X181595628Y-95926809D01*
X182040514Y-95742986D01*
X182381190Y-95402905D01*
X182565789Y-94958340D01*
X182565831Y-94910636D01*
X182764028Y-94910809D01*
X183208914Y-94726986D01*
X183549590Y-94386905D01*
X183734189Y-93942340D01*
X183734609Y-93460972D01*
X183550786Y-93016086D01*
X183210705Y-92675410D01*
X182766140Y-92490811D01*
X182284772Y-92490391D01*
X181937695Y-92633800D01*
X171734755Y-92633800D01*
X170356805Y-91255850D01*
X183706400Y-91255850D01*
X183706400Y-91946409D01*
X183803073Y-92179798D01*
X183981701Y-92358427D01*
X184215090Y-92455100D01*
X184905650Y-92455100D01*
X185064400Y-92296350D01*
X185064400Y-91097100D01*
X183865150Y-91097100D01*
X183706400Y-91255850D01*
X170356805Y-91255850D01*
X169094746Y-89993791D01*
X183706400Y-89993791D01*
X183706400Y-90684350D01*
X183865150Y-90843100D01*
X185064400Y-90843100D01*
X185064400Y-88557100D01*
X183870581Y-88557100D01*
X183749914Y-88786992D01*
X183996217Y-89311458D01*
X184195608Y-89493170D01*
X183981701Y-89581773D01*
X183803073Y-89760402D01*
X183706400Y-89993791D01*
X169094746Y-89993791D01*
X156845000Y-77744046D01*
X156845000Y-77159485D01*
X157139629Y-76865370D01*
X157340560Y-76381474D01*
X157340560Y-76835000D01*
X157384838Y-77070317D01*
X157523910Y-77286441D01*
X157736110Y-77431431D01*
X157988000Y-77482440D01*
X159512000Y-77482440D01*
X159747317Y-77438162D01*
X159963441Y-77299090D01*
X160108431Y-77086890D01*
X160159440Y-76835000D01*
X160159440Y-76482440D01*
X164108165Y-76482440D01*
X164317353Y-76843289D01*
X165254650Y-77220824D01*
X166265077Y-77210933D01*
X167152647Y-76843289D01*
X167361835Y-76482440D01*
X165735000Y-74855605D01*
X164108165Y-76482440D01*
X160159440Y-76482440D01*
X160159440Y-75311000D01*
X160115162Y-75075683D01*
X159976090Y-74859559D01*
X159763890Y-74714569D01*
X159512000Y-74663560D01*
X157988000Y-74663560D01*
X157752683Y-74707838D01*
X157536559Y-74846910D01*
X157391569Y-75059110D01*
X157340560Y-75311000D01*
X157340560Y-75765646D01*
X157141010Y-75282697D01*
X156748370Y-74889371D01*
X156235100Y-74676243D01*
X155679339Y-74675758D01*
X155165697Y-74887990D01*
X154772371Y-75280630D01*
X154622394Y-75641815D01*
X154474010Y-75282697D01*
X154081370Y-74889371D01*
X153568100Y-74676243D01*
X153012339Y-74675758D01*
X152498697Y-74887990D01*
X152105371Y-75280630D01*
X151892243Y-75793900D01*
X151892241Y-75796336D01*
X151680010Y-75282697D01*
X151287370Y-74889371D01*
X150774100Y-74676243D01*
X150218339Y-74675758D01*
X149704697Y-74887990D01*
X149311371Y-75280630D01*
X149168027Y-75625841D01*
X149050397Y-75341857D01*
X148808213Y-75272392D01*
X148007605Y-76073000D01*
X147648395Y-76073000D01*
X146847787Y-75272392D01*
X146605603Y-75341857D01*
X146418856Y-75865302D01*
X142975264Y-75865302D01*
X143260824Y-75156350D01*
X143260202Y-75092787D01*
X147027392Y-75092787D01*
X147828000Y-75893395D01*
X148628608Y-75092787D01*
X148559143Y-74850603D01*
X148035698Y-74663856D01*
X147480632Y-74691638D01*
X147096857Y-74850603D01*
X147027392Y-75092787D01*
X143260202Y-75092787D01*
X143250933Y-74145923D01*
X143006439Y-73555661D01*
X147700758Y-73555661D01*
X147912990Y-74069303D01*
X148305630Y-74462629D01*
X148818900Y-74675757D01*
X149374661Y-74676242D01*
X149888303Y-74464010D01*
X150281629Y-74071370D01*
X150494757Y-73558100D01*
X150494759Y-73555664D01*
X150706990Y-74069303D01*
X151099630Y-74462629D01*
X151612900Y-74675757D01*
X152168661Y-74676242D01*
X152682303Y-74464010D01*
X153075629Y-74071370D01*
X153225606Y-73710185D01*
X153373990Y-74069303D01*
X153766630Y-74462629D01*
X154279900Y-74675757D01*
X154835661Y-74676242D01*
X155349303Y-74464010D01*
X155742629Y-74071370D01*
X155955757Y-73558100D01*
X155955759Y-73555664D01*
X156167990Y-74069303D01*
X156560630Y-74462629D01*
X157073900Y-74675757D01*
X157629661Y-74676242D01*
X158143303Y-74464010D01*
X158412131Y-74195650D01*
X163190176Y-74195650D01*
X163200067Y-75206077D01*
X163567711Y-76093647D01*
X163928560Y-76302835D01*
X165555395Y-74676000D01*
X165914605Y-74676000D01*
X167541440Y-76302835D01*
X167902289Y-76093647D01*
X168279824Y-75156350D01*
X168269933Y-74145923D01*
X167902289Y-73258353D01*
X167541440Y-73049165D01*
X165914605Y-74676000D01*
X165555395Y-74676000D01*
X163928560Y-73049165D01*
X163567711Y-73258353D01*
X163190176Y-74195650D01*
X158412131Y-74195650D01*
X158536629Y-74071370D01*
X158749757Y-73558100D01*
X158750242Y-73002339D01*
X158695379Y-72869560D01*
X164108165Y-72869560D01*
X165735000Y-74496395D01*
X167361835Y-72869560D01*
X167152647Y-72508711D01*
X166511097Y-72250300D01*
X168605200Y-72250300D01*
X168605200Y-79400400D01*
X168665137Y-79701725D01*
X168835824Y-79957176D01*
X168944081Y-80029511D01*
X168995515Y-80080946D01*
X168995191Y-80452828D01*
X169179014Y-80897714D01*
X169519095Y-81238390D01*
X169963660Y-81422989D01*
X170445028Y-81423409D01*
X170889914Y-81239586D01*
X171230590Y-80899505D01*
X171415189Y-80454940D01*
X171415609Y-79973572D01*
X171231786Y-79528686D01*
X170891705Y-79188010D01*
X170447140Y-79003411D01*
X170180000Y-79003178D01*
X170180000Y-76775532D01*
X171031607Y-77628627D01*
X172256917Y-78137420D01*
X173583662Y-78138578D01*
X174809858Y-77631924D01*
X175748827Y-76694593D01*
X176257620Y-75469283D01*
X176258778Y-74142538D01*
X175752124Y-72916342D01*
X174814793Y-71977373D01*
X173589483Y-71468580D01*
X172262738Y-71467422D01*
X171135811Y-71933059D01*
X171136209Y-71477272D01*
X170952386Y-71032386D01*
X170612305Y-70691710D01*
X170167740Y-70507111D01*
X169686372Y-70506691D01*
X169241486Y-70690514D01*
X168900810Y-71030595D01*
X168716211Y-71475160D01*
X168715864Y-71873057D01*
X168665137Y-71948975D01*
X168605200Y-72250300D01*
X166511097Y-72250300D01*
X166215350Y-72131176D01*
X165204923Y-72141067D01*
X164317353Y-72508711D01*
X164108165Y-72869560D01*
X158695379Y-72869560D01*
X158538010Y-72488697D01*
X158145370Y-72095371D01*
X157632100Y-71882243D01*
X157076339Y-71881758D01*
X156562697Y-72093990D01*
X156169371Y-72486630D01*
X155956243Y-72999900D01*
X155956241Y-73002336D01*
X155744010Y-72488697D01*
X155351370Y-72095371D01*
X154838100Y-71882243D01*
X154282339Y-71881758D01*
X153768697Y-72093990D01*
X153375371Y-72486630D01*
X153225394Y-72847815D01*
X153077010Y-72488697D01*
X152684370Y-72095371D01*
X152171100Y-71882243D01*
X151615339Y-71881758D01*
X151101697Y-72093990D01*
X150708371Y-72486630D01*
X150495243Y-72999900D01*
X150495241Y-73002336D01*
X150283010Y-72488697D01*
X149890370Y-72095371D01*
X149377100Y-71882243D01*
X148821339Y-71881758D01*
X148307697Y-72093990D01*
X147914371Y-72486630D01*
X147701243Y-72999900D01*
X147700758Y-73555661D01*
X143006439Y-73555661D01*
X142883289Y-73258353D01*
X142522440Y-73049165D01*
X140895605Y-74676000D01*
X140536395Y-74676000D01*
X138909560Y-73049165D01*
X138548711Y-73258353D01*
X138171176Y-74195650D01*
X137930131Y-74195650D01*
X137930178Y-74142538D01*
X137423524Y-72916342D01*
X137376824Y-72869560D01*
X139089165Y-72869560D01*
X140716000Y-74496395D01*
X142342835Y-72869560D01*
X142133647Y-72508711D01*
X141196350Y-72131176D01*
X140185923Y-72141067D01*
X139298353Y-72508711D01*
X139089165Y-72869560D01*
X137376824Y-72869560D01*
X136486193Y-71977373D01*
X135260883Y-71468580D01*
X133934138Y-71467422D01*
X132707942Y-71974076D01*
X131768973Y-72911407D01*
X131545000Y-73450794D01*
X131545000Y-70331000D01*
X233707000Y-70331000D01*
X233707000Y-72882960D01*
X233707000Y-72882960D01*
G37*
X233707000Y-72882960D02*
X232802993Y-71977373D01*
X231577683Y-71468580D01*
X230250938Y-71467422D01*
X229024742Y-71974076D01*
X228085773Y-72911407D01*
X227576980Y-74136717D01*
X227575822Y-75463462D01*
X228082476Y-76689658D01*
X229019807Y-77628627D01*
X229433001Y-77800200D01*
X223708630Y-77800200D01*
X223419725Y-77511295D01*
X223545400Y-77536293D01*
X224113685Y-77423254D01*
X224595454Y-77101347D01*
X224823102Y-76760647D01*
X224890217Y-76903558D01*
X225318476Y-77293845D01*
X225728510Y-77463676D01*
X225958400Y-77342355D01*
X225958400Y-76149200D01*
X226212400Y-76149200D01*
X226212400Y-77342355D01*
X226442290Y-77463676D01*
X226852324Y-77293845D01*
X227280583Y-76903558D01*
X227526886Y-76379092D01*
X227406219Y-76149200D01*
X226212400Y-76149200D01*
X225958400Y-76149200D01*
X225938400Y-76149200D01*
X225938400Y-75895200D01*
X225958400Y-75895200D01*
X225958400Y-75875200D01*
X226212400Y-75875200D01*
X226212400Y-75895200D01*
X227406219Y-75895200D01*
X227526886Y-75665308D01*
X227280583Y-75140842D01*
X226852324Y-74750555D01*
X226852299Y-74750545D01*
X227135454Y-74561347D01*
X227457361Y-74079578D01*
X227570400Y-73511293D01*
X227570400Y-73453107D01*
X227457361Y-72884822D01*
X227135454Y-72403053D01*
X226653685Y-72081146D01*
X226085400Y-71968107D01*
X225517115Y-72081146D01*
X225035346Y-72403053D01*
X224815400Y-72732226D01*
X224595454Y-72403053D01*
X224113685Y-72081146D01*
X223545400Y-71968107D01*
X222977115Y-72081146D01*
X222495346Y-72403053D01*
X222275400Y-72732226D01*
X222055454Y-72403053D01*
X221573685Y-72081146D01*
X221005400Y-71968107D01*
X220437115Y-72081146D01*
X219955346Y-72403053D01*
X219727698Y-72743753D01*
X219660583Y-72600842D01*
X219232324Y-72210555D01*
X218822290Y-72040724D01*
X218592400Y-72162045D01*
X218592400Y-73355200D01*
X218612400Y-73355200D01*
X218612400Y-73609200D01*
X218592400Y-73609200D01*
X218592400Y-73629200D01*
X218338400Y-73629200D01*
X218338400Y-73609200D01*
X218318400Y-73609200D01*
X218318400Y-73355200D01*
X218338400Y-73355200D01*
X218338400Y-72162045D01*
X218108510Y-72040724D01*
X217698476Y-72210555D01*
X217270217Y-72600842D01*
X217203102Y-72743753D01*
X216975454Y-72403053D01*
X216493685Y-72081146D01*
X215925400Y-71968107D01*
X215357115Y-72081146D01*
X214875346Y-72403053D01*
X214647698Y-72743753D01*
X214580583Y-72600842D01*
X214152324Y-72210555D01*
X213742290Y-72040724D01*
X213512400Y-72162045D01*
X213512400Y-73355200D01*
X213532400Y-73355200D01*
X213532400Y-73609200D01*
X213512400Y-73609200D01*
X213512400Y-73629200D01*
X213258400Y-73629200D01*
X213258400Y-73609200D01*
X213238400Y-73609200D01*
X213238400Y-73355200D01*
X213258400Y-73355200D01*
X213258400Y-72162045D01*
X213028510Y-72040724D01*
X212618476Y-72210555D01*
X212190217Y-72600842D01*
X212123102Y-72743753D01*
X211895454Y-72403053D01*
X211413685Y-72081146D01*
X210845400Y-71968107D01*
X210277115Y-72081146D01*
X209795346Y-72403053D01*
X209575400Y-72732226D01*
X209355454Y-72403053D01*
X208873685Y-72081146D01*
X208305400Y-71968107D01*
X207737115Y-72081146D01*
X207255346Y-72403053D01*
X207035400Y-72732226D01*
X206815454Y-72403053D01*
X206333685Y-72081146D01*
X205765400Y-71968107D01*
X205197115Y-72081146D01*
X204715346Y-72403053D01*
X204495400Y-72732226D01*
X204275454Y-72403053D01*
X203793685Y-72081146D01*
X203225400Y-71968107D01*
X202657115Y-72081146D01*
X202175346Y-72403053D01*
X201947698Y-72743753D01*
X201880583Y-72600842D01*
X201452324Y-72210555D01*
X201042290Y-72040724D01*
X200812400Y-72162045D01*
X200812400Y-73355200D01*
X200832400Y-73355200D01*
X200832400Y-73609200D01*
X200812400Y-73609200D01*
X200812400Y-73629200D01*
X200558400Y-73629200D01*
X200558400Y-73609200D01*
X200538400Y-73609200D01*
X200538400Y-73355200D01*
X200558400Y-73355200D01*
X200558400Y-72162045D01*
X200328510Y-72040724D01*
X199918476Y-72210555D01*
X199490217Y-72600842D01*
X199423102Y-72743753D01*
X199195454Y-72403053D01*
X198713685Y-72081146D01*
X198145400Y-71968107D01*
X197577115Y-72081146D01*
X197095346Y-72403053D01*
X196875400Y-72732226D01*
X196655454Y-72403053D01*
X196173685Y-72081146D01*
X195605400Y-71968107D01*
X195037115Y-72081146D01*
X194555346Y-72403053D01*
X194327698Y-72743753D01*
X194260583Y-72600842D01*
X193832324Y-72210555D01*
X193422290Y-72040724D01*
X193192400Y-72162045D01*
X193192400Y-73355200D01*
X193212400Y-73355200D01*
X193212400Y-73609200D01*
X193192400Y-73609200D01*
X193192400Y-73629200D01*
X192938400Y-73629200D01*
X192938400Y-73609200D01*
X192918400Y-73609200D01*
X192918400Y-73355200D01*
X192938400Y-73355200D01*
X192938400Y-72162045D01*
X192708510Y-72040724D01*
X192298476Y-72210555D01*
X191870217Y-72600842D01*
X191803102Y-72743753D01*
X191575454Y-72403053D01*
X191093685Y-72081146D01*
X190525400Y-71968107D01*
X190191313Y-72034561D01*
X189304176Y-71147424D01*
X189048725Y-70976737D01*
X188747400Y-70916800D01*
X179908200Y-70916800D01*
X179606875Y-70976737D01*
X179351424Y-71147424D01*
X178538624Y-71960224D01*
X178438029Y-72110775D01*
X178393685Y-72081146D01*
X177825400Y-71968107D01*
X177257115Y-72081146D01*
X176775346Y-72403053D01*
X176453439Y-72884822D01*
X176340400Y-73453107D01*
X176340400Y-73511293D01*
X176453439Y-74079578D01*
X176775346Y-74561347D01*
X176776579Y-74562171D01*
X176740083Y-74569038D01*
X176523959Y-74708110D01*
X176378969Y-74920310D01*
X176327960Y-75172200D01*
X176327960Y-76872200D01*
X176372238Y-77107517D01*
X176511310Y-77323641D01*
X176723510Y-77468631D01*
X176975400Y-77519640D01*
X178308000Y-77519640D01*
X178308000Y-78502076D01*
X178095610Y-78714095D01*
X177911011Y-79158660D01*
X177910591Y-79640028D01*
X178094414Y-80084914D01*
X178434495Y-80425590D01*
X178879060Y-80610189D01*
X179360428Y-80610609D01*
X179805314Y-80426786D01*
X180067403Y-80165155D01*
X181334667Y-81432419D01*
X181052486Y-81549014D01*
X180711810Y-81889095D01*
X180527211Y-82333660D01*
X180526791Y-82815028D01*
X180710614Y-83259914D01*
X181050695Y-83600590D01*
X181495260Y-83785189D01*
X181833532Y-83785484D01*
X185064398Y-87016350D01*
X185064398Y-87109944D01*
X184834510Y-86988624D01*
X184424476Y-87158455D01*
X183996217Y-87548742D01*
X183749914Y-88073208D01*
X183870581Y-88303100D01*
X185064400Y-88303100D01*
X185064400Y-88283100D01*
X185318400Y-88283100D01*
X185318400Y-88303100D01*
X185338400Y-88303100D01*
X185338400Y-88557100D01*
X185318400Y-88557100D01*
X185318400Y-90843100D01*
X185338400Y-90843100D01*
X185338400Y-91097100D01*
X185318400Y-91097100D01*
X185318400Y-92296350D01*
X185477150Y-92455100D01*
X186167710Y-92455100D01*
X186401099Y-92358427D01*
X186579727Y-92179798D01*
X186651997Y-92005323D01*
X186681346Y-92049247D01*
X187163115Y-92371154D01*
X187731400Y-92484193D01*
X188299685Y-92371154D01*
X188781454Y-92049247D01*
X189001400Y-91720074D01*
X189221346Y-92049247D01*
X189479099Y-92221471D01*
X188914370Y-92786200D01*
X187588280Y-92786200D01*
X187350905Y-92548410D01*
X186906340Y-92363811D01*
X186424972Y-92363391D01*
X185980086Y-92547214D01*
X185639410Y-92887295D01*
X185454811Y-93331860D01*
X185454391Y-93813228D01*
X185638214Y-94258114D01*
X185978295Y-94598790D01*
X186422860Y-94783389D01*
X186904228Y-94783809D01*
X187218390Y-94654000D01*
X189561360Y-94654000D01*
X189561360Y-96354000D01*
X189605638Y-96589317D01*
X189744710Y-96805441D01*
X189956910Y-96950431D01*
X190208800Y-97001440D01*
X191908800Y-97001440D01*
X192144117Y-96957162D01*
X192360241Y-96818090D01*
X192505231Y-96605890D01*
X192518886Y-96538459D01*
X192548746Y-96583147D01*
X193030515Y-96905054D01*
X193598800Y-97018093D01*
X194167085Y-96905054D01*
X194648854Y-96583147D01*
X194970761Y-96101378D01*
X195083800Y-95533093D01*
X195083800Y-95474907D01*
X194970761Y-94906622D01*
X194648854Y-94424853D01*
X194167085Y-94102946D01*
X193598800Y-93989907D01*
X193030515Y-94102946D01*
X192548746Y-94424853D01*
X192520950Y-94466452D01*
X192511962Y-94418683D01*
X192372890Y-94202559D01*
X192160690Y-94057569D01*
X191908800Y-94006560D01*
X190208800Y-94006560D01*
X189973483Y-94050838D01*
X189757359Y-94189910D01*
X189612369Y-94402110D01*
X189561360Y-94654000D01*
X187218390Y-94654000D01*
X187349114Y-94599986D01*
X187639407Y-94310200D01*
X189230000Y-94310200D01*
X189521605Y-94252196D01*
X189768815Y-94087015D01*
X190810215Y-93045615D01*
X190861441Y-92968950D01*
X190975396Y-92798405D01*
X191033400Y-92506800D01*
X191033400Y-92241718D01*
X191321454Y-92049247D01*
X191643361Y-91567478D01*
X191756400Y-90999193D01*
X191756400Y-90941007D01*
X191643361Y-90372722D01*
X191321454Y-89890953D01*
X191035822Y-89700100D01*
X191321454Y-89509247D01*
X191643361Y-89027478D01*
X191756400Y-88459193D01*
X191756400Y-88401007D01*
X191643361Y-87832722D01*
X191321454Y-87350953D01*
X190839685Y-87029046D01*
X190271400Y-86916007D01*
X189937313Y-86982461D01*
X188747400Y-85792548D01*
X188747400Y-83981680D01*
X188985190Y-83744305D01*
X189169789Y-83299740D01*
X189170209Y-82818372D01*
X189069815Y-82575400D01*
X193828075Y-82575400D01*
X193681324Y-82929710D01*
X193802645Y-83159600D01*
X194995800Y-83159600D01*
X194995800Y-83139600D01*
X195249800Y-83139600D01*
X195249800Y-83159600D01*
X196442955Y-83159600D01*
X196564276Y-82929710D01*
X196486020Y-82740772D01*
X196605284Y-82860036D01*
X196604991Y-83196028D01*
X196788814Y-83640914D01*
X197128895Y-83981590D01*
X197573460Y-84166189D01*
X198054828Y-84166609D01*
X198317965Y-84057883D01*
X196622352Y-85753496D01*
X196523854Y-85258315D01*
X196201947Y-84776546D01*
X195861247Y-84548898D01*
X196004158Y-84481783D01*
X196394445Y-84053524D01*
X196564276Y-83643490D01*
X196442955Y-83413600D01*
X195249800Y-83413600D01*
X195249800Y-83433600D01*
X194995800Y-83433600D01*
X194995800Y-83413600D01*
X193802645Y-83413600D01*
X193681324Y-83643490D01*
X193851155Y-84053524D01*
X194241442Y-84481783D01*
X194384353Y-84548898D01*
X194043653Y-84776546D01*
X193721746Y-85258315D01*
X193608707Y-85826600D01*
X193721746Y-86394885D01*
X194043653Y-86876654D01*
X194372826Y-87096600D01*
X194043653Y-87316546D01*
X193721746Y-87798315D01*
X193608707Y-88366600D01*
X193721746Y-88934885D01*
X194043653Y-89416654D01*
X194085252Y-89444450D01*
X194037483Y-89453438D01*
X193821359Y-89592510D01*
X193676369Y-89804710D01*
X193625360Y-90056600D01*
X193625360Y-91756600D01*
X193669638Y-91991917D01*
X193808710Y-92208041D01*
X194020910Y-92353031D01*
X194272800Y-92404040D01*
X195972800Y-92404040D01*
X196208117Y-92359762D01*
X196424241Y-92220690D01*
X196569231Y-92008490D01*
X196620240Y-91756600D01*
X196620240Y-90056600D01*
X196575962Y-89821283D01*
X196436890Y-89605159D01*
X196224690Y-89460169D01*
X196157259Y-89446514D01*
X196201947Y-89416654D01*
X196523854Y-88934885D01*
X196636893Y-88366600D01*
X196570439Y-88032513D01*
X199870576Y-84732376D01*
X200041263Y-84476925D01*
X200101200Y-84175600D01*
X200101200Y-82647552D01*
X203641084Y-86187436D01*
X203640791Y-86523428D01*
X203824614Y-86968314D01*
X204164695Y-87308990D01*
X204609260Y-87493589D01*
X205090628Y-87494009D01*
X205535514Y-87310186D01*
X205876190Y-86970105D01*
X205926508Y-86848924D01*
X205892400Y-87020400D01*
X205892400Y-92518160D01*
X205877676Y-92496124D01*
X204528856Y-91147304D01*
X204528862Y-91140533D01*
X204386817Y-90796757D01*
X204124027Y-90533508D01*
X203780499Y-90390862D01*
X203408533Y-90390538D01*
X203064757Y-90532583D01*
X202801508Y-90795373D01*
X202658862Y-91138901D01*
X202658538Y-91510867D01*
X202800583Y-91854643D01*
X203063373Y-92117892D01*
X203406901Y-92260538D01*
X203414993Y-92260545D01*
X204533500Y-93379052D01*
X204533500Y-95242088D01*
X204361033Y-95241938D01*
X204017257Y-95383983D01*
X203754008Y-95646773D01*
X203611362Y-95990301D01*
X203611324Y-96034346D01*
X203524785Y-96120885D01*
X203524341Y-96121550D01*
X203497596Y-95987095D01*
X203431434Y-95888077D01*
X203332416Y-95739885D01*
X202570415Y-94977885D01*
X202507091Y-94935573D01*
X202323205Y-94812704D01*
X202031600Y-94754700D01*
X197485000Y-94754700D01*
X197193395Y-94812704D01*
X196946184Y-94977885D01*
X195574585Y-96349485D01*
X195409404Y-96596695D01*
X195351400Y-96888300D01*
X195351400Y-100687469D01*
X194202985Y-101835885D01*
X194037804Y-102083095D01*
X193979800Y-102374700D01*
X193979800Y-104637169D01*
X187471985Y-111144985D01*
X187369943Y-111297702D01*
X187314289Y-111260515D01*
X186740800Y-111146441D01*
X186167311Y-111260515D01*
X185681130Y-111585371D01*
X185470800Y-111900152D01*
X185260470Y-111585371D01*
X184774289Y-111260515D01*
X184200800Y-111146441D01*
X183627311Y-111260515D01*
X183141130Y-111585371D01*
X182816274Y-112071552D01*
X182702200Y-112645041D01*
X182702200Y-112703759D01*
X182816274Y-113277248D01*
X183141130Y-113763429D01*
X183411972Y-113944400D01*
X183141130Y-114125371D01*
X182816274Y-114611552D01*
X182702200Y-115185041D01*
X182702200Y-115243759D01*
X182816274Y-115817248D01*
X183141130Y-116303429D01*
X183627311Y-116628285D01*
X184200800Y-116742359D01*
X184774289Y-116628285D01*
X185260470Y-116303429D01*
X185470800Y-115988648D01*
X185681130Y-116303429D01*
X186167311Y-116628285D01*
X186740800Y-116742359D01*
X187116414Y-116667645D01*
X187725984Y-117277215D01*
X187973195Y-117442396D01*
X188264800Y-117500400D01*
X204647800Y-117500400D01*
X204939405Y-117442396D01*
X205186615Y-117277215D01*
X209374835Y-113088996D01*
X209372200Y-113102241D01*
X209372200Y-113160959D01*
X209486274Y-113734448D01*
X209811130Y-114220629D01*
X210081972Y-114401600D01*
X209811130Y-114582571D01*
X209486274Y-115068752D01*
X209372200Y-115642241D01*
X209372200Y-115700959D01*
X209486274Y-116274448D01*
X209811130Y-116760629D01*
X210108800Y-116959526D01*
X210108800Y-120980200D01*
X210166804Y-121271805D01*
X210204751Y-121328596D01*
X210331985Y-121519015D01*
X212186185Y-123373216D01*
X212319354Y-123462196D01*
X212433395Y-123538396D01*
X212725000Y-123596400D01*
X226898200Y-123596400D01*
X227189805Y-123538396D01*
X227437015Y-123373215D01*
X227576893Y-123233338D01*
X227575822Y-124460062D01*
X228082476Y-125686258D01*
X229019807Y-126625227D01*
X229375684Y-126773000D01*
X174460199Y-126773000D01*
X174809858Y-126628524D01*
X175748827Y-125691193D01*
X176257620Y-124465883D01*
X176258778Y-123139138D01*
X175752124Y-121912942D01*
X174814793Y-120973973D01*
X173589483Y-120465180D01*
X172262738Y-120464022D01*
X171036542Y-120970676D01*
X170097573Y-121908007D01*
X169588780Y-123133317D01*
X169587622Y-124460062D01*
X170094276Y-125686258D01*
X171031607Y-126625227D01*
X171387484Y-126773000D01*
X136277607Y-126773000D01*
X136182222Y-126709265D01*
X136316158Y-126653924D01*
X137255127Y-125716593D01*
X137763920Y-124491283D01*
X137765078Y-123164538D01*
X137258424Y-121938342D01*
X136321093Y-120999373D01*
X135095783Y-120490580D01*
X133769038Y-120489422D01*
X132542842Y-120996076D01*
X131603873Y-121933407D01*
X131545000Y-122075189D01*
X131545000Y-116468961D01*
X131686058Y-116468961D01*
X131898290Y-116982603D01*
X132290930Y-117375929D01*
X132804200Y-117589057D01*
X133359961Y-117589542D01*
X133873603Y-117377310D01*
X134266929Y-116984670D01*
X134480057Y-116471400D01*
X134480542Y-115915639D01*
X134268310Y-115401997D01*
X133875670Y-115008671D01*
X133362400Y-114795543D01*
X132806639Y-114795058D01*
X132292997Y-115007290D01*
X131899671Y-115399930D01*
X131686543Y-115913200D01*
X131686058Y-116468961D01*
X131545000Y-116468961D01*
X131545000Y-113356241D01*
X149987000Y-113356241D01*
X149987000Y-113414959D01*
X150101074Y-113988448D01*
X150425930Y-114474629D01*
X150696772Y-114655600D01*
X150425930Y-114836571D01*
X150101074Y-115322752D01*
X149987000Y-115896241D01*
X149987000Y-115954959D01*
X150101074Y-116528448D01*
X150425930Y-117014629D01*
X150912111Y-117339485D01*
X151485600Y-117453559D01*
X152059089Y-117339485D01*
X152545270Y-117014629D01*
X152755600Y-116699848D01*
X152965930Y-117014629D01*
X153452111Y-117339485D01*
X154025600Y-117453559D01*
X154401215Y-117378845D01*
X155544185Y-118521815D01*
X155791395Y-118686996D01*
X156083000Y-118745000D01*
X159613600Y-118745000D01*
X159905205Y-118686996D01*
X160152415Y-118521815D01*
X162032016Y-116642215D01*
X162147780Y-116468961D01*
X162197196Y-116395005D01*
X162255200Y-116103400D01*
X162255200Y-114588635D01*
X162518390Y-114325905D01*
X162702989Y-113881340D01*
X162703409Y-113399972D01*
X162519586Y-112955086D01*
X162179505Y-112614410D01*
X161734940Y-112429811D01*
X161253572Y-112429391D01*
X160808686Y-112613214D01*
X160616640Y-112804925D01*
X160616640Y-112522000D01*
X160572362Y-112286683D01*
X160433290Y-112070559D01*
X160221090Y-111925569D01*
X159969200Y-111874560D01*
X158242000Y-111874560D01*
X158006683Y-111918838D01*
X157790559Y-112057910D01*
X157645569Y-112270110D01*
X157636736Y-112313731D01*
X157625270Y-112296571D01*
X157139089Y-111971715D01*
X156565600Y-111857641D01*
X155992111Y-111971715D01*
X155505930Y-112296571D01*
X155295600Y-112611352D01*
X155085270Y-112296571D01*
X154599089Y-111971715D01*
X154025600Y-111857641D01*
X153452111Y-111971715D01*
X152965930Y-112296571D01*
X152755600Y-112611352D01*
X152545270Y-112296571D01*
X152059089Y-111971715D01*
X151485600Y-111857641D01*
X150912111Y-111971715D01*
X150425930Y-112296571D01*
X150101074Y-112782752D01*
X149987000Y-113356241D01*
X131545000Y-113356241D01*
X131545000Y-102364600D01*
X137754160Y-102364600D01*
X137754160Y-105864600D01*
X137798438Y-106099917D01*
X137937510Y-106316041D01*
X138149710Y-106461031D01*
X138401600Y-106512040D01*
X141087645Y-106512040D01*
X140950159Y-106600510D01*
X140805169Y-106812710D01*
X140754160Y-107064600D01*
X140754160Y-110564600D01*
X140798438Y-110799917D01*
X140937510Y-111016041D01*
X141149710Y-111161031D01*
X141401600Y-111212040D01*
X144901600Y-111212040D01*
X145136917Y-111167762D01*
X145353041Y-111028690D01*
X145498031Y-110816490D01*
X145549040Y-110564600D01*
X145549040Y-107064600D01*
X145504762Y-106829283D01*
X145365690Y-106613159D01*
X145217697Y-106512040D01*
X147901600Y-106512040D01*
X148136917Y-106467762D01*
X148353041Y-106328690D01*
X148498031Y-106116490D01*
X148549040Y-105864600D01*
X148549040Y-104615815D01*
X151834630Y-104615815D01*
X152158980Y-105400800D01*
X152759041Y-106001909D01*
X153543459Y-106327628D01*
X154392815Y-106328370D01*
X155177800Y-106004020D01*
X155778909Y-105403959D01*
X156085413Y-104665815D01*
X163884630Y-104665815D01*
X164208980Y-105450800D01*
X164809041Y-106051909D01*
X165593459Y-106377628D01*
X166442815Y-106378370D01*
X167227800Y-106054020D01*
X167828909Y-105453959D01*
X168154628Y-104669541D01*
X168155370Y-103820185D01*
X167831020Y-103035200D01*
X167230959Y-102434091D01*
X166446541Y-102108372D01*
X165597185Y-102107630D01*
X164812200Y-102431980D01*
X164211091Y-103032041D01*
X163885372Y-103816459D01*
X163884630Y-104665815D01*
X156085413Y-104665815D01*
X156104628Y-104619541D01*
X156105370Y-103770185D01*
X155781020Y-102985200D01*
X155180959Y-102384091D01*
X154396541Y-102058372D01*
X153547185Y-102057630D01*
X152762200Y-102381980D01*
X152161091Y-102982041D01*
X151835372Y-103766459D01*
X151834630Y-104615815D01*
X148549040Y-104615815D01*
X148549040Y-102364600D01*
X148504762Y-102129283D01*
X148365690Y-101913159D01*
X148153490Y-101768169D01*
X147901600Y-101717160D01*
X144401600Y-101717160D01*
X144166283Y-101761438D01*
X143950159Y-101900510D01*
X143805169Y-102112710D01*
X143754160Y-102364600D01*
X143754160Y-105864600D01*
X143798438Y-106099917D01*
X143937510Y-106316041D01*
X144085503Y-106417160D01*
X142215555Y-106417160D01*
X142353041Y-106328690D01*
X142498031Y-106116490D01*
X142549040Y-105864600D01*
X142549040Y-102364600D01*
X142504762Y-102129283D01*
X142365690Y-101913159D01*
X142153490Y-101768169D01*
X141901600Y-101717160D01*
X138401600Y-101717160D01*
X138166283Y-101761438D01*
X137950159Y-101900510D01*
X137805169Y-102112710D01*
X137754160Y-102364600D01*
X131545000Y-102364600D01*
X131545000Y-100441000D01*
X174612660Y-100441000D01*
X174612660Y-101441000D01*
X174656938Y-101676317D01*
X174796010Y-101892441D01*
X175008210Y-102037431D01*
X175260100Y-102088440D01*
X176860100Y-102088440D01*
X177095417Y-102044162D01*
X177311541Y-101905090D01*
X177449623Y-101703000D01*
X179163629Y-101703000D01*
X179348895Y-101888590D01*
X179793460Y-102073189D01*
X180274828Y-102073609D01*
X180719714Y-101889786D01*
X181060390Y-101549705D01*
X181244989Y-101105140D01*
X181245409Y-100623772D01*
X181061586Y-100178886D01*
X180721505Y-99838210D01*
X180276940Y-99653611D01*
X179795572Y-99653191D01*
X179350686Y-99837014D01*
X179010010Y-100177095D01*
X179009219Y-100179000D01*
X177446092Y-100179000D01*
X177324190Y-99989559D01*
X177111990Y-99844569D01*
X176860100Y-99793560D01*
X175260100Y-99793560D01*
X175024783Y-99837838D01*
X174808659Y-99976910D01*
X174663669Y-100189110D01*
X174612660Y-100441000D01*
X131545000Y-100441000D01*
X131545000Y-90299600D01*
X137804960Y-90299600D01*
X137804960Y-93799600D01*
X137849238Y-94034917D01*
X137988310Y-94251041D01*
X138200510Y-94396031D01*
X138452400Y-94447040D01*
X141138445Y-94447040D01*
X141000959Y-94535510D01*
X140855969Y-94747710D01*
X140804960Y-94999600D01*
X140804960Y-98499600D01*
X140849238Y-98734917D01*
X140988310Y-98951041D01*
X141200510Y-99096031D01*
X141452400Y-99147040D01*
X144952400Y-99147040D01*
X145187717Y-99102762D01*
X145403841Y-98963690D01*
X145548831Y-98751490D01*
X145599840Y-98499600D01*
X145599840Y-98226750D01*
X174625100Y-98226750D01*
X174625100Y-98567309D01*
X174721773Y-98800698D01*
X174900401Y-98979327D01*
X175133790Y-99076000D01*
X175774350Y-99076000D01*
X175933100Y-98917250D01*
X175933100Y-98068000D01*
X176187100Y-98068000D01*
X176187100Y-98917250D01*
X176345850Y-99076000D01*
X176986410Y-99076000D01*
X177219799Y-98979327D01*
X177398427Y-98800698D01*
X177495100Y-98567309D01*
X177495100Y-98399700D01*
X183813960Y-98399700D01*
X183813960Y-99999700D01*
X183858238Y-100235017D01*
X183997310Y-100451141D01*
X184070505Y-100501153D01*
X184070091Y-100976028D01*
X184253914Y-101420914D01*
X184593995Y-101761590D01*
X185038560Y-101946189D01*
X185519928Y-101946609D01*
X185964814Y-101762786D01*
X186305490Y-101422705D01*
X186490089Y-100978140D01*
X186490509Y-100496772D01*
X186306686Y-100051886D01*
X186108840Y-99853694D01*
X186108840Y-99485450D01*
X186826400Y-99485450D01*
X186826400Y-100126010D01*
X186923073Y-100359399D01*
X187101702Y-100538027D01*
X187335091Y-100634700D01*
X187675650Y-100634700D01*
X187834400Y-100475950D01*
X187834400Y-99326700D01*
X188088400Y-99326700D01*
X188088400Y-100475950D01*
X188247150Y-100634700D01*
X188587709Y-100634700D01*
X188821098Y-100538027D01*
X188999727Y-100359399D01*
X189096400Y-100126010D01*
X189096400Y-99485450D01*
X188937650Y-99326700D01*
X188088400Y-99326700D01*
X187834400Y-99326700D01*
X186985150Y-99326700D01*
X186826400Y-99485450D01*
X186108840Y-99485450D01*
X186108840Y-98399700D01*
X186085074Y-98273390D01*
X186826400Y-98273390D01*
X186826400Y-98913950D01*
X186985150Y-99072700D01*
X187834400Y-99072700D01*
X187834400Y-97923450D01*
X188088400Y-97923450D01*
X188088400Y-99072700D01*
X188937650Y-99072700D01*
X189096400Y-98913950D01*
X189096400Y-98273390D01*
X188999727Y-98040001D01*
X188821098Y-97861373D01*
X188587709Y-97764700D01*
X188247150Y-97764700D01*
X188088400Y-97923450D01*
X187834400Y-97923450D01*
X187675650Y-97764700D01*
X187335091Y-97764700D01*
X187101702Y-97861373D01*
X186923073Y-98040001D01*
X186826400Y-98273390D01*
X186085074Y-98273390D01*
X186064562Y-98164383D01*
X185925490Y-97948259D01*
X185713290Y-97803269D01*
X185461400Y-97752260D01*
X184461400Y-97752260D01*
X184226083Y-97796538D01*
X184009959Y-97935610D01*
X183864969Y-98147810D01*
X183813960Y-98399700D01*
X177495100Y-98399700D01*
X177495100Y-98226750D01*
X177336350Y-98068000D01*
X176187100Y-98068000D01*
X175933100Y-98068000D01*
X174783850Y-98068000D01*
X174625100Y-98226750D01*
X145599840Y-98226750D01*
X145599840Y-97314691D01*
X174625100Y-97314691D01*
X174625100Y-97655250D01*
X174783850Y-97814000D01*
X175933100Y-97814000D01*
X175933100Y-96964750D01*
X176187100Y-96964750D01*
X176187100Y-97814000D01*
X177336350Y-97814000D01*
X177495100Y-97655250D01*
X177495100Y-97314691D01*
X177398427Y-97081302D01*
X177219799Y-96902673D01*
X176986410Y-96806000D01*
X176345850Y-96806000D01*
X176187100Y-96964750D01*
X175933100Y-96964750D01*
X175774350Y-96806000D01*
X175133790Y-96806000D01*
X174900401Y-96902673D01*
X174721773Y-97081302D01*
X174625100Y-97314691D01*
X145599840Y-97314691D01*
X145599840Y-94999600D01*
X145555562Y-94764283D01*
X145416490Y-94548159D01*
X145268497Y-94447040D01*
X147952400Y-94447040D01*
X148187717Y-94402762D01*
X148403841Y-94263690D01*
X148548831Y-94051490D01*
X148599840Y-93799600D01*
X148599840Y-92366305D01*
X152084674Y-92366305D01*
X152371043Y-93059372D01*
X152900839Y-93590093D01*
X153593405Y-93877672D01*
X154343305Y-93878326D01*
X155036372Y-93591957D01*
X155567093Y-93062161D01*
X155854672Y-92369595D01*
X155855326Y-91619695D01*
X155568957Y-90926628D01*
X155108948Y-90465815D01*
X157884630Y-90465815D01*
X158208980Y-91250800D01*
X158809041Y-91851909D01*
X159593459Y-92177628D01*
X160442815Y-92178370D01*
X161227800Y-91854020D01*
X161828909Y-91253959D01*
X162154628Y-90469541D01*
X162155370Y-89620185D01*
X161831020Y-88835200D01*
X161230959Y-88234091D01*
X160446541Y-87908372D01*
X159597185Y-87907630D01*
X158812200Y-88231980D01*
X158211091Y-88832041D01*
X157885372Y-89616459D01*
X157884630Y-90465815D01*
X155108948Y-90465815D01*
X155039161Y-90395907D01*
X154346595Y-90108328D01*
X153596695Y-90107674D01*
X152903628Y-90394043D01*
X152372907Y-90923839D01*
X152085328Y-91616405D01*
X152084674Y-92366305D01*
X148599840Y-92366305D01*
X148599840Y-90299600D01*
X148555562Y-90064283D01*
X148416490Y-89848159D01*
X148204290Y-89703169D01*
X147952400Y-89652160D01*
X144452400Y-89652160D01*
X144217083Y-89696438D01*
X144000959Y-89835510D01*
X143855969Y-90047710D01*
X143804960Y-90299600D01*
X143804960Y-93799600D01*
X143849238Y-94034917D01*
X143988310Y-94251041D01*
X144136303Y-94352160D01*
X142266355Y-94352160D01*
X142403841Y-94263690D01*
X142548831Y-94051490D01*
X142599840Y-93799600D01*
X142599840Y-90299600D01*
X142555562Y-90064283D01*
X142416490Y-89848159D01*
X142204290Y-89703169D01*
X141952400Y-89652160D01*
X138452400Y-89652160D01*
X138217083Y-89696438D01*
X138000959Y-89835510D01*
X137855969Y-90047710D01*
X137804960Y-90299600D01*
X131545000Y-90299600D01*
X131545000Y-82382161D01*
X132524258Y-82382161D01*
X132736490Y-82895803D01*
X133129130Y-83289129D01*
X133642400Y-83502257D01*
X134198161Y-83502742D01*
X134711803Y-83290510D01*
X135105129Y-82897870D01*
X135318257Y-82384600D01*
X135318742Y-81828839D01*
X135106510Y-81315197D01*
X134713870Y-80921871D01*
X134200600Y-80708743D01*
X133644839Y-80708258D01*
X133131197Y-80920490D01*
X132737871Y-81313130D01*
X132524743Y-81826400D01*
X132524258Y-82382161D01*
X131545000Y-82382161D01*
X131545000Y-76155581D01*
X131765676Y-76689658D01*
X132703007Y-77628627D01*
X133928317Y-78137420D01*
X135255062Y-78138578D01*
X136481258Y-77631924D01*
X137420227Y-76694593D01*
X137508320Y-76482440D01*
X139089165Y-76482440D01*
X139298353Y-76843289D01*
X140235650Y-77220824D01*
X141246077Y-77210933D01*
X141626846Y-77053213D01*
X147027392Y-77053213D01*
X147096857Y-77295397D01*
X147620302Y-77482144D01*
X148175368Y-77454362D01*
X148559143Y-77295397D01*
X148628608Y-77053213D01*
X147828000Y-76252605D01*
X147027392Y-77053213D01*
X141626846Y-77053213D01*
X142133647Y-76843289D01*
X142342835Y-76482440D01*
X140716000Y-74855605D01*
X139089165Y-76482440D01*
X137508320Y-76482440D01*
X137929020Y-75469283D01*
X137930131Y-74195650D01*
X138171176Y-74195650D01*
X138181067Y-75206077D01*
X138548711Y-76093647D01*
X138909560Y-76302835D01*
X140536395Y-74676000D01*
X140895605Y-74676000D01*
X142522440Y-76302835D01*
X142883289Y-76093647D01*
X142975264Y-75865302D01*
X146418856Y-75865302D01*
X146446638Y-76420368D01*
X146605603Y-76804143D01*
X146847787Y-76873608D01*
X147648395Y-76073000D01*
X148007605Y-76073000D01*
X148808213Y-76873608D01*
X149050397Y-76804143D01*
X149159355Y-76498738D01*
X149309990Y-76863303D01*
X149702630Y-77256629D01*
X150215900Y-77469757D01*
X150771661Y-77470242D01*
X151285303Y-77258010D01*
X151678629Y-76865370D01*
X151891757Y-76352100D01*
X151891759Y-76349664D01*
X152103990Y-76863303D01*
X152496630Y-77256629D01*
X153009900Y-77469757D01*
X153565661Y-77470242D01*
X153658961Y-77431691D01*
X166335588Y-90108318D01*
X165596695Y-90107674D01*
X164903628Y-90394043D01*
X164372907Y-90923839D01*
X164085328Y-91616405D01*
X164084674Y-92366305D01*
X164371043Y-93059372D01*
X164900839Y-93590093D01*
X165593405Y-93877672D01*
X166343305Y-93878326D01*
X167036372Y-93591957D01*
X167567093Y-93062161D01*
X167854672Y-92369595D01*
X167855319Y-91628050D01*
X171368384Y-95141115D01*
X171539448Y-95255416D01*
X171615595Y-95306296D01*
X171907200Y-95364300D01*
X180314403Y-95364300D01*
X180329614Y-95401114D01*
X180669695Y-95741790D01*
X181114260Y-95926389D01*
X181595628Y-95926809D01*
X182040514Y-95742986D01*
X182381190Y-95402905D01*
X182565789Y-94958340D01*
X182565831Y-94910636D01*
X182764028Y-94910809D01*
X183208914Y-94726986D01*
X183549590Y-94386905D01*
X183734189Y-93942340D01*
X183734609Y-93460972D01*
X183550786Y-93016086D01*
X183210705Y-92675410D01*
X182766140Y-92490811D01*
X182284772Y-92490391D01*
X181937695Y-92633800D01*
X171734755Y-92633800D01*
X170356805Y-91255850D01*
X183706400Y-91255850D01*
X183706400Y-91946409D01*
X183803073Y-92179798D01*
X183981701Y-92358427D01*
X184215090Y-92455100D01*
X184905650Y-92455100D01*
X185064400Y-92296350D01*
X185064400Y-91097100D01*
X183865150Y-91097100D01*
X183706400Y-91255850D01*
X170356805Y-91255850D01*
X169094746Y-89993791D01*
X183706400Y-89993791D01*
X183706400Y-90684350D01*
X183865150Y-90843100D01*
X185064400Y-90843100D01*
X185064400Y-88557100D01*
X183870581Y-88557100D01*
X183749914Y-88786992D01*
X183996217Y-89311458D01*
X184195608Y-89493170D01*
X183981701Y-89581773D01*
X183803073Y-89760402D01*
X183706400Y-89993791D01*
X169094746Y-89993791D01*
X156845000Y-77744046D01*
X156845000Y-77159485D01*
X157139629Y-76865370D01*
X157340560Y-76381474D01*
X157340560Y-76835000D01*
X157384838Y-77070317D01*
X157523910Y-77286441D01*
X157736110Y-77431431D01*
X157988000Y-77482440D01*
X159512000Y-77482440D01*
X159747317Y-77438162D01*
X159963441Y-77299090D01*
X160108431Y-77086890D01*
X160159440Y-76835000D01*
X160159440Y-76482440D01*
X164108165Y-76482440D01*
X164317353Y-76843289D01*
X165254650Y-77220824D01*
X166265077Y-77210933D01*
X167152647Y-76843289D01*
X167361835Y-76482440D01*
X165735000Y-74855605D01*
X164108165Y-76482440D01*
X160159440Y-76482440D01*
X160159440Y-75311000D01*
X160115162Y-75075683D01*
X159976090Y-74859559D01*
X159763890Y-74714569D01*
X159512000Y-74663560D01*
X157988000Y-74663560D01*
X157752683Y-74707838D01*
X157536559Y-74846910D01*
X157391569Y-75059110D01*
X157340560Y-75311000D01*
X157340560Y-75765646D01*
X157141010Y-75282697D01*
X156748370Y-74889371D01*
X156235100Y-74676243D01*
X155679339Y-74675758D01*
X155165697Y-74887990D01*
X154772371Y-75280630D01*
X154622394Y-75641815D01*
X154474010Y-75282697D01*
X154081370Y-74889371D01*
X153568100Y-74676243D01*
X153012339Y-74675758D01*
X152498697Y-74887990D01*
X152105371Y-75280630D01*
X151892243Y-75793900D01*
X151892241Y-75796336D01*
X151680010Y-75282697D01*
X151287370Y-74889371D01*
X150774100Y-74676243D01*
X150218339Y-74675758D01*
X149704697Y-74887990D01*
X149311371Y-75280630D01*
X149168027Y-75625841D01*
X149050397Y-75341857D01*
X148808213Y-75272392D01*
X148007605Y-76073000D01*
X147648395Y-76073000D01*
X146847787Y-75272392D01*
X146605603Y-75341857D01*
X146418856Y-75865302D01*
X142975264Y-75865302D01*
X143260824Y-75156350D01*
X143260202Y-75092787D01*
X147027392Y-75092787D01*
X147828000Y-75893395D01*
X148628608Y-75092787D01*
X148559143Y-74850603D01*
X148035698Y-74663856D01*
X147480632Y-74691638D01*
X147096857Y-74850603D01*
X147027392Y-75092787D01*
X143260202Y-75092787D01*
X143250933Y-74145923D01*
X143006439Y-73555661D01*
X147700758Y-73555661D01*
X147912990Y-74069303D01*
X148305630Y-74462629D01*
X148818900Y-74675757D01*
X149374661Y-74676242D01*
X149888303Y-74464010D01*
X150281629Y-74071370D01*
X150494757Y-73558100D01*
X150494759Y-73555664D01*
X150706990Y-74069303D01*
X151099630Y-74462629D01*
X151612900Y-74675757D01*
X152168661Y-74676242D01*
X152682303Y-74464010D01*
X153075629Y-74071370D01*
X153225606Y-73710185D01*
X153373990Y-74069303D01*
X153766630Y-74462629D01*
X154279900Y-74675757D01*
X154835661Y-74676242D01*
X155349303Y-74464010D01*
X155742629Y-74071370D01*
X155955757Y-73558100D01*
X155955759Y-73555664D01*
X156167990Y-74069303D01*
X156560630Y-74462629D01*
X157073900Y-74675757D01*
X157629661Y-74676242D01*
X158143303Y-74464010D01*
X158412131Y-74195650D01*
X163190176Y-74195650D01*
X163200067Y-75206077D01*
X163567711Y-76093647D01*
X163928560Y-76302835D01*
X165555395Y-74676000D01*
X165914605Y-74676000D01*
X167541440Y-76302835D01*
X167902289Y-76093647D01*
X168279824Y-75156350D01*
X168269933Y-74145923D01*
X167902289Y-73258353D01*
X167541440Y-73049165D01*
X165914605Y-74676000D01*
X165555395Y-74676000D01*
X163928560Y-73049165D01*
X163567711Y-73258353D01*
X163190176Y-74195650D01*
X158412131Y-74195650D01*
X158536629Y-74071370D01*
X158749757Y-73558100D01*
X158750242Y-73002339D01*
X158695379Y-72869560D01*
X164108165Y-72869560D01*
X165735000Y-74496395D01*
X167361835Y-72869560D01*
X167152647Y-72508711D01*
X166511097Y-72250300D01*
X168605200Y-72250300D01*
X168605200Y-79400400D01*
X168665137Y-79701725D01*
X168835824Y-79957176D01*
X168944081Y-80029511D01*
X168995515Y-80080946D01*
X168995191Y-80452828D01*
X169179014Y-80897714D01*
X169519095Y-81238390D01*
X169963660Y-81422989D01*
X170445028Y-81423409D01*
X170889914Y-81239586D01*
X171230590Y-80899505D01*
X171415189Y-80454940D01*
X171415609Y-79973572D01*
X171231786Y-79528686D01*
X170891705Y-79188010D01*
X170447140Y-79003411D01*
X170180000Y-79003178D01*
X170180000Y-76775532D01*
X171031607Y-77628627D01*
X172256917Y-78137420D01*
X173583662Y-78138578D01*
X174809858Y-77631924D01*
X175748827Y-76694593D01*
X176257620Y-75469283D01*
X176258778Y-74142538D01*
X175752124Y-72916342D01*
X174814793Y-71977373D01*
X173589483Y-71468580D01*
X172262738Y-71467422D01*
X171135811Y-71933059D01*
X171136209Y-71477272D01*
X170952386Y-71032386D01*
X170612305Y-70691710D01*
X170167740Y-70507111D01*
X169686372Y-70506691D01*
X169241486Y-70690514D01*
X168900810Y-71030595D01*
X168716211Y-71475160D01*
X168715864Y-71873057D01*
X168665137Y-71948975D01*
X168605200Y-72250300D01*
X166511097Y-72250300D01*
X166215350Y-72131176D01*
X165204923Y-72141067D01*
X164317353Y-72508711D01*
X164108165Y-72869560D01*
X158695379Y-72869560D01*
X158538010Y-72488697D01*
X158145370Y-72095371D01*
X157632100Y-71882243D01*
X157076339Y-71881758D01*
X156562697Y-72093990D01*
X156169371Y-72486630D01*
X155956243Y-72999900D01*
X155956241Y-73002336D01*
X155744010Y-72488697D01*
X155351370Y-72095371D01*
X154838100Y-71882243D01*
X154282339Y-71881758D01*
X153768697Y-72093990D01*
X153375371Y-72486630D01*
X153225394Y-72847815D01*
X153077010Y-72488697D01*
X152684370Y-72095371D01*
X152171100Y-71882243D01*
X151615339Y-71881758D01*
X151101697Y-72093990D01*
X150708371Y-72486630D01*
X150495243Y-72999900D01*
X150495241Y-73002336D01*
X150283010Y-72488697D01*
X149890370Y-72095371D01*
X149377100Y-71882243D01*
X148821339Y-71881758D01*
X148307697Y-72093990D01*
X147914371Y-72486630D01*
X147701243Y-72999900D01*
X147700758Y-73555661D01*
X143006439Y-73555661D01*
X142883289Y-73258353D01*
X142522440Y-73049165D01*
X140895605Y-74676000D01*
X140536395Y-74676000D01*
X138909560Y-73049165D01*
X138548711Y-73258353D01*
X138171176Y-74195650D01*
X137930131Y-74195650D01*
X137930178Y-74142538D01*
X137423524Y-72916342D01*
X137376824Y-72869560D01*
X139089165Y-72869560D01*
X140716000Y-74496395D01*
X142342835Y-72869560D01*
X142133647Y-72508711D01*
X141196350Y-72131176D01*
X140185923Y-72141067D01*
X139298353Y-72508711D01*
X139089165Y-72869560D01*
X137376824Y-72869560D01*
X136486193Y-71977373D01*
X135260883Y-71468580D01*
X133934138Y-71467422D01*
X132707942Y-71974076D01*
X131768973Y-72911407D01*
X131545000Y-73450794D01*
X131545000Y-70331000D01*
X233707000Y-70331000D01*
X233707000Y-72882960D01*
G36*
X159232600Y-115798600D02*
X159252600Y-115798600D01*
X159252600Y-116052600D01*
X159232600Y-116052600D01*
X159232600Y-116072600D01*
X158978600Y-116072600D01*
X158978600Y-116052600D01*
X158958600Y-116052600D01*
X158958600Y-115798600D01*
X158978600Y-115798600D01*
X158978600Y-115778600D01*
X159232600Y-115778600D01*
X159232600Y-115798600D01*
X159232600Y-115798600D01*
G37*
X159232600Y-115798600D02*
X159252600Y-115798600D01*
X159252600Y-116052600D01*
X159232600Y-116052600D01*
X159232600Y-116072600D01*
X158978600Y-116072600D01*
X158978600Y-116052600D01*
X158958600Y-116052600D01*
X158958600Y-115798600D01*
X158978600Y-115798600D01*
X158978600Y-115778600D01*
X159232600Y-115778600D01*
X159232600Y-115798600D01*
G36*
X218967985Y-97797285D02*
X218802804Y-98044495D01*
X218744800Y-98336100D01*
X218744800Y-101563770D01*
X211786138Y-108522432D01*
X211786135Y-108522434D01*
X204332170Y-115976400D01*
X195638984Y-115976400D01*
X195745326Y-115817248D01*
X195859400Y-115243759D01*
X195859400Y-115185041D01*
X195745326Y-114611552D01*
X195434226Y-114145958D01*
X195459717Y-114141162D01*
X195675841Y-114002090D01*
X195820831Y-113789890D01*
X195871840Y-113538000D01*
X195871840Y-112240990D01*
X196759230Y-111353600D01*
X198424800Y-111353600D01*
X198716405Y-111295596D01*
X198963615Y-111130415D01*
X204602415Y-105491616D01*
X204767596Y-105244405D01*
X204779051Y-105186815D01*
X204825600Y-104952800D01*
X204825600Y-104880619D01*
X205033600Y-104922740D01*
X205633600Y-104922740D01*
X205868917Y-104878462D01*
X206085041Y-104739390D01*
X206230031Y-104527190D01*
X206278610Y-104287300D01*
X208983600Y-104287300D01*
X209275205Y-104229296D01*
X209522415Y-104064115D01*
X209870306Y-103716225D01*
X209912967Y-103716262D01*
X210256743Y-103574217D01*
X210519992Y-103311427D01*
X210662638Y-102967899D01*
X210662962Y-102595933D01*
X210520917Y-102252157D01*
X210258127Y-101988908D01*
X209914599Y-101846262D01*
X209542633Y-101845938D01*
X209198857Y-101987983D01*
X208961038Y-102225388D01*
X208895850Y-102160200D01*
X207746600Y-102160200D01*
X207746600Y-102180200D01*
X207492600Y-102180200D01*
X207492600Y-102160200D01*
X206343350Y-102160200D01*
X206184600Y-102318950D01*
X206184600Y-102458921D01*
X206097690Y-102323859D01*
X205885490Y-102178869D01*
X205633600Y-102127860D01*
X205033600Y-102127860D01*
X204798283Y-102172138D01*
X204699072Y-102235978D01*
X204615490Y-102178869D01*
X204363600Y-102127860D01*
X203763600Y-102127860D01*
X203528283Y-102172138D01*
X203429072Y-102235978D01*
X203345490Y-102178869D01*
X203093600Y-102127860D01*
X202493600Y-102127860D01*
X202258283Y-102172138D01*
X202159072Y-102235978D01*
X202075490Y-102178869D01*
X201823600Y-102127860D01*
X201223600Y-102127860D01*
X201015600Y-102166998D01*
X201015600Y-102118830D01*
X201636030Y-101498400D01*
X206184600Y-101498400D01*
X206184600Y-101747450D01*
X206343350Y-101906200D01*
X207492600Y-101906200D01*
X207492600Y-101886200D01*
X207746600Y-101886200D01*
X207746600Y-101906200D01*
X208895850Y-101906200D01*
X209054600Y-101747450D01*
X209054600Y-101498400D01*
X210818688Y-101498400D01*
X211051673Y-101731792D01*
X211395201Y-101874438D01*
X211767167Y-101874762D01*
X212110943Y-101732717D01*
X212374192Y-101469927D01*
X212516838Y-101126399D01*
X212516979Y-100965000D01*
X214249000Y-100965000D01*
X214540605Y-100906996D01*
X214787815Y-100741815D01*
X214861405Y-100668225D01*
X214904067Y-100668262D01*
X215247843Y-100526217D01*
X215266581Y-100507511D01*
X215942775Y-101183706D01*
X215942738Y-101226367D01*
X216084783Y-101570143D01*
X216347573Y-101833392D01*
X216691101Y-101976038D01*
X217063067Y-101976362D01*
X217406843Y-101834317D01*
X217670092Y-101571527D01*
X217812738Y-101227999D01*
X217813062Y-100856033D01*
X217671017Y-100512257D01*
X217408227Y-100249008D01*
X217064699Y-100106362D01*
X217020654Y-100106324D01*
X216357200Y-99442870D01*
X216357200Y-98234500D01*
X216299196Y-97942895D01*
X216134015Y-97695685D01*
X216033924Y-97628806D01*
X216095915Y-97566816D01*
X216261096Y-97319605D01*
X216262073Y-97314691D01*
X216319100Y-97028000D01*
X216319100Y-96984957D01*
X216669367Y-96985262D01*
X217013143Y-96843217D01*
X217044314Y-96812100D01*
X219953170Y-96812100D01*
X218967985Y-97797285D01*
X218967985Y-97797285D01*
G37*
X218967985Y-97797285D02*
X218802804Y-98044495D01*
X218744800Y-98336100D01*
X218744800Y-101563770D01*
X211786138Y-108522432D01*
X211786135Y-108522434D01*
X204332170Y-115976400D01*
X195638984Y-115976400D01*
X195745326Y-115817248D01*
X195859400Y-115243759D01*
X195859400Y-115185041D01*
X195745326Y-114611552D01*
X195434226Y-114145958D01*
X195459717Y-114141162D01*
X195675841Y-114002090D01*
X195820831Y-113789890D01*
X195871840Y-113538000D01*
X195871840Y-112240990D01*
X196759230Y-111353600D01*
X198424800Y-111353600D01*
X198716405Y-111295596D01*
X198963615Y-111130415D01*
X204602415Y-105491616D01*
X204767596Y-105244405D01*
X204779051Y-105186815D01*
X204825600Y-104952800D01*
X204825600Y-104880619D01*
X205033600Y-104922740D01*
X205633600Y-104922740D01*
X205868917Y-104878462D01*
X206085041Y-104739390D01*
X206230031Y-104527190D01*
X206278610Y-104287300D01*
X208983600Y-104287300D01*
X209275205Y-104229296D01*
X209522415Y-104064115D01*
X209870306Y-103716225D01*
X209912967Y-103716262D01*
X210256743Y-103574217D01*
X210519992Y-103311427D01*
X210662638Y-102967899D01*
X210662962Y-102595933D01*
X210520917Y-102252157D01*
X210258127Y-101988908D01*
X209914599Y-101846262D01*
X209542633Y-101845938D01*
X209198857Y-101987983D01*
X208961038Y-102225388D01*
X208895850Y-102160200D01*
X207746600Y-102160200D01*
X207746600Y-102180200D01*
X207492600Y-102180200D01*
X207492600Y-102160200D01*
X206343350Y-102160200D01*
X206184600Y-102318950D01*
X206184600Y-102458921D01*
X206097690Y-102323859D01*
X205885490Y-102178869D01*
X205633600Y-102127860D01*
X205033600Y-102127860D01*
X204798283Y-102172138D01*
X204699072Y-102235978D01*
X204615490Y-102178869D01*
X204363600Y-102127860D01*
X203763600Y-102127860D01*
X203528283Y-102172138D01*
X203429072Y-102235978D01*
X203345490Y-102178869D01*
X203093600Y-102127860D01*
X202493600Y-102127860D01*
X202258283Y-102172138D01*
X202159072Y-102235978D01*
X202075490Y-102178869D01*
X201823600Y-102127860D01*
X201223600Y-102127860D01*
X201015600Y-102166998D01*
X201015600Y-102118830D01*
X201636030Y-101498400D01*
X206184600Y-101498400D01*
X206184600Y-101747450D01*
X206343350Y-101906200D01*
X207492600Y-101906200D01*
X207492600Y-101886200D01*
X207746600Y-101886200D01*
X207746600Y-101906200D01*
X208895850Y-101906200D01*
X209054600Y-101747450D01*
X209054600Y-101498400D01*
X210818688Y-101498400D01*
X211051673Y-101731792D01*
X211395201Y-101874438D01*
X211767167Y-101874762D01*
X212110943Y-101732717D01*
X212374192Y-101469927D01*
X212516838Y-101126399D01*
X212516979Y-100965000D01*
X214249000Y-100965000D01*
X214540605Y-100906996D01*
X214787815Y-100741815D01*
X214861405Y-100668225D01*
X214904067Y-100668262D01*
X215247843Y-100526217D01*
X215266581Y-100507511D01*
X215942775Y-101183706D01*
X215942738Y-101226367D01*
X216084783Y-101570143D01*
X216347573Y-101833392D01*
X216691101Y-101976038D01*
X217063067Y-101976362D01*
X217406843Y-101834317D01*
X217670092Y-101571527D01*
X217812738Y-101227999D01*
X217813062Y-100856033D01*
X217671017Y-100512257D01*
X217408227Y-100249008D01*
X217064699Y-100106362D01*
X217020654Y-100106324D01*
X216357200Y-99442870D01*
X216357200Y-98234500D01*
X216299196Y-97942895D01*
X216134015Y-97695685D01*
X216033924Y-97628806D01*
X216095915Y-97566816D01*
X216261096Y-97319605D01*
X216262073Y-97314691D01*
X216319100Y-97028000D01*
X216319100Y-96984957D01*
X216669367Y-96985262D01*
X217013143Y-96843217D01*
X217044314Y-96812100D01*
X219953170Y-96812100D01*
X218967985Y-97797285D01*
G36*
X197840600Y-103398300D02*
X197860600Y-103398300D01*
X197860600Y-103652300D01*
X197840600Y-103652300D01*
X197840600Y-104751550D01*
X197999350Y-104910300D01*
X198139910Y-104910300D01*
X198221600Y-104876463D01*
X198221600Y-106643769D01*
X196153372Y-108711998D01*
X193584232Y-108711998D01*
X196816446Y-105479784D01*
X197007815Y-105351915D01*
X197172996Y-105104705D01*
X197217422Y-104881360D01*
X197287290Y-104910300D01*
X197427850Y-104910300D01*
X197586600Y-104751550D01*
X197586600Y-103652300D01*
X197566600Y-103652300D01*
X197566600Y-103398300D01*
X197586600Y-103398300D01*
X197586600Y-103378300D01*
X197840600Y-103378300D01*
X197840600Y-103398300D01*
X197840600Y-103398300D01*
G37*
X197840600Y-103398300D02*
X197860600Y-103398300D01*
X197860600Y-103652300D01*
X197840600Y-103652300D01*
X197840600Y-104751550D01*
X197999350Y-104910300D01*
X198139910Y-104910300D01*
X198221600Y-104876463D01*
X198221600Y-106643769D01*
X196153372Y-108711998D01*
X193584232Y-108711998D01*
X196816446Y-105479784D01*
X197007815Y-105351915D01*
X197172996Y-105104705D01*
X197217422Y-104881360D01*
X197287290Y-104910300D01*
X197427850Y-104910300D01*
X197586600Y-104751550D01*
X197586600Y-103652300D01*
X197566600Y-103652300D01*
X197566600Y-103398300D01*
X197586600Y-103398300D01*
X197586600Y-103378300D01*
X197840600Y-103378300D01*
X197840600Y-103398300D01*
G36*
X229057198Y-84732528D02*
X229057198Y-106592968D01*
X228300618Y-105836388D01*
X228300616Y-105836385D01*
X228287915Y-105823685D01*
X225729800Y-103265570D01*
X225729800Y-98197759D01*
X225936073Y-98404392D01*
X226279601Y-98547038D01*
X226651567Y-98547362D01*
X226995343Y-98405317D01*
X227258592Y-98142527D01*
X227401238Y-97798999D01*
X227401562Y-97427033D01*
X227378603Y-97371469D01*
X227450917Y-97357862D01*
X227667041Y-97218790D01*
X227812031Y-97006590D01*
X227863040Y-96754700D01*
X227863040Y-95754700D01*
X227818762Y-95519383D01*
X227679690Y-95303259D01*
X227467490Y-95158269D01*
X227215600Y-95107260D01*
X225691302Y-95107260D01*
X225671796Y-95009195D01*
X225506615Y-94761985D01*
X224285080Y-93540450D01*
X224980600Y-93540450D01*
X224980600Y-93881009D01*
X225077273Y-94114398D01*
X225255901Y-94293027D01*
X225489290Y-94389700D01*
X226129850Y-94389700D01*
X226288600Y-94230950D01*
X226288600Y-93381700D01*
X226542600Y-93381700D01*
X226542600Y-94230950D01*
X226701350Y-94389700D01*
X227341910Y-94389700D01*
X227575299Y-94293027D01*
X227753927Y-94114398D01*
X227850600Y-93881009D01*
X227850600Y-93540450D01*
X227691850Y-93381700D01*
X226542600Y-93381700D01*
X226288600Y-93381700D01*
X225139350Y-93381700D01*
X224980600Y-93540450D01*
X224285080Y-93540450D01*
X223601615Y-92856985D01*
X223582487Y-92844204D01*
X223354405Y-92691804D01*
X223062800Y-92633800D01*
X219250930Y-92633800D01*
X219256339Y-92628391D01*
X224980600Y-92628391D01*
X224980600Y-92968950D01*
X225139350Y-93127700D01*
X226288600Y-93127700D01*
X226288600Y-92278450D01*
X226542600Y-92278450D01*
X226542600Y-93127700D01*
X227691850Y-93127700D01*
X227850600Y-92968950D01*
X227850600Y-92628391D01*
X227753927Y-92395002D01*
X227575299Y-92216373D01*
X227341910Y-92119700D01*
X226701350Y-92119700D01*
X226542600Y-92278450D01*
X226288600Y-92278450D01*
X226129850Y-92119700D01*
X225489290Y-92119700D01*
X225255901Y-92216373D01*
X225077273Y-92395002D01*
X224980600Y-92628391D01*
X219256339Y-92628391D01*
X219474115Y-92410615D01*
X219503722Y-92366305D01*
X219639296Y-92163405D01*
X219697300Y-91871800D01*
X219697300Y-89255600D01*
X219639296Y-88963995D01*
X219521026Y-88786992D01*
X219474115Y-88716784D01*
X217658015Y-86900685D01*
X217576417Y-86846163D01*
X217410805Y-86735504D01*
X217119200Y-86677500D01*
X216841466Y-86677500D01*
X216811327Y-86647308D01*
X216467799Y-86504662D01*
X216095833Y-86504338D01*
X215752057Y-86646383D01*
X215633368Y-86764865D01*
X215566727Y-86698108D01*
X215223199Y-86555462D01*
X214851233Y-86555138D01*
X214507457Y-86697183D01*
X214244208Y-86959973D01*
X214101562Y-87303501D01*
X214101238Y-87675467D01*
X214243283Y-88019243D01*
X214274400Y-88050414D01*
X214274400Y-94667669D01*
X213018970Y-95923100D01*
X212269466Y-95923100D01*
X212239327Y-95892908D01*
X211895799Y-95750262D01*
X211523833Y-95749938D01*
X211180057Y-95891983D01*
X210916808Y-96154773D01*
X210774162Y-96498301D01*
X210773988Y-96697800D01*
X207506966Y-96697800D01*
X207476827Y-96667608D01*
X207133299Y-96524962D01*
X206761333Y-96524638D01*
X206417557Y-96666683D01*
X206154308Y-96929473D01*
X206133519Y-96979539D01*
X206108300Y-96940347D01*
X206108300Y-96400801D01*
X206407767Y-96401062D01*
X206751543Y-96259017D01*
X207014792Y-95996227D01*
X207157438Y-95652699D01*
X207157461Y-95626768D01*
X207211176Y-95590876D01*
X207236576Y-95565476D01*
X207407263Y-95310025D01*
X207467200Y-95008700D01*
X207467200Y-88298367D01*
X207576167Y-88298462D01*
X207919943Y-88156417D01*
X207987810Y-88088668D01*
X208079873Y-88180892D01*
X208423401Y-88323538D01*
X208795367Y-88323862D01*
X209139143Y-88181817D01*
X209270577Y-88050613D01*
X209375273Y-88155492D01*
X209718801Y-88298138D01*
X210090767Y-88298462D01*
X210434543Y-88156417D01*
X210565977Y-88025213D01*
X210670673Y-88130092D01*
X211014201Y-88272738D01*
X211386167Y-88273062D01*
X211729943Y-88131017D01*
X211993192Y-87868227D01*
X212135838Y-87524699D01*
X212136162Y-87152733D01*
X211994117Y-86808957D01*
X211988400Y-86803230D01*
X211988400Y-86688330D01*
X214386831Y-84289900D01*
X228614570Y-84289900D01*
X229057198Y-84732528D01*
X229057198Y-84732528D01*
G37*
X229057198Y-84732528D02*
X229057198Y-106592968D01*
X228300618Y-105836388D01*
X228300616Y-105836385D01*
X228287915Y-105823685D01*
X225729800Y-103265570D01*
X225729800Y-98197759D01*
X225936073Y-98404392D01*
X226279601Y-98547038D01*
X226651567Y-98547362D01*
X226995343Y-98405317D01*
X227258592Y-98142527D01*
X227401238Y-97798999D01*
X227401562Y-97427033D01*
X227378603Y-97371469D01*
X227450917Y-97357862D01*
X227667041Y-97218790D01*
X227812031Y-97006590D01*
X227863040Y-96754700D01*
X227863040Y-95754700D01*
X227818762Y-95519383D01*
X227679690Y-95303259D01*
X227467490Y-95158269D01*
X227215600Y-95107260D01*
X225691302Y-95107260D01*
X225671796Y-95009195D01*
X225506615Y-94761985D01*
X224285080Y-93540450D01*
X224980600Y-93540450D01*
X224980600Y-93881009D01*
X225077273Y-94114398D01*
X225255901Y-94293027D01*
X225489290Y-94389700D01*
X226129850Y-94389700D01*
X226288600Y-94230950D01*
X226288600Y-93381700D01*
X226542600Y-93381700D01*
X226542600Y-94230950D01*
X226701350Y-94389700D01*
X227341910Y-94389700D01*
X227575299Y-94293027D01*
X227753927Y-94114398D01*
X227850600Y-93881009D01*
X227850600Y-93540450D01*
X227691850Y-93381700D01*
X226542600Y-93381700D01*
X226288600Y-93381700D01*
X225139350Y-93381700D01*
X224980600Y-93540450D01*
X224285080Y-93540450D01*
X223601615Y-92856985D01*
X223582487Y-92844204D01*
X223354405Y-92691804D01*
X223062800Y-92633800D01*
X219250930Y-92633800D01*
X219256339Y-92628391D01*
X224980600Y-92628391D01*
X224980600Y-92968950D01*
X225139350Y-93127700D01*
X226288600Y-93127700D01*
X226288600Y-92278450D01*
X226542600Y-92278450D01*
X226542600Y-93127700D01*
X227691850Y-93127700D01*
X227850600Y-92968950D01*
X227850600Y-92628391D01*
X227753927Y-92395002D01*
X227575299Y-92216373D01*
X227341910Y-92119700D01*
X226701350Y-92119700D01*
X226542600Y-92278450D01*
X226288600Y-92278450D01*
X226129850Y-92119700D01*
X225489290Y-92119700D01*
X225255901Y-92216373D01*
X225077273Y-92395002D01*
X224980600Y-92628391D01*
X219256339Y-92628391D01*
X219474115Y-92410615D01*
X219503722Y-92366305D01*
X219639296Y-92163405D01*
X219697300Y-91871800D01*
X219697300Y-89255600D01*
X219639296Y-88963995D01*
X219521026Y-88786992D01*
X219474115Y-88716784D01*
X217658015Y-86900685D01*
X217576417Y-86846163D01*
X217410805Y-86735504D01*
X217119200Y-86677500D01*
X216841466Y-86677500D01*
X216811327Y-86647308D01*
X216467799Y-86504662D01*
X216095833Y-86504338D01*
X215752057Y-86646383D01*
X215633368Y-86764865D01*
X215566727Y-86698108D01*
X215223199Y-86555462D01*
X214851233Y-86555138D01*
X214507457Y-86697183D01*
X214244208Y-86959973D01*
X214101562Y-87303501D01*
X214101238Y-87675467D01*
X214243283Y-88019243D01*
X214274400Y-88050414D01*
X214274400Y-94667669D01*
X213018970Y-95923100D01*
X212269466Y-95923100D01*
X212239327Y-95892908D01*
X211895799Y-95750262D01*
X211523833Y-95749938D01*
X211180057Y-95891983D01*
X210916808Y-96154773D01*
X210774162Y-96498301D01*
X210773988Y-96697800D01*
X207506966Y-96697800D01*
X207476827Y-96667608D01*
X207133299Y-96524962D01*
X206761333Y-96524638D01*
X206417557Y-96666683D01*
X206154308Y-96929473D01*
X206133519Y-96979539D01*
X206108300Y-96940347D01*
X206108300Y-96400801D01*
X206407767Y-96401062D01*
X206751543Y-96259017D01*
X207014792Y-95996227D01*
X207157438Y-95652699D01*
X207157461Y-95626768D01*
X207211176Y-95590876D01*
X207236576Y-95565476D01*
X207407263Y-95310025D01*
X207467200Y-95008700D01*
X207467200Y-88298367D01*
X207576167Y-88298462D01*
X207919943Y-88156417D01*
X207987810Y-88088668D01*
X208079873Y-88180892D01*
X208423401Y-88323538D01*
X208795367Y-88323862D01*
X209139143Y-88181817D01*
X209270577Y-88050613D01*
X209375273Y-88155492D01*
X209718801Y-88298138D01*
X210090767Y-88298462D01*
X210434543Y-88156417D01*
X210565977Y-88025213D01*
X210670673Y-88130092D01*
X211014201Y-88272738D01*
X211386167Y-88273062D01*
X211729943Y-88131017D01*
X211993192Y-87868227D01*
X212135838Y-87524699D01*
X212136162Y-87152733D01*
X211994117Y-86808957D01*
X211988400Y-86803230D01*
X211988400Y-86688330D01*
X214386831Y-84289900D01*
X228614570Y-84289900D01*
X229057198Y-84732528D01*
G36*
X198479849Y-99481479D02*
X199740184Y-100741815D01*
X199974231Y-100898200D01*
X199987395Y-100906996D01*
X200058108Y-100921062D01*
X199714785Y-101264385D01*
X199549604Y-101511595D01*
X199491600Y-101803200D01*
X199491600Y-102169981D01*
X199283600Y-102127860D01*
X198683600Y-102127860D01*
X198448283Y-102172138D01*
X198357620Y-102230478D01*
X198227394Y-102176537D01*
X198252415Y-102151516D01*
X198417596Y-101904305D01*
X198422648Y-101878905D01*
X198475600Y-101612700D01*
X198475600Y-99480619D01*
X198479849Y-99481479D01*
X198479849Y-99481479D01*
G37*
X198479849Y-99481479D02*
X199740184Y-100741815D01*
X199974231Y-100898200D01*
X199987395Y-100906996D01*
X200058108Y-100921062D01*
X199714785Y-101264385D01*
X199549604Y-101511595D01*
X199491600Y-101803200D01*
X199491600Y-102169981D01*
X199283600Y-102127860D01*
X198683600Y-102127860D01*
X198448283Y-102172138D01*
X198357620Y-102230478D01*
X198227394Y-102176537D01*
X198252415Y-102151516D01*
X198417596Y-101904305D01*
X198422648Y-101878905D01*
X198475600Y-101612700D01*
X198475600Y-99480619D01*
X198479849Y-99481479D01*
G36*
X204715346Y-77101347D02*
X205197115Y-77423254D01*
X205765400Y-77536293D01*
X206129449Y-77463879D01*
X207410985Y-78745415D01*
X207658195Y-78910596D01*
X207949800Y-78968600D01*
X216828970Y-78968600D01*
X217951984Y-80091615D01*
X218101136Y-80191275D01*
X218199195Y-80256796D01*
X218490800Y-80314800D01*
X220969170Y-80314800D01*
X221566069Y-80911700D01*
X213080600Y-80911700D01*
X212788995Y-80969704D01*
X212541784Y-81134885D01*
X208280000Y-85396670D01*
X208280000Y-84139211D01*
X208284792Y-84134427D01*
X208427438Y-83790899D01*
X208427762Y-83418933D01*
X208285717Y-83075157D01*
X208022927Y-82811908D01*
X207679399Y-82669262D01*
X207307433Y-82668938D01*
X206963657Y-82810983D01*
X206700408Y-83073773D01*
X206557762Y-83417301D01*
X206557438Y-83789267D01*
X206699483Y-84133043D01*
X206705200Y-84138770D01*
X206705200Y-84301812D01*
X206362740Y-84159611D01*
X206024468Y-84159316D01*
X199870576Y-78005424D01*
X199615125Y-77834737D01*
X199313800Y-77774800D01*
X192324752Y-77774800D01*
X191605833Y-77055881D01*
X191795400Y-76772174D01*
X192015346Y-77101347D01*
X192497115Y-77423254D01*
X193065400Y-77536293D01*
X193633685Y-77423254D01*
X194115454Y-77101347D01*
X194335400Y-76772174D01*
X194555346Y-77101347D01*
X195037115Y-77423254D01*
X195605400Y-77536293D01*
X196173685Y-77423254D01*
X196655454Y-77101347D01*
X196875400Y-76772174D01*
X197095346Y-77101347D01*
X197577115Y-77423254D01*
X198145400Y-77536293D01*
X198713685Y-77423254D01*
X199195454Y-77101347D01*
X199415400Y-76772174D01*
X199635346Y-77101347D01*
X200117115Y-77423254D01*
X200685400Y-77536293D01*
X201253685Y-77423254D01*
X201735454Y-77101347D01*
X201955400Y-76772174D01*
X202175346Y-77101347D01*
X202657115Y-77423254D01*
X203225400Y-77536293D01*
X203793685Y-77423254D01*
X204275454Y-77101347D01*
X204495400Y-76772174D01*
X204715346Y-77101347D01*
X204715346Y-77101347D01*
G37*
X204715346Y-77101347D02*
X205197115Y-77423254D01*
X205765400Y-77536293D01*
X206129449Y-77463879D01*
X207410985Y-78745415D01*
X207658195Y-78910596D01*
X207949800Y-78968600D01*
X216828970Y-78968600D01*
X217951984Y-80091615D01*
X218101136Y-80191275D01*
X218199195Y-80256796D01*
X218490800Y-80314800D01*
X220969170Y-80314800D01*
X221566069Y-80911700D01*
X213080600Y-80911700D01*
X212788995Y-80969704D01*
X212541784Y-81134885D01*
X208280000Y-85396670D01*
X208280000Y-84139211D01*
X208284792Y-84134427D01*
X208427438Y-83790899D01*
X208427762Y-83418933D01*
X208285717Y-83075157D01*
X208022927Y-82811908D01*
X207679399Y-82669262D01*
X207307433Y-82668938D01*
X206963657Y-82810983D01*
X206700408Y-83073773D01*
X206557762Y-83417301D01*
X206557438Y-83789267D01*
X206699483Y-84133043D01*
X206705200Y-84138770D01*
X206705200Y-84301812D01*
X206362740Y-84159611D01*
X206024468Y-84159316D01*
X199870576Y-78005424D01*
X199615125Y-77834737D01*
X199313800Y-77774800D01*
X192324752Y-77774800D01*
X191605833Y-77055881D01*
X191795400Y-76772174D01*
X192015346Y-77101347D01*
X192497115Y-77423254D01*
X193065400Y-77536293D01*
X193633685Y-77423254D01*
X194115454Y-77101347D01*
X194335400Y-76772174D01*
X194555346Y-77101347D01*
X195037115Y-77423254D01*
X195605400Y-77536293D01*
X196173685Y-77423254D01*
X196655454Y-77101347D01*
X196875400Y-76772174D01*
X197095346Y-77101347D01*
X197577115Y-77423254D01*
X198145400Y-77536293D01*
X198713685Y-77423254D01*
X199195454Y-77101347D01*
X199415400Y-76772174D01*
X199635346Y-77101347D01*
X200117115Y-77423254D01*
X200685400Y-77536293D01*
X201253685Y-77423254D01*
X201735454Y-77101347D01*
X201955400Y-76772174D01*
X202175346Y-77101347D01*
X202657115Y-77423254D01*
X203225400Y-77536293D01*
X203793685Y-77423254D01*
X204275454Y-77101347D01*
X204495400Y-76772174D01*
X204715346Y-77101347D01*
G36*
X188112400Y-75895200D02*
X188132400Y-75895200D01*
X188132400Y-76149200D01*
X188112400Y-76149200D01*
X188112400Y-77342355D01*
X188342290Y-77463676D01*
X188752324Y-77293845D01*
X189180583Y-76903558D01*
X189247698Y-76760647D01*
X189475346Y-77101347D01*
X189781092Y-77305640D01*
X189797937Y-77390325D01*
X189968624Y-77645776D01*
X191441824Y-79118976D01*
X191697275Y-79289663D01*
X191998600Y-79349600D01*
X198987648Y-79349600D01*
X199487880Y-79849832D01*
X199361125Y-79765137D01*
X199059800Y-79705200D01*
X189082257Y-79705200D01*
X189118989Y-79616740D01*
X189119409Y-79135372D01*
X188935586Y-78690486D01*
X188595505Y-78349810D01*
X188150940Y-78165211D01*
X187812668Y-78164916D01*
X187502800Y-77855048D01*
X187502800Y-77411608D01*
X187628510Y-77463676D01*
X187858400Y-77342355D01*
X187858400Y-76149200D01*
X187838400Y-76149200D01*
X187838400Y-75895200D01*
X187858400Y-75895200D01*
X187858400Y-75875200D01*
X188112400Y-75875200D01*
X188112400Y-75895200D01*
X188112400Y-75895200D01*
G37*
X188112400Y-75895200D02*
X188132400Y-75895200D01*
X188132400Y-76149200D01*
X188112400Y-76149200D01*
X188112400Y-77342355D01*
X188342290Y-77463676D01*
X188752324Y-77293845D01*
X189180583Y-76903558D01*
X189247698Y-76760647D01*
X189475346Y-77101347D01*
X189781092Y-77305640D01*
X189797937Y-77390325D01*
X189968624Y-77645776D01*
X191441824Y-79118976D01*
X191697275Y-79289663D01*
X191998600Y-79349600D01*
X198987648Y-79349600D01*
X199487880Y-79849832D01*
X199361125Y-79765137D01*
X199059800Y-79705200D01*
X189082257Y-79705200D01*
X189118989Y-79616740D01*
X189119409Y-79135372D01*
X188935586Y-78690486D01*
X188595505Y-78349810D01*
X188150940Y-78165211D01*
X187812668Y-78164916D01*
X187502800Y-77855048D01*
X187502800Y-77411608D01*
X187628510Y-77463676D01*
X187858400Y-77342355D01*
X187858400Y-76149200D01*
X187838400Y-76149200D01*
X187838400Y-75895200D01*
X187858400Y-75895200D01*
X187858400Y-75875200D01*
X188112400Y-75875200D01*
X188112400Y-75895200D01*
G36*
X208432400Y-75895200D02*
X208452400Y-75895200D01*
X208452400Y-76149200D01*
X208432400Y-76149200D01*
X208432400Y-76169200D01*
X208178400Y-76169200D01*
X208178400Y-76149200D01*
X208158400Y-76149200D01*
X208158400Y-75895200D01*
X208178400Y-75895200D01*
X208178400Y-75875200D01*
X208432400Y-75875200D01*
X208432400Y-75895200D01*
X208432400Y-75895200D01*
G37*
X208432400Y-75895200D02*
X208452400Y-75895200D01*
X208452400Y-76149200D01*
X208432400Y-76149200D01*
X208432400Y-76169200D01*
X208178400Y-76169200D01*
X208178400Y-76149200D01*
X208158400Y-76149200D01*
X208158400Y-75895200D01*
X208178400Y-75895200D01*
X208178400Y-75875200D01*
X208432400Y-75875200D01*
X208432400Y-75895200D01*
G36*
X183032400Y-73355200D02*
X183052400Y-73355200D01*
X183052400Y-73609200D01*
X183032400Y-73609200D01*
X183032400Y-73629200D01*
X182778400Y-73629200D01*
X182778400Y-73609200D01*
X182758400Y-73609200D01*
X182758400Y-73355200D01*
X182778400Y-73355200D01*
X182778400Y-73335200D01*
X183032400Y-73335200D01*
X183032400Y-73355200D01*
X183032400Y-73355200D01*
G37*
X183032400Y-73355200D02*
X183052400Y-73355200D01*
X183052400Y-73609200D01*
X183032400Y-73609200D01*
X183032400Y-73629200D01*
X182778400Y-73629200D01*
X182778400Y-73609200D01*
X182758400Y-73609200D01*
X182758400Y-73355200D01*
X182778400Y-73355200D01*
X182778400Y-73335200D01*
X183032400Y-73335200D01*
X183032400Y-73355200D01*
M02*
