G04 #@! TF.FileFunction,Copper,L1,Top,Signal*
%FSLAX46Y46*%
G04 Gerber Fmt 4.6, Leading zero omitted, Abs format (unit mm)*
G04 Created by KiCad (PCBNEW 4.0.7) date 09/04/18 15:15:37*
%MOMM*%
%LPD*%
G01*
G04 APERTURE LIST*
%ADD10C,0.100000*%
%ADD11R,0.508000X1.143000*%
%ADD12C,3.810000*%
%ADD13R,1.524000X1.524000*%
%ADD14C,1.524000*%
%ADD15R,0.600000X2.000000*%
%ADD16C,2.500000*%
%ADD17C,3.000000*%
%ADD18R,1.700000X1.700000*%
%ADD19O,1.700000X1.700000*%
%ADD20R,2.500000X1.800000*%
%ADD21R,1.727200X1.727200*%
%ADD22O,1.727200X1.727200*%
%ADD23R,3.500000X3.500000*%
%ADD24R,1.000000X1.600000*%
%ADD25R,1.600000X1.000000*%
%ADD26C,5.400000*%
%ADD27R,0.900000X0.800000*%
%ADD28R,2.000000X1.700000*%
%ADD29R,1.700000X2.000000*%
%ADD30R,1.500000X0.600000*%
%ADD31C,0.600000*%
%ADD32C,1.150000*%
%ADD33C,0.304800*%
%ADD34C,0.254000*%
%ADD35C,0.635000*%
%ADD36C,1.270000*%
G04 APERTURE END LIST*
D10*
D11*
X185851800Y-97231200D03*
X188391800Y-97231200D03*
X189661800Y-97231200D03*
X190931800Y-97231200D03*
X192201800Y-97231200D03*
X193471800Y-97231200D03*
X194741800Y-97231200D03*
X194741800Y-103581200D03*
X193471800Y-103581200D03*
X192201800Y-103581200D03*
X190931800Y-103581200D03*
X189661800Y-103581200D03*
X188391800Y-103581200D03*
X187121800Y-103581200D03*
X185851800Y-103581200D03*
X187121800Y-97231200D03*
D12*
X165735000Y-74676000D03*
X140716000Y-74676000D03*
D13*
X158750000Y-76073000D03*
D14*
X155956000Y-76073000D03*
X153289000Y-76073000D03*
X150495000Y-76073000D03*
X147828000Y-76073000D03*
X157353000Y-73279000D03*
X154559000Y-73279000D03*
X151892000Y-73279000D03*
X149098000Y-73279000D03*
D15*
X216281000Y-79996300D03*
X215011000Y-79996300D03*
X213741000Y-79996300D03*
X212471000Y-79996300D03*
X211201000Y-79996300D03*
X209931000Y-79996300D03*
X208661000Y-79996300D03*
X207391000Y-79996300D03*
X206121000Y-79996300D03*
X204851000Y-79996300D03*
X203581000Y-79996300D03*
X202311000Y-79996300D03*
X201041000Y-79996300D03*
X199771000Y-79996300D03*
X199771000Y-89396300D03*
X201041000Y-89396300D03*
X202311000Y-89396300D03*
X203581000Y-89396300D03*
X204851000Y-89396300D03*
X206121000Y-89396300D03*
X207391000Y-89396300D03*
X208661000Y-89396300D03*
X209931000Y-89396300D03*
X211201000Y-89396300D03*
X212471000Y-89396300D03*
X213741000Y-89396300D03*
X215011000Y-89396300D03*
X216281000Y-89396300D03*
D16*
X153970000Y-91993000D03*
D17*
X153970000Y-104193000D03*
X166020000Y-104243000D03*
D16*
X165970000Y-91993000D03*
D17*
X160020000Y-90043000D03*
D18*
X177825400Y-73482200D03*
D19*
X177825400Y-76022200D03*
X180365400Y-73482200D03*
X180365400Y-76022200D03*
X182905400Y-73482200D03*
X182905400Y-76022200D03*
X185445400Y-73482200D03*
X185445400Y-76022200D03*
X187985400Y-73482200D03*
X187985400Y-76022200D03*
X190525400Y-73482200D03*
X190525400Y-76022200D03*
X193065400Y-73482200D03*
X193065400Y-76022200D03*
X195605400Y-73482200D03*
X195605400Y-76022200D03*
X198145400Y-73482200D03*
X198145400Y-76022200D03*
X200685400Y-73482200D03*
X200685400Y-76022200D03*
X203225400Y-73482200D03*
X203225400Y-76022200D03*
X205765400Y-73482200D03*
X205765400Y-76022200D03*
X208305400Y-73482200D03*
X208305400Y-76022200D03*
X210845400Y-73482200D03*
X210845400Y-76022200D03*
X213385400Y-73482200D03*
X213385400Y-76022200D03*
X215925400Y-73482200D03*
X215925400Y-76022200D03*
X218465400Y-73482200D03*
X218465400Y-76022200D03*
X221005400Y-73482200D03*
X221005400Y-76022200D03*
X223545400Y-73482200D03*
X223545400Y-76022200D03*
X226085400Y-73482200D03*
X226085400Y-76022200D03*
D20*
X162592000Y-85090000D03*
X166592000Y-85090000D03*
D21*
X159105600Y-113385600D03*
D22*
X159105600Y-115925600D03*
X156565600Y-113385600D03*
X156565600Y-115925600D03*
X154025600Y-113385600D03*
X154025600Y-115925600D03*
X151485600Y-113385600D03*
X151485600Y-115925600D03*
D23*
X146151600Y-104114600D03*
X140151600Y-104114600D03*
X143151600Y-108814600D03*
D24*
X183031000Y-106095800D03*
X186031000Y-106095800D03*
D25*
X183032400Y-101703000D03*
X183032400Y-98703000D03*
D24*
X188212600Y-106121200D03*
X191212600Y-106121200D03*
D25*
X226542600Y-93191200D03*
X226542600Y-96191200D03*
D18*
X194868800Y-81462880D03*
D19*
X194868800Y-84002880D03*
X194868800Y-86542880D03*
X194868800Y-89082880D03*
D23*
X146202400Y-92049600D03*
X140202400Y-92049600D03*
X143202400Y-96749600D03*
D21*
X194360800Y-112674400D03*
D22*
X194360800Y-115214400D03*
X191820800Y-112674400D03*
X191820800Y-115214400D03*
X189280800Y-112674400D03*
X189280800Y-115214400D03*
X186740800Y-112674400D03*
X186740800Y-115214400D03*
X184200800Y-112674400D03*
X184200800Y-115214400D03*
D21*
X221030800Y-113131600D03*
D22*
X221030800Y-115671600D03*
X218490800Y-113131600D03*
X218490800Y-115671600D03*
X215950800Y-113131600D03*
X215950800Y-115671600D03*
X213410800Y-113131600D03*
X213410800Y-115671600D03*
X210870800Y-113131600D03*
X210870800Y-115671600D03*
D26*
X172923200Y-123799600D03*
X230911400Y-123799600D03*
X134429500Y-123825000D03*
X230911400Y-74803000D03*
X134594600Y-74803000D03*
X172923200Y-74803000D03*
D27*
X171561000Y-83398400D03*
X171561000Y-81498400D03*
X169561000Y-82448400D03*
D28*
X154514300Y-84086700D03*
X150514300Y-84086700D03*
X154438100Y-79895700D03*
X150438100Y-79895700D03*
D29*
X170535600Y-85884000D03*
X170535600Y-89884000D03*
D30*
X223603800Y-101053900D03*
X223603800Y-99783900D03*
X223603800Y-98513900D03*
X223603800Y-97243900D03*
X223603800Y-95973900D03*
X223603800Y-94703900D03*
X223603800Y-93433900D03*
X218203800Y-93433900D03*
X218203800Y-94703900D03*
X218203800Y-95973900D03*
X218203800Y-97243900D03*
X218203800Y-98513900D03*
X218203800Y-99783900D03*
X218203800Y-101053900D03*
D24*
X143559400Y-84112100D03*
X146559400Y-84112100D03*
X143546700Y-79946500D03*
X146546700Y-79946500D03*
D18*
X196977000Y-93243400D03*
D19*
X199517000Y-93243400D03*
D28*
X165716200Y-115265200D03*
X169716200Y-115265200D03*
D18*
X179298600Y-84404200D03*
D19*
X179298600Y-86944200D03*
X179298600Y-89484200D03*
D18*
X182905400Y-89458800D03*
D19*
X182905400Y-86918800D03*
X185445400Y-89458800D03*
X185445400Y-86918800D03*
X187985400Y-89458800D03*
X187985400Y-86918800D03*
D31*
X204851000Y-82105500D03*
X197688200Y-105130600D03*
X207645000Y-101322000D03*
X220853000Y-80645000D03*
X187109100Y-101866700D03*
X192062100Y-101841300D03*
X203593700Y-91325700D03*
X216890600Y-101041200D03*
X168148000Y-80568800D03*
X169189400Y-77241400D03*
X201472800Y-84277200D03*
X206123540Y-85369400D03*
X204851000Y-85979000D03*
X217220800Y-119786400D03*
D32*
X161493200Y-113639600D03*
D31*
X231546400Y-81838800D03*
X173228000Y-90017600D03*
X172440600Y-90627200D03*
X207543400Y-87376000D03*
X208661000Y-87553800D03*
X209956400Y-87274400D03*
X220573600Y-118948200D03*
X211099400Y-86106000D03*
X229946200Y-83108800D03*
X210794600Y-92100400D03*
X218160600Y-90982800D03*
X198983600Y-99745800D03*
X201599800Y-96380300D03*
X206222600Y-95465900D03*
X207492600Y-83604100D03*
X212471000Y-100025200D03*
X202780900Y-105232200D03*
X209727800Y-102781100D03*
X214503000Y-92710000D03*
X210769200Y-93116400D03*
X216281000Y-87439500D03*
X206375000Y-96316800D03*
X204063600Y-96316800D03*
X222123000Y-97142300D03*
X218592400Y-103873300D03*
X221945200Y-99783900D03*
X216484200Y-93421200D03*
X216433400Y-95986600D03*
D33*
X106767150Y-122832650D02*
X106660950Y-122726450D01*
D34*
X104167150Y-122772650D02*
X104120950Y-122726450D01*
D33*
X183031000Y-106095800D02*
X183946800Y-106095800D01*
X185851800Y-104190800D02*
X185851800Y-103581200D01*
X183946800Y-106095800D02*
X185851800Y-104190800D01*
X186031000Y-106095800D02*
X186031000Y-105357800D01*
X186031000Y-105357800D02*
X186563000Y-104825800D01*
X186563000Y-104825800D02*
X188061600Y-104825800D01*
X188061600Y-104825800D02*
X188391800Y-104495600D01*
X188391800Y-104495600D02*
X188391800Y-103581200D01*
X202311000Y-89396300D02*
X202311000Y-87630000D01*
X201922248Y-87241248D02*
X200977500Y-87241248D01*
X202311000Y-87630000D02*
X201922248Y-87241248D01*
X199771000Y-87757000D02*
X200286752Y-87241248D01*
X200977500Y-87241248D02*
X200286752Y-87241248D01*
X199771000Y-87757000D02*
X199771000Y-89396300D01*
X201041000Y-87241248D02*
X201041000Y-85915500D01*
X201041000Y-85915500D02*
X204851000Y-82105500D01*
X223603800Y-93433900D02*
X226299900Y-93433900D01*
X226299900Y-93433900D02*
X226542600Y-93191200D01*
X200977500Y-87241248D02*
X201041000Y-87241248D01*
X201041000Y-89396300D02*
X201041000Y-87241248D01*
X204851000Y-82105500D02*
X204851000Y-79996300D01*
X143546700Y-84099400D02*
X143559400Y-84112100D01*
X185851800Y-97231200D02*
X185851800Y-98933000D01*
X196977000Y-98005900D02*
X196977000Y-93243400D01*
X195453000Y-99529900D02*
X196977000Y-98005900D01*
X186448700Y-99529900D02*
X195453000Y-99529900D01*
X185851800Y-98933000D02*
X186448700Y-99529900D01*
X183032400Y-98703000D02*
X183032400Y-97891600D01*
X183692800Y-97231200D02*
X185851800Y-97231200D01*
X183032400Y-97891600D02*
X183692800Y-97231200D01*
X188212600Y-106121200D02*
X189255400Y-106121200D01*
X189661800Y-105714800D02*
X189661800Y-103581200D01*
X189255400Y-106121200D02*
X189661800Y-105714800D01*
X190931800Y-103581200D02*
X190931800Y-105840400D01*
X190931800Y-105840400D02*
X191212600Y-106121200D01*
X187121800Y-101879400D02*
X187121800Y-103581200D01*
X187109100Y-101866700D02*
X187121800Y-101879400D01*
X192201800Y-101981000D02*
X192201800Y-103581200D01*
X192062100Y-101841300D02*
X192201800Y-101981000D01*
X161391600Y-78460600D02*
X175387000Y-78460600D01*
X175387000Y-78460600D02*
X177825400Y-76022200D01*
X154514300Y-84086700D02*
X155765500Y-84086700D01*
X155765500Y-84086700D02*
X161391600Y-78460600D01*
X194868800Y-81462880D02*
X194868800Y-79298800D01*
X194868800Y-79298800D02*
X198145400Y-76022200D01*
D35*
X198145400Y-76022200D02*
X200202800Y-78079600D01*
X206121000Y-78638400D02*
X205562200Y-78079600D01*
X206121000Y-78638400D02*
X206121000Y-79996300D01*
X200202800Y-78079600D02*
X205562200Y-78079600D01*
D33*
X199517000Y-93243400D02*
X201676000Y-93243400D01*
X201676000Y-93243400D02*
X203593700Y-91325700D01*
D34*
X203581000Y-91313000D02*
X203593700Y-91325700D01*
X216890600Y-101041200D02*
X216890600Y-101053900D01*
X216890600Y-101053900D02*
X216877900Y-101041200D01*
X218203800Y-101053900D02*
X216890600Y-101053900D01*
D33*
X226466400Y-97688400D02*
X226466400Y-96267400D01*
D34*
X226466400Y-96267400D02*
X226542600Y-96191200D01*
D33*
X218203800Y-101053900D02*
X218203800Y-102125800D01*
X218203800Y-102125800D02*
X218554300Y-102476300D01*
X218554300Y-102476300D02*
X225844100Y-102476300D01*
X225844100Y-102476300D02*
X226466400Y-101854000D01*
X226466400Y-101854000D02*
X226466400Y-97688400D01*
X226466400Y-97688400D02*
X226466400Y-97612200D01*
D35*
X203581000Y-87553800D02*
X203581000Y-85725000D01*
X203581000Y-89396300D02*
X203581000Y-87553800D01*
X206121000Y-81813400D02*
X206121000Y-79996300D01*
X206121000Y-83185000D02*
X206121000Y-81813400D01*
X203581000Y-85725000D02*
X206121000Y-83185000D01*
D34*
X203581000Y-89396300D02*
X203581000Y-91313000D01*
D33*
X177825400Y-73482200D02*
X175615600Y-71272400D01*
X170370500Y-71272400D02*
X169926000Y-71716900D01*
X175615600Y-71272400D02*
X170370500Y-71272400D01*
X169926000Y-71716900D02*
X169164000Y-72478900D01*
X162592000Y-83153000D02*
X162592000Y-85090000D01*
X165176200Y-80568800D02*
X162592000Y-83153000D01*
X168148000Y-80568800D02*
X165176200Y-80568800D01*
X162592000Y-85090000D02*
X162592000Y-88615000D01*
X162592000Y-88615000D02*
X165970000Y-91993000D01*
X169164000Y-77216000D02*
X169189400Y-77241400D01*
X169024300Y-77076300D02*
X169164000Y-77216000D01*
X169164000Y-72478900D02*
X169164000Y-77216000D01*
X160743900Y-77076300D02*
X169024300Y-77076300D01*
X154438100Y-79895700D02*
X157924500Y-79895700D01*
X157924500Y-79895700D02*
X160743900Y-77076300D01*
X169561000Y-82448400D02*
X167614600Y-82448400D01*
X166592000Y-83471000D02*
X166592000Y-85090000D01*
X167614600Y-82448400D02*
X166592000Y-83471000D01*
X153970000Y-91993000D02*
X156871400Y-94894400D01*
X166592000Y-86912200D02*
X166592000Y-85090000D01*
X168325800Y-88646000D02*
X166592000Y-86912200D01*
X168325800Y-93141800D02*
X168325800Y-88646000D01*
X166573200Y-94894400D02*
X168325800Y-93141800D01*
X156871400Y-94894400D02*
X166573200Y-94894400D01*
X180365400Y-76022200D02*
X183642000Y-79298800D01*
X187624720Y-79298800D02*
X194868800Y-86542880D01*
X187528200Y-79298800D02*
X187624720Y-79298800D01*
X183642000Y-79298800D02*
X187528200Y-79298800D01*
X194868800Y-86542880D02*
X198125080Y-86542880D01*
X201041000Y-83626960D02*
X201041000Y-79996300D01*
X198125080Y-86542880D02*
X201041000Y-83626960D01*
X182905400Y-76022200D02*
X185547000Y-78663800D01*
X189529720Y-78663800D02*
X194868800Y-84002880D01*
X185547000Y-78663800D02*
X189529720Y-78663800D01*
X202311000Y-79996300D02*
X202311000Y-83439000D01*
X202311000Y-83439000D02*
X201472800Y-84277200D01*
X206121000Y-85369400D02*
X206121000Y-89396300D01*
X204851000Y-85979000D02*
X204851000Y-89396300D01*
X171561000Y-83398400D02*
X170809880Y-83398400D01*
X170535600Y-83672680D02*
X170535600Y-85884000D01*
X170809880Y-83398400D02*
X170535600Y-83672680D01*
X190525400Y-73482200D02*
X188549280Y-71506080D01*
X172943480Y-83398400D02*
X171561000Y-83398400D01*
X179097940Y-77243940D02*
X172943480Y-83398400D01*
X179097940Y-72544940D02*
X179097940Y-77243940D01*
X180136800Y-71506080D02*
X179097940Y-72544940D01*
X188549280Y-71506080D02*
X180136800Y-71506080D01*
X170535600Y-85884000D02*
X170535600Y-85293200D01*
D34*
X217220800Y-114300000D02*
X216052400Y-113131600D01*
X217220800Y-119786400D02*
X217220800Y-114300000D01*
X216052400Y-113131600D02*
X215950800Y-113131600D01*
X222250000Y-77063600D02*
X222250000Y-74980800D01*
X222250000Y-77063600D02*
X223951800Y-78765400D01*
X223951800Y-78765400D02*
X231520998Y-78765400D01*
X231520998Y-78765400D02*
X233095798Y-80340200D01*
X233095798Y-80340200D02*
X233095798Y-115316000D01*
X233095798Y-115316000D02*
X226771198Y-121640600D01*
X226745800Y-121665998D02*
X226771198Y-121640600D01*
X179120798Y-121665998D02*
X226745800Y-121665998D01*
X222250000Y-74980800D02*
X222021400Y-74752200D01*
X222021400Y-74752200D02*
X201955400Y-74752200D01*
X201955400Y-74752200D02*
X200685400Y-76022200D01*
X222250000Y-74955400D02*
X222250000Y-74980800D01*
X171094400Y-113639600D02*
X179120798Y-121665998D01*
X168554400Y-113639600D02*
X171094400Y-113639600D01*
X168579800Y-113639600D02*
X168554400Y-113639600D01*
X168554400Y-113639600D02*
X161493200Y-113639600D01*
X221488000Y-77368400D02*
X216839800Y-77368400D01*
X216839800Y-77368400D02*
X216763600Y-77368400D01*
X216763600Y-77368400D02*
X204571600Y-77368400D01*
X203225400Y-76022200D02*
X204571600Y-77368400D01*
X231190800Y-79298800D02*
X223418400Y-79298800D01*
X223418400Y-79298800D02*
X221488000Y-77368400D01*
X232486200Y-115207174D02*
X232486200Y-80594200D01*
X232486200Y-80594200D02*
X231190800Y-79298800D01*
X226636974Y-121056400D02*
X232486200Y-115207174D01*
X179273200Y-121056400D02*
X226636974Y-121056400D01*
X171297600Y-113080800D02*
X179273200Y-121056400D01*
X168757600Y-113080800D02*
X171297600Y-113080800D01*
X163144200Y-113080800D02*
X168757600Y-113080800D01*
X155956000Y-111455200D02*
X161518600Y-111455200D01*
X161518600Y-111455200D02*
X163144200Y-113080800D01*
X155956000Y-111455200D02*
X154025600Y-113385600D01*
X226136202Y-120548398D02*
X179527198Y-120548398D01*
X156565600Y-115925600D02*
X153187400Y-119303800D01*
X152120600Y-119303800D02*
X153187400Y-119303800D01*
X149555200Y-116738400D02*
X152120600Y-119303800D01*
X149555200Y-112318800D02*
X149555200Y-116738400D01*
X151028400Y-110845600D02*
X149555200Y-112318800D01*
X161671000Y-110845600D02*
X151028400Y-110845600D01*
X163245800Y-112420400D02*
X161671000Y-110845600D01*
X168859200Y-112420400D02*
X163245800Y-112420400D01*
X231856675Y-114827925D02*
X226136202Y-120548398D01*
X231856675Y-82149075D02*
X231856675Y-114827925D01*
X231546400Y-81838800D02*
X231856675Y-82149075D01*
X171399200Y-112420400D02*
X168859200Y-112420400D01*
X179527198Y-120548398D02*
X171399200Y-112420400D01*
X224815400Y-72542400D02*
X224815400Y-77038200D01*
X223774000Y-71501000D02*
X224815400Y-72542400D01*
X205765400Y-73482200D02*
X207746600Y-71501000D01*
X207924400Y-71501000D02*
X223774000Y-71501000D01*
X207924400Y-71501000D02*
X207746600Y-71501000D01*
X224815400Y-77038200D02*
X225983800Y-78206600D01*
X225983800Y-78206600D02*
X231749600Y-78206600D01*
X231749600Y-78206600D02*
X233603800Y-80060800D01*
X233603800Y-80060800D02*
X233603800Y-115722400D01*
X169716200Y-115265200D02*
X171907200Y-115265200D01*
X171907200Y-115265200D02*
X178816000Y-122174000D01*
X178816000Y-122174000D02*
X227152200Y-122174000D01*
X233603800Y-115722400D02*
X227152200Y-122174000D01*
D33*
X189661800Y-95732600D02*
X189661800Y-97231200D01*
X188366400Y-94437200D02*
X189661800Y-95732600D01*
X177647600Y-94437200D02*
X188366400Y-94437200D01*
X173228000Y-90017600D02*
X177647600Y-94437200D01*
X188391800Y-97231200D02*
X188391800Y-95808800D01*
X177165000Y-95351600D02*
X172440600Y-90627200D01*
X187934600Y-95351600D02*
X177165000Y-95351600D01*
X188391800Y-95808800D02*
X187934600Y-95351600D01*
D36*
X146202400Y-92049600D02*
X150317200Y-87934800D01*
X157911800Y-87934800D02*
X160020000Y-90043000D01*
X150317200Y-87934800D02*
X157911800Y-87934800D01*
X146202400Y-92049600D02*
X146202400Y-93218000D01*
X140151600Y-104114600D02*
X140151600Y-108260400D01*
X140705800Y-108814600D02*
X143151600Y-108814600D01*
X140151600Y-108260400D02*
X140705800Y-108814600D01*
X140437600Y-96749600D02*
X139446000Y-95758000D01*
X139446000Y-95758000D02*
X139446000Y-92806000D01*
X143202400Y-96749600D02*
X140437600Y-96749600D01*
X139446000Y-92806000D02*
X140202400Y-92049600D01*
X143202400Y-96749600D02*
X143202400Y-101063800D01*
X143202400Y-101063800D02*
X140151600Y-104114600D01*
X146151600Y-104114600D02*
X153891600Y-104114600D01*
X153891600Y-104114600D02*
X153970000Y-104193000D01*
X146151600Y-104114600D02*
X146862800Y-104114600D01*
D34*
X207391000Y-89396300D02*
X207391000Y-87528400D01*
X207391000Y-87528400D02*
X207543400Y-87376000D01*
X208661000Y-89396300D02*
X208661000Y-87553800D01*
X218490800Y-113131600D02*
X219760800Y-114401600D01*
X209931000Y-87299800D02*
X209931000Y-89396300D01*
X209956400Y-87274400D02*
X209931000Y-87299800D01*
X219760800Y-118135400D02*
X220573600Y-118948200D01*
X219760800Y-114401600D02*
X219760800Y-118135400D01*
X209931000Y-89396300D02*
X209905600Y-89370900D01*
X231212588Y-114753588D02*
X231212588Y-84375188D01*
X211201000Y-86207600D02*
X211201000Y-89396300D01*
X211099400Y-86106000D02*
X211201000Y-86207600D01*
X231212588Y-84375188D02*
X229946200Y-83108800D01*
X218490800Y-115671600D02*
X218490800Y-118694200D01*
X225967488Y-119998688D02*
X231212588Y-114753588D01*
X231212588Y-114753588D02*
X231216200Y-114749976D01*
X219795288Y-119998688D02*
X225967488Y-119998688D01*
X218490800Y-118694200D02*
X219795288Y-119998688D01*
X211074000Y-89269300D02*
X211201000Y-89396300D01*
X216281000Y-79996300D02*
X217867500Y-79996300D01*
X222326200Y-95973900D02*
X223603800Y-95973900D01*
X221996000Y-95643700D02*
X222326200Y-95973900D01*
X221996000Y-86398100D02*
X221996000Y-95643700D01*
X221996000Y-86398100D02*
X221996000Y-85711300D01*
X221996000Y-84124800D02*
X221996000Y-85711300D01*
X217867500Y-79996300D02*
X221996000Y-84124800D01*
X215011000Y-79996300D02*
X215011000Y-81559400D01*
X221411800Y-86779100D02*
X221411800Y-97497900D01*
X221411800Y-97497900D02*
X222427800Y-98513900D01*
X222427800Y-98513900D02*
X223603800Y-98513900D01*
X221411800Y-86144100D02*
X221411800Y-86779100D01*
X217220800Y-81953100D02*
X221411800Y-86144100D01*
X216027000Y-81953100D02*
X217220800Y-81953100D01*
X215404700Y-81953100D02*
X216027000Y-81953100D01*
X215011000Y-81559400D02*
X215404700Y-81953100D01*
X215468200Y-82562700D02*
X214718900Y-82562700D01*
X213741000Y-81584800D02*
X213741000Y-79996300D01*
X214718900Y-82562700D02*
X213741000Y-81584800D01*
X215417574Y-82562700D02*
X215468200Y-82562700D01*
X215468200Y-82562700D02*
X216712800Y-82562700D01*
X216712800Y-82562700D02*
X220827600Y-86677500D01*
X220827600Y-86677500D02*
X220827600Y-99783900D01*
X220827600Y-99783900D02*
X222097600Y-101053900D01*
X222097600Y-101053900D02*
X223603800Y-101053900D01*
X214807800Y-83146900D02*
X213652100Y-83146900D01*
X212471000Y-81965800D02*
X212471000Y-79996300D01*
X213652100Y-83146900D02*
X212471000Y-81965800D01*
X218203800Y-99783900D02*
X218432400Y-100012500D01*
X218432400Y-100012500D02*
X219862400Y-100012500D01*
X219862400Y-100012500D02*
X220218000Y-99656900D01*
X220218000Y-87464900D02*
X220218000Y-99656900D01*
X220218000Y-86858166D02*
X220218000Y-87464900D01*
X216506734Y-83146900D02*
X220218000Y-86858166D01*
X214782400Y-83146900D02*
X214807800Y-83146900D01*
X214807800Y-83146900D02*
X216506734Y-83146900D01*
X211201000Y-79996300D02*
X211201000Y-81610200D01*
X219659198Y-87312498D02*
X216077800Y-83731100D01*
X216077800Y-83731100D02*
X214122000Y-83731100D01*
X219659198Y-87312498D02*
X219659198Y-88049100D01*
X213321900Y-83731100D02*
X214122000Y-83731100D01*
X211201000Y-81610200D02*
X213321900Y-83731100D01*
D33*
X211201000Y-80810100D02*
X211201000Y-79996300D01*
D34*
X219659198Y-88049100D02*
X219659198Y-97066102D01*
X219481400Y-97243900D02*
X218203800Y-97243900D01*
X219659198Y-97066102D02*
X219481400Y-97243900D01*
X209931000Y-79996300D02*
X209931000Y-81788000D01*
X212471000Y-84328000D02*
X215811100Y-84328000D01*
X209931000Y-81788000D02*
X212471000Y-84328000D01*
X215252300Y-93941900D02*
X216014300Y-94703900D01*
X215252300Y-92735400D02*
X215252300Y-93941900D01*
X216027000Y-91960700D02*
X215252300Y-92735400D01*
X219049600Y-88785700D02*
X219049600Y-87566500D01*
X219049600Y-88785700D02*
X219049600Y-91528900D01*
X215811100Y-84328000D02*
X219024200Y-87541100D01*
X219049600Y-91528900D02*
X218617800Y-91960700D01*
X218617800Y-91960700D02*
X216560400Y-91960700D01*
X216560400Y-91960700D02*
X216027000Y-91960700D01*
X216014300Y-94703900D02*
X218203800Y-94703900D01*
X215798400Y-84315300D02*
X215811100Y-84328000D01*
X209931000Y-79996300D02*
X209931000Y-80848200D01*
X218160600Y-90982800D02*
X218160600Y-87591900D01*
X207543400Y-95351600D02*
X210794600Y-92100400D01*
X207543400Y-98399600D02*
X207543400Y-95351600D01*
X206197200Y-99745800D02*
X207543400Y-98399600D01*
X198983600Y-99745800D02*
X206197200Y-99745800D01*
X208661000Y-79996300D02*
X208661000Y-82219800D01*
X212166200Y-84886800D02*
X215455500Y-84886800D01*
X211328000Y-84886800D02*
X212166200Y-84886800D01*
X208661000Y-82219800D02*
X211328000Y-84886800D01*
D33*
X208661000Y-79996300D02*
X208661000Y-80632300D01*
D34*
X215455500Y-84886800D02*
X218141550Y-87572850D01*
X201599800Y-96380300D02*
X202514200Y-95465900D01*
X202514200Y-95465900D02*
X206222600Y-95465900D01*
X207492600Y-83604100D02*
X207391000Y-83502500D01*
X207391000Y-79996300D02*
X207391000Y-83502500D01*
X212471000Y-100025200D02*
X212471000Y-99961700D01*
X212471000Y-89396300D02*
X212471000Y-98920300D01*
X212471000Y-99961700D02*
X212471000Y-98920300D01*
X212471000Y-100050600D02*
X212471000Y-99961700D01*
X202895200Y-105346500D02*
X213017100Y-105346500D01*
X202780900Y-105232200D02*
X202895200Y-105346500D01*
X213017100Y-105346500D02*
X213741000Y-104622600D01*
X213741000Y-104622600D02*
X213741000Y-89396300D01*
X215011000Y-92202000D02*
X214503000Y-92710000D01*
X215011000Y-89396300D02*
X215011000Y-92202000D01*
X209727800Y-94157800D02*
X210769200Y-93116400D01*
X209727800Y-102781100D02*
X209727800Y-94157800D01*
X216281000Y-87439500D02*
X216281000Y-89396300D01*
X204063600Y-96316800D02*
X206375000Y-96316800D01*
X146559400Y-84112100D02*
X150781000Y-84112100D01*
X146546700Y-79946500D02*
X150476200Y-79946500D01*
X162280600Y-114655600D02*
X162890200Y-115265200D01*
X162890200Y-115265200D02*
X165716200Y-115265200D01*
X157835600Y-114655600D02*
X162280600Y-114655600D01*
X156565600Y-113385600D02*
X157835600Y-114655600D01*
X225298000Y-94703900D02*
X227418900Y-94703900D01*
X228498400Y-100672900D02*
X226060000Y-103111300D01*
X228498400Y-95783400D02*
X228498400Y-100672900D01*
X227418900Y-94703900D02*
X228498400Y-95783400D01*
X214172800Y-106692700D02*
X217754200Y-103111300D01*
X208902300Y-111963200D02*
X214172800Y-106692700D01*
X195973700Y-113931700D02*
X188074300Y-113931700D01*
X197942200Y-111963200D02*
X207441800Y-111963200D01*
X195973700Y-113931700D02*
X197942200Y-111963200D01*
X207441800Y-111963200D02*
X208902300Y-111963200D01*
X217754200Y-103111300D02*
X226060000Y-103111300D01*
X223603800Y-94703900D02*
X225298000Y-94703900D01*
X225298000Y-94703900D02*
X225348800Y-94703900D01*
X186740800Y-112674400D02*
X186817000Y-112674400D01*
X186817000Y-112674400D02*
X188074300Y-113931700D01*
X188074300Y-113931700D02*
X188087000Y-113944400D01*
X222224600Y-97243900D02*
X223603800Y-97243900D01*
X222123000Y-97142300D02*
X222224600Y-97243900D01*
X184200800Y-112674400D02*
X182562500Y-114312700D01*
X182562500Y-116205000D02*
X183400700Y-117043200D01*
X182562500Y-114312700D02*
X182562500Y-116205000D01*
X214884000Y-106984800D02*
X217995500Y-103873300D01*
X217995500Y-103873300D02*
X218592400Y-103873300D01*
X204825600Y-117043200D02*
X214884000Y-106984800D01*
X183400700Y-117043200D02*
X204825600Y-117043200D01*
X223603800Y-99783900D02*
X221945200Y-99783900D01*
X184200800Y-112674400D02*
X184200800Y-112750600D01*
X216166700Y-99123500D02*
X216166700Y-103416100D01*
X216776300Y-98513900D02*
X216166700Y-99123500D01*
X218203800Y-98513900D02*
X216776300Y-98513900D01*
X216166700Y-103682800D02*
X216166700Y-103416100D01*
X216166700Y-103682800D02*
X213912450Y-105937050D01*
X207187800Y-111201200D02*
X208648300Y-111201200D01*
X208648300Y-111201200D02*
X213912450Y-105937050D01*
X213912450Y-105937050D02*
X213918800Y-105930700D01*
X185470800Y-114122200D02*
X184378600Y-115214400D01*
X185470800Y-114122200D02*
X185470800Y-111772700D01*
X185470800Y-111772700D02*
X186309000Y-111201200D01*
X186309000Y-111201200D02*
X207187800Y-111201200D01*
X184200800Y-115214400D02*
X184378600Y-115214400D01*
X216496900Y-93433900D02*
X216484200Y-93421200D01*
X216496900Y-93433900D02*
X218203800Y-93433900D01*
X216433400Y-95986600D02*
X216446100Y-95973900D01*
X216446100Y-95973900D02*
X218203800Y-95973900D01*
X218203800Y-95973900D02*
X218127600Y-96050100D01*
D33*
X179298600Y-89484200D02*
X182880000Y-89484200D01*
X182880000Y-89484200D02*
X182905400Y-89458800D01*
X179298600Y-86944200D02*
X182880000Y-86944200D01*
X182880000Y-86944200D02*
X182905400Y-86918800D01*
X187985400Y-89458800D02*
X190931800Y-92405200D01*
X190931800Y-92405200D02*
X190931800Y-97231200D01*
X187985400Y-86918800D02*
X192201800Y-91135200D01*
X192201800Y-91135200D02*
X192201800Y-97231200D01*
D34*
G36*
X234088000Y-73757782D02*
X233740324Y-72916342D01*
X232802993Y-71977373D01*
X231577683Y-71468580D01*
X230250938Y-71467422D01*
X229024742Y-71974076D01*
X228085773Y-72911407D01*
X227576980Y-74136717D01*
X227575822Y-75463462D01*
X228082476Y-76689658D01*
X228836101Y-77444600D01*
X226488346Y-77444600D01*
X226852324Y-77293845D01*
X227280583Y-76903558D01*
X227526886Y-76379092D01*
X227406219Y-76149200D01*
X226212400Y-76149200D01*
X226212400Y-76169200D01*
X225958400Y-76169200D01*
X225958400Y-76149200D01*
X225938400Y-76149200D01*
X225938400Y-75895200D01*
X225958400Y-75895200D01*
X225958400Y-75875200D01*
X226212400Y-75875200D01*
X226212400Y-75895200D01*
X227406219Y-75895200D01*
X227526886Y-75665308D01*
X227280583Y-75140842D01*
X226852324Y-74750555D01*
X226852299Y-74750545D01*
X227135454Y-74561347D01*
X227457361Y-74079578D01*
X227570400Y-73511293D01*
X227570400Y-73453107D01*
X227457361Y-72884822D01*
X227135454Y-72403053D01*
X226653685Y-72081146D01*
X226085400Y-71968107D01*
X225517115Y-72081146D01*
X225440324Y-72132456D01*
X225354215Y-72003585D01*
X224312815Y-70962185D01*
X224293537Y-70949304D01*
X224065605Y-70797004D01*
X223774000Y-70739000D01*
X207746600Y-70739000D01*
X207454995Y-70797004D01*
X207227063Y-70949304D01*
X207207785Y-70962185D01*
X206129449Y-72040521D01*
X205765400Y-71968107D01*
X205197115Y-72081146D01*
X204715346Y-72403053D01*
X204495400Y-72732226D01*
X204275454Y-72403053D01*
X203793685Y-72081146D01*
X203225400Y-71968107D01*
X202657115Y-72081146D01*
X202175346Y-72403053D01*
X201947698Y-72743753D01*
X201880583Y-72600842D01*
X201452324Y-72210555D01*
X201042290Y-72040724D01*
X200812400Y-72162045D01*
X200812400Y-73355200D01*
X200832400Y-73355200D01*
X200832400Y-73609200D01*
X200812400Y-73609200D01*
X200812400Y-73629200D01*
X200558400Y-73629200D01*
X200558400Y-73609200D01*
X200538400Y-73609200D01*
X200538400Y-73355200D01*
X200558400Y-73355200D01*
X200558400Y-72162045D01*
X200328510Y-72040724D01*
X199918476Y-72210555D01*
X199490217Y-72600842D01*
X199423102Y-72743753D01*
X199195454Y-72403053D01*
X198713685Y-72081146D01*
X198145400Y-71968107D01*
X197577115Y-72081146D01*
X197095346Y-72403053D01*
X196875400Y-72732226D01*
X196655454Y-72403053D01*
X196173685Y-72081146D01*
X195605400Y-71968107D01*
X195037115Y-72081146D01*
X194555346Y-72403053D01*
X194327698Y-72743753D01*
X194260583Y-72600842D01*
X193832324Y-72210555D01*
X193422290Y-72040724D01*
X193192400Y-72162045D01*
X193192400Y-73355200D01*
X193212400Y-73355200D01*
X193212400Y-73609200D01*
X193192400Y-73609200D01*
X193192400Y-73629200D01*
X192938400Y-73629200D01*
X192938400Y-73609200D01*
X192918400Y-73609200D01*
X192918400Y-73355200D01*
X192938400Y-73355200D01*
X192938400Y-72162045D01*
X192708510Y-72040724D01*
X192298476Y-72210555D01*
X191870217Y-72600842D01*
X191803102Y-72743753D01*
X191575454Y-72403053D01*
X191093685Y-72081146D01*
X190525400Y-71968107D01*
X190191313Y-72034561D01*
X189106056Y-70949304D01*
X188850605Y-70778617D01*
X188549280Y-70718680D01*
X180136800Y-70718680D01*
X179835475Y-70778617D01*
X179580024Y-70949304D01*
X178544568Y-71984760D01*
X177441512Y-71984760D01*
X176172376Y-70715624D01*
X175916925Y-70544937D01*
X175615600Y-70485000D01*
X170370500Y-70485000D01*
X170069175Y-70544937D01*
X169813724Y-70715624D01*
X168607224Y-71922124D01*
X168436537Y-72177575D01*
X168376600Y-72478900D01*
X168376600Y-76288900D01*
X167565478Y-76288900D01*
X167902289Y-76093647D01*
X168279824Y-75156350D01*
X168269933Y-74145923D01*
X167902289Y-73258353D01*
X167541440Y-73049165D01*
X165914605Y-74676000D01*
X165928748Y-74690143D01*
X165749143Y-74869748D01*
X165735000Y-74855605D01*
X165720858Y-74869748D01*
X165541253Y-74690143D01*
X165555395Y-74676000D01*
X163928560Y-73049165D01*
X163567711Y-73258353D01*
X163190176Y-74195650D01*
X163200067Y-75206077D01*
X163567711Y-76093647D01*
X163904522Y-76288900D01*
X160743900Y-76288900D01*
X160442575Y-76348837D01*
X160187124Y-76519524D01*
X160159440Y-76547208D01*
X160159440Y-75311000D01*
X160115162Y-75075683D01*
X159976090Y-74859559D01*
X159763890Y-74714569D01*
X159512000Y-74663560D01*
X157988000Y-74663560D01*
X157752683Y-74707838D01*
X157536559Y-74846910D01*
X157391569Y-75059110D01*
X157340560Y-75311000D01*
X157340560Y-75765646D01*
X157141010Y-75282697D01*
X156748370Y-74889371D01*
X156235100Y-74676243D01*
X155679339Y-74675758D01*
X155165697Y-74887990D01*
X154772371Y-75280630D01*
X154622394Y-75641815D01*
X154474010Y-75282697D01*
X154081370Y-74889371D01*
X153568100Y-74676243D01*
X153012339Y-74675758D01*
X152498697Y-74887990D01*
X152105371Y-75280630D01*
X151892243Y-75793900D01*
X151892241Y-75796336D01*
X151680010Y-75282697D01*
X151287370Y-74889371D01*
X150774100Y-74676243D01*
X150218339Y-74675758D01*
X149704697Y-74887990D01*
X149311371Y-75280630D01*
X149168027Y-75625841D01*
X149050397Y-75341857D01*
X148808213Y-75272392D01*
X148007605Y-76073000D01*
X148808213Y-76873608D01*
X149050397Y-76804143D01*
X149159355Y-76498738D01*
X149309990Y-76863303D01*
X149702630Y-77256629D01*
X150215900Y-77469757D01*
X150771661Y-77470242D01*
X151285303Y-77258010D01*
X151678629Y-76865370D01*
X151891757Y-76352100D01*
X151891759Y-76349664D01*
X152103990Y-76863303D01*
X152496630Y-77256629D01*
X153009900Y-77469757D01*
X153565661Y-77470242D01*
X154079303Y-77258010D01*
X154472629Y-76865370D01*
X154622606Y-76504185D01*
X154770990Y-76863303D01*
X155163630Y-77256629D01*
X155676900Y-77469757D01*
X156232661Y-77470242D01*
X156746303Y-77258010D01*
X157139629Y-76865370D01*
X157340560Y-76381474D01*
X157340560Y-76835000D01*
X157384838Y-77070317D01*
X157523910Y-77286441D01*
X157736110Y-77431431D01*
X157988000Y-77482440D01*
X159224208Y-77482440D01*
X157598348Y-79108300D01*
X156085540Y-79108300D01*
X156085540Y-79045700D01*
X156041262Y-78810383D01*
X155902190Y-78594259D01*
X155689990Y-78449269D01*
X155438100Y-78398260D01*
X153438100Y-78398260D01*
X153202783Y-78442538D01*
X152986659Y-78581610D01*
X152841669Y-78793810D01*
X152790660Y-79045700D01*
X152790660Y-80745700D01*
X152834938Y-80981017D01*
X152974010Y-81197141D01*
X153186210Y-81342131D01*
X153438100Y-81393140D01*
X155438100Y-81393140D01*
X155673417Y-81348862D01*
X155889541Y-81209790D01*
X156034531Y-80997590D01*
X156085540Y-80745700D01*
X156085540Y-80683100D01*
X157924500Y-80683100D01*
X158088087Y-80650561D01*
X155963537Y-82775111D01*
X155766190Y-82640269D01*
X155514300Y-82589260D01*
X153514300Y-82589260D01*
X153278983Y-82633538D01*
X153062859Y-82772610D01*
X152917869Y-82984810D01*
X152866860Y-83236700D01*
X152866860Y-84936700D01*
X152911138Y-85172017D01*
X153050210Y-85388141D01*
X153262410Y-85533131D01*
X153514300Y-85584140D01*
X155514300Y-85584140D01*
X155749617Y-85539862D01*
X155965741Y-85400790D01*
X156110731Y-85188590D01*
X156161740Y-84936700D01*
X156161740Y-84750743D01*
X156322276Y-84643476D01*
X161717752Y-79248000D01*
X175387000Y-79248000D01*
X175688325Y-79188063D01*
X175943776Y-79017376D01*
X177491313Y-77469839D01*
X177714162Y-77514166D01*
X172617328Y-82611000D01*
X172516299Y-82611000D01*
X172475090Y-82546959D01*
X172335250Y-82451410D01*
X172370698Y-82436727D01*
X172549327Y-82258099D01*
X172646000Y-82024710D01*
X172646000Y-81784150D01*
X172487250Y-81625400D01*
X171688000Y-81625400D01*
X171688000Y-81645400D01*
X171434000Y-81645400D01*
X171434000Y-81625400D01*
X170634750Y-81625400D01*
X170548738Y-81711412D01*
X170475090Y-81596959D01*
X170262890Y-81451969D01*
X170011000Y-81400960D01*
X169111000Y-81400960D01*
X168875683Y-81445238D01*
X168659559Y-81584310D01*
X168607159Y-81661000D01*
X167614600Y-81661000D01*
X167313275Y-81720937D01*
X167057824Y-81891624D01*
X166035224Y-82914224D01*
X165864537Y-83169675D01*
X165804600Y-83471000D01*
X165804600Y-83542560D01*
X165342000Y-83542560D01*
X165106683Y-83586838D01*
X164890559Y-83725910D01*
X164745569Y-83938110D01*
X164694560Y-84190000D01*
X164694560Y-85990000D01*
X164738838Y-86225317D01*
X164877910Y-86441441D01*
X165090110Y-86586431D01*
X165342000Y-86637440D01*
X165804600Y-86637440D01*
X165804600Y-86912200D01*
X165864537Y-87213525D01*
X166035224Y-87468976D01*
X167538400Y-88972152D01*
X167538400Y-90896018D01*
X167039161Y-90395907D01*
X166346595Y-90108328D01*
X165596695Y-90107674D01*
X165314731Y-90224179D01*
X163379400Y-88288848D01*
X163379400Y-86637440D01*
X163842000Y-86637440D01*
X164077317Y-86593162D01*
X164293441Y-86454090D01*
X164438431Y-86241890D01*
X164489440Y-85990000D01*
X164489440Y-84190000D01*
X164445162Y-83954683D01*
X164306090Y-83738559D01*
X164093890Y-83593569D01*
X163842000Y-83542560D01*
X163379400Y-83542560D01*
X163379400Y-83479152D01*
X165502352Y-81356200D01*
X167612889Y-81356200D01*
X167617673Y-81360992D01*
X167961201Y-81503638D01*
X168333167Y-81503962D01*
X168676943Y-81361917D01*
X168940192Y-81099127D01*
X168992942Y-80972090D01*
X170476000Y-80972090D01*
X170476000Y-81212650D01*
X170634750Y-81371400D01*
X171434000Y-81371400D01*
X171434000Y-80622150D01*
X171688000Y-80622150D01*
X171688000Y-81371400D01*
X172487250Y-81371400D01*
X172646000Y-81212650D01*
X172646000Y-80972090D01*
X172549327Y-80738701D01*
X172370698Y-80560073D01*
X172137309Y-80463400D01*
X171846750Y-80463400D01*
X171688000Y-80622150D01*
X171434000Y-80622150D01*
X171275250Y-80463400D01*
X170984691Y-80463400D01*
X170751302Y-80560073D01*
X170572673Y-80738701D01*
X170476000Y-80972090D01*
X168992942Y-80972090D01*
X169082838Y-80755599D01*
X169083162Y-80383633D01*
X168941117Y-80039857D01*
X168678327Y-79776608D01*
X168334799Y-79633962D01*
X167962833Y-79633638D01*
X167619057Y-79775683D01*
X167613330Y-79781400D01*
X165176200Y-79781400D01*
X164874875Y-79841337D01*
X164619424Y-80012024D01*
X162035224Y-82596224D01*
X161864537Y-82851675D01*
X161804600Y-83153000D01*
X161804600Y-83542560D01*
X161342000Y-83542560D01*
X161106683Y-83586838D01*
X160890559Y-83725910D01*
X160745569Y-83938110D01*
X160694560Y-84190000D01*
X160694560Y-85990000D01*
X160738838Y-86225317D01*
X160877910Y-86441441D01*
X161090110Y-86586431D01*
X161342000Y-86637440D01*
X161804600Y-86637440D01*
X161804600Y-88615000D01*
X161864534Y-88916310D01*
X161831020Y-88835200D01*
X161230959Y-88234091D01*
X160446541Y-87908372D01*
X159680755Y-87907703D01*
X158809826Y-87036774D01*
X158397808Y-86761473D01*
X157911800Y-86664799D01*
X157911795Y-86664800D01*
X150317205Y-86664800D01*
X150317200Y-86664799D01*
X149831192Y-86761473D01*
X149419174Y-87036774D01*
X146803788Y-89652160D01*
X144452400Y-89652160D01*
X144217083Y-89696438D01*
X144000959Y-89835510D01*
X143855969Y-90047710D01*
X143804960Y-90299600D01*
X143804960Y-93799600D01*
X143849238Y-94034917D01*
X143988310Y-94251041D01*
X144136303Y-94352160D01*
X142266355Y-94352160D01*
X142403841Y-94263690D01*
X142548831Y-94051490D01*
X142599840Y-93799600D01*
X142599840Y-90299600D01*
X142555562Y-90064283D01*
X142416490Y-89848159D01*
X142204290Y-89703169D01*
X141952400Y-89652160D01*
X138452400Y-89652160D01*
X138217083Y-89696438D01*
X138000959Y-89835510D01*
X137855969Y-90047710D01*
X137804960Y-90299600D01*
X137804960Y-93799600D01*
X137849238Y-94034917D01*
X137988310Y-94251041D01*
X138176000Y-94379284D01*
X138176000Y-95757995D01*
X138175999Y-95758000D01*
X138272673Y-96244008D01*
X138547974Y-96656026D01*
X139539572Y-97647623D01*
X139539574Y-97647626D01*
X139858590Y-97860785D01*
X139951592Y-97922927D01*
X140437600Y-98019600D01*
X140804960Y-98019600D01*
X140804960Y-98499600D01*
X140849238Y-98734917D01*
X140988310Y-98951041D01*
X141200510Y-99096031D01*
X141452400Y-99147040D01*
X141932400Y-99147040D01*
X141932400Y-100537749D01*
X140752988Y-101717160D01*
X138401600Y-101717160D01*
X138166283Y-101761438D01*
X137950159Y-101900510D01*
X137805169Y-102112710D01*
X137754160Y-102364600D01*
X137754160Y-105864600D01*
X137798438Y-106099917D01*
X137937510Y-106316041D01*
X138149710Y-106461031D01*
X138401600Y-106512040D01*
X138881600Y-106512040D01*
X138881600Y-108260395D01*
X138881599Y-108260400D01*
X138978273Y-108746408D01*
X139253574Y-109158426D01*
X139807774Y-109712626D01*
X140219792Y-109987927D01*
X140705800Y-110084600D01*
X140754160Y-110084600D01*
X140754160Y-110564600D01*
X140798438Y-110799917D01*
X140937510Y-111016041D01*
X141149710Y-111161031D01*
X141401600Y-111212040D01*
X144901600Y-111212040D01*
X145136917Y-111167762D01*
X145353041Y-111028690D01*
X145498031Y-110816490D01*
X145549040Y-110564600D01*
X145549040Y-107064600D01*
X145504762Y-106829283D01*
X145365690Y-106613159D01*
X145217697Y-106512040D01*
X147901600Y-106512040D01*
X148136917Y-106467762D01*
X148353041Y-106328690D01*
X148498031Y-106116490D01*
X148549040Y-105864600D01*
X148549040Y-105384600D01*
X152152286Y-105384600D01*
X152158980Y-105400800D01*
X152759041Y-106001909D01*
X153543459Y-106327628D01*
X154392815Y-106328370D01*
X155177800Y-106004020D01*
X155778909Y-105403959D01*
X156085413Y-104665815D01*
X163884630Y-104665815D01*
X164208980Y-105450800D01*
X164809041Y-106051909D01*
X165593459Y-106377628D01*
X166442815Y-106378370D01*
X167227800Y-106054020D01*
X167828909Y-105453959D01*
X167894582Y-105295800D01*
X181883560Y-105295800D01*
X181883560Y-106895800D01*
X181927838Y-107131117D01*
X182066910Y-107347241D01*
X182279110Y-107492231D01*
X182531000Y-107543240D01*
X183531000Y-107543240D01*
X183766317Y-107498962D01*
X183982441Y-107359890D01*
X184127431Y-107147690D01*
X184178440Y-106895800D01*
X184178440Y-106837124D01*
X184248125Y-106823263D01*
X184503576Y-106652576D01*
X184883560Y-106272592D01*
X184883560Y-106895800D01*
X184927838Y-107131117D01*
X185066910Y-107347241D01*
X185279110Y-107492231D01*
X185531000Y-107543240D01*
X186531000Y-107543240D01*
X186766317Y-107498962D01*
X186982441Y-107359890D01*
X187115240Y-107165533D01*
X187248510Y-107372641D01*
X187460710Y-107517631D01*
X187712600Y-107568640D01*
X188712600Y-107568640D01*
X188947917Y-107524362D01*
X189164041Y-107385290D01*
X189309031Y-107173090D01*
X189360040Y-106921200D01*
X189360040Y-106887786D01*
X189556725Y-106848663D01*
X189812176Y-106677976D01*
X190065160Y-106424992D01*
X190065160Y-106921200D01*
X190109438Y-107156517D01*
X190248510Y-107372641D01*
X190460710Y-107517631D01*
X190712600Y-107568640D01*
X191712600Y-107568640D01*
X191947917Y-107524362D01*
X192164041Y-107385290D01*
X192309031Y-107173090D01*
X192360040Y-106921200D01*
X192360040Y-105321200D01*
X192315762Y-105085883D01*
X192176690Y-104869759D01*
X192074799Y-104800140D01*
X192455800Y-104800140D01*
X192691117Y-104755862D01*
X192837707Y-104661534D01*
X192965910Y-104749131D01*
X193217800Y-104800140D01*
X193725800Y-104800140D01*
X193961117Y-104755862D01*
X194107707Y-104661534D01*
X194235910Y-104749131D01*
X194487800Y-104800140D01*
X194995800Y-104800140D01*
X195231117Y-104755862D01*
X195447241Y-104616790D01*
X195592231Y-104404590D01*
X195643240Y-104152700D01*
X195643240Y-103009700D01*
X195598962Y-102774383D01*
X195459890Y-102558259D01*
X195247690Y-102413269D01*
X194995800Y-102362260D01*
X194487800Y-102362260D01*
X194252483Y-102406538D01*
X194105893Y-102500866D01*
X193977690Y-102413269D01*
X193725800Y-102362260D01*
X193217800Y-102362260D01*
X192989200Y-102405274D01*
X192989200Y-102046734D01*
X192996938Y-102028099D01*
X192997262Y-101656133D01*
X192855217Y-101312357D01*
X192592427Y-101049108D01*
X192248899Y-100906462D01*
X191876933Y-100906138D01*
X191533157Y-101048183D01*
X191269908Y-101310973D01*
X191127262Y-101654501D01*
X191126938Y-102026467D01*
X191268983Y-102370243D01*
X191280071Y-102381350D01*
X191185800Y-102362260D01*
X190677800Y-102362260D01*
X190442483Y-102406538D01*
X190295893Y-102500866D01*
X190167690Y-102413269D01*
X189915800Y-102362260D01*
X189407800Y-102362260D01*
X189172483Y-102406538D01*
X189025893Y-102500866D01*
X188897690Y-102413269D01*
X188645800Y-102362260D01*
X188137800Y-102362260D01*
X187909200Y-102405274D01*
X187909200Y-102377983D01*
X188043938Y-102053499D01*
X188044262Y-101681533D01*
X187902217Y-101337757D01*
X187639427Y-101074508D01*
X187295899Y-100931862D01*
X186923933Y-100931538D01*
X186580157Y-101073583D01*
X186316908Y-101336373D01*
X186174262Y-101679901D01*
X186173938Y-102051867D01*
X186315983Y-102395643D01*
X186327469Y-102407149D01*
X186105800Y-102362260D01*
X185597800Y-102362260D01*
X185362483Y-102406538D01*
X185146359Y-102545610D01*
X185001369Y-102757810D01*
X184950360Y-103009700D01*
X184950360Y-103978688D01*
X184030171Y-104898877D01*
X183995090Y-104844359D01*
X183782890Y-104699369D01*
X183531000Y-104648360D01*
X182531000Y-104648360D01*
X182295683Y-104692638D01*
X182079559Y-104831710D01*
X181934569Y-105043910D01*
X181883560Y-105295800D01*
X167894582Y-105295800D01*
X168154628Y-104669541D01*
X168155370Y-103820185D01*
X167831020Y-103035200D01*
X167230959Y-102434091D01*
X166446541Y-102108372D01*
X165597185Y-102107630D01*
X164812200Y-102431980D01*
X164211091Y-103032041D01*
X163885372Y-103816459D01*
X163884630Y-104665815D01*
X156085413Y-104665815D01*
X156104628Y-104619541D01*
X156105370Y-103770185D01*
X155781020Y-102985200D01*
X155180959Y-102384091D01*
X154396541Y-102058372D01*
X153547185Y-102057630D01*
X152762200Y-102381980D01*
X152298772Y-102844600D01*
X148549040Y-102844600D01*
X148549040Y-102364600D01*
X148504762Y-102129283D01*
X148414332Y-101988750D01*
X181597400Y-101988750D01*
X181597400Y-102329309D01*
X181694073Y-102562698D01*
X181872701Y-102741327D01*
X182106090Y-102838000D01*
X182746650Y-102838000D01*
X182905400Y-102679250D01*
X182905400Y-101830000D01*
X183159400Y-101830000D01*
X183159400Y-102679250D01*
X183318150Y-102838000D01*
X183958710Y-102838000D01*
X184192099Y-102741327D01*
X184370727Y-102562698D01*
X184467400Y-102329309D01*
X184467400Y-101988750D01*
X184308650Y-101830000D01*
X183159400Y-101830000D01*
X182905400Y-101830000D01*
X181756150Y-101830000D01*
X181597400Y-101988750D01*
X148414332Y-101988750D01*
X148365690Y-101913159D01*
X148153490Y-101768169D01*
X147901600Y-101717160D01*
X144401600Y-101717160D01*
X144244105Y-101746795D01*
X144375727Y-101549808D01*
X144400707Y-101424224D01*
X144469836Y-101076691D01*
X181597400Y-101076691D01*
X181597400Y-101417250D01*
X181756150Y-101576000D01*
X182905400Y-101576000D01*
X182905400Y-100726750D01*
X183159400Y-100726750D01*
X183159400Y-101576000D01*
X184308650Y-101576000D01*
X184467400Y-101417250D01*
X184467400Y-101076691D01*
X184370727Y-100843302D01*
X184192099Y-100664673D01*
X183958710Y-100568000D01*
X183318150Y-100568000D01*
X183159400Y-100726750D01*
X182905400Y-100726750D01*
X182746650Y-100568000D01*
X182106090Y-100568000D01*
X181872701Y-100664673D01*
X181694073Y-100843302D01*
X181597400Y-101076691D01*
X144469836Y-101076691D01*
X144472401Y-101063800D01*
X144472400Y-101063795D01*
X144472400Y-99147040D01*
X144952400Y-99147040D01*
X145187717Y-99102762D01*
X145403841Y-98963690D01*
X145548831Y-98751490D01*
X145599840Y-98499600D01*
X145599840Y-94999600D01*
X145555562Y-94764283D01*
X145416490Y-94548159D01*
X145268497Y-94447040D01*
X145996480Y-94447040D01*
X146202400Y-94488000D01*
X146408320Y-94447040D01*
X147952400Y-94447040D01*
X148187717Y-94402762D01*
X148403841Y-94263690D01*
X148548831Y-94051490D01*
X148599840Y-93799600D01*
X148599840Y-91448212D01*
X150843252Y-89204800D01*
X157385748Y-89204800D01*
X157885295Y-89704347D01*
X157884630Y-90465815D01*
X158208980Y-91250800D01*
X158809041Y-91851909D01*
X159593459Y-92177628D01*
X160442815Y-92178370D01*
X161227800Y-91854020D01*
X161828909Y-91253959D01*
X162154628Y-90469541D01*
X162155370Y-89620185D01*
X161864546Y-88916338D01*
X162035224Y-89171776D01*
X164201083Y-91337635D01*
X164085328Y-91616405D01*
X164084674Y-92366305D01*
X164371043Y-93059372D01*
X164900839Y-93590093D01*
X165593405Y-93877672D01*
X166343305Y-93878326D01*
X166568961Y-93785087D01*
X166247048Y-94107000D01*
X157197552Y-94107000D01*
X155738917Y-92648365D01*
X155854672Y-92369595D01*
X155855326Y-91619695D01*
X155568957Y-90926628D01*
X155039161Y-90395907D01*
X154346595Y-90108328D01*
X153596695Y-90107674D01*
X152903628Y-90394043D01*
X152372907Y-90923839D01*
X152085328Y-91616405D01*
X152084674Y-92366305D01*
X152371043Y-93059372D01*
X152900839Y-93590093D01*
X153593405Y-93877672D01*
X154343305Y-93878326D01*
X154625269Y-93761821D01*
X156314624Y-95451176D01*
X156570075Y-95621863D01*
X156871400Y-95681800D01*
X166573200Y-95681800D01*
X166874525Y-95621863D01*
X167129976Y-95451176D01*
X168882576Y-93698576D01*
X169053263Y-93443125D01*
X169113200Y-93141800D01*
X169113200Y-91161439D01*
X169147273Y-91243698D01*
X169325901Y-91422327D01*
X169559290Y-91519000D01*
X170249850Y-91519000D01*
X170408600Y-91360250D01*
X170408600Y-90011000D01*
X170388600Y-90011000D01*
X170388600Y-89757000D01*
X170408600Y-89757000D01*
X170408600Y-88407750D01*
X170249850Y-88249000D01*
X169559290Y-88249000D01*
X169325901Y-88345673D01*
X169147273Y-88524302D01*
X169107900Y-88619356D01*
X169053263Y-88344675D01*
X168882576Y-88089224D01*
X167430792Y-86637440D01*
X167842000Y-86637440D01*
X168077317Y-86593162D01*
X168293441Y-86454090D01*
X168438431Y-86241890D01*
X168489440Y-85990000D01*
X168489440Y-84190000D01*
X168445162Y-83954683D01*
X168306090Y-83738559D01*
X168093890Y-83593569D01*
X167842000Y-83542560D01*
X167633992Y-83542560D01*
X167940752Y-83235800D01*
X168605701Y-83235800D01*
X168646910Y-83299841D01*
X168859110Y-83444831D01*
X169111000Y-83495840D01*
X169783376Y-83495840D01*
X169748200Y-83672680D01*
X169748200Y-84236560D01*
X169685600Y-84236560D01*
X169450283Y-84280838D01*
X169234159Y-84419910D01*
X169089169Y-84632110D01*
X169038160Y-84884000D01*
X169038160Y-86884000D01*
X169082438Y-87119317D01*
X169221510Y-87335441D01*
X169433710Y-87480431D01*
X169685600Y-87531440D01*
X171385600Y-87531440D01*
X171620917Y-87487162D01*
X171837041Y-87348090D01*
X171982031Y-87135890D01*
X172033040Y-86884000D01*
X172033040Y-84884000D01*
X171988762Y-84648683D01*
X171858236Y-84445840D01*
X172011000Y-84445840D01*
X172246317Y-84401562D01*
X172462441Y-84262490D01*
X172514841Y-84185800D01*
X172943480Y-84185800D01*
X173244805Y-84125863D01*
X173500256Y-83955176D01*
X174027542Y-83427890D01*
X177813600Y-83427890D01*
X177813600Y-84118450D01*
X177972350Y-84277200D01*
X179171600Y-84277200D01*
X179171600Y-83077950D01*
X179425600Y-83077950D01*
X179425600Y-84277200D01*
X180624850Y-84277200D01*
X180783600Y-84118450D01*
X180783600Y-83427890D01*
X180686927Y-83194501D01*
X180508298Y-83015873D01*
X180274909Y-82919200D01*
X179584350Y-82919200D01*
X179425600Y-83077950D01*
X179171600Y-83077950D01*
X179012850Y-82919200D01*
X178322291Y-82919200D01*
X178088902Y-83015873D01*
X177910273Y-83194501D01*
X177813600Y-83427890D01*
X174027542Y-83427890D01*
X179654716Y-77800716D01*
X179825403Y-77545265D01*
X179847672Y-77433310D01*
X180365400Y-77536293D01*
X180699487Y-77469839D01*
X183085224Y-79855576D01*
X183340675Y-80026263D01*
X183642000Y-80086200D01*
X187298568Y-80086200D01*
X193421161Y-86208793D01*
X193354707Y-86542880D01*
X193467746Y-87111165D01*
X193789653Y-87592934D01*
X194130353Y-87820582D01*
X193987442Y-87887697D01*
X193597155Y-88315956D01*
X193427324Y-88725990D01*
X193548645Y-88955880D01*
X194741800Y-88955880D01*
X194741800Y-88935880D01*
X194995800Y-88935880D01*
X194995800Y-88955880D01*
X196188955Y-88955880D01*
X196310276Y-88725990D01*
X196140445Y-88315956D01*
X196098556Y-88269991D01*
X198836000Y-88269991D01*
X198836000Y-89110550D01*
X198994750Y-89269300D01*
X199644000Y-89269300D01*
X199644000Y-87920050D01*
X199898000Y-87920050D01*
X199898000Y-89269300D01*
X200914000Y-89269300D01*
X200914000Y-87920050D01*
X201168000Y-87920050D01*
X201168000Y-89269300D01*
X202184000Y-89269300D01*
X202184000Y-87920050D01*
X202025250Y-87761300D01*
X201884690Y-87761300D01*
X201676000Y-87847742D01*
X201467310Y-87761300D01*
X201326750Y-87761300D01*
X201168000Y-87920050D01*
X200914000Y-87920050D01*
X200755250Y-87761300D01*
X200614690Y-87761300D01*
X200406000Y-87847742D01*
X200197310Y-87761300D01*
X200056750Y-87761300D01*
X199898000Y-87920050D01*
X199644000Y-87920050D01*
X199485250Y-87761300D01*
X199344690Y-87761300D01*
X199111301Y-87857973D01*
X198932673Y-88036602D01*
X198836000Y-88269991D01*
X196098556Y-88269991D01*
X195750158Y-87887697D01*
X195607247Y-87820582D01*
X195947947Y-87592934D01*
X196123446Y-87330280D01*
X198125080Y-87330280D01*
X198426405Y-87270343D01*
X198681856Y-87099656D01*
X200827397Y-84954115D01*
X200942473Y-85069392D01*
X201286001Y-85212038D01*
X201657967Y-85212362D01*
X202001743Y-85070317D01*
X202264992Y-84807527D01*
X202407638Y-84463999D01*
X202407645Y-84455907D01*
X202867776Y-83995776D01*
X203038463Y-83740325D01*
X203098400Y-83439000D01*
X203098400Y-81606763D01*
X203281000Y-81643740D01*
X203881000Y-81643740D01*
X204116317Y-81599462D01*
X204206980Y-81541122D01*
X204424690Y-81631300D01*
X204565250Y-81631300D01*
X204724000Y-81472550D01*
X204724000Y-80123300D01*
X204704000Y-80123300D01*
X204704000Y-79869300D01*
X204724000Y-79869300D01*
X204724000Y-79849300D01*
X204978000Y-79849300D01*
X204978000Y-79869300D01*
X204998000Y-79869300D01*
X204998000Y-80123300D01*
X204978000Y-80123300D01*
X204978000Y-81472550D01*
X205136750Y-81631300D01*
X205168500Y-81631300D01*
X205168500Y-82790461D01*
X202907481Y-85051481D01*
X202701005Y-85360494D01*
X202628500Y-85725000D01*
X202628500Y-87761300D01*
X202596750Y-87761300D01*
X202438000Y-87920050D01*
X202438000Y-89269300D01*
X202458000Y-89269300D01*
X202458000Y-89523300D01*
X202438000Y-89523300D01*
X202438000Y-90872550D01*
X202596750Y-91031300D01*
X202703542Y-91031300D01*
X202658862Y-91138901D01*
X202658855Y-91146993D01*
X201349848Y-92456000D01*
X200761993Y-92456000D01*
X200567054Y-92164253D01*
X200085285Y-91842346D01*
X199517000Y-91729307D01*
X198948715Y-91842346D01*
X198466946Y-92164253D01*
X198439150Y-92205852D01*
X198430162Y-92158083D01*
X198291090Y-91941959D01*
X198078890Y-91796969D01*
X197827000Y-91745960D01*
X196127000Y-91745960D01*
X195891683Y-91790238D01*
X195675559Y-91929310D01*
X195530569Y-92141510D01*
X195479560Y-92393400D01*
X195479560Y-94093400D01*
X195523838Y-94328717D01*
X195662910Y-94544841D01*
X195875110Y-94689831D01*
X196127000Y-94740840D01*
X196189600Y-94740840D01*
X196189600Y-97679748D01*
X195126848Y-98742500D01*
X186774852Y-98742500D01*
X186639200Y-98606848D01*
X186639200Y-98395330D01*
X186741491Y-98437700D01*
X186836050Y-98437700D01*
X186994800Y-98278950D01*
X186994800Y-97358200D01*
X186974800Y-97358200D01*
X186974800Y-97104200D01*
X186994800Y-97104200D01*
X186994800Y-97084200D01*
X187248800Y-97084200D01*
X187248800Y-97104200D01*
X187268800Y-97104200D01*
X187268800Y-97358200D01*
X187248800Y-97358200D01*
X187248800Y-98278950D01*
X187407550Y-98437700D01*
X187502109Y-98437700D01*
X187735498Y-98341027D01*
X187762035Y-98314491D01*
X187885910Y-98399131D01*
X188137800Y-98450140D01*
X188645800Y-98450140D01*
X188881117Y-98405862D01*
X189027707Y-98311534D01*
X189155910Y-98399131D01*
X189407800Y-98450140D01*
X189915800Y-98450140D01*
X190151117Y-98405862D01*
X190297707Y-98311534D01*
X190425910Y-98399131D01*
X190677800Y-98450140D01*
X191185800Y-98450140D01*
X191421117Y-98405862D01*
X191567707Y-98311534D01*
X191695910Y-98399131D01*
X191947800Y-98450140D01*
X192455800Y-98450140D01*
X192691117Y-98405862D01*
X192837707Y-98311534D01*
X192965910Y-98399131D01*
X193217800Y-98450140D01*
X193725800Y-98450140D01*
X193961117Y-98405862D01*
X194107707Y-98311534D01*
X194235910Y-98399131D01*
X194487800Y-98450140D01*
X194995800Y-98450140D01*
X195231117Y-98405862D01*
X195447241Y-98266790D01*
X195592231Y-98054590D01*
X195643240Y-97802700D01*
X195643240Y-96659700D01*
X195598962Y-96424383D01*
X195459890Y-96208259D01*
X195247690Y-96063269D01*
X194995800Y-96012260D01*
X194487800Y-96012260D01*
X194252483Y-96056538D01*
X194105893Y-96150866D01*
X193977690Y-96063269D01*
X193725800Y-96012260D01*
X193217800Y-96012260D01*
X192989200Y-96055274D01*
X192989200Y-91135200D01*
X192929263Y-90833875D01*
X192758576Y-90578424D01*
X191619922Y-89439770D01*
X193427324Y-89439770D01*
X193597155Y-89849804D01*
X193987442Y-90278063D01*
X194511908Y-90524366D01*
X194741800Y-90403699D01*
X194741800Y-89209880D01*
X194995800Y-89209880D01*
X194995800Y-90403699D01*
X195225692Y-90524366D01*
X195750158Y-90278063D01*
X196140445Y-89849804D01*
X196209926Y-89682050D01*
X198836000Y-89682050D01*
X198836000Y-90522609D01*
X198932673Y-90755998D01*
X199111301Y-90934627D01*
X199344690Y-91031300D01*
X199485250Y-91031300D01*
X199644000Y-90872550D01*
X199644000Y-89523300D01*
X199898000Y-89523300D01*
X199898000Y-90872550D01*
X200056750Y-91031300D01*
X200197310Y-91031300D01*
X200406000Y-90944858D01*
X200614690Y-91031300D01*
X200755250Y-91031300D01*
X200914000Y-90872550D01*
X200914000Y-89523300D01*
X201168000Y-89523300D01*
X201168000Y-90872550D01*
X201326750Y-91031300D01*
X201467310Y-91031300D01*
X201676000Y-90944858D01*
X201884690Y-91031300D01*
X202025250Y-91031300D01*
X202184000Y-90872550D01*
X202184000Y-89523300D01*
X201168000Y-89523300D01*
X200914000Y-89523300D01*
X199898000Y-89523300D01*
X199644000Y-89523300D01*
X198994750Y-89523300D01*
X198836000Y-89682050D01*
X196209926Y-89682050D01*
X196310276Y-89439770D01*
X196188955Y-89209880D01*
X194995800Y-89209880D01*
X194741800Y-89209880D01*
X193548645Y-89209880D01*
X193427324Y-89439770D01*
X191619922Y-89439770D01*
X189413600Y-87233448D01*
X189470400Y-86947893D01*
X189470400Y-86889707D01*
X189357361Y-86321422D01*
X189035454Y-85839653D01*
X188553685Y-85517746D01*
X187985400Y-85404707D01*
X187417115Y-85517746D01*
X186935346Y-85839653D01*
X186715400Y-86168826D01*
X186495454Y-85839653D01*
X186013685Y-85517746D01*
X185445400Y-85404707D01*
X184877115Y-85517746D01*
X184395346Y-85839653D01*
X184175400Y-86168826D01*
X183955454Y-85839653D01*
X183473685Y-85517746D01*
X182905400Y-85404707D01*
X182337115Y-85517746D01*
X181855346Y-85839653D01*
X181643436Y-86156800D01*
X180553246Y-86156800D01*
X180377747Y-85894146D01*
X180333823Y-85864797D01*
X180508298Y-85792527D01*
X180686927Y-85613899D01*
X180783600Y-85380510D01*
X180783600Y-84689950D01*
X180624850Y-84531200D01*
X179425600Y-84531200D01*
X179425600Y-84551200D01*
X179171600Y-84551200D01*
X179171600Y-84531200D01*
X177972350Y-84531200D01*
X177813600Y-84689950D01*
X177813600Y-85380510D01*
X177910273Y-85613899D01*
X178088902Y-85792527D01*
X178263377Y-85864797D01*
X178219453Y-85894146D01*
X177897546Y-86375915D01*
X177784507Y-86944200D01*
X177897546Y-87512485D01*
X178219453Y-87994254D01*
X178548626Y-88214200D01*
X178219453Y-88434146D01*
X177897546Y-88915915D01*
X177784507Y-89484200D01*
X177897546Y-90052485D01*
X178219453Y-90534254D01*
X178701222Y-90856161D01*
X179269507Y-90969200D01*
X179327693Y-90969200D01*
X179895978Y-90856161D01*
X180377747Y-90534254D01*
X180553246Y-90271600D01*
X181407960Y-90271600D01*
X181407960Y-90308800D01*
X181452238Y-90544117D01*
X181591310Y-90760241D01*
X181803510Y-90905231D01*
X182055400Y-90956240D01*
X183755400Y-90956240D01*
X183990717Y-90911962D01*
X184206841Y-90772890D01*
X184351831Y-90560690D01*
X184365486Y-90493259D01*
X184395346Y-90537947D01*
X184877115Y-90859854D01*
X185445400Y-90972893D01*
X186013685Y-90859854D01*
X186495454Y-90537947D01*
X186715400Y-90208774D01*
X186935346Y-90537947D01*
X187417115Y-90859854D01*
X187985400Y-90972893D01*
X188319487Y-90906439D01*
X190144400Y-92731352D01*
X190144400Y-95101648D01*
X188923176Y-93880424D01*
X188667725Y-93709737D01*
X188366400Y-93649800D01*
X177973752Y-93649800D01*
X174163156Y-89839204D01*
X174163162Y-89832433D01*
X174021117Y-89488657D01*
X173758327Y-89225408D01*
X173414799Y-89082762D01*
X173042833Y-89082438D01*
X172699057Y-89224483D01*
X172435808Y-89487273D01*
X172350747Y-89692121D01*
X172255433Y-89692038D01*
X172020600Y-89789069D01*
X172020600Y-89756998D01*
X171861852Y-89756998D01*
X172020600Y-89598250D01*
X172020600Y-88757691D01*
X171923927Y-88524302D01*
X171745299Y-88345673D01*
X171511910Y-88249000D01*
X170821350Y-88249000D01*
X170662600Y-88407750D01*
X170662600Y-89757000D01*
X170682600Y-89757000D01*
X170682600Y-90011000D01*
X170662600Y-90011000D01*
X170662600Y-91360250D01*
X170821350Y-91519000D01*
X171511910Y-91519000D01*
X171745299Y-91422327D01*
X171829324Y-91338302D01*
X171910273Y-91419392D01*
X172253801Y-91562038D01*
X172261893Y-91562045D01*
X176608224Y-95908376D01*
X176863675Y-96079063D01*
X177165000Y-96139000D01*
X185234333Y-96139000D01*
X185146359Y-96195610D01*
X185001369Y-96407810D01*
X184994081Y-96443800D01*
X183692800Y-96443800D01*
X183391475Y-96503737D01*
X183136024Y-96674424D01*
X182475624Y-97334824D01*
X182328133Y-97555560D01*
X182232400Y-97555560D01*
X181997083Y-97599838D01*
X181780959Y-97738910D01*
X181635969Y-97951110D01*
X181584960Y-98203000D01*
X181584960Y-99203000D01*
X181629238Y-99438317D01*
X181768310Y-99654441D01*
X181980510Y-99799431D01*
X182232400Y-99850440D01*
X183832400Y-99850440D01*
X184067717Y-99806162D01*
X184283841Y-99667090D01*
X184428831Y-99454890D01*
X184479840Y-99203000D01*
X184479840Y-98203000D01*
X184445143Y-98018600D01*
X184990984Y-98018600D01*
X184994638Y-98038017D01*
X185064400Y-98146430D01*
X185064400Y-98933000D01*
X185124337Y-99234325D01*
X185295024Y-99489776D01*
X185891924Y-100086676D01*
X186147375Y-100257363D01*
X186448700Y-100317300D01*
X195453000Y-100317300D01*
X195754325Y-100257363D01*
X196009776Y-100086676D01*
X197533776Y-98562676D01*
X197704463Y-98307225D01*
X197764400Y-98005900D01*
X197764400Y-94740840D01*
X197827000Y-94740840D01*
X198062317Y-94696562D01*
X198278441Y-94557490D01*
X198423431Y-94345290D01*
X198437086Y-94277859D01*
X198466946Y-94322547D01*
X198948715Y-94644454D01*
X199517000Y-94757493D01*
X200085285Y-94644454D01*
X200567054Y-94322547D01*
X200761993Y-94030800D01*
X201676000Y-94030800D01*
X201977325Y-93970863D01*
X202232776Y-93800176D01*
X203772096Y-92260856D01*
X203778867Y-92260862D01*
X204122643Y-92118817D01*
X204385892Y-91856027D01*
X204528538Y-91512499D01*
X204528862Y-91140533D01*
X204483195Y-91030009D01*
X204551000Y-91043740D01*
X205151000Y-91043740D01*
X205386317Y-90999462D01*
X205485528Y-90935622D01*
X205569110Y-90992731D01*
X205821000Y-91043740D01*
X206421000Y-91043740D01*
X206656317Y-90999462D01*
X206755528Y-90935622D01*
X206839110Y-90992731D01*
X207091000Y-91043740D01*
X207691000Y-91043740D01*
X207926317Y-90999462D01*
X208025528Y-90935622D01*
X208109110Y-90992731D01*
X208361000Y-91043740D01*
X208961000Y-91043740D01*
X209196317Y-90999462D01*
X209295528Y-90935622D01*
X209379110Y-90992731D01*
X209631000Y-91043740D01*
X210231000Y-91043740D01*
X210466317Y-90999462D01*
X210565528Y-90935622D01*
X210649110Y-90992731D01*
X210901000Y-91043740D01*
X211501000Y-91043740D01*
X211709000Y-91004602D01*
X211709000Y-91864985D01*
X211587717Y-91571457D01*
X211324927Y-91308208D01*
X210981399Y-91165562D01*
X210609433Y-91165238D01*
X210265657Y-91307283D01*
X210002408Y-91570073D01*
X209859762Y-91913601D01*
X209859724Y-91957646D01*
X207004585Y-94812785D01*
X206959347Y-94880488D01*
X206752927Y-94673708D01*
X206409399Y-94531062D01*
X206037433Y-94530738D01*
X205693657Y-94672783D01*
X205662486Y-94703900D01*
X202514200Y-94703900D01*
X202222595Y-94761904D01*
X201986289Y-94919799D01*
X201975385Y-94927085D01*
X201457295Y-95445175D01*
X201414633Y-95445138D01*
X201070857Y-95587183D01*
X200807608Y-95849973D01*
X200664962Y-96193501D01*
X200664638Y-96565467D01*
X200806683Y-96909243D01*
X201069473Y-97172492D01*
X201413001Y-97315138D01*
X201784967Y-97315462D01*
X202128743Y-97173417D01*
X202391992Y-96910627D01*
X202534638Y-96567099D01*
X202534676Y-96523054D01*
X202829830Y-96227900D01*
X203128677Y-96227900D01*
X203128438Y-96501967D01*
X203270483Y-96845743D01*
X203533273Y-97108992D01*
X203876801Y-97251638D01*
X204248767Y-97251962D01*
X204592543Y-97109917D01*
X204623714Y-97078800D01*
X205814534Y-97078800D01*
X205844673Y-97108992D01*
X206188201Y-97251638D01*
X206560167Y-97251962D01*
X206781400Y-97160551D01*
X206781400Y-98083969D01*
X205881570Y-98983800D01*
X199544066Y-98983800D01*
X199513927Y-98953608D01*
X199170399Y-98810962D01*
X198798433Y-98810638D01*
X198454657Y-98952683D01*
X198191408Y-99215473D01*
X198048762Y-99559001D01*
X198048438Y-99930967D01*
X198190483Y-100274743D01*
X198453273Y-100537992D01*
X198796801Y-100680638D01*
X199168767Y-100680962D01*
X199512543Y-100538917D01*
X199543714Y-100507800D01*
X206197200Y-100507800D01*
X206488805Y-100449796D01*
X206736015Y-100284615D01*
X208082215Y-98938416D01*
X208247396Y-98691205D01*
X208282664Y-98513900D01*
X208305400Y-98399600D01*
X208305400Y-95667230D01*
X208965800Y-95006830D01*
X208965800Y-102220634D01*
X208935608Y-102250773D01*
X208792962Y-102594301D01*
X208792638Y-102966267D01*
X208934683Y-103310043D01*
X209197473Y-103573292D01*
X209541001Y-103715938D01*
X209912967Y-103716262D01*
X210256743Y-103574217D01*
X210519992Y-103311427D01*
X210662638Y-102967899D01*
X210662962Y-102595933D01*
X210520917Y-102252157D01*
X210489800Y-102220986D01*
X210489800Y-94473430D01*
X210911705Y-94051525D01*
X210954367Y-94051562D01*
X211298143Y-93909517D01*
X211561392Y-93646727D01*
X211704038Y-93303199D01*
X211704362Y-92931233D01*
X211582122Y-92635389D01*
X211586792Y-92630727D01*
X211709000Y-92336419D01*
X211709000Y-99464734D01*
X211678808Y-99494873D01*
X211536162Y-99838401D01*
X211535838Y-100210367D01*
X211677883Y-100554143D01*
X211940673Y-100817392D01*
X212284201Y-100960038D01*
X212656167Y-100960362D01*
X212979000Y-100826970D01*
X212979000Y-104306969D01*
X212701470Y-104584500D01*
X203455467Y-104584500D01*
X203311227Y-104440008D01*
X202967699Y-104297362D01*
X202595733Y-104297038D01*
X202251957Y-104439083D01*
X201988708Y-104701873D01*
X201846062Y-105045401D01*
X201845738Y-105417367D01*
X201987783Y-105761143D01*
X202250573Y-106024392D01*
X202594101Y-106167038D01*
X202966067Y-106167362D01*
X203108524Y-106108500D01*
X212663369Y-106108500D01*
X208332670Y-110439200D01*
X186309000Y-110439200D01*
X186231927Y-110454531D01*
X186153345Y-110455267D01*
X186087533Y-110483253D01*
X186017395Y-110497204D01*
X185952054Y-110540863D01*
X185879738Y-110571615D01*
X185041537Y-111143115D01*
X184991444Y-111194155D01*
X184931985Y-111233885D01*
X184888327Y-111299224D01*
X184866106Y-111321865D01*
X184774289Y-111260515D01*
X184200800Y-111146441D01*
X183627311Y-111260515D01*
X183141130Y-111585371D01*
X182816274Y-112071552D01*
X182702200Y-112645041D01*
X182702200Y-112703759D01*
X182767172Y-113030398D01*
X182023685Y-113773885D01*
X181858504Y-114021095D01*
X181800500Y-114312700D01*
X181800500Y-116205000D01*
X181858504Y-116496605D01*
X181879781Y-116528448D01*
X182023685Y-116743815D01*
X182861885Y-117582016D01*
X183010077Y-117681034D01*
X183109095Y-117747196D01*
X183400700Y-117805200D01*
X204825600Y-117805200D01*
X205117205Y-117747196D01*
X205364415Y-117582015D01*
X209440766Y-113505664D01*
X209486274Y-113734448D01*
X209811130Y-114220629D01*
X210081972Y-114401600D01*
X209811130Y-114582571D01*
X209486274Y-115068752D01*
X209372200Y-115642241D01*
X209372200Y-115700959D01*
X209486274Y-116274448D01*
X209811130Y-116760629D01*
X210297311Y-117085485D01*
X210870800Y-117199559D01*
X211444289Y-117085485D01*
X211930470Y-116760629D01*
X212140800Y-116445848D01*
X212351130Y-116760629D01*
X212837311Y-117085485D01*
X213410800Y-117199559D01*
X213984289Y-117085485D01*
X214470470Y-116760629D01*
X214680800Y-116445848D01*
X214891130Y-116760629D01*
X215377311Y-117085485D01*
X215950800Y-117199559D01*
X216458800Y-117098512D01*
X216458800Y-119225934D01*
X216428608Y-119256073D01*
X216285962Y-119599601D01*
X216285799Y-119786398D01*
X179842828Y-119786398D01*
X171938015Y-111881585D01*
X171902180Y-111857641D01*
X171690805Y-111716404D01*
X171399200Y-111658400D01*
X163561431Y-111658400D01*
X162209815Y-110306785D01*
X161962605Y-110141604D01*
X161671000Y-110083600D01*
X151028400Y-110083600D01*
X150736795Y-110141604D01*
X150489584Y-110306785D01*
X149016385Y-111779985D01*
X148851204Y-112027195D01*
X148793200Y-112318800D01*
X148793200Y-116738400D01*
X148851204Y-117030005D01*
X148860021Y-117043200D01*
X149016385Y-117277215D01*
X151581784Y-119842615D01*
X151777217Y-119973199D01*
X151828995Y-120007796D01*
X152120600Y-120065800D01*
X153187400Y-120065800D01*
X153479005Y-120007796D01*
X153726215Y-119842615D01*
X156189986Y-117378845D01*
X156565600Y-117453559D01*
X157139089Y-117339485D01*
X157625270Y-117014629D01*
X157841264Y-116691372D01*
X157898779Y-116814090D01*
X158330653Y-117208288D01*
X158746574Y-117380558D01*
X158978600Y-117259417D01*
X158978600Y-116052600D01*
X159232600Y-116052600D01*
X159232600Y-117259417D01*
X159464626Y-117380558D01*
X159880547Y-117208288D01*
X160312421Y-116814090D01*
X160560568Y-116284627D01*
X160440069Y-116052600D01*
X159232600Y-116052600D01*
X158978600Y-116052600D01*
X158958600Y-116052600D01*
X158958600Y-115798600D01*
X158978600Y-115798600D01*
X158978600Y-115778600D01*
X159232600Y-115778600D01*
X159232600Y-115798600D01*
X160440069Y-115798600D01*
X160560568Y-115566573D01*
X160490748Y-115417600D01*
X161964970Y-115417600D01*
X162351385Y-115804016D01*
X162598596Y-115969197D01*
X162890200Y-116027200D01*
X164068760Y-116027200D01*
X164068760Y-116115200D01*
X164113038Y-116350517D01*
X164252110Y-116566641D01*
X164464310Y-116711631D01*
X164716200Y-116762640D01*
X166716200Y-116762640D01*
X166951517Y-116718362D01*
X167167641Y-116579290D01*
X167312631Y-116367090D01*
X167363640Y-116115200D01*
X167363640Y-114415200D01*
X167361081Y-114401600D01*
X168071514Y-114401600D01*
X168068760Y-114415200D01*
X168068760Y-116115200D01*
X168113038Y-116350517D01*
X168252110Y-116566641D01*
X168464310Y-116711631D01*
X168716200Y-116762640D01*
X170716200Y-116762640D01*
X170951517Y-116718362D01*
X171167641Y-116579290D01*
X171312631Y-116367090D01*
X171363640Y-116115200D01*
X171363640Y-116027200D01*
X171591570Y-116027200D01*
X178277185Y-122712816D01*
X178425377Y-122811834D01*
X178524395Y-122877996D01*
X178816000Y-122936000D01*
X227152200Y-122936000D01*
X227443805Y-122877996D01*
X227691015Y-122712815D01*
X227794600Y-122609230D01*
X227576980Y-123133317D01*
X227575822Y-124460062D01*
X228082476Y-125686258D01*
X229019807Y-126625227D01*
X229375684Y-126773000D01*
X174460199Y-126773000D01*
X174809858Y-126628524D01*
X175748827Y-125691193D01*
X176257620Y-124465883D01*
X176258778Y-123139138D01*
X175752124Y-121912942D01*
X174814793Y-120973973D01*
X173589483Y-120465180D01*
X172262738Y-120464022D01*
X171036542Y-120970676D01*
X170097573Y-121908007D01*
X169588780Y-123133317D01*
X169587622Y-124460062D01*
X170094276Y-125686258D01*
X171031607Y-126625227D01*
X171387484Y-126773000D01*
X136027972Y-126773000D01*
X136316158Y-126653924D01*
X137255127Y-125716593D01*
X137763920Y-124491283D01*
X137765078Y-123164538D01*
X137258424Y-121938342D01*
X136321093Y-120999373D01*
X135095783Y-120490580D01*
X133769038Y-120489422D01*
X132542842Y-120996076D01*
X131603873Y-121933407D01*
X131545000Y-122075189D01*
X131545000Y-84397850D01*
X142424400Y-84397850D01*
X142424400Y-85038410D01*
X142521073Y-85271799D01*
X142699702Y-85450427D01*
X142933091Y-85547100D01*
X143273650Y-85547100D01*
X143432400Y-85388350D01*
X143432400Y-84239100D01*
X143686400Y-84239100D01*
X143686400Y-85388350D01*
X143845150Y-85547100D01*
X144185709Y-85547100D01*
X144419098Y-85450427D01*
X144597727Y-85271799D01*
X144694400Y-85038410D01*
X144694400Y-84397850D01*
X144535650Y-84239100D01*
X143686400Y-84239100D01*
X143432400Y-84239100D01*
X142583150Y-84239100D01*
X142424400Y-84397850D01*
X131545000Y-84397850D01*
X131545000Y-83185790D01*
X142424400Y-83185790D01*
X142424400Y-83826350D01*
X142583150Y-83985100D01*
X143432400Y-83985100D01*
X143432400Y-82835850D01*
X143686400Y-82835850D01*
X143686400Y-83985100D01*
X144535650Y-83985100D01*
X144694400Y-83826350D01*
X144694400Y-83312100D01*
X145411960Y-83312100D01*
X145411960Y-84912100D01*
X145456238Y-85147417D01*
X145595310Y-85363541D01*
X145807510Y-85508531D01*
X146059400Y-85559540D01*
X147059400Y-85559540D01*
X147294717Y-85515262D01*
X147510841Y-85376190D01*
X147655831Y-85163990D01*
X147706840Y-84912100D01*
X147706840Y-84874100D01*
X148866860Y-84874100D01*
X148866860Y-84936700D01*
X148911138Y-85172017D01*
X149050210Y-85388141D01*
X149262410Y-85533131D01*
X149514300Y-85584140D01*
X151514300Y-85584140D01*
X151749617Y-85539862D01*
X151965741Y-85400790D01*
X152110731Y-85188590D01*
X152161740Y-84936700D01*
X152161740Y-83236700D01*
X152117462Y-83001383D01*
X151978390Y-82785259D01*
X151766190Y-82640269D01*
X151514300Y-82589260D01*
X149514300Y-82589260D01*
X149278983Y-82633538D01*
X149062859Y-82772610D01*
X148917869Y-82984810D01*
X148866860Y-83236700D01*
X148866860Y-83350100D01*
X147706840Y-83350100D01*
X147706840Y-83312100D01*
X147662562Y-83076783D01*
X147523490Y-82860659D01*
X147311290Y-82715669D01*
X147059400Y-82664660D01*
X146059400Y-82664660D01*
X145824083Y-82708938D01*
X145607959Y-82848010D01*
X145462969Y-83060210D01*
X145411960Y-83312100D01*
X144694400Y-83312100D01*
X144694400Y-83185790D01*
X144597727Y-82952401D01*
X144419098Y-82773773D01*
X144185709Y-82677100D01*
X143845150Y-82677100D01*
X143686400Y-82835850D01*
X143432400Y-82835850D01*
X143273650Y-82677100D01*
X142933091Y-82677100D01*
X142699702Y-82773773D01*
X142521073Y-82952401D01*
X142424400Y-83185790D01*
X131545000Y-83185790D01*
X131545000Y-80232250D01*
X142411700Y-80232250D01*
X142411700Y-80872810D01*
X142508373Y-81106199D01*
X142687002Y-81284827D01*
X142920391Y-81381500D01*
X143260950Y-81381500D01*
X143419700Y-81222750D01*
X143419700Y-80073500D01*
X143673700Y-80073500D01*
X143673700Y-81222750D01*
X143832450Y-81381500D01*
X144173009Y-81381500D01*
X144406398Y-81284827D01*
X144585027Y-81106199D01*
X144681700Y-80872810D01*
X144681700Y-80232250D01*
X144522950Y-80073500D01*
X143673700Y-80073500D01*
X143419700Y-80073500D01*
X142570450Y-80073500D01*
X142411700Y-80232250D01*
X131545000Y-80232250D01*
X131545000Y-79020190D01*
X142411700Y-79020190D01*
X142411700Y-79660750D01*
X142570450Y-79819500D01*
X143419700Y-79819500D01*
X143419700Y-78670250D01*
X143673700Y-78670250D01*
X143673700Y-79819500D01*
X144522950Y-79819500D01*
X144681700Y-79660750D01*
X144681700Y-79146500D01*
X145399260Y-79146500D01*
X145399260Y-80746500D01*
X145443538Y-80981817D01*
X145582610Y-81197941D01*
X145794810Y-81342931D01*
X146046700Y-81393940D01*
X147046700Y-81393940D01*
X147282017Y-81349662D01*
X147498141Y-81210590D01*
X147643131Y-80998390D01*
X147694140Y-80746500D01*
X147694140Y-80708500D01*
X148790660Y-80708500D01*
X148790660Y-80745700D01*
X148834938Y-80981017D01*
X148974010Y-81197141D01*
X149186210Y-81342131D01*
X149438100Y-81393140D01*
X151438100Y-81393140D01*
X151673417Y-81348862D01*
X151889541Y-81209790D01*
X152034531Y-80997590D01*
X152085540Y-80745700D01*
X152085540Y-79045700D01*
X152041262Y-78810383D01*
X151902190Y-78594259D01*
X151689990Y-78449269D01*
X151438100Y-78398260D01*
X149438100Y-78398260D01*
X149202783Y-78442538D01*
X148986659Y-78581610D01*
X148841669Y-78793810D01*
X148790660Y-79045700D01*
X148790660Y-79184500D01*
X147694140Y-79184500D01*
X147694140Y-79146500D01*
X147649862Y-78911183D01*
X147510790Y-78695059D01*
X147298590Y-78550069D01*
X147046700Y-78499060D01*
X146046700Y-78499060D01*
X145811383Y-78543338D01*
X145595259Y-78682410D01*
X145450269Y-78894610D01*
X145399260Y-79146500D01*
X144681700Y-79146500D01*
X144681700Y-79020190D01*
X144585027Y-78786801D01*
X144406398Y-78608173D01*
X144173009Y-78511500D01*
X143832450Y-78511500D01*
X143673700Y-78670250D01*
X143419700Y-78670250D01*
X143260950Y-78511500D01*
X142920391Y-78511500D01*
X142687002Y-78608173D01*
X142508373Y-78786801D01*
X142411700Y-79020190D01*
X131545000Y-79020190D01*
X131545000Y-76155581D01*
X131765676Y-76689658D01*
X132703007Y-77628627D01*
X133928317Y-78137420D01*
X135255062Y-78138578D01*
X136481258Y-77631924D01*
X137420227Y-76694593D01*
X137508320Y-76482440D01*
X139089165Y-76482440D01*
X139298353Y-76843289D01*
X140235650Y-77220824D01*
X141246077Y-77210933D01*
X141626846Y-77053213D01*
X147027392Y-77053213D01*
X147096857Y-77295397D01*
X147620302Y-77482144D01*
X148175368Y-77454362D01*
X148559143Y-77295397D01*
X148628608Y-77053213D01*
X147828000Y-76252605D01*
X147027392Y-77053213D01*
X141626846Y-77053213D01*
X142133647Y-76843289D01*
X142342835Y-76482440D01*
X140716000Y-74855605D01*
X139089165Y-76482440D01*
X137508320Y-76482440D01*
X137929020Y-75469283D01*
X137930131Y-74195650D01*
X138171176Y-74195650D01*
X138181067Y-75206077D01*
X138548711Y-76093647D01*
X138909560Y-76302835D01*
X140536395Y-74676000D01*
X140895605Y-74676000D01*
X142522440Y-76302835D01*
X142883289Y-76093647D01*
X142975264Y-75865302D01*
X146418856Y-75865302D01*
X146446638Y-76420368D01*
X146605603Y-76804143D01*
X146847787Y-76873608D01*
X147648395Y-76073000D01*
X146847787Y-75272392D01*
X146605603Y-75341857D01*
X146418856Y-75865302D01*
X142975264Y-75865302D01*
X143260824Y-75156350D01*
X143260202Y-75092787D01*
X147027392Y-75092787D01*
X147828000Y-75893395D01*
X148628608Y-75092787D01*
X148559143Y-74850603D01*
X148035698Y-74663856D01*
X147480632Y-74691638D01*
X147096857Y-74850603D01*
X147027392Y-75092787D01*
X143260202Y-75092787D01*
X143250933Y-74145923D01*
X143006439Y-73555661D01*
X147700758Y-73555661D01*
X147912990Y-74069303D01*
X148305630Y-74462629D01*
X148818900Y-74675757D01*
X149374661Y-74676242D01*
X149888303Y-74464010D01*
X150281629Y-74071370D01*
X150494757Y-73558100D01*
X150494759Y-73555664D01*
X150706990Y-74069303D01*
X151099630Y-74462629D01*
X151612900Y-74675757D01*
X152168661Y-74676242D01*
X152682303Y-74464010D01*
X153075629Y-74071370D01*
X153225606Y-73710185D01*
X153373990Y-74069303D01*
X153766630Y-74462629D01*
X154279900Y-74675757D01*
X154835661Y-74676242D01*
X155349303Y-74464010D01*
X155742629Y-74071370D01*
X155955757Y-73558100D01*
X155955759Y-73555664D01*
X156167990Y-74069303D01*
X156560630Y-74462629D01*
X157073900Y-74675757D01*
X157629661Y-74676242D01*
X158143303Y-74464010D01*
X158536629Y-74071370D01*
X158749757Y-73558100D01*
X158750242Y-73002339D01*
X158695379Y-72869560D01*
X164108165Y-72869560D01*
X165735000Y-74496395D01*
X167361835Y-72869560D01*
X167152647Y-72508711D01*
X166215350Y-72131176D01*
X165204923Y-72141067D01*
X164317353Y-72508711D01*
X164108165Y-72869560D01*
X158695379Y-72869560D01*
X158538010Y-72488697D01*
X158145370Y-72095371D01*
X157632100Y-71882243D01*
X157076339Y-71881758D01*
X156562697Y-72093990D01*
X156169371Y-72486630D01*
X155956243Y-72999900D01*
X155956241Y-73002336D01*
X155744010Y-72488697D01*
X155351370Y-72095371D01*
X154838100Y-71882243D01*
X154282339Y-71881758D01*
X153768697Y-72093990D01*
X153375371Y-72486630D01*
X153225394Y-72847815D01*
X153077010Y-72488697D01*
X152684370Y-72095371D01*
X152171100Y-71882243D01*
X151615339Y-71881758D01*
X151101697Y-72093990D01*
X150708371Y-72486630D01*
X150495243Y-72999900D01*
X150495241Y-73002336D01*
X150283010Y-72488697D01*
X149890370Y-72095371D01*
X149377100Y-71882243D01*
X148821339Y-71881758D01*
X148307697Y-72093990D01*
X147914371Y-72486630D01*
X147701243Y-72999900D01*
X147700758Y-73555661D01*
X143006439Y-73555661D01*
X142883289Y-73258353D01*
X142522440Y-73049165D01*
X140895605Y-74676000D01*
X140536395Y-74676000D01*
X138909560Y-73049165D01*
X138548711Y-73258353D01*
X138171176Y-74195650D01*
X137930131Y-74195650D01*
X137930178Y-74142538D01*
X137423524Y-72916342D01*
X137376824Y-72869560D01*
X139089165Y-72869560D01*
X140716000Y-74496395D01*
X142342835Y-72869560D01*
X142133647Y-72508711D01*
X141196350Y-72131176D01*
X140185923Y-72141067D01*
X139298353Y-72508711D01*
X139089165Y-72869560D01*
X137376824Y-72869560D01*
X136486193Y-71977373D01*
X135260883Y-71468580D01*
X133934138Y-71467422D01*
X132707942Y-71974076D01*
X131768973Y-72911407D01*
X131545000Y-73450794D01*
X131545000Y-70331000D01*
X234088000Y-70331000D01*
X234088000Y-73757782D01*
X234088000Y-73757782D01*
G37*
X234088000Y-73757782D02*
X233740324Y-72916342D01*
X232802993Y-71977373D01*
X231577683Y-71468580D01*
X230250938Y-71467422D01*
X229024742Y-71974076D01*
X228085773Y-72911407D01*
X227576980Y-74136717D01*
X227575822Y-75463462D01*
X228082476Y-76689658D01*
X228836101Y-77444600D01*
X226488346Y-77444600D01*
X226852324Y-77293845D01*
X227280583Y-76903558D01*
X227526886Y-76379092D01*
X227406219Y-76149200D01*
X226212400Y-76149200D01*
X226212400Y-76169200D01*
X225958400Y-76169200D01*
X225958400Y-76149200D01*
X225938400Y-76149200D01*
X225938400Y-75895200D01*
X225958400Y-75895200D01*
X225958400Y-75875200D01*
X226212400Y-75875200D01*
X226212400Y-75895200D01*
X227406219Y-75895200D01*
X227526886Y-75665308D01*
X227280583Y-75140842D01*
X226852324Y-74750555D01*
X226852299Y-74750545D01*
X227135454Y-74561347D01*
X227457361Y-74079578D01*
X227570400Y-73511293D01*
X227570400Y-73453107D01*
X227457361Y-72884822D01*
X227135454Y-72403053D01*
X226653685Y-72081146D01*
X226085400Y-71968107D01*
X225517115Y-72081146D01*
X225440324Y-72132456D01*
X225354215Y-72003585D01*
X224312815Y-70962185D01*
X224293537Y-70949304D01*
X224065605Y-70797004D01*
X223774000Y-70739000D01*
X207746600Y-70739000D01*
X207454995Y-70797004D01*
X207227063Y-70949304D01*
X207207785Y-70962185D01*
X206129449Y-72040521D01*
X205765400Y-71968107D01*
X205197115Y-72081146D01*
X204715346Y-72403053D01*
X204495400Y-72732226D01*
X204275454Y-72403053D01*
X203793685Y-72081146D01*
X203225400Y-71968107D01*
X202657115Y-72081146D01*
X202175346Y-72403053D01*
X201947698Y-72743753D01*
X201880583Y-72600842D01*
X201452324Y-72210555D01*
X201042290Y-72040724D01*
X200812400Y-72162045D01*
X200812400Y-73355200D01*
X200832400Y-73355200D01*
X200832400Y-73609200D01*
X200812400Y-73609200D01*
X200812400Y-73629200D01*
X200558400Y-73629200D01*
X200558400Y-73609200D01*
X200538400Y-73609200D01*
X200538400Y-73355200D01*
X200558400Y-73355200D01*
X200558400Y-72162045D01*
X200328510Y-72040724D01*
X199918476Y-72210555D01*
X199490217Y-72600842D01*
X199423102Y-72743753D01*
X199195454Y-72403053D01*
X198713685Y-72081146D01*
X198145400Y-71968107D01*
X197577115Y-72081146D01*
X197095346Y-72403053D01*
X196875400Y-72732226D01*
X196655454Y-72403053D01*
X196173685Y-72081146D01*
X195605400Y-71968107D01*
X195037115Y-72081146D01*
X194555346Y-72403053D01*
X194327698Y-72743753D01*
X194260583Y-72600842D01*
X193832324Y-72210555D01*
X193422290Y-72040724D01*
X193192400Y-72162045D01*
X193192400Y-73355200D01*
X193212400Y-73355200D01*
X193212400Y-73609200D01*
X193192400Y-73609200D01*
X193192400Y-73629200D01*
X192938400Y-73629200D01*
X192938400Y-73609200D01*
X192918400Y-73609200D01*
X192918400Y-73355200D01*
X192938400Y-73355200D01*
X192938400Y-72162045D01*
X192708510Y-72040724D01*
X192298476Y-72210555D01*
X191870217Y-72600842D01*
X191803102Y-72743753D01*
X191575454Y-72403053D01*
X191093685Y-72081146D01*
X190525400Y-71968107D01*
X190191313Y-72034561D01*
X189106056Y-70949304D01*
X188850605Y-70778617D01*
X188549280Y-70718680D01*
X180136800Y-70718680D01*
X179835475Y-70778617D01*
X179580024Y-70949304D01*
X178544568Y-71984760D01*
X177441512Y-71984760D01*
X176172376Y-70715624D01*
X175916925Y-70544937D01*
X175615600Y-70485000D01*
X170370500Y-70485000D01*
X170069175Y-70544937D01*
X169813724Y-70715624D01*
X168607224Y-71922124D01*
X168436537Y-72177575D01*
X168376600Y-72478900D01*
X168376600Y-76288900D01*
X167565478Y-76288900D01*
X167902289Y-76093647D01*
X168279824Y-75156350D01*
X168269933Y-74145923D01*
X167902289Y-73258353D01*
X167541440Y-73049165D01*
X165914605Y-74676000D01*
X165928748Y-74690143D01*
X165749143Y-74869748D01*
X165735000Y-74855605D01*
X165720858Y-74869748D01*
X165541253Y-74690143D01*
X165555395Y-74676000D01*
X163928560Y-73049165D01*
X163567711Y-73258353D01*
X163190176Y-74195650D01*
X163200067Y-75206077D01*
X163567711Y-76093647D01*
X163904522Y-76288900D01*
X160743900Y-76288900D01*
X160442575Y-76348837D01*
X160187124Y-76519524D01*
X160159440Y-76547208D01*
X160159440Y-75311000D01*
X160115162Y-75075683D01*
X159976090Y-74859559D01*
X159763890Y-74714569D01*
X159512000Y-74663560D01*
X157988000Y-74663560D01*
X157752683Y-74707838D01*
X157536559Y-74846910D01*
X157391569Y-75059110D01*
X157340560Y-75311000D01*
X157340560Y-75765646D01*
X157141010Y-75282697D01*
X156748370Y-74889371D01*
X156235100Y-74676243D01*
X155679339Y-74675758D01*
X155165697Y-74887990D01*
X154772371Y-75280630D01*
X154622394Y-75641815D01*
X154474010Y-75282697D01*
X154081370Y-74889371D01*
X153568100Y-74676243D01*
X153012339Y-74675758D01*
X152498697Y-74887990D01*
X152105371Y-75280630D01*
X151892243Y-75793900D01*
X151892241Y-75796336D01*
X151680010Y-75282697D01*
X151287370Y-74889371D01*
X150774100Y-74676243D01*
X150218339Y-74675758D01*
X149704697Y-74887990D01*
X149311371Y-75280630D01*
X149168027Y-75625841D01*
X149050397Y-75341857D01*
X148808213Y-75272392D01*
X148007605Y-76073000D01*
X148808213Y-76873608D01*
X149050397Y-76804143D01*
X149159355Y-76498738D01*
X149309990Y-76863303D01*
X149702630Y-77256629D01*
X150215900Y-77469757D01*
X150771661Y-77470242D01*
X151285303Y-77258010D01*
X151678629Y-76865370D01*
X151891757Y-76352100D01*
X151891759Y-76349664D01*
X152103990Y-76863303D01*
X152496630Y-77256629D01*
X153009900Y-77469757D01*
X153565661Y-77470242D01*
X154079303Y-77258010D01*
X154472629Y-76865370D01*
X154622606Y-76504185D01*
X154770990Y-76863303D01*
X155163630Y-77256629D01*
X155676900Y-77469757D01*
X156232661Y-77470242D01*
X156746303Y-77258010D01*
X157139629Y-76865370D01*
X157340560Y-76381474D01*
X157340560Y-76835000D01*
X157384838Y-77070317D01*
X157523910Y-77286441D01*
X157736110Y-77431431D01*
X157988000Y-77482440D01*
X159224208Y-77482440D01*
X157598348Y-79108300D01*
X156085540Y-79108300D01*
X156085540Y-79045700D01*
X156041262Y-78810383D01*
X155902190Y-78594259D01*
X155689990Y-78449269D01*
X155438100Y-78398260D01*
X153438100Y-78398260D01*
X153202783Y-78442538D01*
X152986659Y-78581610D01*
X152841669Y-78793810D01*
X152790660Y-79045700D01*
X152790660Y-80745700D01*
X152834938Y-80981017D01*
X152974010Y-81197141D01*
X153186210Y-81342131D01*
X153438100Y-81393140D01*
X155438100Y-81393140D01*
X155673417Y-81348862D01*
X155889541Y-81209790D01*
X156034531Y-80997590D01*
X156085540Y-80745700D01*
X156085540Y-80683100D01*
X157924500Y-80683100D01*
X158088087Y-80650561D01*
X155963537Y-82775111D01*
X155766190Y-82640269D01*
X155514300Y-82589260D01*
X153514300Y-82589260D01*
X153278983Y-82633538D01*
X153062859Y-82772610D01*
X152917869Y-82984810D01*
X152866860Y-83236700D01*
X152866860Y-84936700D01*
X152911138Y-85172017D01*
X153050210Y-85388141D01*
X153262410Y-85533131D01*
X153514300Y-85584140D01*
X155514300Y-85584140D01*
X155749617Y-85539862D01*
X155965741Y-85400790D01*
X156110731Y-85188590D01*
X156161740Y-84936700D01*
X156161740Y-84750743D01*
X156322276Y-84643476D01*
X161717752Y-79248000D01*
X175387000Y-79248000D01*
X175688325Y-79188063D01*
X175943776Y-79017376D01*
X177491313Y-77469839D01*
X177714162Y-77514166D01*
X172617328Y-82611000D01*
X172516299Y-82611000D01*
X172475090Y-82546959D01*
X172335250Y-82451410D01*
X172370698Y-82436727D01*
X172549327Y-82258099D01*
X172646000Y-82024710D01*
X172646000Y-81784150D01*
X172487250Y-81625400D01*
X171688000Y-81625400D01*
X171688000Y-81645400D01*
X171434000Y-81645400D01*
X171434000Y-81625400D01*
X170634750Y-81625400D01*
X170548738Y-81711412D01*
X170475090Y-81596959D01*
X170262890Y-81451969D01*
X170011000Y-81400960D01*
X169111000Y-81400960D01*
X168875683Y-81445238D01*
X168659559Y-81584310D01*
X168607159Y-81661000D01*
X167614600Y-81661000D01*
X167313275Y-81720937D01*
X167057824Y-81891624D01*
X166035224Y-82914224D01*
X165864537Y-83169675D01*
X165804600Y-83471000D01*
X165804600Y-83542560D01*
X165342000Y-83542560D01*
X165106683Y-83586838D01*
X164890559Y-83725910D01*
X164745569Y-83938110D01*
X164694560Y-84190000D01*
X164694560Y-85990000D01*
X164738838Y-86225317D01*
X164877910Y-86441441D01*
X165090110Y-86586431D01*
X165342000Y-86637440D01*
X165804600Y-86637440D01*
X165804600Y-86912200D01*
X165864537Y-87213525D01*
X166035224Y-87468976D01*
X167538400Y-88972152D01*
X167538400Y-90896018D01*
X167039161Y-90395907D01*
X166346595Y-90108328D01*
X165596695Y-90107674D01*
X165314731Y-90224179D01*
X163379400Y-88288848D01*
X163379400Y-86637440D01*
X163842000Y-86637440D01*
X164077317Y-86593162D01*
X164293441Y-86454090D01*
X164438431Y-86241890D01*
X164489440Y-85990000D01*
X164489440Y-84190000D01*
X164445162Y-83954683D01*
X164306090Y-83738559D01*
X164093890Y-83593569D01*
X163842000Y-83542560D01*
X163379400Y-83542560D01*
X163379400Y-83479152D01*
X165502352Y-81356200D01*
X167612889Y-81356200D01*
X167617673Y-81360992D01*
X167961201Y-81503638D01*
X168333167Y-81503962D01*
X168676943Y-81361917D01*
X168940192Y-81099127D01*
X168992942Y-80972090D01*
X170476000Y-80972090D01*
X170476000Y-81212650D01*
X170634750Y-81371400D01*
X171434000Y-81371400D01*
X171434000Y-80622150D01*
X171688000Y-80622150D01*
X171688000Y-81371400D01*
X172487250Y-81371400D01*
X172646000Y-81212650D01*
X172646000Y-80972090D01*
X172549327Y-80738701D01*
X172370698Y-80560073D01*
X172137309Y-80463400D01*
X171846750Y-80463400D01*
X171688000Y-80622150D01*
X171434000Y-80622150D01*
X171275250Y-80463400D01*
X170984691Y-80463400D01*
X170751302Y-80560073D01*
X170572673Y-80738701D01*
X170476000Y-80972090D01*
X168992942Y-80972090D01*
X169082838Y-80755599D01*
X169083162Y-80383633D01*
X168941117Y-80039857D01*
X168678327Y-79776608D01*
X168334799Y-79633962D01*
X167962833Y-79633638D01*
X167619057Y-79775683D01*
X167613330Y-79781400D01*
X165176200Y-79781400D01*
X164874875Y-79841337D01*
X164619424Y-80012024D01*
X162035224Y-82596224D01*
X161864537Y-82851675D01*
X161804600Y-83153000D01*
X161804600Y-83542560D01*
X161342000Y-83542560D01*
X161106683Y-83586838D01*
X160890559Y-83725910D01*
X160745569Y-83938110D01*
X160694560Y-84190000D01*
X160694560Y-85990000D01*
X160738838Y-86225317D01*
X160877910Y-86441441D01*
X161090110Y-86586431D01*
X161342000Y-86637440D01*
X161804600Y-86637440D01*
X161804600Y-88615000D01*
X161864534Y-88916310D01*
X161831020Y-88835200D01*
X161230959Y-88234091D01*
X160446541Y-87908372D01*
X159680755Y-87907703D01*
X158809826Y-87036774D01*
X158397808Y-86761473D01*
X157911800Y-86664799D01*
X157911795Y-86664800D01*
X150317205Y-86664800D01*
X150317200Y-86664799D01*
X149831192Y-86761473D01*
X149419174Y-87036774D01*
X146803788Y-89652160D01*
X144452400Y-89652160D01*
X144217083Y-89696438D01*
X144000959Y-89835510D01*
X143855969Y-90047710D01*
X143804960Y-90299600D01*
X143804960Y-93799600D01*
X143849238Y-94034917D01*
X143988310Y-94251041D01*
X144136303Y-94352160D01*
X142266355Y-94352160D01*
X142403841Y-94263690D01*
X142548831Y-94051490D01*
X142599840Y-93799600D01*
X142599840Y-90299600D01*
X142555562Y-90064283D01*
X142416490Y-89848159D01*
X142204290Y-89703169D01*
X141952400Y-89652160D01*
X138452400Y-89652160D01*
X138217083Y-89696438D01*
X138000959Y-89835510D01*
X137855969Y-90047710D01*
X137804960Y-90299600D01*
X137804960Y-93799600D01*
X137849238Y-94034917D01*
X137988310Y-94251041D01*
X138176000Y-94379284D01*
X138176000Y-95757995D01*
X138175999Y-95758000D01*
X138272673Y-96244008D01*
X138547974Y-96656026D01*
X139539572Y-97647623D01*
X139539574Y-97647626D01*
X139858590Y-97860785D01*
X139951592Y-97922927D01*
X140437600Y-98019600D01*
X140804960Y-98019600D01*
X140804960Y-98499600D01*
X140849238Y-98734917D01*
X140988310Y-98951041D01*
X141200510Y-99096031D01*
X141452400Y-99147040D01*
X141932400Y-99147040D01*
X141932400Y-100537749D01*
X140752988Y-101717160D01*
X138401600Y-101717160D01*
X138166283Y-101761438D01*
X137950159Y-101900510D01*
X137805169Y-102112710D01*
X137754160Y-102364600D01*
X137754160Y-105864600D01*
X137798438Y-106099917D01*
X137937510Y-106316041D01*
X138149710Y-106461031D01*
X138401600Y-106512040D01*
X138881600Y-106512040D01*
X138881600Y-108260395D01*
X138881599Y-108260400D01*
X138978273Y-108746408D01*
X139253574Y-109158426D01*
X139807774Y-109712626D01*
X140219792Y-109987927D01*
X140705800Y-110084600D01*
X140754160Y-110084600D01*
X140754160Y-110564600D01*
X140798438Y-110799917D01*
X140937510Y-111016041D01*
X141149710Y-111161031D01*
X141401600Y-111212040D01*
X144901600Y-111212040D01*
X145136917Y-111167762D01*
X145353041Y-111028690D01*
X145498031Y-110816490D01*
X145549040Y-110564600D01*
X145549040Y-107064600D01*
X145504762Y-106829283D01*
X145365690Y-106613159D01*
X145217697Y-106512040D01*
X147901600Y-106512040D01*
X148136917Y-106467762D01*
X148353041Y-106328690D01*
X148498031Y-106116490D01*
X148549040Y-105864600D01*
X148549040Y-105384600D01*
X152152286Y-105384600D01*
X152158980Y-105400800D01*
X152759041Y-106001909D01*
X153543459Y-106327628D01*
X154392815Y-106328370D01*
X155177800Y-106004020D01*
X155778909Y-105403959D01*
X156085413Y-104665815D01*
X163884630Y-104665815D01*
X164208980Y-105450800D01*
X164809041Y-106051909D01*
X165593459Y-106377628D01*
X166442815Y-106378370D01*
X167227800Y-106054020D01*
X167828909Y-105453959D01*
X167894582Y-105295800D01*
X181883560Y-105295800D01*
X181883560Y-106895800D01*
X181927838Y-107131117D01*
X182066910Y-107347241D01*
X182279110Y-107492231D01*
X182531000Y-107543240D01*
X183531000Y-107543240D01*
X183766317Y-107498962D01*
X183982441Y-107359890D01*
X184127431Y-107147690D01*
X184178440Y-106895800D01*
X184178440Y-106837124D01*
X184248125Y-106823263D01*
X184503576Y-106652576D01*
X184883560Y-106272592D01*
X184883560Y-106895800D01*
X184927838Y-107131117D01*
X185066910Y-107347241D01*
X185279110Y-107492231D01*
X185531000Y-107543240D01*
X186531000Y-107543240D01*
X186766317Y-107498962D01*
X186982441Y-107359890D01*
X187115240Y-107165533D01*
X187248510Y-107372641D01*
X187460710Y-107517631D01*
X187712600Y-107568640D01*
X188712600Y-107568640D01*
X188947917Y-107524362D01*
X189164041Y-107385290D01*
X189309031Y-107173090D01*
X189360040Y-106921200D01*
X189360040Y-106887786D01*
X189556725Y-106848663D01*
X189812176Y-106677976D01*
X190065160Y-106424992D01*
X190065160Y-106921200D01*
X190109438Y-107156517D01*
X190248510Y-107372641D01*
X190460710Y-107517631D01*
X190712600Y-107568640D01*
X191712600Y-107568640D01*
X191947917Y-107524362D01*
X192164041Y-107385290D01*
X192309031Y-107173090D01*
X192360040Y-106921200D01*
X192360040Y-105321200D01*
X192315762Y-105085883D01*
X192176690Y-104869759D01*
X192074799Y-104800140D01*
X192455800Y-104800140D01*
X192691117Y-104755862D01*
X192837707Y-104661534D01*
X192965910Y-104749131D01*
X193217800Y-104800140D01*
X193725800Y-104800140D01*
X193961117Y-104755862D01*
X194107707Y-104661534D01*
X194235910Y-104749131D01*
X194487800Y-104800140D01*
X194995800Y-104800140D01*
X195231117Y-104755862D01*
X195447241Y-104616790D01*
X195592231Y-104404590D01*
X195643240Y-104152700D01*
X195643240Y-103009700D01*
X195598962Y-102774383D01*
X195459890Y-102558259D01*
X195247690Y-102413269D01*
X194995800Y-102362260D01*
X194487800Y-102362260D01*
X194252483Y-102406538D01*
X194105893Y-102500866D01*
X193977690Y-102413269D01*
X193725800Y-102362260D01*
X193217800Y-102362260D01*
X192989200Y-102405274D01*
X192989200Y-102046734D01*
X192996938Y-102028099D01*
X192997262Y-101656133D01*
X192855217Y-101312357D01*
X192592427Y-101049108D01*
X192248899Y-100906462D01*
X191876933Y-100906138D01*
X191533157Y-101048183D01*
X191269908Y-101310973D01*
X191127262Y-101654501D01*
X191126938Y-102026467D01*
X191268983Y-102370243D01*
X191280071Y-102381350D01*
X191185800Y-102362260D01*
X190677800Y-102362260D01*
X190442483Y-102406538D01*
X190295893Y-102500866D01*
X190167690Y-102413269D01*
X189915800Y-102362260D01*
X189407800Y-102362260D01*
X189172483Y-102406538D01*
X189025893Y-102500866D01*
X188897690Y-102413269D01*
X188645800Y-102362260D01*
X188137800Y-102362260D01*
X187909200Y-102405274D01*
X187909200Y-102377983D01*
X188043938Y-102053499D01*
X188044262Y-101681533D01*
X187902217Y-101337757D01*
X187639427Y-101074508D01*
X187295899Y-100931862D01*
X186923933Y-100931538D01*
X186580157Y-101073583D01*
X186316908Y-101336373D01*
X186174262Y-101679901D01*
X186173938Y-102051867D01*
X186315983Y-102395643D01*
X186327469Y-102407149D01*
X186105800Y-102362260D01*
X185597800Y-102362260D01*
X185362483Y-102406538D01*
X185146359Y-102545610D01*
X185001369Y-102757810D01*
X184950360Y-103009700D01*
X184950360Y-103978688D01*
X184030171Y-104898877D01*
X183995090Y-104844359D01*
X183782890Y-104699369D01*
X183531000Y-104648360D01*
X182531000Y-104648360D01*
X182295683Y-104692638D01*
X182079559Y-104831710D01*
X181934569Y-105043910D01*
X181883560Y-105295800D01*
X167894582Y-105295800D01*
X168154628Y-104669541D01*
X168155370Y-103820185D01*
X167831020Y-103035200D01*
X167230959Y-102434091D01*
X166446541Y-102108372D01*
X165597185Y-102107630D01*
X164812200Y-102431980D01*
X164211091Y-103032041D01*
X163885372Y-103816459D01*
X163884630Y-104665815D01*
X156085413Y-104665815D01*
X156104628Y-104619541D01*
X156105370Y-103770185D01*
X155781020Y-102985200D01*
X155180959Y-102384091D01*
X154396541Y-102058372D01*
X153547185Y-102057630D01*
X152762200Y-102381980D01*
X152298772Y-102844600D01*
X148549040Y-102844600D01*
X148549040Y-102364600D01*
X148504762Y-102129283D01*
X148414332Y-101988750D01*
X181597400Y-101988750D01*
X181597400Y-102329309D01*
X181694073Y-102562698D01*
X181872701Y-102741327D01*
X182106090Y-102838000D01*
X182746650Y-102838000D01*
X182905400Y-102679250D01*
X182905400Y-101830000D01*
X183159400Y-101830000D01*
X183159400Y-102679250D01*
X183318150Y-102838000D01*
X183958710Y-102838000D01*
X184192099Y-102741327D01*
X184370727Y-102562698D01*
X184467400Y-102329309D01*
X184467400Y-101988750D01*
X184308650Y-101830000D01*
X183159400Y-101830000D01*
X182905400Y-101830000D01*
X181756150Y-101830000D01*
X181597400Y-101988750D01*
X148414332Y-101988750D01*
X148365690Y-101913159D01*
X148153490Y-101768169D01*
X147901600Y-101717160D01*
X144401600Y-101717160D01*
X144244105Y-101746795D01*
X144375727Y-101549808D01*
X144400707Y-101424224D01*
X144469836Y-101076691D01*
X181597400Y-101076691D01*
X181597400Y-101417250D01*
X181756150Y-101576000D01*
X182905400Y-101576000D01*
X182905400Y-100726750D01*
X183159400Y-100726750D01*
X183159400Y-101576000D01*
X184308650Y-101576000D01*
X184467400Y-101417250D01*
X184467400Y-101076691D01*
X184370727Y-100843302D01*
X184192099Y-100664673D01*
X183958710Y-100568000D01*
X183318150Y-100568000D01*
X183159400Y-100726750D01*
X182905400Y-100726750D01*
X182746650Y-100568000D01*
X182106090Y-100568000D01*
X181872701Y-100664673D01*
X181694073Y-100843302D01*
X181597400Y-101076691D01*
X144469836Y-101076691D01*
X144472401Y-101063800D01*
X144472400Y-101063795D01*
X144472400Y-99147040D01*
X144952400Y-99147040D01*
X145187717Y-99102762D01*
X145403841Y-98963690D01*
X145548831Y-98751490D01*
X145599840Y-98499600D01*
X145599840Y-94999600D01*
X145555562Y-94764283D01*
X145416490Y-94548159D01*
X145268497Y-94447040D01*
X145996480Y-94447040D01*
X146202400Y-94488000D01*
X146408320Y-94447040D01*
X147952400Y-94447040D01*
X148187717Y-94402762D01*
X148403841Y-94263690D01*
X148548831Y-94051490D01*
X148599840Y-93799600D01*
X148599840Y-91448212D01*
X150843252Y-89204800D01*
X157385748Y-89204800D01*
X157885295Y-89704347D01*
X157884630Y-90465815D01*
X158208980Y-91250800D01*
X158809041Y-91851909D01*
X159593459Y-92177628D01*
X160442815Y-92178370D01*
X161227800Y-91854020D01*
X161828909Y-91253959D01*
X162154628Y-90469541D01*
X162155370Y-89620185D01*
X161864546Y-88916338D01*
X162035224Y-89171776D01*
X164201083Y-91337635D01*
X164085328Y-91616405D01*
X164084674Y-92366305D01*
X164371043Y-93059372D01*
X164900839Y-93590093D01*
X165593405Y-93877672D01*
X166343305Y-93878326D01*
X166568961Y-93785087D01*
X166247048Y-94107000D01*
X157197552Y-94107000D01*
X155738917Y-92648365D01*
X155854672Y-92369595D01*
X155855326Y-91619695D01*
X155568957Y-90926628D01*
X155039161Y-90395907D01*
X154346595Y-90108328D01*
X153596695Y-90107674D01*
X152903628Y-90394043D01*
X152372907Y-90923839D01*
X152085328Y-91616405D01*
X152084674Y-92366305D01*
X152371043Y-93059372D01*
X152900839Y-93590093D01*
X153593405Y-93877672D01*
X154343305Y-93878326D01*
X154625269Y-93761821D01*
X156314624Y-95451176D01*
X156570075Y-95621863D01*
X156871400Y-95681800D01*
X166573200Y-95681800D01*
X166874525Y-95621863D01*
X167129976Y-95451176D01*
X168882576Y-93698576D01*
X169053263Y-93443125D01*
X169113200Y-93141800D01*
X169113200Y-91161439D01*
X169147273Y-91243698D01*
X169325901Y-91422327D01*
X169559290Y-91519000D01*
X170249850Y-91519000D01*
X170408600Y-91360250D01*
X170408600Y-90011000D01*
X170388600Y-90011000D01*
X170388600Y-89757000D01*
X170408600Y-89757000D01*
X170408600Y-88407750D01*
X170249850Y-88249000D01*
X169559290Y-88249000D01*
X169325901Y-88345673D01*
X169147273Y-88524302D01*
X169107900Y-88619356D01*
X169053263Y-88344675D01*
X168882576Y-88089224D01*
X167430792Y-86637440D01*
X167842000Y-86637440D01*
X168077317Y-86593162D01*
X168293441Y-86454090D01*
X168438431Y-86241890D01*
X168489440Y-85990000D01*
X168489440Y-84190000D01*
X168445162Y-83954683D01*
X168306090Y-83738559D01*
X168093890Y-83593569D01*
X167842000Y-83542560D01*
X167633992Y-83542560D01*
X167940752Y-83235800D01*
X168605701Y-83235800D01*
X168646910Y-83299841D01*
X168859110Y-83444831D01*
X169111000Y-83495840D01*
X169783376Y-83495840D01*
X169748200Y-83672680D01*
X169748200Y-84236560D01*
X169685600Y-84236560D01*
X169450283Y-84280838D01*
X169234159Y-84419910D01*
X169089169Y-84632110D01*
X169038160Y-84884000D01*
X169038160Y-86884000D01*
X169082438Y-87119317D01*
X169221510Y-87335441D01*
X169433710Y-87480431D01*
X169685600Y-87531440D01*
X171385600Y-87531440D01*
X171620917Y-87487162D01*
X171837041Y-87348090D01*
X171982031Y-87135890D01*
X172033040Y-86884000D01*
X172033040Y-84884000D01*
X171988762Y-84648683D01*
X171858236Y-84445840D01*
X172011000Y-84445840D01*
X172246317Y-84401562D01*
X172462441Y-84262490D01*
X172514841Y-84185800D01*
X172943480Y-84185800D01*
X173244805Y-84125863D01*
X173500256Y-83955176D01*
X174027542Y-83427890D01*
X177813600Y-83427890D01*
X177813600Y-84118450D01*
X177972350Y-84277200D01*
X179171600Y-84277200D01*
X179171600Y-83077950D01*
X179425600Y-83077950D01*
X179425600Y-84277200D01*
X180624850Y-84277200D01*
X180783600Y-84118450D01*
X180783600Y-83427890D01*
X180686927Y-83194501D01*
X180508298Y-83015873D01*
X180274909Y-82919200D01*
X179584350Y-82919200D01*
X179425600Y-83077950D01*
X179171600Y-83077950D01*
X179012850Y-82919200D01*
X178322291Y-82919200D01*
X178088902Y-83015873D01*
X177910273Y-83194501D01*
X177813600Y-83427890D01*
X174027542Y-83427890D01*
X179654716Y-77800716D01*
X179825403Y-77545265D01*
X179847672Y-77433310D01*
X180365400Y-77536293D01*
X180699487Y-77469839D01*
X183085224Y-79855576D01*
X183340675Y-80026263D01*
X183642000Y-80086200D01*
X187298568Y-80086200D01*
X193421161Y-86208793D01*
X193354707Y-86542880D01*
X193467746Y-87111165D01*
X193789653Y-87592934D01*
X194130353Y-87820582D01*
X193987442Y-87887697D01*
X193597155Y-88315956D01*
X193427324Y-88725990D01*
X193548645Y-88955880D01*
X194741800Y-88955880D01*
X194741800Y-88935880D01*
X194995800Y-88935880D01*
X194995800Y-88955880D01*
X196188955Y-88955880D01*
X196310276Y-88725990D01*
X196140445Y-88315956D01*
X196098556Y-88269991D01*
X198836000Y-88269991D01*
X198836000Y-89110550D01*
X198994750Y-89269300D01*
X199644000Y-89269300D01*
X199644000Y-87920050D01*
X199898000Y-87920050D01*
X199898000Y-89269300D01*
X200914000Y-89269300D01*
X200914000Y-87920050D01*
X201168000Y-87920050D01*
X201168000Y-89269300D01*
X202184000Y-89269300D01*
X202184000Y-87920050D01*
X202025250Y-87761300D01*
X201884690Y-87761300D01*
X201676000Y-87847742D01*
X201467310Y-87761300D01*
X201326750Y-87761300D01*
X201168000Y-87920050D01*
X200914000Y-87920050D01*
X200755250Y-87761300D01*
X200614690Y-87761300D01*
X200406000Y-87847742D01*
X200197310Y-87761300D01*
X200056750Y-87761300D01*
X199898000Y-87920050D01*
X199644000Y-87920050D01*
X199485250Y-87761300D01*
X199344690Y-87761300D01*
X199111301Y-87857973D01*
X198932673Y-88036602D01*
X198836000Y-88269991D01*
X196098556Y-88269991D01*
X195750158Y-87887697D01*
X195607247Y-87820582D01*
X195947947Y-87592934D01*
X196123446Y-87330280D01*
X198125080Y-87330280D01*
X198426405Y-87270343D01*
X198681856Y-87099656D01*
X200827397Y-84954115D01*
X200942473Y-85069392D01*
X201286001Y-85212038D01*
X201657967Y-85212362D01*
X202001743Y-85070317D01*
X202264992Y-84807527D01*
X202407638Y-84463999D01*
X202407645Y-84455907D01*
X202867776Y-83995776D01*
X203038463Y-83740325D01*
X203098400Y-83439000D01*
X203098400Y-81606763D01*
X203281000Y-81643740D01*
X203881000Y-81643740D01*
X204116317Y-81599462D01*
X204206980Y-81541122D01*
X204424690Y-81631300D01*
X204565250Y-81631300D01*
X204724000Y-81472550D01*
X204724000Y-80123300D01*
X204704000Y-80123300D01*
X204704000Y-79869300D01*
X204724000Y-79869300D01*
X204724000Y-79849300D01*
X204978000Y-79849300D01*
X204978000Y-79869300D01*
X204998000Y-79869300D01*
X204998000Y-80123300D01*
X204978000Y-80123300D01*
X204978000Y-81472550D01*
X205136750Y-81631300D01*
X205168500Y-81631300D01*
X205168500Y-82790461D01*
X202907481Y-85051481D01*
X202701005Y-85360494D01*
X202628500Y-85725000D01*
X202628500Y-87761300D01*
X202596750Y-87761300D01*
X202438000Y-87920050D01*
X202438000Y-89269300D01*
X202458000Y-89269300D01*
X202458000Y-89523300D01*
X202438000Y-89523300D01*
X202438000Y-90872550D01*
X202596750Y-91031300D01*
X202703542Y-91031300D01*
X202658862Y-91138901D01*
X202658855Y-91146993D01*
X201349848Y-92456000D01*
X200761993Y-92456000D01*
X200567054Y-92164253D01*
X200085285Y-91842346D01*
X199517000Y-91729307D01*
X198948715Y-91842346D01*
X198466946Y-92164253D01*
X198439150Y-92205852D01*
X198430162Y-92158083D01*
X198291090Y-91941959D01*
X198078890Y-91796969D01*
X197827000Y-91745960D01*
X196127000Y-91745960D01*
X195891683Y-91790238D01*
X195675559Y-91929310D01*
X195530569Y-92141510D01*
X195479560Y-92393400D01*
X195479560Y-94093400D01*
X195523838Y-94328717D01*
X195662910Y-94544841D01*
X195875110Y-94689831D01*
X196127000Y-94740840D01*
X196189600Y-94740840D01*
X196189600Y-97679748D01*
X195126848Y-98742500D01*
X186774852Y-98742500D01*
X186639200Y-98606848D01*
X186639200Y-98395330D01*
X186741491Y-98437700D01*
X186836050Y-98437700D01*
X186994800Y-98278950D01*
X186994800Y-97358200D01*
X186974800Y-97358200D01*
X186974800Y-97104200D01*
X186994800Y-97104200D01*
X186994800Y-97084200D01*
X187248800Y-97084200D01*
X187248800Y-97104200D01*
X187268800Y-97104200D01*
X187268800Y-97358200D01*
X187248800Y-97358200D01*
X187248800Y-98278950D01*
X187407550Y-98437700D01*
X187502109Y-98437700D01*
X187735498Y-98341027D01*
X187762035Y-98314491D01*
X187885910Y-98399131D01*
X188137800Y-98450140D01*
X188645800Y-98450140D01*
X188881117Y-98405862D01*
X189027707Y-98311534D01*
X189155910Y-98399131D01*
X189407800Y-98450140D01*
X189915800Y-98450140D01*
X190151117Y-98405862D01*
X190297707Y-98311534D01*
X190425910Y-98399131D01*
X190677800Y-98450140D01*
X191185800Y-98450140D01*
X191421117Y-98405862D01*
X191567707Y-98311534D01*
X191695910Y-98399131D01*
X191947800Y-98450140D01*
X192455800Y-98450140D01*
X192691117Y-98405862D01*
X192837707Y-98311534D01*
X192965910Y-98399131D01*
X193217800Y-98450140D01*
X193725800Y-98450140D01*
X193961117Y-98405862D01*
X194107707Y-98311534D01*
X194235910Y-98399131D01*
X194487800Y-98450140D01*
X194995800Y-98450140D01*
X195231117Y-98405862D01*
X195447241Y-98266790D01*
X195592231Y-98054590D01*
X195643240Y-97802700D01*
X195643240Y-96659700D01*
X195598962Y-96424383D01*
X195459890Y-96208259D01*
X195247690Y-96063269D01*
X194995800Y-96012260D01*
X194487800Y-96012260D01*
X194252483Y-96056538D01*
X194105893Y-96150866D01*
X193977690Y-96063269D01*
X193725800Y-96012260D01*
X193217800Y-96012260D01*
X192989200Y-96055274D01*
X192989200Y-91135200D01*
X192929263Y-90833875D01*
X192758576Y-90578424D01*
X191619922Y-89439770D01*
X193427324Y-89439770D01*
X193597155Y-89849804D01*
X193987442Y-90278063D01*
X194511908Y-90524366D01*
X194741800Y-90403699D01*
X194741800Y-89209880D01*
X194995800Y-89209880D01*
X194995800Y-90403699D01*
X195225692Y-90524366D01*
X195750158Y-90278063D01*
X196140445Y-89849804D01*
X196209926Y-89682050D01*
X198836000Y-89682050D01*
X198836000Y-90522609D01*
X198932673Y-90755998D01*
X199111301Y-90934627D01*
X199344690Y-91031300D01*
X199485250Y-91031300D01*
X199644000Y-90872550D01*
X199644000Y-89523300D01*
X199898000Y-89523300D01*
X199898000Y-90872550D01*
X200056750Y-91031300D01*
X200197310Y-91031300D01*
X200406000Y-90944858D01*
X200614690Y-91031300D01*
X200755250Y-91031300D01*
X200914000Y-90872550D01*
X200914000Y-89523300D01*
X201168000Y-89523300D01*
X201168000Y-90872550D01*
X201326750Y-91031300D01*
X201467310Y-91031300D01*
X201676000Y-90944858D01*
X201884690Y-91031300D01*
X202025250Y-91031300D01*
X202184000Y-90872550D01*
X202184000Y-89523300D01*
X201168000Y-89523300D01*
X200914000Y-89523300D01*
X199898000Y-89523300D01*
X199644000Y-89523300D01*
X198994750Y-89523300D01*
X198836000Y-89682050D01*
X196209926Y-89682050D01*
X196310276Y-89439770D01*
X196188955Y-89209880D01*
X194995800Y-89209880D01*
X194741800Y-89209880D01*
X193548645Y-89209880D01*
X193427324Y-89439770D01*
X191619922Y-89439770D01*
X189413600Y-87233448D01*
X189470400Y-86947893D01*
X189470400Y-86889707D01*
X189357361Y-86321422D01*
X189035454Y-85839653D01*
X188553685Y-85517746D01*
X187985400Y-85404707D01*
X187417115Y-85517746D01*
X186935346Y-85839653D01*
X186715400Y-86168826D01*
X186495454Y-85839653D01*
X186013685Y-85517746D01*
X185445400Y-85404707D01*
X184877115Y-85517746D01*
X184395346Y-85839653D01*
X184175400Y-86168826D01*
X183955454Y-85839653D01*
X183473685Y-85517746D01*
X182905400Y-85404707D01*
X182337115Y-85517746D01*
X181855346Y-85839653D01*
X181643436Y-86156800D01*
X180553246Y-86156800D01*
X180377747Y-85894146D01*
X180333823Y-85864797D01*
X180508298Y-85792527D01*
X180686927Y-85613899D01*
X180783600Y-85380510D01*
X180783600Y-84689950D01*
X180624850Y-84531200D01*
X179425600Y-84531200D01*
X179425600Y-84551200D01*
X179171600Y-84551200D01*
X179171600Y-84531200D01*
X177972350Y-84531200D01*
X177813600Y-84689950D01*
X177813600Y-85380510D01*
X177910273Y-85613899D01*
X178088902Y-85792527D01*
X178263377Y-85864797D01*
X178219453Y-85894146D01*
X177897546Y-86375915D01*
X177784507Y-86944200D01*
X177897546Y-87512485D01*
X178219453Y-87994254D01*
X178548626Y-88214200D01*
X178219453Y-88434146D01*
X177897546Y-88915915D01*
X177784507Y-89484200D01*
X177897546Y-90052485D01*
X178219453Y-90534254D01*
X178701222Y-90856161D01*
X179269507Y-90969200D01*
X179327693Y-90969200D01*
X179895978Y-90856161D01*
X180377747Y-90534254D01*
X180553246Y-90271600D01*
X181407960Y-90271600D01*
X181407960Y-90308800D01*
X181452238Y-90544117D01*
X181591310Y-90760241D01*
X181803510Y-90905231D01*
X182055400Y-90956240D01*
X183755400Y-90956240D01*
X183990717Y-90911962D01*
X184206841Y-90772890D01*
X184351831Y-90560690D01*
X184365486Y-90493259D01*
X184395346Y-90537947D01*
X184877115Y-90859854D01*
X185445400Y-90972893D01*
X186013685Y-90859854D01*
X186495454Y-90537947D01*
X186715400Y-90208774D01*
X186935346Y-90537947D01*
X187417115Y-90859854D01*
X187985400Y-90972893D01*
X188319487Y-90906439D01*
X190144400Y-92731352D01*
X190144400Y-95101648D01*
X188923176Y-93880424D01*
X188667725Y-93709737D01*
X188366400Y-93649800D01*
X177973752Y-93649800D01*
X174163156Y-89839204D01*
X174163162Y-89832433D01*
X174021117Y-89488657D01*
X173758327Y-89225408D01*
X173414799Y-89082762D01*
X173042833Y-89082438D01*
X172699057Y-89224483D01*
X172435808Y-89487273D01*
X172350747Y-89692121D01*
X172255433Y-89692038D01*
X172020600Y-89789069D01*
X172020600Y-89756998D01*
X171861852Y-89756998D01*
X172020600Y-89598250D01*
X172020600Y-88757691D01*
X171923927Y-88524302D01*
X171745299Y-88345673D01*
X171511910Y-88249000D01*
X170821350Y-88249000D01*
X170662600Y-88407750D01*
X170662600Y-89757000D01*
X170682600Y-89757000D01*
X170682600Y-90011000D01*
X170662600Y-90011000D01*
X170662600Y-91360250D01*
X170821350Y-91519000D01*
X171511910Y-91519000D01*
X171745299Y-91422327D01*
X171829324Y-91338302D01*
X171910273Y-91419392D01*
X172253801Y-91562038D01*
X172261893Y-91562045D01*
X176608224Y-95908376D01*
X176863675Y-96079063D01*
X177165000Y-96139000D01*
X185234333Y-96139000D01*
X185146359Y-96195610D01*
X185001369Y-96407810D01*
X184994081Y-96443800D01*
X183692800Y-96443800D01*
X183391475Y-96503737D01*
X183136024Y-96674424D01*
X182475624Y-97334824D01*
X182328133Y-97555560D01*
X182232400Y-97555560D01*
X181997083Y-97599838D01*
X181780959Y-97738910D01*
X181635969Y-97951110D01*
X181584960Y-98203000D01*
X181584960Y-99203000D01*
X181629238Y-99438317D01*
X181768310Y-99654441D01*
X181980510Y-99799431D01*
X182232400Y-99850440D01*
X183832400Y-99850440D01*
X184067717Y-99806162D01*
X184283841Y-99667090D01*
X184428831Y-99454890D01*
X184479840Y-99203000D01*
X184479840Y-98203000D01*
X184445143Y-98018600D01*
X184990984Y-98018600D01*
X184994638Y-98038017D01*
X185064400Y-98146430D01*
X185064400Y-98933000D01*
X185124337Y-99234325D01*
X185295024Y-99489776D01*
X185891924Y-100086676D01*
X186147375Y-100257363D01*
X186448700Y-100317300D01*
X195453000Y-100317300D01*
X195754325Y-100257363D01*
X196009776Y-100086676D01*
X197533776Y-98562676D01*
X197704463Y-98307225D01*
X197764400Y-98005900D01*
X197764400Y-94740840D01*
X197827000Y-94740840D01*
X198062317Y-94696562D01*
X198278441Y-94557490D01*
X198423431Y-94345290D01*
X198437086Y-94277859D01*
X198466946Y-94322547D01*
X198948715Y-94644454D01*
X199517000Y-94757493D01*
X200085285Y-94644454D01*
X200567054Y-94322547D01*
X200761993Y-94030800D01*
X201676000Y-94030800D01*
X201977325Y-93970863D01*
X202232776Y-93800176D01*
X203772096Y-92260856D01*
X203778867Y-92260862D01*
X204122643Y-92118817D01*
X204385892Y-91856027D01*
X204528538Y-91512499D01*
X204528862Y-91140533D01*
X204483195Y-91030009D01*
X204551000Y-91043740D01*
X205151000Y-91043740D01*
X205386317Y-90999462D01*
X205485528Y-90935622D01*
X205569110Y-90992731D01*
X205821000Y-91043740D01*
X206421000Y-91043740D01*
X206656317Y-90999462D01*
X206755528Y-90935622D01*
X206839110Y-90992731D01*
X207091000Y-91043740D01*
X207691000Y-91043740D01*
X207926317Y-90999462D01*
X208025528Y-90935622D01*
X208109110Y-90992731D01*
X208361000Y-91043740D01*
X208961000Y-91043740D01*
X209196317Y-90999462D01*
X209295528Y-90935622D01*
X209379110Y-90992731D01*
X209631000Y-91043740D01*
X210231000Y-91043740D01*
X210466317Y-90999462D01*
X210565528Y-90935622D01*
X210649110Y-90992731D01*
X210901000Y-91043740D01*
X211501000Y-91043740D01*
X211709000Y-91004602D01*
X211709000Y-91864985D01*
X211587717Y-91571457D01*
X211324927Y-91308208D01*
X210981399Y-91165562D01*
X210609433Y-91165238D01*
X210265657Y-91307283D01*
X210002408Y-91570073D01*
X209859762Y-91913601D01*
X209859724Y-91957646D01*
X207004585Y-94812785D01*
X206959347Y-94880488D01*
X206752927Y-94673708D01*
X206409399Y-94531062D01*
X206037433Y-94530738D01*
X205693657Y-94672783D01*
X205662486Y-94703900D01*
X202514200Y-94703900D01*
X202222595Y-94761904D01*
X201986289Y-94919799D01*
X201975385Y-94927085D01*
X201457295Y-95445175D01*
X201414633Y-95445138D01*
X201070857Y-95587183D01*
X200807608Y-95849973D01*
X200664962Y-96193501D01*
X200664638Y-96565467D01*
X200806683Y-96909243D01*
X201069473Y-97172492D01*
X201413001Y-97315138D01*
X201784967Y-97315462D01*
X202128743Y-97173417D01*
X202391992Y-96910627D01*
X202534638Y-96567099D01*
X202534676Y-96523054D01*
X202829830Y-96227900D01*
X203128677Y-96227900D01*
X203128438Y-96501967D01*
X203270483Y-96845743D01*
X203533273Y-97108992D01*
X203876801Y-97251638D01*
X204248767Y-97251962D01*
X204592543Y-97109917D01*
X204623714Y-97078800D01*
X205814534Y-97078800D01*
X205844673Y-97108992D01*
X206188201Y-97251638D01*
X206560167Y-97251962D01*
X206781400Y-97160551D01*
X206781400Y-98083969D01*
X205881570Y-98983800D01*
X199544066Y-98983800D01*
X199513927Y-98953608D01*
X199170399Y-98810962D01*
X198798433Y-98810638D01*
X198454657Y-98952683D01*
X198191408Y-99215473D01*
X198048762Y-99559001D01*
X198048438Y-99930967D01*
X198190483Y-100274743D01*
X198453273Y-100537992D01*
X198796801Y-100680638D01*
X199168767Y-100680962D01*
X199512543Y-100538917D01*
X199543714Y-100507800D01*
X206197200Y-100507800D01*
X206488805Y-100449796D01*
X206736015Y-100284615D01*
X208082215Y-98938416D01*
X208247396Y-98691205D01*
X208282664Y-98513900D01*
X208305400Y-98399600D01*
X208305400Y-95667230D01*
X208965800Y-95006830D01*
X208965800Y-102220634D01*
X208935608Y-102250773D01*
X208792962Y-102594301D01*
X208792638Y-102966267D01*
X208934683Y-103310043D01*
X209197473Y-103573292D01*
X209541001Y-103715938D01*
X209912967Y-103716262D01*
X210256743Y-103574217D01*
X210519992Y-103311427D01*
X210662638Y-102967899D01*
X210662962Y-102595933D01*
X210520917Y-102252157D01*
X210489800Y-102220986D01*
X210489800Y-94473430D01*
X210911705Y-94051525D01*
X210954367Y-94051562D01*
X211298143Y-93909517D01*
X211561392Y-93646727D01*
X211704038Y-93303199D01*
X211704362Y-92931233D01*
X211582122Y-92635389D01*
X211586792Y-92630727D01*
X211709000Y-92336419D01*
X211709000Y-99464734D01*
X211678808Y-99494873D01*
X211536162Y-99838401D01*
X211535838Y-100210367D01*
X211677883Y-100554143D01*
X211940673Y-100817392D01*
X212284201Y-100960038D01*
X212656167Y-100960362D01*
X212979000Y-100826970D01*
X212979000Y-104306969D01*
X212701470Y-104584500D01*
X203455467Y-104584500D01*
X203311227Y-104440008D01*
X202967699Y-104297362D01*
X202595733Y-104297038D01*
X202251957Y-104439083D01*
X201988708Y-104701873D01*
X201846062Y-105045401D01*
X201845738Y-105417367D01*
X201987783Y-105761143D01*
X202250573Y-106024392D01*
X202594101Y-106167038D01*
X202966067Y-106167362D01*
X203108524Y-106108500D01*
X212663369Y-106108500D01*
X208332670Y-110439200D01*
X186309000Y-110439200D01*
X186231927Y-110454531D01*
X186153345Y-110455267D01*
X186087533Y-110483253D01*
X186017395Y-110497204D01*
X185952054Y-110540863D01*
X185879738Y-110571615D01*
X185041537Y-111143115D01*
X184991444Y-111194155D01*
X184931985Y-111233885D01*
X184888327Y-111299224D01*
X184866106Y-111321865D01*
X184774289Y-111260515D01*
X184200800Y-111146441D01*
X183627311Y-111260515D01*
X183141130Y-111585371D01*
X182816274Y-112071552D01*
X182702200Y-112645041D01*
X182702200Y-112703759D01*
X182767172Y-113030398D01*
X182023685Y-113773885D01*
X181858504Y-114021095D01*
X181800500Y-114312700D01*
X181800500Y-116205000D01*
X181858504Y-116496605D01*
X181879781Y-116528448D01*
X182023685Y-116743815D01*
X182861885Y-117582016D01*
X183010077Y-117681034D01*
X183109095Y-117747196D01*
X183400700Y-117805200D01*
X204825600Y-117805200D01*
X205117205Y-117747196D01*
X205364415Y-117582015D01*
X209440766Y-113505664D01*
X209486274Y-113734448D01*
X209811130Y-114220629D01*
X210081972Y-114401600D01*
X209811130Y-114582571D01*
X209486274Y-115068752D01*
X209372200Y-115642241D01*
X209372200Y-115700959D01*
X209486274Y-116274448D01*
X209811130Y-116760629D01*
X210297311Y-117085485D01*
X210870800Y-117199559D01*
X211444289Y-117085485D01*
X211930470Y-116760629D01*
X212140800Y-116445848D01*
X212351130Y-116760629D01*
X212837311Y-117085485D01*
X213410800Y-117199559D01*
X213984289Y-117085485D01*
X214470470Y-116760629D01*
X214680800Y-116445848D01*
X214891130Y-116760629D01*
X215377311Y-117085485D01*
X215950800Y-117199559D01*
X216458800Y-117098512D01*
X216458800Y-119225934D01*
X216428608Y-119256073D01*
X216285962Y-119599601D01*
X216285799Y-119786398D01*
X179842828Y-119786398D01*
X171938015Y-111881585D01*
X171902180Y-111857641D01*
X171690805Y-111716404D01*
X171399200Y-111658400D01*
X163561431Y-111658400D01*
X162209815Y-110306785D01*
X161962605Y-110141604D01*
X161671000Y-110083600D01*
X151028400Y-110083600D01*
X150736795Y-110141604D01*
X150489584Y-110306785D01*
X149016385Y-111779985D01*
X148851204Y-112027195D01*
X148793200Y-112318800D01*
X148793200Y-116738400D01*
X148851204Y-117030005D01*
X148860021Y-117043200D01*
X149016385Y-117277215D01*
X151581784Y-119842615D01*
X151777217Y-119973199D01*
X151828995Y-120007796D01*
X152120600Y-120065800D01*
X153187400Y-120065800D01*
X153479005Y-120007796D01*
X153726215Y-119842615D01*
X156189986Y-117378845D01*
X156565600Y-117453559D01*
X157139089Y-117339485D01*
X157625270Y-117014629D01*
X157841264Y-116691372D01*
X157898779Y-116814090D01*
X158330653Y-117208288D01*
X158746574Y-117380558D01*
X158978600Y-117259417D01*
X158978600Y-116052600D01*
X159232600Y-116052600D01*
X159232600Y-117259417D01*
X159464626Y-117380558D01*
X159880547Y-117208288D01*
X160312421Y-116814090D01*
X160560568Y-116284627D01*
X160440069Y-116052600D01*
X159232600Y-116052600D01*
X158978600Y-116052600D01*
X158958600Y-116052600D01*
X158958600Y-115798600D01*
X158978600Y-115798600D01*
X158978600Y-115778600D01*
X159232600Y-115778600D01*
X159232600Y-115798600D01*
X160440069Y-115798600D01*
X160560568Y-115566573D01*
X160490748Y-115417600D01*
X161964970Y-115417600D01*
X162351385Y-115804016D01*
X162598596Y-115969197D01*
X162890200Y-116027200D01*
X164068760Y-116027200D01*
X164068760Y-116115200D01*
X164113038Y-116350517D01*
X164252110Y-116566641D01*
X164464310Y-116711631D01*
X164716200Y-116762640D01*
X166716200Y-116762640D01*
X166951517Y-116718362D01*
X167167641Y-116579290D01*
X167312631Y-116367090D01*
X167363640Y-116115200D01*
X167363640Y-114415200D01*
X167361081Y-114401600D01*
X168071514Y-114401600D01*
X168068760Y-114415200D01*
X168068760Y-116115200D01*
X168113038Y-116350517D01*
X168252110Y-116566641D01*
X168464310Y-116711631D01*
X168716200Y-116762640D01*
X170716200Y-116762640D01*
X170951517Y-116718362D01*
X171167641Y-116579290D01*
X171312631Y-116367090D01*
X171363640Y-116115200D01*
X171363640Y-116027200D01*
X171591570Y-116027200D01*
X178277185Y-122712816D01*
X178425377Y-122811834D01*
X178524395Y-122877996D01*
X178816000Y-122936000D01*
X227152200Y-122936000D01*
X227443805Y-122877996D01*
X227691015Y-122712815D01*
X227794600Y-122609230D01*
X227576980Y-123133317D01*
X227575822Y-124460062D01*
X228082476Y-125686258D01*
X229019807Y-126625227D01*
X229375684Y-126773000D01*
X174460199Y-126773000D01*
X174809858Y-126628524D01*
X175748827Y-125691193D01*
X176257620Y-124465883D01*
X176258778Y-123139138D01*
X175752124Y-121912942D01*
X174814793Y-120973973D01*
X173589483Y-120465180D01*
X172262738Y-120464022D01*
X171036542Y-120970676D01*
X170097573Y-121908007D01*
X169588780Y-123133317D01*
X169587622Y-124460062D01*
X170094276Y-125686258D01*
X171031607Y-126625227D01*
X171387484Y-126773000D01*
X136027972Y-126773000D01*
X136316158Y-126653924D01*
X137255127Y-125716593D01*
X137763920Y-124491283D01*
X137765078Y-123164538D01*
X137258424Y-121938342D01*
X136321093Y-120999373D01*
X135095783Y-120490580D01*
X133769038Y-120489422D01*
X132542842Y-120996076D01*
X131603873Y-121933407D01*
X131545000Y-122075189D01*
X131545000Y-84397850D01*
X142424400Y-84397850D01*
X142424400Y-85038410D01*
X142521073Y-85271799D01*
X142699702Y-85450427D01*
X142933091Y-85547100D01*
X143273650Y-85547100D01*
X143432400Y-85388350D01*
X143432400Y-84239100D01*
X143686400Y-84239100D01*
X143686400Y-85388350D01*
X143845150Y-85547100D01*
X144185709Y-85547100D01*
X144419098Y-85450427D01*
X144597727Y-85271799D01*
X144694400Y-85038410D01*
X144694400Y-84397850D01*
X144535650Y-84239100D01*
X143686400Y-84239100D01*
X143432400Y-84239100D01*
X142583150Y-84239100D01*
X142424400Y-84397850D01*
X131545000Y-84397850D01*
X131545000Y-83185790D01*
X142424400Y-83185790D01*
X142424400Y-83826350D01*
X142583150Y-83985100D01*
X143432400Y-83985100D01*
X143432400Y-82835850D01*
X143686400Y-82835850D01*
X143686400Y-83985100D01*
X144535650Y-83985100D01*
X144694400Y-83826350D01*
X144694400Y-83312100D01*
X145411960Y-83312100D01*
X145411960Y-84912100D01*
X145456238Y-85147417D01*
X145595310Y-85363541D01*
X145807510Y-85508531D01*
X146059400Y-85559540D01*
X147059400Y-85559540D01*
X147294717Y-85515262D01*
X147510841Y-85376190D01*
X147655831Y-85163990D01*
X147706840Y-84912100D01*
X147706840Y-84874100D01*
X148866860Y-84874100D01*
X148866860Y-84936700D01*
X148911138Y-85172017D01*
X149050210Y-85388141D01*
X149262410Y-85533131D01*
X149514300Y-85584140D01*
X151514300Y-85584140D01*
X151749617Y-85539862D01*
X151965741Y-85400790D01*
X152110731Y-85188590D01*
X152161740Y-84936700D01*
X152161740Y-83236700D01*
X152117462Y-83001383D01*
X151978390Y-82785259D01*
X151766190Y-82640269D01*
X151514300Y-82589260D01*
X149514300Y-82589260D01*
X149278983Y-82633538D01*
X149062859Y-82772610D01*
X148917869Y-82984810D01*
X148866860Y-83236700D01*
X148866860Y-83350100D01*
X147706840Y-83350100D01*
X147706840Y-83312100D01*
X147662562Y-83076783D01*
X147523490Y-82860659D01*
X147311290Y-82715669D01*
X147059400Y-82664660D01*
X146059400Y-82664660D01*
X145824083Y-82708938D01*
X145607959Y-82848010D01*
X145462969Y-83060210D01*
X145411960Y-83312100D01*
X144694400Y-83312100D01*
X144694400Y-83185790D01*
X144597727Y-82952401D01*
X144419098Y-82773773D01*
X144185709Y-82677100D01*
X143845150Y-82677100D01*
X143686400Y-82835850D01*
X143432400Y-82835850D01*
X143273650Y-82677100D01*
X142933091Y-82677100D01*
X142699702Y-82773773D01*
X142521073Y-82952401D01*
X142424400Y-83185790D01*
X131545000Y-83185790D01*
X131545000Y-80232250D01*
X142411700Y-80232250D01*
X142411700Y-80872810D01*
X142508373Y-81106199D01*
X142687002Y-81284827D01*
X142920391Y-81381500D01*
X143260950Y-81381500D01*
X143419700Y-81222750D01*
X143419700Y-80073500D01*
X143673700Y-80073500D01*
X143673700Y-81222750D01*
X143832450Y-81381500D01*
X144173009Y-81381500D01*
X144406398Y-81284827D01*
X144585027Y-81106199D01*
X144681700Y-80872810D01*
X144681700Y-80232250D01*
X144522950Y-80073500D01*
X143673700Y-80073500D01*
X143419700Y-80073500D01*
X142570450Y-80073500D01*
X142411700Y-80232250D01*
X131545000Y-80232250D01*
X131545000Y-79020190D01*
X142411700Y-79020190D01*
X142411700Y-79660750D01*
X142570450Y-79819500D01*
X143419700Y-79819500D01*
X143419700Y-78670250D01*
X143673700Y-78670250D01*
X143673700Y-79819500D01*
X144522950Y-79819500D01*
X144681700Y-79660750D01*
X144681700Y-79146500D01*
X145399260Y-79146500D01*
X145399260Y-80746500D01*
X145443538Y-80981817D01*
X145582610Y-81197941D01*
X145794810Y-81342931D01*
X146046700Y-81393940D01*
X147046700Y-81393940D01*
X147282017Y-81349662D01*
X147498141Y-81210590D01*
X147643131Y-80998390D01*
X147694140Y-80746500D01*
X147694140Y-80708500D01*
X148790660Y-80708500D01*
X148790660Y-80745700D01*
X148834938Y-80981017D01*
X148974010Y-81197141D01*
X149186210Y-81342131D01*
X149438100Y-81393140D01*
X151438100Y-81393140D01*
X151673417Y-81348862D01*
X151889541Y-81209790D01*
X152034531Y-80997590D01*
X152085540Y-80745700D01*
X152085540Y-79045700D01*
X152041262Y-78810383D01*
X151902190Y-78594259D01*
X151689990Y-78449269D01*
X151438100Y-78398260D01*
X149438100Y-78398260D01*
X149202783Y-78442538D01*
X148986659Y-78581610D01*
X148841669Y-78793810D01*
X148790660Y-79045700D01*
X148790660Y-79184500D01*
X147694140Y-79184500D01*
X147694140Y-79146500D01*
X147649862Y-78911183D01*
X147510790Y-78695059D01*
X147298590Y-78550069D01*
X147046700Y-78499060D01*
X146046700Y-78499060D01*
X145811383Y-78543338D01*
X145595259Y-78682410D01*
X145450269Y-78894610D01*
X145399260Y-79146500D01*
X144681700Y-79146500D01*
X144681700Y-79020190D01*
X144585027Y-78786801D01*
X144406398Y-78608173D01*
X144173009Y-78511500D01*
X143832450Y-78511500D01*
X143673700Y-78670250D01*
X143419700Y-78670250D01*
X143260950Y-78511500D01*
X142920391Y-78511500D01*
X142687002Y-78608173D01*
X142508373Y-78786801D01*
X142411700Y-79020190D01*
X131545000Y-79020190D01*
X131545000Y-76155581D01*
X131765676Y-76689658D01*
X132703007Y-77628627D01*
X133928317Y-78137420D01*
X135255062Y-78138578D01*
X136481258Y-77631924D01*
X137420227Y-76694593D01*
X137508320Y-76482440D01*
X139089165Y-76482440D01*
X139298353Y-76843289D01*
X140235650Y-77220824D01*
X141246077Y-77210933D01*
X141626846Y-77053213D01*
X147027392Y-77053213D01*
X147096857Y-77295397D01*
X147620302Y-77482144D01*
X148175368Y-77454362D01*
X148559143Y-77295397D01*
X148628608Y-77053213D01*
X147828000Y-76252605D01*
X147027392Y-77053213D01*
X141626846Y-77053213D01*
X142133647Y-76843289D01*
X142342835Y-76482440D01*
X140716000Y-74855605D01*
X139089165Y-76482440D01*
X137508320Y-76482440D01*
X137929020Y-75469283D01*
X137930131Y-74195650D01*
X138171176Y-74195650D01*
X138181067Y-75206077D01*
X138548711Y-76093647D01*
X138909560Y-76302835D01*
X140536395Y-74676000D01*
X140895605Y-74676000D01*
X142522440Y-76302835D01*
X142883289Y-76093647D01*
X142975264Y-75865302D01*
X146418856Y-75865302D01*
X146446638Y-76420368D01*
X146605603Y-76804143D01*
X146847787Y-76873608D01*
X147648395Y-76073000D01*
X146847787Y-75272392D01*
X146605603Y-75341857D01*
X146418856Y-75865302D01*
X142975264Y-75865302D01*
X143260824Y-75156350D01*
X143260202Y-75092787D01*
X147027392Y-75092787D01*
X147828000Y-75893395D01*
X148628608Y-75092787D01*
X148559143Y-74850603D01*
X148035698Y-74663856D01*
X147480632Y-74691638D01*
X147096857Y-74850603D01*
X147027392Y-75092787D01*
X143260202Y-75092787D01*
X143250933Y-74145923D01*
X143006439Y-73555661D01*
X147700758Y-73555661D01*
X147912990Y-74069303D01*
X148305630Y-74462629D01*
X148818900Y-74675757D01*
X149374661Y-74676242D01*
X149888303Y-74464010D01*
X150281629Y-74071370D01*
X150494757Y-73558100D01*
X150494759Y-73555664D01*
X150706990Y-74069303D01*
X151099630Y-74462629D01*
X151612900Y-74675757D01*
X152168661Y-74676242D01*
X152682303Y-74464010D01*
X153075629Y-74071370D01*
X153225606Y-73710185D01*
X153373990Y-74069303D01*
X153766630Y-74462629D01*
X154279900Y-74675757D01*
X154835661Y-74676242D01*
X155349303Y-74464010D01*
X155742629Y-74071370D01*
X155955757Y-73558100D01*
X155955759Y-73555664D01*
X156167990Y-74069303D01*
X156560630Y-74462629D01*
X157073900Y-74675757D01*
X157629661Y-74676242D01*
X158143303Y-74464010D01*
X158536629Y-74071370D01*
X158749757Y-73558100D01*
X158750242Y-73002339D01*
X158695379Y-72869560D01*
X164108165Y-72869560D01*
X165735000Y-74496395D01*
X167361835Y-72869560D01*
X167152647Y-72508711D01*
X166215350Y-72131176D01*
X165204923Y-72141067D01*
X164317353Y-72508711D01*
X164108165Y-72869560D01*
X158695379Y-72869560D01*
X158538010Y-72488697D01*
X158145370Y-72095371D01*
X157632100Y-71882243D01*
X157076339Y-71881758D01*
X156562697Y-72093990D01*
X156169371Y-72486630D01*
X155956243Y-72999900D01*
X155956241Y-73002336D01*
X155744010Y-72488697D01*
X155351370Y-72095371D01*
X154838100Y-71882243D01*
X154282339Y-71881758D01*
X153768697Y-72093990D01*
X153375371Y-72486630D01*
X153225394Y-72847815D01*
X153077010Y-72488697D01*
X152684370Y-72095371D01*
X152171100Y-71882243D01*
X151615339Y-71881758D01*
X151101697Y-72093990D01*
X150708371Y-72486630D01*
X150495243Y-72999900D01*
X150495241Y-73002336D01*
X150283010Y-72488697D01*
X149890370Y-72095371D01*
X149377100Y-71882243D01*
X148821339Y-71881758D01*
X148307697Y-72093990D01*
X147914371Y-72486630D01*
X147701243Y-72999900D01*
X147700758Y-73555661D01*
X143006439Y-73555661D01*
X142883289Y-73258353D01*
X142522440Y-73049165D01*
X140895605Y-74676000D01*
X140536395Y-74676000D01*
X138909560Y-73049165D01*
X138548711Y-73258353D01*
X138171176Y-74195650D01*
X137930131Y-74195650D01*
X137930178Y-74142538D01*
X137423524Y-72916342D01*
X137376824Y-72869560D01*
X139089165Y-72869560D01*
X140716000Y-74496395D01*
X142342835Y-72869560D01*
X142133647Y-72508711D01*
X141196350Y-72131176D01*
X140185923Y-72141067D01*
X139298353Y-72508711D01*
X139089165Y-72869560D01*
X137376824Y-72869560D01*
X136486193Y-71977373D01*
X135260883Y-71468580D01*
X133934138Y-71467422D01*
X132707942Y-71974076D01*
X131768973Y-72911407D01*
X131545000Y-73450794D01*
X131545000Y-70331000D01*
X234088000Y-70331000D01*
X234088000Y-73757782D01*
G36*
X222879585Y-79837615D02*
X223126795Y-80002796D01*
X223418400Y-80060800D01*
X230875170Y-80060800D01*
X231718318Y-80903949D01*
X231361233Y-80903638D01*
X231017457Y-81045683D01*
X230754208Y-81308473D01*
X230611562Y-81652001D01*
X230611238Y-82023967D01*
X230753283Y-82367743D01*
X231016073Y-82630992D01*
X231094675Y-82663631D01*
X231094675Y-83179645D01*
X230881325Y-82966295D01*
X230881362Y-82923633D01*
X230739317Y-82579857D01*
X230476527Y-82316608D01*
X230132999Y-82173962D01*
X229761033Y-82173638D01*
X229417257Y-82315683D01*
X229154008Y-82578473D01*
X229011362Y-82922001D01*
X229011038Y-83293967D01*
X229153083Y-83637743D01*
X229415873Y-83900992D01*
X229759401Y-84043638D01*
X229803446Y-84043676D01*
X230450588Y-84690818D01*
X230450588Y-114437957D01*
X225651858Y-119236688D01*
X221466213Y-119236688D01*
X221508438Y-119134999D01*
X221508762Y-118763033D01*
X221366717Y-118419257D01*
X221103927Y-118156008D01*
X220760399Y-118013362D01*
X220716354Y-118013324D01*
X220522800Y-117819770D01*
X220522800Y-117098512D01*
X221030800Y-117199559D01*
X221604289Y-117085485D01*
X222090470Y-116760629D01*
X222415326Y-116274448D01*
X222529400Y-115700959D01*
X222529400Y-115642241D01*
X222415326Y-115068752D01*
X222104226Y-114603158D01*
X222129717Y-114598362D01*
X222345841Y-114459290D01*
X222490831Y-114247090D01*
X222541840Y-113995200D01*
X222541840Y-112268000D01*
X222497562Y-112032683D01*
X222358490Y-111816559D01*
X222146290Y-111671569D01*
X221894400Y-111620560D01*
X220167200Y-111620560D01*
X219931883Y-111664838D01*
X219715759Y-111803910D01*
X219570769Y-112016110D01*
X219561936Y-112059731D01*
X219550470Y-112042571D01*
X219064289Y-111717715D01*
X218490800Y-111603641D01*
X217917311Y-111717715D01*
X217431130Y-112042571D01*
X217220800Y-112357352D01*
X217010470Y-112042571D01*
X216524289Y-111717715D01*
X215950800Y-111603641D01*
X215377311Y-111717715D01*
X214891130Y-112042571D01*
X214680800Y-112357352D01*
X214470470Y-112042571D01*
X213984289Y-111717715D01*
X213410800Y-111603641D01*
X212837311Y-111717715D01*
X212351130Y-112042571D01*
X212140800Y-112357352D01*
X211930470Y-112042571D01*
X211444289Y-111717715D01*
X211264482Y-111681949D01*
X215422816Y-107523615D01*
X215422818Y-107523612D01*
X218216722Y-104729708D01*
X218405601Y-104808138D01*
X218777567Y-104808462D01*
X219121343Y-104666417D01*
X219384592Y-104403627D01*
X219527238Y-104060099D01*
X219527401Y-103873300D01*
X226060000Y-103873300D01*
X226351605Y-103815296D01*
X226598815Y-103650115D01*
X229037215Y-101211716D01*
X229202396Y-100964505D01*
X229208889Y-100931862D01*
X229260400Y-100672900D01*
X229260400Y-95783400D01*
X229245924Y-95710624D01*
X229202397Y-95491796D01*
X229037216Y-95244585D01*
X227957715Y-94165085D01*
X227850431Y-94093400D01*
X227843234Y-94088591D01*
X227880927Y-94050898D01*
X227977600Y-93817509D01*
X227977600Y-93476950D01*
X227818850Y-93318200D01*
X226669600Y-93318200D01*
X226669600Y-93338200D01*
X226415600Y-93338200D01*
X226415600Y-93318200D01*
X225266350Y-93318200D01*
X225107600Y-93476950D01*
X225107600Y-93817509D01*
X225159124Y-93941900D01*
X224954963Y-93941900D01*
X224988800Y-93860210D01*
X224988800Y-93719650D01*
X224830050Y-93560900D01*
X223730800Y-93560900D01*
X223730800Y-93580900D01*
X223476800Y-93580900D01*
X223476800Y-93560900D01*
X223456800Y-93560900D01*
X223456800Y-93306900D01*
X223476800Y-93306900D01*
X223476800Y-92657650D01*
X223730800Y-92657650D01*
X223730800Y-93306900D01*
X224830050Y-93306900D01*
X224988800Y-93148150D01*
X224988800Y-93007590D01*
X224892127Y-92774201D01*
X224713498Y-92595573D01*
X224639426Y-92564891D01*
X225107600Y-92564891D01*
X225107600Y-92905450D01*
X225266350Y-93064200D01*
X226415600Y-93064200D01*
X226415600Y-92214950D01*
X226669600Y-92214950D01*
X226669600Y-93064200D01*
X227818850Y-93064200D01*
X227977600Y-92905450D01*
X227977600Y-92564891D01*
X227880927Y-92331502D01*
X227702299Y-92152873D01*
X227468910Y-92056200D01*
X226828350Y-92056200D01*
X226669600Y-92214950D01*
X226415600Y-92214950D01*
X226256850Y-92056200D01*
X225616290Y-92056200D01*
X225382901Y-92152873D01*
X225204273Y-92331502D01*
X225107600Y-92564891D01*
X224639426Y-92564891D01*
X224480109Y-92498900D01*
X223889550Y-92498900D01*
X223730800Y-92657650D01*
X223476800Y-92657650D01*
X223318050Y-92498900D01*
X222758000Y-92498900D01*
X222758000Y-84124800D01*
X222699996Y-83833195D01*
X222610814Y-83699725D01*
X222534816Y-83585985D01*
X218406315Y-79457485D01*
X218396909Y-79451200D01*
X218159105Y-79292304D01*
X217867500Y-79234300D01*
X217228440Y-79234300D01*
X217228440Y-78996300D01*
X217184162Y-78760983D01*
X217045090Y-78544859D01*
X216832890Y-78399869D01*
X216581000Y-78348860D01*
X215981000Y-78348860D01*
X215745683Y-78393138D01*
X215646472Y-78456978D01*
X215562890Y-78399869D01*
X215311000Y-78348860D01*
X214711000Y-78348860D01*
X214475683Y-78393138D01*
X214376472Y-78456978D01*
X214292890Y-78399869D01*
X214041000Y-78348860D01*
X213441000Y-78348860D01*
X213205683Y-78393138D01*
X213106472Y-78456978D01*
X213022890Y-78399869D01*
X212771000Y-78348860D01*
X212171000Y-78348860D01*
X211935683Y-78393138D01*
X211836472Y-78456978D01*
X211752890Y-78399869D01*
X211501000Y-78348860D01*
X210901000Y-78348860D01*
X210665683Y-78393138D01*
X210566472Y-78456978D01*
X210482890Y-78399869D01*
X210231000Y-78348860D01*
X209631000Y-78348860D01*
X209395683Y-78393138D01*
X209296472Y-78456978D01*
X209212890Y-78399869D01*
X208961000Y-78348860D01*
X208361000Y-78348860D01*
X208125683Y-78393138D01*
X208026472Y-78456978D01*
X207942890Y-78399869D01*
X207691000Y-78348860D01*
X207091000Y-78348860D01*
X207018616Y-78362480D01*
X207000995Y-78273894D01*
X206905115Y-78130400D01*
X221172370Y-78130400D01*
X222879585Y-79837615D01*
X222879585Y-79837615D01*
G37*
X222879585Y-79837615D02*
X223126795Y-80002796D01*
X223418400Y-80060800D01*
X230875170Y-80060800D01*
X231718318Y-80903949D01*
X231361233Y-80903638D01*
X231017457Y-81045683D01*
X230754208Y-81308473D01*
X230611562Y-81652001D01*
X230611238Y-82023967D01*
X230753283Y-82367743D01*
X231016073Y-82630992D01*
X231094675Y-82663631D01*
X231094675Y-83179645D01*
X230881325Y-82966295D01*
X230881362Y-82923633D01*
X230739317Y-82579857D01*
X230476527Y-82316608D01*
X230132999Y-82173962D01*
X229761033Y-82173638D01*
X229417257Y-82315683D01*
X229154008Y-82578473D01*
X229011362Y-82922001D01*
X229011038Y-83293967D01*
X229153083Y-83637743D01*
X229415873Y-83900992D01*
X229759401Y-84043638D01*
X229803446Y-84043676D01*
X230450588Y-84690818D01*
X230450588Y-114437957D01*
X225651858Y-119236688D01*
X221466213Y-119236688D01*
X221508438Y-119134999D01*
X221508762Y-118763033D01*
X221366717Y-118419257D01*
X221103927Y-118156008D01*
X220760399Y-118013362D01*
X220716354Y-118013324D01*
X220522800Y-117819770D01*
X220522800Y-117098512D01*
X221030800Y-117199559D01*
X221604289Y-117085485D01*
X222090470Y-116760629D01*
X222415326Y-116274448D01*
X222529400Y-115700959D01*
X222529400Y-115642241D01*
X222415326Y-115068752D01*
X222104226Y-114603158D01*
X222129717Y-114598362D01*
X222345841Y-114459290D01*
X222490831Y-114247090D01*
X222541840Y-113995200D01*
X222541840Y-112268000D01*
X222497562Y-112032683D01*
X222358490Y-111816559D01*
X222146290Y-111671569D01*
X221894400Y-111620560D01*
X220167200Y-111620560D01*
X219931883Y-111664838D01*
X219715759Y-111803910D01*
X219570769Y-112016110D01*
X219561936Y-112059731D01*
X219550470Y-112042571D01*
X219064289Y-111717715D01*
X218490800Y-111603641D01*
X217917311Y-111717715D01*
X217431130Y-112042571D01*
X217220800Y-112357352D01*
X217010470Y-112042571D01*
X216524289Y-111717715D01*
X215950800Y-111603641D01*
X215377311Y-111717715D01*
X214891130Y-112042571D01*
X214680800Y-112357352D01*
X214470470Y-112042571D01*
X213984289Y-111717715D01*
X213410800Y-111603641D01*
X212837311Y-111717715D01*
X212351130Y-112042571D01*
X212140800Y-112357352D01*
X211930470Y-112042571D01*
X211444289Y-111717715D01*
X211264482Y-111681949D01*
X215422816Y-107523615D01*
X215422818Y-107523612D01*
X218216722Y-104729708D01*
X218405601Y-104808138D01*
X218777567Y-104808462D01*
X219121343Y-104666417D01*
X219384592Y-104403627D01*
X219527238Y-104060099D01*
X219527401Y-103873300D01*
X226060000Y-103873300D01*
X226351605Y-103815296D01*
X226598815Y-103650115D01*
X229037215Y-101211716D01*
X229202396Y-100964505D01*
X229208889Y-100931862D01*
X229260400Y-100672900D01*
X229260400Y-95783400D01*
X229245924Y-95710624D01*
X229202397Y-95491796D01*
X229037216Y-95244585D01*
X227957715Y-94165085D01*
X227850431Y-94093400D01*
X227843234Y-94088591D01*
X227880927Y-94050898D01*
X227977600Y-93817509D01*
X227977600Y-93476950D01*
X227818850Y-93318200D01*
X226669600Y-93318200D01*
X226669600Y-93338200D01*
X226415600Y-93338200D01*
X226415600Y-93318200D01*
X225266350Y-93318200D01*
X225107600Y-93476950D01*
X225107600Y-93817509D01*
X225159124Y-93941900D01*
X224954963Y-93941900D01*
X224988800Y-93860210D01*
X224988800Y-93719650D01*
X224830050Y-93560900D01*
X223730800Y-93560900D01*
X223730800Y-93580900D01*
X223476800Y-93580900D01*
X223476800Y-93560900D01*
X223456800Y-93560900D01*
X223456800Y-93306900D01*
X223476800Y-93306900D01*
X223476800Y-92657650D01*
X223730800Y-92657650D01*
X223730800Y-93306900D01*
X224830050Y-93306900D01*
X224988800Y-93148150D01*
X224988800Y-93007590D01*
X224892127Y-92774201D01*
X224713498Y-92595573D01*
X224639426Y-92564891D01*
X225107600Y-92564891D01*
X225107600Y-92905450D01*
X225266350Y-93064200D01*
X226415600Y-93064200D01*
X226415600Y-92214950D01*
X226669600Y-92214950D01*
X226669600Y-93064200D01*
X227818850Y-93064200D01*
X227977600Y-92905450D01*
X227977600Y-92564891D01*
X227880927Y-92331502D01*
X227702299Y-92152873D01*
X227468910Y-92056200D01*
X226828350Y-92056200D01*
X226669600Y-92214950D01*
X226415600Y-92214950D01*
X226256850Y-92056200D01*
X225616290Y-92056200D01*
X225382901Y-92152873D01*
X225204273Y-92331502D01*
X225107600Y-92564891D01*
X224639426Y-92564891D01*
X224480109Y-92498900D01*
X223889550Y-92498900D01*
X223730800Y-92657650D01*
X223476800Y-92657650D01*
X223318050Y-92498900D01*
X222758000Y-92498900D01*
X222758000Y-84124800D01*
X222699996Y-83833195D01*
X222610814Y-83699725D01*
X222534816Y-83585985D01*
X218406315Y-79457485D01*
X218396909Y-79451200D01*
X218159105Y-79292304D01*
X217867500Y-79234300D01*
X217228440Y-79234300D01*
X217228440Y-78996300D01*
X217184162Y-78760983D01*
X217045090Y-78544859D01*
X216832890Y-78399869D01*
X216581000Y-78348860D01*
X215981000Y-78348860D01*
X215745683Y-78393138D01*
X215646472Y-78456978D01*
X215562890Y-78399869D01*
X215311000Y-78348860D01*
X214711000Y-78348860D01*
X214475683Y-78393138D01*
X214376472Y-78456978D01*
X214292890Y-78399869D01*
X214041000Y-78348860D01*
X213441000Y-78348860D01*
X213205683Y-78393138D01*
X213106472Y-78456978D01*
X213022890Y-78399869D01*
X212771000Y-78348860D01*
X212171000Y-78348860D01*
X211935683Y-78393138D01*
X211836472Y-78456978D01*
X211752890Y-78399869D01*
X211501000Y-78348860D01*
X210901000Y-78348860D01*
X210665683Y-78393138D01*
X210566472Y-78456978D01*
X210482890Y-78399869D01*
X210231000Y-78348860D01*
X209631000Y-78348860D01*
X209395683Y-78393138D01*
X209296472Y-78456978D01*
X209212890Y-78399869D01*
X208961000Y-78348860D01*
X208361000Y-78348860D01*
X208125683Y-78393138D01*
X208026472Y-78456978D01*
X207942890Y-78399869D01*
X207691000Y-78348860D01*
X207091000Y-78348860D01*
X207018616Y-78362480D01*
X207000995Y-78273894D01*
X206905115Y-78130400D01*
X221172370Y-78130400D01*
X222879585Y-79837615D01*
G36*
X188112400Y-75895200D02*
X188132400Y-75895200D01*
X188132400Y-76149200D01*
X188112400Y-76149200D01*
X188112400Y-77342355D01*
X188342290Y-77463676D01*
X188752324Y-77293845D01*
X189180583Y-76903558D01*
X189247698Y-76760647D01*
X189475346Y-77101347D01*
X189957115Y-77423254D01*
X190525400Y-77536293D01*
X191093685Y-77423254D01*
X191575454Y-77101347D01*
X191795400Y-76772174D01*
X192015346Y-77101347D01*
X192497115Y-77423254D01*
X193065400Y-77536293D01*
X193633685Y-77423254D01*
X194115454Y-77101347D01*
X194335400Y-76772174D01*
X194555346Y-77101347D01*
X195037115Y-77423254D01*
X195532296Y-77521752D01*
X194312024Y-78742024D01*
X194141337Y-78997475D01*
X194081400Y-79298800D01*
X194081400Y-79965440D01*
X194018800Y-79965440D01*
X193783483Y-80009718D01*
X193567359Y-80148790D01*
X193422369Y-80360990D01*
X193371360Y-80612880D01*
X193371360Y-81391888D01*
X190086496Y-78107024D01*
X189831045Y-77936337D01*
X189529720Y-77876400D01*
X185873152Y-77876400D01*
X185518504Y-77521752D01*
X186013685Y-77423254D01*
X186495454Y-77101347D01*
X186723102Y-76760647D01*
X186790217Y-76903558D01*
X187218476Y-77293845D01*
X187628510Y-77463676D01*
X187858400Y-77342355D01*
X187858400Y-76149200D01*
X187838400Y-76149200D01*
X187838400Y-75895200D01*
X187858400Y-75895200D01*
X187858400Y-75875200D01*
X188112400Y-75875200D01*
X188112400Y-75895200D01*
X188112400Y-75895200D01*
G37*
X188112400Y-75895200D02*
X188132400Y-75895200D01*
X188132400Y-76149200D01*
X188112400Y-76149200D01*
X188112400Y-77342355D01*
X188342290Y-77463676D01*
X188752324Y-77293845D01*
X189180583Y-76903558D01*
X189247698Y-76760647D01*
X189475346Y-77101347D01*
X189957115Y-77423254D01*
X190525400Y-77536293D01*
X191093685Y-77423254D01*
X191575454Y-77101347D01*
X191795400Y-76772174D01*
X192015346Y-77101347D01*
X192497115Y-77423254D01*
X193065400Y-77536293D01*
X193633685Y-77423254D01*
X194115454Y-77101347D01*
X194335400Y-76772174D01*
X194555346Y-77101347D01*
X195037115Y-77423254D01*
X195532296Y-77521752D01*
X194312024Y-78742024D01*
X194141337Y-78997475D01*
X194081400Y-79298800D01*
X194081400Y-79965440D01*
X194018800Y-79965440D01*
X193783483Y-80009718D01*
X193567359Y-80148790D01*
X193422369Y-80360990D01*
X193371360Y-80612880D01*
X193371360Y-81391888D01*
X190086496Y-78107024D01*
X189831045Y-77936337D01*
X189529720Y-77876400D01*
X185873152Y-77876400D01*
X185518504Y-77521752D01*
X186013685Y-77423254D01*
X186495454Y-77101347D01*
X186723102Y-76760647D01*
X186790217Y-76903558D01*
X187218476Y-77293845D01*
X187628510Y-77463676D01*
X187858400Y-77342355D01*
X187858400Y-76149200D01*
X187838400Y-76149200D01*
X187838400Y-75895200D01*
X187858400Y-75895200D01*
X187858400Y-75875200D01*
X188112400Y-75875200D01*
X188112400Y-75895200D01*
G36*
X208432400Y-75895200D02*
X208452400Y-75895200D01*
X208452400Y-76149200D01*
X208432400Y-76149200D01*
X208432400Y-76169200D01*
X208178400Y-76169200D01*
X208178400Y-76149200D01*
X208158400Y-76149200D01*
X208158400Y-75895200D01*
X208178400Y-75895200D01*
X208178400Y-75875200D01*
X208432400Y-75875200D01*
X208432400Y-75895200D01*
X208432400Y-75895200D01*
G37*
X208432400Y-75895200D02*
X208452400Y-75895200D01*
X208452400Y-76149200D01*
X208432400Y-76149200D01*
X208432400Y-76169200D01*
X208178400Y-76169200D01*
X208178400Y-76149200D01*
X208158400Y-76149200D01*
X208158400Y-75895200D01*
X208178400Y-75895200D01*
X208178400Y-75875200D01*
X208432400Y-75875200D01*
X208432400Y-75895200D01*
G36*
X218592400Y-73355200D02*
X218612400Y-73355200D01*
X218612400Y-73609200D01*
X218592400Y-73609200D01*
X218592400Y-73629200D01*
X218338400Y-73629200D01*
X218338400Y-73609200D01*
X218318400Y-73609200D01*
X218318400Y-73355200D01*
X218338400Y-73355200D01*
X218338400Y-73335200D01*
X218592400Y-73335200D01*
X218592400Y-73355200D01*
X218592400Y-73355200D01*
G37*
X218592400Y-73355200D02*
X218612400Y-73355200D01*
X218612400Y-73609200D01*
X218592400Y-73609200D01*
X218592400Y-73629200D01*
X218338400Y-73629200D01*
X218338400Y-73609200D01*
X218318400Y-73609200D01*
X218318400Y-73355200D01*
X218338400Y-73355200D01*
X218338400Y-73335200D01*
X218592400Y-73335200D01*
X218592400Y-73355200D01*
G36*
X213512400Y-73355200D02*
X213532400Y-73355200D01*
X213532400Y-73609200D01*
X213512400Y-73609200D01*
X213512400Y-73629200D01*
X213258400Y-73629200D01*
X213258400Y-73609200D01*
X213238400Y-73609200D01*
X213238400Y-73355200D01*
X213258400Y-73355200D01*
X213258400Y-73335200D01*
X213512400Y-73335200D01*
X213512400Y-73355200D01*
X213512400Y-73355200D01*
G37*
X213512400Y-73355200D02*
X213532400Y-73355200D01*
X213532400Y-73609200D01*
X213512400Y-73609200D01*
X213512400Y-73629200D01*
X213258400Y-73629200D01*
X213258400Y-73609200D01*
X213238400Y-73609200D01*
X213238400Y-73355200D01*
X213258400Y-73355200D01*
X213258400Y-73335200D01*
X213512400Y-73335200D01*
X213512400Y-73355200D01*
G36*
X183032400Y-73355200D02*
X183052400Y-73355200D01*
X183052400Y-73609200D01*
X183032400Y-73609200D01*
X183032400Y-73629200D01*
X182778400Y-73629200D01*
X182778400Y-73609200D01*
X182758400Y-73609200D01*
X182758400Y-73355200D01*
X182778400Y-73355200D01*
X182778400Y-73335200D01*
X183032400Y-73335200D01*
X183032400Y-73355200D01*
X183032400Y-73355200D01*
G37*
X183032400Y-73355200D02*
X183052400Y-73355200D01*
X183052400Y-73609200D01*
X183032400Y-73609200D01*
X183032400Y-73629200D01*
X182778400Y-73629200D01*
X182778400Y-73609200D01*
X182758400Y-73609200D01*
X182758400Y-73355200D01*
X182778400Y-73355200D01*
X182778400Y-73335200D01*
X183032400Y-73335200D01*
X183032400Y-73355200D01*
M02*
